G04 #@! TF.GenerationSoftware,KiCad,Pcbnew,5.1.4*
G04 #@! TF.CreationDate,2019-11-01T23:16:51-03:00*
G04 #@! TF.ProjectId,fonte_18V_panel,666f6e74-655f-4313-9856-5f70616e656c,rev?*
G04 #@! TF.SameCoordinates,Original*
G04 #@! TF.FileFunction,Other,Fab,Bot*
%FSLAX46Y46*%
G04 Gerber Fmt 4.6, Leading zero omitted, Abs format (unit mm)*
G04 Created by KiCad (PCBNEW 5.1.4) date 2019-11-01 23:16:51*
%MOMM*%
%LPD*%
G04 APERTURE LIST*
%ADD10C,0.100000*%
%ADD11C,0.150000*%
%ADD12C,0.080000*%
%ADD13C,0.075000*%
G04 APERTURE END LIST*
D10*
X214365000Y-165440000D02*
X213165000Y-165440000D01*
X213165000Y-165440000D02*
X213165000Y-167440000D01*
X213165000Y-167440000D02*
X214365000Y-167440000D01*
X214365000Y-167440000D02*
X214365000Y-165440000D01*
X104365000Y-165440000D02*
X103165000Y-165440000D01*
X103165000Y-165440000D02*
X103165000Y-167440000D01*
X103165000Y-167440000D02*
X104365000Y-167440000D01*
X104365000Y-167440000D02*
X104365000Y-165440000D01*
X214365000Y-103440000D02*
X213165000Y-103440000D01*
X213165000Y-103440000D02*
X213165000Y-105440000D01*
X213165000Y-105440000D02*
X214365000Y-105440000D01*
X214365000Y-105440000D02*
X214365000Y-103440000D01*
X104365000Y-103440000D02*
X103165000Y-103440000D01*
X103165000Y-103440000D02*
X103165000Y-105440000D01*
X103165000Y-105440000D02*
X104365000Y-105440000D01*
X104365000Y-105440000D02*
X104365000Y-103440000D01*
X214365000Y-41440000D02*
X213165000Y-41440000D01*
X213165000Y-41440000D02*
X213165000Y-43440000D01*
X213165000Y-43440000D02*
X214365000Y-43440000D01*
X214365000Y-43440000D02*
X214365000Y-41440000D01*
X181200000Y-186000000D02*
X181200000Y-183550000D01*
X181750000Y-186570000D02*
X182600000Y-186570000D01*
X181200000Y-186000000D02*
X181750000Y-186570000D01*
X182600000Y-186570000D02*
X182600000Y-183530000D01*
X181200000Y-183530000D02*
X182600000Y-183530000D01*
X71200000Y-186000000D02*
X71200000Y-183550000D01*
X71750000Y-186570000D02*
X72600000Y-186570000D01*
X71200000Y-186000000D02*
X71750000Y-186570000D01*
X72600000Y-186570000D02*
X72600000Y-183530000D01*
X71200000Y-183530000D02*
X72600000Y-183530000D01*
X181200000Y-124000000D02*
X181200000Y-121550000D01*
X181750000Y-124570000D02*
X182600000Y-124570000D01*
X181200000Y-124000000D02*
X181750000Y-124570000D01*
X182600000Y-124570000D02*
X182600000Y-121530000D01*
X181200000Y-121530000D02*
X182600000Y-121530000D01*
X71200000Y-124000000D02*
X71200000Y-121550000D01*
X71750000Y-124570000D02*
X72600000Y-124570000D01*
X71200000Y-124000000D02*
X71750000Y-124570000D01*
X72600000Y-124570000D02*
X72600000Y-121530000D01*
X71200000Y-121530000D02*
X72600000Y-121530000D01*
X181200000Y-62000000D02*
X181200000Y-59550000D01*
X181750000Y-62570000D02*
X182600000Y-62570000D01*
X181200000Y-62000000D02*
X181750000Y-62570000D01*
X182600000Y-62570000D02*
X182600000Y-59530000D01*
X181200000Y-59530000D02*
X182600000Y-59530000D01*
X218175000Y-165440000D02*
X216975000Y-165440000D01*
X216975000Y-165440000D02*
X216975000Y-167440000D01*
X216975000Y-167440000D02*
X218175000Y-167440000D01*
X218175000Y-167440000D02*
X218175000Y-165440000D01*
X108175000Y-165440000D02*
X106975000Y-165440000D01*
X106975000Y-165440000D02*
X106975000Y-167440000D01*
X106975000Y-167440000D02*
X108175000Y-167440000D01*
X108175000Y-167440000D02*
X108175000Y-165440000D01*
X218175000Y-103440000D02*
X216975000Y-103440000D01*
X216975000Y-103440000D02*
X216975000Y-105440000D01*
X216975000Y-105440000D02*
X218175000Y-105440000D01*
X218175000Y-105440000D02*
X218175000Y-103440000D01*
X108175000Y-103440000D02*
X106975000Y-103440000D01*
X106975000Y-103440000D02*
X106975000Y-105440000D01*
X106975000Y-105440000D02*
X108175000Y-105440000D01*
X108175000Y-105440000D02*
X108175000Y-103440000D01*
X218175000Y-41440000D02*
X216975000Y-41440000D01*
X216975000Y-41440000D02*
X216975000Y-43440000D01*
X216975000Y-43440000D02*
X218175000Y-43440000D01*
X218175000Y-43440000D02*
X218175000Y-41440000D01*
X182005000Y-171935000D02*
X183205000Y-171935000D01*
X183205000Y-171935000D02*
X183205000Y-169935000D01*
X183205000Y-169935000D02*
X182005000Y-169935000D01*
X182005000Y-169935000D02*
X182005000Y-171935000D01*
X72005000Y-171935000D02*
X73205000Y-171935000D01*
X73205000Y-171935000D02*
X73205000Y-169935000D01*
X73205000Y-169935000D02*
X72005000Y-169935000D01*
X72005000Y-169935000D02*
X72005000Y-171935000D01*
X182005000Y-109935000D02*
X183205000Y-109935000D01*
X183205000Y-109935000D02*
X183205000Y-107935000D01*
X183205000Y-107935000D02*
X182005000Y-107935000D01*
X182005000Y-107935000D02*
X182005000Y-109935000D01*
X72005000Y-109935000D02*
X73205000Y-109935000D01*
X73205000Y-109935000D02*
X73205000Y-107935000D01*
X73205000Y-107935000D02*
X72005000Y-107935000D01*
X72005000Y-107935000D02*
X72005000Y-109935000D01*
X182005000Y-47935000D02*
X183205000Y-47935000D01*
X183205000Y-47935000D02*
X183205000Y-45935000D01*
X183205000Y-45935000D02*
X182005000Y-45935000D01*
X182005000Y-45935000D02*
X182005000Y-47935000D01*
X197175000Y-163585000D02*
X195975000Y-163585000D01*
X195975000Y-163585000D02*
X195975000Y-165585000D01*
X195975000Y-165585000D02*
X197175000Y-165585000D01*
X197175000Y-165585000D02*
X197175000Y-163585000D01*
X87175000Y-163585000D02*
X85975000Y-163585000D01*
X85975000Y-163585000D02*
X85975000Y-165585000D01*
X85975000Y-165585000D02*
X87175000Y-165585000D01*
X87175000Y-165585000D02*
X87175000Y-163585000D01*
X197175000Y-101585000D02*
X195975000Y-101585000D01*
X195975000Y-101585000D02*
X195975000Y-103585000D01*
X195975000Y-103585000D02*
X197175000Y-103585000D01*
X197175000Y-103585000D02*
X197175000Y-101585000D01*
X87175000Y-101585000D02*
X85975000Y-101585000D01*
X85975000Y-101585000D02*
X85975000Y-103585000D01*
X85975000Y-103585000D02*
X87175000Y-103585000D01*
X87175000Y-103585000D02*
X87175000Y-101585000D01*
X197175000Y-39585000D02*
X195975000Y-39585000D01*
X195975000Y-39585000D02*
X195975000Y-41585000D01*
X195975000Y-41585000D02*
X197175000Y-41585000D01*
X197175000Y-41585000D02*
X197175000Y-39585000D01*
X180030000Y-179460000D02*
X178830000Y-179460000D01*
X178830000Y-179460000D02*
X178830000Y-181460000D01*
X178830000Y-181460000D02*
X180030000Y-181460000D01*
X180030000Y-181460000D02*
X180030000Y-179460000D01*
X70030000Y-179460000D02*
X68830000Y-179460000D01*
X68830000Y-179460000D02*
X68830000Y-181460000D01*
X68830000Y-181460000D02*
X70030000Y-181460000D01*
X70030000Y-181460000D02*
X70030000Y-179460000D01*
X180030000Y-117460000D02*
X178830000Y-117460000D01*
X178830000Y-117460000D02*
X178830000Y-119460000D01*
X178830000Y-119460000D02*
X180030000Y-119460000D01*
X180030000Y-119460000D02*
X180030000Y-117460000D01*
X70030000Y-117460000D02*
X68830000Y-117460000D01*
X68830000Y-117460000D02*
X68830000Y-119460000D01*
X68830000Y-119460000D02*
X70030000Y-119460000D01*
X70030000Y-119460000D02*
X70030000Y-117460000D01*
X180030000Y-55460000D02*
X178830000Y-55460000D01*
X178830000Y-55460000D02*
X178830000Y-57460000D01*
X178830000Y-57460000D02*
X180030000Y-57460000D01*
X180030000Y-57460000D02*
X180030000Y-55460000D01*
X194705000Y-170030000D02*
X195905000Y-170030000D01*
X195905000Y-170030000D02*
X195905000Y-168030000D01*
X195905000Y-168030000D02*
X194705000Y-168030000D01*
X194705000Y-168030000D02*
X194705000Y-170030000D01*
X84705000Y-170030000D02*
X85905000Y-170030000D01*
X85905000Y-170030000D02*
X85905000Y-168030000D01*
X85905000Y-168030000D02*
X84705000Y-168030000D01*
X84705000Y-168030000D02*
X84705000Y-170030000D01*
X194705000Y-108030000D02*
X195905000Y-108030000D01*
X195905000Y-108030000D02*
X195905000Y-106030000D01*
X195905000Y-106030000D02*
X194705000Y-106030000D01*
X194705000Y-106030000D02*
X194705000Y-108030000D01*
X84705000Y-108030000D02*
X85905000Y-108030000D01*
X85905000Y-108030000D02*
X85905000Y-106030000D01*
X85905000Y-106030000D02*
X84705000Y-106030000D01*
X84705000Y-106030000D02*
X84705000Y-108030000D01*
X194705000Y-46030000D02*
X195905000Y-46030000D01*
X195905000Y-46030000D02*
X195905000Y-44030000D01*
X195905000Y-44030000D02*
X194705000Y-44030000D01*
X194705000Y-44030000D02*
X194705000Y-46030000D01*
X177490000Y-179460000D02*
X176290000Y-179460000D01*
X176290000Y-179460000D02*
X176290000Y-181460000D01*
X176290000Y-181460000D02*
X177490000Y-181460000D01*
X177490000Y-181460000D02*
X177490000Y-179460000D01*
X67490000Y-179460000D02*
X66290000Y-179460000D01*
X66290000Y-179460000D02*
X66290000Y-181460000D01*
X66290000Y-181460000D02*
X67490000Y-181460000D01*
X67490000Y-181460000D02*
X67490000Y-179460000D01*
X177490000Y-117460000D02*
X176290000Y-117460000D01*
X176290000Y-117460000D02*
X176290000Y-119460000D01*
X176290000Y-119460000D02*
X177490000Y-119460000D01*
X177490000Y-119460000D02*
X177490000Y-117460000D01*
X67490000Y-117460000D02*
X66290000Y-117460000D01*
X66290000Y-117460000D02*
X66290000Y-119460000D01*
X66290000Y-119460000D02*
X67490000Y-119460000D01*
X67490000Y-119460000D02*
X67490000Y-117460000D01*
X177490000Y-55460000D02*
X176290000Y-55460000D01*
X176290000Y-55460000D02*
X176290000Y-57460000D01*
X176290000Y-57460000D02*
X177490000Y-57460000D01*
X177490000Y-57460000D02*
X177490000Y-55460000D01*
X194635000Y-163585000D02*
X193435000Y-163585000D01*
X193435000Y-163585000D02*
X193435000Y-165585000D01*
X193435000Y-165585000D02*
X194635000Y-165585000D01*
X194635000Y-165585000D02*
X194635000Y-163585000D01*
X84635000Y-163585000D02*
X83435000Y-163585000D01*
X83435000Y-163585000D02*
X83435000Y-165585000D01*
X83435000Y-165585000D02*
X84635000Y-165585000D01*
X84635000Y-165585000D02*
X84635000Y-163585000D01*
X194635000Y-101585000D02*
X193435000Y-101585000D01*
X193435000Y-101585000D02*
X193435000Y-103585000D01*
X193435000Y-103585000D02*
X194635000Y-103585000D01*
X194635000Y-103585000D02*
X194635000Y-101585000D01*
X84635000Y-101585000D02*
X83435000Y-101585000D01*
X83435000Y-101585000D02*
X83435000Y-103585000D01*
X83435000Y-103585000D02*
X84635000Y-103585000D01*
X84635000Y-103585000D02*
X84635000Y-101585000D01*
X194635000Y-39585000D02*
X193435000Y-39585000D01*
X193435000Y-39585000D02*
X193435000Y-41585000D01*
X193435000Y-41585000D02*
X194635000Y-41585000D01*
X194635000Y-41585000D02*
X194635000Y-39585000D01*
X179395000Y-169935000D02*
X178195000Y-169935000D01*
X178195000Y-169935000D02*
X178195000Y-171935000D01*
X178195000Y-171935000D02*
X179395000Y-171935000D01*
X179395000Y-171935000D02*
X179395000Y-169935000D01*
X69395000Y-169935000D02*
X68195000Y-169935000D01*
X68195000Y-169935000D02*
X68195000Y-171935000D01*
X68195000Y-171935000D02*
X69395000Y-171935000D01*
X69395000Y-171935000D02*
X69395000Y-169935000D01*
X179395000Y-107935000D02*
X178195000Y-107935000D01*
X178195000Y-107935000D02*
X178195000Y-109935000D01*
X178195000Y-109935000D02*
X179395000Y-109935000D01*
X179395000Y-109935000D02*
X179395000Y-107935000D01*
X69395000Y-107935000D02*
X68195000Y-107935000D01*
X68195000Y-107935000D02*
X68195000Y-109935000D01*
X68195000Y-109935000D02*
X69395000Y-109935000D01*
X69395000Y-109935000D02*
X69395000Y-107935000D01*
X179395000Y-45935000D02*
X178195000Y-45935000D01*
X178195000Y-45935000D02*
X178195000Y-47935000D01*
X178195000Y-47935000D02*
X179395000Y-47935000D01*
X179395000Y-47935000D02*
X179395000Y-45935000D01*
X177600000Y-185950000D02*
X178800000Y-185950000D01*
X178800000Y-185950000D02*
X178800000Y-183950000D01*
X178800000Y-183950000D02*
X177600000Y-183950000D01*
X177600000Y-183950000D02*
X177600000Y-185950000D01*
X67600000Y-185950000D02*
X68800000Y-185950000D01*
X68800000Y-185950000D02*
X68800000Y-183950000D01*
X68800000Y-183950000D02*
X67600000Y-183950000D01*
X67600000Y-183950000D02*
X67600000Y-185950000D01*
X177600000Y-123950000D02*
X178800000Y-123950000D01*
X178800000Y-123950000D02*
X178800000Y-121950000D01*
X178800000Y-121950000D02*
X177600000Y-121950000D01*
X177600000Y-121950000D02*
X177600000Y-123950000D01*
X67600000Y-123950000D02*
X68800000Y-123950000D01*
X68800000Y-123950000D02*
X68800000Y-121950000D01*
X68800000Y-121950000D02*
X67600000Y-121950000D01*
X67600000Y-121950000D02*
X67600000Y-123950000D01*
X177600000Y-61950000D02*
X178800000Y-61950000D01*
X178800000Y-61950000D02*
X178800000Y-59950000D01*
X178800000Y-59950000D02*
X177600000Y-59950000D01*
X177600000Y-59950000D02*
X177600000Y-61950000D01*
X67600000Y-59950000D02*
X67600000Y-61950000D01*
X68800000Y-59950000D02*
X67600000Y-59950000D01*
X68800000Y-61950000D02*
X68800000Y-59950000D01*
X67600000Y-61950000D02*
X68800000Y-61950000D01*
X84635000Y-41585000D02*
X84635000Y-39585000D01*
X83435000Y-41585000D02*
X84635000Y-41585000D01*
X83435000Y-39585000D02*
X83435000Y-41585000D01*
X84635000Y-39585000D02*
X83435000Y-39585000D01*
X84705000Y-44030000D02*
X84705000Y-46030000D01*
X85905000Y-44030000D02*
X84705000Y-44030000D01*
X85905000Y-46030000D02*
X85905000Y-44030000D01*
X84705000Y-46030000D02*
X85905000Y-46030000D01*
X72005000Y-45935000D02*
X72005000Y-47935000D01*
X73205000Y-45935000D02*
X72005000Y-45935000D01*
X73205000Y-47935000D02*
X73205000Y-45935000D01*
X72005000Y-47935000D02*
X73205000Y-47935000D01*
X69395000Y-47935000D02*
X69395000Y-45935000D01*
X68195000Y-47935000D02*
X69395000Y-47935000D01*
X68195000Y-45935000D02*
X68195000Y-47935000D01*
X69395000Y-45935000D02*
X68195000Y-45935000D01*
X71200000Y-59530000D02*
X72600000Y-59530000D01*
X72600000Y-62570000D02*
X72600000Y-59530000D01*
X71200000Y-62000000D02*
X71750000Y-62570000D01*
X71750000Y-62570000D02*
X72600000Y-62570000D01*
X71200000Y-62000000D02*
X71200000Y-59550000D01*
X104365000Y-43440000D02*
X104365000Y-41440000D01*
X103165000Y-43440000D02*
X104365000Y-43440000D01*
X103165000Y-41440000D02*
X103165000Y-43440000D01*
X104365000Y-41440000D02*
X103165000Y-41440000D01*
X108175000Y-43440000D02*
X108175000Y-41440000D01*
X106975000Y-43440000D02*
X108175000Y-43440000D01*
X106975000Y-41440000D02*
X106975000Y-43440000D01*
X108175000Y-41440000D02*
X106975000Y-41440000D01*
X67490000Y-57460000D02*
X67490000Y-55460000D01*
X66290000Y-57460000D02*
X67490000Y-57460000D01*
X66290000Y-55460000D02*
X66290000Y-57460000D01*
X67490000Y-55460000D02*
X66290000Y-55460000D01*
X70030000Y-57460000D02*
X70030000Y-55460000D01*
X68830000Y-57460000D02*
X70030000Y-57460000D01*
X68830000Y-55460000D02*
X68830000Y-57460000D01*
X70030000Y-55460000D02*
X68830000Y-55460000D01*
X87175000Y-41585000D02*
X87175000Y-39585000D01*
X85975000Y-41585000D02*
X87175000Y-41585000D01*
X85975000Y-39585000D02*
X85975000Y-41585000D01*
X87175000Y-39585000D02*
X85975000Y-39585000D01*
D11*
X214867380Y-165225714D02*
X214867380Y-165320952D01*
X214915000Y-165416190D01*
X214962619Y-165463809D01*
X215057857Y-165511428D01*
X215248333Y-165559047D01*
X215486428Y-165559047D01*
X215676904Y-165511428D01*
X215772142Y-165463809D01*
X215819761Y-165416190D01*
X215867380Y-165320952D01*
X215867380Y-165225714D01*
X215819761Y-165130476D01*
X215772142Y-165082857D01*
X215676904Y-165035238D01*
X215486428Y-164987619D01*
X215248333Y-164987619D01*
X215057857Y-165035238D01*
X214962619Y-165082857D01*
X214915000Y-165130476D01*
X214867380Y-165225714D01*
X215772142Y-165987619D02*
X215819761Y-166035238D01*
X215867380Y-165987619D01*
X215819761Y-165940000D01*
X215772142Y-165987619D01*
X215867380Y-165987619D01*
X215867380Y-166987619D02*
X215867380Y-166416190D01*
X215867380Y-166701904D02*
X214867380Y-166701904D01*
X215010238Y-166606666D01*
X215105476Y-166511428D01*
X215153095Y-166416190D01*
X215200714Y-167844761D02*
X215867380Y-167844761D01*
X215200714Y-167416190D02*
X215724523Y-167416190D01*
X215819761Y-167463809D01*
X215867380Y-167559047D01*
X215867380Y-167701904D01*
X215819761Y-167797142D01*
X215772142Y-167844761D01*
D12*
X214553571Y-166130476D02*
X214577380Y-166106666D01*
X214601190Y-166035238D01*
X214601190Y-165987619D01*
X214577380Y-165916190D01*
X214529761Y-165868571D01*
X214482142Y-165844761D01*
X214386904Y-165820952D01*
X214315476Y-165820952D01*
X214220238Y-165844761D01*
X214172619Y-165868571D01*
X214125000Y-165916190D01*
X214101190Y-165987619D01*
X214101190Y-166035238D01*
X214125000Y-166106666D01*
X214148809Y-166130476D01*
X214601190Y-166416190D02*
X214577380Y-166368571D01*
X214553571Y-166344761D01*
X214505952Y-166320952D01*
X214363095Y-166320952D01*
X214315476Y-166344761D01*
X214291666Y-166368571D01*
X214267857Y-166416190D01*
X214267857Y-166487619D01*
X214291666Y-166535238D01*
X214315476Y-166559047D01*
X214363095Y-166582857D01*
X214505952Y-166582857D01*
X214553571Y-166559047D01*
X214577380Y-166535238D01*
X214601190Y-166487619D01*
X214601190Y-166416190D01*
X214267857Y-167011428D02*
X214601190Y-167011428D01*
X214077380Y-166892380D02*
X214434523Y-166773333D01*
X214434523Y-167082857D01*
D11*
X104867380Y-165225714D02*
X104867380Y-165320952D01*
X104915000Y-165416190D01*
X104962619Y-165463809D01*
X105057857Y-165511428D01*
X105248333Y-165559047D01*
X105486428Y-165559047D01*
X105676904Y-165511428D01*
X105772142Y-165463809D01*
X105819761Y-165416190D01*
X105867380Y-165320952D01*
X105867380Y-165225714D01*
X105819761Y-165130476D01*
X105772142Y-165082857D01*
X105676904Y-165035238D01*
X105486428Y-164987619D01*
X105248333Y-164987619D01*
X105057857Y-165035238D01*
X104962619Y-165082857D01*
X104915000Y-165130476D01*
X104867380Y-165225714D01*
X105772142Y-165987619D02*
X105819761Y-166035238D01*
X105867380Y-165987619D01*
X105819761Y-165940000D01*
X105772142Y-165987619D01*
X105867380Y-165987619D01*
X105867380Y-166987619D02*
X105867380Y-166416190D01*
X105867380Y-166701904D02*
X104867380Y-166701904D01*
X105010238Y-166606666D01*
X105105476Y-166511428D01*
X105153095Y-166416190D01*
X105200714Y-167844761D02*
X105867380Y-167844761D01*
X105200714Y-167416190D02*
X105724523Y-167416190D01*
X105819761Y-167463809D01*
X105867380Y-167559047D01*
X105867380Y-167701904D01*
X105819761Y-167797142D01*
X105772142Y-167844761D01*
D12*
X104553571Y-166130476D02*
X104577380Y-166106666D01*
X104601190Y-166035238D01*
X104601190Y-165987619D01*
X104577380Y-165916190D01*
X104529761Y-165868571D01*
X104482142Y-165844761D01*
X104386904Y-165820952D01*
X104315476Y-165820952D01*
X104220238Y-165844761D01*
X104172619Y-165868571D01*
X104125000Y-165916190D01*
X104101190Y-165987619D01*
X104101190Y-166035238D01*
X104125000Y-166106666D01*
X104148809Y-166130476D01*
X104601190Y-166416190D02*
X104577380Y-166368571D01*
X104553571Y-166344761D01*
X104505952Y-166320952D01*
X104363095Y-166320952D01*
X104315476Y-166344761D01*
X104291666Y-166368571D01*
X104267857Y-166416190D01*
X104267857Y-166487619D01*
X104291666Y-166535238D01*
X104315476Y-166559047D01*
X104363095Y-166582857D01*
X104505952Y-166582857D01*
X104553571Y-166559047D01*
X104577380Y-166535238D01*
X104601190Y-166487619D01*
X104601190Y-166416190D01*
X104267857Y-167011428D02*
X104601190Y-167011428D01*
X104077380Y-166892380D02*
X104434523Y-166773333D01*
X104434523Y-167082857D01*
D11*
X214867380Y-103225714D02*
X214867380Y-103320952D01*
X214915000Y-103416190D01*
X214962619Y-103463809D01*
X215057857Y-103511428D01*
X215248333Y-103559047D01*
X215486428Y-103559047D01*
X215676904Y-103511428D01*
X215772142Y-103463809D01*
X215819761Y-103416190D01*
X215867380Y-103320952D01*
X215867380Y-103225714D01*
X215819761Y-103130476D01*
X215772142Y-103082857D01*
X215676904Y-103035238D01*
X215486428Y-102987619D01*
X215248333Y-102987619D01*
X215057857Y-103035238D01*
X214962619Y-103082857D01*
X214915000Y-103130476D01*
X214867380Y-103225714D01*
X215772142Y-103987619D02*
X215819761Y-104035238D01*
X215867380Y-103987619D01*
X215819761Y-103940000D01*
X215772142Y-103987619D01*
X215867380Y-103987619D01*
X215867380Y-104987619D02*
X215867380Y-104416190D01*
X215867380Y-104701904D02*
X214867380Y-104701904D01*
X215010238Y-104606666D01*
X215105476Y-104511428D01*
X215153095Y-104416190D01*
X215200714Y-105844761D02*
X215867380Y-105844761D01*
X215200714Y-105416190D02*
X215724523Y-105416190D01*
X215819761Y-105463809D01*
X215867380Y-105559047D01*
X215867380Y-105701904D01*
X215819761Y-105797142D01*
X215772142Y-105844761D01*
D12*
X214553571Y-104130476D02*
X214577380Y-104106666D01*
X214601190Y-104035238D01*
X214601190Y-103987619D01*
X214577380Y-103916190D01*
X214529761Y-103868571D01*
X214482142Y-103844761D01*
X214386904Y-103820952D01*
X214315476Y-103820952D01*
X214220238Y-103844761D01*
X214172619Y-103868571D01*
X214125000Y-103916190D01*
X214101190Y-103987619D01*
X214101190Y-104035238D01*
X214125000Y-104106666D01*
X214148809Y-104130476D01*
X214601190Y-104416190D02*
X214577380Y-104368571D01*
X214553571Y-104344761D01*
X214505952Y-104320952D01*
X214363095Y-104320952D01*
X214315476Y-104344761D01*
X214291666Y-104368571D01*
X214267857Y-104416190D01*
X214267857Y-104487619D01*
X214291666Y-104535238D01*
X214315476Y-104559047D01*
X214363095Y-104582857D01*
X214505952Y-104582857D01*
X214553571Y-104559047D01*
X214577380Y-104535238D01*
X214601190Y-104487619D01*
X214601190Y-104416190D01*
X214267857Y-105011428D02*
X214601190Y-105011428D01*
X214077380Y-104892380D02*
X214434523Y-104773333D01*
X214434523Y-105082857D01*
D11*
X104867380Y-103225714D02*
X104867380Y-103320952D01*
X104915000Y-103416190D01*
X104962619Y-103463809D01*
X105057857Y-103511428D01*
X105248333Y-103559047D01*
X105486428Y-103559047D01*
X105676904Y-103511428D01*
X105772142Y-103463809D01*
X105819761Y-103416190D01*
X105867380Y-103320952D01*
X105867380Y-103225714D01*
X105819761Y-103130476D01*
X105772142Y-103082857D01*
X105676904Y-103035238D01*
X105486428Y-102987619D01*
X105248333Y-102987619D01*
X105057857Y-103035238D01*
X104962619Y-103082857D01*
X104915000Y-103130476D01*
X104867380Y-103225714D01*
X105772142Y-103987619D02*
X105819761Y-104035238D01*
X105867380Y-103987619D01*
X105819761Y-103940000D01*
X105772142Y-103987619D01*
X105867380Y-103987619D01*
X105867380Y-104987619D02*
X105867380Y-104416190D01*
X105867380Y-104701904D02*
X104867380Y-104701904D01*
X105010238Y-104606666D01*
X105105476Y-104511428D01*
X105153095Y-104416190D01*
X105200714Y-105844761D02*
X105867380Y-105844761D01*
X105200714Y-105416190D02*
X105724523Y-105416190D01*
X105819761Y-105463809D01*
X105867380Y-105559047D01*
X105867380Y-105701904D01*
X105819761Y-105797142D01*
X105772142Y-105844761D01*
D12*
X104553571Y-104130476D02*
X104577380Y-104106666D01*
X104601190Y-104035238D01*
X104601190Y-103987619D01*
X104577380Y-103916190D01*
X104529761Y-103868571D01*
X104482142Y-103844761D01*
X104386904Y-103820952D01*
X104315476Y-103820952D01*
X104220238Y-103844761D01*
X104172619Y-103868571D01*
X104125000Y-103916190D01*
X104101190Y-103987619D01*
X104101190Y-104035238D01*
X104125000Y-104106666D01*
X104148809Y-104130476D01*
X104601190Y-104416190D02*
X104577380Y-104368571D01*
X104553571Y-104344761D01*
X104505952Y-104320952D01*
X104363095Y-104320952D01*
X104315476Y-104344761D01*
X104291666Y-104368571D01*
X104267857Y-104416190D01*
X104267857Y-104487619D01*
X104291666Y-104535238D01*
X104315476Y-104559047D01*
X104363095Y-104582857D01*
X104505952Y-104582857D01*
X104553571Y-104559047D01*
X104577380Y-104535238D01*
X104601190Y-104487619D01*
X104601190Y-104416190D01*
X104267857Y-105011428D02*
X104601190Y-105011428D01*
X104077380Y-104892380D02*
X104434523Y-104773333D01*
X104434523Y-105082857D01*
D11*
X214867380Y-41225714D02*
X214867380Y-41320952D01*
X214915000Y-41416190D01*
X214962619Y-41463809D01*
X215057857Y-41511428D01*
X215248333Y-41559047D01*
X215486428Y-41559047D01*
X215676904Y-41511428D01*
X215772142Y-41463809D01*
X215819761Y-41416190D01*
X215867380Y-41320952D01*
X215867380Y-41225714D01*
X215819761Y-41130476D01*
X215772142Y-41082857D01*
X215676904Y-41035238D01*
X215486428Y-40987619D01*
X215248333Y-40987619D01*
X215057857Y-41035238D01*
X214962619Y-41082857D01*
X214915000Y-41130476D01*
X214867380Y-41225714D01*
X215772142Y-41987619D02*
X215819761Y-42035238D01*
X215867380Y-41987619D01*
X215819761Y-41940000D01*
X215772142Y-41987619D01*
X215867380Y-41987619D01*
X215867380Y-42987619D02*
X215867380Y-42416190D01*
X215867380Y-42701904D02*
X214867380Y-42701904D01*
X215010238Y-42606666D01*
X215105476Y-42511428D01*
X215153095Y-42416190D01*
X215200714Y-43844761D02*
X215867380Y-43844761D01*
X215200714Y-43416190D02*
X215724523Y-43416190D01*
X215819761Y-43463809D01*
X215867380Y-43559047D01*
X215867380Y-43701904D01*
X215819761Y-43797142D01*
X215772142Y-43844761D01*
D12*
X214553571Y-42130476D02*
X214577380Y-42106666D01*
X214601190Y-42035238D01*
X214601190Y-41987619D01*
X214577380Y-41916190D01*
X214529761Y-41868571D01*
X214482142Y-41844761D01*
X214386904Y-41820952D01*
X214315476Y-41820952D01*
X214220238Y-41844761D01*
X214172619Y-41868571D01*
X214125000Y-41916190D01*
X214101190Y-41987619D01*
X214101190Y-42035238D01*
X214125000Y-42106666D01*
X214148809Y-42130476D01*
X214601190Y-42416190D02*
X214577380Y-42368571D01*
X214553571Y-42344761D01*
X214505952Y-42320952D01*
X214363095Y-42320952D01*
X214315476Y-42344761D01*
X214291666Y-42368571D01*
X214267857Y-42416190D01*
X214267857Y-42487619D01*
X214291666Y-42535238D01*
X214315476Y-42559047D01*
X214363095Y-42582857D01*
X214505952Y-42582857D01*
X214553571Y-42559047D01*
X214577380Y-42535238D01*
X214601190Y-42487619D01*
X214601190Y-42416190D01*
X214267857Y-43011428D02*
X214601190Y-43011428D01*
X214077380Y-42892380D02*
X214434523Y-42773333D01*
X214434523Y-43082857D01*
D11*
X185804761Y-182954761D02*
X185661904Y-183002380D01*
X185423809Y-183002380D01*
X185328571Y-182954761D01*
X185280952Y-182907142D01*
X185233333Y-182811904D01*
X185233333Y-182716666D01*
X185280952Y-182621428D01*
X185328571Y-182573809D01*
X185423809Y-182526190D01*
X185614285Y-182478571D01*
X185709523Y-182430952D01*
X185757142Y-182383333D01*
X185804761Y-182288095D01*
X185804761Y-182192857D01*
X185757142Y-182097619D01*
X185709523Y-182050000D01*
X185614285Y-182002380D01*
X185376190Y-182002380D01*
X185233333Y-182050000D01*
X184804761Y-183002380D02*
X184804761Y-182335714D01*
X184804761Y-182002380D02*
X184852380Y-182050000D01*
X184804761Y-182097619D01*
X184757142Y-182050000D01*
X184804761Y-182002380D01*
X184804761Y-182097619D01*
X184376190Y-182097619D02*
X184328571Y-182050000D01*
X184233333Y-182002380D01*
X183995238Y-182002380D01*
X183900000Y-182050000D01*
X183852380Y-182097619D01*
X183804761Y-182192857D01*
X183804761Y-182288095D01*
X183852380Y-182430952D01*
X184423809Y-183002380D01*
X183804761Y-183002380D01*
X183471428Y-182002380D02*
X182852380Y-182002380D01*
X183185714Y-182383333D01*
X183042857Y-182383333D01*
X182947619Y-182430952D01*
X182900000Y-182478571D01*
X182852380Y-182573809D01*
X182852380Y-182811904D01*
X182900000Y-182907142D01*
X182947619Y-182954761D01*
X183042857Y-183002380D01*
X183328571Y-183002380D01*
X183423809Y-182954761D01*
X183471428Y-182907142D01*
X182233333Y-182002380D02*
X182138095Y-182002380D01*
X182042857Y-182050000D01*
X181995238Y-182097619D01*
X181947619Y-182192857D01*
X181900000Y-182383333D01*
X181900000Y-182621428D01*
X181947619Y-182811904D01*
X181995238Y-182907142D01*
X182042857Y-182954761D01*
X182138095Y-183002380D01*
X182233333Y-183002380D01*
X182328571Y-182954761D01*
X182376190Y-182907142D01*
X182423809Y-182811904D01*
X182471428Y-182621428D01*
X182471428Y-182383333D01*
X182423809Y-182192857D01*
X182376190Y-182097619D01*
X182328571Y-182050000D01*
X182233333Y-182002380D01*
X181328571Y-182430952D02*
X181423809Y-182383333D01*
X181471428Y-182335714D01*
X181519047Y-182240476D01*
X181519047Y-182192857D01*
X181471428Y-182097619D01*
X181423809Y-182050000D01*
X181328571Y-182002380D01*
X181138095Y-182002380D01*
X181042857Y-182050000D01*
X180995238Y-182097619D01*
X180947619Y-182192857D01*
X180947619Y-182240476D01*
X180995238Y-182335714D01*
X181042857Y-182383333D01*
X181138095Y-182430952D01*
X181328571Y-182430952D01*
X181423809Y-182478571D01*
X181471428Y-182526190D01*
X181519047Y-182621428D01*
X181519047Y-182811904D01*
X181471428Y-182907142D01*
X181423809Y-182954761D01*
X181328571Y-183002380D01*
X181138095Y-183002380D01*
X181042857Y-182954761D01*
X180995238Y-182907142D01*
X180947619Y-182811904D01*
X180947619Y-182621428D01*
X180995238Y-182526190D01*
X181042857Y-182478571D01*
X181138095Y-182430952D01*
X179947619Y-182907142D02*
X179995238Y-182954761D01*
X180138095Y-183002380D01*
X180233333Y-183002380D01*
X180376190Y-182954761D01*
X180471428Y-182859523D01*
X180519047Y-182764285D01*
X180566666Y-182573809D01*
X180566666Y-182430952D01*
X180519047Y-182240476D01*
X180471428Y-182145238D01*
X180376190Y-182050000D01*
X180233333Y-182002380D01*
X180138095Y-182002380D01*
X179995238Y-182050000D01*
X179947619Y-182097619D01*
X179519047Y-183002380D02*
X179519047Y-182002380D01*
X179280952Y-182002380D01*
X179138095Y-182050000D01*
X179042857Y-182145238D01*
X178995238Y-182240476D01*
X178947619Y-182430952D01*
X178947619Y-182573809D01*
X178995238Y-182764285D01*
X179042857Y-182859523D01*
X179138095Y-182954761D01*
X179280952Y-183002380D01*
X179519047Y-183002380D01*
X178566666Y-182954761D02*
X178423809Y-183002380D01*
X178185714Y-183002380D01*
X178090476Y-182954761D01*
X178042857Y-182907142D01*
X177995238Y-182811904D01*
X177995238Y-182716666D01*
X178042857Y-182621428D01*
X178090476Y-182573809D01*
X178185714Y-182526190D01*
X178376190Y-182478571D01*
X178471428Y-182430952D01*
X178519047Y-182383333D01*
X178566666Y-182288095D01*
X178566666Y-182192857D01*
X178519047Y-182097619D01*
X178471428Y-182050000D01*
X178376190Y-182002380D01*
X178138095Y-182002380D01*
X177995238Y-182050000D01*
D13*
X182173809Y-185002380D02*
X182150000Y-184954761D01*
X182102380Y-184907142D01*
X182030952Y-184835714D01*
X182007142Y-184788095D01*
X182007142Y-184740476D01*
X182126190Y-184764285D02*
X182102380Y-184716666D01*
X182054761Y-184669047D01*
X181959523Y-184645238D01*
X181792857Y-184645238D01*
X181697619Y-184669047D01*
X181650000Y-184716666D01*
X181626190Y-184764285D01*
X181626190Y-184859523D01*
X181650000Y-184907142D01*
X181697619Y-184954761D01*
X181792857Y-184978571D01*
X181959523Y-184978571D01*
X182054761Y-184954761D01*
X182102380Y-184907142D01*
X182126190Y-184859523D01*
X182126190Y-184764285D01*
X182126190Y-185454761D02*
X182126190Y-185169047D01*
X182126190Y-185311904D02*
X181626190Y-185311904D01*
X181697619Y-185264285D01*
X181745238Y-185216666D01*
X181769047Y-185169047D01*
D11*
X75804761Y-182954761D02*
X75661904Y-183002380D01*
X75423809Y-183002380D01*
X75328571Y-182954761D01*
X75280952Y-182907142D01*
X75233333Y-182811904D01*
X75233333Y-182716666D01*
X75280952Y-182621428D01*
X75328571Y-182573809D01*
X75423809Y-182526190D01*
X75614285Y-182478571D01*
X75709523Y-182430952D01*
X75757142Y-182383333D01*
X75804761Y-182288095D01*
X75804761Y-182192857D01*
X75757142Y-182097619D01*
X75709523Y-182050000D01*
X75614285Y-182002380D01*
X75376190Y-182002380D01*
X75233333Y-182050000D01*
X74804761Y-183002380D02*
X74804761Y-182335714D01*
X74804761Y-182002380D02*
X74852380Y-182050000D01*
X74804761Y-182097619D01*
X74757142Y-182050000D01*
X74804761Y-182002380D01*
X74804761Y-182097619D01*
X74376190Y-182097619D02*
X74328571Y-182050000D01*
X74233333Y-182002380D01*
X73995238Y-182002380D01*
X73900000Y-182050000D01*
X73852380Y-182097619D01*
X73804761Y-182192857D01*
X73804761Y-182288095D01*
X73852380Y-182430952D01*
X74423809Y-183002380D01*
X73804761Y-183002380D01*
X73471428Y-182002380D02*
X72852380Y-182002380D01*
X73185714Y-182383333D01*
X73042857Y-182383333D01*
X72947619Y-182430952D01*
X72900000Y-182478571D01*
X72852380Y-182573809D01*
X72852380Y-182811904D01*
X72900000Y-182907142D01*
X72947619Y-182954761D01*
X73042857Y-183002380D01*
X73328571Y-183002380D01*
X73423809Y-182954761D01*
X73471428Y-182907142D01*
X72233333Y-182002380D02*
X72138095Y-182002380D01*
X72042857Y-182050000D01*
X71995238Y-182097619D01*
X71947619Y-182192857D01*
X71900000Y-182383333D01*
X71900000Y-182621428D01*
X71947619Y-182811904D01*
X71995238Y-182907142D01*
X72042857Y-182954761D01*
X72138095Y-183002380D01*
X72233333Y-183002380D01*
X72328571Y-182954761D01*
X72376190Y-182907142D01*
X72423809Y-182811904D01*
X72471428Y-182621428D01*
X72471428Y-182383333D01*
X72423809Y-182192857D01*
X72376190Y-182097619D01*
X72328571Y-182050000D01*
X72233333Y-182002380D01*
X71328571Y-182430952D02*
X71423809Y-182383333D01*
X71471428Y-182335714D01*
X71519047Y-182240476D01*
X71519047Y-182192857D01*
X71471428Y-182097619D01*
X71423809Y-182050000D01*
X71328571Y-182002380D01*
X71138095Y-182002380D01*
X71042857Y-182050000D01*
X70995238Y-182097619D01*
X70947619Y-182192857D01*
X70947619Y-182240476D01*
X70995238Y-182335714D01*
X71042857Y-182383333D01*
X71138095Y-182430952D01*
X71328571Y-182430952D01*
X71423809Y-182478571D01*
X71471428Y-182526190D01*
X71519047Y-182621428D01*
X71519047Y-182811904D01*
X71471428Y-182907142D01*
X71423809Y-182954761D01*
X71328571Y-183002380D01*
X71138095Y-183002380D01*
X71042857Y-182954761D01*
X70995238Y-182907142D01*
X70947619Y-182811904D01*
X70947619Y-182621428D01*
X70995238Y-182526190D01*
X71042857Y-182478571D01*
X71138095Y-182430952D01*
X69947619Y-182907142D02*
X69995238Y-182954761D01*
X70138095Y-183002380D01*
X70233333Y-183002380D01*
X70376190Y-182954761D01*
X70471428Y-182859523D01*
X70519047Y-182764285D01*
X70566666Y-182573809D01*
X70566666Y-182430952D01*
X70519047Y-182240476D01*
X70471428Y-182145238D01*
X70376190Y-182050000D01*
X70233333Y-182002380D01*
X70138095Y-182002380D01*
X69995238Y-182050000D01*
X69947619Y-182097619D01*
X69519047Y-183002380D02*
X69519047Y-182002380D01*
X69280952Y-182002380D01*
X69138095Y-182050000D01*
X69042857Y-182145238D01*
X68995238Y-182240476D01*
X68947619Y-182430952D01*
X68947619Y-182573809D01*
X68995238Y-182764285D01*
X69042857Y-182859523D01*
X69138095Y-182954761D01*
X69280952Y-183002380D01*
X69519047Y-183002380D01*
X68566666Y-182954761D02*
X68423809Y-183002380D01*
X68185714Y-183002380D01*
X68090476Y-182954761D01*
X68042857Y-182907142D01*
X67995238Y-182811904D01*
X67995238Y-182716666D01*
X68042857Y-182621428D01*
X68090476Y-182573809D01*
X68185714Y-182526190D01*
X68376190Y-182478571D01*
X68471428Y-182430952D01*
X68519047Y-182383333D01*
X68566666Y-182288095D01*
X68566666Y-182192857D01*
X68519047Y-182097619D01*
X68471428Y-182050000D01*
X68376190Y-182002380D01*
X68138095Y-182002380D01*
X67995238Y-182050000D01*
D13*
X72173809Y-185002380D02*
X72150000Y-184954761D01*
X72102380Y-184907142D01*
X72030952Y-184835714D01*
X72007142Y-184788095D01*
X72007142Y-184740476D01*
X72126190Y-184764285D02*
X72102380Y-184716666D01*
X72054761Y-184669047D01*
X71959523Y-184645238D01*
X71792857Y-184645238D01*
X71697619Y-184669047D01*
X71650000Y-184716666D01*
X71626190Y-184764285D01*
X71626190Y-184859523D01*
X71650000Y-184907142D01*
X71697619Y-184954761D01*
X71792857Y-184978571D01*
X71959523Y-184978571D01*
X72054761Y-184954761D01*
X72102380Y-184907142D01*
X72126190Y-184859523D01*
X72126190Y-184764285D01*
X72126190Y-185454761D02*
X72126190Y-185169047D01*
X72126190Y-185311904D02*
X71626190Y-185311904D01*
X71697619Y-185264285D01*
X71745238Y-185216666D01*
X71769047Y-185169047D01*
D11*
X185804761Y-120954761D02*
X185661904Y-121002380D01*
X185423809Y-121002380D01*
X185328571Y-120954761D01*
X185280952Y-120907142D01*
X185233333Y-120811904D01*
X185233333Y-120716666D01*
X185280952Y-120621428D01*
X185328571Y-120573809D01*
X185423809Y-120526190D01*
X185614285Y-120478571D01*
X185709523Y-120430952D01*
X185757142Y-120383333D01*
X185804761Y-120288095D01*
X185804761Y-120192857D01*
X185757142Y-120097619D01*
X185709523Y-120050000D01*
X185614285Y-120002380D01*
X185376190Y-120002380D01*
X185233333Y-120050000D01*
X184804761Y-121002380D02*
X184804761Y-120335714D01*
X184804761Y-120002380D02*
X184852380Y-120050000D01*
X184804761Y-120097619D01*
X184757142Y-120050000D01*
X184804761Y-120002380D01*
X184804761Y-120097619D01*
X184376190Y-120097619D02*
X184328571Y-120050000D01*
X184233333Y-120002380D01*
X183995238Y-120002380D01*
X183900000Y-120050000D01*
X183852380Y-120097619D01*
X183804761Y-120192857D01*
X183804761Y-120288095D01*
X183852380Y-120430952D01*
X184423809Y-121002380D01*
X183804761Y-121002380D01*
X183471428Y-120002380D02*
X182852380Y-120002380D01*
X183185714Y-120383333D01*
X183042857Y-120383333D01*
X182947619Y-120430952D01*
X182900000Y-120478571D01*
X182852380Y-120573809D01*
X182852380Y-120811904D01*
X182900000Y-120907142D01*
X182947619Y-120954761D01*
X183042857Y-121002380D01*
X183328571Y-121002380D01*
X183423809Y-120954761D01*
X183471428Y-120907142D01*
X182233333Y-120002380D02*
X182138095Y-120002380D01*
X182042857Y-120050000D01*
X181995238Y-120097619D01*
X181947619Y-120192857D01*
X181900000Y-120383333D01*
X181900000Y-120621428D01*
X181947619Y-120811904D01*
X181995238Y-120907142D01*
X182042857Y-120954761D01*
X182138095Y-121002380D01*
X182233333Y-121002380D01*
X182328571Y-120954761D01*
X182376190Y-120907142D01*
X182423809Y-120811904D01*
X182471428Y-120621428D01*
X182471428Y-120383333D01*
X182423809Y-120192857D01*
X182376190Y-120097619D01*
X182328571Y-120050000D01*
X182233333Y-120002380D01*
X181328571Y-120430952D02*
X181423809Y-120383333D01*
X181471428Y-120335714D01*
X181519047Y-120240476D01*
X181519047Y-120192857D01*
X181471428Y-120097619D01*
X181423809Y-120050000D01*
X181328571Y-120002380D01*
X181138095Y-120002380D01*
X181042857Y-120050000D01*
X180995238Y-120097619D01*
X180947619Y-120192857D01*
X180947619Y-120240476D01*
X180995238Y-120335714D01*
X181042857Y-120383333D01*
X181138095Y-120430952D01*
X181328571Y-120430952D01*
X181423809Y-120478571D01*
X181471428Y-120526190D01*
X181519047Y-120621428D01*
X181519047Y-120811904D01*
X181471428Y-120907142D01*
X181423809Y-120954761D01*
X181328571Y-121002380D01*
X181138095Y-121002380D01*
X181042857Y-120954761D01*
X180995238Y-120907142D01*
X180947619Y-120811904D01*
X180947619Y-120621428D01*
X180995238Y-120526190D01*
X181042857Y-120478571D01*
X181138095Y-120430952D01*
X179947619Y-120907142D02*
X179995238Y-120954761D01*
X180138095Y-121002380D01*
X180233333Y-121002380D01*
X180376190Y-120954761D01*
X180471428Y-120859523D01*
X180519047Y-120764285D01*
X180566666Y-120573809D01*
X180566666Y-120430952D01*
X180519047Y-120240476D01*
X180471428Y-120145238D01*
X180376190Y-120050000D01*
X180233333Y-120002380D01*
X180138095Y-120002380D01*
X179995238Y-120050000D01*
X179947619Y-120097619D01*
X179519047Y-121002380D02*
X179519047Y-120002380D01*
X179280952Y-120002380D01*
X179138095Y-120050000D01*
X179042857Y-120145238D01*
X178995238Y-120240476D01*
X178947619Y-120430952D01*
X178947619Y-120573809D01*
X178995238Y-120764285D01*
X179042857Y-120859523D01*
X179138095Y-120954761D01*
X179280952Y-121002380D01*
X179519047Y-121002380D01*
X178566666Y-120954761D02*
X178423809Y-121002380D01*
X178185714Y-121002380D01*
X178090476Y-120954761D01*
X178042857Y-120907142D01*
X177995238Y-120811904D01*
X177995238Y-120716666D01*
X178042857Y-120621428D01*
X178090476Y-120573809D01*
X178185714Y-120526190D01*
X178376190Y-120478571D01*
X178471428Y-120430952D01*
X178519047Y-120383333D01*
X178566666Y-120288095D01*
X178566666Y-120192857D01*
X178519047Y-120097619D01*
X178471428Y-120050000D01*
X178376190Y-120002380D01*
X178138095Y-120002380D01*
X177995238Y-120050000D01*
D13*
X182173809Y-123002380D02*
X182150000Y-122954761D01*
X182102380Y-122907142D01*
X182030952Y-122835714D01*
X182007142Y-122788095D01*
X182007142Y-122740476D01*
X182126190Y-122764285D02*
X182102380Y-122716666D01*
X182054761Y-122669047D01*
X181959523Y-122645238D01*
X181792857Y-122645238D01*
X181697619Y-122669047D01*
X181650000Y-122716666D01*
X181626190Y-122764285D01*
X181626190Y-122859523D01*
X181650000Y-122907142D01*
X181697619Y-122954761D01*
X181792857Y-122978571D01*
X181959523Y-122978571D01*
X182054761Y-122954761D01*
X182102380Y-122907142D01*
X182126190Y-122859523D01*
X182126190Y-122764285D01*
X182126190Y-123454761D02*
X182126190Y-123169047D01*
X182126190Y-123311904D02*
X181626190Y-123311904D01*
X181697619Y-123264285D01*
X181745238Y-123216666D01*
X181769047Y-123169047D01*
D11*
X75804761Y-120954761D02*
X75661904Y-121002380D01*
X75423809Y-121002380D01*
X75328571Y-120954761D01*
X75280952Y-120907142D01*
X75233333Y-120811904D01*
X75233333Y-120716666D01*
X75280952Y-120621428D01*
X75328571Y-120573809D01*
X75423809Y-120526190D01*
X75614285Y-120478571D01*
X75709523Y-120430952D01*
X75757142Y-120383333D01*
X75804761Y-120288095D01*
X75804761Y-120192857D01*
X75757142Y-120097619D01*
X75709523Y-120050000D01*
X75614285Y-120002380D01*
X75376190Y-120002380D01*
X75233333Y-120050000D01*
X74804761Y-121002380D02*
X74804761Y-120335714D01*
X74804761Y-120002380D02*
X74852380Y-120050000D01*
X74804761Y-120097619D01*
X74757142Y-120050000D01*
X74804761Y-120002380D01*
X74804761Y-120097619D01*
X74376190Y-120097619D02*
X74328571Y-120050000D01*
X74233333Y-120002380D01*
X73995238Y-120002380D01*
X73900000Y-120050000D01*
X73852380Y-120097619D01*
X73804761Y-120192857D01*
X73804761Y-120288095D01*
X73852380Y-120430952D01*
X74423809Y-121002380D01*
X73804761Y-121002380D01*
X73471428Y-120002380D02*
X72852380Y-120002380D01*
X73185714Y-120383333D01*
X73042857Y-120383333D01*
X72947619Y-120430952D01*
X72900000Y-120478571D01*
X72852380Y-120573809D01*
X72852380Y-120811904D01*
X72900000Y-120907142D01*
X72947619Y-120954761D01*
X73042857Y-121002380D01*
X73328571Y-121002380D01*
X73423809Y-120954761D01*
X73471428Y-120907142D01*
X72233333Y-120002380D02*
X72138095Y-120002380D01*
X72042857Y-120050000D01*
X71995238Y-120097619D01*
X71947619Y-120192857D01*
X71900000Y-120383333D01*
X71900000Y-120621428D01*
X71947619Y-120811904D01*
X71995238Y-120907142D01*
X72042857Y-120954761D01*
X72138095Y-121002380D01*
X72233333Y-121002380D01*
X72328571Y-120954761D01*
X72376190Y-120907142D01*
X72423809Y-120811904D01*
X72471428Y-120621428D01*
X72471428Y-120383333D01*
X72423809Y-120192857D01*
X72376190Y-120097619D01*
X72328571Y-120050000D01*
X72233333Y-120002380D01*
X71328571Y-120430952D02*
X71423809Y-120383333D01*
X71471428Y-120335714D01*
X71519047Y-120240476D01*
X71519047Y-120192857D01*
X71471428Y-120097619D01*
X71423809Y-120050000D01*
X71328571Y-120002380D01*
X71138095Y-120002380D01*
X71042857Y-120050000D01*
X70995238Y-120097619D01*
X70947619Y-120192857D01*
X70947619Y-120240476D01*
X70995238Y-120335714D01*
X71042857Y-120383333D01*
X71138095Y-120430952D01*
X71328571Y-120430952D01*
X71423809Y-120478571D01*
X71471428Y-120526190D01*
X71519047Y-120621428D01*
X71519047Y-120811904D01*
X71471428Y-120907142D01*
X71423809Y-120954761D01*
X71328571Y-121002380D01*
X71138095Y-121002380D01*
X71042857Y-120954761D01*
X70995238Y-120907142D01*
X70947619Y-120811904D01*
X70947619Y-120621428D01*
X70995238Y-120526190D01*
X71042857Y-120478571D01*
X71138095Y-120430952D01*
X69947619Y-120907142D02*
X69995238Y-120954761D01*
X70138095Y-121002380D01*
X70233333Y-121002380D01*
X70376190Y-120954761D01*
X70471428Y-120859523D01*
X70519047Y-120764285D01*
X70566666Y-120573809D01*
X70566666Y-120430952D01*
X70519047Y-120240476D01*
X70471428Y-120145238D01*
X70376190Y-120050000D01*
X70233333Y-120002380D01*
X70138095Y-120002380D01*
X69995238Y-120050000D01*
X69947619Y-120097619D01*
X69519047Y-121002380D02*
X69519047Y-120002380D01*
X69280952Y-120002380D01*
X69138095Y-120050000D01*
X69042857Y-120145238D01*
X68995238Y-120240476D01*
X68947619Y-120430952D01*
X68947619Y-120573809D01*
X68995238Y-120764285D01*
X69042857Y-120859523D01*
X69138095Y-120954761D01*
X69280952Y-121002380D01*
X69519047Y-121002380D01*
X68566666Y-120954761D02*
X68423809Y-121002380D01*
X68185714Y-121002380D01*
X68090476Y-120954761D01*
X68042857Y-120907142D01*
X67995238Y-120811904D01*
X67995238Y-120716666D01*
X68042857Y-120621428D01*
X68090476Y-120573809D01*
X68185714Y-120526190D01*
X68376190Y-120478571D01*
X68471428Y-120430952D01*
X68519047Y-120383333D01*
X68566666Y-120288095D01*
X68566666Y-120192857D01*
X68519047Y-120097619D01*
X68471428Y-120050000D01*
X68376190Y-120002380D01*
X68138095Y-120002380D01*
X67995238Y-120050000D01*
D13*
X72173809Y-123002380D02*
X72150000Y-122954761D01*
X72102380Y-122907142D01*
X72030952Y-122835714D01*
X72007142Y-122788095D01*
X72007142Y-122740476D01*
X72126190Y-122764285D02*
X72102380Y-122716666D01*
X72054761Y-122669047D01*
X71959523Y-122645238D01*
X71792857Y-122645238D01*
X71697619Y-122669047D01*
X71650000Y-122716666D01*
X71626190Y-122764285D01*
X71626190Y-122859523D01*
X71650000Y-122907142D01*
X71697619Y-122954761D01*
X71792857Y-122978571D01*
X71959523Y-122978571D01*
X72054761Y-122954761D01*
X72102380Y-122907142D01*
X72126190Y-122859523D01*
X72126190Y-122764285D01*
X72126190Y-123454761D02*
X72126190Y-123169047D01*
X72126190Y-123311904D02*
X71626190Y-123311904D01*
X71697619Y-123264285D01*
X71745238Y-123216666D01*
X71769047Y-123169047D01*
D11*
X185804761Y-58954761D02*
X185661904Y-59002380D01*
X185423809Y-59002380D01*
X185328571Y-58954761D01*
X185280952Y-58907142D01*
X185233333Y-58811904D01*
X185233333Y-58716666D01*
X185280952Y-58621428D01*
X185328571Y-58573809D01*
X185423809Y-58526190D01*
X185614285Y-58478571D01*
X185709523Y-58430952D01*
X185757142Y-58383333D01*
X185804761Y-58288095D01*
X185804761Y-58192857D01*
X185757142Y-58097619D01*
X185709523Y-58050000D01*
X185614285Y-58002380D01*
X185376190Y-58002380D01*
X185233333Y-58050000D01*
X184804761Y-59002380D02*
X184804761Y-58335714D01*
X184804761Y-58002380D02*
X184852380Y-58050000D01*
X184804761Y-58097619D01*
X184757142Y-58050000D01*
X184804761Y-58002380D01*
X184804761Y-58097619D01*
X184376190Y-58097619D02*
X184328571Y-58050000D01*
X184233333Y-58002380D01*
X183995238Y-58002380D01*
X183900000Y-58050000D01*
X183852380Y-58097619D01*
X183804761Y-58192857D01*
X183804761Y-58288095D01*
X183852380Y-58430952D01*
X184423809Y-59002380D01*
X183804761Y-59002380D01*
X183471428Y-58002380D02*
X182852380Y-58002380D01*
X183185714Y-58383333D01*
X183042857Y-58383333D01*
X182947619Y-58430952D01*
X182900000Y-58478571D01*
X182852380Y-58573809D01*
X182852380Y-58811904D01*
X182900000Y-58907142D01*
X182947619Y-58954761D01*
X183042857Y-59002380D01*
X183328571Y-59002380D01*
X183423809Y-58954761D01*
X183471428Y-58907142D01*
X182233333Y-58002380D02*
X182138095Y-58002380D01*
X182042857Y-58050000D01*
X181995238Y-58097619D01*
X181947619Y-58192857D01*
X181900000Y-58383333D01*
X181900000Y-58621428D01*
X181947619Y-58811904D01*
X181995238Y-58907142D01*
X182042857Y-58954761D01*
X182138095Y-59002380D01*
X182233333Y-59002380D01*
X182328571Y-58954761D01*
X182376190Y-58907142D01*
X182423809Y-58811904D01*
X182471428Y-58621428D01*
X182471428Y-58383333D01*
X182423809Y-58192857D01*
X182376190Y-58097619D01*
X182328571Y-58050000D01*
X182233333Y-58002380D01*
X181328571Y-58430952D02*
X181423809Y-58383333D01*
X181471428Y-58335714D01*
X181519047Y-58240476D01*
X181519047Y-58192857D01*
X181471428Y-58097619D01*
X181423809Y-58050000D01*
X181328571Y-58002380D01*
X181138095Y-58002380D01*
X181042857Y-58050000D01*
X180995238Y-58097619D01*
X180947619Y-58192857D01*
X180947619Y-58240476D01*
X180995238Y-58335714D01*
X181042857Y-58383333D01*
X181138095Y-58430952D01*
X181328571Y-58430952D01*
X181423809Y-58478571D01*
X181471428Y-58526190D01*
X181519047Y-58621428D01*
X181519047Y-58811904D01*
X181471428Y-58907142D01*
X181423809Y-58954761D01*
X181328571Y-59002380D01*
X181138095Y-59002380D01*
X181042857Y-58954761D01*
X180995238Y-58907142D01*
X180947619Y-58811904D01*
X180947619Y-58621428D01*
X180995238Y-58526190D01*
X181042857Y-58478571D01*
X181138095Y-58430952D01*
X179947619Y-58907142D02*
X179995238Y-58954761D01*
X180138095Y-59002380D01*
X180233333Y-59002380D01*
X180376190Y-58954761D01*
X180471428Y-58859523D01*
X180519047Y-58764285D01*
X180566666Y-58573809D01*
X180566666Y-58430952D01*
X180519047Y-58240476D01*
X180471428Y-58145238D01*
X180376190Y-58050000D01*
X180233333Y-58002380D01*
X180138095Y-58002380D01*
X179995238Y-58050000D01*
X179947619Y-58097619D01*
X179519047Y-59002380D02*
X179519047Y-58002380D01*
X179280952Y-58002380D01*
X179138095Y-58050000D01*
X179042857Y-58145238D01*
X178995238Y-58240476D01*
X178947619Y-58430952D01*
X178947619Y-58573809D01*
X178995238Y-58764285D01*
X179042857Y-58859523D01*
X179138095Y-58954761D01*
X179280952Y-59002380D01*
X179519047Y-59002380D01*
X178566666Y-58954761D02*
X178423809Y-59002380D01*
X178185714Y-59002380D01*
X178090476Y-58954761D01*
X178042857Y-58907142D01*
X177995238Y-58811904D01*
X177995238Y-58716666D01*
X178042857Y-58621428D01*
X178090476Y-58573809D01*
X178185714Y-58526190D01*
X178376190Y-58478571D01*
X178471428Y-58430952D01*
X178519047Y-58383333D01*
X178566666Y-58288095D01*
X178566666Y-58192857D01*
X178519047Y-58097619D01*
X178471428Y-58050000D01*
X178376190Y-58002380D01*
X178138095Y-58002380D01*
X177995238Y-58050000D01*
D13*
X182173809Y-61002380D02*
X182150000Y-60954761D01*
X182102380Y-60907142D01*
X182030952Y-60835714D01*
X182007142Y-60788095D01*
X182007142Y-60740476D01*
X182126190Y-60764285D02*
X182102380Y-60716666D01*
X182054761Y-60669047D01*
X181959523Y-60645238D01*
X181792857Y-60645238D01*
X181697619Y-60669047D01*
X181650000Y-60716666D01*
X181626190Y-60764285D01*
X181626190Y-60859523D01*
X181650000Y-60907142D01*
X181697619Y-60954761D01*
X181792857Y-60978571D01*
X181959523Y-60978571D01*
X182054761Y-60954761D01*
X182102380Y-60907142D01*
X182126190Y-60859523D01*
X182126190Y-60764285D01*
X182126190Y-61454761D02*
X182126190Y-61169047D01*
X182126190Y-61311904D02*
X181626190Y-61311904D01*
X181697619Y-61264285D01*
X181745238Y-61216666D01*
X181769047Y-61169047D01*
D11*
X219677380Y-165201904D02*
X219629761Y-165106666D01*
X219582142Y-165059047D01*
X219486904Y-165011428D01*
X219201190Y-165011428D01*
X219105952Y-165059047D01*
X219058333Y-165106666D01*
X219010714Y-165201904D01*
X219010714Y-165344761D01*
X219058333Y-165440000D01*
X219105952Y-165487619D01*
X219201190Y-165535238D01*
X219486904Y-165535238D01*
X219582142Y-165487619D01*
X219629761Y-165440000D01*
X219677380Y-165344761D01*
X219677380Y-165201904D01*
X219582142Y-165963809D02*
X219629761Y-166011428D01*
X219677380Y-165963809D01*
X219629761Y-165916190D01*
X219582142Y-165963809D01*
X219677380Y-165963809D01*
X219677380Y-166963809D02*
X219677380Y-166392380D01*
X219677380Y-166678095D02*
X218677380Y-166678095D01*
X218820238Y-166582857D01*
X218915476Y-166487619D01*
X218963095Y-166392380D01*
X219010714Y-167820952D02*
X219677380Y-167820952D01*
X219010714Y-167392380D02*
X219534523Y-167392380D01*
X219629761Y-167440000D01*
X219677380Y-167535238D01*
X219677380Y-167678095D01*
X219629761Y-167773333D01*
X219582142Y-167820952D01*
D12*
X217753571Y-166130476D02*
X217777380Y-166106666D01*
X217801190Y-166035238D01*
X217801190Y-165987619D01*
X217777380Y-165916190D01*
X217729761Y-165868571D01*
X217682142Y-165844761D01*
X217586904Y-165820952D01*
X217515476Y-165820952D01*
X217420238Y-165844761D01*
X217372619Y-165868571D01*
X217325000Y-165916190D01*
X217301190Y-165987619D01*
X217301190Y-166035238D01*
X217325000Y-166106666D01*
X217348809Y-166130476D01*
X217801190Y-166416190D02*
X217777380Y-166368571D01*
X217753571Y-166344761D01*
X217705952Y-166320952D01*
X217563095Y-166320952D01*
X217515476Y-166344761D01*
X217491666Y-166368571D01*
X217467857Y-166416190D01*
X217467857Y-166487619D01*
X217491666Y-166535238D01*
X217515476Y-166559047D01*
X217563095Y-166582857D01*
X217705952Y-166582857D01*
X217753571Y-166559047D01*
X217777380Y-166535238D01*
X217801190Y-166487619D01*
X217801190Y-166416190D01*
X217301190Y-166749523D02*
X217301190Y-167059047D01*
X217491666Y-166892380D01*
X217491666Y-166963809D01*
X217515476Y-167011428D01*
X217539285Y-167035238D01*
X217586904Y-167059047D01*
X217705952Y-167059047D01*
X217753571Y-167035238D01*
X217777380Y-167011428D01*
X217801190Y-166963809D01*
X217801190Y-166820952D01*
X217777380Y-166773333D01*
X217753571Y-166749523D01*
D11*
X109677380Y-165201904D02*
X109629761Y-165106666D01*
X109582142Y-165059047D01*
X109486904Y-165011428D01*
X109201190Y-165011428D01*
X109105952Y-165059047D01*
X109058333Y-165106666D01*
X109010714Y-165201904D01*
X109010714Y-165344761D01*
X109058333Y-165440000D01*
X109105952Y-165487619D01*
X109201190Y-165535238D01*
X109486904Y-165535238D01*
X109582142Y-165487619D01*
X109629761Y-165440000D01*
X109677380Y-165344761D01*
X109677380Y-165201904D01*
X109582142Y-165963809D02*
X109629761Y-166011428D01*
X109677380Y-165963809D01*
X109629761Y-165916190D01*
X109582142Y-165963809D01*
X109677380Y-165963809D01*
X109677380Y-166963809D02*
X109677380Y-166392380D01*
X109677380Y-166678095D02*
X108677380Y-166678095D01*
X108820238Y-166582857D01*
X108915476Y-166487619D01*
X108963095Y-166392380D01*
X109010714Y-167820952D02*
X109677380Y-167820952D01*
X109010714Y-167392380D02*
X109534523Y-167392380D01*
X109629761Y-167440000D01*
X109677380Y-167535238D01*
X109677380Y-167678095D01*
X109629761Y-167773333D01*
X109582142Y-167820952D01*
D12*
X107753571Y-166130476D02*
X107777380Y-166106666D01*
X107801190Y-166035238D01*
X107801190Y-165987619D01*
X107777380Y-165916190D01*
X107729761Y-165868571D01*
X107682142Y-165844761D01*
X107586904Y-165820952D01*
X107515476Y-165820952D01*
X107420238Y-165844761D01*
X107372619Y-165868571D01*
X107325000Y-165916190D01*
X107301190Y-165987619D01*
X107301190Y-166035238D01*
X107325000Y-166106666D01*
X107348809Y-166130476D01*
X107801190Y-166416190D02*
X107777380Y-166368571D01*
X107753571Y-166344761D01*
X107705952Y-166320952D01*
X107563095Y-166320952D01*
X107515476Y-166344761D01*
X107491666Y-166368571D01*
X107467857Y-166416190D01*
X107467857Y-166487619D01*
X107491666Y-166535238D01*
X107515476Y-166559047D01*
X107563095Y-166582857D01*
X107705952Y-166582857D01*
X107753571Y-166559047D01*
X107777380Y-166535238D01*
X107801190Y-166487619D01*
X107801190Y-166416190D01*
X107301190Y-166749523D02*
X107301190Y-167059047D01*
X107491666Y-166892380D01*
X107491666Y-166963809D01*
X107515476Y-167011428D01*
X107539285Y-167035238D01*
X107586904Y-167059047D01*
X107705952Y-167059047D01*
X107753571Y-167035238D01*
X107777380Y-167011428D01*
X107801190Y-166963809D01*
X107801190Y-166820952D01*
X107777380Y-166773333D01*
X107753571Y-166749523D01*
D11*
X219677380Y-103201904D02*
X219629761Y-103106666D01*
X219582142Y-103059047D01*
X219486904Y-103011428D01*
X219201190Y-103011428D01*
X219105952Y-103059047D01*
X219058333Y-103106666D01*
X219010714Y-103201904D01*
X219010714Y-103344761D01*
X219058333Y-103440000D01*
X219105952Y-103487619D01*
X219201190Y-103535238D01*
X219486904Y-103535238D01*
X219582142Y-103487619D01*
X219629761Y-103440000D01*
X219677380Y-103344761D01*
X219677380Y-103201904D01*
X219582142Y-103963809D02*
X219629761Y-104011428D01*
X219677380Y-103963809D01*
X219629761Y-103916190D01*
X219582142Y-103963809D01*
X219677380Y-103963809D01*
X219677380Y-104963809D02*
X219677380Y-104392380D01*
X219677380Y-104678095D02*
X218677380Y-104678095D01*
X218820238Y-104582857D01*
X218915476Y-104487619D01*
X218963095Y-104392380D01*
X219010714Y-105820952D02*
X219677380Y-105820952D01*
X219010714Y-105392380D02*
X219534523Y-105392380D01*
X219629761Y-105440000D01*
X219677380Y-105535238D01*
X219677380Y-105678095D01*
X219629761Y-105773333D01*
X219582142Y-105820952D01*
D12*
X217753571Y-104130476D02*
X217777380Y-104106666D01*
X217801190Y-104035238D01*
X217801190Y-103987619D01*
X217777380Y-103916190D01*
X217729761Y-103868571D01*
X217682142Y-103844761D01*
X217586904Y-103820952D01*
X217515476Y-103820952D01*
X217420238Y-103844761D01*
X217372619Y-103868571D01*
X217325000Y-103916190D01*
X217301190Y-103987619D01*
X217301190Y-104035238D01*
X217325000Y-104106666D01*
X217348809Y-104130476D01*
X217801190Y-104416190D02*
X217777380Y-104368571D01*
X217753571Y-104344761D01*
X217705952Y-104320952D01*
X217563095Y-104320952D01*
X217515476Y-104344761D01*
X217491666Y-104368571D01*
X217467857Y-104416190D01*
X217467857Y-104487619D01*
X217491666Y-104535238D01*
X217515476Y-104559047D01*
X217563095Y-104582857D01*
X217705952Y-104582857D01*
X217753571Y-104559047D01*
X217777380Y-104535238D01*
X217801190Y-104487619D01*
X217801190Y-104416190D01*
X217301190Y-104749523D02*
X217301190Y-105059047D01*
X217491666Y-104892380D01*
X217491666Y-104963809D01*
X217515476Y-105011428D01*
X217539285Y-105035238D01*
X217586904Y-105059047D01*
X217705952Y-105059047D01*
X217753571Y-105035238D01*
X217777380Y-105011428D01*
X217801190Y-104963809D01*
X217801190Y-104820952D01*
X217777380Y-104773333D01*
X217753571Y-104749523D01*
D11*
X109677380Y-103201904D02*
X109629761Y-103106666D01*
X109582142Y-103059047D01*
X109486904Y-103011428D01*
X109201190Y-103011428D01*
X109105952Y-103059047D01*
X109058333Y-103106666D01*
X109010714Y-103201904D01*
X109010714Y-103344761D01*
X109058333Y-103440000D01*
X109105952Y-103487619D01*
X109201190Y-103535238D01*
X109486904Y-103535238D01*
X109582142Y-103487619D01*
X109629761Y-103440000D01*
X109677380Y-103344761D01*
X109677380Y-103201904D01*
X109582142Y-103963809D02*
X109629761Y-104011428D01*
X109677380Y-103963809D01*
X109629761Y-103916190D01*
X109582142Y-103963809D01*
X109677380Y-103963809D01*
X109677380Y-104963809D02*
X109677380Y-104392380D01*
X109677380Y-104678095D02*
X108677380Y-104678095D01*
X108820238Y-104582857D01*
X108915476Y-104487619D01*
X108963095Y-104392380D01*
X109010714Y-105820952D02*
X109677380Y-105820952D01*
X109010714Y-105392380D02*
X109534523Y-105392380D01*
X109629761Y-105440000D01*
X109677380Y-105535238D01*
X109677380Y-105678095D01*
X109629761Y-105773333D01*
X109582142Y-105820952D01*
D12*
X107753571Y-104130476D02*
X107777380Y-104106666D01*
X107801190Y-104035238D01*
X107801190Y-103987619D01*
X107777380Y-103916190D01*
X107729761Y-103868571D01*
X107682142Y-103844761D01*
X107586904Y-103820952D01*
X107515476Y-103820952D01*
X107420238Y-103844761D01*
X107372619Y-103868571D01*
X107325000Y-103916190D01*
X107301190Y-103987619D01*
X107301190Y-104035238D01*
X107325000Y-104106666D01*
X107348809Y-104130476D01*
X107801190Y-104416190D02*
X107777380Y-104368571D01*
X107753571Y-104344761D01*
X107705952Y-104320952D01*
X107563095Y-104320952D01*
X107515476Y-104344761D01*
X107491666Y-104368571D01*
X107467857Y-104416190D01*
X107467857Y-104487619D01*
X107491666Y-104535238D01*
X107515476Y-104559047D01*
X107563095Y-104582857D01*
X107705952Y-104582857D01*
X107753571Y-104559047D01*
X107777380Y-104535238D01*
X107801190Y-104487619D01*
X107801190Y-104416190D01*
X107301190Y-104749523D02*
X107301190Y-105059047D01*
X107491666Y-104892380D01*
X107491666Y-104963809D01*
X107515476Y-105011428D01*
X107539285Y-105035238D01*
X107586904Y-105059047D01*
X107705952Y-105059047D01*
X107753571Y-105035238D01*
X107777380Y-105011428D01*
X107801190Y-104963809D01*
X107801190Y-104820952D01*
X107777380Y-104773333D01*
X107753571Y-104749523D01*
D11*
X219677380Y-41201904D02*
X219629761Y-41106666D01*
X219582142Y-41059047D01*
X219486904Y-41011428D01*
X219201190Y-41011428D01*
X219105952Y-41059047D01*
X219058333Y-41106666D01*
X219010714Y-41201904D01*
X219010714Y-41344761D01*
X219058333Y-41440000D01*
X219105952Y-41487619D01*
X219201190Y-41535238D01*
X219486904Y-41535238D01*
X219582142Y-41487619D01*
X219629761Y-41440000D01*
X219677380Y-41344761D01*
X219677380Y-41201904D01*
X219582142Y-41963809D02*
X219629761Y-42011428D01*
X219677380Y-41963809D01*
X219629761Y-41916190D01*
X219582142Y-41963809D01*
X219677380Y-41963809D01*
X219677380Y-42963809D02*
X219677380Y-42392380D01*
X219677380Y-42678095D02*
X218677380Y-42678095D01*
X218820238Y-42582857D01*
X218915476Y-42487619D01*
X218963095Y-42392380D01*
X219010714Y-43820952D02*
X219677380Y-43820952D01*
X219010714Y-43392380D02*
X219534523Y-43392380D01*
X219629761Y-43440000D01*
X219677380Y-43535238D01*
X219677380Y-43678095D01*
X219629761Y-43773333D01*
X219582142Y-43820952D01*
D12*
X217753571Y-42130476D02*
X217777380Y-42106666D01*
X217801190Y-42035238D01*
X217801190Y-41987619D01*
X217777380Y-41916190D01*
X217729761Y-41868571D01*
X217682142Y-41844761D01*
X217586904Y-41820952D01*
X217515476Y-41820952D01*
X217420238Y-41844761D01*
X217372619Y-41868571D01*
X217325000Y-41916190D01*
X217301190Y-41987619D01*
X217301190Y-42035238D01*
X217325000Y-42106666D01*
X217348809Y-42130476D01*
X217801190Y-42416190D02*
X217777380Y-42368571D01*
X217753571Y-42344761D01*
X217705952Y-42320952D01*
X217563095Y-42320952D01*
X217515476Y-42344761D01*
X217491666Y-42368571D01*
X217467857Y-42416190D01*
X217467857Y-42487619D01*
X217491666Y-42535238D01*
X217515476Y-42559047D01*
X217563095Y-42582857D01*
X217705952Y-42582857D01*
X217753571Y-42559047D01*
X217777380Y-42535238D01*
X217801190Y-42487619D01*
X217801190Y-42416190D01*
X217301190Y-42749523D02*
X217301190Y-43059047D01*
X217491666Y-42892380D01*
X217491666Y-42963809D01*
X217515476Y-43011428D01*
X217539285Y-43035238D01*
X217586904Y-43059047D01*
X217705952Y-43059047D01*
X217753571Y-43035238D01*
X217777380Y-43011428D01*
X217801190Y-42963809D01*
X217801190Y-42820952D01*
X217777380Y-42773333D01*
X217753571Y-42749523D01*
D11*
X181407380Y-170220714D02*
X180407380Y-170220714D01*
X181407380Y-170792142D01*
X180407380Y-170792142D01*
X181121666Y-171220714D02*
X181121666Y-171696904D01*
X181407380Y-171125476D02*
X180407380Y-171458809D01*
X181407380Y-171792142D01*
D12*
X183581190Y-170851666D02*
X183343095Y-170685000D01*
X183581190Y-170565952D02*
X183081190Y-170565952D01*
X183081190Y-170756428D01*
X183105000Y-170804047D01*
X183128809Y-170827857D01*
X183176428Y-170851666D01*
X183247857Y-170851666D01*
X183295476Y-170827857D01*
X183319285Y-170804047D01*
X183343095Y-170756428D01*
X183343095Y-170565952D01*
X183081190Y-171280238D02*
X183081190Y-171185000D01*
X183105000Y-171137380D01*
X183128809Y-171113571D01*
X183200238Y-171065952D01*
X183295476Y-171042142D01*
X183485952Y-171042142D01*
X183533571Y-171065952D01*
X183557380Y-171089761D01*
X183581190Y-171137380D01*
X183581190Y-171232619D01*
X183557380Y-171280238D01*
X183533571Y-171304047D01*
X183485952Y-171327857D01*
X183366904Y-171327857D01*
X183319285Y-171304047D01*
X183295476Y-171280238D01*
X183271666Y-171232619D01*
X183271666Y-171137380D01*
X183295476Y-171089761D01*
X183319285Y-171065952D01*
X183366904Y-171042142D01*
D11*
X71407380Y-170220714D02*
X70407380Y-170220714D01*
X71407380Y-170792142D01*
X70407380Y-170792142D01*
X71121666Y-171220714D02*
X71121666Y-171696904D01*
X71407380Y-171125476D02*
X70407380Y-171458809D01*
X71407380Y-171792142D01*
D12*
X73581190Y-170851666D02*
X73343095Y-170685000D01*
X73581190Y-170565952D02*
X73081190Y-170565952D01*
X73081190Y-170756428D01*
X73105000Y-170804047D01*
X73128809Y-170827857D01*
X73176428Y-170851666D01*
X73247857Y-170851666D01*
X73295476Y-170827857D01*
X73319285Y-170804047D01*
X73343095Y-170756428D01*
X73343095Y-170565952D01*
X73081190Y-171280238D02*
X73081190Y-171185000D01*
X73105000Y-171137380D01*
X73128809Y-171113571D01*
X73200238Y-171065952D01*
X73295476Y-171042142D01*
X73485952Y-171042142D01*
X73533571Y-171065952D01*
X73557380Y-171089761D01*
X73581190Y-171137380D01*
X73581190Y-171232619D01*
X73557380Y-171280238D01*
X73533571Y-171304047D01*
X73485952Y-171327857D01*
X73366904Y-171327857D01*
X73319285Y-171304047D01*
X73295476Y-171280238D01*
X73271666Y-171232619D01*
X73271666Y-171137380D01*
X73295476Y-171089761D01*
X73319285Y-171065952D01*
X73366904Y-171042142D01*
D11*
X181407380Y-108220714D02*
X180407380Y-108220714D01*
X181407380Y-108792142D01*
X180407380Y-108792142D01*
X181121666Y-109220714D02*
X181121666Y-109696904D01*
X181407380Y-109125476D02*
X180407380Y-109458809D01*
X181407380Y-109792142D01*
D12*
X183581190Y-108851666D02*
X183343095Y-108685000D01*
X183581190Y-108565952D02*
X183081190Y-108565952D01*
X183081190Y-108756428D01*
X183105000Y-108804047D01*
X183128809Y-108827857D01*
X183176428Y-108851666D01*
X183247857Y-108851666D01*
X183295476Y-108827857D01*
X183319285Y-108804047D01*
X183343095Y-108756428D01*
X183343095Y-108565952D01*
X183081190Y-109280238D02*
X183081190Y-109185000D01*
X183105000Y-109137380D01*
X183128809Y-109113571D01*
X183200238Y-109065952D01*
X183295476Y-109042142D01*
X183485952Y-109042142D01*
X183533571Y-109065952D01*
X183557380Y-109089761D01*
X183581190Y-109137380D01*
X183581190Y-109232619D01*
X183557380Y-109280238D01*
X183533571Y-109304047D01*
X183485952Y-109327857D01*
X183366904Y-109327857D01*
X183319285Y-109304047D01*
X183295476Y-109280238D01*
X183271666Y-109232619D01*
X183271666Y-109137380D01*
X183295476Y-109089761D01*
X183319285Y-109065952D01*
X183366904Y-109042142D01*
D11*
X71407380Y-108220714D02*
X70407380Y-108220714D01*
X71407380Y-108792142D01*
X70407380Y-108792142D01*
X71121666Y-109220714D02*
X71121666Y-109696904D01*
X71407380Y-109125476D02*
X70407380Y-109458809D01*
X71407380Y-109792142D01*
D12*
X73581190Y-108851666D02*
X73343095Y-108685000D01*
X73581190Y-108565952D02*
X73081190Y-108565952D01*
X73081190Y-108756428D01*
X73105000Y-108804047D01*
X73128809Y-108827857D01*
X73176428Y-108851666D01*
X73247857Y-108851666D01*
X73295476Y-108827857D01*
X73319285Y-108804047D01*
X73343095Y-108756428D01*
X73343095Y-108565952D01*
X73081190Y-109280238D02*
X73081190Y-109185000D01*
X73105000Y-109137380D01*
X73128809Y-109113571D01*
X73200238Y-109065952D01*
X73295476Y-109042142D01*
X73485952Y-109042142D01*
X73533571Y-109065952D01*
X73557380Y-109089761D01*
X73581190Y-109137380D01*
X73581190Y-109232619D01*
X73557380Y-109280238D01*
X73533571Y-109304047D01*
X73485952Y-109327857D01*
X73366904Y-109327857D01*
X73319285Y-109304047D01*
X73295476Y-109280238D01*
X73271666Y-109232619D01*
X73271666Y-109137380D01*
X73295476Y-109089761D01*
X73319285Y-109065952D01*
X73366904Y-109042142D01*
D11*
X181407380Y-46220714D02*
X180407380Y-46220714D01*
X181407380Y-46792142D01*
X180407380Y-46792142D01*
X181121666Y-47220714D02*
X181121666Y-47696904D01*
X181407380Y-47125476D02*
X180407380Y-47458809D01*
X181407380Y-47792142D01*
D12*
X183581190Y-46851666D02*
X183343095Y-46685000D01*
X183581190Y-46565952D02*
X183081190Y-46565952D01*
X183081190Y-46756428D01*
X183105000Y-46804047D01*
X183128809Y-46827857D01*
X183176428Y-46851666D01*
X183247857Y-46851666D01*
X183295476Y-46827857D01*
X183319285Y-46804047D01*
X183343095Y-46756428D01*
X183343095Y-46565952D01*
X183081190Y-47280238D02*
X183081190Y-47185000D01*
X183105000Y-47137380D01*
X183128809Y-47113571D01*
X183200238Y-47065952D01*
X183295476Y-47042142D01*
X183485952Y-47042142D01*
X183533571Y-47065952D01*
X183557380Y-47089761D01*
X183581190Y-47137380D01*
X183581190Y-47232619D01*
X183557380Y-47280238D01*
X183533571Y-47304047D01*
X183485952Y-47327857D01*
X183366904Y-47327857D01*
X183319285Y-47304047D01*
X183295476Y-47280238D01*
X183271666Y-47232619D01*
X183271666Y-47137380D01*
X183295476Y-47089761D01*
X183319285Y-47065952D01*
X183366904Y-47042142D01*
D11*
X198010714Y-163918333D02*
X198677380Y-163918333D01*
X198105952Y-163918333D02*
X198058333Y-163965952D01*
X198010714Y-164061190D01*
X198010714Y-164204047D01*
X198058333Y-164299285D01*
X198153571Y-164346904D01*
X198677380Y-164346904D01*
X198677380Y-165251666D02*
X198153571Y-165251666D01*
X198058333Y-165204047D01*
X198010714Y-165108809D01*
X198010714Y-164918333D01*
X198058333Y-164823095D01*
X198629761Y-165251666D02*
X198677380Y-165156428D01*
X198677380Y-164918333D01*
X198629761Y-164823095D01*
X198534523Y-164775476D01*
X198439285Y-164775476D01*
X198344047Y-164823095D01*
X198296428Y-164918333D01*
X198296428Y-165156428D01*
X198248809Y-165251666D01*
D12*
X196753571Y-164215952D02*
X196777380Y-164192142D01*
X196801190Y-164120714D01*
X196801190Y-164073095D01*
X196777380Y-164001666D01*
X196729761Y-163954047D01*
X196682142Y-163930238D01*
X196586904Y-163906428D01*
X196515476Y-163906428D01*
X196420238Y-163930238D01*
X196372619Y-163954047D01*
X196325000Y-164001666D01*
X196301190Y-164073095D01*
X196301190Y-164120714D01*
X196325000Y-164192142D01*
X196348809Y-164215952D01*
X196467857Y-164358809D02*
X196467857Y-164549285D01*
X196801190Y-164430238D02*
X196372619Y-164430238D01*
X196325000Y-164454047D01*
X196301190Y-164501666D01*
X196301190Y-164549285D01*
X196467857Y-164644523D02*
X196467857Y-164835000D01*
X196801190Y-164715952D02*
X196372619Y-164715952D01*
X196325000Y-164739761D01*
X196301190Y-164787380D01*
X196301190Y-164835000D01*
X196801190Y-165263571D02*
X196801190Y-164977857D01*
X196801190Y-165120714D02*
X196301190Y-165120714D01*
X196372619Y-165073095D01*
X196420238Y-165025476D01*
X196444047Y-164977857D01*
D11*
X88010714Y-163918333D02*
X88677380Y-163918333D01*
X88105952Y-163918333D02*
X88058333Y-163965952D01*
X88010714Y-164061190D01*
X88010714Y-164204047D01*
X88058333Y-164299285D01*
X88153571Y-164346904D01*
X88677380Y-164346904D01*
X88677380Y-165251666D02*
X88153571Y-165251666D01*
X88058333Y-165204047D01*
X88010714Y-165108809D01*
X88010714Y-164918333D01*
X88058333Y-164823095D01*
X88629761Y-165251666D02*
X88677380Y-165156428D01*
X88677380Y-164918333D01*
X88629761Y-164823095D01*
X88534523Y-164775476D01*
X88439285Y-164775476D01*
X88344047Y-164823095D01*
X88296428Y-164918333D01*
X88296428Y-165156428D01*
X88248809Y-165251666D01*
D12*
X86753571Y-164215952D02*
X86777380Y-164192142D01*
X86801190Y-164120714D01*
X86801190Y-164073095D01*
X86777380Y-164001666D01*
X86729761Y-163954047D01*
X86682142Y-163930238D01*
X86586904Y-163906428D01*
X86515476Y-163906428D01*
X86420238Y-163930238D01*
X86372619Y-163954047D01*
X86325000Y-164001666D01*
X86301190Y-164073095D01*
X86301190Y-164120714D01*
X86325000Y-164192142D01*
X86348809Y-164215952D01*
X86467857Y-164358809D02*
X86467857Y-164549285D01*
X86801190Y-164430238D02*
X86372619Y-164430238D01*
X86325000Y-164454047D01*
X86301190Y-164501666D01*
X86301190Y-164549285D01*
X86467857Y-164644523D02*
X86467857Y-164835000D01*
X86801190Y-164715952D02*
X86372619Y-164715952D01*
X86325000Y-164739761D01*
X86301190Y-164787380D01*
X86301190Y-164835000D01*
X86801190Y-165263571D02*
X86801190Y-164977857D01*
X86801190Y-165120714D02*
X86301190Y-165120714D01*
X86372619Y-165073095D01*
X86420238Y-165025476D01*
X86444047Y-164977857D01*
D11*
X198010714Y-101918333D02*
X198677380Y-101918333D01*
X198105952Y-101918333D02*
X198058333Y-101965952D01*
X198010714Y-102061190D01*
X198010714Y-102204047D01*
X198058333Y-102299285D01*
X198153571Y-102346904D01*
X198677380Y-102346904D01*
X198677380Y-103251666D02*
X198153571Y-103251666D01*
X198058333Y-103204047D01*
X198010714Y-103108809D01*
X198010714Y-102918333D01*
X198058333Y-102823095D01*
X198629761Y-103251666D02*
X198677380Y-103156428D01*
X198677380Y-102918333D01*
X198629761Y-102823095D01*
X198534523Y-102775476D01*
X198439285Y-102775476D01*
X198344047Y-102823095D01*
X198296428Y-102918333D01*
X198296428Y-103156428D01*
X198248809Y-103251666D01*
D12*
X196753571Y-102215952D02*
X196777380Y-102192142D01*
X196801190Y-102120714D01*
X196801190Y-102073095D01*
X196777380Y-102001666D01*
X196729761Y-101954047D01*
X196682142Y-101930238D01*
X196586904Y-101906428D01*
X196515476Y-101906428D01*
X196420238Y-101930238D01*
X196372619Y-101954047D01*
X196325000Y-102001666D01*
X196301190Y-102073095D01*
X196301190Y-102120714D01*
X196325000Y-102192142D01*
X196348809Y-102215952D01*
X196467857Y-102358809D02*
X196467857Y-102549285D01*
X196801190Y-102430238D02*
X196372619Y-102430238D01*
X196325000Y-102454047D01*
X196301190Y-102501666D01*
X196301190Y-102549285D01*
X196467857Y-102644523D02*
X196467857Y-102835000D01*
X196801190Y-102715952D02*
X196372619Y-102715952D01*
X196325000Y-102739761D01*
X196301190Y-102787380D01*
X196301190Y-102835000D01*
X196801190Y-103263571D02*
X196801190Y-102977857D01*
X196801190Y-103120714D02*
X196301190Y-103120714D01*
X196372619Y-103073095D01*
X196420238Y-103025476D01*
X196444047Y-102977857D01*
D11*
X88010714Y-101918333D02*
X88677380Y-101918333D01*
X88105952Y-101918333D02*
X88058333Y-101965952D01*
X88010714Y-102061190D01*
X88010714Y-102204047D01*
X88058333Y-102299285D01*
X88153571Y-102346904D01*
X88677380Y-102346904D01*
X88677380Y-103251666D02*
X88153571Y-103251666D01*
X88058333Y-103204047D01*
X88010714Y-103108809D01*
X88010714Y-102918333D01*
X88058333Y-102823095D01*
X88629761Y-103251666D02*
X88677380Y-103156428D01*
X88677380Y-102918333D01*
X88629761Y-102823095D01*
X88534523Y-102775476D01*
X88439285Y-102775476D01*
X88344047Y-102823095D01*
X88296428Y-102918333D01*
X88296428Y-103156428D01*
X88248809Y-103251666D01*
D12*
X86753571Y-102215952D02*
X86777380Y-102192142D01*
X86801190Y-102120714D01*
X86801190Y-102073095D01*
X86777380Y-102001666D01*
X86729761Y-101954047D01*
X86682142Y-101930238D01*
X86586904Y-101906428D01*
X86515476Y-101906428D01*
X86420238Y-101930238D01*
X86372619Y-101954047D01*
X86325000Y-102001666D01*
X86301190Y-102073095D01*
X86301190Y-102120714D01*
X86325000Y-102192142D01*
X86348809Y-102215952D01*
X86467857Y-102358809D02*
X86467857Y-102549285D01*
X86801190Y-102430238D02*
X86372619Y-102430238D01*
X86325000Y-102454047D01*
X86301190Y-102501666D01*
X86301190Y-102549285D01*
X86467857Y-102644523D02*
X86467857Y-102835000D01*
X86801190Y-102715952D02*
X86372619Y-102715952D01*
X86325000Y-102739761D01*
X86301190Y-102787380D01*
X86301190Y-102835000D01*
X86801190Y-103263571D02*
X86801190Y-102977857D01*
X86801190Y-103120714D02*
X86301190Y-103120714D01*
X86372619Y-103073095D01*
X86420238Y-103025476D01*
X86444047Y-102977857D01*
D11*
X198010714Y-39918333D02*
X198677380Y-39918333D01*
X198105952Y-39918333D02*
X198058333Y-39965952D01*
X198010714Y-40061190D01*
X198010714Y-40204047D01*
X198058333Y-40299285D01*
X198153571Y-40346904D01*
X198677380Y-40346904D01*
X198677380Y-41251666D02*
X198153571Y-41251666D01*
X198058333Y-41204047D01*
X198010714Y-41108809D01*
X198010714Y-40918333D01*
X198058333Y-40823095D01*
X198629761Y-41251666D02*
X198677380Y-41156428D01*
X198677380Y-40918333D01*
X198629761Y-40823095D01*
X198534523Y-40775476D01*
X198439285Y-40775476D01*
X198344047Y-40823095D01*
X198296428Y-40918333D01*
X198296428Y-41156428D01*
X198248809Y-41251666D01*
D12*
X196753571Y-40215952D02*
X196777380Y-40192142D01*
X196801190Y-40120714D01*
X196801190Y-40073095D01*
X196777380Y-40001666D01*
X196729761Y-39954047D01*
X196682142Y-39930238D01*
X196586904Y-39906428D01*
X196515476Y-39906428D01*
X196420238Y-39930238D01*
X196372619Y-39954047D01*
X196325000Y-40001666D01*
X196301190Y-40073095D01*
X196301190Y-40120714D01*
X196325000Y-40192142D01*
X196348809Y-40215952D01*
X196467857Y-40358809D02*
X196467857Y-40549285D01*
X196801190Y-40430238D02*
X196372619Y-40430238D01*
X196325000Y-40454047D01*
X196301190Y-40501666D01*
X196301190Y-40549285D01*
X196467857Y-40644523D02*
X196467857Y-40835000D01*
X196801190Y-40715952D02*
X196372619Y-40715952D01*
X196325000Y-40739761D01*
X196301190Y-40787380D01*
X196301190Y-40835000D01*
X196801190Y-41263571D02*
X196801190Y-40977857D01*
X196801190Y-41120714D02*
X196301190Y-41120714D01*
X196372619Y-41073095D01*
X196420238Y-41025476D01*
X196444047Y-40977857D01*
D11*
X179882380Y-178912380D02*
X179882380Y-178340952D01*
X179882380Y-178626666D02*
X178882380Y-178626666D01*
X179025238Y-178531428D01*
X179120476Y-178436190D01*
X179168095Y-178340952D01*
X178882380Y-179531428D02*
X178882380Y-179626666D01*
X178930000Y-179721904D01*
X178977619Y-179769523D01*
X179072857Y-179817142D01*
X179263333Y-179864761D01*
X179501428Y-179864761D01*
X179691904Y-179817142D01*
X179787142Y-179769523D01*
X179834761Y-179721904D01*
X179882380Y-179626666D01*
X179882380Y-179531428D01*
X179834761Y-179436190D01*
X179787142Y-179388571D01*
X179691904Y-179340952D01*
X179501428Y-179293333D01*
X179263333Y-179293333D01*
X179072857Y-179340952D01*
X178977619Y-179388571D01*
X178930000Y-179436190D01*
X178882380Y-179531428D01*
X178882380Y-180483809D02*
X178882380Y-180579047D01*
X178930000Y-180674285D01*
X178977619Y-180721904D01*
X179072857Y-180769523D01*
X179263333Y-180817142D01*
X179501428Y-180817142D01*
X179691904Y-180769523D01*
X179787142Y-180721904D01*
X179834761Y-180674285D01*
X179882380Y-180579047D01*
X179882380Y-180483809D01*
X179834761Y-180388571D01*
X179787142Y-180340952D01*
X179691904Y-180293333D01*
X179501428Y-180245714D01*
X179263333Y-180245714D01*
X179072857Y-180293333D01*
X178977619Y-180340952D01*
X178930000Y-180388571D01*
X178882380Y-180483809D01*
X179215714Y-181245714D02*
X179882380Y-181245714D01*
X179310952Y-181245714D02*
X179263333Y-181293333D01*
X179215714Y-181388571D01*
X179215714Y-181531428D01*
X179263333Y-181626666D01*
X179358571Y-181674285D01*
X179882380Y-181674285D01*
X179358571Y-182483809D02*
X179358571Y-182150476D01*
X179882380Y-182150476D02*
X178882380Y-182150476D01*
X178882380Y-182626666D01*
D12*
X179608571Y-180031428D02*
X179632380Y-180007619D01*
X179656190Y-179936190D01*
X179656190Y-179888571D01*
X179632380Y-179817142D01*
X179584761Y-179769523D01*
X179537142Y-179745714D01*
X179441904Y-179721904D01*
X179370476Y-179721904D01*
X179275238Y-179745714D01*
X179227619Y-179769523D01*
X179180000Y-179817142D01*
X179156190Y-179888571D01*
X179156190Y-179936190D01*
X179180000Y-180007619D01*
X179203809Y-180031428D01*
X179656190Y-180245714D02*
X179322857Y-180245714D01*
X179156190Y-180245714D02*
X179180000Y-180221904D01*
X179203809Y-180245714D01*
X179180000Y-180269523D01*
X179156190Y-180245714D01*
X179203809Y-180245714D01*
X179322857Y-180483809D02*
X179656190Y-180483809D01*
X179370476Y-180483809D02*
X179346666Y-180507619D01*
X179322857Y-180555238D01*
X179322857Y-180626666D01*
X179346666Y-180674285D01*
X179394285Y-180698095D01*
X179656190Y-180698095D01*
X179203809Y-180912380D02*
X179180000Y-180936190D01*
X179156190Y-180983809D01*
X179156190Y-181102857D01*
X179180000Y-181150476D01*
X179203809Y-181174285D01*
X179251428Y-181198095D01*
X179299047Y-181198095D01*
X179370476Y-181174285D01*
X179656190Y-180888571D01*
X179656190Y-181198095D01*
D11*
X69882380Y-178912380D02*
X69882380Y-178340952D01*
X69882380Y-178626666D02*
X68882380Y-178626666D01*
X69025238Y-178531428D01*
X69120476Y-178436190D01*
X69168095Y-178340952D01*
X68882380Y-179531428D02*
X68882380Y-179626666D01*
X68930000Y-179721904D01*
X68977619Y-179769523D01*
X69072857Y-179817142D01*
X69263333Y-179864761D01*
X69501428Y-179864761D01*
X69691904Y-179817142D01*
X69787142Y-179769523D01*
X69834761Y-179721904D01*
X69882380Y-179626666D01*
X69882380Y-179531428D01*
X69834761Y-179436190D01*
X69787142Y-179388571D01*
X69691904Y-179340952D01*
X69501428Y-179293333D01*
X69263333Y-179293333D01*
X69072857Y-179340952D01*
X68977619Y-179388571D01*
X68930000Y-179436190D01*
X68882380Y-179531428D01*
X68882380Y-180483809D02*
X68882380Y-180579047D01*
X68930000Y-180674285D01*
X68977619Y-180721904D01*
X69072857Y-180769523D01*
X69263333Y-180817142D01*
X69501428Y-180817142D01*
X69691904Y-180769523D01*
X69787142Y-180721904D01*
X69834761Y-180674285D01*
X69882380Y-180579047D01*
X69882380Y-180483809D01*
X69834761Y-180388571D01*
X69787142Y-180340952D01*
X69691904Y-180293333D01*
X69501428Y-180245714D01*
X69263333Y-180245714D01*
X69072857Y-180293333D01*
X68977619Y-180340952D01*
X68930000Y-180388571D01*
X68882380Y-180483809D01*
X69215714Y-181245714D02*
X69882380Y-181245714D01*
X69310952Y-181245714D02*
X69263333Y-181293333D01*
X69215714Y-181388571D01*
X69215714Y-181531428D01*
X69263333Y-181626666D01*
X69358571Y-181674285D01*
X69882380Y-181674285D01*
X69358571Y-182483809D02*
X69358571Y-182150476D01*
X69882380Y-182150476D02*
X68882380Y-182150476D01*
X68882380Y-182626666D01*
D12*
X69608571Y-180031428D02*
X69632380Y-180007619D01*
X69656190Y-179936190D01*
X69656190Y-179888571D01*
X69632380Y-179817142D01*
X69584761Y-179769523D01*
X69537142Y-179745714D01*
X69441904Y-179721904D01*
X69370476Y-179721904D01*
X69275238Y-179745714D01*
X69227619Y-179769523D01*
X69180000Y-179817142D01*
X69156190Y-179888571D01*
X69156190Y-179936190D01*
X69180000Y-180007619D01*
X69203809Y-180031428D01*
X69656190Y-180245714D02*
X69322857Y-180245714D01*
X69156190Y-180245714D02*
X69180000Y-180221904D01*
X69203809Y-180245714D01*
X69180000Y-180269523D01*
X69156190Y-180245714D01*
X69203809Y-180245714D01*
X69322857Y-180483809D02*
X69656190Y-180483809D01*
X69370476Y-180483809D02*
X69346666Y-180507619D01*
X69322857Y-180555238D01*
X69322857Y-180626666D01*
X69346666Y-180674285D01*
X69394285Y-180698095D01*
X69656190Y-180698095D01*
X69203809Y-180912380D02*
X69180000Y-180936190D01*
X69156190Y-180983809D01*
X69156190Y-181102857D01*
X69180000Y-181150476D01*
X69203809Y-181174285D01*
X69251428Y-181198095D01*
X69299047Y-181198095D01*
X69370476Y-181174285D01*
X69656190Y-180888571D01*
X69656190Y-181198095D01*
D11*
X179882380Y-116912380D02*
X179882380Y-116340952D01*
X179882380Y-116626666D02*
X178882380Y-116626666D01*
X179025238Y-116531428D01*
X179120476Y-116436190D01*
X179168095Y-116340952D01*
X178882380Y-117531428D02*
X178882380Y-117626666D01*
X178930000Y-117721904D01*
X178977619Y-117769523D01*
X179072857Y-117817142D01*
X179263333Y-117864761D01*
X179501428Y-117864761D01*
X179691904Y-117817142D01*
X179787142Y-117769523D01*
X179834761Y-117721904D01*
X179882380Y-117626666D01*
X179882380Y-117531428D01*
X179834761Y-117436190D01*
X179787142Y-117388571D01*
X179691904Y-117340952D01*
X179501428Y-117293333D01*
X179263333Y-117293333D01*
X179072857Y-117340952D01*
X178977619Y-117388571D01*
X178930000Y-117436190D01*
X178882380Y-117531428D01*
X178882380Y-118483809D02*
X178882380Y-118579047D01*
X178930000Y-118674285D01*
X178977619Y-118721904D01*
X179072857Y-118769523D01*
X179263333Y-118817142D01*
X179501428Y-118817142D01*
X179691904Y-118769523D01*
X179787142Y-118721904D01*
X179834761Y-118674285D01*
X179882380Y-118579047D01*
X179882380Y-118483809D01*
X179834761Y-118388571D01*
X179787142Y-118340952D01*
X179691904Y-118293333D01*
X179501428Y-118245714D01*
X179263333Y-118245714D01*
X179072857Y-118293333D01*
X178977619Y-118340952D01*
X178930000Y-118388571D01*
X178882380Y-118483809D01*
X179215714Y-119245714D02*
X179882380Y-119245714D01*
X179310952Y-119245714D02*
X179263333Y-119293333D01*
X179215714Y-119388571D01*
X179215714Y-119531428D01*
X179263333Y-119626666D01*
X179358571Y-119674285D01*
X179882380Y-119674285D01*
X179358571Y-120483809D02*
X179358571Y-120150476D01*
X179882380Y-120150476D02*
X178882380Y-120150476D01*
X178882380Y-120626666D01*
D12*
X179608571Y-118031428D02*
X179632380Y-118007619D01*
X179656190Y-117936190D01*
X179656190Y-117888571D01*
X179632380Y-117817142D01*
X179584761Y-117769523D01*
X179537142Y-117745714D01*
X179441904Y-117721904D01*
X179370476Y-117721904D01*
X179275238Y-117745714D01*
X179227619Y-117769523D01*
X179180000Y-117817142D01*
X179156190Y-117888571D01*
X179156190Y-117936190D01*
X179180000Y-118007619D01*
X179203809Y-118031428D01*
X179656190Y-118245714D02*
X179322857Y-118245714D01*
X179156190Y-118245714D02*
X179180000Y-118221904D01*
X179203809Y-118245714D01*
X179180000Y-118269523D01*
X179156190Y-118245714D01*
X179203809Y-118245714D01*
X179322857Y-118483809D02*
X179656190Y-118483809D01*
X179370476Y-118483809D02*
X179346666Y-118507619D01*
X179322857Y-118555238D01*
X179322857Y-118626666D01*
X179346666Y-118674285D01*
X179394285Y-118698095D01*
X179656190Y-118698095D01*
X179203809Y-118912380D02*
X179180000Y-118936190D01*
X179156190Y-118983809D01*
X179156190Y-119102857D01*
X179180000Y-119150476D01*
X179203809Y-119174285D01*
X179251428Y-119198095D01*
X179299047Y-119198095D01*
X179370476Y-119174285D01*
X179656190Y-118888571D01*
X179656190Y-119198095D01*
D11*
X69882380Y-116912380D02*
X69882380Y-116340952D01*
X69882380Y-116626666D02*
X68882380Y-116626666D01*
X69025238Y-116531428D01*
X69120476Y-116436190D01*
X69168095Y-116340952D01*
X68882380Y-117531428D02*
X68882380Y-117626666D01*
X68930000Y-117721904D01*
X68977619Y-117769523D01*
X69072857Y-117817142D01*
X69263333Y-117864761D01*
X69501428Y-117864761D01*
X69691904Y-117817142D01*
X69787142Y-117769523D01*
X69834761Y-117721904D01*
X69882380Y-117626666D01*
X69882380Y-117531428D01*
X69834761Y-117436190D01*
X69787142Y-117388571D01*
X69691904Y-117340952D01*
X69501428Y-117293333D01*
X69263333Y-117293333D01*
X69072857Y-117340952D01*
X68977619Y-117388571D01*
X68930000Y-117436190D01*
X68882380Y-117531428D01*
X68882380Y-118483809D02*
X68882380Y-118579047D01*
X68930000Y-118674285D01*
X68977619Y-118721904D01*
X69072857Y-118769523D01*
X69263333Y-118817142D01*
X69501428Y-118817142D01*
X69691904Y-118769523D01*
X69787142Y-118721904D01*
X69834761Y-118674285D01*
X69882380Y-118579047D01*
X69882380Y-118483809D01*
X69834761Y-118388571D01*
X69787142Y-118340952D01*
X69691904Y-118293333D01*
X69501428Y-118245714D01*
X69263333Y-118245714D01*
X69072857Y-118293333D01*
X68977619Y-118340952D01*
X68930000Y-118388571D01*
X68882380Y-118483809D01*
X69215714Y-119245714D02*
X69882380Y-119245714D01*
X69310952Y-119245714D02*
X69263333Y-119293333D01*
X69215714Y-119388571D01*
X69215714Y-119531428D01*
X69263333Y-119626666D01*
X69358571Y-119674285D01*
X69882380Y-119674285D01*
X69358571Y-120483809D02*
X69358571Y-120150476D01*
X69882380Y-120150476D02*
X68882380Y-120150476D01*
X68882380Y-120626666D01*
D12*
X69608571Y-118031428D02*
X69632380Y-118007619D01*
X69656190Y-117936190D01*
X69656190Y-117888571D01*
X69632380Y-117817142D01*
X69584761Y-117769523D01*
X69537142Y-117745714D01*
X69441904Y-117721904D01*
X69370476Y-117721904D01*
X69275238Y-117745714D01*
X69227619Y-117769523D01*
X69180000Y-117817142D01*
X69156190Y-117888571D01*
X69156190Y-117936190D01*
X69180000Y-118007619D01*
X69203809Y-118031428D01*
X69656190Y-118245714D02*
X69322857Y-118245714D01*
X69156190Y-118245714D02*
X69180000Y-118221904D01*
X69203809Y-118245714D01*
X69180000Y-118269523D01*
X69156190Y-118245714D01*
X69203809Y-118245714D01*
X69322857Y-118483809D02*
X69656190Y-118483809D01*
X69370476Y-118483809D02*
X69346666Y-118507619D01*
X69322857Y-118555238D01*
X69322857Y-118626666D01*
X69346666Y-118674285D01*
X69394285Y-118698095D01*
X69656190Y-118698095D01*
X69203809Y-118912380D02*
X69180000Y-118936190D01*
X69156190Y-118983809D01*
X69156190Y-119102857D01*
X69180000Y-119150476D01*
X69203809Y-119174285D01*
X69251428Y-119198095D01*
X69299047Y-119198095D01*
X69370476Y-119174285D01*
X69656190Y-118888571D01*
X69656190Y-119198095D01*
D11*
X179882380Y-54912380D02*
X179882380Y-54340952D01*
X179882380Y-54626666D02*
X178882380Y-54626666D01*
X179025238Y-54531428D01*
X179120476Y-54436190D01*
X179168095Y-54340952D01*
X178882380Y-55531428D02*
X178882380Y-55626666D01*
X178930000Y-55721904D01*
X178977619Y-55769523D01*
X179072857Y-55817142D01*
X179263333Y-55864761D01*
X179501428Y-55864761D01*
X179691904Y-55817142D01*
X179787142Y-55769523D01*
X179834761Y-55721904D01*
X179882380Y-55626666D01*
X179882380Y-55531428D01*
X179834761Y-55436190D01*
X179787142Y-55388571D01*
X179691904Y-55340952D01*
X179501428Y-55293333D01*
X179263333Y-55293333D01*
X179072857Y-55340952D01*
X178977619Y-55388571D01*
X178930000Y-55436190D01*
X178882380Y-55531428D01*
X178882380Y-56483809D02*
X178882380Y-56579047D01*
X178930000Y-56674285D01*
X178977619Y-56721904D01*
X179072857Y-56769523D01*
X179263333Y-56817142D01*
X179501428Y-56817142D01*
X179691904Y-56769523D01*
X179787142Y-56721904D01*
X179834761Y-56674285D01*
X179882380Y-56579047D01*
X179882380Y-56483809D01*
X179834761Y-56388571D01*
X179787142Y-56340952D01*
X179691904Y-56293333D01*
X179501428Y-56245714D01*
X179263333Y-56245714D01*
X179072857Y-56293333D01*
X178977619Y-56340952D01*
X178930000Y-56388571D01*
X178882380Y-56483809D01*
X179215714Y-57245714D02*
X179882380Y-57245714D01*
X179310952Y-57245714D02*
X179263333Y-57293333D01*
X179215714Y-57388571D01*
X179215714Y-57531428D01*
X179263333Y-57626666D01*
X179358571Y-57674285D01*
X179882380Y-57674285D01*
X179358571Y-58483809D02*
X179358571Y-58150476D01*
X179882380Y-58150476D02*
X178882380Y-58150476D01*
X178882380Y-58626666D01*
D12*
X179608571Y-56031428D02*
X179632380Y-56007619D01*
X179656190Y-55936190D01*
X179656190Y-55888571D01*
X179632380Y-55817142D01*
X179584761Y-55769523D01*
X179537142Y-55745714D01*
X179441904Y-55721904D01*
X179370476Y-55721904D01*
X179275238Y-55745714D01*
X179227619Y-55769523D01*
X179180000Y-55817142D01*
X179156190Y-55888571D01*
X179156190Y-55936190D01*
X179180000Y-56007619D01*
X179203809Y-56031428D01*
X179656190Y-56245714D02*
X179322857Y-56245714D01*
X179156190Y-56245714D02*
X179180000Y-56221904D01*
X179203809Y-56245714D01*
X179180000Y-56269523D01*
X179156190Y-56245714D01*
X179203809Y-56245714D01*
X179322857Y-56483809D02*
X179656190Y-56483809D01*
X179370476Y-56483809D02*
X179346666Y-56507619D01*
X179322857Y-56555238D01*
X179322857Y-56626666D01*
X179346666Y-56674285D01*
X179394285Y-56698095D01*
X179656190Y-56698095D01*
X179203809Y-56912380D02*
X179180000Y-56936190D01*
X179156190Y-56983809D01*
X179156190Y-57102857D01*
X179180000Y-57150476D01*
X179203809Y-57174285D01*
X179251428Y-57198095D01*
X179299047Y-57198095D01*
X179370476Y-57174285D01*
X179656190Y-56888571D01*
X179656190Y-57198095D01*
D11*
X193535952Y-168053809D02*
X193488333Y-167958571D01*
X193440714Y-167910952D01*
X193345476Y-167863333D01*
X193297857Y-167863333D01*
X193202619Y-167910952D01*
X193155000Y-167958571D01*
X193107380Y-168053809D01*
X193107380Y-168244285D01*
X193155000Y-168339523D01*
X193202619Y-168387142D01*
X193297857Y-168434761D01*
X193345476Y-168434761D01*
X193440714Y-168387142D01*
X193488333Y-168339523D01*
X193535952Y-168244285D01*
X193535952Y-168053809D01*
X193583571Y-167958571D01*
X193631190Y-167910952D01*
X193726428Y-167863333D01*
X193916904Y-167863333D01*
X194012142Y-167910952D01*
X194059761Y-167958571D01*
X194107380Y-168053809D01*
X194107380Y-168244285D01*
X194059761Y-168339523D01*
X194012142Y-168387142D01*
X193916904Y-168434761D01*
X193726428Y-168434761D01*
X193631190Y-168387142D01*
X193583571Y-168339523D01*
X193535952Y-168244285D01*
X194107380Y-168863333D02*
X193107380Y-168863333D01*
X193726428Y-168958571D02*
X194107380Y-169244285D01*
X193440714Y-169244285D02*
X193821666Y-168863333D01*
X193202619Y-169625238D02*
X193155000Y-169672857D01*
X193107380Y-169768095D01*
X193107380Y-170006190D01*
X193155000Y-170101428D01*
X193202619Y-170149047D01*
X193297857Y-170196666D01*
X193393095Y-170196666D01*
X193535952Y-170149047D01*
X194107380Y-169577619D01*
X194107380Y-170196666D01*
D12*
X195531190Y-168351428D02*
X195293095Y-168184761D01*
X195531190Y-168065714D02*
X195031190Y-168065714D01*
X195031190Y-168256190D01*
X195055000Y-168303809D01*
X195078809Y-168327619D01*
X195126428Y-168351428D01*
X195197857Y-168351428D01*
X195245476Y-168327619D01*
X195269285Y-168303809D01*
X195293095Y-168256190D01*
X195293095Y-168065714D01*
X195197857Y-168494285D02*
X195197857Y-168684761D01*
X195531190Y-168565714D02*
X195102619Y-168565714D01*
X195055000Y-168589523D01*
X195031190Y-168637142D01*
X195031190Y-168684761D01*
X195531190Y-168851428D02*
X195031190Y-168851428D01*
X195221666Y-168851428D02*
X195197857Y-168899047D01*
X195197857Y-168994285D01*
X195221666Y-169041904D01*
X195245476Y-169065714D01*
X195293095Y-169089523D01*
X195435952Y-169089523D01*
X195483571Y-169065714D01*
X195507380Y-169041904D01*
X195531190Y-168994285D01*
X195531190Y-168899047D01*
X195507380Y-168851428D01*
X195531190Y-169303809D02*
X195031190Y-169303809D01*
X195221666Y-169303809D02*
X195197857Y-169351428D01*
X195197857Y-169446666D01*
X195221666Y-169494285D01*
X195245476Y-169518095D01*
X195293095Y-169541904D01*
X195435952Y-169541904D01*
X195483571Y-169518095D01*
X195507380Y-169494285D01*
X195531190Y-169446666D01*
X195531190Y-169351428D01*
X195507380Y-169303809D01*
X195531190Y-170018095D02*
X195531190Y-169732380D01*
X195531190Y-169875238D02*
X195031190Y-169875238D01*
X195102619Y-169827619D01*
X195150238Y-169780000D01*
X195174047Y-169732380D01*
D11*
X83535952Y-168053809D02*
X83488333Y-167958571D01*
X83440714Y-167910952D01*
X83345476Y-167863333D01*
X83297857Y-167863333D01*
X83202619Y-167910952D01*
X83155000Y-167958571D01*
X83107380Y-168053809D01*
X83107380Y-168244285D01*
X83155000Y-168339523D01*
X83202619Y-168387142D01*
X83297857Y-168434761D01*
X83345476Y-168434761D01*
X83440714Y-168387142D01*
X83488333Y-168339523D01*
X83535952Y-168244285D01*
X83535952Y-168053809D01*
X83583571Y-167958571D01*
X83631190Y-167910952D01*
X83726428Y-167863333D01*
X83916904Y-167863333D01*
X84012142Y-167910952D01*
X84059761Y-167958571D01*
X84107380Y-168053809D01*
X84107380Y-168244285D01*
X84059761Y-168339523D01*
X84012142Y-168387142D01*
X83916904Y-168434761D01*
X83726428Y-168434761D01*
X83631190Y-168387142D01*
X83583571Y-168339523D01*
X83535952Y-168244285D01*
X84107380Y-168863333D02*
X83107380Y-168863333D01*
X83726428Y-168958571D02*
X84107380Y-169244285D01*
X83440714Y-169244285D02*
X83821666Y-168863333D01*
X83202619Y-169625238D02*
X83155000Y-169672857D01*
X83107380Y-169768095D01*
X83107380Y-170006190D01*
X83155000Y-170101428D01*
X83202619Y-170149047D01*
X83297857Y-170196666D01*
X83393095Y-170196666D01*
X83535952Y-170149047D01*
X84107380Y-169577619D01*
X84107380Y-170196666D01*
D12*
X85531190Y-168351428D02*
X85293095Y-168184761D01*
X85531190Y-168065714D02*
X85031190Y-168065714D01*
X85031190Y-168256190D01*
X85055000Y-168303809D01*
X85078809Y-168327619D01*
X85126428Y-168351428D01*
X85197857Y-168351428D01*
X85245476Y-168327619D01*
X85269285Y-168303809D01*
X85293095Y-168256190D01*
X85293095Y-168065714D01*
X85197857Y-168494285D02*
X85197857Y-168684761D01*
X85531190Y-168565714D02*
X85102619Y-168565714D01*
X85055000Y-168589523D01*
X85031190Y-168637142D01*
X85031190Y-168684761D01*
X85531190Y-168851428D02*
X85031190Y-168851428D01*
X85221666Y-168851428D02*
X85197857Y-168899047D01*
X85197857Y-168994285D01*
X85221666Y-169041904D01*
X85245476Y-169065714D01*
X85293095Y-169089523D01*
X85435952Y-169089523D01*
X85483571Y-169065714D01*
X85507380Y-169041904D01*
X85531190Y-168994285D01*
X85531190Y-168899047D01*
X85507380Y-168851428D01*
X85531190Y-169303809D02*
X85031190Y-169303809D01*
X85221666Y-169303809D02*
X85197857Y-169351428D01*
X85197857Y-169446666D01*
X85221666Y-169494285D01*
X85245476Y-169518095D01*
X85293095Y-169541904D01*
X85435952Y-169541904D01*
X85483571Y-169518095D01*
X85507380Y-169494285D01*
X85531190Y-169446666D01*
X85531190Y-169351428D01*
X85507380Y-169303809D01*
X85531190Y-170018095D02*
X85531190Y-169732380D01*
X85531190Y-169875238D02*
X85031190Y-169875238D01*
X85102619Y-169827619D01*
X85150238Y-169780000D01*
X85174047Y-169732380D01*
D11*
X193535952Y-106053809D02*
X193488333Y-105958571D01*
X193440714Y-105910952D01*
X193345476Y-105863333D01*
X193297857Y-105863333D01*
X193202619Y-105910952D01*
X193155000Y-105958571D01*
X193107380Y-106053809D01*
X193107380Y-106244285D01*
X193155000Y-106339523D01*
X193202619Y-106387142D01*
X193297857Y-106434761D01*
X193345476Y-106434761D01*
X193440714Y-106387142D01*
X193488333Y-106339523D01*
X193535952Y-106244285D01*
X193535952Y-106053809D01*
X193583571Y-105958571D01*
X193631190Y-105910952D01*
X193726428Y-105863333D01*
X193916904Y-105863333D01*
X194012142Y-105910952D01*
X194059761Y-105958571D01*
X194107380Y-106053809D01*
X194107380Y-106244285D01*
X194059761Y-106339523D01*
X194012142Y-106387142D01*
X193916904Y-106434761D01*
X193726428Y-106434761D01*
X193631190Y-106387142D01*
X193583571Y-106339523D01*
X193535952Y-106244285D01*
X194107380Y-106863333D02*
X193107380Y-106863333D01*
X193726428Y-106958571D02*
X194107380Y-107244285D01*
X193440714Y-107244285D02*
X193821666Y-106863333D01*
X193202619Y-107625238D02*
X193155000Y-107672857D01*
X193107380Y-107768095D01*
X193107380Y-108006190D01*
X193155000Y-108101428D01*
X193202619Y-108149047D01*
X193297857Y-108196666D01*
X193393095Y-108196666D01*
X193535952Y-108149047D01*
X194107380Y-107577619D01*
X194107380Y-108196666D01*
D12*
X195531190Y-106351428D02*
X195293095Y-106184761D01*
X195531190Y-106065714D02*
X195031190Y-106065714D01*
X195031190Y-106256190D01*
X195055000Y-106303809D01*
X195078809Y-106327619D01*
X195126428Y-106351428D01*
X195197857Y-106351428D01*
X195245476Y-106327619D01*
X195269285Y-106303809D01*
X195293095Y-106256190D01*
X195293095Y-106065714D01*
X195197857Y-106494285D02*
X195197857Y-106684761D01*
X195531190Y-106565714D02*
X195102619Y-106565714D01*
X195055000Y-106589523D01*
X195031190Y-106637142D01*
X195031190Y-106684761D01*
X195531190Y-106851428D02*
X195031190Y-106851428D01*
X195221666Y-106851428D02*
X195197857Y-106899047D01*
X195197857Y-106994285D01*
X195221666Y-107041904D01*
X195245476Y-107065714D01*
X195293095Y-107089523D01*
X195435952Y-107089523D01*
X195483571Y-107065714D01*
X195507380Y-107041904D01*
X195531190Y-106994285D01*
X195531190Y-106899047D01*
X195507380Y-106851428D01*
X195531190Y-107303809D02*
X195031190Y-107303809D01*
X195221666Y-107303809D02*
X195197857Y-107351428D01*
X195197857Y-107446666D01*
X195221666Y-107494285D01*
X195245476Y-107518095D01*
X195293095Y-107541904D01*
X195435952Y-107541904D01*
X195483571Y-107518095D01*
X195507380Y-107494285D01*
X195531190Y-107446666D01*
X195531190Y-107351428D01*
X195507380Y-107303809D01*
X195531190Y-108018095D02*
X195531190Y-107732380D01*
X195531190Y-107875238D02*
X195031190Y-107875238D01*
X195102619Y-107827619D01*
X195150238Y-107780000D01*
X195174047Y-107732380D01*
D11*
X83535952Y-106053809D02*
X83488333Y-105958571D01*
X83440714Y-105910952D01*
X83345476Y-105863333D01*
X83297857Y-105863333D01*
X83202619Y-105910952D01*
X83155000Y-105958571D01*
X83107380Y-106053809D01*
X83107380Y-106244285D01*
X83155000Y-106339523D01*
X83202619Y-106387142D01*
X83297857Y-106434761D01*
X83345476Y-106434761D01*
X83440714Y-106387142D01*
X83488333Y-106339523D01*
X83535952Y-106244285D01*
X83535952Y-106053809D01*
X83583571Y-105958571D01*
X83631190Y-105910952D01*
X83726428Y-105863333D01*
X83916904Y-105863333D01*
X84012142Y-105910952D01*
X84059761Y-105958571D01*
X84107380Y-106053809D01*
X84107380Y-106244285D01*
X84059761Y-106339523D01*
X84012142Y-106387142D01*
X83916904Y-106434761D01*
X83726428Y-106434761D01*
X83631190Y-106387142D01*
X83583571Y-106339523D01*
X83535952Y-106244285D01*
X84107380Y-106863333D02*
X83107380Y-106863333D01*
X83726428Y-106958571D02*
X84107380Y-107244285D01*
X83440714Y-107244285D02*
X83821666Y-106863333D01*
X83202619Y-107625238D02*
X83155000Y-107672857D01*
X83107380Y-107768095D01*
X83107380Y-108006190D01*
X83155000Y-108101428D01*
X83202619Y-108149047D01*
X83297857Y-108196666D01*
X83393095Y-108196666D01*
X83535952Y-108149047D01*
X84107380Y-107577619D01*
X84107380Y-108196666D01*
D12*
X85531190Y-106351428D02*
X85293095Y-106184761D01*
X85531190Y-106065714D02*
X85031190Y-106065714D01*
X85031190Y-106256190D01*
X85055000Y-106303809D01*
X85078809Y-106327619D01*
X85126428Y-106351428D01*
X85197857Y-106351428D01*
X85245476Y-106327619D01*
X85269285Y-106303809D01*
X85293095Y-106256190D01*
X85293095Y-106065714D01*
X85197857Y-106494285D02*
X85197857Y-106684761D01*
X85531190Y-106565714D02*
X85102619Y-106565714D01*
X85055000Y-106589523D01*
X85031190Y-106637142D01*
X85031190Y-106684761D01*
X85531190Y-106851428D02*
X85031190Y-106851428D01*
X85221666Y-106851428D02*
X85197857Y-106899047D01*
X85197857Y-106994285D01*
X85221666Y-107041904D01*
X85245476Y-107065714D01*
X85293095Y-107089523D01*
X85435952Y-107089523D01*
X85483571Y-107065714D01*
X85507380Y-107041904D01*
X85531190Y-106994285D01*
X85531190Y-106899047D01*
X85507380Y-106851428D01*
X85531190Y-107303809D02*
X85031190Y-107303809D01*
X85221666Y-107303809D02*
X85197857Y-107351428D01*
X85197857Y-107446666D01*
X85221666Y-107494285D01*
X85245476Y-107518095D01*
X85293095Y-107541904D01*
X85435952Y-107541904D01*
X85483571Y-107518095D01*
X85507380Y-107494285D01*
X85531190Y-107446666D01*
X85531190Y-107351428D01*
X85507380Y-107303809D01*
X85531190Y-108018095D02*
X85531190Y-107732380D01*
X85531190Y-107875238D02*
X85031190Y-107875238D01*
X85102619Y-107827619D01*
X85150238Y-107780000D01*
X85174047Y-107732380D01*
D11*
X193535952Y-44053809D02*
X193488333Y-43958571D01*
X193440714Y-43910952D01*
X193345476Y-43863333D01*
X193297857Y-43863333D01*
X193202619Y-43910952D01*
X193155000Y-43958571D01*
X193107380Y-44053809D01*
X193107380Y-44244285D01*
X193155000Y-44339523D01*
X193202619Y-44387142D01*
X193297857Y-44434761D01*
X193345476Y-44434761D01*
X193440714Y-44387142D01*
X193488333Y-44339523D01*
X193535952Y-44244285D01*
X193535952Y-44053809D01*
X193583571Y-43958571D01*
X193631190Y-43910952D01*
X193726428Y-43863333D01*
X193916904Y-43863333D01*
X194012142Y-43910952D01*
X194059761Y-43958571D01*
X194107380Y-44053809D01*
X194107380Y-44244285D01*
X194059761Y-44339523D01*
X194012142Y-44387142D01*
X193916904Y-44434761D01*
X193726428Y-44434761D01*
X193631190Y-44387142D01*
X193583571Y-44339523D01*
X193535952Y-44244285D01*
X194107380Y-44863333D02*
X193107380Y-44863333D01*
X193726428Y-44958571D02*
X194107380Y-45244285D01*
X193440714Y-45244285D02*
X193821666Y-44863333D01*
X193202619Y-45625238D02*
X193155000Y-45672857D01*
X193107380Y-45768095D01*
X193107380Y-46006190D01*
X193155000Y-46101428D01*
X193202619Y-46149047D01*
X193297857Y-46196666D01*
X193393095Y-46196666D01*
X193535952Y-46149047D01*
X194107380Y-45577619D01*
X194107380Y-46196666D01*
D12*
X195531190Y-44351428D02*
X195293095Y-44184761D01*
X195531190Y-44065714D02*
X195031190Y-44065714D01*
X195031190Y-44256190D01*
X195055000Y-44303809D01*
X195078809Y-44327619D01*
X195126428Y-44351428D01*
X195197857Y-44351428D01*
X195245476Y-44327619D01*
X195269285Y-44303809D01*
X195293095Y-44256190D01*
X195293095Y-44065714D01*
X195197857Y-44494285D02*
X195197857Y-44684761D01*
X195531190Y-44565714D02*
X195102619Y-44565714D01*
X195055000Y-44589523D01*
X195031190Y-44637142D01*
X195031190Y-44684761D01*
X195531190Y-44851428D02*
X195031190Y-44851428D01*
X195221666Y-44851428D02*
X195197857Y-44899047D01*
X195197857Y-44994285D01*
X195221666Y-45041904D01*
X195245476Y-45065714D01*
X195293095Y-45089523D01*
X195435952Y-45089523D01*
X195483571Y-45065714D01*
X195507380Y-45041904D01*
X195531190Y-44994285D01*
X195531190Y-44899047D01*
X195507380Y-44851428D01*
X195531190Y-45303809D02*
X195031190Y-45303809D01*
X195221666Y-45303809D02*
X195197857Y-45351428D01*
X195197857Y-45446666D01*
X195221666Y-45494285D01*
X195245476Y-45518095D01*
X195293095Y-45541904D01*
X195435952Y-45541904D01*
X195483571Y-45518095D01*
X195507380Y-45494285D01*
X195531190Y-45446666D01*
X195531190Y-45351428D01*
X195507380Y-45303809D01*
X195531190Y-46018095D02*
X195531190Y-45732380D01*
X195531190Y-45875238D02*
X195031190Y-45875238D01*
X195102619Y-45827619D01*
X195150238Y-45780000D01*
X195174047Y-45732380D01*
D11*
X178992380Y-178912380D02*
X178992380Y-178340952D01*
X178992380Y-178626666D02*
X177992380Y-178626666D01*
X178135238Y-178531428D01*
X178230476Y-178436190D01*
X178278095Y-178340952D01*
X177992380Y-179531428D02*
X177992380Y-179626666D01*
X178040000Y-179721904D01*
X178087619Y-179769523D01*
X178182857Y-179817142D01*
X178373333Y-179864761D01*
X178611428Y-179864761D01*
X178801904Y-179817142D01*
X178897142Y-179769523D01*
X178944761Y-179721904D01*
X178992380Y-179626666D01*
X178992380Y-179531428D01*
X178944761Y-179436190D01*
X178897142Y-179388571D01*
X178801904Y-179340952D01*
X178611428Y-179293333D01*
X178373333Y-179293333D01*
X178182857Y-179340952D01*
X178087619Y-179388571D01*
X178040000Y-179436190D01*
X177992380Y-179531428D01*
X177992380Y-180483809D02*
X177992380Y-180579047D01*
X178040000Y-180674285D01*
X178087619Y-180721904D01*
X178182857Y-180769523D01*
X178373333Y-180817142D01*
X178611428Y-180817142D01*
X178801904Y-180769523D01*
X178897142Y-180721904D01*
X178944761Y-180674285D01*
X178992380Y-180579047D01*
X178992380Y-180483809D01*
X178944761Y-180388571D01*
X178897142Y-180340952D01*
X178801904Y-180293333D01*
X178611428Y-180245714D01*
X178373333Y-180245714D01*
X178182857Y-180293333D01*
X178087619Y-180340952D01*
X178040000Y-180388571D01*
X177992380Y-180483809D01*
X178325714Y-181245714D02*
X178992380Y-181245714D01*
X178420952Y-181245714D02*
X178373333Y-181293333D01*
X178325714Y-181388571D01*
X178325714Y-181531428D01*
X178373333Y-181626666D01*
X178468571Y-181674285D01*
X178992380Y-181674285D01*
X178468571Y-182483809D02*
X178468571Y-182150476D01*
X178992380Y-182150476D02*
X177992380Y-182150476D01*
X177992380Y-182626666D01*
D12*
X177068571Y-180031428D02*
X177092380Y-180007619D01*
X177116190Y-179936190D01*
X177116190Y-179888571D01*
X177092380Y-179817142D01*
X177044761Y-179769523D01*
X176997142Y-179745714D01*
X176901904Y-179721904D01*
X176830476Y-179721904D01*
X176735238Y-179745714D01*
X176687619Y-179769523D01*
X176640000Y-179817142D01*
X176616190Y-179888571D01*
X176616190Y-179936190D01*
X176640000Y-180007619D01*
X176663809Y-180031428D01*
X177116190Y-180245714D02*
X176782857Y-180245714D01*
X176616190Y-180245714D02*
X176640000Y-180221904D01*
X176663809Y-180245714D01*
X176640000Y-180269523D01*
X176616190Y-180245714D01*
X176663809Y-180245714D01*
X176782857Y-180483809D02*
X177116190Y-180483809D01*
X176830476Y-180483809D02*
X176806666Y-180507619D01*
X176782857Y-180555238D01*
X176782857Y-180626666D01*
X176806666Y-180674285D01*
X176854285Y-180698095D01*
X177116190Y-180698095D01*
X176616190Y-180888571D02*
X176616190Y-181198095D01*
X176806666Y-181031428D01*
X176806666Y-181102857D01*
X176830476Y-181150476D01*
X176854285Y-181174285D01*
X176901904Y-181198095D01*
X177020952Y-181198095D01*
X177068571Y-181174285D01*
X177092380Y-181150476D01*
X177116190Y-181102857D01*
X177116190Y-180960000D01*
X177092380Y-180912380D01*
X177068571Y-180888571D01*
D11*
X68992380Y-178912380D02*
X68992380Y-178340952D01*
X68992380Y-178626666D02*
X67992380Y-178626666D01*
X68135238Y-178531428D01*
X68230476Y-178436190D01*
X68278095Y-178340952D01*
X67992380Y-179531428D02*
X67992380Y-179626666D01*
X68040000Y-179721904D01*
X68087619Y-179769523D01*
X68182857Y-179817142D01*
X68373333Y-179864761D01*
X68611428Y-179864761D01*
X68801904Y-179817142D01*
X68897142Y-179769523D01*
X68944761Y-179721904D01*
X68992380Y-179626666D01*
X68992380Y-179531428D01*
X68944761Y-179436190D01*
X68897142Y-179388571D01*
X68801904Y-179340952D01*
X68611428Y-179293333D01*
X68373333Y-179293333D01*
X68182857Y-179340952D01*
X68087619Y-179388571D01*
X68040000Y-179436190D01*
X67992380Y-179531428D01*
X67992380Y-180483809D02*
X67992380Y-180579047D01*
X68040000Y-180674285D01*
X68087619Y-180721904D01*
X68182857Y-180769523D01*
X68373333Y-180817142D01*
X68611428Y-180817142D01*
X68801904Y-180769523D01*
X68897142Y-180721904D01*
X68944761Y-180674285D01*
X68992380Y-180579047D01*
X68992380Y-180483809D01*
X68944761Y-180388571D01*
X68897142Y-180340952D01*
X68801904Y-180293333D01*
X68611428Y-180245714D01*
X68373333Y-180245714D01*
X68182857Y-180293333D01*
X68087619Y-180340952D01*
X68040000Y-180388571D01*
X67992380Y-180483809D01*
X68325714Y-181245714D02*
X68992380Y-181245714D01*
X68420952Y-181245714D02*
X68373333Y-181293333D01*
X68325714Y-181388571D01*
X68325714Y-181531428D01*
X68373333Y-181626666D01*
X68468571Y-181674285D01*
X68992380Y-181674285D01*
X68468571Y-182483809D02*
X68468571Y-182150476D01*
X68992380Y-182150476D02*
X67992380Y-182150476D01*
X67992380Y-182626666D01*
D12*
X67068571Y-180031428D02*
X67092380Y-180007619D01*
X67116190Y-179936190D01*
X67116190Y-179888571D01*
X67092380Y-179817142D01*
X67044761Y-179769523D01*
X66997142Y-179745714D01*
X66901904Y-179721904D01*
X66830476Y-179721904D01*
X66735238Y-179745714D01*
X66687619Y-179769523D01*
X66640000Y-179817142D01*
X66616190Y-179888571D01*
X66616190Y-179936190D01*
X66640000Y-180007619D01*
X66663809Y-180031428D01*
X67116190Y-180245714D02*
X66782857Y-180245714D01*
X66616190Y-180245714D02*
X66640000Y-180221904D01*
X66663809Y-180245714D01*
X66640000Y-180269523D01*
X66616190Y-180245714D01*
X66663809Y-180245714D01*
X66782857Y-180483809D02*
X67116190Y-180483809D01*
X66830476Y-180483809D02*
X66806666Y-180507619D01*
X66782857Y-180555238D01*
X66782857Y-180626666D01*
X66806666Y-180674285D01*
X66854285Y-180698095D01*
X67116190Y-180698095D01*
X66616190Y-180888571D02*
X66616190Y-181198095D01*
X66806666Y-181031428D01*
X66806666Y-181102857D01*
X66830476Y-181150476D01*
X66854285Y-181174285D01*
X66901904Y-181198095D01*
X67020952Y-181198095D01*
X67068571Y-181174285D01*
X67092380Y-181150476D01*
X67116190Y-181102857D01*
X67116190Y-180960000D01*
X67092380Y-180912380D01*
X67068571Y-180888571D01*
D11*
X178992380Y-116912380D02*
X178992380Y-116340952D01*
X178992380Y-116626666D02*
X177992380Y-116626666D01*
X178135238Y-116531428D01*
X178230476Y-116436190D01*
X178278095Y-116340952D01*
X177992380Y-117531428D02*
X177992380Y-117626666D01*
X178040000Y-117721904D01*
X178087619Y-117769523D01*
X178182857Y-117817142D01*
X178373333Y-117864761D01*
X178611428Y-117864761D01*
X178801904Y-117817142D01*
X178897142Y-117769523D01*
X178944761Y-117721904D01*
X178992380Y-117626666D01*
X178992380Y-117531428D01*
X178944761Y-117436190D01*
X178897142Y-117388571D01*
X178801904Y-117340952D01*
X178611428Y-117293333D01*
X178373333Y-117293333D01*
X178182857Y-117340952D01*
X178087619Y-117388571D01*
X178040000Y-117436190D01*
X177992380Y-117531428D01*
X177992380Y-118483809D02*
X177992380Y-118579047D01*
X178040000Y-118674285D01*
X178087619Y-118721904D01*
X178182857Y-118769523D01*
X178373333Y-118817142D01*
X178611428Y-118817142D01*
X178801904Y-118769523D01*
X178897142Y-118721904D01*
X178944761Y-118674285D01*
X178992380Y-118579047D01*
X178992380Y-118483809D01*
X178944761Y-118388571D01*
X178897142Y-118340952D01*
X178801904Y-118293333D01*
X178611428Y-118245714D01*
X178373333Y-118245714D01*
X178182857Y-118293333D01*
X178087619Y-118340952D01*
X178040000Y-118388571D01*
X177992380Y-118483809D01*
X178325714Y-119245714D02*
X178992380Y-119245714D01*
X178420952Y-119245714D02*
X178373333Y-119293333D01*
X178325714Y-119388571D01*
X178325714Y-119531428D01*
X178373333Y-119626666D01*
X178468571Y-119674285D01*
X178992380Y-119674285D01*
X178468571Y-120483809D02*
X178468571Y-120150476D01*
X178992380Y-120150476D02*
X177992380Y-120150476D01*
X177992380Y-120626666D01*
D12*
X177068571Y-118031428D02*
X177092380Y-118007619D01*
X177116190Y-117936190D01*
X177116190Y-117888571D01*
X177092380Y-117817142D01*
X177044761Y-117769523D01*
X176997142Y-117745714D01*
X176901904Y-117721904D01*
X176830476Y-117721904D01*
X176735238Y-117745714D01*
X176687619Y-117769523D01*
X176640000Y-117817142D01*
X176616190Y-117888571D01*
X176616190Y-117936190D01*
X176640000Y-118007619D01*
X176663809Y-118031428D01*
X177116190Y-118245714D02*
X176782857Y-118245714D01*
X176616190Y-118245714D02*
X176640000Y-118221904D01*
X176663809Y-118245714D01*
X176640000Y-118269523D01*
X176616190Y-118245714D01*
X176663809Y-118245714D01*
X176782857Y-118483809D02*
X177116190Y-118483809D01*
X176830476Y-118483809D02*
X176806666Y-118507619D01*
X176782857Y-118555238D01*
X176782857Y-118626666D01*
X176806666Y-118674285D01*
X176854285Y-118698095D01*
X177116190Y-118698095D01*
X176616190Y-118888571D02*
X176616190Y-119198095D01*
X176806666Y-119031428D01*
X176806666Y-119102857D01*
X176830476Y-119150476D01*
X176854285Y-119174285D01*
X176901904Y-119198095D01*
X177020952Y-119198095D01*
X177068571Y-119174285D01*
X177092380Y-119150476D01*
X177116190Y-119102857D01*
X177116190Y-118960000D01*
X177092380Y-118912380D01*
X177068571Y-118888571D01*
D11*
X68992380Y-116912380D02*
X68992380Y-116340952D01*
X68992380Y-116626666D02*
X67992380Y-116626666D01*
X68135238Y-116531428D01*
X68230476Y-116436190D01*
X68278095Y-116340952D01*
X67992380Y-117531428D02*
X67992380Y-117626666D01*
X68040000Y-117721904D01*
X68087619Y-117769523D01*
X68182857Y-117817142D01*
X68373333Y-117864761D01*
X68611428Y-117864761D01*
X68801904Y-117817142D01*
X68897142Y-117769523D01*
X68944761Y-117721904D01*
X68992380Y-117626666D01*
X68992380Y-117531428D01*
X68944761Y-117436190D01*
X68897142Y-117388571D01*
X68801904Y-117340952D01*
X68611428Y-117293333D01*
X68373333Y-117293333D01*
X68182857Y-117340952D01*
X68087619Y-117388571D01*
X68040000Y-117436190D01*
X67992380Y-117531428D01*
X67992380Y-118483809D02*
X67992380Y-118579047D01*
X68040000Y-118674285D01*
X68087619Y-118721904D01*
X68182857Y-118769523D01*
X68373333Y-118817142D01*
X68611428Y-118817142D01*
X68801904Y-118769523D01*
X68897142Y-118721904D01*
X68944761Y-118674285D01*
X68992380Y-118579047D01*
X68992380Y-118483809D01*
X68944761Y-118388571D01*
X68897142Y-118340952D01*
X68801904Y-118293333D01*
X68611428Y-118245714D01*
X68373333Y-118245714D01*
X68182857Y-118293333D01*
X68087619Y-118340952D01*
X68040000Y-118388571D01*
X67992380Y-118483809D01*
X68325714Y-119245714D02*
X68992380Y-119245714D01*
X68420952Y-119245714D02*
X68373333Y-119293333D01*
X68325714Y-119388571D01*
X68325714Y-119531428D01*
X68373333Y-119626666D01*
X68468571Y-119674285D01*
X68992380Y-119674285D01*
X68468571Y-120483809D02*
X68468571Y-120150476D01*
X68992380Y-120150476D02*
X67992380Y-120150476D01*
X67992380Y-120626666D01*
D12*
X67068571Y-118031428D02*
X67092380Y-118007619D01*
X67116190Y-117936190D01*
X67116190Y-117888571D01*
X67092380Y-117817142D01*
X67044761Y-117769523D01*
X66997142Y-117745714D01*
X66901904Y-117721904D01*
X66830476Y-117721904D01*
X66735238Y-117745714D01*
X66687619Y-117769523D01*
X66640000Y-117817142D01*
X66616190Y-117888571D01*
X66616190Y-117936190D01*
X66640000Y-118007619D01*
X66663809Y-118031428D01*
X67116190Y-118245714D02*
X66782857Y-118245714D01*
X66616190Y-118245714D02*
X66640000Y-118221904D01*
X66663809Y-118245714D01*
X66640000Y-118269523D01*
X66616190Y-118245714D01*
X66663809Y-118245714D01*
X66782857Y-118483809D02*
X67116190Y-118483809D01*
X66830476Y-118483809D02*
X66806666Y-118507619D01*
X66782857Y-118555238D01*
X66782857Y-118626666D01*
X66806666Y-118674285D01*
X66854285Y-118698095D01*
X67116190Y-118698095D01*
X66616190Y-118888571D02*
X66616190Y-119198095D01*
X66806666Y-119031428D01*
X66806666Y-119102857D01*
X66830476Y-119150476D01*
X66854285Y-119174285D01*
X66901904Y-119198095D01*
X67020952Y-119198095D01*
X67068571Y-119174285D01*
X67092380Y-119150476D01*
X67116190Y-119102857D01*
X67116190Y-118960000D01*
X67092380Y-118912380D01*
X67068571Y-118888571D01*
D11*
X178992380Y-54912380D02*
X178992380Y-54340952D01*
X178992380Y-54626666D02*
X177992380Y-54626666D01*
X178135238Y-54531428D01*
X178230476Y-54436190D01*
X178278095Y-54340952D01*
X177992380Y-55531428D02*
X177992380Y-55626666D01*
X178040000Y-55721904D01*
X178087619Y-55769523D01*
X178182857Y-55817142D01*
X178373333Y-55864761D01*
X178611428Y-55864761D01*
X178801904Y-55817142D01*
X178897142Y-55769523D01*
X178944761Y-55721904D01*
X178992380Y-55626666D01*
X178992380Y-55531428D01*
X178944761Y-55436190D01*
X178897142Y-55388571D01*
X178801904Y-55340952D01*
X178611428Y-55293333D01*
X178373333Y-55293333D01*
X178182857Y-55340952D01*
X178087619Y-55388571D01*
X178040000Y-55436190D01*
X177992380Y-55531428D01*
X177992380Y-56483809D02*
X177992380Y-56579047D01*
X178040000Y-56674285D01*
X178087619Y-56721904D01*
X178182857Y-56769523D01*
X178373333Y-56817142D01*
X178611428Y-56817142D01*
X178801904Y-56769523D01*
X178897142Y-56721904D01*
X178944761Y-56674285D01*
X178992380Y-56579047D01*
X178992380Y-56483809D01*
X178944761Y-56388571D01*
X178897142Y-56340952D01*
X178801904Y-56293333D01*
X178611428Y-56245714D01*
X178373333Y-56245714D01*
X178182857Y-56293333D01*
X178087619Y-56340952D01*
X178040000Y-56388571D01*
X177992380Y-56483809D01*
X178325714Y-57245714D02*
X178992380Y-57245714D01*
X178420952Y-57245714D02*
X178373333Y-57293333D01*
X178325714Y-57388571D01*
X178325714Y-57531428D01*
X178373333Y-57626666D01*
X178468571Y-57674285D01*
X178992380Y-57674285D01*
X178468571Y-58483809D02*
X178468571Y-58150476D01*
X178992380Y-58150476D02*
X177992380Y-58150476D01*
X177992380Y-58626666D01*
D12*
X177068571Y-56031428D02*
X177092380Y-56007619D01*
X177116190Y-55936190D01*
X177116190Y-55888571D01*
X177092380Y-55817142D01*
X177044761Y-55769523D01*
X176997142Y-55745714D01*
X176901904Y-55721904D01*
X176830476Y-55721904D01*
X176735238Y-55745714D01*
X176687619Y-55769523D01*
X176640000Y-55817142D01*
X176616190Y-55888571D01*
X176616190Y-55936190D01*
X176640000Y-56007619D01*
X176663809Y-56031428D01*
X177116190Y-56245714D02*
X176782857Y-56245714D01*
X176616190Y-56245714D02*
X176640000Y-56221904D01*
X176663809Y-56245714D01*
X176640000Y-56269523D01*
X176616190Y-56245714D01*
X176663809Y-56245714D01*
X176782857Y-56483809D02*
X177116190Y-56483809D01*
X176830476Y-56483809D02*
X176806666Y-56507619D01*
X176782857Y-56555238D01*
X176782857Y-56626666D01*
X176806666Y-56674285D01*
X176854285Y-56698095D01*
X177116190Y-56698095D01*
X176616190Y-56888571D02*
X176616190Y-57198095D01*
X176806666Y-57031428D01*
X176806666Y-57102857D01*
X176830476Y-57150476D01*
X176854285Y-57174285D01*
X176901904Y-57198095D01*
X177020952Y-57198095D01*
X177068571Y-57174285D01*
X177092380Y-57150476D01*
X177116190Y-57102857D01*
X177116190Y-56960000D01*
X177092380Y-56912380D01*
X177068571Y-56888571D01*
D11*
X195232619Y-162942142D02*
X195185000Y-162989761D01*
X195137380Y-163085000D01*
X195137380Y-163323095D01*
X195185000Y-163418333D01*
X195232619Y-163465952D01*
X195327857Y-163513571D01*
X195423095Y-163513571D01*
X195565952Y-163465952D01*
X196137380Y-162894523D01*
X196137380Y-163513571D01*
X195137380Y-163846904D02*
X195137380Y-164465952D01*
X195518333Y-164132619D01*
X195518333Y-164275476D01*
X195565952Y-164370714D01*
X195613571Y-164418333D01*
X195708809Y-164465952D01*
X195946904Y-164465952D01*
X196042142Y-164418333D01*
X196089761Y-164370714D01*
X196137380Y-164275476D01*
X196137380Y-163989761D01*
X196089761Y-163894523D01*
X196042142Y-163846904D01*
X195137380Y-165085000D02*
X195137380Y-165180238D01*
X195185000Y-165275476D01*
X195232619Y-165323095D01*
X195327857Y-165370714D01*
X195518333Y-165418333D01*
X195756428Y-165418333D01*
X195946904Y-165370714D01*
X196042142Y-165323095D01*
X196089761Y-165275476D01*
X196137380Y-165180238D01*
X196137380Y-165085000D01*
X196089761Y-164989761D01*
X196042142Y-164942142D01*
X195946904Y-164894523D01*
X195756428Y-164846904D01*
X195518333Y-164846904D01*
X195327857Y-164894523D01*
X195232619Y-164942142D01*
X195185000Y-164989761D01*
X195137380Y-165085000D01*
X196137380Y-165846904D02*
X195137380Y-165846904D01*
X195756428Y-165942142D02*
X196137380Y-166227857D01*
X195470714Y-166227857D02*
X195851666Y-165846904D01*
D12*
X194261190Y-163989761D02*
X194023095Y-163823095D01*
X194261190Y-163704047D02*
X193761190Y-163704047D01*
X193761190Y-163894523D01*
X193785000Y-163942142D01*
X193808809Y-163965952D01*
X193856428Y-163989761D01*
X193927857Y-163989761D01*
X193975476Y-163965952D01*
X193999285Y-163942142D01*
X194023095Y-163894523D01*
X194023095Y-163704047D01*
X193927857Y-164132619D02*
X193927857Y-164323095D01*
X194261190Y-164204047D02*
X193832619Y-164204047D01*
X193785000Y-164227857D01*
X193761190Y-164275476D01*
X193761190Y-164323095D01*
X194261190Y-164489761D02*
X193761190Y-164489761D01*
X193951666Y-164489761D02*
X193927857Y-164537380D01*
X193927857Y-164632619D01*
X193951666Y-164680238D01*
X193975476Y-164704047D01*
X194023095Y-164727857D01*
X194165952Y-164727857D01*
X194213571Y-164704047D01*
X194237380Y-164680238D01*
X194261190Y-164632619D01*
X194261190Y-164537380D01*
X194237380Y-164489761D01*
X193927857Y-164870714D02*
X193927857Y-165061190D01*
X193761190Y-164942142D02*
X194189761Y-164942142D01*
X194237380Y-164965952D01*
X194261190Y-165013571D01*
X194261190Y-165061190D01*
X193808809Y-165204047D02*
X193785000Y-165227857D01*
X193761190Y-165275476D01*
X193761190Y-165394523D01*
X193785000Y-165442142D01*
X193808809Y-165465952D01*
X193856428Y-165489761D01*
X193904047Y-165489761D01*
X193975476Y-165465952D01*
X194261190Y-165180238D01*
X194261190Y-165489761D01*
D11*
X85232619Y-162942142D02*
X85185000Y-162989761D01*
X85137380Y-163085000D01*
X85137380Y-163323095D01*
X85185000Y-163418333D01*
X85232619Y-163465952D01*
X85327857Y-163513571D01*
X85423095Y-163513571D01*
X85565952Y-163465952D01*
X86137380Y-162894523D01*
X86137380Y-163513571D01*
X85137380Y-163846904D02*
X85137380Y-164465952D01*
X85518333Y-164132619D01*
X85518333Y-164275476D01*
X85565952Y-164370714D01*
X85613571Y-164418333D01*
X85708809Y-164465952D01*
X85946904Y-164465952D01*
X86042142Y-164418333D01*
X86089761Y-164370714D01*
X86137380Y-164275476D01*
X86137380Y-163989761D01*
X86089761Y-163894523D01*
X86042142Y-163846904D01*
X85137380Y-165085000D02*
X85137380Y-165180238D01*
X85185000Y-165275476D01*
X85232619Y-165323095D01*
X85327857Y-165370714D01*
X85518333Y-165418333D01*
X85756428Y-165418333D01*
X85946904Y-165370714D01*
X86042142Y-165323095D01*
X86089761Y-165275476D01*
X86137380Y-165180238D01*
X86137380Y-165085000D01*
X86089761Y-164989761D01*
X86042142Y-164942142D01*
X85946904Y-164894523D01*
X85756428Y-164846904D01*
X85518333Y-164846904D01*
X85327857Y-164894523D01*
X85232619Y-164942142D01*
X85185000Y-164989761D01*
X85137380Y-165085000D01*
X86137380Y-165846904D02*
X85137380Y-165846904D01*
X85756428Y-165942142D02*
X86137380Y-166227857D01*
X85470714Y-166227857D02*
X85851666Y-165846904D01*
D12*
X84261190Y-163989761D02*
X84023095Y-163823095D01*
X84261190Y-163704047D02*
X83761190Y-163704047D01*
X83761190Y-163894523D01*
X83785000Y-163942142D01*
X83808809Y-163965952D01*
X83856428Y-163989761D01*
X83927857Y-163989761D01*
X83975476Y-163965952D01*
X83999285Y-163942142D01*
X84023095Y-163894523D01*
X84023095Y-163704047D01*
X83927857Y-164132619D02*
X83927857Y-164323095D01*
X84261190Y-164204047D02*
X83832619Y-164204047D01*
X83785000Y-164227857D01*
X83761190Y-164275476D01*
X83761190Y-164323095D01*
X84261190Y-164489761D02*
X83761190Y-164489761D01*
X83951666Y-164489761D02*
X83927857Y-164537380D01*
X83927857Y-164632619D01*
X83951666Y-164680238D01*
X83975476Y-164704047D01*
X84023095Y-164727857D01*
X84165952Y-164727857D01*
X84213571Y-164704047D01*
X84237380Y-164680238D01*
X84261190Y-164632619D01*
X84261190Y-164537380D01*
X84237380Y-164489761D01*
X83927857Y-164870714D02*
X83927857Y-165061190D01*
X83761190Y-164942142D02*
X84189761Y-164942142D01*
X84237380Y-164965952D01*
X84261190Y-165013571D01*
X84261190Y-165061190D01*
X83808809Y-165204047D02*
X83785000Y-165227857D01*
X83761190Y-165275476D01*
X83761190Y-165394523D01*
X83785000Y-165442142D01*
X83808809Y-165465952D01*
X83856428Y-165489761D01*
X83904047Y-165489761D01*
X83975476Y-165465952D01*
X84261190Y-165180238D01*
X84261190Y-165489761D01*
D11*
X195232619Y-100942142D02*
X195185000Y-100989761D01*
X195137380Y-101085000D01*
X195137380Y-101323095D01*
X195185000Y-101418333D01*
X195232619Y-101465952D01*
X195327857Y-101513571D01*
X195423095Y-101513571D01*
X195565952Y-101465952D01*
X196137380Y-100894523D01*
X196137380Y-101513571D01*
X195137380Y-101846904D02*
X195137380Y-102465952D01*
X195518333Y-102132619D01*
X195518333Y-102275476D01*
X195565952Y-102370714D01*
X195613571Y-102418333D01*
X195708809Y-102465952D01*
X195946904Y-102465952D01*
X196042142Y-102418333D01*
X196089761Y-102370714D01*
X196137380Y-102275476D01*
X196137380Y-101989761D01*
X196089761Y-101894523D01*
X196042142Y-101846904D01*
X195137380Y-103085000D02*
X195137380Y-103180238D01*
X195185000Y-103275476D01*
X195232619Y-103323095D01*
X195327857Y-103370714D01*
X195518333Y-103418333D01*
X195756428Y-103418333D01*
X195946904Y-103370714D01*
X196042142Y-103323095D01*
X196089761Y-103275476D01*
X196137380Y-103180238D01*
X196137380Y-103085000D01*
X196089761Y-102989761D01*
X196042142Y-102942142D01*
X195946904Y-102894523D01*
X195756428Y-102846904D01*
X195518333Y-102846904D01*
X195327857Y-102894523D01*
X195232619Y-102942142D01*
X195185000Y-102989761D01*
X195137380Y-103085000D01*
X196137380Y-103846904D02*
X195137380Y-103846904D01*
X195756428Y-103942142D02*
X196137380Y-104227857D01*
X195470714Y-104227857D02*
X195851666Y-103846904D01*
D12*
X194261190Y-101989761D02*
X194023095Y-101823095D01*
X194261190Y-101704047D02*
X193761190Y-101704047D01*
X193761190Y-101894523D01*
X193785000Y-101942142D01*
X193808809Y-101965952D01*
X193856428Y-101989761D01*
X193927857Y-101989761D01*
X193975476Y-101965952D01*
X193999285Y-101942142D01*
X194023095Y-101894523D01*
X194023095Y-101704047D01*
X193927857Y-102132619D02*
X193927857Y-102323095D01*
X194261190Y-102204047D02*
X193832619Y-102204047D01*
X193785000Y-102227857D01*
X193761190Y-102275476D01*
X193761190Y-102323095D01*
X194261190Y-102489761D02*
X193761190Y-102489761D01*
X193951666Y-102489761D02*
X193927857Y-102537380D01*
X193927857Y-102632619D01*
X193951666Y-102680238D01*
X193975476Y-102704047D01*
X194023095Y-102727857D01*
X194165952Y-102727857D01*
X194213571Y-102704047D01*
X194237380Y-102680238D01*
X194261190Y-102632619D01*
X194261190Y-102537380D01*
X194237380Y-102489761D01*
X193927857Y-102870714D02*
X193927857Y-103061190D01*
X193761190Y-102942142D02*
X194189761Y-102942142D01*
X194237380Y-102965952D01*
X194261190Y-103013571D01*
X194261190Y-103061190D01*
X193808809Y-103204047D02*
X193785000Y-103227857D01*
X193761190Y-103275476D01*
X193761190Y-103394523D01*
X193785000Y-103442142D01*
X193808809Y-103465952D01*
X193856428Y-103489761D01*
X193904047Y-103489761D01*
X193975476Y-103465952D01*
X194261190Y-103180238D01*
X194261190Y-103489761D01*
D11*
X85232619Y-100942142D02*
X85185000Y-100989761D01*
X85137380Y-101085000D01*
X85137380Y-101323095D01*
X85185000Y-101418333D01*
X85232619Y-101465952D01*
X85327857Y-101513571D01*
X85423095Y-101513571D01*
X85565952Y-101465952D01*
X86137380Y-100894523D01*
X86137380Y-101513571D01*
X85137380Y-101846904D02*
X85137380Y-102465952D01*
X85518333Y-102132619D01*
X85518333Y-102275476D01*
X85565952Y-102370714D01*
X85613571Y-102418333D01*
X85708809Y-102465952D01*
X85946904Y-102465952D01*
X86042142Y-102418333D01*
X86089761Y-102370714D01*
X86137380Y-102275476D01*
X86137380Y-101989761D01*
X86089761Y-101894523D01*
X86042142Y-101846904D01*
X85137380Y-103085000D02*
X85137380Y-103180238D01*
X85185000Y-103275476D01*
X85232619Y-103323095D01*
X85327857Y-103370714D01*
X85518333Y-103418333D01*
X85756428Y-103418333D01*
X85946904Y-103370714D01*
X86042142Y-103323095D01*
X86089761Y-103275476D01*
X86137380Y-103180238D01*
X86137380Y-103085000D01*
X86089761Y-102989761D01*
X86042142Y-102942142D01*
X85946904Y-102894523D01*
X85756428Y-102846904D01*
X85518333Y-102846904D01*
X85327857Y-102894523D01*
X85232619Y-102942142D01*
X85185000Y-102989761D01*
X85137380Y-103085000D01*
X86137380Y-103846904D02*
X85137380Y-103846904D01*
X85756428Y-103942142D02*
X86137380Y-104227857D01*
X85470714Y-104227857D02*
X85851666Y-103846904D01*
D12*
X84261190Y-101989761D02*
X84023095Y-101823095D01*
X84261190Y-101704047D02*
X83761190Y-101704047D01*
X83761190Y-101894523D01*
X83785000Y-101942142D01*
X83808809Y-101965952D01*
X83856428Y-101989761D01*
X83927857Y-101989761D01*
X83975476Y-101965952D01*
X83999285Y-101942142D01*
X84023095Y-101894523D01*
X84023095Y-101704047D01*
X83927857Y-102132619D02*
X83927857Y-102323095D01*
X84261190Y-102204047D02*
X83832619Y-102204047D01*
X83785000Y-102227857D01*
X83761190Y-102275476D01*
X83761190Y-102323095D01*
X84261190Y-102489761D02*
X83761190Y-102489761D01*
X83951666Y-102489761D02*
X83927857Y-102537380D01*
X83927857Y-102632619D01*
X83951666Y-102680238D01*
X83975476Y-102704047D01*
X84023095Y-102727857D01*
X84165952Y-102727857D01*
X84213571Y-102704047D01*
X84237380Y-102680238D01*
X84261190Y-102632619D01*
X84261190Y-102537380D01*
X84237380Y-102489761D01*
X83927857Y-102870714D02*
X83927857Y-103061190D01*
X83761190Y-102942142D02*
X84189761Y-102942142D01*
X84237380Y-102965952D01*
X84261190Y-103013571D01*
X84261190Y-103061190D01*
X83808809Y-103204047D02*
X83785000Y-103227857D01*
X83761190Y-103275476D01*
X83761190Y-103394523D01*
X83785000Y-103442142D01*
X83808809Y-103465952D01*
X83856428Y-103489761D01*
X83904047Y-103489761D01*
X83975476Y-103465952D01*
X84261190Y-103180238D01*
X84261190Y-103489761D01*
D11*
X195232619Y-38942142D02*
X195185000Y-38989761D01*
X195137380Y-39085000D01*
X195137380Y-39323095D01*
X195185000Y-39418333D01*
X195232619Y-39465952D01*
X195327857Y-39513571D01*
X195423095Y-39513571D01*
X195565952Y-39465952D01*
X196137380Y-38894523D01*
X196137380Y-39513571D01*
X195137380Y-39846904D02*
X195137380Y-40465952D01*
X195518333Y-40132619D01*
X195518333Y-40275476D01*
X195565952Y-40370714D01*
X195613571Y-40418333D01*
X195708809Y-40465952D01*
X195946904Y-40465952D01*
X196042142Y-40418333D01*
X196089761Y-40370714D01*
X196137380Y-40275476D01*
X196137380Y-39989761D01*
X196089761Y-39894523D01*
X196042142Y-39846904D01*
X195137380Y-41085000D02*
X195137380Y-41180238D01*
X195185000Y-41275476D01*
X195232619Y-41323095D01*
X195327857Y-41370714D01*
X195518333Y-41418333D01*
X195756428Y-41418333D01*
X195946904Y-41370714D01*
X196042142Y-41323095D01*
X196089761Y-41275476D01*
X196137380Y-41180238D01*
X196137380Y-41085000D01*
X196089761Y-40989761D01*
X196042142Y-40942142D01*
X195946904Y-40894523D01*
X195756428Y-40846904D01*
X195518333Y-40846904D01*
X195327857Y-40894523D01*
X195232619Y-40942142D01*
X195185000Y-40989761D01*
X195137380Y-41085000D01*
X196137380Y-41846904D02*
X195137380Y-41846904D01*
X195756428Y-41942142D02*
X196137380Y-42227857D01*
X195470714Y-42227857D02*
X195851666Y-41846904D01*
D12*
X194261190Y-39989761D02*
X194023095Y-39823095D01*
X194261190Y-39704047D02*
X193761190Y-39704047D01*
X193761190Y-39894523D01*
X193785000Y-39942142D01*
X193808809Y-39965952D01*
X193856428Y-39989761D01*
X193927857Y-39989761D01*
X193975476Y-39965952D01*
X193999285Y-39942142D01*
X194023095Y-39894523D01*
X194023095Y-39704047D01*
X193927857Y-40132619D02*
X193927857Y-40323095D01*
X194261190Y-40204047D02*
X193832619Y-40204047D01*
X193785000Y-40227857D01*
X193761190Y-40275476D01*
X193761190Y-40323095D01*
X194261190Y-40489761D02*
X193761190Y-40489761D01*
X193951666Y-40489761D02*
X193927857Y-40537380D01*
X193927857Y-40632619D01*
X193951666Y-40680238D01*
X193975476Y-40704047D01*
X194023095Y-40727857D01*
X194165952Y-40727857D01*
X194213571Y-40704047D01*
X194237380Y-40680238D01*
X194261190Y-40632619D01*
X194261190Y-40537380D01*
X194237380Y-40489761D01*
X193927857Y-40870714D02*
X193927857Y-41061190D01*
X193761190Y-40942142D02*
X194189761Y-40942142D01*
X194237380Y-40965952D01*
X194261190Y-41013571D01*
X194261190Y-41061190D01*
X193808809Y-41204047D02*
X193785000Y-41227857D01*
X193761190Y-41275476D01*
X193761190Y-41394523D01*
X193785000Y-41442142D01*
X193808809Y-41465952D01*
X193856428Y-41489761D01*
X193904047Y-41489761D01*
X193975476Y-41465952D01*
X194261190Y-41180238D01*
X194261190Y-41489761D01*
D11*
X180897380Y-170268333D02*
X180897380Y-169696904D01*
X180897380Y-169982619D02*
X179897380Y-169982619D01*
X180040238Y-169887380D01*
X180135476Y-169792142D01*
X180183095Y-169696904D01*
X179897380Y-170887380D02*
X179897380Y-170982619D01*
X179945000Y-171077857D01*
X179992619Y-171125476D01*
X180087857Y-171173095D01*
X180278333Y-171220714D01*
X180516428Y-171220714D01*
X180706904Y-171173095D01*
X180802142Y-171125476D01*
X180849761Y-171077857D01*
X180897380Y-170982619D01*
X180897380Y-170887380D01*
X180849761Y-170792142D01*
X180802142Y-170744523D01*
X180706904Y-170696904D01*
X180516428Y-170649285D01*
X180278333Y-170649285D01*
X180087857Y-170696904D01*
X179992619Y-170744523D01*
X179945000Y-170792142D01*
X179897380Y-170887380D01*
X179897380Y-171839761D02*
X179897380Y-171935000D01*
X179945000Y-172030238D01*
X179992619Y-172077857D01*
X180087857Y-172125476D01*
X180278333Y-172173095D01*
X180516428Y-172173095D01*
X180706904Y-172125476D01*
X180802142Y-172077857D01*
X180849761Y-172030238D01*
X180897380Y-171935000D01*
X180897380Y-171839761D01*
X180849761Y-171744523D01*
X180802142Y-171696904D01*
X180706904Y-171649285D01*
X180516428Y-171601666D01*
X180278333Y-171601666D01*
X180087857Y-171649285D01*
X179992619Y-171696904D01*
X179945000Y-171744523D01*
X179897380Y-171839761D01*
D12*
X179021190Y-170851666D02*
X178783095Y-170685000D01*
X179021190Y-170565952D02*
X178521190Y-170565952D01*
X178521190Y-170756428D01*
X178545000Y-170804047D01*
X178568809Y-170827857D01*
X178616428Y-170851666D01*
X178687857Y-170851666D01*
X178735476Y-170827857D01*
X178759285Y-170804047D01*
X178783095Y-170756428D01*
X178783095Y-170565952D01*
X178568809Y-171042142D02*
X178545000Y-171065952D01*
X178521190Y-171113571D01*
X178521190Y-171232619D01*
X178545000Y-171280238D01*
X178568809Y-171304047D01*
X178616428Y-171327857D01*
X178664047Y-171327857D01*
X178735476Y-171304047D01*
X179021190Y-171018333D01*
X179021190Y-171327857D01*
D11*
X70897380Y-170268333D02*
X70897380Y-169696904D01*
X70897380Y-169982619D02*
X69897380Y-169982619D01*
X70040238Y-169887380D01*
X70135476Y-169792142D01*
X70183095Y-169696904D01*
X69897380Y-170887380D02*
X69897380Y-170982619D01*
X69945000Y-171077857D01*
X69992619Y-171125476D01*
X70087857Y-171173095D01*
X70278333Y-171220714D01*
X70516428Y-171220714D01*
X70706904Y-171173095D01*
X70802142Y-171125476D01*
X70849761Y-171077857D01*
X70897380Y-170982619D01*
X70897380Y-170887380D01*
X70849761Y-170792142D01*
X70802142Y-170744523D01*
X70706904Y-170696904D01*
X70516428Y-170649285D01*
X70278333Y-170649285D01*
X70087857Y-170696904D01*
X69992619Y-170744523D01*
X69945000Y-170792142D01*
X69897380Y-170887380D01*
X69897380Y-171839761D02*
X69897380Y-171935000D01*
X69945000Y-172030238D01*
X69992619Y-172077857D01*
X70087857Y-172125476D01*
X70278333Y-172173095D01*
X70516428Y-172173095D01*
X70706904Y-172125476D01*
X70802142Y-172077857D01*
X70849761Y-172030238D01*
X70897380Y-171935000D01*
X70897380Y-171839761D01*
X70849761Y-171744523D01*
X70802142Y-171696904D01*
X70706904Y-171649285D01*
X70516428Y-171601666D01*
X70278333Y-171601666D01*
X70087857Y-171649285D01*
X69992619Y-171696904D01*
X69945000Y-171744523D01*
X69897380Y-171839761D01*
D12*
X69021190Y-170851666D02*
X68783095Y-170685000D01*
X69021190Y-170565952D02*
X68521190Y-170565952D01*
X68521190Y-170756428D01*
X68545000Y-170804047D01*
X68568809Y-170827857D01*
X68616428Y-170851666D01*
X68687857Y-170851666D01*
X68735476Y-170827857D01*
X68759285Y-170804047D01*
X68783095Y-170756428D01*
X68783095Y-170565952D01*
X68568809Y-171042142D02*
X68545000Y-171065952D01*
X68521190Y-171113571D01*
X68521190Y-171232619D01*
X68545000Y-171280238D01*
X68568809Y-171304047D01*
X68616428Y-171327857D01*
X68664047Y-171327857D01*
X68735476Y-171304047D01*
X69021190Y-171018333D01*
X69021190Y-171327857D01*
D11*
X180897380Y-108268333D02*
X180897380Y-107696904D01*
X180897380Y-107982619D02*
X179897380Y-107982619D01*
X180040238Y-107887380D01*
X180135476Y-107792142D01*
X180183095Y-107696904D01*
X179897380Y-108887380D02*
X179897380Y-108982619D01*
X179945000Y-109077857D01*
X179992619Y-109125476D01*
X180087857Y-109173095D01*
X180278333Y-109220714D01*
X180516428Y-109220714D01*
X180706904Y-109173095D01*
X180802142Y-109125476D01*
X180849761Y-109077857D01*
X180897380Y-108982619D01*
X180897380Y-108887380D01*
X180849761Y-108792142D01*
X180802142Y-108744523D01*
X180706904Y-108696904D01*
X180516428Y-108649285D01*
X180278333Y-108649285D01*
X180087857Y-108696904D01*
X179992619Y-108744523D01*
X179945000Y-108792142D01*
X179897380Y-108887380D01*
X179897380Y-109839761D02*
X179897380Y-109935000D01*
X179945000Y-110030238D01*
X179992619Y-110077857D01*
X180087857Y-110125476D01*
X180278333Y-110173095D01*
X180516428Y-110173095D01*
X180706904Y-110125476D01*
X180802142Y-110077857D01*
X180849761Y-110030238D01*
X180897380Y-109935000D01*
X180897380Y-109839761D01*
X180849761Y-109744523D01*
X180802142Y-109696904D01*
X180706904Y-109649285D01*
X180516428Y-109601666D01*
X180278333Y-109601666D01*
X180087857Y-109649285D01*
X179992619Y-109696904D01*
X179945000Y-109744523D01*
X179897380Y-109839761D01*
D12*
X179021190Y-108851666D02*
X178783095Y-108685000D01*
X179021190Y-108565952D02*
X178521190Y-108565952D01*
X178521190Y-108756428D01*
X178545000Y-108804047D01*
X178568809Y-108827857D01*
X178616428Y-108851666D01*
X178687857Y-108851666D01*
X178735476Y-108827857D01*
X178759285Y-108804047D01*
X178783095Y-108756428D01*
X178783095Y-108565952D01*
X178568809Y-109042142D02*
X178545000Y-109065952D01*
X178521190Y-109113571D01*
X178521190Y-109232619D01*
X178545000Y-109280238D01*
X178568809Y-109304047D01*
X178616428Y-109327857D01*
X178664047Y-109327857D01*
X178735476Y-109304047D01*
X179021190Y-109018333D01*
X179021190Y-109327857D01*
D11*
X70897380Y-108268333D02*
X70897380Y-107696904D01*
X70897380Y-107982619D02*
X69897380Y-107982619D01*
X70040238Y-107887380D01*
X70135476Y-107792142D01*
X70183095Y-107696904D01*
X69897380Y-108887380D02*
X69897380Y-108982619D01*
X69945000Y-109077857D01*
X69992619Y-109125476D01*
X70087857Y-109173095D01*
X70278333Y-109220714D01*
X70516428Y-109220714D01*
X70706904Y-109173095D01*
X70802142Y-109125476D01*
X70849761Y-109077857D01*
X70897380Y-108982619D01*
X70897380Y-108887380D01*
X70849761Y-108792142D01*
X70802142Y-108744523D01*
X70706904Y-108696904D01*
X70516428Y-108649285D01*
X70278333Y-108649285D01*
X70087857Y-108696904D01*
X69992619Y-108744523D01*
X69945000Y-108792142D01*
X69897380Y-108887380D01*
X69897380Y-109839761D02*
X69897380Y-109935000D01*
X69945000Y-110030238D01*
X69992619Y-110077857D01*
X70087857Y-110125476D01*
X70278333Y-110173095D01*
X70516428Y-110173095D01*
X70706904Y-110125476D01*
X70802142Y-110077857D01*
X70849761Y-110030238D01*
X70897380Y-109935000D01*
X70897380Y-109839761D01*
X70849761Y-109744523D01*
X70802142Y-109696904D01*
X70706904Y-109649285D01*
X70516428Y-109601666D01*
X70278333Y-109601666D01*
X70087857Y-109649285D01*
X69992619Y-109696904D01*
X69945000Y-109744523D01*
X69897380Y-109839761D01*
D12*
X69021190Y-108851666D02*
X68783095Y-108685000D01*
X69021190Y-108565952D02*
X68521190Y-108565952D01*
X68521190Y-108756428D01*
X68545000Y-108804047D01*
X68568809Y-108827857D01*
X68616428Y-108851666D01*
X68687857Y-108851666D01*
X68735476Y-108827857D01*
X68759285Y-108804047D01*
X68783095Y-108756428D01*
X68783095Y-108565952D01*
X68568809Y-109042142D02*
X68545000Y-109065952D01*
X68521190Y-109113571D01*
X68521190Y-109232619D01*
X68545000Y-109280238D01*
X68568809Y-109304047D01*
X68616428Y-109327857D01*
X68664047Y-109327857D01*
X68735476Y-109304047D01*
X69021190Y-109018333D01*
X69021190Y-109327857D01*
D11*
X180897380Y-46268333D02*
X180897380Y-45696904D01*
X180897380Y-45982619D02*
X179897380Y-45982619D01*
X180040238Y-45887380D01*
X180135476Y-45792142D01*
X180183095Y-45696904D01*
X179897380Y-46887380D02*
X179897380Y-46982619D01*
X179945000Y-47077857D01*
X179992619Y-47125476D01*
X180087857Y-47173095D01*
X180278333Y-47220714D01*
X180516428Y-47220714D01*
X180706904Y-47173095D01*
X180802142Y-47125476D01*
X180849761Y-47077857D01*
X180897380Y-46982619D01*
X180897380Y-46887380D01*
X180849761Y-46792142D01*
X180802142Y-46744523D01*
X180706904Y-46696904D01*
X180516428Y-46649285D01*
X180278333Y-46649285D01*
X180087857Y-46696904D01*
X179992619Y-46744523D01*
X179945000Y-46792142D01*
X179897380Y-46887380D01*
X179897380Y-47839761D02*
X179897380Y-47935000D01*
X179945000Y-48030238D01*
X179992619Y-48077857D01*
X180087857Y-48125476D01*
X180278333Y-48173095D01*
X180516428Y-48173095D01*
X180706904Y-48125476D01*
X180802142Y-48077857D01*
X180849761Y-48030238D01*
X180897380Y-47935000D01*
X180897380Y-47839761D01*
X180849761Y-47744523D01*
X180802142Y-47696904D01*
X180706904Y-47649285D01*
X180516428Y-47601666D01*
X180278333Y-47601666D01*
X180087857Y-47649285D01*
X179992619Y-47696904D01*
X179945000Y-47744523D01*
X179897380Y-47839761D01*
D12*
X179021190Y-46851666D02*
X178783095Y-46685000D01*
X179021190Y-46565952D02*
X178521190Y-46565952D01*
X178521190Y-46756428D01*
X178545000Y-46804047D01*
X178568809Y-46827857D01*
X178616428Y-46851666D01*
X178687857Y-46851666D01*
X178735476Y-46827857D01*
X178759285Y-46804047D01*
X178783095Y-46756428D01*
X178783095Y-46565952D01*
X178568809Y-47042142D02*
X178545000Y-47065952D01*
X178521190Y-47113571D01*
X178521190Y-47232619D01*
X178545000Y-47280238D01*
X178568809Y-47304047D01*
X178616428Y-47327857D01*
X178664047Y-47327857D01*
X178735476Y-47304047D01*
X179021190Y-47018333D01*
X179021190Y-47327857D01*
D11*
X177002380Y-183783333D02*
X177002380Y-183211904D01*
X177002380Y-183497619D02*
X176002380Y-183497619D01*
X176145238Y-183402380D01*
X176240476Y-183307142D01*
X176288095Y-183211904D01*
X176002380Y-184402380D02*
X176002380Y-184497619D01*
X176050000Y-184592857D01*
X176097619Y-184640476D01*
X176192857Y-184688095D01*
X176383333Y-184735714D01*
X176621428Y-184735714D01*
X176811904Y-184688095D01*
X176907142Y-184640476D01*
X176954761Y-184592857D01*
X177002380Y-184497619D01*
X177002380Y-184402380D01*
X176954761Y-184307142D01*
X176907142Y-184259523D01*
X176811904Y-184211904D01*
X176621428Y-184164285D01*
X176383333Y-184164285D01*
X176192857Y-184211904D01*
X176097619Y-184259523D01*
X176050000Y-184307142D01*
X176002380Y-184402380D01*
X176002380Y-185354761D02*
X176002380Y-185450000D01*
X176050000Y-185545238D01*
X176097619Y-185592857D01*
X176192857Y-185640476D01*
X176383333Y-185688095D01*
X176621428Y-185688095D01*
X176811904Y-185640476D01*
X176907142Y-185592857D01*
X176954761Y-185545238D01*
X177002380Y-185450000D01*
X177002380Y-185354761D01*
X176954761Y-185259523D01*
X176907142Y-185211904D01*
X176811904Y-185164285D01*
X176621428Y-185116666D01*
X176383333Y-185116666D01*
X176192857Y-185164285D01*
X176097619Y-185211904D01*
X176050000Y-185259523D01*
X176002380Y-185354761D01*
X177002380Y-186116666D02*
X176002380Y-186116666D01*
X177002380Y-186688095D02*
X176430952Y-186259523D01*
X176002380Y-186688095D02*
X176573809Y-186116666D01*
D12*
X178426190Y-184866666D02*
X178188095Y-184700000D01*
X178426190Y-184580952D02*
X177926190Y-184580952D01*
X177926190Y-184771428D01*
X177950000Y-184819047D01*
X177973809Y-184842857D01*
X178021428Y-184866666D01*
X178092857Y-184866666D01*
X178140476Y-184842857D01*
X178164285Y-184819047D01*
X178188095Y-184771428D01*
X178188095Y-184580952D01*
X178092857Y-185295238D02*
X178426190Y-185295238D01*
X177902380Y-185176190D02*
X178259523Y-185057142D01*
X178259523Y-185366666D01*
D11*
X67002380Y-183783333D02*
X67002380Y-183211904D01*
X67002380Y-183497619D02*
X66002380Y-183497619D01*
X66145238Y-183402380D01*
X66240476Y-183307142D01*
X66288095Y-183211904D01*
X66002380Y-184402380D02*
X66002380Y-184497619D01*
X66050000Y-184592857D01*
X66097619Y-184640476D01*
X66192857Y-184688095D01*
X66383333Y-184735714D01*
X66621428Y-184735714D01*
X66811904Y-184688095D01*
X66907142Y-184640476D01*
X66954761Y-184592857D01*
X67002380Y-184497619D01*
X67002380Y-184402380D01*
X66954761Y-184307142D01*
X66907142Y-184259523D01*
X66811904Y-184211904D01*
X66621428Y-184164285D01*
X66383333Y-184164285D01*
X66192857Y-184211904D01*
X66097619Y-184259523D01*
X66050000Y-184307142D01*
X66002380Y-184402380D01*
X66002380Y-185354761D02*
X66002380Y-185450000D01*
X66050000Y-185545238D01*
X66097619Y-185592857D01*
X66192857Y-185640476D01*
X66383333Y-185688095D01*
X66621428Y-185688095D01*
X66811904Y-185640476D01*
X66907142Y-185592857D01*
X66954761Y-185545238D01*
X67002380Y-185450000D01*
X67002380Y-185354761D01*
X66954761Y-185259523D01*
X66907142Y-185211904D01*
X66811904Y-185164285D01*
X66621428Y-185116666D01*
X66383333Y-185116666D01*
X66192857Y-185164285D01*
X66097619Y-185211904D01*
X66050000Y-185259523D01*
X66002380Y-185354761D01*
X67002380Y-186116666D02*
X66002380Y-186116666D01*
X67002380Y-186688095D02*
X66430952Y-186259523D01*
X66002380Y-186688095D02*
X66573809Y-186116666D01*
D12*
X68426190Y-184866666D02*
X68188095Y-184700000D01*
X68426190Y-184580952D02*
X67926190Y-184580952D01*
X67926190Y-184771428D01*
X67950000Y-184819047D01*
X67973809Y-184842857D01*
X68021428Y-184866666D01*
X68092857Y-184866666D01*
X68140476Y-184842857D01*
X68164285Y-184819047D01*
X68188095Y-184771428D01*
X68188095Y-184580952D01*
X68092857Y-185295238D02*
X68426190Y-185295238D01*
X67902380Y-185176190D02*
X68259523Y-185057142D01*
X68259523Y-185366666D01*
D11*
X177002380Y-121783333D02*
X177002380Y-121211904D01*
X177002380Y-121497619D02*
X176002380Y-121497619D01*
X176145238Y-121402380D01*
X176240476Y-121307142D01*
X176288095Y-121211904D01*
X176002380Y-122402380D02*
X176002380Y-122497619D01*
X176050000Y-122592857D01*
X176097619Y-122640476D01*
X176192857Y-122688095D01*
X176383333Y-122735714D01*
X176621428Y-122735714D01*
X176811904Y-122688095D01*
X176907142Y-122640476D01*
X176954761Y-122592857D01*
X177002380Y-122497619D01*
X177002380Y-122402380D01*
X176954761Y-122307142D01*
X176907142Y-122259523D01*
X176811904Y-122211904D01*
X176621428Y-122164285D01*
X176383333Y-122164285D01*
X176192857Y-122211904D01*
X176097619Y-122259523D01*
X176050000Y-122307142D01*
X176002380Y-122402380D01*
X176002380Y-123354761D02*
X176002380Y-123450000D01*
X176050000Y-123545238D01*
X176097619Y-123592857D01*
X176192857Y-123640476D01*
X176383333Y-123688095D01*
X176621428Y-123688095D01*
X176811904Y-123640476D01*
X176907142Y-123592857D01*
X176954761Y-123545238D01*
X177002380Y-123450000D01*
X177002380Y-123354761D01*
X176954761Y-123259523D01*
X176907142Y-123211904D01*
X176811904Y-123164285D01*
X176621428Y-123116666D01*
X176383333Y-123116666D01*
X176192857Y-123164285D01*
X176097619Y-123211904D01*
X176050000Y-123259523D01*
X176002380Y-123354761D01*
X177002380Y-124116666D02*
X176002380Y-124116666D01*
X177002380Y-124688095D02*
X176430952Y-124259523D01*
X176002380Y-124688095D02*
X176573809Y-124116666D01*
D12*
X178426190Y-122866666D02*
X178188095Y-122700000D01*
X178426190Y-122580952D02*
X177926190Y-122580952D01*
X177926190Y-122771428D01*
X177950000Y-122819047D01*
X177973809Y-122842857D01*
X178021428Y-122866666D01*
X178092857Y-122866666D01*
X178140476Y-122842857D01*
X178164285Y-122819047D01*
X178188095Y-122771428D01*
X178188095Y-122580952D01*
X178092857Y-123295238D02*
X178426190Y-123295238D01*
X177902380Y-123176190D02*
X178259523Y-123057142D01*
X178259523Y-123366666D01*
D11*
X67002380Y-121783333D02*
X67002380Y-121211904D01*
X67002380Y-121497619D02*
X66002380Y-121497619D01*
X66145238Y-121402380D01*
X66240476Y-121307142D01*
X66288095Y-121211904D01*
X66002380Y-122402380D02*
X66002380Y-122497619D01*
X66050000Y-122592857D01*
X66097619Y-122640476D01*
X66192857Y-122688095D01*
X66383333Y-122735714D01*
X66621428Y-122735714D01*
X66811904Y-122688095D01*
X66907142Y-122640476D01*
X66954761Y-122592857D01*
X67002380Y-122497619D01*
X67002380Y-122402380D01*
X66954761Y-122307142D01*
X66907142Y-122259523D01*
X66811904Y-122211904D01*
X66621428Y-122164285D01*
X66383333Y-122164285D01*
X66192857Y-122211904D01*
X66097619Y-122259523D01*
X66050000Y-122307142D01*
X66002380Y-122402380D01*
X66002380Y-123354761D02*
X66002380Y-123450000D01*
X66050000Y-123545238D01*
X66097619Y-123592857D01*
X66192857Y-123640476D01*
X66383333Y-123688095D01*
X66621428Y-123688095D01*
X66811904Y-123640476D01*
X66907142Y-123592857D01*
X66954761Y-123545238D01*
X67002380Y-123450000D01*
X67002380Y-123354761D01*
X66954761Y-123259523D01*
X66907142Y-123211904D01*
X66811904Y-123164285D01*
X66621428Y-123116666D01*
X66383333Y-123116666D01*
X66192857Y-123164285D01*
X66097619Y-123211904D01*
X66050000Y-123259523D01*
X66002380Y-123354761D01*
X67002380Y-124116666D02*
X66002380Y-124116666D01*
X67002380Y-124688095D02*
X66430952Y-124259523D01*
X66002380Y-124688095D02*
X66573809Y-124116666D01*
D12*
X68426190Y-122866666D02*
X68188095Y-122700000D01*
X68426190Y-122580952D02*
X67926190Y-122580952D01*
X67926190Y-122771428D01*
X67950000Y-122819047D01*
X67973809Y-122842857D01*
X68021428Y-122866666D01*
X68092857Y-122866666D01*
X68140476Y-122842857D01*
X68164285Y-122819047D01*
X68188095Y-122771428D01*
X68188095Y-122580952D01*
X68092857Y-123295238D02*
X68426190Y-123295238D01*
X67902380Y-123176190D02*
X68259523Y-123057142D01*
X68259523Y-123366666D01*
D11*
X177002380Y-59783333D02*
X177002380Y-59211904D01*
X177002380Y-59497619D02*
X176002380Y-59497619D01*
X176145238Y-59402380D01*
X176240476Y-59307142D01*
X176288095Y-59211904D01*
X176002380Y-60402380D02*
X176002380Y-60497619D01*
X176050000Y-60592857D01*
X176097619Y-60640476D01*
X176192857Y-60688095D01*
X176383333Y-60735714D01*
X176621428Y-60735714D01*
X176811904Y-60688095D01*
X176907142Y-60640476D01*
X176954761Y-60592857D01*
X177002380Y-60497619D01*
X177002380Y-60402380D01*
X176954761Y-60307142D01*
X176907142Y-60259523D01*
X176811904Y-60211904D01*
X176621428Y-60164285D01*
X176383333Y-60164285D01*
X176192857Y-60211904D01*
X176097619Y-60259523D01*
X176050000Y-60307142D01*
X176002380Y-60402380D01*
X176002380Y-61354761D02*
X176002380Y-61450000D01*
X176050000Y-61545238D01*
X176097619Y-61592857D01*
X176192857Y-61640476D01*
X176383333Y-61688095D01*
X176621428Y-61688095D01*
X176811904Y-61640476D01*
X176907142Y-61592857D01*
X176954761Y-61545238D01*
X177002380Y-61450000D01*
X177002380Y-61354761D01*
X176954761Y-61259523D01*
X176907142Y-61211904D01*
X176811904Y-61164285D01*
X176621428Y-61116666D01*
X176383333Y-61116666D01*
X176192857Y-61164285D01*
X176097619Y-61211904D01*
X176050000Y-61259523D01*
X176002380Y-61354761D01*
X177002380Y-62116666D02*
X176002380Y-62116666D01*
X177002380Y-62688095D02*
X176430952Y-62259523D01*
X176002380Y-62688095D02*
X176573809Y-62116666D01*
D12*
X178426190Y-60866666D02*
X178188095Y-60700000D01*
X178426190Y-60580952D02*
X177926190Y-60580952D01*
X177926190Y-60771428D01*
X177950000Y-60819047D01*
X177973809Y-60842857D01*
X178021428Y-60866666D01*
X178092857Y-60866666D01*
X178140476Y-60842857D01*
X178164285Y-60819047D01*
X178188095Y-60771428D01*
X178188095Y-60580952D01*
X178092857Y-61295238D02*
X178426190Y-61295238D01*
X177902380Y-61176190D02*
X178259523Y-61057142D01*
X178259523Y-61366666D01*
D11*
X67002380Y-59783333D02*
X67002380Y-59211904D01*
X67002380Y-59497619D02*
X66002380Y-59497619D01*
X66145238Y-59402380D01*
X66240476Y-59307142D01*
X66288095Y-59211904D01*
X66002380Y-60402380D02*
X66002380Y-60497619D01*
X66050000Y-60592857D01*
X66097619Y-60640476D01*
X66192857Y-60688095D01*
X66383333Y-60735714D01*
X66621428Y-60735714D01*
X66811904Y-60688095D01*
X66907142Y-60640476D01*
X66954761Y-60592857D01*
X67002380Y-60497619D01*
X67002380Y-60402380D01*
X66954761Y-60307142D01*
X66907142Y-60259523D01*
X66811904Y-60211904D01*
X66621428Y-60164285D01*
X66383333Y-60164285D01*
X66192857Y-60211904D01*
X66097619Y-60259523D01*
X66050000Y-60307142D01*
X66002380Y-60402380D01*
X66002380Y-61354761D02*
X66002380Y-61450000D01*
X66050000Y-61545238D01*
X66097619Y-61592857D01*
X66192857Y-61640476D01*
X66383333Y-61688095D01*
X66621428Y-61688095D01*
X66811904Y-61640476D01*
X66907142Y-61592857D01*
X66954761Y-61545238D01*
X67002380Y-61450000D01*
X67002380Y-61354761D01*
X66954761Y-61259523D01*
X66907142Y-61211904D01*
X66811904Y-61164285D01*
X66621428Y-61116666D01*
X66383333Y-61116666D01*
X66192857Y-61164285D01*
X66097619Y-61211904D01*
X66050000Y-61259523D01*
X66002380Y-61354761D01*
X67002380Y-62116666D02*
X66002380Y-62116666D01*
X67002380Y-62688095D02*
X66430952Y-62259523D01*
X66002380Y-62688095D02*
X66573809Y-62116666D01*
D12*
X68426190Y-60866666D02*
X68188095Y-60700000D01*
X68426190Y-60580952D02*
X67926190Y-60580952D01*
X67926190Y-60771428D01*
X67950000Y-60819047D01*
X67973809Y-60842857D01*
X68021428Y-60866666D01*
X68092857Y-60866666D01*
X68140476Y-60842857D01*
X68164285Y-60819047D01*
X68188095Y-60771428D01*
X68188095Y-60580952D01*
X68092857Y-61295238D02*
X68426190Y-61295238D01*
X67902380Y-61176190D02*
X68259523Y-61057142D01*
X68259523Y-61366666D01*
D11*
X85232619Y-38942142D02*
X85185000Y-38989761D01*
X85137380Y-39085000D01*
X85137380Y-39323095D01*
X85185000Y-39418333D01*
X85232619Y-39465952D01*
X85327857Y-39513571D01*
X85423095Y-39513571D01*
X85565952Y-39465952D01*
X86137380Y-38894523D01*
X86137380Y-39513571D01*
X85137380Y-39846904D02*
X85137380Y-40465952D01*
X85518333Y-40132619D01*
X85518333Y-40275476D01*
X85565952Y-40370714D01*
X85613571Y-40418333D01*
X85708809Y-40465952D01*
X85946904Y-40465952D01*
X86042142Y-40418333D01*
X86089761Y-40370714D01*
X86137380Y-40275476D01*
X86137380Y-39989761D01*
X86089761Y-39894523D01*
X86042142Y-39846904D01*
X85137380Y-41085000D02*
X85137380Y-41180238D01*
X85185000Y-41275476D01*
X85232619Y-41323095D01*
X85327857Y-41370714D01*
X85518333Y-41418333D01*
X85756428Y-41418333D01*
X85946904Y-41370714D01*
X86042142Y-41323095D01*
X86089761Y-41275476D01*
X86137380Y-41180238D01*
X86137380Y-41085000D01*
X86089761Y-40989761D01*
X86042142Y-40942142D01*
X85946904Y-40894523D01*
X85756428Y-40846904D01*
X85518333Y-40846904D01*
X85327857Y-40894523D01*
X85232619Y-40942142D01*
X85185000Y-40989761D01*
X85137380Y-41085000D01*
X86137380Y-41846904D02*
X85137380Y-41846904D01*
X85756428Y-41942142D02*
X86137380Y-42227857D01*
X85470714Y-42227857D02*
X85851666Y-41846904D01*
D12*
X84261190Y-39989761D02*
X84023095Y-39823095D01*
X84261190Y-39704047D02*
X83761190Y-39704047D01*
X83761190Y-39894523D01*
X83785000Y-39942142D01*
X83808809Y-39965952D01*
X83856428Y-39989761D01*
X83927857Y-39989761D01*
X83975476Y-39965952D01*
X83999285Y-39942142D01*
X84023095Y-39894523D01*
X84023095Y-39704047D01*
X83927857Y-40132619D02*
X83927857Y-40323095D01*
X84261190Y-40204047D02*
X83832619Y-40204047D01*
X83785000Y-40227857D01*
X83761190Y-40275476D01*
X83761190Y-40323095D01*
X84261190Y-40489761D02*
X83761190Y-40489761D01*
X83951666Y-40489761D02*
X83927857Y-40537380D01*
X83927857Y-40632619D01*
X83951666Y-40680238D01*
X83975476Y-40704047D01*
X84023095Y-40727857D01*
X84165952Y-40727857D01*
X84213571Y-40704047D01*
X84237380Y-40680238D01*
X84261190Y-40632619D01*
X84261190Y-40537380D01*
X84237380Y-40489761D01*
X83927857Y-40870714D02*
X83927857Y-41061190D01*
X83761190Y-40942142D02*
X84189761Y-40942142D01*
X84237380Y-40965952D01*
X84261190Y-41013571D01*
X84261190Y-41061190D01*
X83808809Y-41204047D02*
X83785000Y-41227857D01*
X83761190Y-41275476D01*
X83761190Y-41394523D01*
X83785000Y-41442142D01*
X83808809Y-41465952D01*
X83856428Y-41489761D01*
X83904047Y-41489761D01*
X83975476Y-41465952D01*
X84261190Y-41180238D01*
X84261190Y-41489761D01*
D11*
X83535952Y-44053809D02*
X83488333Y-43958571D01*
X83440714Y-43910952D01*
X83345476Y-43863333D01*
X83297857Y-43863333D01*
X83202619Y-43910952D01*
X83155000Y-43958571D01*
X83107380Y-44053809D01*
X83107380Y-44244285D01*
X83155000Y-44339523D01*
X83202619Y-44387142D01*
X83297857Y-44434761D01*
X83345476Y-44434761D01*
X83440714Y-44387142D01*
X83488333Y-44339523D01*
X83535952Y-44244285D01*
X83535952Y-44053809D01*
X83583571Y-43958571D01*
X83631190Y-43910952D01*
X83726428Y-43863333D01*
X83916904Y-43863333D01*
X84012142Y-43910952D01*
X84059761Y-43958571D01*
X84107380Y-44053809D01*
X84107380Y-44244285D01*
X84059761Y-44339523D01*
X84012142Y-44387142D01*
X83916904Y-44434761D01*
X83726428Y-44434761D01*
X83631190Y-44387142D01*
X83583571Y-44339523D01*
X83535952Y-44244285D01*
X84107380Y-44863333D02*
X83107380Y-44863333D01*
X83726428Y-44958571D02*
X84107380Y-45244285D01*
X83440714Y-45244285D02*
X83821666Y-44863333D01*
X83202619Y-45625238D02*
X83155000Y-45672857D01*
X83107380Y-45768095D01*
X83107380Y-46006190D01*
X83155000Y-46101428D01*
X83202619Y-46149047D01*
X83297857Y-46196666D01*
X83393095Y-46196666D01*
X83535952Y-46149047D01*
X84107380Y-45577619D01*
X84107380Y-46196666D01*
D12*
X85531190Y-44351428D02*
X85293095Y-44184761D01*
X85531190Y-44065714D02*
X85031190Y-44065714D01*
X85031190Y-44256190D01*
X85055000Y-44303809D01*
X85078809Y-44327619D01*
X85126428Y-44351428D01*
X85197857Y-44351428D01*
X85245476Y-44327619D01*
X85269285Y-44303809D01*
X85293095Y-44256190D01*
X85293095Y-44065714D01*
X85197857Y-44494285D02*
X85197857Y-44684761D01*
X85531190Y-44565714D02*
X85102619Y-44565714D01*
X85055000Y-44589523D01*
X85031190Y-44637142D01*
X85031190Y-44684761D01*
X85531190Y-44851428D02*
X85031190Y-44851428D01*
X85221666Y-44851428D02*
X85197857Y-44899047D01*
X85197857Y-44994285D01*
X85221666Y-45041904D01*
X85245476Y-45065714D01*
X85293095Y-45089523D01*
X85435952Y-45089523D01*
X85483571Y-45065714D01*
X85507380Y-45041904D01*
X85531190Y-44994285D01*
X85531190Y-44899047D01*
X85507380Y-44851428D01*
X85531190Y-45303809D02*
X85031190Y-45303809D01*
X85221666Y-45303809D02*
X85197857Y-45351428D01*
X85197857Y-45446666D01*
X85221666Y-45494285D01*
X85245476Y-45518095D01*
X85293095Y-45541904D01*
X85435952Y-45541904D01*
X85483571Y-45518095D01*
X85507380Y-45494285D01*
X85531190Y-45446666D01*
X85531190Y-45351428D01*
X85507380Y-45303809D01*
X85531190Y-46018095D02*
X85531190Y-45732380D01*
X85531190Y-45875238D02*
X85031190Y-45875238D01*
X85102619Y-45827619D01*
X85150238Y-45780000D01*
X85174047Y-45732380D01*
D11*
X71407380Y-46220714D02*
X70407380Y-46220714D01*
X71407380Y-46792142D01*
X70407380Y-46792142D01*
X71121666Y-47220714D02*
X71121666Y-47696904D01*
X71407380Y-47125476D02*
X70407380Y-47458809D01*
X71407380Y-47792142D01*
D12*
X73581190Y-46851666D02*
X73343095Y-46685000D01*
X73581190Y-46565952D02*
X73081190Y-46565952D01*
X73081190Y-46756428D01*
X73105000Y-46804047D01*
X73128809Y-46827857D01*
X73176428Y-46851666D01*
X73247857Y-46851666D01*
X73295476Y-46827857D01*
X73319285Y-46804047D01*
X73343095Y-46756428D01*
X73343095Y-46565952D01*
X73081190Y-47280238D02*
X73081190Y-47185000D01*
X73105000Y-47137380D01*
X73128809Y-47113571D01*
X73200238Y-47065952D01*
X73295476Y-47042142D01*
X73485952Y-47042142D01*
X73533571Y-47065952D01*
X73557380Y-47089761D01*
X73581190Y-47137380D01*
X73581190Y-47232619D01*
X73557380Y-47280238D01*
X73533571Y-47304047D01*
X73485952Y-47327857D01*
X73366904Y-47327857D01*
X73319285Y-47304047D01*
X73295476Y-47280238D01*
X73271666Y-47232619D01*
X73271666Y-47137380D01*
X73295476Y-47089761D01*
X73319285Y-47065952D01*
X73366904Y-47042142D01*
D11*
X70897380Y-46268333D02*
X70897380Y-45696904D01*
X70897380Y-45982619D02*
X69897380Y-45982619D01*
X70040238Y-45887380D01*
X70135476Y-45792142D01*
X70183095Y-45696904D01*
X69897380Y-46887380D02*
X69897380Y-46982619D01*
X69945000Y-47077857D01*
X69992619Y-47125476D01*
X70087857Y-47173095D01*
X70278333Y-47220714D01*
X70516428Y-47220714D01*
X70706904Y-47173095D01*
X70802142Y-47125476D01*
X70849761Y-47077857D01*
X70897380Y-46982619D01*
X70897380Y-46887380D01*
X70849761Y-46792142D01*
X70802142Y-46744523D01*
X70706904Y-46696904D01*
X70516428Y-46649285D01*
X70278333Y-46649285D01*
X70087857Y-46696904D01*
X69992619Y-46744523D01*
X69945000Y-46792142D01*
X69897380Y-46887380D01*
X69897380Y-47839761D02*
X69897380Y-47935000D01*
X69945000Y-48030238D01*
X69992619Y-48077857D01*
X70087857Y-48125476D01*
X70278333Y-48173095D01*
X70516428Y-48173095D01*
X70706904Y-48125476D01*
X70802142Y-48077857D01*
X70849761Y-48030238D01*
X70897380Y-47935000D01*
X70897380Y-47839761D01*
X70849761Y-47744523D01*
X70802142Y-47696904D01*
X70706904Y-47649285D01*
X70516428Y-47601666D01*
X70278333Y-47601666D01*
X70087857Y-47649285D01*
X69992619Y-47696904D01*
X69945000Y-47744523D01*
X69897380Y-47839761D01*
D12*
X69021190Y-46851666D02*
X68783095Y-46685000D01*
X69021190Y-46565952D02*
X68521190Y-46565952D01*
X68521190Y-46756428D01*
X68545000Y-46804047D01*
X68568809Y-46827857D01*
X68616428Y-46851666D01*
X68687857Y-46851666D01*
X68735476Y-46827857D01*
X68759285Y-46804047D01*
X68783095Y-46756428D01*
X68783095Y-46565952D01*
X68568809Y-47042142D02*
X68545000Y-47065952D01*
X68521190Y-47113571D01*
X68521190Y-47232619D01*
X68545000Y-47280238D01*
X68568809Y-47304047D01*
X68616428Y-47327857D01*
X68664047Y-47327857D01*
X68735476Y-47304047D01*
X69021190Y-47018333D01*
X69021190Y-47327857D01*
D11*
X75804761Y-58954761D02*
X75661904Y-59002380D01*
X75423809Y-59002380D01*
X75328571Y-58954761D01*
X75280952Y-58907142D01*
X75233333Y-58811904D01*
X75233333Y-58716666D01*
X75280952Y-58621428D01*
X75328571Y-58573809D01*
X75423809Y-58526190D01*
X75614285Y-58478571D01*
X75709523Y-58430952D01*
X75757142Y-58383333D01*
X75804761Y-58288095D01*
X75804761Y-58192857D01*
X75757142Y-58097619D01*
X75709523Y-58050000D01*
X75614285Y-58002380D01*
X75376190Y-58002380D01*
X75233333Y-58050000D01*
X74804761Y-59002380D02*
X74804761Y-58335714D01*
X74804761Y-58002380D02*
X74852380Y-58050000D01*
X74804761Y-58097619D01*
X74757142Y-58050000D01*
X74804761Y-58002380D01*
X74804761Y-58097619D01*
X74376190Y-58097619D02*
X74328571Y-58050000D01*
X74233333Y-58002380D01*
X73995238Y-58002380D01*
X73900000Y-58050000D01*
X73852380Y-58097619D01*
X73804761Y-58192857D01*
X73804761Y-58288095D01*
X73852380Y-58430952D01*
X74423809Y-59002380D01*
X73804761Y-59002380D01*
X73471428Y-58002380D02*
X72852380Y-58002380D01*
X73185714Y-58383333D01*
X73042857Y-58383333D01*
X72947619Y-58430952D01*
X72900000Y-58478571D01*
X72852380Y-58573809D01*
X72852380Y-58811904D01*
X72900000Y-58907142D01*
X72947619Y-58954761D01*
X73042857Y-59002380D01*
X73328571Y-59002380D01*
X73423809Y-58954761D01*
X73471428Y-58907142D01*
X72233333Y-58002380D02*
X72138095Y-58002380D01*
X72042857Y-58050000D01*
X71995238Y-58097619D01*
X71947619Y-58192857D01*
X71900000Y-58383333D01*
X71900000Y-58621428D01*
X71947619Y-58811904D01*
X71995238Y-58907142D01*
X72042857Y-58954761D01*
X72138095Y-59002380D01*
X72233333Y-59002380D01*
X72328571Y-58954761D01*
X72376190Y-58907142D01*
X72423809Y-58811904D01*
X72471428Y-58621428D01*
X72471428Y-58383333D01*
X72423809Y-58192857D01*
X72376190Y-58097619D01*
X72328571Y-58050000D01*
X72233333Y-58002380D01*
X71328571Y-58430952D02*
X71423809Y-58383333D01*
X71471428Y-58335714D01*
X71519047Y-58240476D01*
X71519047Y-58192857D01*
X71471428Y-58097619D01*
X71423809Y-58050000D01*
X71328571Y-58002380D01*
X71138095Y-58002380D01*
X71042857Y-58050000D01*
X70995238Y-58097619D01*
X70947619Y-58192857D01*
X70947619Y-58240476D01*
X70995238Y-58335714D01*
X71042857Y-58383333D01*
X71138095Y-58430952D01*
X71328571Y-58430952D01*
X71423809Y-58478571D01*
X71471428Y-58526190D01*
X71519047Y-58621428D01*
X71519047Y-58811904D01*
X71471428Y-58907142D01*
X71423809Y-58954761D01*
X71328571Y-59002380D01*
X71138095Y-59002380D01*
X71042857Y-58954761D01*
X70995238Y-58907142D01*
X70947619Y-58811904D01*
X70947619Y-58621428D01*
X70995238Y-58526190D01*
X71042857Y-58478571D01*
X71138095Y-58430952D01*
X69947619Y-58907142D02*
X69995238Y-58954761D01*
X70138095Y-59002380D01*
X70233333Y-59002380D01*
X70376190Y-58954761D01*
X70471428Y-58859523D01*
X70519047Y-58764285D01*
X70566666Y-58573809D01*
X70566666Y-58430952D01*
X70519047Y-58240476D01*
X70471428Y-58145238D01*
X70376190Y-58050000D01*
X70233333Y-58002380D01*
X70138095Y-58002380D01*
X69995238Y-58050000D01*
X69947619Y-58097619D01*
X69519047Y-59002380D02*
X69519047Y-58002380D01*
X69280952Y-58002380D01*
X69138095Y-58050000D01*
X69042857Y-58145238D01*
X68995238Y-58240476D01*
X68947619Y-58430952D01*
X68947619Y-58573809D01*
X68995238Y-58764285D01*
X69042857Y-58859523D01*
X69138095Y-58954761D01*
X69280952Y-59002380D01*
X69519047Y-59002380D01*
X68566666Y-58954761D02*
X68423809Y-59002380D01*
X68185714Y-59002380D01*
X68090476Y-58954761D01*
X68042857Y-58907142D01*
X67995238Y-58811904D01*
X67995238Y-58716666D01*
X68042857Y-58621428D01*
X68090476Y-58573809D01*
X68185714Y-58526190D01*
X68376190Y-58478571D01*
X68471428Y-58430952D01*
X68519047Y-58383333D01*
X68566666Y-58288095D01*
X68566666Y-58192857D01*
X68519047Y-58097619D01*
X68471428Y-58050000D01*
X68376190Y-58002380D01*
X68138095Y-58002380D01*
X67995238Y-58050000D01*
D13*
X72173809Y-61002380D02*
X72150000Y-60954761D01*
X72102380Y-60907142D01*
X72030952Y-60835714D01*
X72007142Y-60788095D01*
X72007142Y-60740476D01*
X72126190Y-60764285D02*
X72102380Y-60716666D01*
X72054761Y-60669047D01*
X71959523Y-60645238D01*
X71792857Y-60645238D01*
X71697619Y-60669047D01*
X71650000Y-60716666D01*
X71626190Y-60764285D01*
X71626190Y-60859523D01*
X71650000Y-60907142D01*
X71697619Y-60954761D01*
X71792857Y-60978571D01*
X71959523Y-60978571D01*
X72054761Y-60954761D01*
X72102380Y-60907142D01*
X72126190Y-60859523D01*
X72126190Y-60764285D01*
X72126190Y-61454761D02*
X72126190Y-61169047D01*
X72126190Y-61311904D02*
X71626190Y-61311904D01*
X71697619Y-61264285D01*
X71745238Y-61216666D01*
X71769047Y-61169047D01*
D11*
X104867380Y-41225714D02*
X104867380Y-41320952D01*
X104915000Y-41416190D01*
X104962619Y-41463809D01*
X105057857Y-41511428D01*
X105248333Y-41559047D01*
X105486428Y-41559047D01*
X105676904Y-41511428D01*
X105772142Y-41463809D01*
X105819761Y-41416190D01*
X105867380Y-41320952D01*
X105867380Y-41225714D01*
X105819761Y-41130476D01*
X105772142Y-41082857D01*
X105676904Y-41035238D01*
X105486428Y-40987619D01*
X105248333Y-40987619D01*
X105057857Y-41035238D01*
X104962619Y-41082857D01*
X104915000Y-41130476D01*
X104867380Y-41225714D01*
X105772142Y-41987619D02*
X105819761Y-42035238D01*
X105867380Y-41987619D01*
X105819761Y-41940000D01*
X105772142Y-41987619D01*
X105867380Y-41987619D01*
X105867380Y-42987619D02*
X105867380Y-42416190D01*
X105867380Y-42701904D02*
X104867380Y-42701904D01*
X105010238Y-42606666D01*
X105105476Y-42511428D01*
X105153095Y-42416190D01*
X105200714Y-43844761D02*
X105867380Y-43844761D01*
X105200714Y-43416190D02*
X105724523Y-43416190D01*
X105819761Y-43463809D01*
X105867380Y-43559047D01*
X105867380Y-43701904D01*
X105819761Y-43797142D01*
X105772142Y-43844761D01*
D12*
X104553571Y-42130476D02*
X104577380Y-42106666D01*
X104601190Y-42035238D01*
X104601190Y-41987619D01*
X104577380Y-41916190D01*
X104529761Y-41868571D01*
X104482142Y-41844761D01*
X104386904Y-41820952D01*
X104315476Y-41820952D01*
X104220238Y-41844761D01*
X104172619Y-41868571D01*
X104125000Y-41916190D01*
X104101190Y-41987619D01*
X104101190Y-42035238D01*
X104125000Y-42106666D01*
X104148809Y-42130476D01*
X104601190Y-42416190D02*
X104577380Y-42368571D01*
X104553571Y-42344761D01*
X104505952Y-42320952D01*
X104363095Y-42320952D01*
X104315476Y-42344761D01*
X104291666Y-42368571D01*
X104267857Y-42416190D01*
X104267857Y-42487619D01*
X104291666Y-42535238D01*
X104315476Y-42559047D01*
X104363095Y-42582857D01*
X104505952Y-42582857D01*
X104553571Y-42559047D01*
X104577380Y-42535238D01*
X104601190Y-42487619D01*
X104601190Y-42416190D01*
X104267857Y-43011428D02*
X104601190Y-43011428D01*
X104077380Y-42892380D02*
X104434523Y-42773333D01*
X104434523Y-43082857D01*
D11*
X109677380Y-41201904D02*
X109629761Y-41106666D01*
X109582142Y-41059047D01*
X109486904Y-41011428D01*
X109201190Y-41011428D01*
X109105952Y-41059047D01*
X109058333Y-41106666D01*
X109010714Y-41201904D01*
X109010714Y-41344761D01*
X109058333Y-41440000D01*
X109105952Y-41487619D01*
X109201190Y-41535238D01*
X109486904Y-41535238D01*
X109582142Y-41487619D01*
X109629761Y-41440000D01*
X109677380Y-41344761D01*
X109677380Y-41201904D01*
X109582142Y-41963809D02*
X109629761Y-42011428D01*
X109677380Y-41963809D01*
X109629761Y-41916190D01*
X109582142Y-41963809D01*
X109677380Y-41963809D01*
X109677380Y-42963809D02*
X109677380Y-42392380D01*
X109677380Y-42678095D02*
X108677380Y-42678095D01*
X108820238Y-42582857D01*
X108915476Y-42487619D01*
X108963095Y-42392380D01*
X109010714Y-43820952D02*
X109677380Y-43820952D01*
X109010714Y-43392380D02*
X109534523Y-43392380D01*
X109629761Y-43440000D01*
X109677380Y-43535238D01*
X109677380Y-43678095D01*
X109629761Y-43773333D01*
X109582142Y-43820952D01*
D12*
X107753571Y-42130476D02*
X107777380Y-42106666D01*
X107801190Y-42035238D01*
X107801190Y-41987619D01*
X107777380Y-41916190D01*
X107729761Y-41868571D01*
X107682142Y-41844761D01*
X107586904Y-41820952D01*
X107515476Y-41820952D01*
X107420238Y-41844761D01*
X107372619Y-41868571D01*
X107325000Y-41916190D01*
X107301190Y-41987619D01*
X107301190Y-42035238D01*
X107325000Y-42106666D01*
X107348809Y-42130476D01*
X107801190Y-42416190D02*
X107777380Y-42368571D01*
X107753571Y-42344761D01*
X107705952Y-42320952D01*
X107563095Y-42320952D01*
X107515476Y-42344761D01*
X107491666Y-42368571D01*
X107467857Y-42416190D01*
X107467857Y-42487619D01*
X107491666Y-42535238D01*
X107515476Y-42559047D01*
X107563095Y-42582857D01*
X107705952Y-42582857D01*
X107753571Y-42559047D01*
X107777380Y-42535238D01*
X107801190Y-42487619D01*
X107801190Y-42416190D01*
X107301190Y-42749523D02*
X107301190Y-43059047D01*
X107491666Y-42892380D01*
X107491666Y-42963809D01*
X107515476Y-43011428D01*
X107539285Y-43035238D01*
X107586904Y-43059047D01*
X107705952Y-43059047D01*
X107753571Y-43035238D01*
X107777380Y-43011428D01*
X107801190Y-42963809D01*
X107801190Y-42820952D01*
X107777380Y-42773333D01*
X107753571Y-42749523D01*
D11*
X68992380Y-54912380D02*
X68992380Y-54340952D01*
X68992380Y-54626666D02*
X67992380Y-54626666D01*
X68135238Y-54531428D01*
X68230476Y-54436190D01*
X68278095Y-54340952D01*
X67992380Y-55531428D02*
X67992380Y-55626666D01*
X68040000Y-55721904D01*
X68087619Y-55769523D01*
X68182857Y-55817142D01*
X68373333Y-55864761D01*
X68611428Y-55864761D01*
X68801904Y-55817142D01*
X68897142Y-55769523D01*
X68944761Y-55721904D01*
X68992380Y-55626666D01*
X68992380Y-55531428D01*
X68944761Y-55436190D01*
X68897142Y-55388571D01*
X68801904Y-55340952D01*
X68611428Y-55293333D01*
X68373333Y-55293333D01*
X68182857Y-55340952D01*
X68087619Y-55388571D01*
X68040000Y-55436190D01*
X67992380Y-55531428D01*
X67992380Y-56483809D02*
X67992380Y-56579047D01*
X68040000Y-56674285D01*
X68087619Y-56721904D01*
X68182857Y-56769523D01*
X68373333Y-56817142D01*
X68611428Y-56817142D01*
X68801904Y-56769523D01*
X68897142Y-56721904D01*
X68944761Y-56674285D01*
X68992380Y-56579047D01*
X68992380Y-56483809D01*
X68944761Y-56388571D01*
X68897142Y-56340952D01*
X68801904Y-56293333D01*
X68611428Y-56245714D01*
X68373333Y-56245714D01*
X68182857Y-56293333D01*
X68087619Y-56340952D01*
X68040000Y-56388571D01*
X67992380Y-56483809D01*
X68325714Y-57245714D02*
X68992380Y-57245714D01*
X68420952Y-57245714D02*
X68373333Y-57293333D01*
X68325714Y-57388571D01*
X68325714Y-57531428D01*
X68373333Y-57626666D01*
X68468571Y-57674285D01*
X68992380Y-57674285D01*
X68468571Y-58483809D02*
X68468571Y-58150476D01*
X68992380Y-58150476D02*
X67992380Y-58150476D01*
X67992380Y-58626666D01*
D12*
X67068571Y-56031428D02*
X67092380Y-56007619D01*
X67116190Y-55936190D01*
X67116190Y-55888571D01*
X67092380Y-55817142D01*
X67044761Y-55769523D01*
X66997142Y-55745714D01*
X66901904Y-55721904D01*
X66830476Y-55721904D01*
X66735238Y-55745714D01*
X66687619Y-55769523D01*
X66640000Y-55817142D01*
X66616190Y-55888571D01*
X66616190Y-55936190D01*
X66640000Y-56007619D01*
X66663809Y-56031428D01*
X67116190Y-56245714D02*
X66782857Y-56245714D01*
X66616190Y-56245714D02*
X66640000Y-56221904D01*
X66663809Y-56245714D01*
X66640000Y-56269523D01*
X66616190Y-56245714D01*
X66663809Y-56245714D01*
X66782857Y-56483809D02*
X67116190Y-56483809D01*
X66830476Y-56483809D02*
X66806666Y-56507619D01*
X66782857Y-56555238D01*
X66782857Y-56626666D01*
X66806666Y-56674285D01*
X66854285Y-56698095D01*
X67116190Y-56698095D01*
X66616190Y-56888571D02*
X66616190Y-57198095D01*
X66806666Y-57031428D01*
X66806666Y-57102857D01*
X66830476Y-57150476D01*
X66854285Y-57174285D01*
X66901904Y-57198095D01*
X67020952Y-57198095D01*
X67068571Y-57174285D01*
X67092380Y-57150476D01*
X67116190Y-57102857D01*
X67116190Y-56960000D01*
X67092380Y-56912380D01*
X67068571Y-56888571D01*
D11*
X69882380Y-54912380D02*
X69882380Y-54340952D01*
X69882380Y-54626666D02*
X68882380Y-54626666D01*
X69025238Y-54531428D01*
X69120476Y-54436190D01*
X69168095Y-54340952D01*
X68882380Y-55531428D02*
X68882380Y-55626666D01*
X68930000Y-55721904D01*
X68977619Y-55769523D01*
X69072857Y-55817142D01*
X69263333Y-55864761D01*
X69501428Y-55864761D01*
X69691904Y-55817142D01*
X69787142Y-55769523D01*
X69834761Y-55721904D01*
X69882380Y-55626666D01*
X69882380Y-55531428D01*
X69834761Y-55436190D01*
X69787142Y-55388571D01*
X69691904Y-55340952D01*
X69501428Y-55293333D01*
X69263333Y-55293333D01*
X69072857Y-55340952D01*
X68977619Y-55388571D01*
X68930000Y-55436190D01*
X68882380Y-55531428D01*
X68882380Y-56483809D02*
X68882380Y-56579047D01*
X68930000Y-56674285D01*
X68977619Y-56721904D01*
X69072857Y-56769523D01*
X69263333Y-56817142D01*
X69501428Y-56817142D01*
X69691904Y-56769523D01*
X69787142Y-56721904D01*
X69834761Y-56674285D01*
X69882380Y-56579047D01*
X69882380Y-56483809D01*
X69834761Y-56388571D01*
X69787142Y-56340952D01*
X69691904Y-56293333D01*
X69501428Y-56245714D01*
X69263333Y-56245714D01*
X69072857Y-56293333D01*
X68977619Y-56340952D01*
X68930000Y-56388571D01*
X68882380Y-56483809D01*
X69215714Y-57245714D02*
X69882380Y-57245714D01*
X69310952Y-57245714D02*
X69263333Y-57293333D01*
X69215714Y-57388571D01*
X69215714Y-57531428D01*
X69263333Y-57626666D01*
X69358571Y-57674285D01*
X69882380Y-57674285D01*
X69358571Y-58483809D02*
X69358571Y-58150476D01*
X69882380Y-58150476D02*
X68882380Y-58150476D01*
X68882380Y-58626666D01*
D12*
X69608571Y-56031428D02*
X69632380Y-56007619D01*
X69656190Y-55936190D01*
X69656190Y-55888571D01*
X69632380Y-55817142D01*
X69584761Y-55769523D01*
X69537142Y-55745714D01*
X69441904Y-55721904D01*
X69370476Y-55721904D01*
X69275238Y-55745714D01*
X69227619Y-55769523D01*
X69180000Y-55817142D01*
X69156190Y-55888571D01*
X69156190Y-55936190D01*
X69180000Y-56007619D01*
X69203809Y-56031428D01*
X69656190Y-56245714D02*
X69322857Y-56245714D01*
X69156190Y-56245714D02*
X69180000Y-56221904D01*
X69203809Y-56245714D01*
X69180000Y-56269523D01*
X69156190Y-56245714D01*
X69203809Y-56245714D01*
X69322857Y-56483809D02*
X69656190Y-56483809D01*
X69370476Y-56483809D02*
X69346666Y-56507619D01*
X69322857Y-56555238D01*
X69322857Y-56626666D01*
X69346666Y-56674285D01*
X69394285Y-56698095D01*
X69656190Y-56698095D01*
X69203809Y-56912380D02*
X69180000Y-56936190D01*
X69156190Y-56983809D01*
X69156190Y-57102857D01*
X69180000Y-57150476D01*
X69203809Y-57174285D01*
X69251428Y-57198095D01*
X69299047Y-57198095D01*
X69370476Y-57174285D01*
X69656190Y-56888571D01*
X69656190Y-57198095D01*
D11*
X88010714Y-39918333D02*
X88677380Y-39918333D01*
X88105952Y-39918333D02*
X88058333Y-39965952D01*
X88010714Y-40061190D01*
X88010714Y-40204047D01*
X88058333Y-40299285D01*
X88153571Y-40346904D01*
X88677380Y-40346904D01*
X88677380Y-41251666D02*
X88153571Y-41251666D01*
X88058333Y-41204047D01*
X88010714Y-41108809D01*
X88010714Y-40918333D01*
X88058333Y-40823095D01*
X88629761Y-41251666D02*
X88677380Y-41156428D01*
X88677380Y-40918333D01*
X88629761Y-40823095D01*
X88534523Y-40775476D01*
X88439285Y-40775476D01*
X88344047Y-40823095D01*
X88296428Y-40918333D01*
X88296428Y-41156428D01*
X88248809Y-41251666D01*
D12*
X86753571Y-40215952D02*
X86777380Y-40192142D01*
X86801190Y-40120714D01*
X86801190Y-40073095D01*
X86777380Y-40001666D01*
X86729761Y-39954047D01*
X86682142Y-39930238D01*
X86586904Y-39906428D01*
X86515476Y-39906428D01*
X86420238Y-39930238D01*
X86372619Y-39954047D01*
X86325000Y-40001666D01*
X86301190Y-40073095D01*
X86301190Y-40120714D01*
X86325000Y-40192142D01*
X86348809Y-40215952D01*
X86467857Y-40358809D02*
X86467857Y-40549285D01*
X86801190Y-40430238D02*
X86372619Y-40430238D01*
X86325000Y-40454047D01*
X86301190Y-40501666D01*
X86301190Y-40549285D01*
X86467857Y-40644523D02*
X86467857Y-40835000D01*
X86801190Y-40715952D02*
X86372619Y-40715952D01*
X86325000Y-40739761D01*
X86301190Y-40787380D01*
X86301190Y-40835000D01*
X86801190Y-41263571D02*
X86801190Y-40977857D01*
X86801190Y-41120714D02*
X86301190Y-41120714D01*
X86372619Y-41073095D01*
X86420238Y-41025476D01*
X86444047Y-40977857D01*
M02*
