G04 #@! TF.GenerationSoftware,KiCad,Pcbnew,5.1.4-e60b266~84~ubuntu18.04.1*
G04 #@! TF.CreationDate,2019-10-29T18:19:43-03:00*
G04 #@! TF.ProjectId,fonte_18V,666f6e74-655f-4313-9856-2e6b69636164,rev?*
G04 #@! TF.SameCoordinates,Original*
G04 #@! TF.FileFunction,Paste,Top*
G04 #@! TF.FilePolarity,Positive*
%FSLAX46Y46*%
G04 Gerber Fmt 4.6, Leading zero omitted, Abs format (unit mm)*
G04 Created by KiCad (PCBNEW 5.1.4-e60b266~84~ubuntu18.04.1) date 2019-10-29 18:19:43*
%MOMM*%
%LPD*%
G04 APERTURE LIST*
%ADD10C,0.100000*%
%ADD11C,0.600000*%
%ADD12C,0.890000*%
%ADD13C,1.150000*%
%ADD14R,4.000000X1.905000*%
%ADD15R,17.000000X12.000000*%
G04 APERTURE END LIST*
D10*
G36*
X125234703Y-159085722D02*
G01*
X125249264Y-159087882D01*
X125263543Y-159091459D01*
X125277403Y-159096418D01*
X125290710Y-159102712D01*
X125303336Y-159110280D01*
X125315159Y-159119048D01*
X125326066Y-159128934D01*
X125335952Y-159139841D01*
X125344720Y-159151664D01*
X125352288Y-159164290D01*
X125358582Y-159177597D01*
X125363541Y-159191457D01*
X125367118Y-159205736D01*
X125369278Y-159220297D01*
X125370000Y-159235000D01*
X125370000Y-159535000D01*
X125369278Y-159549703D01*
X125367118Y-159564264D01*
X125363541Y-159578543D01*
X125358582Y-159592403D01*
X125352288Y-159605710D01*
X125344720Y-159618336D01*
X125335952Y-159630159D01*
X125326066Y-159641066D01*
X125315159Y-159650952D01*
X125303336Y-159659720D01*
X125290710Y-159667288D01*
X125277403Y-159673582D01*
X125263543Y-159678541D01*
X125249264Y-159682118D01*
X125234703Y-159684278D01*
X125220000Y-159685000D01*
X123745000Y-159685000D01*
X123730297Y-159684278D01*
X123715736Y-159682118D01*
X123701457Y-159678541D01*
X123687597Y-159673582D01*
X123674290Y-159667288D01*
X123661664Y-159659720D01*
X123649841Y-159650952D01*
X123638934Y-159641066D01*
X123629048Y-159630159D01*
X123620280Y-159618336D01*
X123612712Y-159605710D01*
X123606418Y-159592403D01*
X123601459Y-159578543D01*
X123597882Y-159564264D01*
X123595722Y-159549703D01*
X123595000Y-159535000D01*
X123595000Y-159235000D01*
X123595722Y-159220297D01*
X123597882Y-159205736D01*
X123601459Y-159191457D01*
X123606418Y-159177597D01*
X123612712Y-159164290D01*
X123620280Y-159151664D01*
X123629048Y-159139841D01*
X123638934Y-159128934D01*
X123649841Y-159119048D01*
X123661664Y-159110280D01*
X123674290Y-159102712D01*
X123687597Y-159096418D01*
X123701457Y-159091459D01*
X123715736Y-159087882D01*
X123730297Y-159085722D01*
X123745000Y-159085000D01*
X125220000Y-159085000D01*
X125234703Y-159085722D01*
X125234703Y-159085722D01*
G37*
D11*
X124482500Y-159385000D03*
D10*
G36*
X125234703Y-160355722D02*
G01*
X125249264Y-160357882D01*
X125263543Y-160361459D01*
X125277403Y-160366418D01*
X125290710Y-160372712D01*
X125303336Y-160380280D01*
X125315159Y-160389048D01*
X125326066Y-160398934D01*
X125335952Y-160409841D01*
X125344720Y-160421664D01*
X125352288Y-160434290D01*
X125358582Y-160447597D01*
X125363541Y-160461457D01*
X125367118Y-160475736D01*
X125369278Y-160490297D01*
X125370000Y-160505000D01*
X125370000Y-160805000D01*
X125369278Y-160819703D01*
X125367118Y-160834264D01*
X125363541Y-160848543D01*
X125358582Y-160862403D01*
X125352288Y-160875710D01*
X125344720Y-160888336D01*
X125335952Y-160900159D01*
X125326066Y-160911066D01*
X125315159Y-160920952D01*
X125303336Y-160929720D01*
X125290710Y-160937288D01*
X125277403Y-160943582D01*
X125263543Y-160948541D01*
X125249264Y-160952118D01*
X125234703Y-160954278D01*
X125220000Y-160955000D01*
X123745000Y-160955000D01*
X123730297Y-160954278D01*
X123715736Y-160952118D01*
X123701457Y-160948541D01*
X123687597Y-160943582D01*
X123674290Y-160937288D01*
X123661664Y-160929720D01*
X123649841Y-160920952D01*
X123638934Y-160911066D01*
X123629048Y-160900159D01*
X123620280Y-160888336D01*
X123612712Y-160875710D01*
X123606418Y-160862403D01*
X123601459Y-160848543D01*
X123597882Y-160834264D01*
X123595722Y-160819703D01*
X123595000Y-160805000D01*
X123595000Y-160505000D01*
X123595722Y-160490297D01*
X123597882Y-160475736D01*
X123601459Y-160461457D01*
X123606418Y-160447597D01*
X123612712Y-160434290D01*
X123620280Y-160421664D01*
X123629048Y-160409841D01*
X123638934Y-160398934D01*
X123649841Y-160389048D01*
X123661664Y-160380280D01*
X123674290Y-160372712D01*
X123687597Y-160366418D01*
X123701457Y-160361459D01*
X123715736Y-160357882D01*
X123730297Y-160355722D01*
X123745000Y-160355000D01*
X125220000Y-160355000D01*
X125234703Y-160355722D01*
X125234703Y-160355722D01*
G37*
D11*
X124482500Y-160655000D03*
D10*
G36*
X125234703Y-161625722D02*
G01*
X125249264Y-161627882D01*
X125263543Y-161631459D01*
X125277403Y-161636418D01*
X125290710Y-161642712D01*
X125303336Y-161650280D01*
X125315159Y-161659048D01*
X125326066Y-161668934D01*
X125335952Y-161679841D01*
X125344720Y-161691664D01*
X125352288Y-161704290D01*
X125358582Y-161717597D01*
X125363541Y-161731457D01*
X125367118Y-161745736D01*
X125369278Y-161760297D01*
X125370000Y-161775000D01*
X125370000Y-162075000D01*
X125369278Y-162089703D01*
X125367118Y-162104264D01*
X125363541Y-162118543D01*
X125358582Y-162132403D01*
X125352288Y-162145710D01*
X125344720Y-162158336D01*
X125335952Y-162170159D01*
X125326066Y-162181066D01*
X125315159Y-162190952D01*
X125303336Y-162199720D01*
X125290710Y-162207288D01*
X125277403Y-162213582D01*
X125263543Y-162218541D01*
X125249264Y-162222118D01*
X125234703Y-162224278D01*
X125220000Y-162225000D01*
X123745000Y-162225000D01*
X123730297Y-162224278D01*
X123715736Y-162222118D01*
X123701457Y-162218541D01*
X123687597Y-162213582D01*
X123674290Y-162207288D01*
X123661664Y-162199720D01*
X123649841Y-162190952D01*
X123638934Y-162181066D01*
X123629048Y-162170159D01*
X123620280Y-162158336D01*
X123612712Y-162145710D01*
X123606418Y-162132403D01*
X123601459Y-162118543D01*
X123597882Y-162104264D01*
X123595722Y-162089703D01*
X123595000Y-162075000D01*
X123595000Y-161775000D01*
X123595722Y-161760297D01*
X123597882Y-161745736D01*
X123601459Y-161731457D01*
X123606418Y-161717597D01*
X123612712Y-161704290D01*
X123620280Y-161691664D01*
X123629048Y-161679841D01*
X123638934Y-161668934D01*
X123649841Y-161659048D01*
X123661664Y-161650280D01*
X123674290Y-161642712D01*
X123687597Y-161636418D01*
X123701457Y-161631459D01*
X123715736Y-161627882D01*
X123730297Y-161625722D01*
X123745000Y-161625000D01*
X125220000Y-161625000D01*
X125234703Y-161625722D01*
X125234703Y-161625722D01*
G37*
D11*
X124482500Y-161925000D03*
D10*
G36*
X125234703Y-162895722D02*
G01*
X125249264Y-162897882D01*
X125263543Y-162901459D01*
X125277403Y-162906418D01*
X125290710Y-162912712D01*
X125303336Y-162920280D01*
X125315159Y-162929048D01*
X125326066Y-162938934D01*
X125335952Y-162949841D01*
X125344720Y-162961664D01*
X125352288Y-162974290D01*
X125358582Y-162987597D01*
X125363541Y-163001457D01*
X125367118Y-163015736D01*
X125369278Y-163030297D01*
X125370000Y-163045000D01*
X125370000Y-163345000D01*
X125369278Y-163359703D01*
X125367118Y-163374264D01*
X125363541Y-163388543D01*
X125358582Y-163402403D01*
X125352288Y-163415710D01*
X125344720Y-163428336D01*
X125335952Y-163440159D01*
X125326066Y-163451066D01*
X125315159Y-163460952D01*
X125303336Y-163469720D01*
X125290710Y-163477288D01*
X125277403Y-163483582D01*
X125263543Y-163488541D01*
X125249264Y-163492118D01*
X125234703Y-163494278D01*
X125220000Y-163495000D01*
X123745000Y-163495000D01*
X123730297Y-163494278D01*
X123715736Y-163492118D01*
X123701457Y-163488541D01*
X123687597Y-163483582D01*
X123674290Y-163477288D01*
X123661664Y-163469720D01*
X123649841Y-163460952D01*
X123638934Y-163451066D01*
X123629048Y-163440159D01*
X123620280Y-163428336D01*
X123612712Y-163415710D01*
X123606418Y-163402403D01*
X123601459Y-163388543D01*
X123597882Y-163374264D01*
X123595722Y-163359703D01*
X123595000Y-163345000D01*
X123595000Y-163045000D01*
X123595722Y-163030297D01*
X123597882Y-163015736D01*
X123601459Y-163001457D01*
X123606418Y-162987597D01*
X123612712Y-162974290D01*
X123620280Y-162961664D01*
X123629048Y-162949841D01*
X123638934Y-162938934D01*
X123649841Y-162929048D01*
X123661664Y-162920280D01*
X123674290Y-162912712D01*
X123687597Y-162906418D01*
X123701457Y-162901459D01*
X123715736Y-162897882D01*
X123730297Y-162895722D01*
X123745000Y-162895000D01*
X125220000Y-162895000D01*
X125234703Y-162895722D01*
X125234703Y-162895722D01*
G37*
D11*
X124482500Y-163195000D03*
D10*
G36*
X120109703Y-162895722D02*
G01*
X120124264Y-162897882D01*
X120138543Y-162901459D01*
X120152403Y-162906418D01*
X120165710Y-162912712D01*
X120178336Y-162920280D01*
X120190159Y-162929048D01*
X120201066Y-162938934D01*
X120210952Y-162949841D01*
X120219720Y-162961664D01*
X120227288Y-162974290D01*
X120233582Y-162987597D01*
X120238541Y-163001457D01*
X120242118Y-163015736D01*
X120244278Y-163030297D01*
X120245000Y-163045000D01*
X120245000Y-163345000D01*
X120244278Y-163359703D01*
X120242118Y-163374264D01*
X120238541Y-163388543D01*
X120233582Y-163402403D01*
X120227288Y-163415710D01*
X120219720Y-163428336D01*
X120210952Y-163440159D01*
X120201066Y-163451066D01*
X120190159Y-163460952D01*
X120178336Y-163469720D01*
X120165710Y-163477288D01*
X120152403Y-163483582D01*
X120138543Y-163488541D01*
X120124264Y-163492118D01*
X120109703Y-163494278D01*
X120095000Y-163495000D01*
X118620000Y-163495000D01*
X118605297Y-163494278D01*
X118590736Y-163492118D01*
X118576457Y-163488541D01*
X118562597Y-163483582D01*
X118549290Y-163477288D01*
X118536664Y-163469720D01*
X118524841Y-163460952D01*
X118513934Y-163451066D01*
X118504048Y-163440159D01*
X118495280Y-163428336D01*
X118487712Y-163415710D01*
X118481418Y-163402403D01*
X118476459Y-163388543D01*
X118472882Y-163374264D01*
X118470722Y-163359703D01*
X118470000Y-163345000D01*
X118470000Y-163045000D01*
X118470722Y-163030297D01*
X118472882Y-163015736D01*
X118476459Y-163001457D01*
X118481418Y-162987597D01*
X118487712Y-162974290D01*
X118495280Y-162961664D01*
X118504048Y-162949841D01*
X118513934Y-162938934D01*
X118524841Y-162929048D01*
X118536664Y-162920280D01*
X118549290Y-162912712D01*
X118562597Y-162906418D01*
X118576457Y-162901459D01*
X118590736Y-162897882D01*
X118605297Y-162895722D01*
X118620000Y-162895000D01*
X120095000Y-162895000D01*
X120109703Y-162895722D01*
X120109703Y-162895722D01*
G37*
D11*
X119357500Y-163195000D03*
D10*
G36*
X120109703Y-161625722D02*
G01*
X120124264Y-161627882D01*
X120138543Y-161631459D01*
X120152403Y-161636418D01*
X120165710Y-161642712D01*
X120178336Y-161650280D01*
X120190159Y-161659048D01*
X120201066Y-161668934D01*
X120210952Y-161679841D01*
X120219720Y-161691664D01*
X120227288Y-161704290D01*
X120233582Y-161717597D01*
X120238541Y-161731457D01*
X120242118Y-161745736D01*
X120244278Y-161760297D01*
X120245000Y-161775000D01*
X120245000Y-162075000D01*
X120244278Y-162089703D01*
X120242118Y-162104264D01*
X120238541Y-162118543D01*
X120233582Y-162132403D01*
X120227288Y-162145710D01*
X120219720Y-162158336D01*
X120210952Y-162170159D01*
X120201066Y-162181066D01*
X120190159Y-162190952D01*
X120178336Y-162199720D01*
X120165710Y-162207288D01*
X120152403Y-162213582D01*
X120138543Y-162218541D01*
X120124264Y-162222118D01*
X120109703Y-162224278D01*
X120095000Y-162225000D01*
X118620000Y-162225000D01*
X118605297Y-162224278D01*
X118590736Y-162222118D01*
X118576457Y-162218541D01*
X118562597Y-162213582D01*
X118549290Y-162207288D01*
X118536664Y-162199720D01*
X118524841Y-162190952D01*
X118513934Y-162181066D01*
X118504048Y-162170159D01*
X118495280Y-162158336D01*
X118487712Y-162145710D01*
X118481418Y-162132403D01*
X118476459Y-162118543D01*
X118472882Y-162104264D01*
X118470722Y-162089703D01*
X118470000Y-162075000D01*
X118470000Y-161775000D01*
X118470722Y-161760297D01*
X118472882Y-161745736D01*
X118476459Y-161731457D01*
X118481418Y-161717597D01*
X118487712Y-161704290D01*
X118495280Y-161691664D01*
X118504048Y-161679841D01*
X118513934Y-161668934D01*
X118524841Y-161659048D01*
X118536664Y-161650280D01*
X118549290Y-161642712D01*
X118562597Y-161636418D01*
X118576457Y-161631459D01*
X118590736Y-161627882D01*
X118605297Y-161625722D01*
X118620000Y-161625000D01*
X120095000Y-161625000D01*
X120109703Y-161625722D01*
X120109703Y-161625722D01*
G37*
D11*
X119357500Y-161925000D03*
D10*
G36*
X120109703Y-160355722D02*
G01*
X120124264Y-160357882D01*
X120138543Y-160361459D01*
X120152403Y-160366418D01*
X120165710Y-160372712D01*
X120178336Y-160380280D01*
X120190159Y-160389048D01*
X120201066Y-160398934D01*
X120210952Y-160409841D01*
X120219720Y-160421664D01*
X120227288Y-160434290D01*
X120233582Y-160447597D01*
X120238541Y-160461457D01*
X120242118Y-160475736D01*
X120244278Y-160490297D01*
X120245000Y-160505000D01*
X120245000Y-160805000D01*
X120244278Y-160819703D01*
X120242118Y-160834264D01*
X120238541Y-160848543D01*
X120233582Y-160862403D01*
X120227288Y-160875710D01*
X120219720Y-160888336D01*
X120210952Y-160900159D01*
X120201066Y-160911066D01*
X120190159Y-160920952D01*
X120178336Y-160929720D01*
X120165710Y-160937288D01*
X120152403Y-160943582D01*
X120138543Y-160948541D01*
X120124264Y-160952118D01*
X120109703Y-160954278D01*
X120095000Y-160955000D01*
X118620000Y-160955000D01*
X118605297Y-160954278D01*
X118590736Y-160952118D01*
X118576457Y-160948541D01*
X118562597Y-160943582D01*
X118549290Y-160937288D01*
X118536664Y-160929720D01*
X118524841Y-160920952D01*
X118513934Y-160911066D01*
X118504048Y-160900159D01*
X118495280Y-160888336D01*
X118487712Y-160875710D01*
X118481418Y-160862403D01*
X118476459Y-160848543D01*
X118472882Y-160834264D01*
X118470722Y-160819703D01*
X118470000Y-160805000D01*
X118470000Y-160505000D01*
X118470722Y-160490297D01*
X118472882Y-160475736D01*
X118476459Y-160461457D01*
X118481418Y-160447597D01*
X118487712Y-160434290D01*
X118495280Y-160421664D01*
X118504048Y-160409841D01*
X118513934Y-160398934D01*
X118524841Y-160389048D01*
X118536664Y-160380280D01*
X118549290Y-160372712D01*
X118562597Y-160366418D01*
X118576457Y-160361459D01*
X118590736Y-160357882D01*
X118605297Y-160355722D01*
X118620000Y-160355000D01*
X120095000Y-160355000D01*
X120109703Y-160355722D01*
X120109703Y-160355722D01*
G37*
D11*
X119357500Y-160655000D03*
D10*
G36*
X120109703Y-159085722D02*
G01*
X120124264Y-159087882D01*
X120138543Y-159091459D01*
X120152403Y-159096418D01*
X120165710Y-159102712D01*
X120178336Y-159110280D01*
X120190159Y-159119048D01*
X120201066Y-159128934D01*
X120210952Y-159139841D01*
X120219720Y-159151664D01*
X120227288Y-159164290D01*
X120233582Y-159177597D01*
X120238541Y-159191457D01*
X120242118Y-159205736D01*
X120244278Y-159220297D01*
X120245000Y-159235000D01*
X120245000Y-159535000D01*
X120244278Y-159549703D01*
X120242118Y-159564264D01*
X120238541Y-159578543D01*
X120233582Y-159592403D01*
X120227288Y-159605710D01*
X120219720Y-159618336D01*
X120210952Y-159630159D01*
X120201066Y-159641066D01*
X120190159Y-159650952D01*
X120178336Y-159659720D01*
X120165710Y-159667288D01*
X120152403Y-159673582D01*
X120138543Y-159678541D01*
X120124264Y-159682118D01*
X120109703Y-159684278D01*
X120095000Y-159685000D01*
X118620000Y-159685000D01*
X118605297Y-159684278D01*
X118590736Y-159682118D01*
X118576457Y-159678541D01*
X118562597Y-159673582D01*
X118549290Y-159667288D01*
X118536664Y-159659720D01*
X118524841Y-159650952D01*
X118513934Y-159641066D01*
X118504048Y-159630159D01*
X118495280Y-159618336D01*
X118487712Y-159605710D01*
X118481418Y-159592403D01*
X118476459Y-159578543D01*
X118472882Y-159564264D01*
X118470722Y-159549703D01*
X118470000Y-159535000D01*
X118470000Y-159235000D01*
X118470722Y-159220297D01*
X118472882Y-159205736D01*
X118476459Y-159191457D01*
X118481418Y-159177597D01*
X118487712Y-159164290D01*
X118495280Y-159151664D01*
X118504048Y-159139841D01*
X118513934Y-159128934D01*
X118524841Y-159119048D01*
X118536664Y-159110280D01*
X118549290Y-159102712D01*
X118562597Y-159096418D01*
X118576457Y-159091459D01*
X118590736Y-159087882D01*
X118605297Y-159085722D01*
X118620000Y-159085000D01*
X120095000Y-159085000D01*
X120109703Y-159085722D01*
X120109703Y-159085722D01*
G37*
D11*
X119357500Y-159385000D03*
D10*
G36*
X122839309Y-161876071D02*
G01*
X122860908Y-161879275D01*
X122882088Y-161884581D01*
X122902647Y-161891937D01*
X122922386Y-161901273D01*
X122941114Y-161912498D01*
X122958653Y-161925505D01*
X122974831Y-161940169D01*
X122989495Y-161956347D01*
X123002502Y-161973886D01*
X123013727Y-161992614D01*
X123023063Y-162012353D01*
X123030419Y-162032912D01*
X123035725Y-162054092D01*
X123038929Y-162075691D01*
X123040000Y-162097500D01*
X123040000Y-162542500D01*
X123038929Y-162564309D01*
X123035725Y-162585908D01*
X123030419Y-162607088D01*
X123023063Y-162627647D01*
X123013727Y-162647386D01*
X123002502Y-162666114D01*
X122989495Y-162683653D01*
X122974831Y-162699831D01*
X122958653Y-162714495D01*
X122941114Y-162727502D01*
X122922386Y-162738727D01*
X122902647Y-162748063D01*
X122882088Y-162755419D01*
X122860908Y-162760725D01*
X122839309Y-162763929D01*
X122817500Y-162765000D01*
X122222500Y-162765000D01*
X122200691Y-162763929D01*
X122179092Y-162760725D01*
X122157912Y-162755419D01*
X122137353Y-162748063D01*
X122117614Y-162738727D01*
X122098886Y-162727502D01*
X122081347Y-162714495D01*
X122065169Y-162699831D01*
X122050505Y-162683653D01*
X122037498Y-162666114D01*
X122026273Y-162647386D01*
X122016937Y-162627647D01*
X122009581Y-162607088D01*
X122004275Y-162585908D01*
X122001071Y-162564309D01*
X122000000Y-162542500D01*
X122000000Y-162097500D01*
X122001071Y-162075691D01*
X122004275Y-162054092D01*
X122009581Y-162032912D01*
X122016937Y-162012353D01*
X122026273Y-161992614D01*
X122037498Y-161973886D01*
X122050505Y-161956347D01*
X122065169Y-161940169D01*
X122081347Y-161925505D01*
X122098886Y-161912498D01*
X122117614Y-161901273D01*
X122137353Y-161891937D01*
X122157912Y-161884581D01*
X122179092Y-161879275D01*
X122200691Y-161876071D01*
X122222500Y-161875000D01*
X122817500Y-161875000D01*
X122839309Y-161876071D01*
X122839309Y-161876071D01*
G37*
D12*
X122520000Y-162320000D03*
D10*
G36*
X122839309Y-160846071D02*
G01*
X122860908Y-160849275D01*
X122882088Y-160854581D01*
X122902647Y-160861937D01*
X122922386Y-160871273D01*
X122941114Y-160882498D01*
X122958653Y-160895505D01*
X122974831Y-160910169D01*
X122989495Y-160926347D01*
X123002502Y-160943886D01*
X123013727Y-160962614D01*
X123023063Y-160982353D01*
X123030419Y-161002912D01*
X123035725Y-161024092D01*
X123038929Y-161045691D01*
X123040000Y-161067500D01*
X123040000Y-161512500D01*
X123038929Y-161534309D01*
X123035725Y-161555908D01*
X123030419Y-161577088D01*
X123023063Y-161597647D01*
X123013727Y-161617386D01*
X123002502Y-161636114D01*
X122989495Y-161653653D01*
X122974831Y-161669831D01*
X122958653Y-161684495D01*
X122941114Y-161697502D01*
X122922386Y-161708727D01*
X122902647Y-161718063D01*
X122882088Y-161725419D01*
X122860908Y-161730725D01*
X122839309Y-161733929D01*
X122817500Y-161735000D01*
X122222500Y-161735000D01*
X122200691Y-161733929D01*
X122179092Y-161730725D01*
X122157912Y-161725419D01*
X122137353Y-161718063D01*
X122117614Y-161708727D01*
X122098886Y-161697502D01*
X122081347Y-161684495D01*
X122065169Y-161669831D01*
X122050505Y-161653653D01*
X122037498Y-161636114D01*
X122026273Y-161617386D01*
X122016937Y-161597647D01*
X122009581Y-161577088D01*
X122004275Y-161555908D01*
X122001071Y-161534309D01*
X122000000Y-161512500D01*
X122000000Y-161067500D01*
X122001071Y-161045691D01*
X122004275Y-161024092D01*
X122009581Y-161002912D01*
X122016937Y-160982353D01*
X122026273Y-160962614D01*
X122037498Y-160943886D01*
X122050505Y-160926347D01*
X122065169Y-160910169D01*
X122081347Y-160895505D01*
X122098886Y-160882498D01*
X122117614Y-160871273D01*
X122137353Y-160861937D01*
X122157912Y-160854581D01*
X122179092Y-160849275D01*
X122200691Y-160846071D01*
X122222500Y-160845000D01*
X122817500Y-160845000D01*
X122839309Y-160846071D01*
X122839309Y-160846071D01*
G37*
D12*
X122520000Y-161290000D03*
D10*
G36*
X122839309Y-159816071D02*
G01*
X122860908Y-159819275D01*
X122882088Y-159824581D01*
X122902647Y-159831937D01*
X122922386Y-159841273D01*
X122941114Y-159852498D01*
X122958653Y-159865505D01*
X122974831Y-159880169D01*
X122989495Y-159896347D01*
X123002502Y-159913886D01*
X123013727Y-159932614D01*
X123023063Y-159952353D01*
X123030419Y-159972912D01*
X123035725Y-159994092D01*
X123038929Y-160015691D01*
X123040000Y-160037500D01*
X123040000Y-160482500D01*
X123038929Y-160504309D01*
X123035725Y-160525908D01*
X123030419Y-160547088D01*
X123023063Y-160567647D01*
X123013727Y-160587386D01*
X123002502Y-160606114D01*
X122989495Y-160623653D01*
X122974831Y-160639831D01*
X122958653Y-160654495D01*
X122941114Y-160667502D01*
X122922386Y-160678727D01*
X122902647Y-160688063D01*
X122882088Y-160695419D01*
X122860908Y-160700725D01*
X122839309Y-160703929D01*
X122817500Y-160705000D01*
X122222500Y-160705000D01*
X122200691Y-160703929D01*
X122179092Y-160700725D01*
X122157912Y-160695419D01*
X122137353Y-160688063D01*
X122117614Y-160678727D01*
X122098886Y-160667502D01*
X122081347Y-160654495D01*
X122065169Y-160639831D01*
X122050505Y-160623653D01*
X122037498Y-160606114D01*
X122026273Y-160587386D01*
X122016937Y-160567647D01*
X122009581Y-160547088D01*
X122004275Y-160525908D01*
X122001071Y-160504309D01*
X122000000Y-160482500D01*
X122000000Y-160037500D01*
X122001071Y-160015691D01*
X122004275Y-159994092D01*
X122009581Y-159972912D01*
X122016937Y-159952353D01*
X122026273Y-159932614D01*
X122037498Y-159913886D01*
X122050505Y-159896347D01*
X122065169Y-159880169D01*
X122081347Y-159865505D01*
X122098886Y-159852498D01*
X122117614Y-159841273D01*
X122137353Y-159831937D01*
X122157912Y-159824581D01*
X122179092Y-159819275D01*
X122200691Y-159816071D01*
X122222500Y-159815000D01*
X122817500Y-159815000D01*
X122839309Y-159816071D01*
X122839309Y-159816071D01*
G37*
D12*
X122520000Y-160260000D03*
D10*
G36*
X121639309Y-161876071D02*
G01*
X121660908Y-161879275D01*
X121682088Y-161884581D01*
X121702647Y-161891937D01*
X121722386Y-161901273D01*
X121741114Y-161912498D01*
X121758653Y-161925505D01*
X121774831Y-161940169D01*
X121789495Y-161956347D01*
X121802502Y-161973886D01*
X121813727Y-161992614D01*
X121823063Y-162012353D01*
X121830419Y-162032912D01*
X121835725Y-162054092D01*
X121838929Y-162075691D01*
X121840000Y-162097500D01*
X121840000Y-162542500D01*
X121838929Y-162564309D01*
X121835725Y-162585908D01*
X121830419Y-162607088D01*
X121823063Y-162627647D01*
X121813727Y-162647386D01*
X121802502Y-162666114D01*
X121789495Y-162683653D01*
X121774831Y-162699831D01*
X121758653Y-162714495D01*
X121741114Y-162727502D01*
X121722386Y-162738727D01*
X121702647Y-162748063D01*
X121682088Y-162755419D01*
X121660908Y-162760725D01*
X121639309Y-162763929D01*
X121617500Y-162765000D01*
X121022500Y-162765000D01*
X121000691Y-162763929D01*
X120979092Y-162760725D01*
X120957912Y-162755419D01*
X120937353Y-162748063D01*
X120917614Y-162738727D01*
X120898886Y-162727502D01*
X120881347Y-162714495D01*
X120865169Y-162699831D01*
X120850505Y-162683653D01*
X120837498Y-162666114D01*
X120826273Y-162647386D01*
X120816937Y-162627647D01*
X120809581Y-162607088D01*
X120804275Y-162585908D01*
X120801071Y-162564309D01*
X120800000Y-162542500D01*
X120800000Y-162097500D01*
X120801071Y-162075691D01*
X120804275Y-162054092D01*
X120809581Y-162032912D01*
X120816937Y-162012353D01*
X120826273Y-161992614D01*
X120837498Y-161973886D01*
X120850505Y-161956347D01*
X120865169Y-161940169D01*
X120881347Y-161925505D01*
X120898886Y-161912498D01*
X120917614Y-161901273D01*
X120937353Y-161891937D01*
X120957912Y-161884581D01*
X120979092Y-161879275D01*
X121000691Y-161876071D01*
X121022500Y-161875000D01*
X121617500Y-161875000D01*
X121639309Y-161876071D01*
X121639309Y-161876071D01*
G37*
D12*
X121320000Y-162320000D03*
D10*
G36*
X121639309Y-160846071D02*
G01*
X121660908Y-160849275D01*
X121682088Y-160854581D01*
X121702647Y-160861937D01*
X121722386Y-160871273D01*
X121741114Y-160882498D01*
X121758653Y-160895505D01*
X121774831Y-160910169D01*
X121789495Y-160926347D01*
X121802502Y-160943886D01*
X121813727Y-160962614D01*
X121823063Y-160982353D01*
X121830419Y-161002912D01*
X121835725Y-161024092D01*
X121838929Y-161045691D01*
X121840000Y-161067500D01*
X121840000Y-161512500D01*
X121838929Y-161534309D01*
X121835725Y-161555908D01*
X121830419Y-161577088D01*
X121823063Y-161597647D01*
X121813727Y-161617386D01*
X121802502Y-161636114D01*
X121789495Y-161653653D01*
X121774831Y-161669831D01*
X121758653Y-161684495D01*
X121741114Y-161697502D01*
X121722386Y-161708727D01*
X121702647Y-161718063D01*
X121682088Y-161725419D01*
X121660908Y-161730725D01*
X121639309Y-161733929D01*
X121617500Y-161735000D01*
X121022500Y-161735000D01*
X121000691Y-161733929D01*
X120979092Y-161730725D01*
X120957912Y-161725419D01*
X120937353Y-161718063D01*
X120917614Y-161708727D01*
X120898886Y-161697502D01*
X120881347Y-161684495D01*
X120865169Y-161669831D01*
X120850505Y-161653653D01*
X120837498Y-161636114D01*
X120826273Y-161617386D01*
X120816937Y-161597647D01*
X120809581Y-161577088D01*
X120804275Y-161555908D01*
X120801071Y-161534309D01*
X120800000Y-161512500D01*
X120800000Y-161067500D01*
X120801071Y-161045691D01*
X120804275Y-161024092D01*
X120809581Y-161002912D01*
X120816937Y-160982353D01*
X120826273Y-160962614D01*
X120837498Y-160943886D01*
X120850505Y-160926347D01*
X120865169Y-160910169D01*
X120881347Y-160895505D01*
X120898886Y-160882498D01*
X120917614Y-160871273D01*
X120937353Y-160861937D01*
X120957912Y-160854581D01*
X120979092Y-160849275D01*
X121000691Y-160846071D01*
X121022500Y-160845000D01*
X121617500Y-160845000D01*
X121639309Y-160846071D01*
X121639309Y-160846071D01*
G37*
D12*
X121320000Y-161290000D03*
D10*
G36*
X121639309Y-159816071D02*
G01*
X121660908Y-159819275D01*
X121682088Y-159824581D01*
X121702647Y-159831937D01*
X121722386Y-159841273D01*
X121741114Y-159852498D01*
X121758653Y-159865505D01*
X121774831Y-159880169D01*
X121789495Y-159896347D01*
X121802502Y-159913886D01*
X121813727Y-159932614D01*
X121823063Y-159952353D01*
X121830419Y-159972912D01*
X121835725Y-159994092D01*
X121838929Y-160015691D01*
X121840000Y-160037500D01*
X121840000Y-160482500D01*
X121838929Y-160504309D01*
X121835725Y-160525908D01*
X121830419Y-160547088D01*
X121823063Y-160567647D01*
X121813727Y-160587386D01*
X121802502Y-160606114D01*
X121789495Y-160623653D01*
X121774831Y-160639831D01*
X121758653Y-160654495D01*
X121741114Y-160667502D01*
X121722386Y-160678727D01*
X121702647Y-160688063D01*
X121682088Y-160695419D01*
X121660908Y-160700725D01*
X121639309Y-160703929D01*
X121617500Y-160705000D01*
X121022500Y-160705000D01*
X121000691Y-160703929D01*
X120979092Y-160700725D01*
X120957912Y-160695419D01*
X120937353Y-160688063D01*
X120917614Y-160678727D01*
X120898886Y-160667502D01*
X120881347Y-160654495D01*
X120865169Y-160639831D01*
X120850505Y-160623653D01*
X120837498Y-160606114D01*
X120826273Y-160587386D01*
X120816937Y-160567647D01*
X120809581Y-160547088D01*
X120804275Y-160525908D01*
X120801071Y-160504309D01*
X120800000Y-160482500D01*
X120800000Y-160037500D01*
X120801071Y-160015691D01*
X120804275Y-159994092D01*
X120809581Y-159972912D01*
X120816937Y-159952353D01*
X120826273Y-159932614D01*
X120837498Y-159913886D01*
X120850505Y-159896347D01*
X120865169Y-159880169D01*
X120881347Y-159865505D01*
X120898886Y-159852498D01*
X120917614Y-159841273D01*
X120937353Y-159831937D01*
X120957912Y-159824581D01*
X120979092Y-159819275D01*
X121000691Y-159816071D01*
X121022500Y-159815000D01*
X121617500Y-159815000D01*
X121639309Y-159816071D01*
X121639309Y-159816071D01*
G37*
D12*
X121320000Y-160260000D03*
D10*
G36*
X132404505Y-177966204D02*
G01*
X132428773Y-177969804D01*
X132452572Y-177975765D01*
X132475671Y-177984030D01*
X132497850Y-177994520D01*
X132518893Y-178007132D01*
X132538599Y-178021747D01*
X132556777Y-178038223D01*
X132573253Y-178056401D01*
X132587868Y-178076107D01*
X132600480Y-178097150D01*
X132610970Y-178119329D01*
X132619235Y-178142428D01*
X132625196Y-178166227D01*
X132628796Y-178190495D01*
X132630000Y-178214999D01*
X132630000Y-178865001D01*
X132628796Y-178889505D01*
X132625196Y-178913773D01*
X132619235Y-178937572D01*
X132610970Y-178960671D01*
X132600480Y-178982850D01*
X132587868Y-179003893D01*
X132573253Y-179023599D01*
X132556777Y-179041777D01*
X132538599Y-179058253D01*
X132518893Y-179072868D01*
X132497850Y-179085480D01*
X132475671Y-179095970D01*
X132452572Y-179104235D01*
X132428773Y-179110196D01*
X132404505Y-179113796D01*
X132380001Y-179115000D01*
X131479999Y-179115000D01*
X131455495Y-179113796D01*
X131431227Y-179110196D01*
X131407428Y-179104235D01*
X131384329Y-179095970D01*
X131362150Y-179085480D01*
X131341107Y-179072868D01*
X131321401Y-179058253D01*
X131303223Y-179041777D01*
X131286747Y-179023599D01*
X131272132Y-179003893D01*
X131259520Y-178982850D01*
X131249030Y-178960671D01*
X131240765Y-178937572D01*
X131234804Y-178913773D01*
X131231204Y-178889505D01*
X131230000Y-178865001D01*
X131230000Y-178214999D01*
X131231204Y-178190495D01*
X131234804Y-178166227D01*
X131240765Y-178142428D01*
X131249030Y-178119329D01*
X131259520Y-178097150D01*
X131272132Y-178076107D01*
X131286747Y-178056401D01*
X131303223Y-178038223D01*
X131321401Y-178021747D01*
X131341107Y-178007132D01*
X131362150Y-177994520D01*
X131384329Y-177984030D01*
X131407428Y-177975765D01*
X131431227Y-177969804D01*
X131455495Y-177966204D01*
X131479999Y-177965000D01*
X132380001Y-177965000D01*
X132404505Y-177966204D01*
X132404505Y-177966204D01*
G37*
D13*
X131930000Y-178540000D03*
D10*
G36*
X132404505Y-180016204D02*
G01*
X132428773Y-180019804D01*
X132452572Y-180025765D01*
X132475671Y-180034030D01*
X132497850Y-180044520D01*
X132518893Y-180057132D01*
X132538599Y-180071747D01*
X132556777Y-180088223D01*
X132573253Y-180106401D01*
X132587868Y-180126107D01*
X132600480Y-180147150D01*
X132610970Y-180169329D01*
X132619235Y-180192428D01*
X132625196Y-180216227D01*
X132628796Y-180240495D01*
X132630000Y-180264999D01*
X132630000Y-180915001D01*
X132628796Y-180939505D01*
X132625196Y-180963773D01*
X132619235Y-180987572D01*
X132610970Y-181010671D01*
X132600480Y-181032850D01*
X132587868Y-181053893D01*
X132573253Y-181073599D01*
X132556777Y-181091777D01*
X132538599Y-181108253D01*
X132518893Y-181122868D01*
X132497850Y-181135480D01*
X132475671Y-181145970D01*
X132452572Y-181154235D01*
X132428773Y-181160196D01*
X132404505Y-181163796D01*
X132380001Y-181165000D01*
X131479999Y-181165000D01*
X131455495Y-181163796D01*
X131431227Y-181160196D01*
X131407428Y-181154235D01*
X131384329Y-181145970D01*
X131362150Y-181135480D01*
X131341107Y-181122868D01*
X131321401Y-181108253D01*
X131303223Y-181091777D01*
X131286747Y-181073599D01*
X131272132Y-181053893D01*
X131259520Y-181032850D01*
X131249030Y-181010671D01*
X131240765Y-180987572D01*
X131234804Y-180963773D01*
X131231204Y-180939505D01*
X131230000Y-180915001D01*
X131230000Y-180264999D01*
X131231204Y-180240495D01*
X131234804Y-180216227D01*
X131240765Y-180192428D01*
X131249030Y-180169329D01*
X131259520Y-180147150D01*
X131272132Y-180126107D01*
X131286747Y-180106401D01*
X131303223Y-180088223D01*
X131321401Y-180071747D01*
X131341107Y-180057132D01*
X131362150Y-180044520D01*
X131384329Y-180034030D01*
X131407428Y-180025765D01*
X131431227Y-180019804D01*
X131455495Y-180016204D01*
X131479999Y-180015000D01*
X132380001Y-180015000D01*
X132404505Y-180016204D01*
X132404505Y-180016204D01*
G37*
D13*
X131930000Y-180590000D03*
D10*
G36*
X154384505Y-165611204D02*
G01*
X154408773Y-165614804D01*
X154432572Y-165620765D01*
X154455671Y-165629030D01*
X154477850Y-165639520D01*
X154498893Y-165652132D01*
X154518599Y-165666747D01*
X154536777Y-165683223D01*
X154553253Y-165701401D01*
X154567868Y-165721107D01*
X154580480Y-165742150D01*
X154590970Y-165764329D01*
X154599235Y-165787428D01*
X154605196Y-165811227D01*
X154608796Y-165835495D01*
X154610000Y-165859999D01*
X154610000Y-166510001D01*
X154608796Y-166534505D01*
X154605196Y-166558773D01*
X154599235Y-166582572D01*
X154590970Y-166605671D01*
X154580480Y-166627850D01*
X154567868Y-166648893D01*
X154553253Y-166668599D01*
X154536777Y-166686777D01*
X154518599Y-166703253D01*
X154498893Y-166717868D01*
X154477850Y-166730480D01*
X154455671Y-166740970D01*
X154432572Y-166749235D01*
X154408773Y-166755196D01*
X154384505Y-166758796D01*
X154360001Y-166760000D01*
X153459999Y-166760000D01*
X153435495Y-166758796D01*
X153411227Y-166755196D01*
X153387428Y-166749235D01*
X153364329Y-166740970D01*
X153342150Y-166730480D01*
X153321107Y-166717868D01*
X153301401Y-166703253D01*
X153283223Y-166686777D01*
X153266747Y-166668599D01*
X153252132Y-166648893D01*
X153239520Y-166627850D01*
X153229030Y-166605671D01*
X153220765Y-166582572D01*
X153214804Y-166558773D01*
X153211204Y-166534505D01*
X153210000Y-166510001D01*
X153210000Y-165859999D01*
X153211204Y-165835495D01*
X153214804Y-165811227D01*
X153220765Y-165787428D01*
X153229030Y-165764329D01*
X153239520Y-165742150D01*
X153252132Y-165721107D01*
X153266747Y-165701401D01*
X153283223Y-165683223D01*
X153301401Y-165666747D01*
X153321107Y-165652132D01*
X153342150Y-165639520D01*
X153364329Y-165629030D01*
X153387428Y-165620765D01*
X153411227Y-165614804D01*
X153435495Y-165611204D01*
X153459999Y-165610000D01*
X154360001Y-165610000D01*
X154384505Y-165611204D01*
X154384505Y-165611204D01*
G37*
D13*
X153910000Y-166185000D03*
D10*
G36*
X154384505Y-167661204D02*
G01*
X154408773Y-167664804D01*
X154432572Y-167670765D01*
X154455671Y-167679030D01*
X154477850Y-167689520D01*
X154498893Y-167702132D01*
X154518599Y-167716747D01*
X154536777Y-167733223D01*
X154553253Y-167751401D01*
X154567868Y-167771107D01*
X154580480Y-167792150D01*
X154590970Y-167814329D01*
X154599235Y-167837428D01*
X154605196Y-167861227D01*
X154608796Y-167885495D01*
X154610000Y-167909999D01*
X154610000Y-168560001D01*
X154608796Y-168584505D01*
X154605196Y-168608773D01*
X154599235Y-168632572D01*
X154590970Y-168655671D01*
X154580480Y-168677850D01*
X154567868Y-168698893D01*
X154553253Y-168718599D01*
X154536777Y-168736777D01*
X154518599Y-168753253D01*
X154498893Y-168767868D01*
X154477850Y-168780480D01*
X154455671Y-168790970D01*
X154432572Y-168799235D01*
X154408773Y-168805196D01*
X154384505Y-168808796D01*
X154360001Y-168810000D01*
X153459999Y-168810000D01*
X153435495Y-168808796D01*
X153411227Y-168805196D01*
X153387428Y-168799235D01*
X153364329Y-168790970D01*
X153342150Y-168780480D01*
X153321107Y-168767868D01*
X153301401Y-168753253D01*
X153283223Y-168736777D01*
X153266747Y-168718599D01*
X153252132Y-168698893D01*
X153239520Y-168677850D01*
X153229030Y-168655671D01*
X153220765Y-168632572D01*
X153214804Y-168608773D01*
X153211204Y-168584505D01*
X153210000Y-168560001D01*
X153210000Y-167909999D01*
X153211204Y-167885495D01*
X153214804Y-167861227D01*
X153220765Y-167837428D01*
X153229030Y-167814329D01*
X153239520Y-167792150D01*
X153252132Y-167771107D01*
X153266747Y-167751401D01*
X153283223Y-167733223D01*
X153301401Y-167716747D01*
X153321107Y-167702132D01*
X153342150Y-167689520D01*
X153364329Y-167679030D01*
X153387428Y-167670765D01*
X153411227Y-167664804D01*
X153435495Y-167661204D01*
X153459999Y-167660000D01*
X154360001Y-167660000D01*
X154384505Y-167661204D01*
X154384505Y-167661204D01*
G37*
D13*
X153910000Y-168235000D03*
D10*
G36*
X116679505Y-160326204D02*
G01*
X116703773Y-160329804D01*
X116727572Y-160335765D01*
X116750671Y-160344030D01*
X116772850Y-160354520D01*
X116793893Y-160367132D01*
X116813599Y-160381747D01*
X116831777Y-160398223D01*
X116848253Y-160416401D01*
X116862868Y-160436107D01*
X116875480Y-160457150D01*
X116885970Y-160479329D01*
X116894235Y-160502428D01*
X116900196Y-160526227D01*
X116903796Y-160550495D01*
X116905000Y-160574999D01*
X116905000Y-161225001D01*
X116903796Y-161249505D01*
X116900196Y-161273773D01*
X116894235Y-161297572D01*
X116885970Y-161320671D01*
X116875480Y-161342850D01*
X116862868Y-161363893D01*
X116848253Y-161383599D01*
X116831777Y-161401777D01*
X116813599Y-161418253D01*
X116793893Y-161432868D01*
X116772850Y-161445480D01*
X116750671Y-161455970D01*
X116727572Y-161464235D01*
X116703773Y-161470196D01*
X116679505Y-161473796D01*
X116655001Y-161475000D01*
X115754999Y-161475000D01*
X115730495Y-161473796D01*
X115706227Y-161470196D01*
X115682428Y-161464235D01*
X115659329Y-161455970D01*
X115637150Y-161445480D01*
X115616107Y-161432868D01*
X115596401Y-161418253D01*
X115578223Y-161401777D01*
X115561747Y-161383599D01*
X115547132Y-161363893D01*
X115534520Y-161342850D01*
X115524030Y-161320671D01*
X115515765Y-161297572D01*
X115509804Y-161273773D01*
X115506204Y-161249505D01*
X115505000Y-161225001D01*
X115505000Y-160574999D01*
X115506204Y-160550495D01*
X115509804Y-160526227D01*
X115515765Y-160502428D01*
X115524030Y-160479329D01*
X115534520Y-160457150D01*
X115547132Y-160436107D01*
X115561747Y-160416401D01*
X115578223Y-160398223D01*
X115596401Y-160381747D01*
X115616107Y-160367132D01*
X115637150Y-160354520D01*
X115659329Y-160344030D01*
X115682428Y-160335765D01*
X115706227Y-160329804D01*
X115730495Y-160326204D01*
X115754999Y-160325000D01*
X116655001Y-160325000D01*
X116679505Y-160326204D01*
X116679505Y-160326204D01*
G37*
D13*
X116205000Y-160900000D03*
D10*
G36*
X116679505Y-162376204D02*
G01*
X116703773Y-162379804D01*
X116727572Y-162385765D01*
X116750671Y-162394030D01*
X116772850Y-162404520D01*
X116793893Y-162417132D01*
X116813599Y-162431747D01*
X116831777Y-162448223D01*
X116848253Y-162466401D01*
X116862868Y-162486107D01*
X116875480Y-162507150D01*
X116885970Y-162529329D01*
X116894235Y-162552428D01*
X116900196Y-162576227D01*
X116903796Y-162600495D01*
X116905000Y-162624999D01*
X116905000Y-163275001D01*
X116903796Y-163299505D01*
X116900196Y-163323773D01*
X116894235Y-163347572D01*
X116885970Y-163370671D01*
X116875480Y-163392850D01*
X116862868Y-163413893D01*
X116848253Y-163433599D01*
X116831777Y-163451777D01*
X116813599Y-163468253D01*
X116793893Y-163482868D01*
X116772850Y-163495480D01*
X116750671Y-163505970D01*
X116727572Y-163514235D01*
X116703773Y-163520196D01*
X116679505Y-163523796D01*
X116655001Y-163525000D01*
X115754999Y-163525000D01*
X115730495Y-163523796D01*
X115706227Y-163520196D01*
X115682428Y-163514235D01*
X115659329Y-163505970D01*
X115637150Y-163495480D01*
X115616107Y-163482868D01*
X115596401Y-163468253D01*
X115578223Y-163451777D01*
X115561747Y-163433599D01*
X115547132Y-163413893D01*
X115534520Y-163392850D01*
X115524030Y-163370671D01*
X115515765Y-163347572D01*
X115509804Y-163323773D01*
X115506204Y-163299505D01*
X115505000Y-163275001D01*
X115505000Y-162624999D01*
X115506204Y-162600495D01*
X115509804Y-162576227D01*
X115515765Y-162552428D01*
X115524030Y-162529329D01*
X115534520Y-162507150D01*
X115547132Y-162486107D01*
X115561747Y-162466401D01*
X115578223Y-162448223D01*
X115596401Y-162431747D01*
X115616107Y-162417132D01*
X115637150Y-162404520D01*
X115659329Y-162394030D01*
X115682428Y-162385765D01*
X115706227Y-162379804D01*
X115730495Y-162376204D01*
X115754999Y-162375000D01*
X116655001Y-162375000D01*
X116679505Y-162376204D01*
X116679505Y-162376204D01*
G37*
D13*
X116205000Y-162950000D03*
D10*
G36*
X115409505Y-175076204D02*
G01*
X115433773Y-175079804D01*
X115457572Y-175085765D01*
X115480671Y-175094030D01*
X115502850Y-175104520D01*
X115523893Y-175117132D01*
X115543599Y-175131747D01*
X115561777Y-175148223D01*
X115578253Y-175166401D01*
X115592868Y-175186107D01*
X115605480Y-175207150D01*
X115615970Y-175229329D01*
X115624235Y-175252428D01*
X115630196Y-175276227D01*
X115633796Y-175300495D01*
X115635000Y-175324999D01*
X115635000Y-175975001D01*
X115633796Y-175999505D01*
X115630196Y-176023773D01*
X115624235Y-176047572D01*
X115615970Y-176070671D01*
X115605480Y-176092850D01*
X115592868Y-176113893D01*
X115578253Y-176133599D01*
X115561777Y-176151777D01*
X115543599Y-176168253D01*
X115523893Y-176182868D01*
X115502850Y-176195480D01*
X115480671Y-176205970D01*
X115457572Y-176214235D01*
X115433773Y-176220196D01*
X115409505Y-176223796D01*
X115385001Y-176225000D01*
X114484999Y-176225000D01*
X114460495Y-176223796D01*
X114436227Y-176220196D01*
X114412428Y-176214235D01*
X114389329Y-176205970D01*
X114367150Y-176195480D01*
X114346107Y-176182868D01*
X114326401Y-176168253D01*
X114308223Y-176151777D01*
X114291747Y-176133599D01*
X114277132Y-176113893D01*
X114264520Y-176092850D01*
X114254030Y-176070671D01*
X114245765Y-176047572D01*
X114239804Y-176023773D01*
X114236204Y-175999505D01*
X114235000Y-175975001D01*
X114235000Y-175324999D01*
X114236204Y-175300495D01*
X114239804Y-175276227D01*
X114245765Y-175252428D01*
X114254030Y-175229329D01*
X114264520Y-175207150D01*
X114277132Y-175186107D01*
X114291747Y-175166401D01*
X114308223Y-175148223D01*
X114326401Y-175131747D01*
X114346107Y-175117132D01*
X114367150Y-175104520D01*
X114389329Y-175094030D01*
X114412428Y-175085765D01*
X114436227Y-175079804D01*
X114460495Y-175076204D01*
X114484999Y-175075000D01*
X115385001Y-175075000D01*
X115409505Y-175076204D01*
X115409505Y-175076204D01*
G37*
D13*
X114935000Y-175650000D03*
D10*
G36*
X115409505Y-173026204D02*
G01*
X115433773Y-173029804D01*
X115457572Y-173035765D01*
X115480671Y-173044030D01*
X115502850Y-173054520D01*
X115523893Y-173067132D01*
X115543599Y-173081747D01*
X115561777Y-173098223D01*
X115578253Y-173116401D01*
X115592868Y-173136107D01*
X115605480Y-173157150D01*
X115615970Y-173179329D01*
X115624235Y-173202428D01*
X115630196Y-173226227D01*
X115633796Y-173250495D01*
X115635000Y-173274999D01*
X115635000Y-173925001D01*
X115633796Y-173949505D01*
X115630196Y-173973773D01*
X115624235Y-173997572D01*
X115615970Y-174020671D01*
X115605480Y-174042850D01*
X115592868Y-174063893D01*
X115578253Y-174083599D01*
X115561777Y-174101777D01*
X115543599Y-174118253D01*
X115523893Y-174132868D01*
X115502850Y-174145480D01*
X115480671Y-174155970D01*
X115457572Y-174164235D01*
X115433773Y-174170196D01*
X115409505Y-174173796D01*
X115385001Y-174175000D01*
X114484999Y-174175000D01*
X114460495Y-174173796D01*
X114436227Y-174170196D01*
X114412428Y-174164235D01*
X114389329Y-174155970D01*
X114367150Y-174145480D01*
X114346107Y-174132868D01*
X114326401Y-174118253D01*
X114308223Y-174101777D01*
X114291747Y-174083599D01*
X114277132Y-174063893D01*
X114264520Y-174042850D01*
X114254030Y-174020671D01*
X114245765Y-173997572D01*
X114239804Y-173973773D01*
X114236204Y-173949505D01*
X114235000Y-173925001D01*
X114235000Y-173274999D01*
X114236204Y-173250495D01*
X114239804Y-173226227D01*
X114245765Y-173202428D01*
X114254030Y-173179329D01*
X114264520Y-173157150D01*
X114277132Y-173136107D01*
X114291747Y-173116401D01*
X114308223Y-173098223D01*
X114326401Y-173081747D01*
X114346107Y-173067132D01*
X114367150Y-173054520D01*
X114389329Y-173044030D01*
X114412428Y-173035765D01*
X114436227Y-173029804D01*
X114460495Y-173026204D01*
X114484999Y-173025000D01*
X115385001Y-173025000D01*
X115409505Y-173026204D01*
X115409505Y-173026204D01*
G37*
D13*
X114935000Y-173600000D03*
D10*
G36*
X122394505Y-168091204D02*
G01*
X122418773Y-168094804D01*
X122442572Y-168100765D01*
X122465671Y-168109030D01*
X122487850Y-168119520D01*
X122508893Y-168132132D01*
X122528599Y-168146747D01*
X122546777Y-168163223D01*
X122563253Y-168181401D01*
X122577868Y-168201107D01*
X122590480Y-168222150D01*
X122600970Y-168244329D01*
X122609235Y-168267428D01*
X122615196Y-168291227D01*
X122618796Y-168315495D01*
X122620000Y-168339999D01*
X122620000Y-168990001D01*
X122618796Y-169014505D01*
X122615196Y-169038773D01*
X122609235Y-169062572D01*
X122600970Y-169085671D01*
X122590480Y-169107850D01*
X122577868Y-169128893D01*
X122563253Y-169148599D01*
X122546777Y-169166777D01*
X122528599Y-169183253D01*
X122508893Y-169197868D01*
X122487850Y-169210480D01*
X122465671Y-169220970D01*
X122442572Y-169229235D01*
X122418773Y-169235196D01*
X122394505Y-169238796D01*
X122370001Y-169240000D01*
X121469999Y-169240000D01*
X121445495Y-169238796D01*
X121421227Y-169235196D01*
X121397428Y-169229235D01*
X121374329Y-169220970D01*
X121352150Y-169210480D01*
X121331107Y-169197868D01*
X121311401Y-169183253D01*
X121293223Y-169166777D01*
X121276747Y-169148599D01*
X121262132Y-169128893D01*
X121249520Y-169107850D01*
X121239030Y-169085671D01*
X121230765Y-169062572D01*
X121224804Y-169038773D01*
X121221204Y-169014505D01*
X121220000Y-168990001D01*
X121220000Y-168339999D01*
X121221204Y-168315495D01*
X121224804Y-168291227D01*
X121230765Y-168267428D01*
X121239030Y-168244329D01*
X121249520Y-168222150D01*
X121262132Y-168201107D01*
X121276747Y-168181401D01*
X121293223Y-168163223D01*
X121311401Y-168146747D01*
X121331107Y-168132132D01*
X121352150Y-168119520D01*
X121374329Y-168109030D01*
X121397428Y-168100765D01*
X121421227Y-168094804D01*
X121445495Y-168091204D01*
X121469999Y-168090000D01*
X122370001Y-168090000D01*
X122394505Y-168091204D01*
X122394505Y-168091204D01*
G37*
D13*
X121920000Y-168665000D03*
D10*
G36*
X122394505Y-166041204D02*
G01*
X122418773Y-166044804D01*
X122442572Y-166050765D01*
X122465671Y-166059030D01*
X122487850Y-166069520D01*
X122508893Y-166082132D01*
X122528599Y-166096747D01*
X122546777Y-166113223D01*
X122563253Y-166131401D01*
X122577868Y-166151107D01*
X122590480Y-166172150D01*
X122600970Y-166194329D01*
X122609235Y-166217428D01*
X122615196Y-166241227D01*
X122618796Y-166265495D01*
X122620000Y-166289999D01*
X122620000Y-166940001D01*
X122618796Y-166964505D01*
X122615196Y-166988773D01*
X122609235Y-167012572D01*
X122600970Y-167035671D01*
X122590480Y-167057850D01*
X122577868Y-167078893D01*
X122563253Y-167098599D01*
X122546777Y-167116777D01*
X122528599Y-167133253D01*
X122508893Y-167147868D01*
X122487850Y-167160480D01*
X122465671Y-167170970D01*
X122442572Y-167179235D01*
X122418773Y-167185196D01*
X122394505Y-167188796D01*
X122370001Y-167190000D01*
X121469999Y-167190000D01*
X121445495Y-167188796D01*
X121421227Y-167185196D01*
X121397428Y-167179235D01*
X121374329Y-167170970D01*
X121352150Y-167160480D01*
X121331107Y-167147868D01*
X121311401Y-167133253D01*
X121293223Y-167116777D01*
X121276747Y-167098599D01*
X121262132Y-167078893D01*
X121249520Y-167057850D01*
X121239030Y-167035671D01*
X121230765Y-167012572D01*
X121224804Y-166988773D01*
X121221204Y-166964505D01*
X121220000Y-166940001D01*
X121220000Y-166289999D01*
X121221204Y-166265495D01*
X121224804Y-166241227D01*
X121230765Y-166217428D01*
X121239030Y-166194329D01*
X121249520Y-166172150D01*
X121262132Y-166151107D01*
X121276747Y-166131401D01*
X121293223Y-166113223D01*
X121311401Y-166096747D01*
X121331107Y-166082132D01*
X121352150Y-166069520D01*
X121374329Y-166059030D01*
X121397428Y-166050765D01*
X121421227Y-166044804D01*
X121445495Y-166041204D01*
X121469999Y-166040000D01*
X122370001Y-166040000D01*
X122394505Y-166041204D01*
X122394505Y-166041204D01*
G37*
D13*
X121920000Y-166615000D03*
D10*
G36*
X157214505Y-165731204D02*
G01*
X157238773Y-165734804D01*
X157262572Y-165740765D01*
X157285671Y-165749030D01*
X157307850Y-165759520D01*
X157328893Y-165772132D01*
X157348599Y-165786747D01*
X157366777Y-165803223D01*
X157383253Y-165821401D01*
X157397868Y-165841107D01*
X157410480Y-165862150D01*
X157420970Y-165884329D01*
X157429235Y-165907428D01*
X157435196Y-165931227D01*
X157438796Y-165955495D01*
X157440000Y-165979999D01*
X157440000Y-166630001D01*
X157438796Y-166654505D01*
X157435196Y-166678773D01*
X157429235Y-166702572D01*
X157420970Y-166725671D01*
X157410480Y-166747850D01*
X157397868Y-166768893D01*
X157383253Y-166788599D01*
X157366777Y-166806777D01*
X157348599Y-166823253D01*
X157328893Y-166837868D01*
X157307850Y-166850480D01*
X157285671Y-166860970D01*
X157262572Y-166869235D01*
X157238773Y-166875196D01*
X157214505Y-166878796D01*
X157190001Y-166880000D01*
X156289999Y-166880000D01*
X156265495Y-166878796D01*
X156241227Y-166875196D01*
X156217428Y-166869235D01*
X156194329Y-166860970D01*
X156172150Y-166850480D01*
X156151107Y-166837868D01*
X156131401Y-166823253D01*
X156113223Y-166806777D01*
X156096747Y-166788599D01*
X156082132Y-166768893D01*
X156069520Y-166747850D01*
X156059030Y-166725671D01*
X156050765Y-166702572D01*
X156044804Y-166678773D01*
X156041204Y-166654505D01*
X156040000Y-166630001D01*
X156040000Y-165979999D01*
X156041204Y-165955495D01*
X156044804Y-165931227D01*
X156050765Y-165907428D01*
X156059030Y-165884329D01*
X156069520Y-165862150D01*
X156082132Y-165841107D01*
X156096747Y-165821401D01*
X156113223Y-165803223D01*
X156131401Y-165786747D01*
X156151107Y-165772132D01*
X156172150Y-165759520D01*
X156194329Y-165749030D01*
X156217428Y-165740765D01*
X156241227Y-165734804D01*
X156265495Y-165731204D01*
X156289999Y-165730000D01*
X157190001Y-165730000D01*
X157214505Y-165731204D01*
X157214505Y-165731204D01*
G37*
D13*
X156740000Y-166305000D03*
D10*
G36*
X157214505Y-167781204D02*
G01*
X157238773Y-167784804D01*
X157262572Y-167790765D01*
X157285671Y-167799030D01*
X157307850Y-167809520D01*
X157328893Y-167822132D01*
X157348599Y-167836747D01*
X157366777Y-167853223D01*
X157383253Y-167871401D01*
X157397868Y-167891107D01*
X157410480Y-167912150D01*
X157420970Y-167934329D01*
X157429235Y-167957428D01*
X157435196Y-167981227D01*
X157438796Y-168005495D01*
X157440000Y-168029999D01*
X157440000Y-168680001D01*
X157438796Y-168704505D01*
X157435196Y-168728773D01*
X157429235Y-168752572D01*
X157420970Y-168775671D01*
X157410480Y-168797850D01*
X157397868Y-168818893D01*
X157383253Y-168838599D01*
X157366777Y-168856777D01*
X157348599Y-168873253D01*
X157328893Y-168887868D01*
X157307850Y-168900480D01*
X157285671Y-168910970D01*
X157262572Y-168919235D01*
X157238773Y-168925196D01*
X157214505Y-168928796D01*
X157190001Y-168930000D01*
X156289999Y-168930000D01*
X156265495Y-168928796D01*
X156241227Y-168925196D01*
X156217428Y-168919235D01*
X156194329Y-168910970D01*
X156172150Y-168900480D01*
X156151107Y-168887868D01*
X156131401Y-168873253D01*
X156113223Y-168856777D01*
X156096747Y-168838599D01*
X156082132Y-168818893D01*
X156069520Y-168797850D01*
X156059030Y-168775671D01*
X156050765Y-168752572D01*
X156044804Y-168728773D01*
X156041204Y-168704505D01*
X156040000Y-168680001D01*
X156040000Y-168029999D01*
X156041204Y-168005495D01*
X156044804Y-167981227D01*
X156050765Y-167957428D01*
X156059030Y-167934329D01*
X156069520Y-167912150D01*
X156082132Y-167891107D01*
X156096747Y-167871401D01*
X156113223Y-167853223D01*
X156131401Y-167836747D01*
X156151107Y-167822132D01*
X156172150Y-167809520D01*
X156194329Y-167799030D01*
X156217428Y-167790765D01*
X156241227Y-167784804D01*
X156265495Y-167781204D01*
X156289999Y-167780000D01*
X157190001Y-167780000D01*
X157214505Y-167781204D01*
X157214505Y-167781204D01*
G37*
D13*
X156740000Y-168355000D03*
D10*
G36*
X135579505Y-180016204D02*
G01*
X135603773Y-180019804D01*
X135627572Y-180025765D01*
X135650671Y-180034030D01*
X135672850Y-180044520D01*
X135693893Y-180057132D01*
X135713599Y-180071747D01*
X135731777Y-180088223D01*
X135748253Y-180106401D01*
X135762868Y-180126107D01*
X135775480Y-180147150D01*
X135785970Y-180169329D01*
X135794235Y-180192428D01*
X135800196Y-180216227D01*
X135803796Y-180240495D01*
X135805000Y-180264999D01*
X135805000Y-180915001D01*
X135803796Y-180939505D01*
X135800196Y-180963773D01*
X135794235Y-180987572D01*
X135785970Y-181010671D01*
X135775480Y-181032850D01*
X135762868Y-181053893D01*
X135748253Y-181073599D01*
X135731777Y-181091777D01*
X135713599Y-181108253D01*
X135693893Y-181122868D01*
X135672850Y-181135480D01*
X135650671Y-181145970D01*
X135627572Y-181154235D01*
X135603773Y-181160196D01*
X135579505Y-181163796D01*
X135555001Y-181165000D01*
X134654999Y-181165000D01*
X134630495Y-181163796D01*
X134606227Y-181160196D01*
X134582428Y-181154235D01*
X134559329Y-181145970D01*
X134537150Y-181135480D01*
X134516107Y-181122868D01*
X134496401Y-181108253D01*
X134478223Y-181091777D01*
X134461747Y-181073599D01*
X134447132Y-181053893D01*
X134434520Y-181032850D01*
X134424030Y-181010671D01*
X134415765Y-180987572D01*
X134409804Y-180963773D01*
X134406204Y-180939505D01*
X134405000Y-180915001D01*
X134405000Y-180264999D01*
X134406204Y-180240495D01*
X134409804Y-180216227D01*
X134415765Y-180192428D01*
X134424030Y-180169329D01*
X134434520Y-180147150D01*
X134447132Y-180126107D01*
X134461747Y-180106401D01*
X134478223Y-180088223D01*
X134496401Y-180071747D01*
X134516107Y-180057132D01*
X134537150Y-180044520D01*
X134559329Y-180034030D01*
X134582428Y-180025765D01*
X134606227Y-180019804D01*
X134630495Y-180016204D01*
X134654999Y-180015000D01*
X135555001Y-180015000D01*
X135579505Y-180016204D01*
X135579505Y-180016204D01*
G37*
D13*
X135105000Y-180590000D03*
D10*
G36*
X135579505Y-177966204D02*
G01*
X135603773Y-177969804D01*
X135627572Y-177975765D01*
X135650671Y-177984030D01*
X135672850Y-177994520D01*
X135693893Y-178007132D01*
X135713599Y-178021747D01*
X135731777Y-178038223D01*
X135748253Y-178056401D01*
X135762868Y-178076107D01*
X135775480Y-178097150D01*
X135785970Y-178119329D01*
X135794235Y-178142428D01*
X135800196Y-178166227D01*
X135803796Y-178190495D01*
X135805000Y-178214999D01*
X135805000Y-178865001D01*
X135803796Y-178889505D01*
X135800196Y-178913773D01*
X135794235Y-178937572D01*
X135785970Y-178960671D01*
X135775480Y-178982850D01*
X135762868Y-179003893D01*
X135748253Y-179023599D01*
X135731777Y-179041777D01*
X135713599Y-179058253D01*
X135693893Y-179072868D01*
X135672850Y-179085480D01*
X135650671Y-179095970D01*
X135627572Y-179104235D01*
X135603773Y-179110196D01*
X135579505Y-179113796D01*
X135555001Y-179115000D01*
X134654999Y-179115000D01*
X134630495Y-179113796D01*
X134606227Y-179110196D01*
X134582428Y-179104235D01*
X134559329Y-179095970D01*
X134537150Y-179085480D01*
X134516107Y-179072868D01*
X134496401Y-179058253D01*
X134478223Y-179041777D01*
X134461747Y-179023599D01*
X134447132Y-179003893D01*
X134434520Y-178982850D01*
X134424030Y-178960671D01*
X134415765Y-178937572D01*
X134409804Y-178913773D01*
X134406204Y-178889505D01*
X134405000Y-178865001D01*
X134405000Y-178214999D01*
X134406204Y-178190495D01*
X134409804Y-178166227D01*
X134415765Y-178142428D01*
X134424030Y-178119329D01*
X134434520Y-178097150D01*
X134447132Y-178076107D01*
X134461747Y-178056401D01*
X134478223Y-178038223D01*
X134496401Y-178021747D01*
X134516107Y-178007132D01*
X134537150Y-177994520D01*
X134559329Y-177984030D01*
X134582428Y-177975765D01*
X134606227Y-177969804D01*
X134630495Y-177966204D01*
X134654999Y-177965000D01*
X135555001Y-177965000D01*
X135579505Y-177966204D01*
X135579505Y-177966204D01*
G37*
D13*
X135105000Y-178540000D03*
D10*
G36*
X121244505Y-155511204D02*
G01*
X121268773Y-155514804D01*
X121292572Y-155520765D01*
X121315671Y-155529030D01*
X121337850Y-155539520D01*
X121358893Y-155552132D01*
X121378599Y-155566747D01*
X121396777Y-155583223D01*
X121413253Y-155601401D01*
X121427868Y-155621107D01*
X121440480Y-155642150D01*
X121450970Y-155664329D01*
X121459235Y-155687428D01*
X121465196Y-155711227D01*
X121468796Y-155735495D01*
X121470000Y-155759999D01*
X121470000Y-156660001D01*
X121468796Y-156684505D01*
X121465196Y-156708773D01*
X121459235Y-156732572D01*
X121450970Y-156755671D01*
X121440480Y-156777850D01*
X121427868Y-156798893D01*
X121413253Y-156818599D01*
X121396777Y-156836777D01*
X121378599Y-156853253D01*
X121358893Y-156867868D01*
X121337850Y-156880480D01*
X121315671Y-156890970D01*
X121292572Y-156899235D01*
X121268773Y-156905196D01*
X121244505Y-156908796D01*
X121220001Y-156910000D01*
X120569999Y-156910000D01*
X120545495Y-156908796D01*
X120521227Y-156905196D01*
X120497428Y-156899235D01*
X120474329Y-156890970D01*
X120452150Y-156880480D01*
X120431107Y-156867868D01*
X120411401Y-156853253D01*
X120393223Y-156836777D01*
X120376747Y-156818599D01*
X120362132Y-156798893D01*
X120349520Y-156777850D01*
X120339030Y-156755671D01*
X120330765Y-156732572D01*
X120324804Y-156708773D01*
X120321204Y-156684505D01*
X120320000Y-156660001D01*
X120320000Y-155759999D01*
X120321204Y-155735495D01*
X120324804Y-155711227D01*
X120330765Y-155687428D01*
X120339030Y-155664329D01*
X120349520Y-155642150D01*
X120362132Y-155621107D01*
X120376747Y-155601401D01*
X120393223Y-155583223D01*
X120411401Y-155566747D01*
X120431107Y-155552132D01*
X120452150Y-155539520D01*
X120474329Y-155529030D01*
X120497428Y-155520765D01*
X120521227Y-155514804D01*
X120545495Y-155511204D01*
X120569999Y-155510000D01*
X121220001Y-155510000D01*
X121244505Y-155511204D01*
X121244505Y-155511204D01*
G37*
D13*
X120895000Y-156210000D03*
D10*
G36*
X123294505Y-155511204D02*
G01*
X123318773Y-155514804D01*
X123342572Y-155520765D01*
X123365671Y-155529030D01*
X123387850Y-155539520D01*
X123408893Y-155552132D01*
X123428599Y-155566747D01*
X123446777Y-155583223D01*
X123463253Y-155601401D01*
X123477868Y-155621107D01*
X123490480Y-155642150D01*
X123500970Y-155664329D01*
X123509235Y-155687428D01*
X123515196Y-155711227D01*
X123518796Y-155735495D01*
X123520000Y-155759999D01*
X123520000Y-156660001D01*
X123518796Y-156684505D01*
X123515196Y-156708773D01*
X123509235Y-156732572D01*
X123500970Y-156755671D01*
X123490480Y-156777850D01*
X123477868Y-156798893D01*
X123463253Y-156818599D01*
X123446777Y-156836777D01*
X123428599Y-156853253D01*
X123408893Y-156867868D01*
X123387850Y-156880480D01*
X123365671Y-156890970D01*
X123342572Y-156899235D01*
X123318773Y-156905196D01*
X123294505Y-156908796D01*
X123270001Y-156910000D01*
X122619999Y-156910000D01*
X122595495Y-156908796D01*
X122571227Y-156905196D01*
X122547428Y-156899235D01*
X122524329Y-156890970D01*
X122502150Y-156880480D01*
X122481107Y-156867868D01*
X122461401Y-156853253D01*
X122443223Y-156836777D01*
X122426747Y-156818599D01*
X122412132Y-156798893D01*
X122399520Y-156777850D01*
X122389030Y-156755671D01*
X122380765Y-156732572D01*
X122374804Y-156708773D01*
X122371204Y-156684505D01*
X122370000Y-156660001D01*
X122370000Y-155759999D01*
X122371204Y-155735495D01*
X122374804Y-155711227D01*
X122380765Y-155687428D01*
X122389030Y-155664329D01*
X122399520Y-155642150D01*
X122412132Y-155621107D01*
X122426747Y-155601401D01*
X122443223Y-155583223D01*
X122461401Y-155566747D01*
X122481107Y-155552132D01*
X122502150Y-155539520D01*
X122524329Y-155529030D01*
X122547428Y-155520765D01*
X122571227Y-155514804D01*
X122595495Y-155511204D01*
X122619999Y-155510000D01*
X123270001Y-155510000D01*
X123294505Y-155511204D01*
X123294505Y-155511204D01*
G37*
D13*
X122945000Y-156210000D03*
D14*
X130620000Y-173090000D03*
X130620000Y-170550000D03*
X130620000Y-168010000D03*
D15*
X142050000Y-170550000D03*
M02*
