G04 #@! TF.GenerationSoftware,KiCad,Pcbnew,5.1.4*
G04 #@! TF.CreationDate,2019-11-01T23:16:51-03:00*
G04 #@! TF.ProjectId,fonte_18V_panel,666f6e74-655f-4313-9856-5f70616e656c,rev?*
G04 #@! TF.SameCoordinates,Original*
G04 #@! TF.FileFunction,Profile,NP*
%FSLAX46Y46*%
G04 Gerber Fmt 4.6, Leading zero omitted, Abs format (unit mm)*
G04 Created by KiCad (PCBNEW 5.1.4) date 2019-11-01 23:16:51*
%MOMM*%
%LPD*%
G04 APERTURE LIST*
%ADD10C,0.050000*%
G04 APERTURE END LIST*
D10*
X155400000Y-192200000D02*
X155400000Y-140200000D01*
X45400000Y-192200000D02*
X45400000Y-140200000D01*
X155400000Y-130200000D02*
X155400000Y-78200000D01*
X45400000Y-130200000D02*
X45400000Y-78200000D01*
X155400000Y-68200000D02*
X155400000Y-16200000D01*
X255400000Y-140200000D02*
X255400000Y-192200000D01*
X145400000Y-140200000D02*
X145400000Y-192200000D01*
X255400000Y-78200000D02*
X255400000Y-130200000D01*
X145400000Y-78200000D02*
X145400000Y-130200000D01*
X255400000Y-16200000D02*
X255400000Y-68200000D01*
X255400000Y-192200000D02*
X155400000Y-192200000D01*
X145400000Y-192200000D02*
X45400000Y-192200000D01*
X255400000Y-130200000D02*
X155400000Y-130200000D01*
X145400000Y-130200000D02*
X45400000Y-130200000D01*
X255400000Y-68200000D02*
X155400000Y-68200000D01*
X155400000Y-140200000D02*
X255400000Y-140200000D01*
X45400000Y-140200000D02*
X145400000Y-140200000D01*
X155400000Y-78200000D02*
X255400000Y-78200000D01*
X45400000Y-78200000D02*
X145400000Y-78200000D01*
X155400000Y-16200000D02*
X255400000Y-16200000D01*
X45400000Y-68200000D02*
X45400000Y-16200000D01*
X145400000Y-68200000D02*
X45400000Y-68200000D01*
X145400000Y-16200000D02*
X145400000Y-68200000D01*
X45400000Y-16200000D02*
X145400000Y-16200000D01*
M02*
