G04 #@! TF.GenerationSoftware,KiCad,Pcbnew,5.1.4-e60b266~84~ubuntu18.04.1*
G04 #@! TF.CreationDate,2019-10-29T18:19:43-03:00*
G04 #@! TF.ProjectId,fonte_18V,666f6e74-655f-4313-9856-2e6b69636164,rev?*
G04 #@! TF.SameCoordinates,Original*
G04 #@! TF.FileFunction,Soldermask,Top*
G04 #@! TF.FilePolarity,Negative*
%FSLAX46Y46*%
G04 Gerber Fmt 4.6, Leading zero omitted, Abs format (unit mm)*
G04 Created by KiCad (PCBNEW 5.1.4-e60b266~84~ubuntu18.04.1) date 2019-10-29 18:19:43*
%MOMM*%
%LPD*%
G04 APERTURE LIST*
%ADD10C,0.100000*%
G04 APERTURE END LIST*
D10*
G36*
X159375256Y-180391298D02*
G01*
X159481579Y-180412447D01*
X159782042Y-180536903D01*
X160052451Y-180717585D01*
X160282415Y-180947549D01*
X160463097Y-181217958D01*
X160587553Y-181518421D01*
X160651000Y-181837391D01*
X160651000Y-182162609D01*
X160587553Y-182481579D01*
X160463097Y-182782042D01*
X160282415Y-183052451D01*
X160052451Y-183282415D01*
X159782042Y-183463097D01*
X159481579Y-183587553D01*
X159375256Y-183608702D01*
X159162611Y-183651000D01*
X158837389Y-183651000D01*
X158624744Y-183608702D01*
X158518421Y-183587553D01*
X158217958Y-183463097D01*
X157947549Y-183282415D01*
X157717585Y-183052451D01*
X157536903Y-182782042D01*
X157412447Y-182481579D01*
X157349000Y-182162609D01*
X157349000Y-181837391D01*
X157412447Y-181518421D01*
X157536903Y-181217958D01*
X157717585Y-180947549D01*
X157947549Y-180717585D01*
X158217958Y-180536903D01*
X158518421Y-180412447D01*
X158624744Y-180391298D01*
X158837389Y-180349000D01*
X159162611Y-180349000D01*
X159375256Y-180391298D01*
X159375256Y-180391298D01*
G37*
G36*
X94375256Y-180391298D02*
G01*
X94481579Y-180412447D01*
X94782042Y-180536903D01*
X95052451Y-180717585D01*
X95282415Y-180947549D01*
X95463097Y-181217958D01*
X95587553Y-181518421D01*
X95651000Y-181837391D01*
X95651000Y-182162609D01*
X95587553Y-182481579D01*
X95463097Y-182782042D01*
X95282415Y-183052451D01*
X95052451Y-183282415D01*
X94782042Y-183463097D01*
X94481579Y-183587553D01*
X94375256Y-183608702D01*
X94162611Y-183651000D01*
X93837389Y-183651000D01*
X93624744Y-183608702D01*
X93518421Y-183587553D01*
X93217958Y-183463097D01*
X92947549Y-183282415D01*
X92717585Y-183052451D01*
X92536903Y-182782042D01*
X92412447Y-182481579D01*
X92349000Y-182162609D01*
X92349000Y-181837391D01*
X92412447Y-181518421D01*
X92536903Y-181217958D01*
X92717585Y-180947549D01*
X92947549Y-180717585D01*
X93217958Y-180536903D01*
X93518421Y-180412447D01*
X93624744Y-180391298D01*
X93837389Y-180349000D01*
X94162611Y-180349000D01*
X94375256Y-180391298D01*
X94375256Y-180391298D01*
G37*
G36*
X132518674Y-179968465D02*
G01*
X132556367Y-179979899D01*
X132591103Y-179998466D01*
X132621548Y-180023452D01*
X132646534Y-180053897D01*
X132665101Y-180088633D01*
X132676535Y-180126326D01*
X132681000Y-180171661D01*
X132681000Y-181008339D01*
X132676535Y-181053674D01*
X132665101Y-181091367D01*
X132646534Y-181126103D01*
X132621548Y-181156548D01*
X132591103Y-181181534D01*
X132556367Y-181200101D01*
X132518674Y-181211535D01*
X132473339Y-181216000D01*
X131386661Y-181216000D01*
X131341326Y-181211535D01*
X131303633Y-181200101D01*
X131268897Y-181181534D01*
X131238452Y-181156548D01*
X131213466Y-181126103D01*
X131194899Y-181091367D01*
X131183465Y-181053674D01*
X131179000Y-181008339D01*
X131179000Y-180171661D01*
X131183465Y-180126326D01*
X131194899Y-180088633D01*
X131213466Y-180053897D01*
X131238452Y-180023452D01*
X131268897Y-179998466D01*
X131303633Y-179979899D01*
X131341326Y-179968465D01*
X131386661Y-179964000D01*
X132473339Y-179964000D01*
X132518674Y-179968465D01*
X132518674Y-179968465D01*
G37*
G36*
X135693674Y-179968465D02*
G01*
X135731367Y-179979899D01*
X135766103Y-179998466D01*
X135796548Y-180023452D01*
X135821534Y-180053897D01*
X135840101Y-180088633D01*
X135851535Y-180126326D01*
X135856000Y-180171661D01*
X135856000Y-181008339D01*
X135851535Y-181053674D01*
X135840101Y-181091367D01*
X135821534Y-181126103D01*
X135796548Y-181156548D01*
X135766103Y-181181534D01*
X135731367Y-181200101D01*
X135693674Y-181211535D01*
X135648339Y-181216000D01*
X134561661Y-181216000D01*
X134516326Y-181211535D01*
X134478633Y-181200101D01*
X134443897Y-181181534D01*
X134413452Y-181156548D01*
X134388466Y-181126103D01*
X134369899Y-181091367D01*
X134358465Y-181053674D01*
X134354000Y-181008339D01*
X134354000Y-180171661D01*
X134358465Y-180126326D01*
X134369899Y-180088633D01*
X134388466Y-180053897D01*
X134413452Y-180023452D01*
X134443897Y-179998466D01*
X134478633Y-179979899D01*
X134516326Y-179968465D01*
X134561661Y-179964000D01*
X135648339Y-179964000D01*
X135693674Y-179968465D01*
X135693674Y-179968465D01*
G37*
G36*
X175571487Y-178016996D02*
G01*
X175766603Y-178097816D01*
X175808255Y-178115069D01*
X175914670Y-178186173D01*
X176021339Y-178257447D01*
X176202553Y-178438661D01*
X176344932Y-178651747D01*
X176443004Y-178888513D01*
X176493000Y-179139861D01*
X176493000Y-179396139D01*
X176443004Y-179647487D01*
X176344932Y-179884253D01*
X176344931Y-179884255D01*
X176202553Y-180097339D01*
X176021339Y-180278553D01*
X175808255Y-180420931D01*
X175808254Y-180420932D01*
X175808253Y-180420932D01*
X175571487Y-180519004D01*
X175320139Y-180569000D01*
X175063861Y-180569000D01*
X174812513Y-180519004D01*
X174575747Y-180420932D01*
X174575746Y-180420932D01*
X174575745Y-180420931D01*
X174362661Y-180278553D01*
X174181447Y-180097339D01*
X174039069Y-179884255D01*
X174039068Y-179884253D01*
X173940996Y-179647487D01*
X173891000Y-179396139D01*
X173891000Y-179139861D01*
X173940996Y-178888513D01*
X174039068Y-178651747D01*
X174181447Y-178438661D01*
X174362661Y-178257447D01*
X174469330Y-178186173D01*
X174575745Y-178115069D01*
X174617397Y-178097816D01*
X174812513Y-178016996D01*
X175063861Y-177967000D01*
X175320139Y-177967000D01*
X175571487Y-178016996D01*
X175571487Y-178016996D01*
G37*
G36*
X135693674Y-177918465D02*
G01*
X135731367Y-177929899D01*
X135766103Y-177948466D01*
X135796548Y-177973452D01*
X135821534Y-178003897D01*
X135840101Y-178038633D01*
X135851535Y-178076326D01*
X135856000Y-178121661D01*
X135856000Y-178958339D01*
X135851535Y-179003674D01*
X135840101Y-179041367D01*
X135821534Y-179076103D01*
X135796548Y-179106548D01*
X135766103Y-179131534D01*
X135731367Y-179150101D01*
X135693674Y-179161535D01*
X135648339Y-179166000D01*
X134561661Y-179166000D01*
X134516326Y-179161535D01*
X134478633Y-179150101D01*
X134443897Y-179131534D01*
X134413452Y-179106548D01*
X134388466Y-179076103D01*
X134369899Y-179041367D01*
X134358465Y-179003674D01*
X134354000Y-178958339D01*
X134354000Y-178121661D01*
X134358465Y-178076326D01*
X134369899Y-178038633D01*
X134388466Y-178003897D01*
X134413452Y-177973452D01*
X134443897Y-177948466D01*
X134478633Y-177929899D01*
X134516326Y-177918465D01*
X134561661Y-177914000D01*
X135648339Y-177914000D01*
X135693674Y-177918465D01*
X135693674Y-177918465D01*
G37*
G36*
X132518674Y-177918465D02*
G01*
X132556367Y-177929899D01*
X132591103Y-177948466D01*
X132621548Y-177973452D01*
X132646534Y-178003897D01*
X132665101Y-178038633D01*
X132676535Y-178076326D01*
X132681000Y-178121661D01*
X132681000Y-178958339D01*
X132676535Y-179003674D01*
X132665101Y-179041367D01*
X132646534Y-179076103D01*
X132621548Y-179106548D01*
X132591103Y-179131534D01*
X132556367Y-179150101D01*
X132518674Y-179161535D01*
X132473339Y-179166000D01*
X131386661Y-179166000D01*
X131341326Y-179161535D01*
X131303633Y-179150101D01*
X131268897Y-179131534D01*
X131238452Y-179106548D01*
X131213466Y-179076103D01*
X131194899Y-179041367D01*
X131183465Y-179003674D01*
X131179000Y-178958339D01*
X131179000Y-178121661D01*
X131183465Y-178076326D01*
X131194899Y-178038633D01*
X131213466Y-178003897D01*
X131238452Y-177973452D01*
X131268897Y-177948466D01*
X131303633Y-177929899D01*
X131341326Y-177918465D01*
X131386661Y-177914000D01*
X132473339Y-177914000D01*
X132518674Y-177918465D01*
X132518674Y-177918465D01*
G37*
G36*
X178789208Y-175429093D02*
G01*
X179130617Y-175570510D01*
X179130619Y-175570511D01*
X179437880Y-175775816D01*
X179699184Y-176037120D01*
X179828150Y-176230131D01*
X179904490Y-176344383D01*
X180045907Y-176685792D01*
X180118000Y-177048229D01*
X180118000Y-177417771D01*
X180045907Y-177780208D01*
X179947825Y-178016997D01*
X179904489Y-178121619D01*
X179699184Y-178428880D01*
X179437880Y-178690184D01*
X179130619Y-178895489D01*
X179130618Y-178895490D01*
X179130617Y-178895490D01*
X178789208Y-179036907D01*
X178426771Y-179109000D01*
X178057229Y-179109000D01*
X177694792Y-179036907D01*
X177353383Y-178895490D01*
X177353382Y-178895490D01*
X177353381Y-178895489D01*
X177046120Y-178690184D01*
X176784816Y-178428880D01*
X176579511Y-178121619D01*
X176536175Y-178016997D01*
X176438093Y-177780208D01*
X176366000Y-177417771D01*
X176366000Y-177048229D01*
X176438093Y-176685792D01*
X176579510Y-176344383D01*
X176655851Y-176230131D01*
X176784816Y-176037120D01*
X177046120Y-175775816D01*
X177353381Y-175570511D01*
X177353383Y-175570510D01*
X177694792Y-175429093D01*
X178057229Y-175357000D01*
X178426771Y-175357000D01*
X178789208Y-175429093D01*
X178789208Y-175429093D01*
G37*
G36*
X127148228Y-177195703D02*
G01*
X127303100Y-177259853D01*
X127442481Y-177352985D01*
X127561015Y-177471519D01*
X127654147Y-177610900D01*
X127718297Y-177765772D01*
X127751000Y-177930184D01*
X127751000Y-178097816D01*
X127718297Y-178262228D01*
X127654147Y-178417100D01*
X127561015Y-178556481D01*
X127442481Y-178675015D01*
X127303100Y-178768147D01*
X127148228Y-178832297D01*
X126983816Y-178865000D01*
X126816184Y-178865000D01*
X126651772Y-178832297D01*
X126496900Y-178768147D01*
X126357519Y-178675015D01*
X126238985Y-178556481D01*
X126145853Y-178417100D01*
X126081703Y-178262228D01*
X126049000Y-178097816D01*
X126049000Y-177930184D01*
X126081703Y-177765772D01*
X126145853Y-177610900D01*
X126238985Y-177471519D01*
X126357519Y-177352985D01*
X126496900Y-177259853D01*
X126651772Y-177195703D01*
X126816184Y-177163000D01*
X126983816Y-177163000D01*
X127148228Y-177195703D01*
X127148228Y-177195703D01*
G37*
G36*
X121406228Y-177195703D02*
G01*
X121561100Y-177259853D01*
X121700481Y-177352985D01*
X121819015Y-177471519D01*
X121912147Y-177610900D01*
X121976297Y-177765772D01*
X122009000Y-177930184D01*
X122009000Y-178097816D01*
X121976297Y-178262228D01*
X121912147Y-178417100D01*
X121819015Y-178556481D01*
X121700481Y-178675015D01*
X121561100Y-178768147D01*
X121406228Y-178832297D01*
X121241816Y-178865000D01*
X121074184Y-178865000D01*
X120909772Y-178832297D01*
X120754900Y-178768147D01*
X120615519Y-178675015D01*
X120496985Y-178556481D01*
X120403853Y-178417100D01*
X120339703Y-178262228D01*
X120307000Y-178097816D01*
X120307000Y-177930184D01*
X120339703Y-177765772D01*
X120403853Y-177610900D01*
X120496985Y-177471519D01*
X120615519Y-177352985D01*
X120754900Y-177259853D01*
X120909772Y-177195703D01*
X121074184Y-177163000D01*
X121241816Y-177163000D01*
X121406228Y-177195703D01*
X121406228Y-177195703D01*
G37*
G36*
X172693000Y-176764000D02*
G01*
X171091000Y-176764000D01*
X171091000Y-175162000D01*
X172693000Y-175162000D01*
X172693000Y-176764000D01*
X172693000Y-176764000D01*
G37*
G36*
X150601000Y-176601000D02*
G01*
X133499000Y-176601000D01*
X133499000Y-164499000D01*
X150601000Y-164499000D01*
X150601000Y-176601000D01*
X150601000Y-176601000D01*
G37*
G36*
X122009000Y-176365000D02*
G01*
X120307000Y-176365000D01*
X120307000Y-174663000D01*
X122009000Y-174663000D01*
X122009000Y-176365000D01*
X122009000Y-176365000D01*
G37*
G36*
X127751000Y-176365000D02*
G01*
X126049000Y-176365000D01*
X126049000Y-174663000D01*
X127751000Y-174663000D01*
X127751000Y-176365000D01*
X127751000Y-176365000D01*
G37*
G36*
X115523674Y-175028465D02*
G01*
X115561367Y-175039899D01*
X115596103Y-175058466D01*
X115626548Y-175083452D01*
X115651534Y-175113897D01*
X115670101Y-175148633D01*
X115681535Y-175186326D01*
X115686000Y-175231661D01*
X115686000Y-176068339D01*
X115681535Y-176113674D01*
X115670101Y-176151367D01*
X115651534Y-176186103D01*
X115626548Y-176216548D01*
X115596103Y-176241534D01*
X115561367Y-176260101D01*
X115523674Y-176271535D01*
X115478339Y-176276000D01*
X114391661Y-176276000D01*
X114346326Y-176271535D01*
X114308633Y-176260101D01*
X114273897Y-176241534D01*
X114243452Y-176216548D01*
X114218466Y-176186103D01*
X114199899Y-176151367D01*
X114188465Y-176113674D01*
X114184000Y-176068339D01*
X114184000Y-175231661D01*
X114188465Y-175186326D01*
X114199899Y-175148633D01*
X114218466Y-175113897D01*
X114243452Y-175083452D01*
X114273897Y-175058466D01*
X114308633Y-175039899D01*
X114346326Y-175028465D01*
X114391661Y-175024000D01*
X115478339Y-175024000D01*
X115523674Y-175028465D01*
X115523674Y-175028465D01*
G37*
G36*
X169585642Y-173922781D02*
G01*
X169731414Y-173983162D01*
X169731416Y-173983163D01*
X169862608Y-174070822D01*
X169974178Y-174182392D01*
X170061837Y-174313584D01*
X170061838Y-174313586D01*
X170122219Y-174459358D01*
X170153000Y-174614107D01*
X170153000Y-174771893D01*
X170122219Y-174926642D01*
X170081892Y-175024000D01*
X170061837Y-175072416D01*
X169974178Y-175203608D01*
X169862608Y-175315178D01*
X169731416Y-175402837D01*
X169731415Y-175402838D01*
X169731414Y-175402838D01*
X169585642Y-175463219D01*
X169430893Y-175494000D01*
X169273107Y-175494000D01*
X169118358Y-175463219D01*
X168972586Y-175402838D01*
X168972585Y-175402838D01*
X168972584Y-175402837D01*
X168841392Y-175315178D01*
X168729822Y-175203608D01*
X168642163Y-175072416D01*
X168622108Y-175024000D01*
X168581781Y-174926642D01*
X168551000Y-174771893D01*
X168551000Y-174614107D01*
X168581781Y-174459358D01*
X168642162Y-174313586D01*
X168642163Y-174313584D01*
X168729822Y-174182392D01*
X168841392Y-174070822D01*
X168972584Y-173983163D01*
X168972586Y-173983162D01*
X169118358Y-173922781D01*
X169273107Y-173892000D01*
X169430893Y-173892000D01*
X169585642Y-173922781D01*
X169585642Y-173922781D01*
G37*
G36*
X115523674Y-172978465D02*
G01*
X115561367Y-172989899D01*
X115596103Y-173008466D01*
X115626548Y-173033452D01*
X115651534Y-173063897D01*
X115670101Y-173098633D01*
X115681535Y-173136326D01*
X115686000Y-173181661D01*
X115686000Y-174018339D01*
X115681535Y-174063674D01*
X115670101Y-174101367D01*
X115651534Y-174136103D01*
X115626548Y-174166548D01*
X115596103Y-174191534D01*
X115561367Y-174210101D01*
X115523674Y-174221535D01*
X115478339Y-174226000D01*
X114391661Y-174226000D01*
X114346326Y-174221535D01*
X114308633Y-174210101D01*
X114273897Y-174191534D01*
X114243452Y-174166548D01*
X114218466Y-174136103D01*
X114199899Y-174101367D01*
X114188465Y-174063674D01*
X114184000Y-174018339D01*
X114184000Y-173181661D01*
X114188465Y-173136326D01*
X114199899Y-173098633D01*
X114218466Y-173063897D01*
X114243452Y-173033452D01*
X114273897Y-173008466D01*
X114308633Y-172989899D01*
X114346326Y-172978465D01*
X114391661Y-172974000D01*
X115478339Y-172974000D01*
X115523674Y-172978465D01*
X115523674Y-172978465D01*
G37*
G36*
X172125642Y-172652781D02*
G01*
X172271414Y-172713162D01*
X172271416Y-172713163D01*
X172402608Y-172800822D01*
X172514178Y-172912392D01*
X172558326Y-172978465D01*
X172601838Y-173043586D01*
X172662219Y-173189358D01*
X172693000Y-173344107D01*
X172693000Y-173501893D01*
X172662219Y-173656642D01*
X172601838Y-173802414D01*
X172601837Y-173802416D01*
X172514178Y-173933608D01*
X172402608Y-174045178D01*
X172271416Y-174132837D01*
X172271415Y-174132838D01*
X172271414Y-174132838D01*
X172125642Y-174193219D01*
X171970893Y-174224000D01*
X171813107Y-174224000D01*
X171658358Y-174193219D01*
X171512586Y-174132838D01*
X171512585Y-174132838D01*
X171512584Y-174132837D01*
X171381392Y-174045178D01*
X171269822Y-173933608D01*
X171182163Y-173802416D01*
X171182162Y-173802414D01*
X171121781Y-173656642D01*
X171091000Y-173501893D01*
X171091000Y-173344107D01*
X171121781Y-173189358D01*
X171182162Y-173043586D01*
X171225674Y-172978465D01*
X171269822Y-172912392D01*
X171381392Y-172800822D01*
X171512584Y-172713163D01*
X171512586Y-172713162D01*
X171658358Y-172652781D01*
X171813107Y-172622000D01*
X171970893Y-172622000D01*
X172125642Y-172652781D01*
X172125642Y-172652781D01*
G37*
G36*
X132671000Y-174093500D02*
G01*
X128569000Y-174093500D01*
X128569000Y-172086500D01*
X132671000Y-172086500D01*
X132671000Y-174093500D01*
X132671000Y-174093500D01*
G37*
G36*
X169585642Y-171382781D02*
G01*
X169731414Y-171443162D01*
X169731416Y-171443163D01*
X169862608Y-171530822D01*
X169974178Y-171642392D01*
X169981412Y-171653219D01*
X170061838Y-171773586D01*
X170122219Y-171919358D01*
X170153000Y-172074107D01*
X170153000Y-172231893D01*
X170122219Y-172386642D01*
X170061838Y-172532414D01*
X170061837Y-172532416D01*
X169974178Y-172663608D01*
X169862608Y-172775178D01*
X169731416Y-172862837D01*
X169731415Y-172862838D01*
X169731414Y-172862838D01*
X169585642Y-172923219D01*
X169430893Y-172954000D01*
X169273107Y-172954000D01*
X169118358Y-172923219D01*
X168972586Y-172862838D01*
X168972585Y-172862838D01*
X168972584Y-172862837D01*
X168841392Y-172775178D01*
X168729822Y-172663608D01*
X168642163Y-172532416D01*
X168642162Y-172532414D01*
X168581781Y-172386642D01*
X168551000Y-172231893D01*
X168551000Y-172074107D01*
X168581781Y-171919358D01*
X168642162Y-171773586D01*
X168722588Y-171653219D01*
X168729822Y-171642392D01*
X168841392Y-171530822D01*
X168972584Y-171443163D01*
X168972586Y-171443162D01*
X169118358Y-171382781D01*
X169273107Y-171352000D01*
X169430893Y-171352000D01*
X169585642Y-171382781D01*
X169585642Y-171382781D01*
G37*
G36*
X172125642Y-170112781D02*
G01*
X172271414Y-170173162D01*
X172271416Y-170173163D01*
X172402608Y-170260822D01*
X172514178Y-170372392D01*
X172601837Y-170503584D01*
X172601838Y-170503586D01*
X172662219Y-170649358D01*
X172693000Y-170804107D01*
X172693000Y-170961893D01*
X172662219Y-171116642D01*
X172601838Y-171262414D01*
X172601837Y-171262416D01*
X172514178Y-171393608D01*
X172402608Y-171505178D01*
X172271416Y-171592837D01*
X172271415Y-171592838D01*
X172271414Y-171592838D01*
X172125642Y-171653219D01*
X171970893Y-171684000D01*
X171813107Y-171684000D01*
X171658358Y-171653219D01*
X171512586Y-171592838D01*
X171512585Y-171592838D01*
X171512584Y-171592837D01*
X171381392Y-171505178D01*
X171269822Y-171393608D01*
X171182163Y-171262416D01*
X171182162Y-171262414D01*
X171121781Y-171116642D01*
X171091000Y-170961893D01*
X171091000Y-170804107D01*
X171121781Y-170649358D01*
X171182162Y-170503586D01*
X171182163Y-170503584D01*
X171269822Y-170372392D01*
X171381392Y-170260822D01*
X171512584Y-170173163D01*
X171512586Y-170173162D01*
X171658358Y-170112781D01*
X171813107Y-170082000D01*
X171970893Y-170082000D01*
X172125642Y-170112781D01*
X172125642Y-170112781D01*
G37*
G36*
X132671000Y-171553500D02*
G01*
X128569000Y-171553500D01*
X128569000Y-169546500D01*
X132671000Y-169546500D01*
X132671000Y-171553500D01*
X132671000Y-171553500D01*
G37*
G36*
X108602331Y-166924211D02*
G01*
X108930092Y-167059974D01*
X109225070Y-167257072D01*
X109475928Y-167507930D01*
X109673026Y-167802908D01*
X109808789Y-168130669D01*
X109878000Y-168478616D01*
X109878000Y-168833384D01*
X109808789Y-169181331D01*
X109673026Y-169509092D01*
X109475928Y-169804070D01*
X109225070Y-170054928D01*
X108930092Y-170252026D01*
X108602331Y-170387789D01*
X108254384Y-170457000D01*
X107899616Y-170457000D01*
X107551669Y-170387789D01*
X107223908Y-170252026D01*
X106928930Y-170054928D01*
X106678072Y-169804070D01*
X106480974Y-169509092D01*
X106345211Y-169181331D01*
X106276000Y-168833384D01*
X106276000Y-168478616D01*
X106345211Y-168130669D01*
X106480974Y-167802908D01*
X106678072Y-167507930D01*
X106928930Y-167257072D01*
X107223908Y-167059974D01*
X107551669Y-166924211D01*
X107899616Y-166855000D01*
X108254384Y-166855000D01*
X108602331Y-166924211D01*
X108602331Y-166924211D01*
G37*
G36*
X169585642Y-168842781D02*
G01*
X169702301Y-168891103D01*
X169731416Y-168903163D01*
X169862608Y-168990822D01*
X169974178Y-169102392D01*
X170061837Y-169233584D01*
X170061838Y-169233586D01*
X170122219Y-169379358D01*
X170153000Y-169534107D01*
X170153000Y-169691893D01*
X170122219Y-169846642D01*
X170061838Y-169992414D01*
X170061837Y-169992416D01*
X169974178Y-170123608D01*
X169862608Y-170235178D01*
X169731416Y-170322837D01*
X169731415Y-170322838D01*
X169731414Y-170322838D01*
X169585642Y-170383219D01*
X169430893Y-170414000D01*
X169273107Y-170414000D01*
X169118358Y-170383219D01*
X168972586Y-170322838D01*
X168972585Y-170322838D01*
X168972584Y-170322837D01*
X168841392Y-170235178D01*
X168729822Y-170123608D01*
X168642163Y-169992416D01*
X168642162Y-169992414D01*
X168581781Y-169846642D01*
X168551000Y-169691893D01*
X168551000Y-169534107D01*
X168581781Y-169379358D01*
X168642162Y-169233586D01*
X168642163Y-169233584D01*
X168729822Y-169102392D01*
X168841392Y-168990822D01*
X168972584Y-168903163D01*
X169001699Y-168891103D01*
X169118358Y-168842781D01*
X169273107Y-168812000D01*
X169430893Y-168812000D01*
X169585642Y-168842781D01*
X169585642Y-168842781D01*
G37*
G36*
X100328871Y-167359786D02*
G01*
X100534530Y-167422172D01*
X100724055Y-167523475D01*
X100724058Y-167523477D01*
X100724059Y-167523478D01*
X100890186Y-167659814D01*
X101018906Y-167816661D01*
X101026525Y-167825945D01*
X101127828Y-168015470D01*
X101190214Y-168221129D01*
X101211278Y-168435000D01*
X101190214Y-168648871D01*
X101143900Y-168801548D01*
X101136321Y-168826534D01*
X101127828Y-168854530D01*
X101026525Y-169044055D01*
X101026523Y-169044058D01*
X101026522Y-169044059D01*
X100890186Y-169210186D01*
X100724059Y-169346522D01*
X100724055Y-169346525D01*
X100534530Y-169447828D01*
X100328871Y-169510214D01*
X100168591Y-169526000D01*
X98541409Y-169526000D01*
X98381129Y-169510214D01*
X98175470Y-169447828D01*
X97985945Y-169346525D01*
X97985941Y-169346522D01*
X97819814Y-169210186D01*
X97683478Y-169044059D01*
X97683477Y-169044058D01*
X97683475Y-169044055D01*
X97582172Y-168854530D01*
X97573680Y-168826534D01*
X97566100Y-168801548D01*
X97519786Y-168648871D01*
X97498722Y-168435000D01*
X97519786Y-168221129D01*
X97582172Y-168015470D01*
X97683475Y-167825945D01*
X97691094Y-167816661D01*
X97819814Y-167659814D01*
X97985941Y-167523478D01*
X97985942Y-167523477D01*
X97985945Y-167523475D01*
X98175470Y-167422172D01*
X98381129Y-167359786D01*
X98541409Y-167344000D01*
X100168591Y-167344000D01*
X100328871Y-167359786D01*
X100328871Y-167359786D01*
G37*
G36*
X122508674Y-168043465D02*
G01*
X122546367Y-168054899D01*
X122581103Y-168073466D01*
X122611548Y-168098452D01*
X122636534Y-168128897D01*
X122655101Y-168163633D01*
X122666535Y-168201326D01*
X122671000Y-168246661D01*
X122671000Y-169083339D01*
X122666535Y-169128674D01*
X122655101Y-169166367D01*
X122636534Y-169201103D01*
X122611548Y-169231548D01*
X122581103Y-169256534D01*
X122546367Y-169275101D01*
X122508674Y-169286535D01*
X122463339Y-169291000D01*
X121376661Y-169291000D01*
X121331326Y-169286535D01*
X121293633Y-169275101D01*
X121258897Y-169256534D01*
X121228452Y-169231548D01*
X121203466Y-169201103D01*
X121184899Y-169166367D01*
X121173465Y-169128674D01*
X121169000Y-169083339D01*
X121169000Y-168246661D01*
X121173465Y-168201326D01*
X121184899Y-168163633D01*
X121203466Y-168128897D01*
X121228452Y-168098452D01*
X121258897Y-168073466D01*
X121293633Y-168054899D01*
X121331326Y-168043465D01*
X121376661Y-168039000D01*
X122463339Y-168039000D01*
X122508674Y-168043465D01*
X122508674Y-168043465D01*
G37*
G36*
X172125642Y-167572781D02*
G01*
X172223861Y-167613465D01*
X172271416Y-167633163D01*
X172402608Y-167720822D01*
X172514178Y-167832392D01*
X172591474Y-167948075D01*
X172601838Y-167963586D01*
X172662219Y-168109358D01*
X172693000Y-168264107D01*
X172693000Y-168421893D01*
X172662219Y-168576642D01*
X172630450Y-168653339D01*
X172601837Y-168722416D01*
X172514178Y-168853608D01*
X172402608Y-168965178D01*
X172271416Y-169052837D01*
X172271415Y-169052838D01*
X172271414Y-169052838D01*
X172125642Y-169113219D01*
X171970893Y-169144000D01*
X171813107Y-169144000D01*
X171658358Y-169113219D01*
X171512586Y-169052838D01*
X171512585Y-169052838D01*
X171512584Y-169052837D01*
X171381392Y-168965178D01*
X171269822Y-168853608D01*
X171182163Y-168722416D01*
X171153550Y-168653339D01*
X171121781Y-168576642D01*
X171091000Y-168421893D01*
X171091000Y-168264107D01*
X171121781Y-168109358D01*
X171182162Y-167963586D01*
X171192526Y-167948075D01*
X171269822Y-167832392D01*
X171381392Y-167720822D01*
X171512584Y-167633163D01*
X171560139Y-167613465D01*
X171658358Y-167572781D01*
X171813107Y-167542000D01*
X171970893Y-167542000D01*
X172125642Y-167572781D01*
X172125642Y-167572781D01*
G37*
G36*
X132671000Y-169013500D02*
G01*
X128569000Y-169013500D01*
X128569000Y-167006500D01*
X132671000Y-167006500D01*
X132671000Y-169013500D01*
X132671000Y-169013500D01*
G37*
G36*
X157328674Y-167733465D02*
G01*
X157366367Y-167744899D01*
X157401103Y-167763466D01*
X157431548Y-167788452D01*
X157456534Y-167818897D01*
X157475101Y-167853633D01*
X157486535Y-167891326D01*
X157491000Y-167936661D01*
X157491000Y-168773339D01*
X157486535Y-168818674D01*
X157475101Y-168856367D01*
X157456534Y-168891103D01*
X157431548Y-168921548D01*
X157401103Y-168946534D01*
X157366367Y-168965101D01*
X157328674Y-168976535D01*
X157283339Y-168981000D01*
X156196661Y-168981000D01*
X156151326Y-168976535D01*
X156113633Y-168965101D01*
X156078897Y-168946534D01*
X156048452Y-168921548D01*
X156023466Y-168891103D01*
X156004899Y-168856367D01*
X155993465Y-168818674D01*
X155989000Y-168773339D01*
X155989000Y-167936661D01*
X155993465Y-167891326D01*
X156004899Y-167853633D01*
X156023466Y-167818897D01*
X156048452Y-167788452D01*
X156078897Y-167763466D01*
X156113633Y-167744899D01*
X156151326Y-167733465D01*
X156196661Y-167729000D01*
X157283339Y-167729000D01*
X157328674Y-167733465D01*
X157328674Y-167733465D01*
G37*
G36*
X154498674Y-167613465D02*
G01*
X154536367Y-167624899D01*
X154571103Y-167643466D01*
X154601548Y-167668452D01*
X154626534Y-167698897D01*
X154645101Y-167733633D01*
X154656535Y-167771326D01*
X154661000Y-167816661D01*
X154661000Y-168653339D01*
X154656535Y-168698674D01*
X154645101Y-168736367D01*
X154626534Y-168771103D01*
X154601548Y-168801548D01*
X154571103Y-168826534D01*
X154536367Y-168845101D01*
X154498674Y-168856535D01*
X154453339Y-168861000D01*
X153366661Y-168861000D01*
X153321326Y-168856535D01*
X153283633Y-168845101D01*
X153248897Y-168826534D01*
X153218452Y-168801548D01*
X153193466Y-168771103D01*
X153174899Y-168736367D01*
X153163465Y-168698674D01*
X153159000Y-168653339D01*
X153159000Y-167816661D01*
X153163465Y-167771326D01*
X153174899Y-167733633D01*
X153193466Y-167698897D01*
X153218452Y-167668452D01*
X153248897Y-167643466D01*
X153283633Y-167624899D01*
X153321326Y-167613465D01*
X153366661Y-167609000D01*
X154453339Y-167609000D01*
X154498674Y-167613465D01*
X154498674Y-167613465D01*
G37*
G36*
X169585642Y-166302781D02*
G01*
X169731414Y-166363162D01*
X169731416Y-166363163D01*
X169862608Y-166450822D01*
X169974178Y-166562392D01*
X170060524Y-166691619D01*
X170061838Y-166693586D01*
X170122219Y-166839358D01*
X170153000Y-166994107D01*
X170153000Y-167151893D01*
X170122219Y-167306642D01*
X170061838Y-167452414D01*
X170061837Y-167452416D01*
X169974178Y-167583608D01*
X169862608Y-167695178D01*
X169731416Y-167782837D01*
X169731415Y-167782838D01*
X169731414Y-167782838D01*
X169585642Y-167843219D01*
X169430893Y-167874000D01*
X169273107Y-167874000D01*
X169118358Y-167843219D01*
X168972586Y-167782838D01*
X168972585Y-167782838D01*
X168972584Y-167782837D01*
X168841392Y-167695178D01*
X168729822Y-167583608D01*
X168642163Y-167452416D01*
X168642162Y-167452414D01*
X168581781Y-167306642D01*
X168551000Y-167151893D01*
X168551000Y-166994107D01*
X168581781Y-166839358D01*
X168642162Y-166693586D01*
X168643476Y-166691619D01*
X168729822Y-166562392D01*
X168841392Y-166450822D01*
X168972584Y-166363163D01*
X168972586Y-166363162D01*
X169118358Y-166302781D01*
X169273107Y-166272000D01*
X169430893Y-166272000D01*
X169585642Y-166302781D01*
X169585642Y-166302781D01*
G37*
G36*
X178789208Y-163999093D02*
G01*
X179130617Y-164140510D01*
X179130619Y-164140511D01*
X179345521Y-164284104D01*
X179437880Y-164345816D01*
X179699184Y-164607120D01*
X179904490Y-164914383D01*
X180045907Y-165255792D01*
X180118000Y-165618229D01*
X180118000Y-165987771D01*
X180045907Y-166350208D01*
X179905144Y-166690038D01*
X179904489Y-166691619D01*
X179699184Y-166998880D01*
X179437880Y-167260184D01*
X179130619Y-167465489D01*
X179130618Y-167465490D01*
X179130617Y-167465490D01*
X178789208Y-167606907D01*
X178426771Y-167679000D01*
X178057229Y-167679000D01*
X177694792Y-167606907D01*
X177353383Y-167465490D01*
X177353382Y-167465490D01*
X177353381Y-167465489D01*
X177046120Y-167260184D01*
X176784816Y-166998880D01*
X176579511Y-166691619D01*
X176578856Y-166690038D01*
X176438093Y-166350208D01*
X176366000Y-165987771D01*
X176366000Y-165618229D01*
X176438093Y-165255792D01*
X176579510Y-164914383D01*
X176784816Y-164607120D01*
X177046120Y-164345816D01*
X177138479Y-164284104D01*
X177353381Y-164140511D01*
X177353383Y-164140510D01*
X177694792Y-163999093D01*
X178057229Y-163927000D01*
X178426771Y-163927000D01*
X178789208Y-163999093D01*
X178789208Y-163999093D01*
G37*
G36*
X122508674Y-165993465D02*
G01*
X122546367Y-166004899D01*
X122581103Y-166023466D01*
X122611548Y-166048452D01*
X122636534Y-166078897D01*
X122655101Y-166113633D01*
X122666535Y-166151326D01*
X122671000Y-166196661D01*
X122671000Y-167033339D01*
X122666535Y-167078674D01*
X122655101Y-167116367D01*
X122636534Y-167151103D01*
X122611548Y-167181548D01*
X122581103Y-167206534D01*
X122546367Y-167225101D01*
X122508674Y-167236535D01*
X122463339Y-167241000D01*
X121376661Y-167241000D01*
X121331326Y-167236535D01*
X121293633Y-167225101D01*
X121258897Y-167206534D01*
X121228452Y-167181548D01*
X121203466Y-167151103D01*
X121184899Y-167116367D01*
X121173465Y-167078674D01*
X121169000Y-167033339D01*
X121169000Y-166196661D01*
X121173465Y-166151326D01*
X121184899Y-166113633D01*
X121203466Y-166078897D01*
X121228452Y-166048452D01*
X121258897Y-166023466D01*
X121293633Y-166004899D01*
X121331326Y-165993465D01*
X121376661Y-165989000D01*
X122463339Y-165989000D01*
X122508674Y-165993465D01*
X122508674Y-165993465D01*
G37*
G36*
X157328674Y-165683465D02*
G01*
X157366367Y-165694899D01*
X157401103Y-165713466D01*
X157431548Y-165738452D01*
X157456534Y-165768897D01*
X157475101Y-165803633D01*
X157486535Y-165841326D01*
X157491000Y-165886661D01*
X157491000Y-166723339D01*
X157486535Y-166768674D01*
X157475101Y-166806367D01*
X157456534Y-166841103D01*
X157431548Y-166871548D01*
X157401103Y-166896534D01*
X157366367Y-166915101D01*
X157328674Y-166926535D01*
X157283339Y-166931000D01*
X156196661Y-166931000D01*
X156151326Y-166926535D01*
X156113633Y-166915101D01*
X156078897Y-166896534D01*
X156048452Y-166871548D01*
X156023466Y-166841103D01*
X156004899Y-166806367D01*
X155993465Y-166768674D01*
X155989000Y-166723339D01*
X155989000Y-165886661D01*
X155993465Y-165841326D01*
X156004899Y-165803633D01*
X156023466Y-165768897D01*
X156048452Y-165738452D01*
X156078897Y-165713466D01*
X156113633Y-165694899D01*
X156151326Y-165683465D01*
X156196661Y-165679000D01*
X157283339Y-165679000D01*
X157328674Y-165683465D01*
X157328674Y-165683465D01*
G37*
G36*
X154498674Y-165563465D02*
G01*
X154536367Y-165574899D01*
X154571103Y-165593466D01*
X154601548Y-165618452D01*
X154626534Y-165648897D01*
X154645101Y-165683633D01*
X154656535Y-165721326D01*
X154661000Y-165766661D01*
X154661000Y-166603339D01*
X154656535Y-166648674D01*
X154645101Y-166686367D01*
X154626534Y-166721103D01*
X154601548Y-166751548D01*
X154571103Y-166776534D01*
X154536367Y-166795101D01*
X154498674Y-166806535D01*
X154453339Y-166811000D01*
X153366661Y-166811000D01*
X153321326Y-166806535D01*
X153283633Y-166795101D01*
X153248897Y-166776534D01*
X153218452Y-166751548D01*
X153193466Y-166721103D01*
X153174899Y-166686367D01*
X153163465Y-166648674D01*
X153159000Y-166603339D01*
X153159000Y-165766661D01*
X153163465Y-165721326D01*
X153174899Y-165683633D01*
X153193466Y-165648897D01*
X153218452Y-165618452D01*
X153248897Y-165593466D01*
X153283633Y-165574899D01*
X153321326Y-165563465D01*
X153366661Y-165559000D01*
X154453339Y-165559000D01*
X154498674Y-165563465D01*
X154498674Y-165563465D01*
G37*
G36*
X175571487Y-162516996D02*
G01*
X175808253Y-162615068D01*
X175808255Y-162615069D01*
X176021339Y-162757447D01*
X176202553Y-162938661D01*
X176318696Y-163112481D01*
X176344932Y-163151747D01*
X176443004Y-163388513D01*
X176493000Y-163639861D01*
X176493000Y-163896139D01*
X176443004Y-164147487D01*
X176367634Y-164329445D01*
X176344931Y-164384255D01*
X176202553Y-164597339D01*
X176021339Y-164778553D01*
X175808255Y-164920931D01*
X175808254Y-164920932D01*
X175808253Y-164920932D01*
X175571487Y-165019004D01*
X175320139Y-165069000D01*
X175063861Y-165069000D01*
X174812513Y-165019004D01*
X174575747Y-164920932D01*
X174575746Y-164920932D01*
X174575745Y-164920931D01*
X174362661Y-164778553D01*
X174181447Y-164597339D01*
X174039069Y-164384255D01*
X174016366Y-164329445D01*
X173940996Y-164147487D01*
X173891000Y-163896139D01*
X173891000Y-163639861D01*
X173940996Y-163388513D01*
X174039068Y-163151747D01*
X174065305Y-163112481D01*
X174181447Y-162938661D01*
X174362661Y-162757447D01*
X174575745Y-162615069D01*
X174575747Y-162615068D01*
X174812513Y-162516996D01*
X175063861Y-162467000D01*
X175320139Y-162467000D01*
X175571487Y-162516996D01*
X175571487Y-162516996D01*
G37*
G36*
X101071217Y-162267808D02*
G01*
X101102489Y-162277294D01*
X101131308Y-162292698D01*
X101156570Y-162313430D01*
X101177302Y-162338692D01*
X101192706Y-162367511D01*
X101202192Y-162398783D01*
X101206000Y-162437448D01*
X101206000Y-164272552D01*
X101202192Y-164311217D01*
X101192706Y-164342489D01*
X101177302Y-164371308D01*
X101156570Y-164396570D01*
X101131308Y-164417302D01*
X101102489Y-164432706D01*
X101071217Y-164442192D01*
X101032552Y-164446000D01*
X97677448Y-164446000D01*
X97638783Y-164442192D01*
X97607511Y-164432706D01*
X97578692Y-164417302D01*
X97553430Y-164396570D01*
X97532698Y-164371308D01*
X97517294Y-164342489D01*
X97507808Y-164311217D01*
X97504000Y-164272552D01*
X97504000Y-162437448D01*
X97507808Y-162398783D01*
X97517294Y-162367511D01*
X97532698Y-162338692D01*
X97553430Y-162313430D01*
X97578692Y-162292698D01*
X97607511Y-162277294D01*
X97638783Y-162267808D01*
X97677448Y-162264000D01*
X101032552Y-162264000D01*
X101071217Y-162267808D01*
X101071217Y-162267808D01*
G37*
G36*
X116793674Y-162328465D02*
G01*
X116831367Y-162339899D01*
X116866103Y-162358466D01*
X116896548Y-162383452D01*
X116921534Y-162413897D01*
X116940101Y-162448633D01*
X116951535Y-162486326D01*
X116956000Y-162531661D01*
X116956000Y-163368339D01*
X116951535Y-163413674D01*
X116940101Y-163451367D01*
X116921534Y-163486103D01*
X116896548Y-163516548D01*
X116866103Y-163541534D01*
X116831367Y-163560101D01*
X116793674Y-163571535D01*
X116748339Y-163576000D01*
X115661661Y-163576000D01*
X115616326Y-163571535D01*
X115578633Y-163560101D01*
X115543897Y-163541534D01*
X115513452Y-163516548D01*
X115488466Y-163486103D01*
X115469899Y-163451367D01*
X115458465Y-163413674D01*
X115454000Y-163368339D01*
X115454000Y-162531661D01*
X115458465Y-162486326D01*
X115469899Y-162448633D01*
X115488466Y-162413897D01*
X115513452Y-162383452D01*
X115543897Y-162358466D01*
X115578633Y-162339899D01*
X115616326Y-162328465D01*
X115661661Y-162324000D01*
X116748339Y-162324000D01*
X116793674Y-162328465D01*
X116793674Y-162328465D01*
G37*
G36*
X125329928Y-162846764D02*
G01*
X125351009Y-162853160D01*
X125370445Y-162863548D01*
X125387476Y-162877524D01*
X125401452Y-162894555D01*
X125411840Y-162913991D01*
X125418236Y-162935072D01*
X125421000Y-162963140D01*
X125421000Y-163426860D01*
X125418236Y-163454928D01*
X125411840Y-163476009D01*
X125401452Y-163495445D01*
X125387476Y-163512476D01*
X125370445Y-163526452D01*
X125351009Y-163536840D01*
X125329928Y-163543236D01*
X125301860Y-163546000D01*
X123663140Y-163546000D01*
X123635072Y-163543236D01*
X123613991Y-163536840D01*
X123594555Y-163526452D01*
X123577524Y-163512476D01*
X123563548Y-163495445D01*
X123553160Y-163476009D01*
X123546764Y-163454928D01*
X123544000Y-163426860D01*
X123544000Y-162963140D01*
X123546764Y-162935072D01*
X123553160Y-162913991D01*
X123563548Y-162894555D01*
X123577524Y-162877524D01*
X123594555Y-162863548D01*
X123613991Y-162853160D01*
X123635072Y-162846764D01*
X123663140Y-162844000D01*
X125301860Y-162844000D01*
X125329928Y-162846764D01*
X125329928Y-162846764D01*
G37*
G36*
X120204928Y-162846764D02*
G01*
X120226009Y-162853160D01*
X120245445Y-162863548D01*
X120262476Y-162877524D01*
X120276452Y-162894555D01*
X120286840Y-162913991D01*
X120293236Y-162935072D01*
X120296000Y-162963140D01*
X120296000Y-163426860D01*
X120293236Y-163454928D01*
X120286840Y-163476009D01*
X120276452Y-163495445D01*
X120262476Y-163512476D01*
X120245445Y-163526452D01*
X120226009Y-163536840D01*
X120204928Y-163543236D01*
X120176860Y-163546000D01*
X118538140Y-163546000D01*
X118510072Y-163543236D01*
X118488991Y-163536840D01*
X118469555Y-163526452D01*
X118452524Y-163512476D01*
X118438548Y-163495445D01*
X118428160Y-163476009D01*
X118421764Y-163454928D01*
X118419000Y-163426860D01*
X118419000Y-162963140D01*
X118421764Y-162935072D01*
X118428160Y-162913991D01*
X118438548Y-162894555D01*
X118452524Y-162877524D01*
X118469555Y-162863548D01*
X118488991Y-162853160D01*
X118510072Y-162846764D01*
X118538140Y-162844000D01*
X120176860Y-162844000D01*
X120204928Y-162846764D01*
X120204928Y-162846764D01*
G37*
G36*
X143468228Y-161751703D02*
G01*
X143623100Y-161815853D01*
X143762481Y-161908985D01*
X143881015Y-162027519D01*
X143974147Y-162166900D01*
X144038297Y-162321772D01*
X144071000Y-162486184D01*
X144071000Y-162653816D01*
X144038297Y-162818228D01*
X143974147Y-162973100D01*
X143881015Y-163112481D01*
X143762481Y-163231015D01*
X143623100Y-163324147D01*
X143468228Y-163388297D01*
X143303816Y-163421000D01*
X143136184Y-163421000D01*
X142971772Y-163388297D01*
X142816900Y-163324147D01*
X142677519Y-163231015D01*
X142558985Y-163112481D01*
X142465853Y-162973100D01*
X142401703Y-162818228D01*
X142369000Y-162653816D01*
X142369000Y-162486184D01*
X142401703Y-162321772D01*
X142465853Y-162166900D01*
X142558985Y-162027519D01*
X142677519Y-161908985D01*
X142816900Y-161815853D01*
X142971772Y-161751703D01*
X143136184Y-161719000D01*
X143303816Y-161719000D01*
X143468228Y-161751703D01*
X143468228Y-161751703D01*
G37*
G36*
X137753228Y-161751703D02*
G01*
X137908100Y-161815853D01*
X138047481Y-161908985D01*
X138166015Y-162027519D01*
X138259147Y-162166900D01*
X138323297Y-162321772D01*
X138356000Y-162486184D01*
X138356000Y-162653816D01*
X138323297Y-162818228D01*
X138259147Y-162973100D01*
X138166015Y-163112481D01*
X138047481Y-163231015D01*
X137908100Y-163324147D01*
X137753228Y-163388297D01*
X137588816Y-163421000D01*
X137421184Y-163421000D01*
X137256772Y-163388297D01*
X137101900Y-163324147D01*
X136962519Y-163231015D01*
X136843985Y-163112481D01*
X136750853Y-162973100D01*
X136686703Y-162818228D01*
X136654000Y-162653816D01*
X136654000Y-162486184D01*
X136686703Y-162321772D01*
X136750853Y-162166900D01*
X136843985Y-162027519D01*
X136962519Y-161908985D01*
X137101900Y-161815853D01*
X137256772Y-161751703D01*
X137421184Y-161719000D01*
X137588816Y-161719000D01*
X137753228Y-161751703D01*
X137753228Y-161751703D01*
G37*
G36*
X122998306Y-159743495D02*
G01*
X123026530Y-159752057D01*
X123052535Y-159765957D01*
X123075333Y-159784667D01*
X123094043Y-159807465D01*
X123107943Y-159833470D01*
X123116505Y-159861694D01*
X123120000Y-159897183D01*
X123120000Y-162682817D01*
X123116505Y-162718306D01*
X123107943Y-162746530D01*
X123094043Y-162772535D01*
X123075333Y-162795333D01*
X123052535Y-162814043D01*
X123026530Y-162827943D01*
X122998306Y-162836505D01*
X122962817Y-162840000D01*
X120877183Y-162840000D01*
X120841694Y-162836505D01*
X120813470Y-162827943D01*
X120787465Y-162814043D01*
X120764667Y-162795333D01*
X120745957Y-162772535D01*
X120732057Y-162746530D01*
X120723495Y-162718306D01*
X120720000Y-162682817D01*
X120720000Y-159897183D01*
X120723495Y-159861694D01*
X120732057Y-159833470D01*
X120745957Y-159807465D01*
X120764667Y-159784667D01*
X120787465Y-159765957D01*
X120813470Y-159752057D01*
X120841694Y-159743495D01*
X120877183Y-159740000D01*
X122962817Y-159740000D01*
X122998306Y-159743495D01*
X122998306Y-159743495D01*
G37*
G36*
X125329928Y-161576764D02*
G01*
X125351009Y-161583160D01*
X125370445Y-161593548D01*
X125387476Y-161607524D01*
X125401452Y-161624555D01*
X125411840Y-161643991D01*
X125418236Y-161665072D01*
X125421000Y-161693140D01*
X125421000Y-162156860D01*
X125418236Y-162184928D01*
X125411840Y-162206009D01*
X125401452Y-162225445D01*
X125387476Y-162242476D01*
X125370445Y-162256452D01*
X125351009Y-162266840D01*
X125329928Y-162273236D01*
X125301860Y-162276000D01*
X123663140Y-162276000D01*
X123635072Y-162273236D01*
X123613991Y-162266840D01*
X123594555Y-162256452D01*
X123577524Y-162242476D01*
X123563548Y-162225445D01*
X123553160Y-162206009D01*
X123546764Y-162184928D01*
X123544000Y-162156860D01*
X123544000Y-161693140D01*
X123546764Y-161665072D01*
X123553160Y-161643991D01*
X123563548Y-161624555D01*
X123577524Y-161607524D01*
X123594555Y-161593548D01*
X123613991Y-161583160D01*
X123635072Y-161576764D01*
X123663140Y-161574000D01*
X125301860Y-161574000D01*
X125329928Y-161576764D01*
X125329928Y-161576764D01*
G37*
G36*
X120204928Y-161576764D02*
G01*
X120226009Y-161583160D01*
X120245445Y-161593548D01*
X120262476Y-161607524D01*
X120276452Y-161624555D01*
X120286840Y-161643991D01*
X120293236Y-161665072D01*
X120296000Y-161693140D01*
X120296000Y-162156860D01*
X120293236Y-162184928D01*
X120286840Y-162206009D01*
X120276452Y-162225445D01*
X120262476Y-162242476D01*
X120245445Y-162256452D01*
X120226009Y-162266840D01*
X120204928Y-162273236D01*
X120176860Y-162276000D01*
X118538140Y-162276000D01*
X118510072Y-162273236D01*
X118488991Y-162266840D01*
X118469555Y-162256452D01*
X118452524Y-162242476D01*
X118438548Y-162225445D01*
X118428160Y-162206009D01*
X118421764Y-162184928D01*
X118419000Y-162156860D01*
X118419000Y-161693140D01*
X118421764Y-161665072D01*
X118428160Y-161643991D01*
X118438548Y-161624555D01*
X118452524Y-161607524D01*
X118469555Y-161593548D01*
X118488991Y-161583160D01*
X118510072Y-161576764D01*
X118538140Y-161574000D01*
X120176860Y-161574000D01*
X120204928Y-161576764D01*
X120204928Y-161576764D01*
G37*
G36*
X116793674Y-160278465D02*
G01*
X116831367Y-160289899D01*
X116866103Y-160308466D01*
X116896548Y-160333452D01*
X116921534Y-160363897D01*
X116940101Y-160398633D01*
X116951535Y-160436326D01*
X116956000Y-160481661D01*
X116956000Y-161318339D01*
X116951535Y-161363674D01*
X116940101Y-161401367D01*
X116921534Y-161436103D01*
X116896548Y-161466548D01*
X116866103Y-161491534D01*
X116831367Y-161510101D01*
X116793674Y-161521535D01*
X116748339Y-161526000D01*
X115661661Y-161526000D01*
X115616326Y-161521535D01*
X115578633Y-161510101D01*
X115543897Y-161491534D01*
X115513452Y-161466548D01*
X115488466Y-161436103D01*
X115469899Y-161401367D01*
X115458465Y-161363674D01*
X115454000Y-161318339D01*
X115454000Y-160481661D01*
X115458465Y-160436326D01*
X115469899Y-160398633D01*
X115488466Y-160363897D01*
X115513452Y-160333452D01*
X115543897Y-160308466D01*
X115578633Y-160289899D01*
X115616326Y-160278465D01*
X115661661Y-160274000D01*
X116748339Y-160274000D01*
X116793674Y-160278465D01*
X116793674Y-160278465D01*
G37*
G36*
X125329928Y-160306764D02*
G01*
X125351009Y-160313160D01*
X125370445Y-160323548D01*
X125387476Y-160337524D01*
X125401452Y-160354555D01*
X125411840Y-160373991D01*
X125418236Y-160395072D01*
X125421000Y-160423140D01*
X125421000Y-160886860D01*
X125418236Y-160914928D01*
X125411840Y-160936009D01*
X125401452Y-160955445D01*
X125387476Y-160972476D01*
X125370445Y-160986452D01*
X125351009Y-160996840D01*
X125329928Y-161003236D01*
X125301860Y-161006000D01*
X123663140Y-161006000D01*
X123635072Y-161003236D01*
X123613991Y-160996840D01*
X123594555Y-160986452D01*
X123577524Y-160972476D01*
X123563548Y-160955445D01*
X123553160Y-160936009D01*
X123546764Y-160914928D01*
X123544000Y-160886860D01*
X123544000Y-160423140D01*
X123546764Y-160395072D01*
X123553160Y-160373991D01*
X123563548Y-160354555D01*
X123577524Y-160337524D01*
X123594555Y-160323548D01*
X123613991Y-160313160D01*
X123635072Y-160306764D01*
X123663140Y-160304000D01*
X125301860Y-160304000D01*
X125329928Y-160306764D01*
X125329928Y-160306764D01*
G37*
G36*
X120204928Y-160306764D02*
G01*
X120226009Y-160313160D01*
X120245445Y-160323548D01*
X120262476Y-160337524D01*
X120276452Y-160354555D01*
X120286840Y-160373991D01*
X120293236Y-160395072D01*
X120296000Y-160423140D01*
X120296000Y-160886860D01*
X120293236Y-160914928D01*
X120286840Y-160936009D01*
X120276452Y-160955445D01*
X120262476Y-160972476D01*
X120245445Y-160986452D01*
X120226009Y-160996840D01*
X120204928Y-161003236D01*
X120176860Y-161006000D01*
X118538140Y-161006000D01*
X118510072Y-161003236D01*
X118488991Y-160996840D01*
X118469555Y-160986452D01*
X118452524Y-160972476D01*
X118438548Y-160955445D01*
X118428160Y-160936009D01*
X118421764Y-160914928D01*
X118419000Y-160886860D01*
X118419000Y-160423140D01*
X118421764Y-160395072D01*
X118428160Y-160373991D01*
X118438548Y-160354555D01*
X118452524Y-160337524D01*
X118469555Y-160323548D01*
X118488991Y-160313160D01*
X118510072Y-160306764D01*
X118538140Y-160304000D01*
X120176860Y-160304000D01*
X120204928Y-160306764D01*
X120204928Y-160306764D01*
G37*
G36*
X138356000Y-160921000D02*
G01*
X136654000Y-160921000D01*
X136654000Y-159219000D01*
X138356000Y-159219000D01*
X138356000Y-160921000D01*
X138356000Y-160921000D01*
G37*
G36*
X144071000Y-160921000D02*
G01*
X142369000Y-160921000D01*
X142369000Y-159219000D01*
X144071000Y-159219000D01*
X144071000Y-160921000D01*
X144071000Y-160921000D01*
G37*
G36*
X175571487Y-157198996D02*
G01*
X175808253Y-157297068D01*
X175808255Y-157297069D01*
X176021339Y-157439447D01*
X176202553Y-157620661D01*
X176344932Y-157833747D01*
X176443004Y-158070513D01*
X176493000Y-158321861D01*
X176493000Y-158578139D01*
X176443004Y-158829487D01*
X176346040Y-159063577D01*
X176344931Y-159066255D01*
X176202553Y-159279339D01*
X176021339Y-159460553D01*
X175808255Y-159602931D01*
X175808254Y-159602932D01*
X175808253Y-159602932D01*
X175571487Y-159701004D01*
X175320139Y-159751000D01*
X175063861Y-159751000D01*
X174812513Y-159701004D01*
X174575747Y-159602932D01*
X174575746Y-159602932D01*
X174575745Y-159602931D01*
X174362661Y-159460553D01*
X174181447Y-159279339D01*
X174039069Y-159066255D01*
X174037960Y-159063577D01*
X173940996Y-158829487D01*
X173891000Y-158578139D01*
X173891000Y-158321861D01*
X173940996Y-158070513D01*
X174039068Y-157833747D01*
X174181447Y-157620661D01*
X174362661Y-157439447D01*
X174575745Y-157297069D01*
X174575747Y-157297068D01*
X174812513Y-157198996D01*
X175063861Y-157149000D01*
X175320139Y-157149000D01*
X175571487Y-157198996D01*
X175571487Y-157198996D01*
G37*
G36*
X125329928Y-159036764D02*
G01*
X125351009Y-159043160D01*
X125370445Y-159053548D01*
X125387476Y-159067524D01*
X125401452Y-159084555D01*
X125411840Y-159103991D01*
X125418236Y-159125072D01*
X125421000Y-159153140D01*
X125421000Y-159616860D01*
X125418236Y-159644928D01*
X125411840Y-159666009D01*
X125401452Y-159685445D01*
X125387476Y-159702476D01*
X125370445Y-159716452D01*
X125351009Y-159726840D01*
X125329928Y-159733236D01*
X125301860Y-159736000D01*
X123663140Y-159736000D01*
X123635072Y-159733236D01*
X123613991Y-159726840D01*
X123594555Y-159716452D01*
X123577524Y-159702476D01*
X123563548Y-159685445D01*
X123553160Y-159666009D01*
X123546764Y-159644928D01*
X123544000Y-159616860D01*
X123544000Y-159153140D01*
X123546764Y-159125072D01*
X123553160Y-159103991D01*
X123563548Y-159084555D01*
X123577524Y-159067524D01*
X123594555Y-159053548D01*
X123613991Y-159043160D01*
X123635072Y-159036764D01*
X123663140Y-159034000D01*
X125301860Y-159034000D01*
X125329928Y-159036764D01*
X125329928Y-159036764D01*
G37*
G36*
X120204928Y-159036764D02*
G01*
X120226009Y-159043160D01*
X120245445Y-159053548D01*
X120262476Y-159067524D01*
X120276452Y-159084555D01*
X120286840Y-159103991D01*
X120293236Y-159125072D01*
X120296000Y-159153140D01*
X120296000Y-159616860D01*
X120293236Y-159644928D01*
X120286840Y-159666009D01*
X120276452Y-159685445D01*
X120262476Y-159702476D01*
X120245445Y-159716452D01*
X120226009Y-159726840D01*
X120204928Y-159733236D01*
X120176860Y-159736000D01*
X118538140Y-159736000D01*
X118510072Y-159733236D01*
X118488991Y-159726840D01*
X118469555Y-159716452D01*
X118452524Y-159702476D01*
X118438548Y-159685445D01*
X118428160Y-159666009D01*
X118421764Y-159644928D01*
X118419000Y-159616860D01*
X118419000Y-159153140D01*
X118421764Y-159125072D01*
X118428160Y-159103991D01*
X118438548Y-159084555D01*
X118452524Y-159067524D01*
X118469555Y-159053548D01*
X118488991Y-159043160D01*
X118510072Y-159036764D01*
X118538140Y-159034000D01*
X120176860Y-159034000D01*
X120204928Y-159036764D01*
X120204928Y-159036764D01*
G37*
G36*
X178789208Y-154611093D02*
G01*
X179130617Y-154752510D01*
X179130619Y-154752511D01*
X179437880Y-154957816D01*
X179699184Y-155219120D01*
X179859467Y-155459000D01*
X179904490Y-155526383D01*
X180045907Y-155867792D01*
X180118000Y-156230229D01*
X180118000Y-156599771D01*
X180045907Y-156962208D01*
X179947825Y-157198997D01*
X179904489Y-157303619D01*
X179699184Y-157610880D01*
X179437880Y-157872184D01*
X179130619Y-158077489D01*
X179130618Y-158077490D01*
X179130617Y-158077490D01*
X178789208Y-158218907D01*
X178426771Y-158291000D01*
X178057229Y-158291000D01*
X177694792Y-158218907D01*
X177353383Y-158077490D01*
X177353382Y-158077490D01*
X177353381Y-158077489D01*
X177046120Y-157872184D01*
X176784816Y-157610880D01*
X176579511Y-157303619D01*
X176536175Y-157198997D01*
X176438093Y-156962208D01*
X176366000Y-156599771D01*
X176366000Y-156230229D01*
X176438093Y-155867792D01*
X176579510Y-155526383D01*
X176624534Y-155459000D01*
X176784816Y-155219120D01*
X177046120Y-154957816D01*
X177353381Y-154752511D01*
X177353383Y-154752510D01*
X177694792Y-154611093D01*
X178057229Y-154539000D01*
X178426771Y-154539000D01*
X178789208Y-154611093D01*
X178789208Y-154611093D01*
G37*
G36*
X121358674Y-155463465D02*
G01*
X121396367Y-155474899D01*
X121431103Y-155493466D01*
X121461548Y-155518452D01*
X121486534Y-155548897D01*
X121505101Y-155583633D01*
X121516535Y-155621326D01*
X121521000Y-155666661D01*
X121521000Y-156753339D01*
X121516535Y-156798674D01*
X121505101Y-156836367D01*
X121486534Y-156871103D01*
X121461548Y-156901548D01*
X121431103Y-156926534D01*
X121396367Y-156945101D01*
X121358674Y-156956535D01*
X121313339Y-156961000D01*
X120476661Y-156961000D01*
X120431326Y-156956535D01*
X120393633Y-156945101D01*
X120358897Y-156926534D01*
X120328452Y-156901548D01*
X120303466Y-156871103D01*
X120284899Y-156836367D01*
X120273465Y-156798674D01*
X120269000Y-156753339D01*
X120269000Y-155666661D01*
X120273465Y-155621326D01*
X120284899Y-155583633D01*
X120303466Y-155548897D01*
X120328452Y-155518452D01*
X120358897Y-155493466D01*
X120393633Y-155474899D01*
X120431326Y-155463465D01*
X120476661Y-155459000D01*
X121313339Y-155459000D01*
X121358674Y-155463465D01*
X121358674Y-155463465D01*
G37*
G36*
X123408674Y-155463465D02*
G01*
X123446367Y-155474899D01*
X123481103Y-155493466D01*
X123511548Y-155518452D01*
X123536534Y-155548897D01*
X123555101Y-155583633D01*
X123566535Y-155621326D01*
X123571000Y-155666661D01*
X123571000Y-156753339D01*
X123566535Y-156798674D01*
X123555101Y-156836367D01*
X123536534Y-156871103D01*
X123511548Y-156901548D01*
X123481103Y-156926534D01*
X123446367Y-156945101D01*
X123408674Y-156956535D01*
X123363339Y-156961000D01*
X122526661Y-156961000D01*
X122481326Y-156956535D01*
X122443633Y-156945101D01*
X122408897Y-156926534D01*
X122378452Y-156901548D01*
X122353466Y-156871103D01*
X122334899Y-156836367D01*
X122323465Y-156798674D01*
X122319000Y-156753339D01*
X122319000Y-155666661D01*
X122323465Y-155621326D01*
X122334899Y-155583633D01*
X122353466Y-155548897D01*
X122378452Y-155518452D01*
X122408897Y-155493466D01*
X122443633Y-155474899D01*
X122481326Y-155463465D01*
X122526661Y-155459000D01*
X123363339Y-155459000D01*
X123408674Y-155463465D01*
X123408674Y-155463465D01*
G37*
G36*
X100373871Y-154454786D02*
G01*
X100579530Y-154517172D01*
X100769055Y-154618475D01*
X100769058Y-154618477D01*
X100769059Y-154618478D01*
X100935186Y-154754814D01*
X101071522Y-154920941D01*
X101071525Y-154920945D01*
X101172828Y-155110470D01*
X101235214Y-155316129D01*
X101256278Y-155530000D01*
X101235214Y-155743871D01*
X101172828Y-155949530D01*
X101071525Y-156139055D01*
X101071523Y-156139058D01*
X101071522Y-156139059D01*
X100935186Y-156305186D01*
X100769059Y-156441522D01*
X100769055Y-156441525D01*
X100579530Y-156542828D01*
X100373871Y-156605214D01*
X100213591Y-156621000D01*
X98586409Y-156621000D01*
X98426129Y-156605214D01*
X98220470Y-156542828D01*
X98030945Y-156441525D01*
X98030941Y-156441522D01*
X97864814Y-156305186D01*
X97728478Y-156139059D01*
X97728477Y-156139058D01*
X97728475Y-156139055D01*
X97627172Y-155949530D01*
X97564786Y-155743871D01*
X97543722Y-155530000D01*
X97564786Y-155316129D01*
X97627172Y-155110470D01*
X97728475Y-154920945D01*
X97728478Y-154920941D01*
X97864814Y-154754814D01*
X98030941Y-154618478D01*
X98030942Y-154618477D01*
X98030945Y-154618475D01*
X98220470Y-154517172D01*
X98426129Y-154454786D01*
X98586409Y-154439000D01*
X100213591Y-154439000D01*
X100373871Y-154454786D01*
X100373871Y-154454786D01*
G37*
G36*
X172693000Y-155946000D02*
G01*
X171091000Y-155946000D01*
X171091000Y-154344000D01*
X172693000Y-154344000D01*
X172693000Y-155946000D01*
X172693000Y-155946000D01*
G37*
G36*
X169585642Y-153104781D02*
G01*
X169731414Y-153165162D01*
X169731416Y-153165163D01*
X169862608Y-153252822D01*
X169974178Y-153364392D01*
X169981412Y-153375219D01*
X170061838Y-153495586D01*
X170122219Y-153641358D01*
X170153000Y-153796107D01*
X170153000Y-153953893D01*
X170122219Y-154108642D01*
X170061838Y-154254414D01*
X170061837Y-154254416D01*
X169974178Y-154385608D01*
X169862608Y-154497178D01*
X169731416Y-154584837D01*
X169731415Y-154584838D01*
X169731414Y-154584838D01*
X169585642Y-154645219D01*
X169430893Y-154676000D01*
X169273107Y-154676000D01*
X169118358Y-154645219D01*
X168972586Y-154584838D01*
X168972585Y-154584838D01*
X168972584Y-154584837D01*
X168841392Y-154497178D01*
X168729822Y-154385608D01*
X168642163Y-154254416D01*
X168642162Y-154254414D01*
X168581781Y-154108642D01*
X168551000Y-153953893D01*
X168551000Y-153796107D01*
X168581781Y-153641358D01*
X168642162Y-153495586D01*
X168722588Y-153375219D01*
X168729822Y-153364392D01*
X168841392Y-153252822D01*
X168972584Y-153165163D01*
X168972586Y-153165162D01*
X169118358Y-153104781D01*
X169273107Y-153074000D01*
X169430893Y-153074000D01*
X169585642Y-153104781D01*
X169585642Y-153104781D01*
G37*
G36*
X172125642Y-151834781D02*
G01*
X172271414Y-151895162D01*
X172271416Y-151895163D01*
X172402608Y-151982822D01*
X172514178Y-152094392D01*
X172521412Y-152105219D01*
X172601838Y-152225586D01*
X172662219Y-152371358D01*
X172693000Y-152526107D01*
X172693000Y-152683893D01*
X172662219Y-152838642D01*
X172601838Y-152984414D01*
X172601837Y-152984416D01*
X172514178Y-153115608D01*
X172402608Y-153227178D01*
X172271416Y-153314837D01*
X172271415Y-153314838D01*
X172271414Y-153314838D01*
X172125642Y-153375219D01*
X171970893Y-153406000D01*
X171813107Y-153406000D01*
X171658358Y-153375219D01*
X171512586Y-153314838D01*
X171512585Y-153314838D01*
X171512584Y-153314837D01*
X171381392Y-153227178D01*
X171269822Y-153115608D01*
X171182163Y-152984416D01*
X171182162Y-152984414D01*
X171121781Y-152838642D01*
X171091000Y-152683893D01*
X171091000Y-152526107D01*
X171121781Y-152371358D01*
X171182162Y-152225586D01*
X171262588Y-152105219D01*
X171269822Y-152094392D01*
X171381392Y-151982822D01*
X171512584Y-151895163D01*
X171512586Y-151895162D01*
X171658358Y-151834781D01*
X171813107Y-151804000D01*
X171970893Y-151804000D01*
X172125642Y-151834781D01*
X172125642Y-151834781D01*
G37*
G36*
X169585642Y-150564781D02*
G01*
X169731414Y-150625162D01*
X169731416Y-150625163D01*
X169862608Y-150712822D01*
X169974178Y-150824392D01*
X169981412Y-150835219D01*
X170061838Y-150955586D01*
X170122219Y-151101358D01*
X170153000Y-151256107D01*
X170153000Y-151413893D01*
X170122219Y-151568642D01*
X170061838Y-151714414D01*
X170061837Y-151714416D01*
X169974178Y-151845608D01*
X169862608Y-151957178D01*
X169731416Y-152044837D01*
X169731415Y-152044838D01*
X169731414Y-152044838D01*
X169585642Y-152105219D01*
X169430893Y-152136000D01*
X169273107Y-152136000D01*
X169118358Y-152105219D01*
X168972586Y-152044838D01*
X168972585Y-152044838D01*
X168972584Y-152044837D01*
X168841392Y-151957178D01*
X168729822Y-151845608D01*
X168642163Y-151714416D01*
X168642162Y-151714414D01*
X168581781Y-151568642D01*
X168551000Y-151413893D01*
X168551000Y-151256107D01*
X168581781Y-151101358D01*
X168642162Y-150955586D01*
X168722588Y-150835219D01*
X168729822Y-150824392D01*
X168841392Y-150712822D01*
X168972584Y-150625163D01*
X168972586Y-150625162D01*
X169118358Y-150564781D01*
X169273107Y-150534000D01*
X169430893Y-150534000D01*
X169585642Y-150564781D01*
X169585642Y-150564781D01*
G37*
G36*
X101116217Y-149362808D02*
G01*
X101147489Y-149372294D01*
X101176308Y-149387698D01*
X101201570Y-149408430D01*
X101222302Y-149433692D01*
X101237706Y-149462511D01*
X101247192Y-149493783D01*
X101251000Y-149532448D01*
X101251000Y-151367552D01*
X101247192Y-151406217D01*
X101237706Y-151437489D01*
X101222302Y-151466308D01*
X101201570Y-151491570D01*
X101176308Y-151512302D01*
X101147489Y-151527706D01*
X101116217Y-151537192D01*
X101077552Y-151541000D01*
X97722448Y-151541000D01*
X97683783Y-151537192D01*
X97652511Y-151527706D01*
X97623692Y-151512302D01*
X97598430Y-151491570D01*
X97577698Y-151466308D01*
X97562294Y-151437489D01*
X97552808Y-151406217D01*
X97549000Y-151367552D01*
X97549000Y-149532448D01*
X97552808Y-149493783D01*
X97562294Y-149462511D01*
X97577698Y-149433692D01*
X97598430Y-149408430D01*
X97623692Y-149387698D01*
X97652511Y-149372294D01*
X97683783Y-149362808D01*
X97722448Y-149359000D01*
X101077552Y-149359000D01*
X101116217Y-149362808D01*
X101116217Y-149362808D01*
G37*
G36*
X172125642Y-149294781D02*
G01*
X172271414Y-149355162D01*
X172271416Y-149355163D01*
X172402608Y-149442822D01*
X172514178Y-149554392D01*
X172541979Y-149596000D01*
X172601838Y-149685586D01*
X172662219Y-149831358D01*
X172693000Y-149986107D01*
X172693000Y-150143893D01*
X172662219Y-150298642D01*
X172601838Y-150444414D01*
X172601837Y-150444416D01*
X172514178Y-150575608D01*
X172402608Y-150687178D01*
X172271416Y-150774837D01*
X172271415Y-150774838D01*
X172271414Y-150774838D01*
X172125642Y-150835219D01*
X171970893Y-150866000D01*
X171813107Y-150866000D01*
X171658358Y-150835219D01*
X171512586Y-150774838D01*
X171512585Y-150774838D01*
X171512584Y-150774837D01*
X171381392Y-150687178D01*
X171269822Y-150575608D01*
X171182163Y-150444416D01*
X171182162Y-150444414D01*
X171121781Y-150298642D01*
X171091000Y-150143893D01*
X171091000Y-149986107D01*
X171121781Y-149831358D01*
X171182162Y-149685586D01*
X171242021Y-149596000D01*
X171269822Y-149554392D01*
X171381392Y-149442822D01*
X171512584Y-149355163D01*
X171512586Y-149355162D01*
X171658358Y-149294781D01*
X171813107Y-149264000D01*
X171970893Y-149264000D01*
X172125642Y-149294781D01*
X172125642Y-149294781D01*
G37*
G36*
X169585642Y-148024781D02*
G01*
X169731414Y-148085162D01*
X169731416Y-148085163D01*
X169862608Y-148172822D01*
X169974178Y-148284392D01*
X170005060Y-148330611D01*
X170061838Y-148415586D01*
X170122219Y-148561358D01*
X170153000Y-148716107D01*
X170153000Y-148873893D01*
X170122219Y-149028642D01*
X170061838Y-149174414D01*
X170061837Y-149174416D01*
X169974178Y-149305608D01*
X169862608Y-149417178D01*
X169731416Y-149504837D01*
X169731415Y-149504838D01*
X169731414Y-149504838D01*
X169585642Y-149565219D01*
X169430893Y-149596000D01*
X169273107Y-149596000D01*
X169118358Y-149565219D01*
X168972586Y-149504838D01*
X168972585Y-149504838D01*
X168972584Y-149504837D01*
X168841392Y-149417178D01*
X168729822Y-149305608D01*
X168642163Y-149174416D01*
X168642162Y-149174414D01*
X168581781Y-149028642D01*
X168551000Y-148873893D01*
X168551000Y-148716107D01*
X168581781Y-148561358D01*
X168642162Y-148415586D01*
X168698940Y-148330611D01*
X168729822Y-148284392D01*
X168841392Y-148172822D01*
X168972584Y-148085163D01*
X168972586Y-148085162D01*
X169118358Y-148024781D01*
X169273107Y-147994000D01*
X169430893Y-147994000D01*
X169585642Y-148024781D01*
X169585642Y-148024781D01*
G37*
G36*
X148896564Y-146309389D02*
G01*
X149087833Y-146388615D01*
X149087835Y-146388616D01*
X149259973Y-146503635D01*
X149406365Y-146650027D01*
X149516705Y-146815162D01*
X149521385Y-146822167D01*
X149600611Y-147013436D01*
X149641000Y-147216484D01*
X149641000Y-147423516D01*
X149600611Y-147626564D01*
X149521385Y-147817833D01*
X149521384Y-147817835D01*
X149406365Y-147989973D01*
X149259973Y-148136365D01*
X149087835Y-148251384D01*
X149087834Y-148251385D01*
X149087833Y-148251385D01*
X148896564Y-148330611D01*
X148693516Y-148371000D01*
X148486484Y-148371000D01*
X148283436Y-148330611D01*
X148092167Y-148251385D01*
X148092166Y-148251385D01*
X148092165Y-148251384D01*
X147920027Y-148136365D01*
X147773635Y-147989973D01*
X147658616Y-147817835D01*
X147658615Y-147817833D01*
X147579389Y-147626564D01*
X147539000Y-147423516D01*
X147539000Y-147216484D01*
X147579389Y-147013436D01*
X147658615Y-146822167D01*
X147663296Y-146815162D01*
X147773635Y-146650027D01*
X147920027Y-146503635D01*
X148092165Y-146388616D01*
X148092167Y-146388615D01*
X148283436Y-146309389D01*
X148486484Y-146269000D01*
X148693516Y-146269000D01*
X148896564Y-146309389D01*
X148896564Y-146309389D01*
G37*
G36*
X129896564Y-146309389D02*
G01*
X130087833Y-146388615D01*
X130087835Y-146388616D01*
X130259973Y-146503635D01*
X130406365Y-146650027D01*
X130516705Y-146815162D01*
X130521385Y-146822167D01*
X130600611Y-147013436D01*
X130641000Y-147216484D01*
X130641000Y-147423516D01*
X130600611Y-147626564D01*
X130521385Y-147817833D01*
X130521384Y-147817835D01*
X130406365Y-147989973D01*
X130259973Y-148136365D01*
X130087835Y-148251384D01*
X130087834Y-148251385D01*
X130087833Y-148251385D01*
X129896564Y-148330611D01*
X129693516Y-148371000D01*
X129486484Y-148371000D01*
X129283436Y-148330611D01*
X129092167Y-148251385D01*
X129092166Y-148251385D01*
X129092165Y-148251384D01*
X128920027Y-148136365D01*
X128773635Y-147989973D01*
X128658616Y-147817835D01*
X128658615Y-147817833D01*
X128579389Y-147626564D01*
X128539000Y-147423516D01*
X128539000Y-147216484D01*
X128579389Y-147013436D01*
X128658615Y-146822167D01*
X128663296Y-146815162D01*
X128773635Y-146650027D01*
X128920027Y-146503635D01*
X129092165Y-146388616D01*
X129092167Y-146388615D01*
X129283436Y-146309389D01*
X129486484Y-146269000D01*
X129693516Y-146269000D01*
X129896564Y-146309389D01*
X129896564Y-146309389D01*
G37*
G36*
X172125642Y-146754781D02*
G01*
X172271414Y-146815162D01*
X172271416Y-146815163D01*
X172402608Y-146902822D01*
X172514178Y-147014392D01*
X172541979Y-147056000D01*
X172601838Y-147145586D01*
X172662219Y-147291358D01*
X172693000Y-147446107D01*
X172693000Y-147603893D01*
X172662219Y-147758642D01*
X172637701Y-147817833D01*
X172601837Y-147904416D01*
X172514178Y-148035608D01*
X172402608Y-148147178D01*
X172271416Y-148234837D01*
X172271415Y-148234838D01*
X172271414Y-148234838D01*
X172125642Y-148295219D01*
X171970893Y-148326000D01*
X171813107Y-148326000D01*
X171658358Y-148295219D01*
X171512586Y-148234838D01*
X171512585Y-148234838D01*
X171512584Y-148234837D01*
X171381392Y-148147178D01*
X171269822Y-148035608D01*
X171182163Y-147904416D01*
X171146299Y-147817833D01*
X171121781Y-147758642D01*
X171091000Y-147603893D01*
X171091000Y-147446107D01*
X171121781Y-147291358D01*
X171182162Y-147145586D01*
X171242021Y-147056000D01*
X171269822Y-147014392D01*
X171381392Y-146902822D01*
X171512584Y-146815163D01*
X171512586Y-146815162D01*
X171658358Y-146754781D01*
X171813107Y-146724000D01*
X171970893Y-146724000D01*
X172125642Y-146754781D01*
X172125642Y-146754781D01*
G37*
G36*
X108602331Y-144470611D02*
G01*
X108930092Y-144606374D01*
X109225070Y-144803472D01*
X109475928Y-145054330D01*
X109673026Y-145349308D01*
X109808789Y-145677069D01*
X109878000Y-146025016D01*
X109878000Y-146379784D01*
X109808789Y-146727731D01*
X109673026Y-147055492D01*
X109475928Y-147350470D01*
X109225070Y-147601328D01*
X108930092Y-147798426D01*
X108602331Y-147934189D01*
X108254384Y-148003400D01*
X107899616Y-148003400D01*
X107551669Y-147934189D01*
X107223908Y-147798426D01*
X106928930Y-147601328D01*
X106678072Y-147350470D01*
X106480974Y-147055492D01*
X106345211Y-146727731D01*
X106276000Y-146379784D01*
X106276000Y-146025016D01*
X106345211Y-145677069D01*
X106480974Y-145349308D01*
X106678072Y-145054330D01*
X106928930Y-144803472D01*
X107223908Y-144606374D01*
X107551669Y-144470611D01*
X107899616Y-144401400D01*
X108254384Y-144401400D01*
X108602331Y-144470611D01*
X108602331Y-144470611D01*
G37*
G36*
X169585642Y-145484781D02*
G01*
X169731414Y-145545162D01*
X169731416Y-145545163D01*
X169862608Y-145632822D01*
X169974178Y-145744392D01*
X170060524Y-145873619D01*
X170061838Y-145875586D01*
X170122219Y-146021358D01*
X170153000Y-146176107D01*
X170153000Y-146333893D01*
X170122219Y-146488642D01*
X170061838Y-146634414D01*
X170061837Y-146634416D01*
X169974178Y-146765608D01*
X169862608Y-146877178D01*
X169731416Y-146964837D01*
X169731415Y-146964838D01*
X169731414Y-146964838D01*
X169585642Y-147025219D01*
X169430893Y-147056000D01*
X169273107Y-147056000D01*
X169118358Y-147025219D01*
X168972586Y-146964838D01*
X168972585Y-146964838D01*
X168972584Y-146964837D01*
X168841392Y-146877178D01*
X168729822Y-146765608D01*
X168642163Y-146634416D01*
X168642162Y-146634414D01*
X168581781Y-146488642D01*
X168551000Y-146333893D01*
X168551000Y-146176107D01*
X168581781Y-146021358D01*
X168642162Y-145875586D01*
X168643476Y-145873619D01*
X168729822Y-145744392D01*
X168841392Y-145632822D01*
X168972584Y-145545163D01*
X168972586Y-145545162D01*
X169118358Y-145484781D01*
X169273107Y-145454000D01*
X169430893Y-145454000D01*
X169585642Y-145484781D01*
X169585642Y-145484781D01*
G37*
G36*
X178789208Y-143181093D02*
G01*
X179130617Y-143322510D01*
X179130619Y-143322511D01*
X179437880Y-143527816D01*
X179699184Y-143789120D01*
X179904490Y-144096383D01*
X180045907Y-144437792D01*
X180118000Y-144800229D01*
X180118000Y-145169771D01*
X180045907Y-145532208D01*
X179904490Y-145873617D01*
X179904489Y-145873619D01*
X179699184Y-146180880D01*
X179437880Y-146442184D01*
X179130619Y-146647489D01*
X179130618Y-146647490D01*
X179130617Y-146647490D01*
X178789208Y-146788907D01*
X178426771Y-146861000D01*
X178057229Y-146861000D01*
X177694792Y-146788907D01*
X177353383Y-146647490D01*
X177353382Y-146647490D01*
X177353381Y-146647489D01*
X177046120Y-146442184D01*
X176784816Y-146180880D01*
X176579511Y-145873619D01*
X176579510Y-145873617D01*
X176438093Y-145532208D01*
X176366000Y-145169771D01*
X176366000Y-144800229D01*
X176438093Y-144437792D01*
X176579510Y-144096383D01*
X176784816Y-143789120D01*
X177046120Y-143527816D01*
X177353381Y-143322511D01*
X177353383Y-143322510D01*
X177694792Y-143181093D01*
X178057229Y-143109000D01*
X178426771Y-143109000D01*
X178789208Y-143181093D01*
X178789208Y-143181093D01*
G37*
G36*
X175571487Y-141698996D02*
G01*
X175808253Y-141797068D01*
X175808255Y-141797069D01*
X176021339Y-141939447D01*
X176202553Y-142120661D01*
X176344932Y-142333747D01*
X176443004Y-142570513D01*
X176493000Y-142821861D01*
X176493000Y-143078139D01*
X176443004Y-143329487D01*
X176360853Y-143527816D01*
X176344931Y-143566255D01*
X176202553Y-143779339D01*
X176021339Y-143960553D01*
X175808255Y-144102931D01*
X175808254Y-144102932D01*
X175808253Y-144102932D01*
X175571487Y-144201004D01*
X175320139Y-144251000D01*
X175063861Y-144251000D01*
X174812513Y-144201004D01*
X174575747Y-144102932D01*
X174575746Y-144102932D01*
X174575745Y-144102931D01*
X174362661Y-143960553D01*
X174181447Y-143779339D01*
X174039069Y-143566255D01*
X174023147Y-143527816D01*
X173940996Y-143329487D01*
X173891000Y-143078139D01*
X173891000Y-142821861D01*
X173940996Y-142570513D01*
X174039068Y-142333747D01*
X174181447Y-142120661D01*
X174362661Y-141939447D01*
X174575745Y-141797069D01*
X174575747Y-141797068D01*
X174812513Y-141698996D01*
X175063861Y-141649000D01*
X175320139Y-141649000D01*
X175571487Y-141698996D01*
X175571487Y-141698996D01*
G37*
G36*
X94375256Y-138391298D02*
G01*
X94481579Y-138412447D01*
X94782042Y-138536903D01*
X95052451Y-138717585D01*
X95282415Y-138947549D01*
X95463097Y-139217958D01*
X95587553Y-139518421D01*
X95651000Y-139837391D01*
X95651000Y-140162609D01*
X95587553Y-140481579D01*
X95463097Y-140782042D01*
X95282415Y-141052451D01*
X95052451Y-141282415D01*
X94782042Y-141463097D01*
X94481579Y-141587553D01*
X94375256Y-141608702D01*
X94162611Y-141651000D01*
X93837389Y-141651000D01*
X93624744Y-141608702D01*
X93518421Y-141587553D01*
X93217958Y-141463097D01*
X92947549Y-141282415D01*
X92717585Y-141052451D01*
X92536903Y-140782042D01*
X92412447Y-140481579D01*
X92349000Y-140162609D01*
X92349000Y-139837391D01*
X92412447Y-139518421D01*
X92536903Y-139217958D01*
X92717585Y-138947549D01*
X92947549Y-138717585D01*
X93217958Y-138536903D01*
X93518421Y-138412447D01*
X93624744Y-138391298D01*
X93837389Y-138349000D01*
X94162611Y-138349000D01*
X94375256Y-138391298D01*
X94375256Y-138391298D01*
G37*
G36*
X159375256Y-138391298D02*
G01*
X159481579Y-138412447D01*
X159782042Y-138536903D01*
X160052451Y-138717585D01*
X160282415Y-138947549D01*
X160463097Y-139217958D01*
X160587553Y-139518421D01*
X160651000Y-139837391D01*
X160651000Y-140162609D01*
X160587553Y-140481579D01*
X160463097Y-140782042D01*
X160282415Y-141052451D01*
X160052451Y-141282415D01*
X159782042Y-141463097D01*
X159481579Y-141587553D01*
X159375256Y-141608702D01*
X159162611Y-141651000D01*
X158837389Y-141651000D01*
X158624744Y-141608702D01*
X158518421Y-141587553D01*
X158217958Y-141463097D01*
X157947549Y-141282415D01*
X157717585Y-141052451D01*
X157536903Y-140782042D01*
X157412447Y-140481579D01*
X157349000Y-140162609D01*
X157349000Y-139837391D01*
X157412447Y-139518421D01*
X157536903Y-139217958D01*
X157717585Y-138947549D01*
X157947549Y-138717585D01*
X158217958Y-138536903D01*
X158518421Y-138412447D01*
X158624744Y-138391298D01*
X158837389Y-138349000D01*
X159162611Y-138349000D01*
X159375256Y-138391298D01*
X159375256Y-138391298D01*
G37*
M02*
