G04 #@! TF.GenerationSoftware,KiCad,Pcbnew,5.1.4-e60b266~84~ubuntu18.04.1*
G04 #@! TF.CreationDate,2019-10-29T18:19:43-03:00*
G04 #@! TF.ProjectId,fonte_18V,666f6e74-655f-4313-9856-2e6b69636164,rev?*
G04 #@! TF.SameCoordinates,Original*
G04 #@! TF.FileFunction,Soldermask,Bot*
G04 #@! TF.FilePolarity,Negative*
%FSLAX46Y46*%
G04 Gerber Fmt 4.6, Leading zero omitted, Abs format (unit mm)*
G04 Created by KiCad (PCBNEW 5.1.4-e60b266~84~ubuntu18.04.1) date 2019-10-29 18:19:43*
%MOMM*%
%LPD*%
G04 APERTURE LIST*
%ADD10C,0.100000*%
G04 APERTURE END LIST*
D10*
G36*
X159375256Y-180391298D02*
G01*
X159481579Y-180412447D01*
X159782042Y-180536903D01*
X160052451Y-180717585D01*
X160282415Y-180947549D01*
X160282416Y-180947551D01*
X160463098Y-181217960D01*
X160487291Y-181276367D01*
X160587553Y-181518421D01*
X160651000Y-181837391D01*
X160651000Y-182162609D01*
X160587553Y-182481579D01*
X160463097Y-182782042D01*
X160282415Y-183052451D01*
X160052451Y-183282415D01*
X159782042Y-183463097D01*
X159481579Y-183587553D01*
X159375256Y-183608702D01*
X159162611Y-183651000D01*
X158837389Y-183651000D01*
X158624744Y-183608702D01*
X158518421Y-183587553D01*
X158217958Y-183463097D01*
X157947549Y-183282415D01*
X157717585Y-183052451D01*
X157536903Y-182782042D01*
X157412447Y-182481579D01*
X157349000Y-182162609D01*
X157349000Y-181837391D01*
X157412447Y-181518421D01*
X157512709Y-181276367D01*
X157536902Y-181217960D01*
X157717584Y-180947551D01*
X157717585Y-180947549D01*
X157947549Y-180717585D01*
X158217958Y-180536903D01*
X158518421Y-180412447D01*
X158624744Y-180391298D01*
X158837389Y-180349000D01*
X159162611Y-180349000D01*
X159375256Y-180391298D01*
X159375256Y-180391298D01*
G37*
G36*
X94375256Y-180391298D02*
G01*
X94481579Y-180412447D01*
X94782042Y-180536903D01*
X95052451Y-180717585D01*
X95282415Y-180947549D01*
X95282416Y-180947551D01*
X95463098Y-181217960D01*
X95487291Y-181276367D01*
X95587553Y-181518421D01*
X95651000Y-181837391D01*
X95651000Y-182162609D01*
X95587553Y-182481579D01*
X95463097Y-182782042D01*
X95282415Y-183052451D01*
X95052451Y-183282415D01*
X94782042Y-183463097D01*
X94481579Y-183587553D01*
X94375256Y-183608702D01*
X94162611Y-183651000D01*
X93837389Y-183651000D01*
X93624744Y-183608702D01*
X93518421Y-183587553D01*
X93217958Y-183463097D01*
X92947549Y-183282415D01*
X92717585Y-183052451D01*
X92536903Y-182782042D01*
X92412447Y-182481579D01*
X92349000Y-182162609D01*
X92349000Y-181837391D01*
X92412447Y-181518421D01*
X92512709Y-181276367D01*
X92536902Y-181217960D01*
X92717584Y-180947551D01*
X92717585Y-180947549D01*
X92947549Y-180717585D01*
X93217958Y-180536903D01*
X93518421Y-180412447D01*
X93624744Y-180391298D01*
X93837389Y-180349000D01*
X94162611Y-180349000D01*
X94375256Y-180391298D01*
X94375256Y-180391298D01*
G37*
G36*
X112388674Y-180153465D02*
G01*
X112426367Y-180164899D01*
X112461103Y-180183466D01*
X112491548Y-180208452D01*
X112516534Y-180238897D01*
X112535101Y-180273633D01*
X112546535Y-180311326D01*
X112551000Y-180356661D01*
X112551000Y-181193339D01*
X112546535Y-181238674D01*
X112535101Y-181276367D01*
X112516534Y-181311103D01*
X112491548Y-181341548D01*
X112461103Y-181366534D01*
X112426367Y-181385101D01*
X112388674Y-181396535D01*
X112343339Y-181401000D01*
X111256661Y-181401000D01*
X111211326Y-181396535D01*
X111173633Y-181385101D01*
X111138897Y-181366534D01*
X111108452Y-181341548D01*
X111083466Y-181311103D01*
X111064899Y-181276367D01*
X111053465Y-181238674D01*
X111049000Y-181193339D01*
X111049000Y-180356661D01*
X111053465Y-180311326D01*
X111064899Y-180273633D01*
X111083466Y-180238897D01*
X111108452Y-180208452D01*
X111138897Y-180183466D01*
X111173633Y-180164899D01*
X111211326Y-180153465D01*
X111256661Y-180149000D01*
X112343339Y-180149000D01*
X112388674Y-180153465D01*
X112388674Y-180153465D01*
G37*
G36*
X115001000Y-181251000D02*
G01*
X113999000Y-181251000D01*
X113999000Y-180349000D01*
X115001000Y-180349000D01*
X115001000Y-181251000D01*
X115001000Y-181251000D01*
G37*
G36*
X175571487Y-178016996D02*
G01*
X175807845Y-178114899D01*
X175808255Y-178115069D01*
X175965239Y-178219962D01*
X176021339Y-178257447D01*
X176202553Y-178438661D01*
X176344932Y-178651747D01*
X176443004Y-178888513D01*
X176493000Y-179139861D01*
X176493000Y-179396139D01*
X176443004Y-179647487D01*
X176344932Y-179884253D01*
X176344931Y-179884255D01*
X176202553Y-180097339D01*
X176021339Y-180278553D01*
X175808255Y-180420931D01*
X175808254Y-180420932D01*
X175808253Y-180420932D01*
X175571487Y-180519004D01*
X175320139Y-180569000D01*
X175063861Y-180569000D01*
X174812513Y-180519004D01*
X174575747Y-180420932D01*
X174575746Y-180420932D01*
X174575745Y-180420931D01*
X174362661Y-180278553D01*
X174181447Y-180097339D01*
X174039069Y-179884255D01*
X174039068Y-179884253D01*
X173940996Y-179647487D01*
X173891000Y-179396139D01*
X173891000Y-179139861D01*
X173940996Y-178888513D01*
X174039068Y-178651747D01*
X174181447Y-178438661D01*
X174362661Y-178257447D01*
X174418761Y-178219962D01*
X174575745Y-178115069D01*
X174576155Y-178114899D01*
X174812513Y-178016996D01*
X175063861Y-177967000D01*
X175320139Y-177967000D01*
X175571487Y-178016996D01*
X175571487Y-178016996D01*
G37*
G36*
X117001000Y-180301000D02*
G01*
X115999000Y-180301000D01*
X115999000Y-179399000D01*
X117001000Y-179399000D01*
X117001000Y-180301000D01*
X117001000Y-180301000D01*
G37*
G36*
X115001000Y-179351000D02*
G01*
X113999000Y-179351000D01*
X113999000Y-178449000D01*
X115001000Y-178449000D01*
X115001000Y-179351000D01*
X115001000Y-179351000D01*
G37*
G36*
X112388674Y-178103465D02*
G01*
X112426367Y-178114899D01*
X112461103Y-178133466D01*
X112491548Y-178158452D01*
X112516534Y-178188897D01*
X112535101Y-178223633D01*
X112546535Y-178261326D01*
X112551000Y-178306661D01*
X112551000Y-179143339D01*
X112546535Y-179188674D01*
X112535101Y-179226367D01*
X112516534Y-179261103D01*
X112491548Y-179291548D01*
X112461103Y-179316534D01*
X112426367Y-179335101D01*
X112388674Y-179346535D01*
X112343339Y-179351000D01*
X111256661Y-179351000D01*
X111211326Y-179346535D01*
X111173633Y-179335101D01*
X111138897Y-179316534D01*
X111108452Y-179291548D01*
X111083466Y-179261103D01*
X111064899Y-179226367D01*
X111053465Y-179188674D01*
X111049000Y-179143339D01*
X111049000Y-178306661D01*
X111053465Y-178261326D01*
X111064899Y-178223633D01*
X111083466Y-178188897D01*
X111108452Y-178158452D01*
X111138897Y-178133466D01*
X111173633Y-178114899D01*
X111211326Y-178103465D01*
X111256661Y-178099000D01*
X112343339Y-178099000D01*
X112388674Y-178103465D01*
X112388674Y-178103465D01*
G37*
G36*
X178789208Y-175429093D02*
G01*
X179130617Y-175570510D01*
X179130619Y-175570511D01*
X179382359Y-175738718D01*
X179437880Y-175775816D01*
X179699184Y-176037120D01*
X179904490Y-176344383D01*
X180045907Y-176685792D01*
X180118000Y-177048229D01*
X180118000Y-177417771D01*
X180045907Y-177780208D01*
X179904490Y-178121617D01*
X179904489Y-178121619D01*
X179699184Y-178428880D01*
X179437880Y-178690184D01*
X179130619Y-178895489D01*
X179130618Y-178895490D01*
X179130617Y-178895490D01*
X178789208Y-179036907D01*
X178426771Y-179109000D01*
X178057229Y-179109000D01*
X177694792Y-179036907D01*
X177353383Y-178895490D01*
X177353382Y-178895490D01*
X177353381Y-178895489D01*
X177046120Y-178690184D01*
X176784816Y-178428880D01*
X176579511Y-178121619D01*
X176579510Y-178121617D01*
X176438093Y-177780208D01*
X176366000Y-177417771D01*
X176366000Y-177048229D01*
X176438093Y-176685792D01*
X176579510Y-176344383D01*
X176784816Y-176037120D01*
X177046120Y-175775816D01*
X177101641Y-175738718D01*
X177353381Y-175570511D01*
X177353383Y-175570510D01*
X177694792Y-175429093D01*
X178057229Y-175357000D01*
X178426771Y-175357000D01*
X178789208Y-175429093D01*
X178789208Y-175429093D01*
G37*
G36*
X121406228Y-177195703D02*
G01*
X121561100Y-177259853D01*
X121700481Y-177352985D01*
X121819015Y-177471519D01*
X121912147Y-177610900D01*
X121976297Y-177765772D01*
X122009000Y-177930184D01*
X122009000Y-178097816D01*
X121976297Y-178262228D01*
X121912147Y-178417100D01*
X121819015Y-178556481D01*
X121700481Y-178675015D01*
X121561100Y-178768147D01*
X121406228Y-178832297D01*
X121241816Y-178865000D01*
X121074184Y-178865000D01*
X120909772Y-178832297D01*
X120754900Y-178768147D01*
X120615519Y-178675015D01*
X120496985Y-178556481D01*
X120403853Y-178417100D01*
X120339703Y-178262228D01*
X120307000Y-178097816D01*
X120307000Y-177930184D01*
X120339703Y-177765772D01*
X120403853Y-177610900D01*
X120496985Y-177471519D01*
X120615519Y-177352985D01*
X120754900Y-177259853D01*
X120909772Y-177195703D01*
X121074184Y-177163000D01*
X121241816Y-177163000D01*
X121406228Y-177195703D01*
X121406228Y-177195703D01*
G37*
G36*
X127148228Y-177195703D02*
G01*
X127303100Y-177259853D01*
X127442481Y-177352985D01*
X127561015Y-177471519D01*
X127654147Y-177610900D01*
X127718297Y-177765772D01*
X127751000Y-177930184D01*
X127751000Y-178097816D01*
X127718297Y-178262228D01*
X127654147Y-178417100D01*
X127561015Y-178556481D01*
X127442481Y-178675015D01*
X127303100Y-178768147D01*
X127148228Y-178832297D01*
X126983816Y-178865000D01*
X126816184Y-178865000D01*
X126651772Y-178832297D01*
X126496900Y-178768147D01*
X126357519Y-178675015D01*
X126238985Y-178556481D01*
X126145853Y-178417100D01*
X126081703Y-178262228D01*
X126049000Y-178097816D01*
X126049000Y-177930184D01*
X126081703Y-177765772D01*
X126145853Y-177610900D01*
X126238985Y-177471519D01*
X126357519Y-177352985D01*
X126496900Y-177259853D01*
X126651772Y-177195703D01*
X126816184Y-177163000D01*
X126983816Y-177163000D01*
X127148228Y-177195703D01*
X127148228Y-177195703D01*
G37*
G36*
X111078674Y-175663465D02*
G01*
X111116367Y-175674899D01*
X111151103Y-175693466D01*
X111181548Y-175718452D01*
X111206534Y-175748897D01*
X111225101Y-175783633D01*
X111236535Y-175821326D01*
X111241000Y-175866661D01*
X111241000Y-176703339D01*
X111236535Y-176748674D01*
X111225101Y-176786367D01*
X111206534Y-176821103D01*
X111181548Y-176851548D01*
X111151103Y-176876534D01*
X111116367Y-176895101D01*
X111078674Y-176906535D01*
X111033339Y-176911000D01*
X109946661Y-176911000D01*
X109901326Y-176906535D01*
X109863633Y-176895101D01*
X109828897Y-176876534D01*
X109798452Y-176851548D01*
X109773466Y-176821103D01*
X109754899Y-176786367D01*
X109743465Y-176748674D01*
X109739000Y-176703339D01*
X109739000Y-175866661D01*
X109743465Y-175821326D01*
X109754899Y-175783633D01*
X109773466Y-175748897D01*
X109798452Y-175718452D01*
X109828897Y-175693466D01*
X109863633Y-175674899D01*
X109901326Y-175663465D01*
X109946661Y-175659000D01*
X111033339Y-175659000D01*
X111078674Y-175663465D01*
X111078674Y-175663465D01*
G37*
G36*
X113618674Y-175663465D02*
G01*
X113656367Y-175674899D01*
X113691103Y-175693466D01*
X113721548Y-175718452D01*
X113746534Y-175748897D01*
X113765101Y-175783633D01*
X113776535Y-175821326D01*
X113781000Y-175866661D01*
X113781000Y-176703339D01*
X113776535Y-176748674D01*
X113765101Y-176786367D01*
X113746534Y-176821103D01*
X113721548Y-176851548D01*
X113691103Y-176876534D01*
X113656367Y-176895101D01*
X113618674Y-176906535D01*
X113573339Y-176911000D01*
X112486661Y-176911000D01*
X112441326Y-176906535D01*
X112403633Y-176895101D01*
X112368897Y-176876534D01*
X112338452Y-176851548D01*
X112313466Y-176821103D01*
X112294899Y-176786367D01*
X112283465Y-176748674D01*
X112279000Y-176703339D01*
X112279000Y-175866661D01*
X112283465Y-175821326D01*
X112294899Y-175783633D01*
X112313466Y-175748897D01*
X112338452Y-175718452D01*
X112368897Y-175693466D01*
X112403633Y-175674899D01*
X112441326Y-175663465D01*
X112486661Y-175659000D01*
X113573339Y-175659000D01*
X113618674Y-175663465D01*
X113618674Y-175663465D01*
G37*
G36*
X172693000Y-176764000D02*
G01*
X171091000Y-176764000D01*
X171091000Y-175162000D01*
X172693000Y-175162000D01*
X172693000Y-176764000D01*
X172693000Y-176764000D01*
G37*
G36*
X127751000Y-176365000D02*
G01*
X126049000Y-176365000D01*
X126049000Y-174663000D01*
X127751000Y-174663000D01*
X127751000Y-176365000D01*
X127751000Y-176365000D01*
G37*
G36*
X122009000Y-176365000D02*
G01*
X120307000Y-176365000D01*
X120307000Y-174663000D01*
X122009000Y-174663000D01*
X122009000Y-176365000D01*
X122009000Y-176365000D01*
G37*
G36*
X169585642Y-173922781D02*
G01*
X169731414Y-173983162D01*
X169731416Y-173983163D01*
X169862608Y-174070822D01*
X169974178Y-174182392D01*
X169981412Y-174193219D01*
X170061838Y-174313586D01*
X170122219Y-174459358D01*
X170153000Y-174614107D01*
X170153000Y-174771893D01*
X170122219Y-174926642D01*
X170061838Y-175072414D01*
X170061837Y-175072416D01*
X169974178Y-175203608D01*
X169862608Y-175315178D01*
X169731416Y-175402837D01*
X169731415Y-175402838D01*
X169731414Y-175402838D01*
X169585642Y-175463219D01*
X169430893Y-175494000D01*
X169273107Y-175494000D01*
X169118358Y-175463219D01*
X168972586Y-175402838D01*
X168972585Y-175402838D01*
X168972584Y-175402837D01*
X168841392Y-175315178D01*
X168729822Y-175203608D01*
X168642163Y-175072416D01*
X168642162Y-175072414D01*
X168581781Y-174926642D01*
X168551000Y-174771893D01*
X168551000Y-174614107D01*
X168581781Y-174459358D01*
X168642162Y-174313586D01*
X168722588Y-174193219D01*
X168729822Y-174182392D01*
X168841392Y-174070822D01*
X168972584Y-173983163D01*
X168972586Y-173983162D01*
X169118358Y-173922781D01*
X169273107Y-173892000D01*
X169430893Y-173892000D01*
X169585642Y-173922781D01*
X169585642Y-173922781D01*
G37*
G36*
X111078674Y-173613465D02*
G01*
X111116367Y-173624899D01*
X111151103Y-173643466D01*
X111181548Y-173668452D01*
X111206534Y-173698897D01*
X111225101Y-173733633D01*
X111236535Y-173771326D01*
X111241000Y-173816661D01*
X111241000Y-174653339D01*
X111236535Y-174698674D01*
X111225101Y-174736367D01*
X111206534Y-174771103D01*
X111181548Y-174801548D01*
X111151103Y-174826534D01*
X111116367Y-174845101D01*
X111078674Y-174856535D01*
X111033339Y-174861000D01*
X109946661Y-174861000D01*
X109901326Y-174856535D01*
X109863633Y-174845101D01*
X109828897Y-174826534D01*
X109798452Y-174801548D01*
X109773466Y-174771103D01*
X109754899Y-174736367D01*
X109743465Y-174698674D01*
X109739000Y-174653339D01*
X109739000Y-173816661D01*
X109743465Y-173771326D01*
X109754899Y-173733633D01*
X109773466Y-173698897D01*
X109798452Y-173668452D01*
X109828897Y-173643466D01*
X109863633Y-173624899D01*
X109901326Y-173613465D01*
X109946661Y-173609000D01*
X111033339Y-173609000D01*
X111078674Y-173613465D01*
X111078674Y-173613465D01*
G37*
G36*
X113618674Y-173613465D02*
G01*
X113656367Y-173624899D01*
X113691103Y-173643466D01*
X113721548Y-173668452D01*
X113746534Y-173698897D01*
X113765101Y-173733633D01*
X113776535Y-173771326D01*
X113781000Y-173816661D01*
X113781000Y-174653339D01*
X113776535Y-174698674D01*
X113765101Y-174736367D01*
X113746534Y-174771103D01*
X113721548Y-174801548D01*
X113691103Y-174826534D01*
X113656367Y-174845101D01*
X113618674Y-174856535D01*
X113573339Y-174861000D01*
X112486661Y-174861000D01*
X112441326Y-174856535D01*
X112403633Y-174845101D01*
X112368897Y-174826534D01*
X112338452Y-174801548D01*
X112313466Y-174771103D01*
X112294899Y-174736367D01*
X112283465Y-174698674D01*
X112279000Y-174653339D01*
X112279000Y-173816661D01*
X112283465Y-173771326D01*
X112294899Y-173733633D01*
X112313466Y-173698897D01*
X112338452Y-173668452D01*
X112368897Y-173643466D01*
X112403633Y-173624899D01*
X112441326Y-173613465D01*
X112486661Y-173609000D01*
X113573339Y-173609000D01*
X113618674Y-173613465D01*
X113618674Y-173613465D01*
G37*
G36*
X172125642Y-172652781D02*
G01*
X172271414Y-172713162D01*
X172271416Y-172713163D01*
X172402608Y-172800822D01*
X172514178Y-172912392D01*
X172521412Y-172923219D01*
X172601838Y-173043586D01*
X172662219Y-173189358D01*
X172693000Y-173344107D01*
X172693000Y-173501893D01*
X172662219Y-173656642D01*
X172630328Y-173733633D01*
X172601837Y-173802416D01*
X172514178Y-173933608D01*
X172402608Y-174045178D01*
X172271416Y-174132837D01*
X172271415Y-174132838D01*
X172271414Y-174132838D01*
X172125642Y-174193219D01*
X171970893Y-174224000D01*
X171813107Y-174224000D01*
X171658358Y-174193219D01*
X171512586Y-174132838D01*
X171512585Y-174132838D01*
X171512584Y-174132837D01*
X171381392Y-174045178D01*
X171269822Y-173933608D01*
X171182163Y-173802416D01*
X171153672Y-173733633D01*
X171121781Y-173656642D01*
X171091000Y-173501893D01*
X171091000Y-173344107D01*
X171121781Y-173189358D01*
X171182162Y-173043586D01*
X171262588Y-172923219D01*
X171269822Y-172912392D01*
X171381392Y-172800822D01*
X171512584Y-172713163D01*
X171512586Y-172713162D01*
X171658358Y-172652781D01*
X171813107Y-172622000D01*
X171970893Y-172622000D01*
X172125642Y-172652781D01*
X172125642Y-172652781D01*
G37*
G36*
X169585642Y-171382781D02*
G01*
X169731414Y-171443162D01*
X169731416Y-171443163D01*
X169862608Y-171530822D01*
X169974178Y-171642392D01*
X169981412Y-171653219D01*
X170061838Y-171773586D01*
X170122219Y-171919358D01*
X170153000Y-172074107D01*
X170153000Y-172231893D01*
X170122219Y-172386642D01*
X170061838Y-172532414D01*
X170061837Y-172532416D01*
X169974178Y-172663608D01*
X169862608Y-172775178D01*
X169731416Y-172862837D01*
X169731415Y-172862838D01*
X169731414Y-172862838D01*
X169585642Y-172923219D01*
X169430893Y-172954000D01*
X169273107Y-172954000D01*
X169118358Y-172923219D01*
X168972586Y-172862838D01*
X168972585Y-172862838D01*
X168972584Y-172862837D01*
X168841392Y-172775178D01*
X168729822Y-172663608D01*
X168642163Y-172532416D01*
X168642162Y-172532414D01*
X168581781Y-172386642D01*
X168551000Y-172231893D01*
X168551000Y-172074107D01*
X168581781Y-171919358D01*
X168642162Y-171773586D01*
X168722588Y-171653219D01*
X168729822Y-171642392D01*
X168841392Y-171530822D01*
X168972584Y-171443163D01*
X168972586Y-171443162D01*
X169118358Y-171382781D01*
X169273107Y-171352000D01*
X169430893Y-171352000D01*
X169585642Y-171382781D01*
X169585642Y-171382781D01*
G37*
G36*
X172125642Y-170112781D02*
G01*
X172271414Y-170173162D01*
X172271416Y-170173163D01*
X172402608Y-170260822D01*
X172514178Y-170372392D01*
X172601837Y-170503584D01*
X172601838Y-170503586D01*
X172662219Y-170649358D01*
X172693000Y-170804107D01*
X172693000Y-170961893D01*
X172662219Y-171116642D01*
X172601838Y-171262414D01*
X172601837Y-171262416D01*
X172514178Y-171393608D01*
X172402608Y-171505178D01*
X172271416Y-171592837D01*
X172271415Y-171592838D01*
X172271414Y-171592838D01*
X172125642Y-171653219D01*
X171970893Y-171684000D01*
X171813107Y-171684000D01*
X171658358Y-171653219D01*
X171512586Y-171592838D01*
X171512585Y-171592838D01*
X171512584Y-171592837D01*
X171381392Y-171505178D01*
X171269822Y-171393608D01*
X171182163Y-171262416D01*
X171182162Y-171262414D01*
X171121781Y-171116642D01*
X171091000Y-170961893D01*
X171091000Y-170804107D01*
X171121781Y-170649358D01*
X171182162Y-170503586D01*
X171182163Y-170503584D01*
X171269822Y-170372392D01*
X171381392Y-170260822D01*
X171512584Y-170173163D01*
X171512586Y-170173162D01*
X171658358Y-170112781D01*
X171813107Y-170082000D01*
X171970893Y-170082000D01*
X172125642Y-170112781D01*
X172125642Y-170112781D01*
G37*
G36*
X108602331Y-166924211D02*
G01*
X108930092Y-167059974D01*
X109225070Y-167257072D01*
X109475928Y-167507930D01*
X109673026Y-167802908D01*
X109808789Y-168130669D01*
X109878000Y-168478616D01*
X109878000Y-168833384D01*
X109808789Y-169181331D01*
X109673026Y-169509092D01*
X109475928Y-169804070D01*
X109225070Y-170054928D01*
X108930092Y-170252026D01*
X108602331Y-170387789D01*
X108254384Y-170457000D01*
X107899616Y-170457000D01*
X107551669Y-170387789D01*
X107223908Y-170252026D01*
X106928930Y-170054928D01*
X106678072Y-169804070D01*
X106480974Y-169509092D01*
X106345211Y-169181331D01*
X106276000Y-168833384D01*
X106276000Y-168478616D01*
X106345211Y-168130669D01*
X106480974Y-167802908D01*
X106678072Y-167507930D01*
X106928930Y-167257072D01*
X107223908Y-167059974D01*
X107551669Y-166924211D01*
X107899616Y-166855000D01*
X108254384Y-166855000D01*
X108602331Y-166924211D01*
X108602331Y-166924211D01*
G37*
G36*
X169585642Y-168842781D02*
G01*
X169731414Y-168903162D01*
X169731416Y-168903163D01*
X169862608Y-168990822D01*
X169974178Y-169102392D01*
X170046202Y-169210185D01*
X170061838Y-169233586D01*
X170122219Y-169379358D01*
X170153000Y-169534107D01*
X170153000Y-169691893D01*
X170122219Y-169846642D01*
X170061838Y-169992414D01*
X170061837Y-169992416D01*
X169974178Y-170123608D01*
X169862608Y-170235178D01*
X169731416Y-170322837D01*
X169731415Y-170322838D01*
X169731414Y-170322838D01*
X169585642Y-170383219D01*
X169430893Y-170414000D01*
X169273107Y-170414000D01*
X169118358Y-170383219D01*
X168972586Y-170322838D01*
X168972585Y-170322838D01*
X168972584Y-170322837D01*
X168841392Y-170235178D01*
X168729822Y-170123608D01*
X168642163Y-169992416D01*
X168642162Y-169992414D01*
X168581781Y-169846642D01*
X168551000Y-169691893D01*
X168551000Y-169534107D01*
X168581781Y-169379358D01*
X168642162Y-169233586D01*
X168657798Y-169210185D01*
X168729822Y-169102392D01*
X168841392Y-168990822D01*
X168972584Y-168903163D01*
X168972586Y-168903162D01*
X169118358Y-168842781D01*
X169273107Y-168812000D01*
X169430893Y-168812000D01*
X169585642Y-168842781D01*
X169585642Y-168842781D01*
G37*
G36*
X100328871Y-167359786D02*
G01*
X100534530Y-167422172D01*
X100724055Y-167523475D01*
X100724058Y-167523477D01*
X100724059Y-167523478D01*
X100890186Y-167659814D01*
X101007619Y-167802908D01*
X101026525Y-167825945D01*
X101127828Y-168015470D01*
X101190214Y-168221129D01*
X101211278Y-168435000D01*
X101190214Y-168648871D01*
X101127828Y-168854530D01*
X101026525Y-169044055D01*
X101026523Y-169044058D01*
X101026522Y-169044059D01*
X100890186Y-169210186D01*
X100724059Y-169346522D01*
X100724055Y-169346525D01*
X100534530Y-169447828D01*
X100328871Y-169510214D01*
X100168591Y-169526000D01*
X98541409Y-169526000D01*
X98381129Y-169510214D01*
X98175470Y-169447828D01*
X97985945Y-169346525D01*
X97985941Y-169346522D01*
X97819814Y-169210186D01*
X97683478Y-169044059D01*
X97683477Y-169044058D01*
X97683475Y-169044055D01*
X97582172Y-168854530D01*
X97519786Y-168648871D01*
X97498722Y-168435000D01*
X97519786Y-168221129D01*
X97582172Y-168015470D01*
X97683475Y-167825945D01*
X97702381Y-167802908D01*
X97819814Y-167659814D01*
X97985941Y-167523478D01*
X97985942Y-167523477D01*
X97985945Y-167523475D01*
X98175470Y-167422172D01*
X98381129Y-167359786D01*
X98541409Y-167344000D01*
X100168591Y-167344000D01*
X100328871Y-167359786D01*
X100328871Y-167359786D01*
G37*
G36*
X172125642Y-167572781D02*
G01*
X172271414Y-167633162D01*
X172271416Y-167633163D01*
X172402608Y-167720822D01*
X172514178Y-167832392D01*
X172521412Y-167843219D01*
X172601838Y-167963586D01*
X172662219Y-168109358D01*
X172693000Y-168264107D01*
X172693000Y-168421893D01*
X172662219Y-168576642D01*
X172601838Y-168722414D01*
X172601837Y-168722416D01*
X172514178Y-168853608D01*
X172402608Y-168965178D01*
X172271416Y-169052837D01*
X172271415Y-169052838D01*
X172271414Y-169052838D01*
X172125642Y-169113219D01*
X171970893Y-169144000D01*
X171813107Y-169144000D01*
X171658358Y-169113219D01*
X171512586Y-169052838D01*
X171512585Y-169052838D01*
X171512584Y-169052837D01*
X171381392Y-168965178D01*
X171269822Y-168853608D01*
X171182163Y-168722416D01*
X171182162Y-168722414D01*
X171121781Y-168576642D01*
X171091000Y-168421893D01*
X171091000Y-168264107D01*
X171121781Y-168109358D01*
X171182162Y-167963586D01*
X171262588Y-167843219D01*
X171269822Y-167832392D01*
X171381392Y-167720822D01*
X171512584Y-167633163D01*
X171512586Y-167633162D01*
X171658358Y-167572781D01*
X171813107Y-167542000D01*
X171970893Y-167542000D01*
X172125642Y-167572781D01*
X172125642Y-167572781D01*
G37*
G36*
X169585642Y-166302781D02*
G01*
X169731414Y-166363162D01*
X169731416Y-166363163D01*
X169862608Y-166450822D01*
X169974178Y-166562392D01*
X170060524Y-166691619D01*
X170061838Y-166693586D01*
X170122219Y-166839358D01*
X170153000Y-166994107D01*
X170153000Y-167151893D01*
X170122219Y-167306642D01*
X170061838Y-167452414D01*
X170061837Y-167452416D01*
X169974178Y-167583608D01*
X169862608Y-167695178D01*
X169731416Y-167782837D01*
X169731415Y-167782838D01*
X169731414Y-167782838D01*
X169585642Y-167843219D01*
X169430893Y-167874000D01*
X169273107Y-167874000D01*
X169118358Y-167843219D01*
X168972586Y-167782838D01*
X168972585Y-167782838D01*
X168972584Y-167782837D01*
X168841392Y-167695178D01*
X168729822Y-167583608D01*
X168642163Y-167452416D01*
X168642162Y-167452414D01*
X168581781Y-167306642D01*
X168551000Y-167151893D01*
X168551000Y-166994107D01*
X168581781Y-166839358D01*
X168642162Y-166693586D01*
X168643476Y-166691619D01*
X168729822Y-166562392D01*
X168841392Y-166450822D01*
X168972584Y-166363163D01*
X168972586Y-166363162D01*
X169118358Y-166302781D01*
X169273107Y-166272000D01*
X169430893Y-166272000D01*
X169585642Y-166302781D01*
X169585642Y-166302781D01*
G37*
G36*
X178789208Y-163999093D02*
G01*
X179077398Y-164118466D01*
X179130619Y-164140511D01*
X179356831Y-164291661D01*
X179437880Y-164345816D01*
X179699184Y-164607120D01*
X179904490Y-164914383D01*
X180045907Y-165255792D01*
X180118000Y-165618229D01*
X180118000Y-165987771D01*
X180045907Y-166350208D01*
X179904490Y-166691617D01*
X179904489Y-166691619D01*
X179699184Y-166998880D01*
X179437880Y-167260184D01*
X179130619Y-167465489D01*
X179130618Y-167465490D01*
X179130617Y-167465490D01*
X178789208Y-167606907D01*
X178426771Y-167679000D01*
X178057229Y-167679000D01*
X177694792Y-167606907D01*
X177353383Y-167465490D01*
X177353382Y-167465490D01*
X177353381Y-167465489D01*
X177046120Y-167260184D01*
X176784816Y-166998880D01*
X176579511Y-166691619D01*
X176579510Y-166691617D01*
X176438093Y-166350208D01*
X176366000Y-165987771D01*
X176366000Y-165618229D01*
X176438093Y-165255792D01*
X176579510Y-164914383D01*
X176784816Y-164607120D01*
X177046120Y-164345816D01*
X177127169Y-164291661D01*
X177353381Y-164140511D01*
X177406602Y-164118466D01*
X177694792Y-163999093D01*
X178057229Y-163927000D01*
X178426771Y-163927000D01*
X178789208Y-163999093D01*
X178789208Y-163999093D01*
G37*
G36*
X116793674Y-166138465D02*
G01*
X116831367Y-166149899D01*
X116866103Y-166168466D01*
X116896548Y-166193452D01*
X116921534Y-166223897D01*
X116940101Y-166258633D01*
X116951535Y-166296326D01*
X116956000Y-166341661D01*
X116956000Y-167178339D01*
X116951535Y-167223674D01*
X116940101Y-167261367D01*
X116921534Y-167296103D01*
X116896548Y-167326548D01*
X116866103Y-167351534D01*
X116831367Y-167370101D01*
X116793674Y-167381535D01*
X116748339Y-167386000D01*
X115661661Y-167386000D01*
X115616326Y-167381535D01*
X115578633Y-167370101D01*
X115543897Y-167351534D01*
X115513452Y-167326548D01*
X115488466Y-167296103D01*
X115469899Y-167261367D01*
X115458465Y-167223674D01*
X115454000Y-167178339D01*
X115454000Y-166341661D01*
X115458465Y-166296326D01*
X115469899Y-166258633D01*
X115488466Y-166223897D01*
X115513452Y-166193452D01*
X115543897Y-166168466D01*
X115578633Y-166149899D01*
X115616326Y-166138465D01*
X115661661Y-166134000D01*
X116748339Y-166134000D01*
X116793674Y-166138465D01*
X116793674Y-166138465D01*
G37*
G36*
X112983674Y-166138465D02*
G01*
X113021367Y-166149899D01*
X113056103Y-166168466D01*
X113086548Y-166193452D01*
X113111534Y-166223897D01*
X113130101Y-166258633D01*
X113141535Y-166296326D01*
X113146000Y-166341661D01*
X113146000Y-167178339D01*
X113141535Y-167223674D01*
X113130101Y-167261367D01*
X113111534Y-167296103D01*
X113086548Y-167326548D01*
X113056103Y-167351534D01*
X113021367Y-167370101D01*
X112983674Y-167381535D01*
X112938339Y-167386000D01*
X111851661Y-167386000D01*
X111806326Y-167381535D01*
X111768633Y-167370101D01*
X111733897Y-167351534D01*
X111703452Y-167326548D01*
X111678466Y-167296103D01*
X111659899Y-167261367D01*
X111648465Y-167223674D01*
X111644000Y-167178339D01*
X111644000Y-166341661D01*
X111648465Y-166296326D01*
X111659899Y-166258633D01*
X111678466Y-166223897D01*
X111703452Y-166193452D01*
X111733897Y-166168466D01*
X111768633Y-166149899D01*
X111806326Y-166138465D01*
X111851661Y-166134000D01*
X112938339Y-166134000D01*
X112983674Y-166138465D01*
X112983674Y-166138465D01*
G37*
G36*
X129493674Y-164233465D02*
G01*
X129531367Y-164244899D01*
X129566103Y-164263466D01*
X129596548Y-164288452D01*
X129621534Y-164318897D01*
X129640101Y-164353633D01*
X129651535Y-164391326D01*
X129656000Y-164436661D01*
X129656000Y-165273339D01*
X129651535Y-165318674D01*
X129640101Y-165356367D01*
X129621534Y-165391103D01*
X129596548Y-165421548D01*
X129566103Y-165446534D01*
X129531367Y-165465101D01*
X129493674Y-165476535D01*
X129448339Y-165481000D01*
X128361661Y-165481000D01*
X128316326Y-165476535D01*
X128278633Y-165465101D01*
X128243897Y-165446534D01*
X128213452Y-165421548D01*
X128188466Y-165391103D01*
X128169899Y-165356367D01*
X128158465Y-165318674D01*
X128154000Y-165273339D01*
X128154000Y-164436661D01*
X128158465Y-164391326D01*
X128169899Y-164353633D01*
X128188466Y-164318897D01*
X128213452Y-164288452D01*
X128243897Y-164263466D01*
X128278633Y-164244899D01*
X128316326Y-164233465D01*
X128361661Y-164229000D01*
X129448339Y-164229000D01*
X129493674Y-164233465D01*
X129493674Y-164233465D01*
G37*
G36*
X116793674Y-164088465D02*
G01*
X116831367Y-164099899D01*
X116866103Y-164118466D01*
X116896548Y-164143452D01*
X116921534Y-164173897D01*
X116940101Y-164208633D01*
X116951535Y-164246326D01*
X116956000Y-164291661D01*
X116956000Y-165128339D01*
X116951535Y-165173674D01*
X116940101Y-165211367D01*
X116921534Y-165246103D01*
X116896548Y-165276548D01*
X116866103Y-165301534D01*
X116831367Y-165320101D01*
X116793674Y-165331535D01*
X116748339Y-165336000D01*
X115661661Y-165336000D01*
X115616326Y-165331535D01*
X115578633Y-165320101D01*
X115543897Y-165301534D01*
X115513452Y-165276548D01*
X115488466Y-165246103D01*
X115469899Y-165211367D01*
X115458465Y-165173674D01*
X115454000Y-165128339D01*
X115454000Y-164291661D01*
X115458465Y-164246326D01*
X115469899Y-164208633D01*
X115488466Y-164173897D01*
X115513452Y-164143452D01*
X115543897Y-164118466D01*
X115578633Y-164099899D01*
X115616326Y-164088465D01*
X115661661Y-164084000D01*
X116748339Y-164084000D01*
X116793674Y-164088465D01*
X116793674Y-164088465D01*
G37*
G36*
X112983674Y-164088465D02*
G01*
X113021367Y-164099899D01*
X113056103Y-164118466D01*
X113086548Y-164143452D01*
X113111534Y-164173897D01*
X113130101Y-164208633D01*
X113141535Y-164246326D01*
X113146000Y-164291661D01*
X113146000Y-165128339D01*
X113141535Y-165173674D01*
X113130101Y-165211367D01*
X113111534Y-165246103D01*
X113086548Y-165276548D01*
X113056103Y-165301534D01*
X113021367Y-165320101D01*
X112983674Y-165331535D01*
X112938339Y-165336000D01*
X111851661Y-165336000D01*
X111806326Y-165331535D01*
X111768633Y-165320101D01*
X111733897Y-165301534D01*
X111703452Y-165276548D01*
X111678466Y-165246103D01*
X111659899Y-165211367D01*
X111648465Y-165173674D01*
X111644000Y-165128339D01*
X111644000Y-164291661D01*
X111648465Y-164246326D01*
X111659899Y-164208633D01*
X111678466Y-164173897D01*
X111703452Y-164143452D01*
X111733897Y-164118466D01*
X111768633Y-164099899D01*
X111806326Y-164088465D01*
X111851661Y-164084000D01*
X112938339Y-164084000D01*
X112983674Y-164088465D01*
X112983674Y-164088465D01*
G37*
G36*
X175571487Y-162516996D02*
G01*
X175808253Y-162615068D01*
X175808255Y-162615069D01*
X176021339Y-162757447D01*
X176202553Y-162938661D01*
X176318696Y-163112481D01*
X176344932Y-163151747D01*
X176443004Y-163388513D01*
X176493000Y-163639861D01*
X176493000Y-163896139D01*
X176443004Y-164147487D01*
X176372003Y-164318897D01*
X176344931Y-164384255D01*
X176202553Y-164597339D01*
X176021339Y-164778553D01*
X175808255Y-164920931D01*
X175808254Y-164920932D01*
X175808253Y-164920932D01*
X175571487Y-165019004D01*
X175320139Y-165069000D01*
X175063861Y-165069000D01*
X174812513Y-165019004D01*
X174575747Y-164920932D01*
X174575746Y-164920932D01*
X174575745Y-164920931D01*
X174362661Y-164778553D01*
X174181447Y-164597339D01*
X174039069Y-164384255D01*
X174011997Y-164318897D01*
X173940996Y-164147487D01*
X173891000Y-163896139D01*
X173891000Y-163639861D01*
X173940996Y-163388513D01*
X174039068Y-163151747D01*
X174065305Y-163112481D01*
X174181447Y-162938661D01*
X174362661Y-162757447D01*
X174575745Y-162615069D01*
X174575747Y-162615068D01*
X174812513Y-162516996D01*
X175063861Y-162467000D01*
X175320139Y-162467000D01*
X175571487Y-162516996D01*
X175571487Y-162516996D01*
G37*
G36*
X101071217Y-162267808D02*
G01*
X101102489Y-162277294D01*
X101131308Y-162292698D01*
X101156570Y-162313430D01*
X101177302Y-162338692D01*
X101192706Y-162367511D01*
X101202192Y-162398783D01*
X101206000Y-162437448D01*
X101206000Y-164272552D01*
X101202192Y-164311217D01*
X101192706Y-164342489D01*
X101177302Y-164371308D01*
X101156570Y-164396570D01*
X101131308Y-164417302D01*
X101102489Y-164432706D01*
X101071217Y-164442192D01*
X101032552Y-164446000D01*
X97677448Y-164446000D01*
X97638783Y-164442192D01*
X97607511Y-164432706D01*
X97578692Y-164417302D01*
X97553430Y-164396570D01*
X97532698Y-164371308D01*
X97517294Y-164342489D01*
X97507808Y-164311217D01*
X97504000Y-164272552D01*
X97504000Y-162437448D01*
X97507808Y-162398783D01*
X97517294Y-162367511D01*
X97532698Y-162338692D01*
X97553430Y-162313430D01*
X97578692Y-162292698D01*
X97607511Y-162277294D01*
X97638783Y-162267808D01*
X97677448Y-162264000D01*
X101032552Y-162264000D01*
X101071217Y-162267808D01*
X101071217Y-162267808D01*
G37*
G36*
X129493674Y-162183465D02*
G01*
X129531367Y-162194899D01*
X129566103Y-162213466D01*
X129596548Y-162238452D01*
X129621534Y-162268897D01*
X129640101Y-162303633D01*
X129651535Y-162341326D01*
X129656000Y-162386661D01*
X129656000Y-163223339D01*
X129651535Y-163268674D01*
X129640101Y-163306367D01*
X129621534Y-163341103D01*
X129596548Y-163371548D01*
X129566103Y-163396534D01*
X129531367Y-163415101D01*
X129493674Y-163426535D01*
X129448339Y-163431000D01*
X128361661Y-163431000D01*
X128316326Y-163426535D01*
X128278633Y-163415101D01*
X128243897Y-163396534D01*
X128213452Y-163371548D01*
X128188466Y-163341103D01*
X128169899Y-163306367D01*
X128158465Y-163268674D01*
X128154000Y-163223339D01*
X128154000Y-162386661D01*
X128158465Y-162341326D01*
X128169899Y-162303633D01*
X128188466Y-162268897D01*
X128213452Y-162238452D01*
X128243897Y-162213466D01*
X128278633Y-162194899D01*
X128316326Y-162183465D01*
X128361661Y-162179000D01*
X129448339Y-162179000D01*
X129493674Y-162183465D01*
X129493674Y-162183465D01*
G37*
G36*
X137753228Y-161751703D02*
G01*
X137908100Y-161815853D01*
X138047481Y-161908985D01*
X138166015Y-162027519D01*
X138259147Y-162166900D01*
X138323297Y-162321772D01*
X138356000Y-162486184D01*
X138356000Y-162653816D01*
X138323297Y-162818228D01*
X138259147Y-162973100D01*
X138166015Y-163112481D01*
X138047481Y-163231015D01*
X137908100Y-163324147D01*
X137753228Y-163388297D01*
X137588816Y-163421000D01*
X137421184Y-163421000D01*
X137256772Y-163388297D01*
X137101900Y-163324147D01*
X136962519Y-163231015D01*
X136843985Y-163112481D01*
X136750853Y-162973100D01*
X136686703Y-162818228D01*
X136654000Y-162653816D01*
X136654000Y-162486184D01*
X136686703Y-162321772D01*
X136750853Y-162166900D01*
X136843985Y-162027519D01*
X136962519Y-161908985D01*
X137101900Y-161815853D01*
X137256772Y-161751703D01*
X137421184Y-161719000D01*
X137588816Y-161719000D01*
X137753228Y-161751703D01*
X137753228Y-161751703D01*
G37*
G36*
X143468228Y-161751703D02*
G01*
X143623100Y-161815853D01*
X143762481Y-161908985D01*
X143881015Y-162027519D01*
X143974147Y-162166900D01*
X144038297Y-162321772D01*
X144071000Y-162486184D01*
X144071000Y-162653816D01*
X144038297Y-162818228D01*
X143974147Y-162973100D01*
X143881015Y-163112481D01*
X143762481Y-163231015D01*
X143623100Y-163324147D01*
X143468228Y-163388297D01*
X143303816Y-163421000D01*
X143136184Y-163421000D01*
X142971772Y-163388297D01*
X142816900Y-163324147D01*
X142677519Y-163231015D01*
X142558985Y-163112481D01*
X142465853Y-162973100D01*
X142401703Y-162818228D01*
X142369000Y-162653816D01*
X142369000Y-162486184D01*
X142401703Y-162321772D01*
X142465853Y-162166900D01*
X142558985Y-162027519D01*
X142677519Y-161908985D01*
X142816900Y-161815853D01*
X142971772Y-161751703D01*
X143136184Y-161719000D01*
X143303816Y-161719000D01*
X143468228Y-161751703D01*
X143468228Y-161751703D01*
G37*
G36*
X151763674Y-161643465D02*
G01*
X151801367Y-161654899D01*
X151836103Y-161673466D01*
X151866548Y-161698452D01*
X151891534Y-161728897D01*
X151910101Y-161763633D01*
X151921535Y-161801326D01*
X151926000Y-161846661D01*
X151926000Y-162683339D01*
X151921535Y-162728674D01*
X151910101Y-162766367D01*
X151891534Y-162801103D01*
X151866548Y-162831548D01*
X151836103Y-162856534D01*
X151801367Y-162875101D01*
X151763674Y-162886535D01*
X151718339Y-162891000D01*
X150631661Y-162891000D01*
X150586326Y-162886535D01*
X150548633Y-162875101D01*
X150513897Y-162856534D01*
X150483452Y-162831548D01*
X150458466Y-162801103D01*
X150439899Y-162766367D01*
X150428465Y-162728674D01*
X150424000Y-162683339D01*
X150424000Y-161846661D01*
X150428465Y-161801326D01*
X150439899Y-161763633D01*
X150458466Y-161728897D01*
X150483452Y-161698452D01*
X150513897Y-161673466D01*
X150548633Y-161654899D01*
X150586326Y-161643465D01*
X150631661Y-161639000D01*
X151718339Y-161639000D01*
X151763674Y-161643465D01*
X151763674Y-161643465D01*
G37*
G36*
X147953674Y-161643465D02*
G01*
X147991367Y-161654899D01*
X148026103Y-161673466D01*
X148056548Y-161698452D01*
X148081534Y-161728897D01*
X148100101Y-161763633D01*
X148111535Y-161801326D01*
X148116000Y-161846661D01*
X148116000Y-162683339D01*
X148111535Y-162728674D01*
X148100101Y-162766367D01*
X148081534Y-162801103D01*
X148056548Y-162831548D01*
X148026103Y-162856534D01*
X147991367Y-162875101D01*
X147953674Y-162886535D01*
X147908339Y-162891000D01*
X146821661Y-162891000D01*
X146776326Y-162886535D01*
X146738633Y-162875101D01*
X146703897Y-162856534D01*
X146673452Y-162831548D01*
X146648466Y-162801103D01*
X146629899Y-162766367D01*
X146618465Y-162728674D01*
X146614000Y-162683339D01*
X146614000Y-161846661D01*
X146618465Y-161801326D01*
X146629899Y-161763633D01*
X146648466Y-161728897D01*
X146673452Y-161698452D01*
X146703897Y-161673466D01*
X146738633Y-161654899D01*
X146776326Y-161643465D01*
X146821661Y-161639000D01*
X147908339Y-161639000D01*
X147953674Y-161643465D01*
X147953674Y-161643465D01*
G37*
G36*
X130763674Y-159788465D02*
G01*
X130801367Y-159799899D01*
X130836103Y-159818466D01*
X130866548Y-159843452D01*
X130891534Y-159873897D01*
X130910101Y-159908633D01*
X130921535Y-159946326D01*
X130926000Y-159991661D01*
X130926000Y-160828339D01*
X130921535Y-160873674D01*
X130910101Y-160911367D01*
X130891534Y-160946103D01*
X130866548Y-160976548D01*
X130836103Y-161001534D01*
X130801367Y-161020101D01*
X130763674Y-161031535D01*
X130718339Y-161036000D01*
X129631661Y-161036000D01*
X129586326Y-161031535D01*
X129548633Y-161020101D01*
X129513897Y-161001534D01*
X129483452Y-160976548D01*
X129458466Y-160946103D01*
X129439899Y-160911367D01*
X129428465Y-160873674D01*
X129424000Y-160828339D01*
X129424000Y-159991661D01*
X129428465Y-159946326D01*
X129439899Y-159908633D01*
X129458466Y-159873897D01*
X129483452Y-159843452D01*
X129513897Y-159818466D01*
X129548633Y-159799899D01*
X129586326Y-159788465D01*
X129631661Y-159784000D01*
X130718339Y-159784000D01*
X130763674Y-159788465D01*
X130763674Y-159788465D01*
G37*
G36*
X128223674Y-159788465D02*
G01*
X128261367Y-159799899D01*
X128296103Y-159818466D01*
X128326548Y-159843452D01*
X128351534Y-159873897D01*
X128370101Y-159908633D01*
X128381535Y-159946326D01*
X128386000Y-159991661D01*
X128386000Y-160828339D01*
X128381535Y-160873674D01*
X128370101Y-160911367D01*
X128351534Y-160946103D01*
X128326548Y-160976548D01*
X128296103Y-161001534D01*
X128261367Y-161020101D01*
X128223674Y-161031535D01*
X128178339Y-161036000D01*
X127091661Y-161036000D01*
X127046326Y-161031535D01*
X127008633Y-161020101D01*
X126973897Y-161001534D01*
X126943452Y-160976548D01*
X126918466Y-160946103D01*
X126899899Y-160911367D01*
X126888465Y-160873674D01*
X126884000Y-160828339D01*
X126884000Y-159991661D01*
X126888465Y-159946326D01*
X126899899Y-159908633D01*
X126918466Y-159873897D01*
X126943452Y-159843452D01*
X126973897Y-159818466D01*
X127008633Y-159799899D01*
X127046326Y-159788465D01*
X127091661Y-159784000D01*
X128178339Y-159784000D01*
X128223674Y-159788465D01*
X128223674Y-159788465D01*
G37*
G36*
X138356000Y-160921000D02*
G01*
X136654000Y-160921000D01*
X136654000Y-159219000D01*
X138356000Y-159219000D01*
X138356000Y-160921000D01*
X138356000Y-160921000D01*
G37*
G36*
X144071000Y-160921000D02*
G01*
X142369000Y-160921000D01*
X142369000Y-159219000D01*
X144071000Y-159219000D01*
X144071000Y-160921000D01*
X144071000Y-160921000D01*
G37*
G36*
X147953674Y-159593465D02*
G01*
X147991367Y-159604899D01*
X148026103Y-159623466D01*
X148056548Y-159648452D01*
X148081534Y-159678897D01*
X148100101Y-159713633D01*
X148111535Y-159751326D01*
X148116000Y-159796661D01*
X148116000Y-160633339D01*
X148111535Y-160678674D01*
X148100101Y-160716367D01*
X148081534Y-160751103D01*
X148056548Y-160781548D01*
X148026103Y-160806534D01*
X147991367Y-160825101D01*
X147953674Y-160836535D01*
X147908339Y-160841000D01*
X146821661Y-160841000D01*
X146776326Y-160836535D01*
X146738633Y-160825101D01*
X146703897Y-160806534D01*
X146673452Y-160781548D01*
X146648466Y-160751103D01*
X146629899Y-160716367D01*
X146618465Y-160678674D01*
X146614000Y-160633339D01*
X146614000Y-159796661D01*
X146618465Y-159751326D01*
X146629899Y-159713633D01*
X146648466Y-159678897D01*
X146673452Y-159648452D01*
X146703897Y-159623466D01*
X146738633Y-159604899D01*
X146776326Y-159593465D01*
X146821661Y-159589000D01*
X147908339Y-159589000D01*
X147953674Y-159593465D01*
X147953674Y-159593465D01*
G37*
G36*
X151763674Y-159593465D02*
G01*
X151801367Y-159604899D01*
X151836103Y-159623466D01*
X151866548Y-159648452D01*
X151891534Y-159678897D01*
X151910101Y-159713633D01*
X151921535Y-159751326D01*
X151926000Y-159796661D01*
X151926000Y-160633339D01*
X151921535Y-160678674D01*
X151910101Y-160716367D01*
X151891534Y-160751103D01*
X151866548Y-160781548D01*
X151836103Y-160806534D01*
X151801367Y-160825101D01*
X151763674Y-160836535D01*
X151718339Y-160841000D01*
X150631661Y-160841000D01*
X150586326Y-160836535D01*
X150548633Y-160825101D01*
X150513897Y-160806534D01*
X150483452Y-160781548D01*
X150458466Y-160751103D01*
X150439899Y-160716367D01*
X150428465Y-160678674D01*
X150424000Y-160633339D01*
X150424000Y-159796661D01*
X150428465Y-159751326D01*
X150439899Y-159713633D01*
X150458466Y-159678897D01*
X150483452Y-159648452D01*
X150513897Y-159623466D01*
X150548633Y-159604899D01*
X150586326Y-159593465D01*
X150631661Y-159589000D01*
X151718339Y-159589000D01*
X151763674Y-159593465D01*
X151763674Y-159593465D01*
G37*
G36*
X175571487Y-157198996D02*
G01*
X175808253Y-157297068D01*
X175808255Y-157297069D01*
X176021339Y-157439447D01*
X176202553Y-157620661D01*
X176338351Y-157823897D01*
X176344932Y-157833747D01*
X176443004Y-158070513D01*
X176493000Y-158321861D01*
X176493000Y-158578139D01*
X176443004Y-158829487D01*
X176380340Y-158980770D01*
X176344931Y-159066255D01*
X176202553Y-159279339D01*
X176021339Y-159460553D01*
X175808255Y-159602931D01*
X175808254Y-159602932D01*
X175808253Y-159602932D01*
X175571487Y-159701004D01*
X175320139Y-159751000D01*
X175063861Y-159751000D01*
X174812513Y-159701004D01*
X174575747Y-159602932D01*
X174575746Y-159602932D01*
X174575745Y-159602931D01*
X174362661Y-159460553D01*
X174181447Y-159279339D01*
X174039069Y-159066255D01*
X174003660Y-158980770D01*
X173940996Y-158829487D01*
X173891000Y-158578139D01*
X173891000Y-158321861D01*
X173940996Y-158070513D01*
X174039068Y-157833747D01*
X174045650Y-157823897D01*
X174181447Y-157620661D01*
X174362661Y-157439447D01*
X174575745Y-157297069D01*
X174575747Y-157297068D01*
X174812513Y-157198996D01*
X175063861Y-157149000D01*
X175320139Y-157149000D01*
X175571487Y-157198996D01*
X175571487Y-157198996D01*
G37*
G36*
X128223674Y-157738465D02*
G01*
X128261367Y-157749899D01*
X128296103Y-157768466D01*
X128326548Y-157793452D01*
X128351534Y-157823897D01*
X128370101Y-157858633D01*
X128381535Y-157896326D01*
X128386000Y-157941661D01*
X128386000Y-158778339D01*
X128381535Y-158823674D01*
X128370101Y-158861367D01*
X128351534Y-158896103D01*
X128326548Y-158926548D01*
X128296103Y-158951534D01*
X128261367Y-158970101D01*
X128223674Y-158981535D01*
X128178339Y-158986000D01*
X127091661Y-158986000D01*
X127046326Y-158981535D01*
X127008633Y-158970101D01*
X126973897Y-158951534D01*
X126943452Y-158926548D01*
X126918466Y-158896103D01*
X126899899Y-158861367D01*
X126888465Y-158823674D01*
X126884000Y-158778339D01*
X126884000Y-157941661D01*
X126888465Y-157896326D01*
X126899899Y-157858633D01*
X126918466Y-157823897D01*
X126943452Y-157793452D01*
X126973897Y-157768466D01*
X127008633Y-157749899D01*
X127046326Y-157738465D01*
X127091661Y-157734000D01*
X128178339Y-157734000D01*
X128223674Y-157738465D01*
X128223674Y-157738465D01*
G37*
G36*
X130763674Y-157738465D02*
G01*
X130801367Y-157749899D01*
X130836103Y-157768466D01*
X130866548Y-157793452D01*
X130891534Y-157823897D01*
X130910101Y-157858633D01*
X130921535Y-157896326D01*
X130926000Y-157941661D01*
X130926000Y-158778339D01*
X130921535Y-158823674D01*
X130910101Y-158861367D01*
X130891534Y-158896103D01*
X130866548Y-158926548D01*
X130836103Y-158951534D01*
X130801367Y-158970101D01*
X130763674Y-158981535D01*
X130718339Y-158986000D01*
X129631661Y-158986000D01*
X129586326Y-158981535D01*
X129548633Y-158970101D01*
X129513897Y-158951534D01*
X129483452Y-158926548D01*
X129458466Y-158896103D01*
X129439899Y-158861367D01*
X129428465Y-158823674D01*
X129424000Y-158778339D01*
X129424000Y-157941661D01*
X129428465Y-157896326D01*
X129439899Y-157858633D01*
X129458466Y-157823897D01*
X129483452Y-157793452D01*
X129513897Y-157768466D01*
X129548633Y-157749899D01*
X129586326Y-157738465D01*
X129631661Y-157734000D01*
X130718339Y-157734000D01*
X130763674Y-157738465D01*
X130763674Y-157738465D01*
G37*
G36*
X178789208Y-154611093D02*
G01*
X179130617Y-154752510D01*
X179130619Y-154752511D01*
X179437880Y-154957816D01*
X179699184Y-155219120D01*
X179904490Y-155526383D01*
X180045907Y-155867792D01*
X180118000Y-156230229D01*
X180118000Y-156599771D01*
X180045907Y-156962208D01*
X179947825Y-157198997D01*
X179904489Y-157303619D01*
X179699184Y-157610880D01*
X179437880Y-157872184D01*
X179130619Y-158077489D01*
X179130618Y-158077490D01*
X179130617Y-158077490D01*
X178789208Y-158218907D01*
X178426771Y-158291000D01*
X178057229Y-158291000D01*
X177694792Y-158218907D01*
X177353383Y-158077490D01*
X177353382Y-158077490D01*
X177353381Y-158077489D01*
X177046120Y-157872184D01*
X176784816Y-157610880D01*
X176579511Y-157303619D01*
X176536175Y-157198997D01*
X176438093Y-156962208D01*
X176366000Y-156599771D01*
X176366000Y-156230229D01*
X176438093Y-155867792D01*
X176579510Y-155526383D01*
X176784816Y-155219120D01*
X177046120Y-154957816D01*
X177353381Y-154752511D01*
X177353383Y-154752510D01*
X177694792Y-154611093D01*
X178057229Y-154539000D01*
X178426771Y-154539000D01*
X178789208Y-154611093D01*
X178789208Y-154611093D01*
G37*
G36*
X100373871Y-154454786D02*
G01*
X100579530Y-154517172D01*
X100769055Y-154618475D01*
X100769058Y-154618477D01*
X100769059Y-154618478D01*
X100935186Y-154754814D01*
X101071522Y-154920941D01*
X101071525Y-154920945D01*
X101172828Y-155110470D01*
X101235214Y-155316129D01*
X101256278Y-155530000D01*
X101235214Y-155743871D01*
X101172828Y-155949530D01*
X101071525Y-156139055D01*
X101071523Y-156139058D01*
X101071522Y-156139059D01*
X100935186Y-156305186D01*
X100769059Y-156441522D01*
X100769055Y-156441525D01*
X100579530Y-156542828D01*
X100373871Y-156605214D01*
X100213591Y-156621000D01*
X98586409Y-156621000D01*
X98426129Y-156605214D01*
X98220470Y-156542828D01*
X98030945Y-156441525D01*
X98030941Y-156441522D01*
X97864814Y-156305186D01*
X97728478Y-156139059D01*
X97728477Y-156139058D01*
X97728475Y-156139055D01*
X97627172Y-155949530D01*
X97564786Y-155743871D01*
X97543722Y-155530000D01*
X97564786Y-155316129D01*
X97627172Y-155110470D01*
X97728475Y-154920945D01*
X97728478Y-154920941D01*
X97864814Y-154754814D01*
X98030941Y-154618478D01*
X98030942Y-154618477D01*
X98030945Y-154618475D01*
X98220470Y-154517172D01*
X98426129Y-154454786D01*
X98586409Y-154439000D01*
X100213591Y-154439000D01*
X100373871Y-154454786D01*
X100373871Y-154454786D01*
G37*
G36*
X172693000Y-155946000D02*
G01*
X171091000Y-155946000D01*
X171091000Y-154344000D01*
X172693000Y-154344000D01*
X172693000Y-155946000D01*
X172693000Y-155946000D01*
G37*
G36*
X169585642Y-153104781D02*
G01*
X169731414Y-153165162D01*
X169731416Y-153165163D01*
X169862608Y-153252822D01*
X169974178Y-153364392D01*
X169981412Y-153375219D01*
X170061838Y-153495586D01*
X170122219Y-153641358D01*
X170153000Y-153796107D01*
X170153000Y-153953893D01*
X170122219Y-154108642D01*
X170061838Y-154254414D01*
X170061837Y-154254416D01*
X169974178Y-154385608D01*
X169862608Y-154497178D01*
X169731416Y-154584837D01*
X169731415Y-154584838D01*
X169731414Y-154584838D01*
X169585642Y-154645219D01*
X169430893Y-154676000D01*
X169273107Y-154676000D01*
X169118358Y-154645219D01*
X168972586Y-154584838D01*
X168972585Y-154584838D01*
X168972584Y-154584837D01*
X168841392Y-154497178D01*
X168729822Y-154385608D01*
X168642163Y-154254416D01*
X168642162Y-154254414D01*
X168581781Y-154108642D01*
X168551000Y-153953893D01*
X168551000Y-153796107D01*
X168581781Y-153641358D01*
X168642162Y-153495586D01*
X168722588Y-153375219D01*
X168729822Y-153364392D01*
X168841392Y-153252822D01*
X168972584Y-153165163D01*
X168972586Y-153165162D01*
X169118358Y-153104781D01*
X169273107Y-153074000D01*
X169430893Y-153074000D01*
X169585642Y-153104781D01*
X169585642Y-153104781D01*
G37*
G36*
X172125642Y-151834781D02*
G01*
X172271414Y-151895162D01*
X172271416Y-151895163D01*
X172402608Y-151982822D01*
X172514178Y-152094392D01*
X172521412Y-152105219D01*
X172601838Y-152225586D01*
X172662219Y-152371358D01*
X172693000Y-152526107D01*
X172693000Y-152683893D01*
X172662219Y-152838642D01*
X172601838Y-152984414D01*
X172601837Y-152984416D01*
X172514178Y-153115608D01*
X172402608Y-153227178D01*
X172271416Y-153314837D01*
X172271415Y-153314838D01*
X172271414Y-153314838D01*
X172125642Y-153375219D01*
X171970893Y-153406000D01*
X171813107Y-153406000D01*
X171658358Y-153375219D01*
X171512586Y-153314838D01*
X171512585Y-153314838D01*
X171512584Y-153314837D01*
X171381392Y-153227178D01*
X171269822Y-153115608D01*
X171182163Y-152984416D01*
X171182162Y-152984414D01*
X171121781Y-152838642D01*
X171091000Y-152683893D01*
X171091000Y-152526107D01*
X171121781Y-152371358D01*
X171182162Y-152225586D01*
X171262588Y-152105219D01*
X171269822Y-152094392D01*
X171381392Y-151982822D01*
X171512584Y-151895163D01*
X171512586Y-151895162D01*
X171658358Y-151834781D01*
X171813107Y-151804000D01*
X171970893Y-151804000D01*
X172125642Y-151834781D01*
X172125642Y-151834781D01*
G37*
G36*
X169585642Y-150564781D02*
G01*
X169731414Y-150625162D01*
X169731416Y-150625163D01*
X169862608Y-150712822D01*
X169974178Y-150824392D01*
X169981412Y-150835219D01*
X170061838Y-150955586D01*
X170122219Y-151101358D01*
X170153000Y-151256107D01*
X170153000Y-151413893D01*
X170122219Y-151568642D01*
X170061838Y-151714414D01*
X170061837Y-151714416D01*
X169974178Y-151845608D01*
X169862608Y-151957178D01*
X169731416Y-152044837D01*
X169731415Y-152044838D01*
X169731414Y-152044838D01*
X169585642Y-152105219D01*
X169430893Y-152136000D01*
X169273107Y-152136000D01*
X169118358Y-152105219D01*
X168972586Y-152044838D01*
X168972585Y-152044838D01*
X168972584Y-152044837D01*
X168841392Y-151957178D01*
X168729822Y-151845608D01*
X168642163Y-151714416D01*
X168642162Y-151714414D01*
X168581781Y-151568642D01*
X168551000Y-151413893D01*
X168551000Y-151256107D01*
X168581781Y-151101358D01*
X168642162Y-150955586D01*
X168722588Y-150835219D01*
X168729822Y-150824392D01*
X168841392Y-150712822D01*
X168972584Y-150625163D01*
X168972586Y-150625162D01*
X169118358Y-150564781D01*
X169273107Y-150534000D01*
X169430893Y-150534000D01*
X169585642Y-150564781D01*
X169585642Y-150564781D01*
G37*
G36*
X101116217Y-149362808D02*
G01*
X101147489Y-149372294D01*
X101176308Y-149387698D01*
X101201570Y-149408430D01*
X101222302Y-149433692D01*
X101237706Y-149462511D01*
X101247192Y-149493783D01*
X101251000Y-149532448D01*
X101251000Y-151367552D01*
X101247192Y-151406217D01*
X101237706Y-151437489D01*
X101222302Y-151466308D01*
X101201570Y-151491570D01*
X101176308Y-151512302D01*
X101147489Y-151527706D01*
X101116217Y-151537192D01*
X101077552Y-151541000D01*
X97722448Y-151541000D01*
X97683783Y-151537192D01*
X97652511Y-151527706D01*
X97623692Y-151512302D01*
X97598430Y-151491570D01*
X97577698Y-151466308D01*
X97562294Y-151437489D01*
X97552808Y-151406217D01*
X97549000Y-151367552D01*
X97549000Y-149532448D01*
X97552808Y-149493783D01*
X97562294Y-149462511D01*
X97577698Y-149433692D01*
X97598430Y-149408430D01*
X97623692Y-149387698D01*
X97652511Y-149372294D01*
X97683783Y-149362808D01*
X97722448Y-149359000D01*
X101077552Y-149359000D01*
X101116217Y-149362808D01*
X101116217Y-149362808D01*
G37*
G36*
X172125642Y-149294781D02*
G01*
X172271414Y-149355162D01*
X172271416Y-149355163D01*
X172402608Y-149442822D01*
X172514178Y-149554392D01*
X172541979Y-149596000D01*
X172601838Y-149685586D01*
X172662219Y-149831358D01*
X172693000Y-149986107D01*
X172693000Y-150143893D01*
X172662219Y-150298642D01*
X172601838Y-150444414D01*
X172601837Y-150444416D01*
X172514178Y-150575608D01*
X172402608Y-150687178D01*
X172271416Y-150774837D01*
X172271415Y-150774838D01*
X172271414Y-150774838D01*
X172125642Y-150835219D01*
X171970893Y-150866000D01*
X171813107Y-150866000D01*
X171658358Y-150835219D01*
X171512586Y-150774838D01*
X171512585Y-150774838D01*
X171512584Y-150774837D01*
X171381392Y-150687178D01*
X171269822Y-150575608D01*
X171182163Y-150444416D01*
X171182162Y-150444414D01*
X171121781Y-150298642D01*
X171091000Y-150143893D01*
X171091000Y-149986107D01*
X171121781Y-149831358D01*
X171182162Y-149685586D01*
X171242021Y-149596000D01*
X171269822Y-149554392D01*
X171381392Y-149442822D01*
X171512584Y-149355163D01*
X171512586Y-149355162D01*
X171658358Y-149294781D01*
X171813107Y-149264000D01*
X171970893Y-149264000D01*
X172125642Y-149294781D01*
X172125642Y-149294781D01*
G37*
G36*
X169585642Y-148024781D02*
G01*
X169731414Y-148085162D01*
X169731416Y-148085163D01*
X169862608Y-148172822D01*
X169974178Y-148284392D01*
X170005060Y-148330611D01*
X170061838Y-148415586D01*
X170122219Y-148561358D01*
X170153000Y-148716107D01*
X170153000Y-148873893D01*
X170122219Y-149028642D01*
X170061838Y-149174414D01*
X170061837Y-149174416D01*
X169974178Y-149305608D01*
X169862608Y-149417178D01*
X169731416Y-149504837D01*
X169731415Y-149504838D01*
X169731414Y-149504838D01*
X169585642Y-149565219D01*
X169430893Y-149596000D01*
X169273107Y-149596000D01*
X169118358Y-149565219D01*
X168972586Y-149504838D01*
X168972585Y-149504838D01*
X168972584Y-149504837D01*
X168841392Y-149417178D01*
X168729822Y-149305608D01*
X168642163Y-149174416D01*
X168642162Y-149174414D01*
X168581781Y-149028642D01*
X168551000Y-148873893D01*
X168551000Y-148716107D01*
X168581781Y-148561358D01*
X168642162Y-148415586D01*
X168698940Y-148330611D01*
X168729822Y-148284392D01*
X168841392Y-148172822D01*
X168972584Y-148085163D01*
X168972586Y-148085162D01*
X169118358Y-148024781D01*
X169273107Y-147994000D01*
X169430893Y-147994000D01*
X169585642Y-148024781D01*
X169585642Y-148024781D01*
G37*
G36*
X129896564Y-146309389D02*
G01*
X130087833Y-146388615D01*
X130087835Y-146388616D01*
X130259973Y-146503635D01*
X130406365Y-146650027D01*
X130516705Y-146815162D01*
X130521385Y-146822167D01*
X130600611Y-147013436D01*
X130641000Y-147216484D01*
X130641000Y-147423516D01*
X130600611Y-147626564D01*
X130521385Y-147817833D01*
X130521384Y-147817835D01*
X130406365Y-147989973D01*
X130259973Y-148136365D01*
X130087835Y-148251384D01*
X130087834Y-148251385D01*
X130087833Y-148251385D01*
X129896564Y-148330611D01*
X129693516Y-148371000D01*
X129486484Y-148371000D01*
X129283436Y-148330611D01*
X129092167Y-148251385D01*
X129092166Y-148251385D01*
X129092165Y-148251384D01*
X128920027Y-148136365D01*
X128773635Y-147989973D01*
X128658616Y-147817835D01*
X128658615Y-147817833D01*
X128579389Y-147626564D01*
X128539000Y-147423516D01*
X128539000Y-147216484D01*
X128579389Y-147013436D01*
X128658615Y-146822167D01*
X128663296Y-146815162D01*
X128773635Y-146650027D01*
X128920027Y-146503635D01*
X129092165Y-146388616D01*
X129092167Y-146388615D01*
X129283436Y-146309389D01*
X129486484Y-146269000D01*
X129693516Y-146269000D01*
X129896564Y-146309389D01*
X129896564Y-146309389D01*
G37*
G36*
X148896564Y-146309389D02*
G01*
X149087833Y-146388615D01*
X149087835Y-146388616D01*
X149259973Y-146503635D01*
X149406365Y-146650027D01*
X149516705Y-146815162D01*
X149521385Y-146822167D01*
X149600611Y-147013436D01*
X149641000Y-147216484D01*
X149641000Y-147423516D01*
X149600611Y-147626564D01*
X149521385Y-147817833D01*
X149521384Y-147817835D01*
X149406365Y-147989973D01*
X149259973Y-148136365D01*
X149087835Y-148251384D01*
X149087834Y-148251385D01*
X149087833Y-148251385D01*
X148896564Y-148330611D01*
X148693516Y-148371000D01*
X148486484Y-148371000D01*
X148283436Y-148330611D01*
X148092167Y-148251385D01*
X148092166Y-148251385D01*
X148092165Y-148251384D01*
X147920027Y-148136365D01*
X147773635Y-147989973D01*
X147658616Y-147817835D01*
X147658615Y-147817833D01*
X147579389Y-147626564D01*
X147539000Y-147423516D01*
X147539000Y-147216484D01*
X147579389Y-147013436D01*
X147658615Y-146822167D01*
X147663296Y-146815162D01*
X147773635Y-146650027D01*
X147920027Y-146503635D01*
X148092165Y-146388616D01*
X148092167Y-146388615D01*
X148283436Y-146309389D01*
X148486484Y-146269000D01*
X148693516Y-146269000D01*
X148896564Y-146309389D01*
X148896564Y-146309389D01*
G37*
G36*
X172125642Y-146754781D02*
G01*
X172271414Y-146815162D01*
X172271416Y-146815163D01*
X172402608Y-146902822D01*
X172514178Y-147014392D01*
X172541979Y-147056000D01*
X172601838Y-147145586D01*
X172662219Y-147291358D01*
X172693000Y-147446107D01*
X172693000Y-147603893D01*
X172662219Y-147758642D01*
X172637701Y-147817833D01*
X172601837Y-147904416D01*
X172514178Y-148035608D01*
X172402608Y-148147178D01*
X172271416Y-148234837D01*
X172271415Y-148234838D01*
X172271414Y-148234838D01*
X172125642Y-148295219D01*
X171970893Y-148326000D01*
X171813107Y-148326000D01*
X171658358Y-148295219D01*
X171512586Y-148234838D01*
X171512585Y-148234838D01*
X171512584Y-148234837D01*
X171381392Y-148147178D01*
X171269822Y-148035608D01*
X171182163Y-147904416D01*
X171146299Y-147817833D01*
X171121781Y-147758642D01*
X171091000Y-147603893D01*
X171091000Y-147446107D01*
X171121781Y-147291358D01*
X171182162Y-147145586D01*
X171242021Y-147056000D01*
X171269822Y-147014392D01*
X171381392Y-146902822D01*
X171512584Y-146815163D01*
X171512586Y-146815162D01*
X171658358Y-146754781D01*
X171813107Y-146724000D01*
X171970893Y-146724000D01*
X172125642Y-146754781D01*
X172125642Y-146754781D01*
G37*
G36*
X108602331Y-144470611D02*
G01*
X108930092Y-144606374D01*
X109225070Y-144803472D01*
X109475928Y-145054330D01*
X109673026Y-145349308D01*
X109808789Y-145677069D01*
X109878000Y-146025016D01*
X109878000Y-146379784D01*
X109808789Y-146727731D01*
X109673026Y-147055492D01*
X109475928Y-147350470D01*
X109225070Y-147601328D01*
X108930092Y-147798426D01*
X108602331Y-147934189D01*
X108254384Y-148003400D01*
X107899616Y-148003400D01*
X107551669Y-147934189D01*
X107223908Y-147798426D01*
X106928930Y-147601328D01*
X106678072Y-147350470D01*
X106480974Y-147055492D01*
X106345211Y-146727731D01*
X106276000Y-146379784D01*
X106276000Y-146025016D01*
X106345211Y-145677069D01*
X106480974Y-145349308D01*
X106678072Y-145054330D01*
X106928930Y-144803472D01*
X107223908Y-144606374D01*
X107551669Y-144470611D01*
X107899616Y-144401400D01*
X108254384Y-144401400D01*
X108602331Y-144470611D01*
X108602331Y-144470611D01*
G37*
G36*
X169585642Y-145484781D02*
G01*
X169731414Y-145545162D01*
X169731416Y-145545163D01*
X169862608Y-145632822D01*
X169974178Y-145744392D01*
X170060524Y-145873619D01*
X170061838Y-145875586D01*
X170122219Y-146021358D01*
X170153000Y-146176107D01*
X170153000Y-146333893D01*
X170122219Y-146488642D01*
X170061838Y-146634414D01*
X170061837Y-146634416D01*
X169974178Y-146765608D01*
X169862608Y-146877178D01*
X169731416Y-146964837D01*
X169731415Y-146964838D01*
X169731414Y-146964838D01*
X169585642Y-147025219D01*
X169430893Y-147056000D01*
X169273107Y-147056000D01*
X169118358Y-147025219D01*
X168972586Y-146964838D01*
X168972585Y-146964838D01*
X168972584Y-146964837D01*
X168841392Y-146877178D01*
X168729822Y-146765608D01*
X168642163Y-146634416D01*
X168642162Y-146634414D01*
X168581781Y-146488642D01*
X168551000Y-146333893D01*
X168551000Y-146176107D01*
X168581781Y-146021358D01*
X168642162Y-145875586D01*
X168643476Y-145873619D01*
X168729822Y-145744392D01*
X168841392Y-145632822D01*
X168972584Y-145545163D01*
X168972586Y-145545162D01*
X169118358Y-145484781D01*
X169273107Y-145454000D01*
X169430893Y-145454000D01*
X169585642Y-145484781D01*
X169585642Y-145484781D01*
G37*
G36*
X178789208Y-143181093D02*
G01*
X179130617Y-143322510D01*
X179130619Y-143322511D01*
X179437880Y-143527816D01*
X179699184Y-143789120D01*
X179904490Y-144096383D01*
X180045907Y-144437792D01*
X180118000Y-144800229D01*
X180118000Y-145169771D01*
X180045907Y-145532208D01*
X179904490Y-145873617D01*
X179904489Y-145873619D01*
X179699184Y-146180880D01*
X179437880Y-146442184D01*
X179130619Y-146647489D01*
X179130618Y-146647490D01*
X179130617Y-146647490D01*
X178789208Y-146788907D01*
X178426771Y-146861000D01*
X178057229Y-146861000D01*
X177694792Y-146788907D01*
X177353383Y-146647490D01*
X177353382Y-146647490D01*
X177353381Y-146647489D01*
X177046120Y-146442184D01*
X176784816Y-146180880D01*
X176579511Y-145873619D01*
X176579510Y-145873617D01*
X176438093Y-145532208D01*
X176366000Y-145169771D01*
X176366000Y-144800229D01*
X176438093Y-144437792D01*
X176579510Y-144096383D01*
X176784816Y-143789120D01*
X177046120Y-143527816D01*
X177353381Y-143322511D01*
X177353383Y-143322510D01*
X177694792Y-143181093D01*
X178057229Y-143109000D01*
X178426771Y-143109000D01*
X178789208Y-143181093D01*
X178789208Y-143181093D01*
G37*
G36*
X175571487Y-141698996D02*
G01*
X175808253Y-141797068D01*
X175808255Y-141797069D01*
X176021339Y-141939447D01*
X176202553Y-142120661D01*
X176344932Y-142333747D01*
X176443004Y-142570513D01*
X176493000Y-142821861D01*
X176493000Y-143078139D01*
X176443004Y-143329487D01*
X176360853Y-143527816D01*
X176344931Y-143566255D01*
X176202553Y-143779339D01*
X176021339Y-143960553D01*
X175808255Y-144102931D01*
X175808254Y-144102932D01*
X175808253Y-144102932D01*
X175571487Y-144201004D01*
X175320139Y-144251000D01*
X175063861Y-144251000D01*
X174812513Y-144201004D01*
X174575747Y-144102932D01*
X174575746Y-144102932D01*
X174575745Y-144102931D01*
X174362661Y-143960553D01*
X174181447Y-143779339D01*
X174039069Y-143566255D01*
X174023147Y-143527816D01*
X173940996Y-143329487D01*
X173891000Y-143078139D01*
X173891000Y-142821861D01*
X173940996Y-142570513D01*
X174039068Y-142333747D01*
X174181447Y-142120661D01*
X174362661Y-141939447D01*
X174575745Y-141797069D01*
X174575747Y-141797068D01*
X174812513Y-141698996D01*
X175063861Y-141649000D01*
X175320139Y-141649000D01*
X175571487Y-141698996D01*
X175571487Y-141698996D01*
G37*
G36*
X159375256Y-138391298D02*
G01*
X159481579Y-138412447D01*
X159782042Y-138536903D01*
X160052451Y-138717585D01*
X160282415Y-138947549D01*
X160463097Y-139217958D01*
X160587553Y-139518421D01*
X160651000Y-139837391D01*
X160651000Y-140162609D01*
X160587553Y-140481579D01*
X160463097Y-140782042D01*
X160282415Y-141052451D01*
X160052451Y-141282415D01*
X159782042Y-141463097D01*
X159481579Y-141587553D01*
X159375256Y-141608702D01*
X159162611Y-141651000D01*
X158837389Y-141651000D01*
X158624744Y-141608702D01*
X158518421Y-141587553D01*
X158217958Y-141463097D01*
X157947549Y-141282415D01*
X157717585Y-141052451D01*
X157536903Y-140782042D01*
X157412447Y-140481579D01*
X157349000Y-140162609D01*
X157349000Y-139837391D01*
X157412447Y-139518421D01*
X157536903Y-139217958D01*
X157717585Y-138947549D01*
X157947549Y-138717585D01*
X158217958Y-138536903D01*
X158518421Y-138412447D01*
X158624744Y-138391298D01*
X158837389Y-138349000D01*
X159162611Y-138349000D01*
X159375256Y-138391298D01*
X159375256Y-138391298D01*
G37*
G36*
X94375256Y-138391298D02*
G01*
X94481579Y-138412447D01*
X94782042Y-138536903D01*
X95052451Y-138717585D01*
X95282415Y-138947549D01*
X95463097Y-139217958D01*
X95587553Y-139518421D01*
X95651000Y-139837391D01*
X95651000Y-140162609D01*
X95587553Y-140481579D01*
X95463097Y-140782042D01*
X95282415Y-141052451D01*
X95052451Y-141282415D01*
X94782042Y-141463097D01*
X94481579Y-141587553D01*
X94375256Y-141608702D01*
X94162611Y-141651000D01*
X93837389Y-141651000D01*
X93624744Y-141608702D01*
X93518421Y-141587553D01*
X93217958Y-141463097D01*
X92947549Y-141282415D01*
X92717585Y-141052451D01*
X92536903Y-140782042D01*
X92412447Y-140481579D01*
X92349000Y-140162609D01*
X92349000Y-139837391D01*
X92412447Y-139518421D01*
X92536903Y-139217958D01*
X92717585Y-138947549D01*
X92947549Y-138717585D01*
X93217958Y-138536903D01*
X93518421Y-138412447D01*
X93624744Y-138391298D01*
X93837389Y-138349000D01*
X94162611Y-138349000D01*
X94375256Y-138391298D01*
X94375256Y-138391298D01*
G37*
M02*
