G04 #@! TF.GenerationSoftware,KiCad,Pcbnew,5.1.4-e60b266~84~ubuntu18.04.1*
G04 #@! TF.CreationDate,2019-10-29T18:19:43-03:00*
G04 #@! TF.ProjectId,fonte_18V,666f6e74-655f-4313-9856-2e6b69636164,rev?*
G04 #@! TF.SameCoordinates,Original*
G04 #@! TF.FileFunction,Other,Fab,Top*
%FSLAX46Y46*%
G04 Gerber Fmt 4.6, Leading zero omitted, Abs format (unit mm)*
G04 Created by KiCad (PCBNEW 5.1.4-e60b266~84~ubuntu18.04.1) date 2019-10-29 18:19:43*
%MOMM*%
%LPD*%
G04 APERTURE LIST*
%ADD10C,0.100000*%
%ADD11C,0.150000*%
%ADD12C,0.080000*%
G04 APERTURE END LIST*
D10*
X119970000Y-159815000D02*
X120945000Y-158840000D01*
X119970000Y-163740000D02*
X119970000Y-159815000D01*
X123870000Y-163740000D02*
X119970000Y-163740000D01*
X123870000Y-158840000D02*
X123870000Y-163740000D01*
X120945000Y-158840000D02*
X123870000Y-158840000D01*
X132530000Y-178565000D02*
X132530000Y-180565000D01*
X131330000Y-178565000D02*
X132530000Y-178565000D01*
X131330000Y-180565000D02*
X131330000Y-178565000D01*
X132530000Y-180565000D02*
X131330000Y-180565000D01*
X154510000Y-166210000D02*
X154510000Y-168210000D01*
X153310000Y-166210000D02*
X154510000Y-166210000D01*
X153310000Y-168210000D02*
X153310000Y-166210000D01*
X154510000Y-168210000D02*
X153310000Y-168210000D01*
X116805000Y-160925000D02*
X116805000Y-162925000D01*
X115605000Y-160925000D02*
X116805000Y-160925000D01*
X115605000Y-162925000D02*
X115605000Y-160925000D01*
X116805000Y-162925000D02*
X115605000Y-162925000D01*
X114335000Y-175625000D02*
X114335000Y-173625000D01*
X115535000Y-175625000D02*
X114335000Y-175625000D01*
X115535000Y-173625000D02*
X115535000Y-175625000D01*
X114335000Y-173625000D02*
X115535000Y-173625000D01*
X121320000Y-168640000D02*
X121320000Y-166640000D01*
X122520000Y-168640000D02*
X121320000Y-168640000D01*
X122520000Y-166640000D02*
X122520000Y-168640000D01*
X121320000Y-166640000D02*
X122520000Y-166640000D01*
X157340000Y-166330000D02*
X156140000Y-166330000D01*
X157340000Y-168330000D02*
X157340000Y-166330000D01*
X156440000Y-168330000D02*
X157340000Y-168330000D01*
X156140000Y-168030000D02*
X156440000Y-168330000D01*
X156140000Y-166330000D02*
X156140000Y-168030000D01*
X149590000Y-147320000D02*
G75*
G03X149590000Y-147320000I-10500000J0D01*
G01*
X99900000Y-150450000D02*
X101400000Y-149500000D01*
X101400000Y-151400000D02*
X99900000Y-150450000D01*
X101400000Y-159070000D02*
X101400000Y-146910000D01*
X89400000Y-159070000D02*
X101400000Y-159070000D01*
X89400000Y-146910000D02*
X89400000Y-159070000D01*
X101400000Y-146910000D02*
X89400000Y-146910000D01*
X99855000Y-163355000D02*
X101355000Y-162405000D01*
X101355000Y-164305000D02*
X99855000Y-163355000D01*
X101355000Y-171975000D02*
X101355000Y-159815000D01*
X89355000Y-171975000D02*
X101355000Y-171975000D01*
X89355000Y-159815000D02*
X89355000Y-171975000D01*
X101355000Y-159815000D02*
X89355000Y-159815000D01*
X134505000Y-180565000D02*
X134505000Y-178565000D01*
X135705000Y-180565000D02*
X134505000Y-180565000D01*
X135705000Y-178565000D02*
X135705000Y-180565000D01*
X134505000Y-178565000D02*
X135705000Y-178565000D01*
X144557500Y-159436395D02*
X144057500Y-159436395D01*
X144307500Y-159186395D02*
X144307500Y-159686395D01*
X145720000Y-161320000D02*
G75*
G03X145720000Y-161320000I-2500000J0D01*
G01*
X138842500Y-159436395D02*
X138342500Y-159436395D01*
X138592500Y-159186395D02*
X138592500Y-159686395D01*
X140005000Y-161320000D02*
G75*
G03X140005000Y-161320000I-2500000J0D01*
G01*
X128237500Y-174880395D02*
X127737500Y-174880395D01*
X127987500Y-174630395D02*
X127987500Y-175130395D01*
X129400000Y-176764000D02*
G75*
G03X129400000Y-176764000I-2500000J0D01*
G01*
X122495500Y-174880395D02*
X121995500Y-174880395D01*
X122245500Y-174630395D02*
X122245500Y-175130395D01*
X123658000Y-176764000D02*
G75*
G03X123658000Y-176764000I-2500000J0D01*
G01*
X120920000Y-155610000D02*
X122920000Y-155610000D01*
X120920000Y-156810000D02*
X120920000Y-155610000D01*
X122920000Y-156810000D02*
X120920000Y-156810000D01*
X122920000Y-155610000D02*
X122920000Y-156810000D01*
X134430000Y-173090000D02*
X130620000Y-173090000D01*
X134430000Y-170550000D02*
X130620000Y-170550000D01*
X134430000Y-168010000D02*
X130620000Y-168010000D01*
X134430000Y-175550000D02*
X134430000Y-165550000D01*
X143680000Y-175550000D02*
X134430000Y-175550000D01*
X143680000Y-165550000D02*
X143680000Y-175550000D01*
X134430000Y-165550000D02*
X143680000Y-165550000D01*
X143680000Y-175550000D02*
X143680000Y-165550000D01*
X150080000Y-175550000D02*
X143680000Y-175550000D01*
X150080000Y-165550000D02*
X150080000Y-175550000D01*
X143680000Y-165550000D02*
X150080000Y-165550000D01*
X149130000Y-170550000D02*
G75*
G03X149130000Y-170550000I-1850000J0D01*
G01*
X180908190Y-161742619D02*
X180670095Y-161909285D01*
X180908190Y-162028333D02*
X180408190Y-162028333D01*
X180408190Y-161837857D01*
X180432000Y-161790238D01*
X180455809Y-161766428D01*
X180503428Y-161742619D01*
X180574857Y-161742619D01*
X180622476Y-161766428D01*
X180646285Y-161790238D01*
X180670095Y-161837857D01*
X180670095Y-162028333D01*
X180408190Y-161385476D02*
X180765333Y-161385476D01*
X180836761Y-161409285D01*
X180884380Y-161456904D01*
X180908190Y-161528333D01*
X180908190Y-161575952D01*
X180574857Y-160933095D02*
X180908190Y-160933095D01*
X180384380Y-161052142D02*
X180741523Y-161171190D01*
X180741523Y-160861666D01*
X180408190Y-160433095D02*
X180408190Y-160671190D01*
X180646285Y-160695000D01*
X180622476Y-160671190D01*
X180598666Y-160623571D01*
X180598666Y-160504523D01*
X180622476Y-160456904D01*
X180646285Y-160433095D01*
X180693904Y-160409285D01*
X180812952Y-160409285D01*
X180860571Y-160433095D01*
X180884380Y-160456904D01*
X180908190Y-160504523D01*
X180908190Y-160623571D01*
X180884380Y-160671190D01*
X180860571Y-160695000D01*
X180955809Y-160314047D02*
X180955809Y-159933095D01*
X180884380Y-159837857D02*
X180908190Y-159766428D01*
X180908190Y-159647380D01*
X180884380Y-159599761D01*
X180860571Y-159575952D01*
X180812952Y-159552142D01*
X180765333Y-159552142D01*
X180717714Y-159575952D01*
X180693904Y-159599761D01*
X180670095Y-159647380D01*
X180646285Y-159742619D01*
X180622476Y-159790238D01*
X180598666Y-159814047D01*
X180551047Y-159837857D01*
X180503428Y-159837857D01*
X180455809Y-159814047D01*
X180432000Y-159790238D01*
X180408190Y-159742619D01*
X180408190Y-159623571D01*
X180432000Y-159552142D01*
X180908190Y-159337857D02*
X180408190Y-159337857D01*
X180908190Y-159123571D02*
X180646285Y-159123571D01*
X180598666Y-159147380D01*
X180574857Y-159195000D01*
X180574857Y-159266428D01*
X180598666Y-159314047D01*
X180622476Y-159337857D01*
X180908190Y-158885476D02*
X180574857Y-158885476D01*
X180408190Y-158885476D02*
X180432000Y-158909285D01*
X180455809Y-158885476D01*
X180432000Y-158861666D01*
X180408190Y-158885476D01*
X180455809Y-158885476D01*
X180884380Y-158456904D02*
X180908190Y-158504523D01*
X180908190Y-158599761D01*
X180884380Y-158647380D01*
X180836761Y-158671190D01*
X180646285Y-158671190D01*
X180598666Y-158647380D01*
X180574857Y-158599761D01*
X180574857Y-158504523D01*
X180598666Y-158456904D01*
X180646285Y-158433095D01*
X180693904Y-158433095D01*
X180741523Y-158671190D01*
X180908190Y-158147380D02*
X180884380Y-158195000D01*
X180836761Y-158218809D01*
X180408190Y-158218809D01*
X180908190Y-157742619D02*
X180408190Y-157742619D01*
X180884380Y-157742619D02*
X180908190Y-157790238D01*
X180908190Y-157885476D01*
X180884380Y-157933095D01*
X180860571Y-157956904D01*
X180812952Y-157980714D01*
X180670095Y-157980714D01*
X180622476Y-157956904D01*
X180598666Y-157933095D01*
X180574857Y-157885476D01*
X180574857Y-157790238D01*
X180598666Y-157742619D01*
X180884380Y-157314047D02*
X180908190Y-157361666D01*
X180908190Y-157456904D01*
X180884380Y-157504523D01*
X180836761Y-157528333D01*
X180646285Y-157528333D01*
X180598666Y-157504523D01*
X180574857Y-157456904D01*
X180574857Y-157361666D01*
X180598666Y-157314047D01*
X180646285Y-157290238D01*
X180693904Y-157290238D01*
X180741523Y-157528333D01*
X180908190Y-156861666D02*
X180408190Y-156861666D01*
X180884380Y-156861666D02*
X180908190Y-156909285D01*
X180908190Y-157004523D01*
X180884380Y-157052142D01*
X180860571Y-157075952D01*
X180812952Y-157099761D01*
X180670095Y-157099761D01*
X180622476Y-157075952D01*
X180598666Y-157052142D01*
X180574857Y-157004523D01*
X180574857Y-156909285D01*
X180598666Y-156861666D01*
X180908190Y-182560619D02*
X180670095Y-182727285D01*
X180908190Y-182846333D02*
X180408190Y-182846333D01*
X180408190Y-182655857D01*
X180432000Y-182608238D01*
X180455809Y-182584428D01*
X180503428Y-182560619D01*
X180574857Y-182560619D01*
X180622476Y-182584428D01*
X180646285Y-182608238D01*
X180670095Y-182655857D01*
X180670095Y-182846333D01*
X180408190Y-182203476D02*
X180765333Y-182203476D01*
X180836761Y-182227285D01*
X180884380Y-182274904D01*
X180908190Y-182346333D01*
X180908190Y-182393952D01*
X180574857Y-181751095D02*
X180908190Y-181751095D01*
X180384380Y-181870142D02*
X180741523Y-181989190D01*
X180741523Y-181679666D01*
X180408190Y-181251095D02*
X180408190Y-181489190D01*
X180646285Y-181513000D01*
X180622476Y-181489190D01*
X180598666Y-181441571D01*
X180598666Y-181322523D01*
X180622476Y-181274904D01*
X180646285Y-181251095D01*
X180693904Y-181227285D01*
X180812952Y-181227285D01*
X180860571Y-181251095D01*
X180884380Y-181274904D01*
X180908190Y-181322523D01*
X180908190Y-181441571D01*
X180884380Y-181489190D01*
X180860571Y-181513000D01*
X180955809Y-181132047D02*
X180955809Y-180751095D01*
X180884380Y-180655857D02*
X180908190Y-180584428D01*
X180908190Y-180465380D01*
X180884380Y-180417761D01*
X180860571Y-180393952D01*
X180812952Y-180370142D01*
X180765333Y-180370142D01*
X180717714Y-180393952D01*
X180693904Y-180417761D01*
X180670095Y-180465380D01*
X180646285Y-180560619D01*
X180622476Y-180608238D01*
X180598666Y-180632047D01*
X180551047Y-180655857D01*
X180503428Y-180655857D01*
X180455809Y-180632047D01*
X180432000Y-180608238D01*
X180408190Y-180560619D01*
X180408190Y-180441571D01*
X180432000Y-180370142D01*
X180908190Y-180155857D02*
X180408190Y-180155857D01*
X180908190Y-179941571D02*
X180646285Y-179941571D01*
X180598666Y-179965380D01*
X180574857Y-180013000D01*
X180574857Y-180084428D01*
X180598666Y-180132047D01*
X180622476Y-180155857D01*
X180908190Y-179703476D02*
X180574857Y-179703476D01*
X180408190Y-179703476D02*
X180432000Y-179727285D01*
X180455809Y-179703476D01*
X180432000Y-179679666D01*
X180408190Y-179703476D01*
X180455809Y-179703476D01*
X180884380Y-179274904D02*
X180908190Y-179322523D01*
X180908190Y-179417761D01*
X180884380Y-179465380D01*
X180836761Y-179489190D01*
X180646285Y-179489190D01*
X180598666Y-179465380D01*
X180574857Y-179417761D01*
X180574857Y-179322523D01*
X180598666Y-179274904D01*
X180646285Y-179251095D01*
X180693904Y-179251095D01*
X180741523Y-179489190D01*
X180908190Y-178965380D02*
X180884380Y-179013000D01*
X180836761Y-179036809D01*
X180408190Y-179036809D01*
X180908190Y-178560619D02*
X180408190Y-178560619D01*
X180884380Y-178560619D02*
X180908190Y-178608238D01*
X180908190Y-178703476D01*
X180884380Y-178751095D01*
X180860571Y-178774904D01*
X180812952Y-178798714D01*
X180670095Y-178798714D01*
X180622476Y-178774904D01*
X180598666Y-178751095D01*
X180574857Y-178703476D01*
X180574857Y-178608238D01*
X180598666Y-178560619D01*
X180884380Y-178132047D02*
X180908190Y-178179666D01*
X180908190Y-178274904D01*
X180884380Y-178322523D01*
X180836761Y-178346333D01*
X180646285Y-178346333D01*
X180598666Y-178322523D01*
X180574857Y-178274904D01*
X180574857Y-178179666D01*
X180598666Y-178132047D01*
X180646285Y-178108238D01*
X180693904Y-178108238D01*
X180741523Y-178346333D01*
X180908190Y-177679666D02*
X180408190Y-177679666D01*
X180884380Y-177679666D02*
X180908190Y-177727285D01*
X180908190Y-177822523D01*
X180884380Y-177870142D01*
X180860571Y-177893952D01*
X180812952Y-177917761D01*
X180670095Y-177917761D01*
X180622476Y-177893952D01*
X180598666Y-177870142D01*
X180574857Y-177822523D01*
X180574857Y-177727285D01*
X180598666Y-177679666D01*
D11*
X113077619Y-145646685D02*
X113030000Y-145599066D01*
X112982380Y-145503828D01*
X112982380Y-145265733D01*
X113030000Y-145170495D01*
X113077619Y-145122876D01*
X113172857Y-145075257D01*
X113268095Y-145075257D01*
X113410952Y-145122876D01*
X113982380Y-145694304D01*
X113982380Y-145075257D01*
X113696666Y-144694304D02*
X113696666Y-144218114D01*
X113982380Y-144789542D02*
X112982380Y-144456209D01*
X113982380Y-144122876D01*
X154214285Y-144652380D02*
X154214285Y-143652380D01*
X154547619Y-144366666D01*
X154880952Y-143652380D01*
X154880952Y-144652380D01*
X155500000Y-144652380D02*
X155404761Y-144604761D01*
X155357142Y-144557142D01*
X155309523Y-144461904D01*
X155309523Y-144176190D01*
X155357142Y-144080952D01*
X155404761Y-144033333D01*
X155500000Y-143985714D01*
X155642857Y-143985714D01*
X155738095Y-144033333D01*
X155785714Y-144080952D01*
X155833333Y-144176190D01*
X155833333Y-144461904D01*
X155785714Y-144557142D01*
X155738095Y-144604761D01*
X155642857Y-144652380D01*
X155500000Y-144652380D01*
X156690476Y-143985714D02*
X156690476Y-144652380D01*
X156261904Y-143985714D02*
X156261904Y-144509523D01*
X156309523Y-144604761D01*
X156404761Y-144652380D01*
X156547619Y-144652380D01*
X156642857Y-144604761D01*
X156690476Y-144557142D01*
X157166666Y-143985714D02*
X157166666Y-144652380D01*
X157166666Y-144080952D02*
X157214285Y-144033333D01*
X157309523Y-143985714D01*
X157452380Y-143985714D01*
X157547619Y-144033333D01*
X157595238Y-144128571D01*
X157595238Y-144652380D01*
X157928571Y-143985714D02*
X158309523Y-143985714D01*
X158071428Y-143652380D02*
X158071428Y-144509523D01*
X158119047Y-144604761D01*
X158214285Y-144652380D01*
X158309523Y-144652380D01*
X158642857Y-144652380D02*
X158642857Y-143985714D01*
X158642857Y-143652380D02*
X158595238Y-143700000D01*
X158642857Y-143747619D01*
X158690476Y-143700000D01*
X158642857Y-143652380D01*
X158642857Y-143747619D01*
X159119047Y-143985714D02*
X159119047Y-144652380D01*
X159119047Y-144080952D02*
X159166666Y-144033333D01*
X159261904Y-143985714D01*
X159404761Y-143985714D01*
X159500000Y-144033333D01*
X159547619Y-144128571D01*
X159547619Y-144652380D01*
X160452380Y-143985714D02*
X160452380Y-144795238D01*
X160404761Y-144890476D01*
X160357142Y-144938095D01*
X160261904Y-144985714D01*
X160119047Y-144985714D01*
X160023809Y-144938095D01*
X160452380Y-144604761D02*
X160357142Y-144652380D01*
X160166666Y-144652380D01*
X160071428Y-144604761D01*
X160023809Y-144557142D01*
X159976190Y-144461904D01*
X159976190Y-144176190D01*
X160023809Y-144080952D01*
X160071428Y-144033333D01*
X160166666Y-143985714D01*
X160357142Y-143985714D01*
X160452380Y-144033333D01*
X160928571Y-144652380D02*
X160928571Y-143652380D01*
X160928571Y-144128571D02*
X161500000Y-144128571D01*
X161500000Y-144652380D02*
X161500000Y-143652380D01*
X162119047Y-144652380D02*
X162023809Y-144604761D01*
X161976190Y-144557142D01*
X161928571Y-144461904D01*
X161928571Y-144176190D01*
X161976190Y-144080952D01*
X162023809Y-144033333D01*
X162119047Y-143985714D01*
X162261904Y-143985714D01*
X162357142Y-144033333D01*
X162404761Y-144080952D01*
X162452380Y-144176190D01*
X162452380Y-144461904D01*
X162404761Y-144557142D01*
X162357142Y-144604761D01*
X162261904Y-144652380D01*
X162119047Y-144652380D01*
X163023809Y-144652380D02*
X162928571Y-144604761D01*
X162880952Y-144509523D01*
X162880952Y-143652380D01*
X163785714Y-144604761D02*
X163690476Y-144652380D01*
X163500000Y-144652380D01*
X163404761Y-144604761D01*
X163357142Y-144509523D01*
X163357142Y-144128571D01*
X163404761Y-144033333D01*
X163500000Y-143985714D01*
X163690476Y-143985714D01*
X163785714Y-144033333D01*
X163833333Y-144128571D01*
X163833333Y-144223809D01*
X163357142Y-144319047D01*
X158538095Y-140452380D02*
X158538095Y-139452380D01*
X158538095Y-139928571D02*
X159109523Y-139928571D01*
X159109523Y-140452380D02*
X159109523Y-139452380D01*
X160014285Y-139785714D02*
X160014285Y-140452380D01*
X159776190Y-139404761D02*
X159538095Y-140119047D01*
X160157142Y-140119047D01*
X154214285Y-186652380D02*
X154214285Y-185652380D01*
X154547619Y-186366666D01*
X154880952Y-185652380D01*
X154880952Y-186652380D01*
X155500000Y-186652380D02*
X155404761Y-186604761D01*
X155357142Y-186557142D01*
X155309523Y-186461904D01*
X155309523Y-186176190D01*
X155357142Y-186080952D01*
X155404761Y-186033333D01*
X155500000Y-185985714D01*
X155642857Y-185985714D01*
X155738095Y-186033333D01*
X155785714Y-186080952D01*
X155833333Y-186176190D01*
X155833333Y-186461904D01*
X155785714Y-186557142D01*
X155738095Y-186604761D01*
X155642857Y-186652380D01*
X155500000Y-186652380D01*
X156690476Y-185985714D02*
X156690476Y-186652380D01*
X156261904Y-185985714D02*
X156261904Y-186509523D01*
X156309523Y-186604761D01*
X156404761Y-186652380D01*
X156547619Y-186652380D01*
X156642857Y-186604761D01*
X156690476Y-186557142D01*
X157166666Y-185985714D02*
X157166666Y-186652380D01*
X157166666Y-186080952D02*
X157214285Y-186033333D01*
X157309523Y-185985714D01*
X157452380Y-185985714D01*
X157547619Y-186033333D01*
X157595238Y-186128571D01*
X157595238Y-186652380D01*
X157928571Y-185985714D02*
X158309523Y-185985714D01*
X158071428Y-185652380D02*
X158071428Y-186509523D01*
X158119047Y-186604761D01*
X158214285Y-186652380D01*
X158309523Y-186652380D01*
X158642857Y-186652380D02*
X158642857Y-185985714D01*
X158642857Y-185652380D02*
X158595238Y-185700000D01*
X158642857Y-185747619D01*
X158690476Y-185700000D01*
X158642857Y-185652380D01*
X158642857Y-185747619D01*
X159119047Y-185985714D02*
X159119047Y-186652380D01*
X159119047Y-186080952D02*
X159166666Y-186033333D01*
X159261904Y-185985714D01*
X159404761Y-185985714D01*
X159500000Y-186033333D01*
X159547619Y-186128571D01*
X159547619Y-186652380D01*
X160452380Y-185985714D02*
X160452380Y-186795238D01*
X160404761Y-186890476D01*
X160357142Y-186938095D01*
X160261904Y-186985714D01*
X160119047Y-186985714D01*
X160023809Y-186938095D01*
X160452380Y-186604761D02*
X160357142Y-186652380D01*
X160166666Y-186652380D01*
X160071428Y-186604761D01*
X160023809Y-186557142D01*
X159976190Y-186461904D01*
X159976190Y-186176190D01*
X160023809Y-186080952D01*
X160071428Y-186033333D01*
X160166666Y-185985714D01*
X160357142Y-185985714D01*
X160452380Y-186033333D01*
X160928571Y-186652380D02*
X160928571Y-185652380D01*
X160928571Y-186128571D02*
X161500000Y-186128571D01*
X161500000Y-186652380D02*
X161500000Y-185652380D01*
X162119047Y-186652380D02*
X162023809Y-186604761D01*
X161976190Y-186557142D01*
X161928571Y-186461904D01*
X161928571Y-186176190D01*
X161976190Y-186080952D01*
X162023809Y-186033333D01*
X162119047Y-185985714D01*
X162261904Y-185985714D01*
X162357142Y-186033333D01*
X162404761Y-186080952D01*
X162452380Y-186176190D01*
X162452380Y-186461904D01*
X162404761Y-186557142D01*
X162357142Y-186604761D01*
X162261904Y-186652380D01*
X162119047Y-186652380D01*
X163023809Y-186652380D02*
X162928571Y-186604761D01*
X162880952Y-186509523D01*
X162880952Y-185652380D01*
X163785714Y-186604761D02*
X163690476Y-186652380D01*
X163500000Y-186652380D01*
X163404761Y-186604761D01*
X163357142Y-186509523D01*
X163357142Y-186128571D01*
X163404761Y-186033333D01*
X163500000Y-185985714D01*
X163690476Y-185985714D01*
X163785714Y-186033333D01*
X163833333Y-186128571D01*
X163833333Y-186223809D01*
X163357142Y-186319047D01*
X158538095Y-182452380D02*
X158538095Y-181452380D01*
X158538095Y-181928571D02*
X159109523Y-181928571D01*
X159109523Y-182452380D02*
X159109523Y-181452380D01*
X159490476Y-181452380D02*
X160109523Y-181452380D01*
X159776190Y-181833333D01*
X159919047Y-181833333D01*
X160014285Y-181880952D01*
X160061904Y-181928571D01*
X160109523Y-182023809D01*
X160109523Y-182261904D01*
X160061904Y-182357142D01*
X160014285Y-182404761D01*
X159919047Y-182452380D01*
X159633333Y-182452380D01*
X159538095Y-182404761D01*
X159490476Y-182357142D01*
X89214285Y-186652380D02*
X89214285Y-185652380D01*
X89547619Y-186366666D01*
X89880952Y-185652380D01*
X89880952Y-186652380D01*
X90500000Y-186652380D02*
X90404761Y-186604761D01*
X90357142Y-186557142D01*
X90309523Y-186461904D01*
X90309523Y-186176190D01*
X90357142Y-186080952D01*
X90404761Y-186033333D01*
X90500000Y-185985714D01*
X90642857Y-185985714D01*
X90738095Y-186033333D01*
X90785714Y-186080952D01*
X90833333Y-186176190D01*
X90833333Y-186461904D01*
X90785714Y-186557142D01*
X90738095Y-186604761D01*
X90642857Y-186652380D01*
X90500000Y-186652380D01*
X91690476Y-185985714D02*
X91690476Y-186652380D01*
X91261904Y-185985714D02*
X91261904Y-186509523D01*
X91309523Y-186604761D01*
X91404761Y-186652380D01*
X91547619Y-186652380D01*
X91642857Y-186604761D01*
X91690476Y-186557142D01*
X92166666Y-185985714D02*
X92166666Y-186652380D01*
X92166666Y-186080952D02*
X92214285Y-186033333D01*
X92309523Y-185985714D01*
X92452380Y-185985714D01*
X92547619Y-186033333D01*
X92595238Y-186128571D01*
X92595238Y-186652380D01*
X92928571Y-185985714D02*
X93309523Y-185985714D01*
X93071428Y-185652380D02*
X93071428Y-186509523D01*
X93119047Y-186604761D01*
X93214285Y-186652380D01*
X93309523Y-186652380D01*
X93642857Y-186652380D02*
X93642857Y-185985714D01*
X93642857Y-185652380D02*
X93595238Y-185700000D01*
X93642857Y-185747619D01*
X93690476Y-185700000D01*
X93642857Y-185652380D01*
X93642857Y-185747619D01*
X94119047Y-185985714D02*
X94119047Y-186652380D01*
X94119047Y-186080952D02*
X94166666Y-186033333D01*
X94261904Y-185985714D01*
X94404761Y-185985714D01*
X94500000Y-186033333D01*
X94547619Y-186128571D01*
X94547619Y-186652380D01*
X95452380Y-185985714D02*
X95452380Y-186795238D01*
X95404761Y-186890476D01*
X95357142Y-186938095D01*
X95261904Y-186985714D01*
X95119047Y-186985714D01*
X95023809Y-186938095D01*
X95452380Y-186604761D02*
X95357142Y-186652380D01*
X95166666Y-186652380D01*
X95071428Y-186604761D01*
X95023809Y-186557142D01*
X94976190Y-186461904D01*
X94976190Y-186176190D01*
X95023809Y-186080952D01*
X95071428Y-186033333D01*
X95166666Y-185985714D01*
X95357142Y-185985714D01*
X95452380Y-186033333D01*
X95928571Y-186652380D02*
X95928571Y-185652380D01*
X95928571Y-186128571D02*
X96500000Y-186128571D01*
X96500000Y-186652380D02*
X96500000Y-185652380D01*
X97119047Y-186652380D02*
X97023809Y-186604761D01*
X96976190Y-186557142D01*
X96928571Y-186461904D01*
X96928571Y-186176190D01*
X96976190Y-186080952D01*
X97023809Y-186033333D01*
X97119047Y-185985714D01*
X97261904Y-185985714D01*
X97357142Y-186033333D01*
X97404761Y-186080952D01*
X97452380Y-186176190D01*
X97452380Y-186461904D01*
X97404761Y-186557142D01*
X97357142Y-186604761D01*
X97261904Y-186652380D01*
X97119047Y-186652380D01*
X98023809Y-186652380D02*
X97928571Y-186604761D01*
X97880952Y-186509523D01*
X97880952Y-185652380D01*
X98785714Y-186604761D02*
X98690476Y-186652380D01*
X98500000Y-186652380D01*
X98404761Y-186604761D01*
X98357142Y-186509523D01*
X98357142Y-186128571D01*
X98404761Y-186033333D01*
X98500000Y-185985714D01*
X98690476Y-185985714D01*
X98785714Y-186033333D01*
X98833333Y-186128571D01*
X98833333Y-186223809D01*
X98357142Y-186319047D01*
X93538095Y-182452380D02*
X93538095Y-181452380D01*
X93538095Y-181928571D02*
X94109523Y-181928571D01*
X94109523Y-182452380D02*
X94109523Y-181452380D01*
X94538095Y-181547619D02*
X94585714Y-181500000D01*
X94680952Y-181452380D01*
X94919047Y-181452380D01*
X95014285Y-181500000D01*
X95061904Y-181547619D01*
X95109523Y-181642857D01*
X95109523Y-181738095D01*
X95061904Y-181880952D01*
X94490476Y-182452380D01*
X95109523Y-182452380D01*
X89214285Y-144652380D02*
X89214285Y-143652380D01*
X89547619Y-144366666D01*
X89880952Y-143652380D01*
X89880952Y-144652380D01*
X90500000Y-144652380D02*
X90404761Y-144604761D01*
X90357142Y-144557142D01*
X90309523Y-144461904D01*
X90309523Y-144176190D01*
X90357142Y-144080952D01*
X90404761Y-144033333D01*
X90500000Y-143985714D01*
X90642857Y-143985714D01*
X90738095Y-144033333D01*
X90785714Y-144080952D01*
X90833333Y-144176190D01*
X90833333Y-144461904D01*
X90785714Y-144557142D01*
X90738095Y-144604761D01*
X90642857Y-144652380D01*
X90500000Y-144652380D01*
X91690476Y-143985714D02*
X91690476Y-144652380D01*
X91261904Y-143985714D02*
X91261904Y-144509523D01*
X91309523Y-144604761D01*
X91404761Y-144652380D01*
X91547619Y-144652380D01*
X91642857Y-144604761D01*
X91690476Y-144557142D01*
X92166666Y-143985714D02*
X92166666Y-144652380D01*
X92166666Y-144080952D02*
X92214285Y-144033333D01*
X92309523Y-143985714D01*
X92452380Y-143985714D01*
X92547619Y-144033333D01*
X92595238Y-144128571D01*
X92595238Y-144652380D01*
X92928571Y-143985714D02*
X93309523Y-143985714D01*
X93071428Y-143652380D02*
X93071428Y-144509523D01*
X93119047Y-144604761D01*
X93214285Y-144652380D01*
X93309523Y-144652380D01*
X93642857Y-144652380D02*
X93642857Y-143985714D01*
X93642857Y-143652380D02*
X93595238Y-143700000D01*
X93642857Y-143747619D01*
X93690476Y-143700000D01*
X93642857Y-143652380D01*
X93642857Y-143747619D01*
X94119047Y-143985714D02*
X94119047Y-144652380D01*
X94119047Y-144080952D02*
X94166666Y-144033333D01*
X94261904Y-143985714D01*
X94404761Y-143985714D01*
X94500000Y-144033333D01*
X94547619Y-144128571D01*
X94547619Y-144652380D01*
X95452380Y-143985714D02*
X95452380Y-144795238D01*
X95404761Y-144890476D01*
X95357142Y-144938095D01*
X95261904Y-144985714D01*
X95119047Y-144985714D01*
X95023809Y-144938095D01*
X95452380Y-144604761D02*
X95357142Y-144652380D01*
X95166666Y-144652380D01*
X95071428Y-144604761D01*
X95023809Y-144557142D01*
X94976190Y-144461904D01*
X94976190Y-144176190D01*
X95023809Y-144080952D01*
X95071428Y-144033333D01*
X95166666Y-143985714D01*
X95357142Y-143985714D01*
X95452380Y-144033333D01*
X95928571Y-144652380D02*
X95928571Y-143652380D01*
X95928571Y-144128571D02*
X96500000Y-144128571D01*
X96500000Y-144652380D02*
X96500000Y-143652380D01*
X97119047Y-144652380D02*
X97023809Y-144604761D01*
X96976190Y-144557142D01*
X96928571Y-144461904D01*
X96928571Y-144176190D01*
X96976190Y-144080952D01*
X97023809Y-144033333D01*
X97119047Y-143985714D01*
X97261904Y-143985714D01*
X97357142Y-144033333D01*
X97404761Y-144080952D01*
X97452380Y-144176190D01*
X97452380Y-144461904D01*
X97404761Y-144557142D01*
X97357142Y-144604761D01*
X97261904Y-144652380D01*
X97119047Y-144652380D01*
X98023809Y-144652380D02*
X97928571Y-144604761D01*
X97880952Y-144509523D01*
X97880952Y-143652380D01*
X98785714Y-144604761D02*
X98690476Y-144652380D01*
X98500000Y-144652380D01*
X98404761Y-144604761D01*
X98357142Y-144509523D01*
X98357142Y-144128571D01*
X98404761Y-144033333D01*
X98500000Y-143985714D01*
X98690476Y-143985714D01*
X98785714Y-144033333D01*
X98833333Y-144128571D01*
X98833333Y-144223809D01*
X98357142Y-144319047D01*
X93538095Y-140452380D02*
X93538095Y-139452380D01*
X93538095Y-139928571D02*
X94109523Y-139928571D01*
X94109523Y-140452380D02*
X94109523Y-139452380D01*
X95109523Y-140452380D02*
X94538095Y-140452380D01*
X94823809Y-140452380D02*
X94823809Y-139452380D01*
X94728571Y-139595238D01*
X94633333Y-139690476D01*
X94538095Y-139738095D01*
X118777142Y-165142380D02*
X118300952Y-165142380D01*
X118300952Y-164142380D01*
X119110476Y-165142380D02*
X119110476Y-164142380D01*
X119443809Y-164856666D01*
X119777142Y-164142380D01*
X119777142Y-165142380D01*
X120824761Y-165142380D02*
X120491428Y-164666190D01*
X120253333Y-165142380D02*
X120253333Y-164142380D01*
X120634285Y-164142380D01*
X120729523Y-164190000D01*
X120777142Y-164237619D01*
X120824761Y-164332857D01*
X120824761Y-164475714D01*
X120777142Y-164570952D01*
X120729523Y-164618571D01*
X120634285Y-164666190D01*
X120253333Y-164666190D01*
X121777142Y-165142380D02*
X121205714Y-165142380D01*
X121491428Y-165142380D02*
X121491428Y-164142380D01*
X121396190Y-164285238D01*
X121300952Y-164380476D01*
X121205714Y-164428095D01*
X122634285Y-164142380D02*
X122443809Y-164142380D01*
X122348571Y-164190000D01*
X122300952Y-164237619D01*
X122205714Y-164380476D01*
X122158095Y-164570952D01*
X122158095Y-164951904D01*
X122205714Y-165047142D01*
X122253333Y-165094761D01*
X122348571Y-165142380D01*
X122539047Y-165142380D01*
X122634285Y-165094761D01*
X122681904Y-165047142D01*
X122729523Y-164951904D01*
X122729523Y-164713809D01*
X122681904Y-164618571D01*
X122634285Y-164570952D01*
X122539047Y-164523333D01*
X122348571Y-164523333D01*
X122253333Y-164570952D01*
X122205714Y-164618571D01*
X122158095Y-164713809D01*
X123348571Y-164142380D02*
X123443809Y-164142380D01*
X123539047Y-164190000D01*
X123586666Y-164237619D01*
X123634285Y-164332857D01*
X123681904Y-164523333D01*
X123681904Y-164761428D01*
X123634285Y-164951904D01*
X123586666Y-165047142D01*
X123539047Y-165094761D01*
X123443809Y-165142380D01*
X123348571Y-165142380D01*
X123253333Y-165094761D01*
X123205714Y-165047142D01*
X123158095Y-164951904D01*
X123110476Y-164761428D01*
X123110476Y-164523333D01*
X123158095Y-164332857D01*
X123205714Y-164237619D01*
X123253333Y-164190000D01*
X123348571Y-164142380D01*
X124015238Y-164142380D02*
X124634285Y-164142380D01*
X124300952Y-164523333D01*
X124443809Y-164523333D01*
X124539047Y-164570952D01*
X124586666Y-164618571D01*
X124634285Y-164713809D01*
X124634285Y-164951904D01*
X124586666Y-165047142D01*
X124539047Y-165094761D01*
X124443809Y-165142380D01*
X124158095Y-165142380D01*
X124062857Y-165094761D01*
X124015238Y-165047142D01*
X125253333Y-164142380D02*
X125348571Y-164142380D01*
X125443809Y-164190000D01*
X125491428Y-164237619D01*
X125539047Y-164332857D01*
X125586666Y-164523333D01*
X125586666Y-164761428D01*
X125539047Y-164951904D01*
X125491428Y-165047142D01*
X125443809Y-165094761D01*
X125348571Y-165142380D01*
X125253333Y-165142380D01*
X125158095Y-165094761D01*
X125110476Y-165047142D01*
X125062857Y-164951904D01*
X125015238Y-164761428D01*
X125015238Y-164523333D01*
X125062857Y-164332857D01*
X125110476Y-164237619D01*
X125158095Y-164190000D01*
X125253333Y-164142380D01*
X122383333Y-160753333D02*
X122383333Y-161546666D01*
X122430000Y-161640000D01*
X122476666Y-161686666D01*
X122570000Y-161733333D01*
X122756666Y-161733333D01*
X122850000Y-161686666D01*
X122896666Y-161640000D01*
X122943333Y-161546666D01*
X122943333Y-160753333D01*
X123923333Y-161733333D02*
X123363333Y-161733333D01*
X123643333Y-161733333D02*
X123643333Y-160753333D01*
X123550000Y-160893333D01*
X123456666Y-160986666D01*
X123363333Y-161033333D01*
X133127619Y-180731666D02*
X133080000Y-180684047D01*
X133032380Y-180588809D01*
X133032380Y-180350714D01*
X133080000Y-180255476D01*
X133127619Y-180207857D01*
X133222857Y-180160238D01*
X133318095Y-180160238D01*
X133460952Y-180207857D01*
X134032380Y-180779285D01*
X134032380Y-180160238D01*
X134032380Y-179731666D02*
X133032380Y-179731666D01*
X133651428Y-179636428D02*
X134032380Y-179350714D01*
X133365714Y-179350714D02*
X133746666Y-179731666D01*
X133127619Y-178969761D02*
X133080000Y-178922142D01*
X133032380Y-178826904D01*
X133032380Y-178588809D01*
X133080000Y-178493571D01*
X133127619Y-178445952D01*
X133222857Y-178398333D01*
X133318095Y-178398333D01*
X133460952Y-178445952D01*
X134032380Y-179017380D01*
X134032380Y-178398333D01*
D12*
X132156190Y-179850714D02*
X131918095Y-180017380D01*
X132156190Y-180136428D02*
X131656190Y-180136428D01*
X131656190Y-179945952D01*
X131680000Y-179898333D01*
X131703809Y-179874523D01*
X131751428Y-179850714D01*
X131822857Y-179850714D01*
X131870476Y-179874523D01*
X131894285Y-179898333D01*
X131918095Y-179945952D01*
X131918095Y-180136428D01*
X132132380Y-179660238D02*
X132156190Y-179612619D01*
X132156190Y-179517380D01*
X132132380Y-179469761D01*
X132084761Y-179445952D01*
X132060952Y-179445952D01*
X132013333Y-179469761D01*
X131989523Y-179517380D01*
X131989523Y-179588809D01*
X131965714Y-179636428D01*
X131918095Y-179660238D01*
X131894285Y-179660238D01*
X131846666Y-179636428D01*
X131822857Y-179588809D01*
X131822857Y-179517380D01*
X131846666Y-179469761D01*
X132156190Y-178969761D02*
X132156190Y-179255476D01*
X132156190Y-179112619D02*
X131656190Y-179112619D01*
X131727619Y-179160238D01*
X131775238Y-179207857D01*
X131799047Y-179255476D01*
D11*
X156012380Y-167805238D02*
X156012380Y-168376666D01*
X156012380Y-168090952D02*
X155012380Y-168090952D01*
X155155238Y-168186190D01*
X155250476Y-168281428D01*
X155298095Y-168376666D01*
X156012380Y-167376666D02*
X155012380Y-167376666D01*
X155631428Y-167281428D02*
X156012380Y-166995714D01*
X155345714Y-166995714D02*
X155726666Y-167376666D01*
X155012380Y-166090952D02*
X155012380Y-166567142D01*
X155488571Y-166614761D01*
X155440952Y-166567142D01*
X155393333Y-166471904D01*
X155393333Y-166233809D01*
X155440952Y-166138571D01*
X155488571Y-166090952D01*
X155583809Y-166043333D01*
X155821904Y-166043333D01*
X155917142Y-166090952D01*
X155964761Y-166138571D01*
X156012380Y-166233809D01*
X156012380Y-166471904D01*
X155964761Y-166567142D01*
X155917142Y-166614761D01*
D12*
X154136190Y-167936190D02*
X153898095Y-168102857D01*
X154136190Y-168221904D02*
X153636190Y-168221904D01*
X153636190Y-168031428D01*
X153660000Y-167983809D01*
X153683809Y-167960000D01*
X153731428Y-167936190D01*
X153802857Y-167936190D01*
X153850476Y-167960000D01*
X153874285Y-167983809D01*
X153898095Y-168031428D01*
X153898095Y-168221904D01*
X154136190Y-167483809D02*
X154136190Y-167721904D01*
X153636190Y-167721904D01*
X154112380Y-167126666D02*
X154136190Y-167174285D01*
X154136190Y-167269523D01*
X154112380Y-167317142D01*
X154064761Y-167340952D01*
X153874285Y-167340952D01*
X153826666Y-167317142D01*
X153802857Y-167269523D01*
X153802857Y-167174285D01*
X153826666Y-167126666D01*
X153874285Y-167102857D01*
X153921904Y-167102857D01*
X153969523Y-167340952D01*
X154136190Y-166674285D02*
X153636190Y-166674285D01*
X154112380Y-166674285D02*
X154136190Y-166721904D01*
X154136190Y-166817142D01*
X154112380Y-166864761D01*
X154088571Y-166888571D01*
X154040952Y-166912380D01*
X153898095Y-166912380D01*
X153850476Y-166888571D01*
X153826666Y-166864761D01*
X153802857Y-166817142D01*
X153802857Y-166721904D01*
X153826666Y-166674285D01*
X154136190Y-166174285D02*
X154136190Y-166460000D01*
X154136190Y-166317142D02*
X153636190Y-166317142D01*
X153707619Y-166364761D01*
X153755238Y-166412380D01*
X153779047Y-166460000D01*
D11*
X118307380Y-162615476D02*
X118307380Y-163186904D01*
X118307380Y-162901190D02*
X117307380Y-162901190D01*
X117450238Y-162996428D01*
X117545476Y-163091666D01*
X117593095Y-163186904D01*
X117307380Y-161996428D02*
X117307380Y-161901190D01*
X117355000Y-161805952D01*
X117402619Y-161758333D01*
X117497857Y-161710714D01*
X117688333Y-161663095D01*
X117926428Y-161663095D01*
X118116904Y-161710714D01*
X118212142Y-161758333D01*
X118259761Y-161805952D01*
X118307380Y-161901190D01*
X118307380Y-161996428D01*
X118259761Y-162091666D01*
X118212142Y-162139285D01*
X118116904Y-162186904D01*
X117926428Y-162234523D01*
X117688333Y-162234523D01*
X117497857Y-162186904D01*
X117402619Y-162139285D01*
X117355000Y-162091666D01*
X117307380Y-161996428D01*
X118307380Y-161234523D02*
X117307380Y-161234523D01*
X118307380Y-160663095D02*
X117735952Y-161091666D01*
X117307380Y-160663095D02*
X117878809Y-161234523D01*
D12*
X116431190Y-162008333D02*
X116193095Y-162175000D01*
X116431190Y-162294047D02*
X115931190Y-162294047D01*
X115931190Y-162103571D01*
X115955000Y-162055952D01*
X115978809Y-162032142D01*
X116026428Y-162008333D01*
X116097857Y-162008333D01*
X116145476Y-162032142D01*
X116169285Y-162055952D01*
X116193095Y-162103571D01*
X116193095Y-162294047D01*
X115931190Y-161555952D02*
X115931190Y-161794047D01*
X116169285Y-161817857D01*
X116145476Y-161794047D01*
X116121666Y-161746428D01*
X116121666Y-161627380D01*
X116145476Y-161579761D01*
X116169285Y-161555952D01*
X116216904Y-161532142D01*
X116335952Y-161532142D01*
X116383571Y-161555952D01*
X116407380Y-161579761D01*
X116431190Y-161627380D01*
X116431190Y-161746428D01*
X116407380Y-161794047D01*
X116383571Y-161817857D01*
D11*
X112832619Y-176363095D02*
X112785000Y-176315476D01*
X112737380Y-176220238D01*
X112737380Y-175982142D01*
X112785000Y-175886904D01*
X112832619Y-175839285D01*
X112927857Y-175791666D01*
X113023095Y-175791666D01*
X113165952Y-175839285D01*
X113737380Y-176410714D01*
X113737380Y-175791666D01*
X112832619Y-175410714D02*
X112785000Y-175363095D01*
X112737380Y-175267857D01*
X112737380Y-175029761D01*
X112785000Y-174934523D01*
X112832619Y-174886904D01*
X112927857Y-174839285D01*
X113023095Y-174839285D01*
X113165952Y-174886904D01*
X113737380Y-175458333D01*
X113737380Y-174839285D01*
X112737380Y-174220238D02*
X112737380Y-174125000D01*
X112785000Y-174029761D01*
X112832619Y-173982142D01*
X112927857Y-173934523D01*
X113118333Y-173886904D01*
X113356428Y-173886904D01*
X113546904Y-173934523D01*
X113642142Y-173982142D01*
X113689761Y-174029761D01*
X113737380Y-174125000D01*
X113737380Y-174220238D01*
X113689761Y-174315476D01*
X113642142Y-174363095D01*
X113546904Y-174410714D01*
X113356428Y-174458333D01*
X113118333Y-174458333D01*
X112927857Y-174410714D01*
X112832619Y-174363095D01*
X112785000Y-174315476D01*
X112737380Y-174220238D01*
X113737380Y-173458333D02*
X112737380Y-173458333D01*
X113737380Y-172886904D02*
X113165952Y-173315476D01*
X112737380Y-172886904D02*
X113308809Y-173458333D01*
D12*
X115161190Y-174708333D02*
X114923095Y-174875000D01*
X115161190Y-174994047D02*
X114661190Y-174994047D01*
X114661190Y-174803571D01*
X114685000Y-174755952D01*
X114708809Y-174732142D01*
X114756428Y-174708333D01*
X114827857Y-174708333D01*
X114875476Y-174732142D01*
X114899285Y-174755952D01*
X114923095Y-174803571D01*
X114923095Y-174994047D01*
X114661190Y-174541666D02*
X114661190Y-174232142D01*
X114851666Y-174398809D01*
X114851666Y-174327380D01*
X114875476Y-174279761D01*
X114899285Y-174255952D01*
X114946904Y-174232142D01*
X115065952Y-174232142D01*
X115113571Y-174255952D01*
X115137380Y-174279761D01*
X115161190Y-174327380D01*
X115161190Y-174470238D01*
X115137380Y-174517857D01*
X115113571Y-174541666D01*
D11*
X120055714Y-168330476D02*
X120722380Y-168330476D01*
X119674761Y-168568571D02*
X120389047Y-168806666D01*
X120389047Y-168187619D01*
X119722380Y-167901904D02*
X119722380Y-167235238D01*
X120722380Y-167663809D01*
X120722380Y-166854285D02*
X119722380Y-166854285D01*
X120341428Y-166759047D02*
X120722380Y-166473333D01*
X120055714Y-166473333D02*
X120436666Y-166854285D01*
D12*
X122146190Y-167723333D02*
X121908095Y-167890000D01*
X122146190Y-168009047D02*
X121646190Y-168009047D01*
X121646190Y-167818571D01*
X121670000Y-167770952D01*
X121693809Y-167747142D01*
X121741428Y-167723333D01*
X121812857Y-167723333D01*
X121860476Y-167747142D01*
X121884285Y-167770952D01*
X121908095Y-167818571D01*
X121908095Y-168009047D01*
X122146190Y-167247142D02*
X122146190Y-167532857D01*
X122146190Y-167390000D02*
X121646190Y-167390000D01*
X121717619Y-167437619D01*
X121765238Y-167485238D01*
X121789047Y-167532857D01*
D11*
X158842380Y-167972857D02*
X158842380Y-168449047D01*
X157842380Y-168449047D01*
X158318571Y-167639523D02*
X158318571Y-167306190D01*
X158842380Y-167163333D02*
X158842380Y-167639523D01*
X157842380Y-167639523D01*
X157842380Y-167163333D01*
X158842380Y-166734761D02*
X157842380Y-166734761D01*
X157842380Y-166496666D01*
X157890000Y-166353809D01*
X157985238Y-166258571D01*
X158080476Y-166210952D01*
X158270952Y-166163333D01*
X158413809Y-166163333D01*
X158604285Y-166210952D01*
X158699523Y-166258571D01*
X158794761Y-166353809D01*
X158842380Y-166496666D01*
X158842380Y-166734761D01*
D12*
X156966190Y-167853809D02*
X156966190Y-168091904D01*
X156466190Y-168091904D01*
X156942380Y-167496666D02*
X156966190Y-167544285D01*
X156966190Y-167639523D01*
X156942380Y-167687142D01*
X156894761Y-167710952D01*
X156704285Y-167710952D01*
X156656666Y-167687142D01*
X156632857Y-167639523D01*
X156632857Y-167544285D01*
X156656666Y-167496666D01*
X156704285Y-167472857D01*
X156751904Y-167472857D01*
X156799523Y-167710952D01*
X156966190Y-167044285D02*
X156466190Y-167044285D01*
X156942380Y-167044285D02*
X156966190Y-167091904D01*
X156966190Y-167187142D01*
X156942380Y-167234761D01*
X156918571Y-167258571D01*
X156870952Y-167282380D01*
X156728095Y-167282380D01*
X156680476Y-167258571D01*
X156656666Y-167234761D01*
X156632857Y-167187142D01*
X156632857Y-167091904D01*
X156656666Y-167044285D01*
X156966190Y-166544285D02*
X156966190Y-166830000D01*
X156966190Y-166687142D02*
X156466190Y-166687142D01*
X156537619Y-166734761D01*
X156585238Y-166782380D01*
X156609047Y-166830000D01*
D11*
X137447142Y-136022380D02*
X136875714Y-136022380D01*
X137161428Y-136022380D02*
X137161428Y-135022380D01*
X137066190Y-135165238D01*
X136970952Y-135260476D01*
X136875714Y-135308095D01*
X138066190Y-135022380D02*
X138161428Y-135022380D01*
X138256666Y-135070000D01*
X138304285Y-135117619D01*
X138351904Y-135212857D01*
X138399523Y-135403333D01*
X138399523Y-135641428D01*
X138351904Y-135831904D01*
X138304285Y-135927142D01*
X138256666Y-135974761D01*
X138161428Y-136022380D01*
X138066190Y-136022380D01*
X137970952Y-135974761D01*
X137923333Y-135927142D01*
X137875714Y-135831904D01*
X137828095Y-135641428D01*
X137828095Y-135403333D01*
X137875714Y-135212857D01*
X137923333Y-135117619D01*
X137970952Y-135070000D01*
X138066190Y-135022380D01*
X139018571Y-135022380D02*
X139113809Y-135022380D01*
X139209047Y-135070000D01*
X139256666Y-135117619D01*
X139304285Y-135212857D01*
X139351904Y-135403333D01*
X139351904Y-135641428D01*
X139304285Y-135831904D01*
X139256666Y-135927142D01*
X139209047Y-135974761D01*
X139113809Y-136022380D01*
X139018571Y-136022380D01*
X138923333Y-135974761D01*
X138875714Y-135927142D01*
X138828095Y-135831904D01*
X138780476Y-135641428D01*
X138780476Y-135403333D01*
X138828095Y-135212857D01*
X138875714Y-135117619D01*
X138923333Y-135070000D01*
X139018571Y-135022380D01*
X140209047Y-135355714D02*
X140209047Y-136022380D01*
X139780476Y-135355714D02*
X139780476Y-135879523D01*
X139828095Y-135974761D01*
X139923333Y-136022380D01*
X140066190Y-136022380D01*
X140161428Y-135974761D01*
X140209047Y-135927142D01*
X140685238Y-136022380D02*
X140685238Y-135022380D01*
X140685238Y-135498571D02*
X141256666Y-135498571D01*
X141256666Y-136022380D02*
X141256666Y-135022380D01*
X138923333Y-147772380D02*
X138447142Y-147772380D01*
X138447142Y-146772380D01*
X139780476Y-147772380D02*
X139209047Y-147772380D01*
X139494761Y-147772380D02*
X139494761Y-146772380D01*
X139399523Y-146915238D01*
X139304285Y-147010476D01*
X139209047Y-147058095D01*
X88652380Y-155109047D02*
X87652380Y-155109047D01*
X88366666Y-154775714D01*
X87652380Y-154442380D01*
X88652380Y-154442380D01*
X88604761Y-154013809D02*
X88652380Y-153870952D01*
X88652380Y-153632857D01*
X88604761Y-153537619D01*
X88557142Y-153490000D01*
X88461904Y-153442380D01*
X88366666Y-153442380D01*
X88271428Y-153490000D01*
X88223809Y-153537619D01*
X88176190Y-153632857D01*
X88128571Y-153823333D01*
X88080952Y-153918571D01*
X88033333Y-153966190D01*
X87938095Y-154013809D01*
X87842857Y-154013809D01*
X87747619Y-153966190D01*
X87700000Y-153918571D01*
X87652380Y-153823333D01*
X87652380Y-153585238D01*
X87700000Y-153442380D01*
X87652380Y-153156666D02*
X87652380Y-152585238D01*
X88652380Y-152870952D02*
X87652380Y-152870952D01*
X88128571Y-151918571D02*
X88176190Y-151775714D01*
X88223809Y-151728095D01*
X88319047Y-151680476D01*
X88461904Y-151680476D01*
X88557142Y-151728095D01*
X88604761Y-151775714D01*
X88652380Y-151870952D01*
X88652380Y-152251904D01*
X87652380Y-152251904D01*
X87652380Y-151918571D01*
X87700000Y-151823333D01*
X87747619Y-151775714D01*
X87842857Y-151728095D01*
X87938095Y-151728095D01*
X88033333Y-151775714D01*
X88080952Y-151823333D01*
X88128571Y-151918571D01*
X88128571Y-152251904D01*
X88366666Y-151299523D02*
X88366666Y-150823333D01*
X88652380Y-151394761D02*
X87652380Y-151061428D01*
X88652380Y-150728095D01*
X100152380Y-153323333D02*
X100866666Y-153323333D01*
X101009523Y-153370952D01*
X101104761Y-153466190D01*
X101152380Y-153609047D01*
X101152380Y-153704285D01*
X100247619Y-152894761D02*
X100200000Y-152847142D01*
X100152380Y-152751904D01*
X100152380Y-152513809D01*
X100200000Y-152418571D01*
X100247619Y-152370952D01*
X100342857Y-152323333D01*
X100438095Y-152323333D01*
X100580952Y-152370952D01*
X101152380Y-152942380D01*
X101152380Y-152323333D01*
X88607380Y-168014047D02*
X87607380Y-168014047D01*
X88321666Y-167680714D01*
X87607380Y-167347380D01*
X88607380Y-167347380D01*
X88559761Y-166918809D02*
X88607380Y-166775952D01*
X88607380Y-166537857D01*
X88559761Y-166442619D01*
X88512142Y-166395000D01*
X88416904Y-166347380D01*
X88321666Y-166347380D01*
X88226428Y-166395000D01*
X88178809Y-166442619D01*
X88131190Y-166537857D01*
X88083571Y-166728333D01*
X88035952Y-166823571D01*
X87988333Y-166871190D01*
X87893095Y-166918809D01*
X87797857Y-166918809D01*
X87702619Y-166871190D01*
X87655000Y-166823571D01*
X87607380Y-166728333D01*
X87607380Y-166490238D01*
X87655000Y-166347380D01*
X87607380Y-166061666D02*
X87607380Y-165490238D01*
X88607380Y-165775952D02*
X87607380Y-165775952D01*
X88083571Y-164823571D02*
X88131190Y-164680714D01*
X88178809Y-164633095D01*
X88274047Y-164585476D01*
X88416904Y-164585476D01*
X88512142Y-164633095D01*
X88559761Y-164680714D01*
X88607380Y-164775952D01*
X88607380Y-165156904D01*
X87607380Y-165156904D01*
X87607380Y-164823571D01*
X87655000Y-164728333D01*
X87702619Y-164680714D01*
X87797857Y-164633095D01*
X87893095Y-164633095D01*
X87988333Y-164680714D01*
X88035952Y-164728333D01*
X88083571Y-164823571D01*
X88083571Y-165156904D01*
X88321666Y-164204523D02*
X88321666Y-163728333D01*
X88607380Y-164299761D02*
X87607380Y-163966428D01*
X88607380Y-163633095D01*
X100107380Y-166228333D02*
X100821666Y-166228333D01*
X100964523Y-166275952D01*
X101059761Y-166371190D01*
X101107380Y-166514047D01*
X101107380Y-166609285D01*
X101107380Y-165228333D02*
X101107380Y-165799761D01*
X101107380Y-165514047D02*
X100107380Y-165514047D01*
X100250238Y-165609285D01*
X100345476Y-165704523D01*
X100393095Y-165799761D01*
X133907380Y-180684047D02*
X133907380Y-181255476D01*
X133907380Y-180969761D02*
X132907380Y-180969761D01*
X133050238Y-181065000D01*
X133145476Y-181160238D01*
X133193095Y-181255476D01*
X132907380Y-180065000D02*
X132907380Y-179969761D01*
X132955000Y-179874523D01*
X133002619Y-179826904D01*
X133097857Y-179779285D01*
X133288333Y-179731666D01*
X133526428Y-179731666D01*
X133716904Y-179779285D01*
X133812142Y-179826904D01*
X133859761Y-179874523D01*
X133907380Y-179969761D01*
X133907380Y-180065000D01*
X133859761Y-180160238D01*
X133812142Y-180207857D01*
X133716904Y-180255476D01*
X133526428Y-180303095D01*
X133288333Y-180303095D01*
X133097857Y-180255476D01*
X133002619Y-180207857D01*
X132955000Y-180160238D01*
X132907380Y-180065000D01*
X132907380Y-179112619D02*
X132907380Y-179017380D01*
X132955000Y-178922142D01*
X133002619Y-178874523D01*
X133097857Y-178826904D01*
X133288333Y-178779285D01*
X133526428Y-178779285D01*
X133716904Y-178826904D01*
X133812142Y-178874523D01*
X133859761Y-178922142D01*
X133907380Y-179017380D01*
X133907380Y-179112619D01*
X133859761Y-179207857D01*
X133812142Y-179255476D01*
X133716904Y-179303095D01*
X133526428Y-179350714D01*
X133288333Y-179350714D01*
X133097857Y-179303095D01*
X133002619Y-179255476D01*
X132955000Y-179207857D01*
X132907380Y-179112619D01*
X133240714Y-178350714D02*
X133907380Y-178350714D01*
X133335952Y-178350714D02*
X133288333Y-178303095D01*
X133240714Y-178207857D01*
X133240714Y-178065000D01*
X133288333Y-177969761D01*
X133383571Y-177922142D01*
X133907380Y-177922142D01*
D12*
X135283571Y-179850714D02*
X135307380Y-179874523D01*
X135331190Y-179945952D01*
X135331190Y-179993571D01*
X135307380Y-180065000D01*
X135259761Y-180112619D01*
X135212142Y-180136428D01*
X135116904Y-180160238D01*
X135045476Y-180160238D01*
X134950238Y-180136428D01*
X134902619Y-180112619D01*
X134855000Y-180065000D01*
X134831190Y-179993571D01*
X134831190Y-179945952D01*
X134855000Y-179874523D01*
X134878809Y-179850714D01*
X135307380Y-179660238D02*
X135331190Y-179612619D01*
X135331190Y-179517380D01*
X135307380Y-179469761D01*
X135259761Y-179445952D01*
X135235952Y-179445952D01*
X135188333Y-179469761D01*
X135164523Y-179517380D01*
X135164523Y-179588809D01*
X135140714Y-179636428D01*
X135093095Y-179660238D01*
X135069285Y-179660238D01*
X135021666Y-179636428D01*
X134997857Y-179588809D01*
X134997857Y-179517380D01*
X135021666Y-179469761D01*
X135331190Y-178969761D02*
X135331190Y-179255476D01*
X135331190Y-179112619D02*
X134831190Y-179112619D01*
X134902619Y-179160238D01*
X134950238Y-179207857D01*
X134974047Y-179255476D01*
D11*
X139255714Y-162058095D02*
X139922380Y-162058095D01*
X138874761Y-162296190D02*
X139589047Y-162534285D01*
X139589047Y-161915238D01*
X138922380Y-161629523D02*
X138922380Y-160962857D01*
X139922380Y-161391428D01*
X139255714Y-160153333D02*
X139922380Y-160153333D01*
X139255714Y-160581904D02*
X139779523Y-160581904D01*
X139874761Y-160534285D01*
X139922380Y-160439047D01*
X139922380Y-160296190D01*
X139874761Y-160200952D01*
X139827142Y-160153333D01*
X143577142Y-161939047D02*
X143624761Y-161986666D01*
X143672380Y-162129523D01*
X143672380Y-162224761D01*
X143624761Y-162367619D01*
X143529523Y-162462857D01*
X143434285Y-162510476D01*
X143243809Y-162558095D01*
X143100952Y-162558095D01*
X142910476Y-162510476D01*
X142815238Y-162462857D01*
X142720000Y-162367619D01*
X142672380Y-162224761D01*
X142672380Y-162129523D01*
X142720000Y-161986666D01*
X142767619Y-161939047D01*
X143672380Y-161367619D02*
X143624761Y-161462857D01*
X143577142Y-161510476D01*
X143481904Y-161558095D01*
X143196190Y-161558095D01*
X143100952Y-161510476D01*
X143053333Y-161462857D01*
X143005714Y-161367619D01*
X143005714Y-161224761D01*
X143053333Y-161129523D01*
X143100952Y-161081904D01*
X143196190Y-161034285D01*
X143481904Y-161034285D01*
X143577142Y-161081904D01*
X143624761Y-161129523D01*
X143672380Y-161224761D01*
X143672380Y-161367619D01*
X142767619Y-160653333D02*
X142720000Y-160605714D01*
X142672380Y-160510476D01*
X142672380Y-160272380D01*
X142720000Y-160177142D01*
X142767619Y-160129523D01*
X142862857Y-160081904D01*
X142958095Y-160081904D01*
X143100952Y-160129523D01*
X143672380Y-160700952D01*
X143672380Y-160081904D01*
X133540714Y-162058095D02*
X134207380Y-162058095D01*
X133159761Y-162296190D02*
X133874047Y-162534285D01*
X133874047Y-161915238D01*
X133207380Y-161629523D02*
X133207380Y-160962857D01*
X134207380Y-161391428D01*
X133540714Y-160153333D02*
X134207380Y-160153333D01*
X133540714Y-160581904D02*
X134064523Y-160581904D01*
X134159761Y-160534285D01*
X134207380Y-160439047D01*
X134207380Y-160296190D01*
X134159761Y-160200952D01*
X134112142Y-160153333D01*
X139052142Y-161229272D02*
X139099761Y-161276891D01*
X139147380Y-161419748D01*
X139147380Y-161514986D01*
X139099761Y-161657844D01*
X139004523Y-161753082D01*
X138909285Y-161800701D01*
X138718809Y-161848320D01*
X138575952Y-161848320D01*
X138385476Y-161800701D01*
X138290238Y-161753082D01*
X138195000Y-161657844D01*
X138147380Y-161514986D01*
X138147380Y-161419748D01*
X138195000Y-161276891D01*
X138242619Y-161229272D01*
X139147380Y-160657844D02*
X139099761Y-160753082D01*
X139052142Y-160800701D01*
X138956904Y-160848320D01*
X138671190Y-160848320D01*
X138575952Y-160800701D01*
X138528333Y-160753082D01*
X138480714Y-160657844D01*
X138480714Y-160514986D01*
X138528333Y-160419748D01*
X138575952Y-160372129D01*
X138671190Y-160324510D01*
X138956904Y-160324510D01*
X139052142Y-160372129D01*
X139099761Y-160419748D01*
X139147380Y-160514986D01*
X139147380Y-160657844D01*
X139147380Y-159372129D02*
X139147380Y-159943558D01*
X139147380Y-159657844D02*
X138147380Y-159657844D01*
X138290238Y-159753082D01*
X138385476Y-159848320D01*
X138433095Y-159943558D01*
X123602380Y-177406857D02*
X123602380Y-177978285D01*
X123602380Y-177692571D02*
X122602380Y-177692571D01*
X122745238Y-177787809D01*
X122840476Y-177883047D01*
X122888095Y-177978285D01*
X122602380Y-176787809D02*
X122602380Y-176692571D01*
X122650000Y-176597333D01*
X122697619Y-176549714D01*
X122792857Y-176502095D01*
X122983333Y-176454476D01*
X123221428Y-176454476D01*
X123411904Y-176502095D01*
X123507142Y-176549714D01*
X123554761Y-176597333D01*
X123602380Y-176692571D01*
X123602380Y-176787809D01*
X123554761Y-176883047D01*
X123507142Y-176930666D01*
X123411904Y-176978285D01*
X123221428Y-177025904D01*
X122983333Y-177025904D01*
X122792857Y-176978285D01*
X122697619Y-176930666D01*
X122650000Y-176883047D01*
X122602380Y-176787809D01*
X122935714Y-175597333D02*
X123602380Y-175597333D01*
X122935714Y-176025904D02*
X123459523Y-176025904D01*
X123554761Y-175978285D01*
X123602380Y-175883047D01*
X123602380Y-175740190D01*
X123554761Y-175644952D01*
X123507142Y-175597333D01*
X127257142Y-177168761D02*
X127304761Y-177216380D01*
X127352380Y-177359238D01*
X127352380Y-177454476D01*
X127304761Y-177597333D01*
X127209523Y-177692571D01*
X127114285Y-177740190D01*
X126923809Y-177787809D01*
X126780952Y-177787809D01*
X126590476Y-177740190D01*
X126495238Y-177692571D01*
X126400000Y-177597333D01*
X126352380Y-177454476D01*
X126352380Y-177359238D01*
X126400000Y-177216380D01*
X126447619Y-177168761D01*
X127352380Y-176740190D02*
X126685714Y-176740190D01*
X126352380Y-176740190D02*
X126400000Y-176787809D01*
X126447619Y-176740190D01*
X126400000Y-176692571D01*
X126352380Y-176740190D01*
X126447619Y-176740190D01*
X126447619Y-176311619D02*
X126400000Y-176264000D01*
X126352380Y-176168761D01*
X126352380Y-175930666D01*
X126400000Y-175835428D01*
X126447619Y-175787809D01*
X126542857Y-175740190D01*
X126638095Y-175740190D01*
X126780952Y-175787809D01*
X127352380Y-176359238D01*
X127352380Y-175740190D01*
X117860380Y-177406857D02*
X117860380Y-177978285D01*
X117860380Y-177692571D02*
X116860380Y-177692571D01*
X117003238Y-177787809D01*
X117098476Y-177883047D01*
X117146095Y-177978285D01*
X116860380Y-176787809D02*
X116860380Y-176692571D01*
X116908000Y-176597333D01*
X116955619Y-176549714D01*
X117050857Y-176502095D01*
X117241333Y-176454476D01*
X117479428Y-176454476D01*
X117669904Y-176502095D01*
X117765142Y-176549714D01*
X117812761Y-176597333D01*
X117860380Y-176692571D01*
X117860380Y-176787809D01*
X117812761Y-176883047D01*
X117765142Y-176930666D01*
X117669904Y-176978285D01*
X117479428Y-177025904D01*
X117241333Y-177025904D01*
X117050857Y-176978285D01*
X116955619Y-176930666D01*
X116908000Y-176883047D01*
X116860380Y-176787809D01*
X117193714Y-175597333D02*
X117860380Y-175597333D01*
X117193714Y-176025904D02*
X117717523Y-176025904D01*
X117812761Y-175978285D01*
X117860380Y-175883047D01*
X117860380Y-175740190D01*
X117812761Y-175644952D01*
X117765142Y-175597333D01*
X121515142Y-177168761D02*
X121562761Y-177216380D01*
X121610380Y-177359238D01*
X121610380Y-177454476D01*
X121562761Y-177597333D01*
X121467523Y-177692571D01*
X121372285Y-177740190D01*
X121181809Y-177787809D01*
X121038952Y-177787809D01*
X120848476Y-177740190D01*
X120753238Y-177692571D01*
X120658000Y-177597333D01*
X120610380Y-177454476D01*
X120610380Y-177359238D01*
X120658000Y-177216380D01*
X120705619Y-177168761D01*
X121610380Y-176740190D02*
X120943714Y-176740190D01*
X120610380Y-176740190D02*
X120658000Y-176787809D01*
X120705619Y-176740190D01*
X120658000Y-176692571D01*
X120610380Y-176740190D01*
X120705619Y-176740190D01*
X121610380Y-175740190D02*
X121610380Y-176311619D01*
X121610380Y-176025904D02*
X120610380Y-176025904D01*
X120753238Y-176121142D01*
X120848476Y-176216380D01*
X120896095Y-176311619D01*
X120372380Y-155012380D02*
X119800952Y-155012380D01*
X120086666Y-155012380D02*
X120086666Y-154012380D01*
X119991428Y-154155238D01*
X119896190Y-154250476D01*
X119800952Y-154298095D01*
X120991428Y-154012380D02*
X121086666Y-154012380D01*
X121181904Y-154060000D01*
X121229523Y-154107619D01*
X121277142Y-154202857D01*
X121324761Y-154393333D01*
X121324761Y-154631428D01*
X121277142Y-154821904D01*
X121229523Y-154917142D01*
X121181904Y-154964761D01*
X121086666Y-155012380D01*
X120991428Y-155012380D01*
X120896190Y-154964761D01*
X120848571Y-154917142D01*
X120800952Y-154821904D01*
X120753333Y-154631428D01*
X120753333Y-154393333D01*
X120800952Y-154202857D01*
X120848571Y-154107619D01*
X120896190Y-154060000D01*
X120991428Y-154012380D01*
X121943809Y-154012380D02*
X122039047Y-154012380D01*
X122134285Y-154060000D01*
X122181904Y-154107619D01*
X122229523Y-154202857D01*
X122277142Y-154393333D01*
X122277142Y-154631428D01*
X122229523Y-154821904D01*
X122181904Y-154917142D01*
X122134285Y-154964761D01*
X122039047Y-155012380D01*
X121943809Y-155012380D01*
X121848571Y-154964761D01*
X121800952Y-154917142D01*
X121753333Y-154821904D01*
X121705714Y-154631428D01*
X121705714Y-154393333D01*
X121753333Y-154202857D01*
X121800952Y-154107619D01*
X121848571Y-154060000D01*
X121943809Y-154012380D01*
X122705714Y-154345714D02*
X122705714Y-155012380D01*
X122705714Y-154440952D02*
X122753333Y-154393333D01*
X122848571Y-154345714D01*
X122991428Y-154345714D01*
X123086666Y-154393333D01*
X123134285Y-154488571D01*
X123134285Y-155012380D01*
X123943809Y-154488571D02*
X123610476Y-154488571D01*
X123610476Y-155012380D02*
X123610476Y-154012380D01*
X124086666Y-154012380D01*
D12*
X120991428Y-156388571D02*
X120967619Y-156412380D01*
X120896190Y-156436190D01*
X120848571Y-156436190D01*
X120777142Y-156412380D01*
X120729523Y-156364761D01*
X120705714Y-156317142D01*
X120681904Y-156221904D01*
X120681904Y-156150476D01*
X120705714Y-156055238D01*
X120729523Y-156007619D01*
X120777142Y-155960000D01*
X120848571Y-155936190D01*
X120896190Y-155936190D01*
X120967619Y-155960000D01*
X120991428Y-155983809D01*
X121372380Y-156174285D02*
X121443809Y-156198095D01*
X121467619Y-156221904D01*
X121491428Y-156269523D01*
X121491428Y-156340952D01*
X121467619Y-156388571D01*
X121443809Y-156412380D01*
X121396190Y-156436190D01*
X121205714Y-156436190D01*
X121205714Y-155936190D01*
X121372380Y-155936190D01*
X121420000Y-155960000D01*
X121443809Y-155983809D01*
X121467619Y-156031428D01*
X121467619Y-156079047D01*
X121443809Y-156126666D01*
X121420000Y-156150476D01*
X121372380Y-156174285D01*
X121205714Y-156174285D01*
X121777142Y-156436190D02*
X121729523Y-156412380D01*
X121705714Y-156388571D01*
X121681904Y-156340952D01*
X121681904Y-156198095D01*
X121705714Y-156150476D01*
X121729523Y-156126666D01*
X121777142Y-156102857D01*
X121848571Y-156102857D01*
X121896190Y-156126666D01*
X121920000Y-156150476D01*
X121943809Y-156198095D01*
X121943809Y-156340952D01*
X121920000Y-156388571D01*
X121896190Y-156412380D01*
X121848571Y-156436190D01*
X121777142Y-156436190D01*
X122229523Y-156436190D02*
X122181904Y-156412380D01*
X122158095Y-156388571D01*
X122134285Y-156340952D01*
X122134285Y-156198095D01*
X122158095Y-156150476D01*
X122181904Y-156126666D01*
X122229523Y-156102857D01*
X122300952Y-156102857D01*
X122348571Y-156126666D01*
X122372380Y-156150476D01*
X122396190Y-156198095D01*
X122396190Y-156340952D01*
X122372380Y-156388571D01*
X122348571Y-156412380D01*
X122300952Y-156436190D01*
X122229523Y-156436190D01*
X122539047Y-156102857D02*
X122729523Y-156102857D01*
X122610476Y-155936190D02*
X122610476Y-156364761D01*
X122634285Y-156412380D01*
X122681904Y-156436190D01*
X122729523Y-156436190D01*
X123158095Y-156436190D02*
X122872380Y-156436190D01*
X123015238Y-156436190D02*
X123015238Y-155936190D01*
X122967619Y-156007619D01*
X122920000Y-156055238D01*
X122872380Y-156079047D01*
D11*
X128532380Y-175645238D02*
X127532380Y-175645238D01*
X128246666Y-175311904D01*
X127532380Y-174978571D01*
X128532380Y-174978571D01*
X128008571Y-174169047D02*
X128056190Y-174026190D01*
X128103809Y-173978571D01*
X128199047Y-173930952D01*
X128341904Y-173930952D01*
X128437142Y-173978571D01*
X128484761Y-174026190D01*
X128532380Y-174121428D01*
X128532380Y-174502380D01*
X127532380Y-174502380D01*
X127532380Y-174169047D01*
X127580000Y-174073809D01*
X127627619Y-174026190D01*
X127722857Y-173978571D01*
X127818095Y-173978571D01*
X127913333Y-174026190D01*
X127960952Y-174073809D01*
X128008571Y-174169047D01*
X128008571Y-174502380D01*
X128532380Y-172930952D02*
X128056190Y-173264285D01*
X128532380Y-173502380D02*
X127532380Y-173502380D01*
X127532380Y-173121428D01*
X127580000Y-173026190D01*
X127627619Y-172978571D01*
X127722857Y-172930952D01*
X127865714Y-172930952D01*
X127960952Y-172978571D01*
X128008571Y-173026190D01*
X128056190Y-173121428D01*
X128056190Y-173502380D01*
X127627619Y-172550000D02*
X127580000Y-172502380D01*
X127532380Y-172407142D01*
X127532380Y-172169047D01*
X127580000Y-172073809D01*
X127627619Y-172026190D01*
X127722857Y-171978571D01*
X127818095Y-171978571D01*
X127960952Y-172026190D01*
X128532380Y-172597619D01*
X128532380Y-171978571D01*
X127532380Y-171359523D02*
X127532380Y-171264285D01*
X127580000Y-171169047D01*
X127627619Y-171121428D01*
X127722857Y-171073809D01*
X127913333Y-171026190D01*
X128151428Y-171026190D01*
X128341904Y-171073809D01*
X128437142Y-171121428D01*
X128484761Y-171169047D01*
X128532380Y-171264285D01*
X128532380Y-171359523D01*
X128484761Y-171454761D01*
X128437142Y-171502380D01*
X128341904Y-171550000D01*
X128151428Y-171597619D01*
X127913333Y-171597619D01*
X127722857Y-171550000D01*
X127627619Y-171502380D01*
X127580000Y-171454761D01*
X127532380Y-171359523D01*
X127627619Y-170645238D02*
X127580000Y-170597619D01*
X127532380Y-170502380D01*
X127532380Y-170264285D01*
X127580000Y-170169047D01*
X127627619Y-170121428D01*
X127722857Y-170073809D01*
X127818095Y-170073809D01*
X127960952Y-170121428D01*
X128532380Y-170692857D01*
X128532380Y-170073809D01*
X127532380Y-169454761D02*
X127532380Y-169359523D01*
X127580000Y-169264285D01*
X127627619Y-169216666D01*
X127722857Y-169169047D01*
X127913333Y-169121428D01*
X128151428Y-169121428D01*
X128341904Y-169169047D01*
X128437142Y-169216666D01*
X128484761Y-169264285D01*
X128532380Y-169359523D01*
X128532380Y-169454761D01*
X128484761Y-169550000D01*
X128437142Y-169597619D01*
X128341904Y-169645238D01*
X128151428Y-169692857D01*
X127913333Y-169692857D01*
X127722857Y-169645238D01*
X127627619Y-169597619D01*
X127580000Y-169550000D01*
X127532380Y-169454761D01*
X127532380Y-168502380D02*
X127532380Y-168407142D01*
X127580000Y-168311904D01*
X127627619Y-168264285D01*
X127722857Y-168216666D01*
X127913333Y-168169047D01*
X128151428Y-168169047D01*
X128341904Y-168216666D01*
X128437142Y-168264285D01*
X128484761Y-168311904D01*
X128532380Y-168407142D01*
X128532380Y-168502380D01*
X128484761Y-168597619D01*
X128437142Y-168645238D01*
X128341904Y-168692857D01*
X128151428Y-168740476D01*
X127913333Y-168740476D01*
X127722857Y-168692857D01*
X127627619Y-168645238D01*
X127580000Y-168597619D01*
X127532380Y-168502380D01*
X128437142Y-167169047D02*
X128484761Y-167216666D01*
X128532380Y-167359523D01*
X128532380Y-167454761D01*
X128484761Y-167597619D01*
X128389523Y-167692857D01*
X128294285Y-167740476D01*
X128103809Y-167788095D01*
X127960952Y-167788095D01*
X127770476Y-167740476D01*
X127675238Y-167692857D01*
X127580000Y-167597619D01*
X127532380Y-167454761D01*
X127532380Y-167359523D01*
X127580000Y-167216666D01*
X127627619Y-167169047D01*
X127532380Y-166883333D02*
X127532380Y-166311904D01*
X128532380Y-166597619D02*
X127532380Y-166597619D01*
X127580000Y-165454761D02*
X127532380Y-165550000D01*
X127532380Y-165692857D01*
X127580000Y-165835714D01*
X127675238Y-165930952D01*
X127770476Y-165978571D01*
X127960952Y-166026190D01*
X128103809Y-166026190D01*
X128294285Y-165978571D01*
X128389523Y-165930952D01*
X128484761Y-165835714D01*
X128532380Y-165692857D01*
X128532380Y-165597619D01*
X128484761Y-165454761D01*
X128437142Y-165407142D01*
X128103809Y-165407142D01*
X128103809Y-165597619D01*
X151652380Y-171288095D02*
X150652380Y-171288095D01*
X150652380Y-171050000D01*
X150700000Y-170907142D01*
X150795238Y-170811904D01*
X150890476Y-170764285D01*
X151080952Y-170716666D01*
X151223809Y-170716666D01*
X151414285Y-170764285D01*
X151509523Y-170811904D01*
X151604761Y-170907142D01*
X151652380Y-171050000D01*
X151652380Y-171288095D01*
X151652380Y-169764285D02*
X151652380Y-170335714D01*
X151652380Y-170050000D02*
X150652380Y-170050000D01*
X150795238Y-170145238D01*
X150890476Y-170240476D01*
X150938095Y-170335714D01*
M02*
