G04 #@! TF.GenerationSoftware,KiCad,Pcbnew,5.1.4-e60b266~84~ubuntu18.04.1*
G04 #@! TF.CreationDate,2019-10-29T18:19:43-03:00*
G04 #@! TF.ProjectId,fonte_18V,666f6e74-655f-4313-9856-2e6b69636164,rev?*
G04 #@! TF.SameCoordinates,Original*
G04 #@! TF.FileFunction,Legend,Bot*
G04 #@! TF.FilePolarity,Positive*
%FSLAX46Y46*%
G04 Gerber Fmt 4.6, Leading zero omitted, Abs format (unit mm)*
G04 Created by KiCad (PCBNEW 5.1.4-e60b266~84~ubuntu18.04.1) date 2019-10-29 18:19:43*
%MOMM*%
%LPD*%
G04 APERTURE LIST*
%ADD10C,0.120000*%
%ADD11C,0.150000*%
G04 APERTURE END LIST*
D10*
X111090000Y-180011252D02*
X111090000Y-179488748D01*
X112510000Y-180011252D02*
X112510000Y-179488748D01*
X128345000Y-159123748D02*
X128345000Y-159646252D01*
X126925000Y-159123748D02*
X126925000Y-159646252D01*
X128195000Y-164091252D02*
X128195000Y-163568748D01*
X129615000Y-164091252D02*
X129615000Y-163568748D01*
X115495000Y-165996252D02*
X115495000Y-165473748D01*
X116915000Y-165996252D02*
X116915000Y-165473748D01*
X113105000Y-165473748D02*
X113105000Y-165996252D01*
X111685000Y-165473748D02*
X111685000Y-165996252D01*
X116260000Y-178270000D02*
X114800000Y-178270000D01*
X116260000Y-181430000D02*
X114100000Y-181430000D01*
X116260000Y-181430000D02*
X116260000Y-180500000D01*
X116260000Y-178270000D02*
X116260000Y-179200000D01*
X148075000Y-160978748D02*
X148075000Y-161501252D01*
X146655000Y-160978748D02*
X146655000Y-161501252D01*
X151885000Y-160978748D02*
X151885000Y-161501252D01*
X150465000Y-160978748D02*
X150465000Y-161501252D01*
X111200000Y-174998748D02*
X111200000Y-175521252D01*
X109780000Y-174998748D02*
X109780000Y-175521252D01*
X113740000Y-174998748D02*
X113740000Y-175521252D01*
X112320000Y-174998748D02*
X112320000Y-175521252D01*
X130885000Y-159123748D02*
X130885000Y-159646252D01*
X129465000Y-159123748D02*
X129465000Y-159646252D01*
D11*
X113902380Y-179583333D02*
X113426190Y-179250000D01*
X113902380Y-179011904D02*
X112902380Y-179011904D01*
X112902380Y-179392857D01*
X112950000Y-179488095D01*
X112997619Y-179535714D01*
X113092857Y-179583333D01*
X113235714Y-179583333D01*
X113330952Y-179535714D01*
X113378571Y-179488095D01*
X113426190Y-179392857D01*
X113426190Y-179011904D01*
X113235714Y-180440476D02*
X113902380Y-180440476D01*
X112854761Y-180202380D02*
X113569047Y-179964285D01*
X113569047Y-180583333D01*
X126437380Y-158194523D02*
X125961190Y-157861190D01*
X126437380Y-157623095D02*
X125437380Y-157623095D01*
X125437380Y-158004047D01*
X125485000Y-158099285D01*
X125532619Y-158146904D01*
X125627857Y-158194523D01*
X125770714Y-158194523D01*
X125865952Y-158146904D01*
X125913571Y-158099285D01*
X125961190Y-158004047D01*
X125961190Y-157623095D01*
X125770714Y-158480238D02*
X125770714Y-158861190D01*
X126437380Y-158623095D02*
X125580238Y-158623095D01*
X125485000Y-158670714D01*
X125437380Y-158765952D01*
X125437380Y-158861190D01*
X126437380Y-159194523D02*
X125437380Y-159194523D01*
X125818333Y-159194523D02*
X125770714Y-159289761D01*
X125770714Y-159480238D01*
X125818333Y-159575476D01*
X125865952Y-159623095D01*
X125961190Y-159670714D01*
X126246904Y-159670714D01*
X126342142Y-159623095D01*
X126389761Y-159575476D01*
X126437380Y-159480238D01*
X126437380Y-159289761D01*
X126389761Y-159194523D01*
X125770714Y-159956428D02*
X125770714Y-160337380D01*
X125437380Y-160099285D02*
X126294523Y-160099285D01*
X126389761Y-160146904D01*
X126437380Y-160242142D01*
X126437380Y-160337380D01*
X125532619Y-160623095D02*
X125485000Y-160670714D01*
X125437380Y-160765952D01*
X125437380Y-161004047D01*
X125485000Y-161099285D01*
X125532619Y-161146904D01*
X125627857Y-161194523D01*
X125723095Y-161194523D01*
X125865952Y-161146904D01*
X126437380Y-160575476D01*
X126437380Y-161194523D01*
X131007380Y-162472857D02*
X130531190Y-162139523D01*
X131007380Y-161901428D02*
X130007380Y-161901428D01*
X130007380Y-162282380D01*
X130055000Y-162377619D01*
X130102619Y-162425238D01*
X130197857Y-162472857D01*
X130340714Y-162472857D01*
X130435952Y-162425238D01*
X130483571Y-162377619D01*
X130531190Y-162282380D01*
X130531190Y-161901428D01*
X130340714Y-162758571D02*
X130340714Y-163139523D01*
X131007380Y-162901428D02*
X130150238Y-162901428D01*
X130055000Y-162949047D01*
X130007380Y-163044285D01*
X130007380Y-163139523D01*
X131007380Y-163472857D02*
X130007380Y-163472857D01*
X130388333Y-163472857D02*
X130340714Y-163568095D01*
X130340714Y-163758571D01*
X130388333Y-163853809D01*
X130435952Y-163901428D01*
X130531190Y-163949047D01*
X130816904Y-163949047D01*
X130912142Y-163901428D01*
X130959761Y-163853809D01*
X131007380Y-163758571D01*
X131007380Y-163568095D01*
X130959761Y-163472857D01*
X131007380Y-164377619D02*
X130007380Y-164377619D01*
X130388333Y-164377619D02*
X130340714Y-164472857D01*
X130340714Y-164663333D01*
X130388333Y-164758571D01*
X130435952Y-164806190D01*
X130531190Y-164853809D01*
X130816904Y-164853809D01*
X130912142Y-164806190D01*
X130959761Y-164758571D01*
X131007380Y-164663333D01*
X131007380Y-164472857D01*
X130959761Y-164377619D01*
X131007380Y-165806190D02*
X131007380Y-165234761D01*
X131007380Y-165520476D02*
X130007380Y-165520476D01*
X130150238Y-165425238D01*
X130245476Y-165330000D01*
X130293095Y-165234761D01*
X118307380Y-165568333D02*
X117831190Y-165235000D01*
X118307380Y-164996904D02*
X117307380Y-164996904D01*
X117307380Y-165377857D01*
X117355000Y-165473095D01*
X117402619Y-165520714D01*
X117497857Y-165568333D01*
X117640714Y-165568333D01*
X117735952Y-165520714D01*
X117783571Y-165473095D01*
X117831190Y-165377857D01*
X117831190Y-164996904D01*
X117307380Y-166425476D02*
X117307380Y-166235000D01*
X117355000Y-166139761D01*
X117402619Y-166092142D01*
X117545476Y-165996904D01*
X117735952Y-165949285D01*
X118116904Y-165949285D01*
X118212142Y-165996904D01*
X118259761Y-166044523D01*
X118307380Y-166139761D01*
X118307380Y-166330238D01*
X118259761Y-166425476D01*
X118212142Y-166473095D01*
X118116904Y-166520714D01*
X117878809Y-166520714D01*
X117783571Y-166473095D01*
X117735952Y-166425476D01*
X117688333Y-166330238D01*
X117688333Y-166139761D01*
X117735952Y-166044523D01*
X117783571Y-165996904D01*
X117878809Y-165949285D01*
X111197380Y-165568333D02*
X110721190Y-165235000D01*
X111197380Y-164996904D02*
X110197380Y-164996904D01*
X110197380Y-165377857D01*
X110245000Y-165473095D01*
X110292619Y-165520714D01*
X110387857Y-165568333D01*
X110530714Y-165568333D01*
X110625952Y-165520714D01*
X110673571Y-165473095D01*
X110721190Y-165377857D01*
X110721190Y-164996904D01*
X110292619Y-165949285D02*
X110245000Y-165996904D01*
X110197380Y-166092142D01*
X110197380Y-166330238D01*
X110245000Y-166425476D01*
X110292619Y-166473095D01*
X110387857Y-166520714D01*
X110483095Y-166520714D01*
X110625952Y-166473095D01*
X111197380Y-165901666D01*
X111197380Y-166520714D01*
X115595238Y-182897619D02*
X115690476Y-182850000D01*
X115785714Y-182754761D01*
X115928571Y-182611904D01*
X116023809Y-182564285D01*
X116119047Y-182564285D01*
X116071428Y-182802380D02*
X116166666Y-182754761D01*
X116261904Y-182659523D01*
X116309523Y-182469047D01*
X116309523Y-182135714D01*
X116261904Y-181945238D01*
X116166666Y-181850000D01*
X116071428Y-181802380D01*
X115880952Y-181802380D01*
X115785714Y-181850000D01*
X115690476Y-181945238D01*
X115642857Y-182135714D01*
X115642857Y-182469047D01*
X115690476Y-182659523D01*
X115785714Y-182754761D01*
X115880952Y-182802380D01*
X116071428Y-182802380D01*
X114690476Y-182802380D02*
X115261904Y-182802380D01*
X114976190Y-182802380D02*
X114976190Y-181802380D01*
X115071428Y-181945238D01*
X115166666Y-182040476D01*
X115261904Y-182088095D01*
X146072142Y-160620952D02*
X146119761Y-160573333D01*
X146167380Y-160430476D01*
X146167380Y-160335238D01*
X146119761Y-160192380D01*
X146024523Y-160097142D01*
X145929285Y-160049523D01*
X145738809Y-160001904D01*
X145595952Y-160001904D01*
X145405476Y-160049523D01*
X145310238Y-160097142D01*
X145215000Y-160192380D01*
X145167380Y-160335238D01*
X145167380Y-160430476D01*
X145215000Y-160573333D01*
X145262619Y-160620952D01*
X146167380Y-161192380D02*
X146119761Y-161097142D01*
X146072142Y-161049523D01*
X145976904Y-161001904D01*
X145691190Y-161001904D01*
X145595952Y-161049523D01*
X145548333Y-161097142D01*
X145500714Y-161192380D01*
X145500714Y-161335238D01*
X145548333Y-161430476D01*
X145595952Y-161478095D01*
X145691190Y-161525714D01*
X145976904Y-161525714D01*
X146072142Y-161478095D01*
X146119761Y-161430476D01*
X146167380Y-161335238D01*
X146167380Y-161192380D01*
X145500714Y-162382857D02*
X146167380Y-162382857D01*
X145119761Y-162144761D02*
X145834047Y-161906666D01*
X145834047Y-162525714D01*
X149882142Y-160620952D02*
X149929761Y-160573333D01*
X149977380Y-160430476D01*
X149977380Y-160335238D01*
X149929761Y-160192380D01*
X149834523Y-160097142D01*
X149739285Y-160049523D01*
X149548809Y-160001904D01*
X149405952Y-160001904D01*
X149215476Y-160049523D01*
X149120238Y-160097142D01*
X149025000Y-160192380D01*
X148977380Y-160335238D01*
X148977380Y-160430476D01*
X149025000Y-160573333D01*
X149072619Y-160620952D01*
X149977380Y-161192380D02*
X149929761Y-161097142D01*
X149882142Y-161049523D01*
X149786904Y-161001904D01*
X149501190Y-161001904D01*
X149405952Y-161049523D01*
X149358333Y-161097142D01*
X149310714Y-161192380D01*
X149310714Y-161335238D01*
X149358333Y-161430476D01*
X149405952Y-161478095D01*
X149501190Y-161525714D01*
X149786904Y-161525714D01*
X149882142Y-161478095D01*
X149929761Y-161430476D01*
X149977380Y-161335238D01*
X149977380Y-161192380D01*
X148977380Y-161859047D02*
X148977380Y-162478095D01*
X149358333Y-162144761D01*
X149358333Y-162287619D01*
X149405952Y-162382857D01*
X149453571Y-162430476D01*
X149548809Y-162478095D01*
X149786904Y-162478095D01*
X149882142Y-162430476D01*
X149929761Y-162382857D01*
X149977380Y-162287619D01*
X149977380Y-162001904D01*
X149929761Y-161906666D01*
X149882142Y-161859047D01*
X109197142Y-174402857D02*
X109244761Y-174355238D01*
X109292380Y-174212380D01*
X109292380Y-174117142D01*
X109244761Y-173974285D01*
X109149523Y-173879047D01*
X109054285Y-173831428D01*
X108863809Y-173783809D01*
X108720952Y-173783809D01*
X108530476Y-173831428D01*
X108435238Y-173879047D01*
X108340000Y-173974285D01*
X108292380Y-174117142D01*
X108292380Y-174212380D01*
X108340000Y-174355238D01*
X108387619Y-174402857D01*
X109292380Y-174831428D02*
X108625714Y-174831428D01*
X108292380Y-174831428D02*
X108340000Y-174783809D01*
X108387619Y-174831428D01*
X108340000Y-174879047D01*
X108292380Y-174831428D01*
X108387619Y-174831428D01*
X108625714Y-175307619D02*
X109292380Y-175307619D01*
X108720952Y-175307619D02*
X108673333Y-175355238D01*
X108625714Y-175450476D01*
X108625714Y-175593333D01*
X108673333Y-175688571D01*
X108768571Y-175736190D01*
X109292380Y-175736190D01*
X108292380Y-176117142D02*
X108292380Y-176736190D01*
X108673333Y-176402857D01*
X108673333Y-176545714D01*
X108720952Y-176640952D01*
X108768571Y-176688571D01*
X108863809Y-176736190D01*
X109101904Y-176736190D01*
X109197142Y-176688571D01*
X109244761Y-176640952D01*
X109292380Y-176545714D01*
X109292380Y-176260000D01*
X109244761Y-176164761D01*
X109197142Y-176117142D01*
X111737142Y-174402857D02*
X111784761Y-174355238D01*
X111832380Y-174212380D01*
X111832380Y-174117142D01*
X111784761Y-173974285D01*
X111689523Y-173879047D01*
X111594285Y-173831428D01*
X111403809Y-173783809D01*
X111260952Y-173783809D01*
X111070476Y-173831428D01*
X110975238Y-173879047D01*
X110880000Y-173974285D01*
X110832380Y-174117142D01*
X110832380Y-174212380D01*
X110880000Y-174355238D01*
X110927619Y-174402857D01*
X111832380Y-174831428D02*
X111165714Y-174831428D01*
X110832380Y-174831428D02*
X110880000Y-174783809D01*
X110927619Y-174831428D01*
X110880000Y-174879047D01*
X110832380Y-174831428D01*
X110927619Y-174831428D01*
X111165714Y-175307619D02*
X111832380Y-175307619D01*
X111260952Y-175307619D02*
X111213333Y-175355238D01*
X111165714Y-175450476D01*
X111165714Y-175593333D01*
X111213333Y-175688571D01*
X111308571Y-175736190D01*
X111832380Y-175736190D01*
X110927619Y-176164761D02*
X110880000Y-176212380D01*
X110832380Y-176307619D01*
X110832380Y-176545714D01*
X110880000Y-176640952D01*
X110927619Y-176688571D01*
X111022857Y-176736190D01*
X111118095Y-176736190D01*
X111260952Y-176688571D01*
X111832380Y-176117142D01*
X111832380Y-176736190D01*
X128882142Y-158646904D02*
X128929761Y-158599285D01*
X128977380Y-158456428D01*
X128977380Y-158361190D01*
X128929761Y-158218333D01*
X128834523Y-158123095D01*
X128739285Y-158075476D01*
X128548809Y-158027857D01*
X128405952Y-158027857D01*
X128215476Y-158075476D01*
X128120238Y-158123095D01*
X128025000Y-158218333D01*
X127977380Y-158361190D01*
X127977380Y-158456428D01*
X128025000Y-158599285D01*
X128072619Y-158646904D01*
X128310714Y-158932619D02*
X128310714Y-159313571D01*
X128977380Y-159075476D02*
X128120238Y-159075476D01*
X128025000Y-159123095D01*
X127977380Y-159218333D01*
X127977380Y-159313571D01*
X128310714Y-159504047D02*
X128310714Y-159885000D01*
X128977380Y-159646904D02*
X128120238Y-159646904D01*
X128025000Y-159694523D01*
X127977380Y-159789761D01*
X127977380Y-159885000D01*
X128977380Y-160742142D02*
X128977380Y-160170714D01*
X128977380Y-160456428D02*
X127977380Y-160456428D01*
X128120238Y-160361190D01*
X128215476Y-160265952D01*
X128263095Y-160170714D01*
M02*
