G04 #@! TF.GenerationSoftware,KiCad,Pcbnew,5.1.4*
G04 #@! TF.CreationDate,2019-11-01T23:16:51-03:00*
G04 #@! TF.ProjectId,fonte_18V_panel,666f6e74-655f-4313-9856-5f70616e656c,rev?*
G04 #@! TF.SameCoordinates,Original*
G04 #@! TF.FileFunction,Other,User*
%FSLAX46Y46*%
G04 Gerber Fmt 4.6, Leading zero omitted, Abs format (unit mm)*
G04 Created by KiCad (PCBNEW 5.1.4) date 2019-11-01 23:16:51*
%MOMM*%
%LPD*%
G04 APERTURE LIST*
%ADD10C,0.050000*%
G04 APERTURE END LIST*
D10*
X214715000Y-164590000D02*
X212815000Y-164590000D01*
X212815000Y-164590000D02*
X212815000Y-168290000D01*
X212815000Y-168290000D02*
X214715000Y-168290000D01*
X214715000Y-168290000D02*
X214715000Y-164590000D01*
X104715000Y-164590000D02*
X102815000Y-164590000D01*
X102815000Y-164590000D02*
X102815000Y-168290000D01*
X102815000Y-168290000D02*
X104715000Y-168290000D01*
X104715000Y-168290000D02*
X104715000Y-164590000D01*
X214715000Y-102590000D02*
X212815000Y-102590000D01*
X212815000Y-102590000D02*
X212815000Y-106290000D01*
X212815000Y-106290000D02*
X214715000Y-106290000D01*
X214715000Y-106290000D02*
X214715000Y-102590000D01*
X104715000Y-102590000D02*
X102815000Y-102590000D01*
X102815000Y-102590000D02*
X102815000Y-106290000D01*
X102815000Y-106290000D02*
X104715000Y-106290000D01*
X104715000Y-106290000D02*
X104715000Y-102590000D01*
X214715000Y-40590000D02*
X212815000Y-40590000D01*
X212815000Y-40590000D02*
X212815000Y-44290000D01*
X212815000Y-44290000D02*
X214715000Y-44290000D01*
X214715000Y-44290000D02*
X214715000Y-40590000D01*
X180200000Y-186800000D02*
X183600000Y-186800000D01*
X183600000Y-186800000D02*
X183600000Y-183300000D01*
X183600000Y-183300000D02*
X180200000Y-183300000D01*
X180200000Y-183300000D02*
X180200000Y-186800000D01*
X70200000Y-186800000D02*
X73600000Y-186800000D01*
X73600000Y-186800000D02*
X73600000Y-183300000D01*
X73600000Y-183300000D02*
X70200000Y-183300000D01*
X70200000Y-183300000D02*
X70200000Y-186800000D01*
X180200000Y-124800000D02*
X183600000Y-124800000D01*
X183600000Y-124800000D02*
X183600000Y-121300000D01*
X183600000Y-121300000D02*
X180200000Y-121300000D01*
X180200000Y-121300000D02*
X180200000Y-124800000D01*
X70200000Y-124800000D02*
X73600000Y-124800000D01*
X73600000Y-124800000D02*
X73600000Y-121300000D01*
X73600000Y-121300000D02*
X70200000Y-121300000D01*
X70200000Y-121300000D02*
X70200000Y-124800000D01*
X180200000Y-62800000D02*
X183600000Y-62800000D01*
X183600000Y-62800000D02*
X183600000Y-59300000D01*
X183600000Y-59300000D02*
X180200000Y-59300000D01*
X180200000Y-59300000D02*
X180200000Y-62800000D01*
X218525000Y-164590000D02*
X216625000Y-164590000D01*
X216625000Y-164590000D02*
X216625000Y-168290000D01*
X216625000Y-168290000D02*
X218525000Y-168290000D01*
X218525000Y-168290000D02*
X218525000Y-164590000D01*
X108525000Y-164590000D02*
X106625000Y-164590000D01*
X106625000Y-164590000D02*
X106625000Y-168290000D01*
X106625000Y-168290000D02*
X108525000Y-168290000D01*
X108525000Y-168290000D02*
X108525000Y-164590000D01*
X218525000Y-102590000D02*
X216625000Y-102590000D01*
X216625000Y-102590000D02*
X216625000Y-106290000D01*
X216625000Y-106290000D02*
X218525000Y-106290000D01*
X218525000Y-106290000D02*
X218525000Y-102590000D01*
X108525000Y-102590000D02*
X106625000Y-102590000D01*
X106625000Y-102590000D02*
X106625000Y-106290000D01*
X106625000Y-106290000D02*
X108525000Y-106290000D01*
X108525000Y-106290000D02*
X108525000Y-102590000D01*
X218525000Y-40590000D02*
X216625000Y-40590000D01*
X216625000Y-40590000D02*
X216625000Y-44290000D01*
X216625000Y-44290000D02*
X218525000Y-44290000D01*
X218525000Y-44290000D02*
X218525000Y-40590000D01*
X181655000Y-172785000D02*
X183555000Y-172785000D01*
X183555000Y-172785000D02*
X183555000Y-169085000D01*
X183555000Y-169085000D02*
X181655000Y-169085000D01*
X181655000Y-169085000D02*
X181655000Y-172785000D01*
X71655000Y-172785000D02*
X73555000Y-172785000D01*
X73555000Y-172785000D02*
X73555000Y-169085000D01*
X73555000Y-169085000D02*
X71655000Y-169085000D01*
X71655000Y-169085000D02*
X71655000Y-172785000D01*
X181655000Y-110785000D02*
X183555000Y-110785000D01*
X183555000Y-110785000D02*
X183555000Y-107085000D01*
X183555000Y-107085000D02*
X181655000Y-107085000D01*
X181655000Y-107085000D02*
X181655000Y-110785000D01*
X71655000Y-110785000D02*
X73555000Y-110785000D01*
X73555000Y-110785000D02*
X73555000Y-107085000D01*
X73555000Y-107085000D02*
X71655000Y-107085000D01*
X71655000Y-107085000D02*
X71655000Y-110785000D01*
X181655000Y-48785000D02*
X183555000Y-48785000D01*
X183555000Y-48785000D02*
X183555000Y-45085000D01*
X183555000Y-45085000D02*
X181655000Y-45085000D01*
X181655000Y-45085000D02*
X181655000Y-48785000D01*
X197525000Y-162735000D02*
X195625000Y-162735000D01*
X195625000Y-162735000D02*
X195625000Y-166435000D01*
X195625000Y-166435000D02*
X197525000Y-166435000D01*
X197525000Y-166435000D02*
X197525000Y-162735000D01*
X87525000Y-162735000D02*
X85625000Y-162735000D01*
X85625000Y-162735000D02*
X85625000Y-166435000D01*
X85625000Y-166435000D02*
X87525000Y-166435000D01*
X87525000Y-166435000D02*
X87525000Y-162735000D01*
X197525000Y-100735000D02*
X195625000Y-100735000D01*
X195625000Y-100735000D02*
X195625000Y-104435000D01*
X195625000Y-104435000D02*
X197525000Y-104435000D01*
X197525000Y-104435000D02*
X197525000Y-100735000D01*
X87525000Y-100735000D02*
X85625000Y-100735000D01*
X85625000Y-100735000D02*
X85625000Y-104435000D01*
X85625000Y-104435000D02*
X87525000Y-104435000D01*
X87525000Y-104435000D02*
X87525000Y-100735000D01*
X197525000Y-38735000D02*
X195625000Y-38735000D01*
X195625000Y-38735000D02*
X195625000Y-42435000D01*
X195625000Y-42435000D02*
X197525000Y-42435000D01*
X197525000Y-42435000D02*
X197525000Y-38735000D01*
X180380000Y-178610000D02*
X178480000Y-178610000D01*
X178480000Y-178610000D02*
X178480000Y-182310000D01*
X178480000Y-182310000D02*
X180380000Y-182310000D01*
X180380000Y-182310000D02*
X180380000Y-178610000D01*
X70380000Y-178610000D02*
X68480000Y-178610000D01*
X68480000Y-178610000D02*
X68480000Y-182310000D01*
X68480000Y-182310000D02*
X70380000Y-182310000D01*
X70380000Y-182310000D02*
X70380000Y-178610000D01*
X180380000Y-116610000D02*
X178480000Y-116610000D01*
X178480000Y-116610000D02*
X178480000Y-120310000D01*
X178480000Y-120310000D02*
X180380000Y-120310000D01*
X180380000Y-120310000D02*
X180380000Y-116610000D01*
X70380000Y-116610000D02*
X68480000Y-116610000D01*
X68480000Y-116610000D02*
X68480000Y-120310000D01*
X68480000Y-120310000D02*
X70380000Y-120310000D01*
X70380000Y-120310000D02*
X70380000Y-116610000D01*
X180380000Y-54610000D02*
X178480000Y-54610000D01*
X178480000Y-54610000D02*
X178480000Y-58310000D01*
X178480000Y-58310000D02*
X180380000Y-58310000D01*
X180380000Y-58310000D02*
X180380000Y-54610000D01*
X194355000Y-170880000D02*
X196255000Y-170880000D01*
X196255000Y-170880000D02*
X196255000Y-167180000D01*
X196255000Y-167180000D02*
X194355000Y-167180000D01*
X194355000Y-167180000D02*
X194355000Y-170880000D01*
X84355000Y-170880000D02*
X86255000Y-170880000D01*
X86255000Y-170880000D02*
X86255000Y-167180000D01*
X86255000Y-167180000D02*
X84355000Y-167180000D01*
X84355000Y-167180000D02*
X84355000Y-170880000D01*
X194355000Y-108880000D02*
X196255000Y-108880000D01*
X196255000Y-108880000D02*
X196255000Y-105180000D01*
X196255000Y-105180000D02*
X194355000Y-105180000D01*
X194355000Y-105180000D02*
X194355000Y-108880000D01*
X84355000Y-108880000D02*
X86255000Y-108880000D01*
X86255000Y-108880000D02*
X86255000Y-105180000D01*
X86255000Y-105180000D02*
X84355000Y-105180000D01*
X84355000Y-105180000D02*
X84355000Y-108880000D01*
X194355000Y-46880000D02*
X196255000Y-46880000D01*
X196255000Y-46880000D02*
X196255000Y-43180000D01*
X196255000Y-43180000D02*
X194355000Y-43180000D01*
X194355000Y-43180000D02*
X194355000Y-46880000D01*
X177840000Y-178610000D02*
X175940000Y-178610000D01*
X175940000Y-178610000D02*
X175940000Y-182310000D01*
X175940000Y-182310000D02*
X177840000Y-182310000D01*
X177840000Y-182310000D02*
X177840000Y-178610000D01*
X67840000Y-178610000D02*
X65940000Y-178610000D01*
X65940000Y-178610000D02*
X65940000Y-182310000D01*
X65940000Y-182310000D02*
X67840000Y-182310000D01*
X67840000Y-182310000D02*
X67840000Y-178610000D01*
X177840000Y-116610000D02*
X175940000Y-116610000D01*
X175940000Y-116610000D02*
X175940000Y-120310000D01*
X175940000Y-120310000D02*
X177840000Y-120310000D01*
X177840000Y-120310000D02*
X177840000Y-116610000D01*
X67840000Y-116610000D02*
X65940000Y-116610000D01*
X65940000Y-116610000D02*
X65940000Y-120310000D01*
X65940000Y-120310000D02*
X67840000Y-120310000D01*
X67840000Y-120310000D02*
X67840000Y-116610000D01*
X177840000Y-54610000D02*
X175940000Y-54610000D01*
X175940000Y-54610000D02*
X175940000Y-58310000D01*
X175940000Y-58310000D02*
X177840000Y-58310000D01*
X177840000Y-58310000D02*
X177840000Y-54610000D01*
X194985000Y-162735000D02*
X193085000Y-162735000D01*
X193085000Y-162735000D02*
X193085000Y-166435000D01*
X193085000Y-166435000D02*
X194985000Y-166435000D01*
X194985000Y-166435000D02*
X194985000Y-162735000D01*
X84985000Y-162735000D02*
X83085000Y-162735000D01*
X83085000Y-162735000D02*
X83085000Y-166435000D01*
X83085000Y-166435000D02*
X84985000Y-166435000D01*
X84985000Y-166435000D02*
X84985000Y-162735000D01*
X194985000Y-100735000D02*
X193085000Y-100735000D01*
X193085000Y-100735000D02*
X193085000Y-104435000D01*
X193085000Y-104435000D02*
X194985000Y-104435000D01*
X194985000Y-104435000D02*
X194985000Y-100735000D01*
X84985000Y-100735000D02*
X83085000Y-100735000D01*
X83085000Y-100735000D02*
X83085000Y-104435000D01*
X83085000Y-104435000D02*
X84985000Y-104435000D01*
X84985000Y-104435000D02*
X84985000Y-100735000D01*
X194985000Y-38735000D02*
X193085000Y-38735000D01*
X193085000Y-38735000D02*
X193085000Y-42435000D01*
X193085000Y-42435000D02*
X194985000Y-42435000D01*
X194985000Y-42435000D02*
X194985000Y-38735000D01*
X179745000Y-169085000D02*
X177845000Y-169085000D01*
X177845000Y-169085000D02*
X177845000Y-172785000D01*
X177845000Y-172785000D02*
X179745000Y-172785000D01*
X179745000Y-172785000D02*
X179745000Y-169085000D01*
X69745000Y-169085000D02*
X67845000Y-169085000D01*
X67845000Y-169085000D02*
X67845000Y-172785000D01*
X67845000Y-172785000D02*
X69745000Y-172785000D01*
X69745000Y-172785000D02*
X69745000Y-169085000D01*
X179745000Y-107085000D02*
X177845000Y-107085000D01*
X177845000Y-107085000D02*
X177845000Y-110785000D01*
X177845000Y-110785000D02*
X179745000Y-110785000D01*
X179745000Y-110785000D02*
X179745000Y-107085000D01*
X69745000Y-107085000D02*
X67845000Y-107085000D01*
X67845000Y-107085000D02*
X67845000Y-110785000D01*
X67845000Y-110785000D02*
X69745000Y-110785000D01*
X69745000Y-110785000D02*
X69745000Y-107085000D01*
X179745000Y-45085000D02*
X177845000Y-45085000D01*
X177845000Y-45085000D02*
X177845000Y-48785000D01*
X177845000Y-48785000D02*
X179745000Y-48785000D01*
X179745000Y-48785000D02*
X179745000Y-45085000D01*
X177250000Y-186800000D02*
X179150000Y-186800000D01*
X179150000Y-186800000D02*
X179150000Y-183100000D01*
X179150000Y-183100000D02*
X177250000Y-183100000D01*
X177250000Y-183100000D02*
X177250000Y-186800000D01*
X67250000Y-186800000D02*
X69150000Y-186800000D01*
X69150000Y-186800000D02*
X69150000Y-183100000D01*
X69150000Y-183100000D02*
X67250000Y-183100000D01*
X67250000Y-183100000D02*
X67250000Y-186800000D01*
X177250000Y-124800000D02*
X179150000Y-124800000D01*
X179150000Y-124800000D02*
X179150000Y-121100000D01*
X179150000Y-121100000D02*
X177250000Y-121100000D01*
X177250000Y-121100000D02*
X177250000Y-124800000D01*
X67250000Y-124800000D02*
X69150000Y-124800000D01*
X69150000Y-124800000D02*
X69150000Y-121100000D01*
X69150000Y-121100000D02*
X67250000Y-121100000D01*
X67250000Y-121100000D02*
X67250000Y-124800000D01*
X177250000Y-62800000D02*
X179150000Y-62800000D01*
X179150000Y-62800000D02*
X179150000Y-59100000D01*
X179150000Y-59100000D02*
X177250000Y-59100000D01*
X177250000Y-59100000D02*
X177250000Y-62800000D01*
X67250000Y-59100000D02*
X67250000Y-62800000D01*
X69150000Y-59100000D02*
X67250000Y-59100000D01*
X69150000Y-62800000D02*
X69150000Y-59100000D01*
X67250000Y-62800000D02*
X69150000Y-62800000D01*
X84985000Y-42435000D02*
X84985000Y-38735000D01*
X83085000Y-42435000D02*
X84985000Y-42435000D01*
X83085000Y-38735000D02*
X83085000Y-42435000D01*
X84985000Y-38735000D02*
X83085000Y-38735000D01*
X84355000Y-43180000D02*
X84355000Y-46880000D01*
X86255000Y-43180000D02*
X84355000Y-43180000D01*
X86255000Y-46880000D02*
X86255000Y-43180000D01*
X84355000Y-46880000D02*
X86255000Y-46880000D01*
X71655000Y-45085000D02*
X71655000Y-48785000D01*
X73555000Y-45085000D02*
X71655000Y-45085000D01*
X73555000Y-48785000D02*
X73555000Y-45085000D01*
X71655000Y-48785000D02*
X73555000Y-48785000D01*
X69745000Y-48785000D02*
X69745000Y-45085000D01*
X67845000Y-48785000D02*
X69745000Y-48785000D01*
X67845000Y-45085000D02*
X67845000Y-48785000D01*
X69745000Y-45085000D02*
X67845000Y-45085000D01*
X70200000Y-59300000D02*
X70200000Y-62800000D01*
X73600000Y-59300000D02*
X70200000Y-59300000D01*
X73600000Y-62800000D02*
X73600000Y-59300000D01*
X70200000Y-62800000D02*
X73600000Y-62800000D01*
X104715000Y-44290000D02*
X104715000Y-40590000D01*
X102815000Y-44290000D02*
X104715000Y-44290000D01*
X102815000Y-40590000D02*
X102815000Y-44290000D01*
X104715000Y-40590000D02*
X102815000Y-40590000D01*
X108525000Y-44290000D02*
X108525000Y-40590000D01*
X106625000Y-44290000D02*
X108525000Y-44290000D01*
X106625000Y-40590000D02*
X106625000Y-44290000D01*
X108525000Y-40590000D02*
X106625000Y-40590000D01*
X67840000Y-58310000D02*
X67840000Y-54610000D01*
X65940000Y-58310000D02*
X67840000Y-58310000D01*
X65940000Y-54610000D02*
X65940000Y-58310000D01*
X67840000Y-54610000D02*
X65940000Y-54610000D01*
X70380000Y-58310000D02*
X70380000Y-54610000D01*
X68480000Y-58310000D02*
X70380000Y-58310000D01*
X68480000Y-54610000D02*
X68480000Y-58310000D01*
X70380000Y-54610000D02*
X68480000Y-54610000D01*
X87525000Y-42435000D02*
X87525000Y-38735000D01*
X85625000Y-42435000D02*
X87525000Y-42435000D01*
X85625000Y-38735000D02*
X85625000Y-42435000D01*
X87525000Y-38735000D02*
X85625000Y-38735000D01*
M02*
