G04 #@! TF.GenerationSoftware,KiCad,Pcbnew,5.1.4*
G04 #@! TF.CreationDate,2019-11-01T23:16:51-03:00*
G04 #@! TF.ProjectId,fonte_18V_panel,666f6e74-655f-4313-9856-5f70616e656c,rev?*
G04 #@! TF.SameCoordinates,Original*
G04 #@! TF.FileFunction,Legend,Bot*
G04 #@! TF.FilePolarity,Positive*
%FSLAX46Y46*%
G04 Gerber Fmt 4.6, Leading zero omitted, Abs format (unit mm)*
G04 Created by KiCad (PCBNEW 5.1.4) date 2019-11-01 23:16:51*
%MOMM*%
%LPD*%
G04 APERTURE LIST*
%ADD10C,0.120000*%
%ADD11C,0.150000*%
G04 APERTURE END LIST*
D10*
X213055000Y-166178748D02*
X213055000Y-166701252D01*
X214475000Y-166178748D02*
X214475000Y-166701252D01*
X103055000Y-166178748D02*
X103055000Y-166701252D01*
X104475000Y-166178748D02*
X104475000Y-166701252D01*
X213055000Y-104178748D02*
X213055000Y-104701252D01*
X214475000Y-104178748D02*
X214475000Y-104701252D01*
X103055000Y-104178748D02*
X103055000Y-104701252D01*
X104475000Y-104178748D02*
X104475000Y-104701252D01*
X213055000Y-42178748D02*
X213055000Y-42701252D01*
X214475000Y-42178748D02*
X214475000Y-42701252D01*
X182660000Y-183470000D02*
X182660000Y-184400000D01*
X182660000Y-186630000D02*
X182660000Y-185700000D01*
X182660000Y-186630000D02*
X180500000Y-186630000D01*
X182660000Y-183470000D02*
X181200000Y-183470000D01*
X72660000Y-183470000D02*
X72660000Y-184400000D01*
X72660000Y-186630000D02*
X72660000Y-185700000D01*
X72660000Y-186630000D02*
X70500000Y-186630000D01*
X72660000Y-183470000D02*
X71200000Y-183470000D01*
X182660000Y-121470000D02*
X182660000Y-122400000D01*
X182660000Y-124630000D02*
X182660000Y-123700000D01*
X182660000Y-124630000D02*
X180500000Y-124630000D01*
X182660000Y-121470000D02*
X181200000Y-121470000D01*
X72660000Y-121470000D02*
X72660000Y-122400000D01*
X72660000Y-124630000D02*
X72660000Y-123700000D01*
X72660000Y-124630000D02*
X70500000Y-124630000D01*
X72660000Y-121470000D02*
X71200000Y-121470000D01*
X182660000Y-59470000D02*
X182660000Y-60400000D01*
X182660000Y-62630000D02*
X182660000Y-61700000D01*
X182660000Y-62630000D02*
X180500000Y-62630000D01*
X182660000Y-59470000D02*
X181200000Y-59470000D01*
X216865000Y-166178748D02*
X216865000Y-166701252D01*
X218285000Y-166178748D02*
X218285000Y-166701252D01*
X106865000Y-166178748D02*
X106865000Y-166701252D01*
X108285000Y-166178748D02*
X108285000Y-166701252D01*
X216865000Y-104178748D02*
X216865000Y-104701252D01*
X218285000Y-104178748D02*
X218285000Y-104701252D01*
X106865000Y-104178748D02*
X106865000Y-104701252D01*
X108285000Y-104178748D02*
X108285000Y-104701252D01*
X216865000Y-42178748D02*
X216865000Y-42701252D01*
X218285000Y-42178748D02*
X218285000Y-42701252D01*
X183315000Y-171196252D02*
X183315000Y-170673748D01*
X181895000Y-171196252D02*
X181895000Y-170673748D01*
X73315000Y-171196252D02*
X73315000Y-170673748D01*
X71895000Y-171196252D02*
X71895000Y-170673748D01*
X183315000Y-109196252D02*
X183315000Y-108673748D01*
X181895000Y-109196252D02*
X181895000Y-108673748D01*
X73315000Y-109196252D02*
X73315000Y-108673748D01*
X71895000Y-109196252D02*
X71895000Y-108673748D01*
X183315000Y-47196252D02*
X183315000Y-46673748D01*
X181895000Y-47196252D02*
X181895000Y-46673748D01*
X195865000Y-164323748D02*
X195865000Y-164846252D01*
X197285000Y-164323748D02*
X197285000Y-164846252D01*
X85865000Y-164323748D02*
X85865000Y-164846252D01*
X87285000Y-164323748D02*
X87285000Y-164846252D01*
X195865000Y-102323748D02*
X195865000Y-102846252D01*
X197285000Y-102323748D02*
X197285000Y-102846252D01*
X85865000Y-102323748D02*
X85865000Y-102846252D01*
X87285000Y-102323748D02*
X87285000Y-102846252D01*
X195865000Y-40323748D02*
X195865000Y-40846252D01*
X197285000Y-40323748D02*
X197285000Y-40846252D01*
X178720000Y-180198748D02*
X178720000Y-180721252D01*
X180140000Y-180198748D02*
X180140000Y-180721252D01*
X68720000Y-180198748D02*
X68720000Y-180721252D01*
X70140000Y-180198748D02*
X70140000Y-180721252D01*
X178720000Y-118198748D02*
X178720000Y-118721252D01*
X180140000Y-118198748D02*
X180140000Y-118721252D01*
X68720000Y-118198748D02*
X68720000Y-118721252D01*
X70140000Y-118198748D02*
X70140000Y-118721252D01*
X178720000Y-56198748D02*
X178720000Y-56721252D01*
X180140000Y-56198748D02*
X180140000Y-56721252D01*
X196015000Y-169291252D02*
X196015000Y-168768748D01*
X194595000Y-169291252D02*
X194595000Y-168768748D01*
X86015000Y-169291252D02*
X86015000Y-168768748D01*
X84595000Y-169291252D02*
X84595000Y-168768748D01*
X196015000Y-107291252D02*
X196015000Y-106768748D01*
X194595000Y-107291252D02*
X194595000Y-106768748D01*
X86015000Y-107291252D02*
X86015000Y-106768748D01*
X84595000Y-107291252D02*
X84595000Y-106768748D01*
X196015000Y-45291252D02*
X196015000Y-44768748D01*
X194595000Y-45291252D02*
X194595000Y-44768748D01*
X176180000Y-180198748D02*
X176180000Y-180721252D01*
X177600000Y-180198748D02*
X177600000Y-180721252D01*
X66180000Y-180198748D02*
X66180000Y-180721252D01*
X67600000Y-180198748D02*
X67600000Y-180721252D01*
X176180000Y-118198748D02*
X176180000Y-118721252D01*
X177600000Y-118198748D02*
X177600000Y-118721252D01*
X66180000Y-118198748D02*
X66180000Y-118721252D01*
X67600000Y-118198748D02*
X67600000Y-118721252D01*
X176180000Y-56198748D02*
X176180000Y-56721252D01*
X177600000Y-56198748D02*
X177600000Y-56721252D01*
X193325000Y-164323748D02*
X193325000Y-164846252D01*
X194745000Y-164323748D02*
X194745000Y-164846252D01*
X83325000Y-164323748D02*
X83325000Y-164846252D01*
X84745000Y-164323748D02*
X84745000Y-164846252D01*
X193325000Y-102323748D02*
X193325000Y-102846252D01*
X194745000Y-102323748D02*
X194745000Y-102846252D01*
X83325000Y-102323748D02*
X83325000Y-102846252D01*
X84745000Y-102323748D02*
X84745000Y-102846252D01*
X193325000Y-40323748D02*
X193325000Y-40846252D01*
X194745000Y-40323748D02*
X194745000Y-40846252D01*
X178085000Y-170673748D02*
X178085000Y-171196252D01*
X179505000Y-170673748D02*
X179505000Y-171196252D01*
X68085000Y-170673748D02*
X68085000Y-171196252D01*
X69505000Y-170673748D02*
X69505000Y-171196252D01*
X178085000Y-108673748D02*
X178085000Y-109196252D01*
X179505000Y-108673748D02*
X179505000Y-109196252D01*
X68085000Y-108673748D02*
X68085000Y-109196252D01*
X69505000Y-108673748D02*
X69505000Y-109196252D01*
X178085000Y-46673748D02*
X178085000Y-47196252D01*
X179505000Y-46673748D02*
X179505000Y-47196252D01*
X178910000Y-185211252D02*
X178910000Y-184688748D01*
X177490000Y-185211252D02*
X177490000Y-184688748D01*
X68910000Y-185211252D02*
X68910000Y-184688748D01*
X67490000Y-185211252D02*
X67490000Y-184688748D01*
X178910000Y-123211252D02*
X178910000Y-122688748D01*
X177490000Y-123211252D02*
X177490000Y-122688748D01*
X68910000Y-123211252D02*
X68910000Y-122688748D01*
X67490000Y-123211252D02*
X67490000Y-122688748D01*
X178910000Y-61211252D02*
X178910000Y-60688748D01*
X177490000Y-61211252D02*
X177490000Y-60688748D01*
X67490000Y-61211252D02*
X67490000Y-60688748D01*
X68910000Y-61211252D02*
X68910000Y-60688748D01*
X84745000Y-40323748D02*
X84745000Y-40846252D01*
X83325000Y-40323748D02*
X83325000Y-40846252D01*
X84595000Y-45291252D02*
X84595000Y-44768748D01*
X86015000Y-45291252D02*
X86015000Y-44768748D01*
X71895000Y-47196252D02*
X71895000Y-46673748D01*
X73315000Y-47196252D02*
X73315000Y-46673748D01*
X69505000Y-46673748D02*
X69505000Y-47196252D01*
X68085000Y-46673748D02*
X68085000Y-47196252D01*
X72660000Y-59470000D02*
X71200000Y-59470000D01*
X72660000Y-62630000D02*
X70500000Y-62630000D01*
X72660000Y-62630000D02*
X72660000Y-61700000D01*
X72660000Y-59470000D02*
X72660000Y-60400000D01*
X104475000Y-42178748D02*
X104475000Y-42701252D01*
X103055000Y-42178748D02*
X103055000Y-42701252D01*
X108285000Y-42178748D02*
X108285000Y-42701252D01*
X106865000Y-42178748D02*
X106865000Y-42701252D01*
X67600000Y-56198748D02*
X67600000Y-56721252D01*
X66180000Y-56198748D02*
X66180000Y-56721252D01*
X70140000Y-56198748D02*
X70140000Y-56721252D01*
X68720000Y-56198748D02*
X68720000Y-56721252D01*
X87285000Y-40323748D02*
X87285000Y-40846252D01*
X85865000Y-40323748D02*
X85865000Y-40846252D01*
D11*
X212472142Y-165820952D02*
X212519761Y-165773333D01*
X212567380Y-165630476D01*
X212567380Y-165535238D01*
X212519761Y-165392380D01*
X212424523Y-165297142D01*
X212329285Y-165249523D01*
X212138809Y-165201904D01*
X211995952Y-165201904D01*
X211805476Y-165249523D01*
X211710238Y-165297142D01*
X211615000Y-165392380D01*
X211567380Y-165535238D01*
X211567380Y-165630476D01*
X211615000Y-165773333D01*
X211662619Y-165820952D01*
X212567380Y-166392380D02*
X212519761Y-166297142D01*
X212472142Y-166249523D01*
X212376904Y-166201904D01*
X212091190Y-166201904D01*
X211995952Y-166249523D01*
X211948333Y-166297142D01*
X211900714Y-166392380D01*
X211900714Y-166535238D01*
X211948333Y-166630476D01*
X211995952Y-166678095D01*
X212091190Y-166725714D01*
X212376904Y-166725714D01*
X212472142Y-166678095D01*
X212519761Y-166630476D01*
X212567380Y-166535238D01*
X212567380Y-166392380D01*
X211900714Y-167582857D02*
X212567380Y-167582857D01*
X211519761Y-167344761D02*
X212234047Y-167106666D01*
X212234047Y-167725714D01*
X102472142Y-165820952D02*
X102519761Y-165773333D01*
X102567380Y-165630476D01*
X102567380Y-165535238D01*
X102519761Y-165392380D01*
X102424523Y-165297142D01*
X102329285Y-165249523D01*
X102138809Y-165201904D01*
X101995952Y-165201904D01*
X101805476Y-165249523D01*
X101710238Y-165297142D01*
X101615000Y-165392380D01*
X101567380Y-165535238D01*
X101567380Y-165630476D01*
X101615000Y-165773333D01*
X101662619Y-165820952D01*
X102567380Y-166392380D02*
X102519761Y-166297142D01*
X102472142Y-166249523D01*
X102376904Y-166201904D01*
X102091190Y-166201904D01*
X101995952Y-166249523D01*
X101948333Y-166297142D01*
X101900714Y-166392380D01*
X101900714Y-166535238D01*
X101948333Y-166630476D01*
X101995952Y-166678095D01*
X102091190Y-166725714D01*
X102376904Y-166725714D01*
X102472142Y-166678095D01*
X102519761Y-166630476D01*
X102567380Y-166535238D01*
X102567380Y-166392380D01*
X101900714Y-167582857D02*
X102567380Y-167582857D01*
X101519761Y-167344761D02*
X102234047Y-167106666D01*
X102234047Y-167725714D01*
X212472142Y-103820952D02*
X212519761Y-103773333D01*
X212567380Y-103630476D01*
X212567380Y-103535238D01*
X212519761Y-103392380D01*
X212424523Y-103297142D01*
X212329285Y-103249523D01*
X212138809Y-103201904D01*
X211995952Y-103201904D01*
X211805476Y-103249523D01*
X211710238Y-103297142D01*
X211615000Y-103392380D01*
X211567380Y-103535238D01*
X211567380Y-103630476D01*
X211615000Y-103773333D01*
X211662619Y-103820952D01*
X212567380Y-104392380D02*
X212519761Y-104297142D01*
X212472142Y-104249523D01*
X212376904Y-104201904D01*
X212091190Y-104201904D01*
X211995952Y-104249523D01*
X211948333Y-104297142D01*
X211900714Y-104392380D01*
X211900714Y-104535238D01*
X211948333Y-104630476D01*
X211995952Y-104678095D01*
X212091190Y-104725714D01*
X212376904Y-104725714D01*
X212472142Y-104678095D01*
X212519761Y-104630476D01*
X212567380Y-104535238D01*
X212567380Y-104392380D01*
X211900714Y-105582857D02*
X212567380Y-105582857D01*
X211519761Y-105344761D02*
X212234047Y-105106666D01*
X212234047Y-105725714D01*
X102472142Y-103820952D02*
X102519761Y-103773333D01*
X102567380Y-103630476D01*
X102567380Y-103535238D01*
X102519761Y-103392380D01*
X102424523Y-103297142D01*
X102329285Y-103249523D01*
X102138809Y-103201904D01*
X101995952Y-103201904D01*
X101805476Y-103249523D01*
X101710238Y-103297142D01*
X101615000Y-103392380D01*
X101567380Y-103535238D01*
X101567380Y-103630476D01*
X101615000Y-103773333D01*
X101662619Y-103820952D01*
X102567380Y-104392380D02*
X102519761Y-104297142D01*
X102472142Y-104249523D01*
X102376904Y-104201904D01*
X102091190Y-104201904D01*
X101995952Y-104249523D01*
X101948333Y-104297142D01*
X101900714Y-104392380D01*
X101900714Y-104535238D01*
X101948333Y-104630476D01*
X101995952Y-104678095D01*
X102091190Y-104725714D01*
X102376904Y-104725714D01*
X102472142Y-104678095D01*
X102519761Y-104630476D01*
X102567380Y-104535238D01*
X102567380Y-104392380D01*
X101900714Y-105582857D02*
X102567380Y-105582857D01*
X101519761Y-105344761D02*
X102234047Y-105106666D01*
X102234047Y-105725714D01*
X212472142Y-41820952D02*
X212519761Y-41773333D01*
X212567380Y-41630476D01*
X212567380Y-41535238D01*
X212519761Y-41392380D01*
X212424523Y-41297142D01*
X212329285Y-41249523D01*
X212138809Y-41201904D01*
X211995952Y-41201904D01*
X211805476Y-41249523D01*
X211710238Y-41297142D01*
X211615000Y-41392380D01*
X211567380Y-41535238D01*
X211567380Y-41630476D01*
X211615000Y-41773333D01*
X211662619Y-41820952D01*
X212567380Y-42392380D02*
X212519761Y-42297142D01*
X212472142Y-42249523D01*
X212376904Y-42201904D01*
X212091190Y-42201904D01*
X211995952Y-42249523D01*
X211948333Y-42297142D01*
X211900714Y-42392380D01*
X211900714Y-42535238D01*
X211948333Y-42630476D01*
X211995952Y-42678095D01*
X212091190Y-42725714D01*
X212376904Y-42725714D01*
X212472142Y-42678095D01*
X212519761Y-42630476D01*
X212567380Y-42535238D01*
X212567380Y-42392380D01*
X211900714Y-43582857D02*
X212567380Y-43582857D01*
X211519761Y-43344761D02*
X212234047Y-43106666D01*
X212234047Y-43725714D01*
X181995238Y-188097619D02*
X182090476Y-188050000D01*
X182185714Y-187954761D01*
X182328571Y-187811904D01*
X182423809Y-187764285D01*
X182519047Y-187764285D01*
X182471428Y-188002380D02*
X182566666Y-187954761D01*
X182661904Y-187859523D01*
X182709523Y-187669047D01*
X182709523Y-187335714D01*
X182661904Y-187145238D01*
X182566666Y-187050000D01*
X182471428Y-187002380D01*
X182280952Y-187002380D01*
X182185714Y-187050000D01*
X182090476Y-187145238D01*
X182042857Y-187335714D01*
X182042857Y-187669047D01*
X182090476Y-187859523D01*
X182185714Y-187954761D01*
X182280952Y-188002380D01*
X182471428Y-188002380D01*
X181090476Y-188002380D02*
X181661904Y-188002380D01*
X181376190Y-188002380D02*
X181376190Y-187002380D01*
X181471428Y-187145238D01*
X181566666Y-187240476D01*
X181661904Y-187288095D01*
X71995238Y-188097619D02*
X72090476Y-188050000D01*
X72185714Y-187954761D01*
X72328571Y-187811904D01*
X72423809Y-187764285D01*
X72519047Y-187764285D01*
X72471428Y-188002380D02*
X72566666Y-187954761D01*
X72661904Y-187859523D01*
X72709523Y-187669047D01*
X72709523Y-187335714D01*
X72661904Y-187145238D01*
X72566666Y-187050000D01*
X72471428Y-187002380D01*
X72280952Y-187002380D01*
X72185714Y-187050000D01*
X72090476Y-187145238D01*
X72042857Y-187335714D01*
X72042857Y-187669047D01*
X72090476Y-187859523D01*
X72185714Y-187954761D01*
X72280952Y-188002380D01*
X72471428Y-188002380D01*
X71090476Y-188002380D02*
X71661904Y-188002380D01*
X71376190Y-188002380D02*
X71376190Y-187002380D01*
X71471428Y-187145238D01*
X71566666Y-187240476D01*
X71661904Y-187288095D01*
X181995238Y-126097619D02*
X182090476Y-126050000D01*
X182185714Y-125954761D01*
X182328571Y-125811904D01*
X182423809Y-125764285D01*
X182519047Y-125764285D01*
X182471428Y-126002380D02*
X182566666Y-125954761D01*
X182661904Y-125859523D01*
X182709523Y-125669047D01*
X182709523Y-125335714D01*
X182661904Y-125145238D01*
X182566666Y-125050000D01*
X182471428Y-125002380D01*
X182280952Y-125002380D01*
X182185714Y-125050000D01*
X182090476Y-125145238D01*
X182042857Y-125335714D01*
X182042857Y-125669047D01*
X182090476Y-125859523D01*
X182185714Y-125954761D01*
X182280952Y-126002380D01*
X182471428Y-126002380D01*
X181090476Y-126002380D02*
X181661904Y-126002380D01*
X181376190Y-126002380D02*
X181376190Y-125002380D01*
X181471428Y-125145238D01*
X181566666Y-125240476D01*
X181661904Y-125288095D01*
X71995238Y-126097619D02*
X72090476Y-126050000D01*
X72185714Y-125954761D01*
X72328571Y-125811904D01*
X72423809Y-125764285D01*
X72519047Y-125764285D01*
X72471428Y-126002380D02*
X72566666Y-125954761D01*
X72661904Y-125859523D01*
X72709523Y-125669047D01*
X72709523Y-125335714D01*
X72661904Y-125145238D01*
X72566666Y-125050000D01*
X72471428Y-125002380D01*
X72280952Y-125002380D01*
X72185714Y-125050000D01*
X72090476Y-125145238D01*
X72042857Y-125335714D01*
X72042857Y-125669047D01*
X72090476Y-125859523D01*
X72185714Y-125954761D01*
X72280952Y-126002380D01*
X72471428Y-126002380D01*
X71090476Y-126002380D02*
X71661904Y-126002380D01*
X71376190Y-126002380D02*
X71376190Y-125002380D01*
X71471428Y-125145238D01*
X71566666Y-125240476D01*
X71661904Y-125288095D01*
X181995238Y-64097619D02*
X182090476Y-64050000D01*
X182185714Y-63954761D01*
X182328571Y-63811904D01*
X182423809Y-63764285D01*
X182519047Y-63764285D01*
X182471428Y-64002380D02*
X182566666Y-63954761D01*
X182661904Y-63859523D01*
X182709523Y-63669047D01*
X182709523Y-63335714D01*
X182661904Y-63145238D01*
X182566666Y-63050000D01*
X182471428Y-63002380D01*
X182280952Y-63002380D01*
X182185714Y-63050000D01*
X182090476Y-63145238D01*
X182042857Y-63335714D01*
X182042857Y-63669047D01*
X182090476Y-63859523D01*
X182185714Y-63954761D01*
X182280952Y-64002380D01*
X182471428Y-64002380D01*
X181090476Y-64002380D02*
X181661904Y-64002380D01*
X181376190Y-64002380D02*
X181376190Y-63002380D01*
X181471428Y-63145238D01*
X181566666Y-63240476D01*
X181661904Y-63288095D01*
X216282142Y-165820952D02*
X216329761Y-165773333D01*
X216377380Y-165630476D01*
X216377380Y-165535238D01*
X216329761Y-165392380D01*
X216234523Y-165297142D01*
X216139285Y-165249523D01*
X215948809Y-165201904D01*
X215805952Y-165201904D01*
X215615476Y-165249523D01*
X215520238Y-165297142D01*
X215425000Y-165392380D01*
X215377380Y-165535238D01*
X215377380Y-165630476D01*
X215425000Y-165773333D01*
X215472619Y-165820952D01*
X216377380Y-166392380D02*
X216329761Y-166297142D01*
X216282142Y-166249523D01*
X216186904Y-166201904D01*
X215901190Y-166201904D01*
X215805952Y-166249523D01*
X215758333Y-166297142D01*
X215710714Y-166392380D01*
X215710714Y-166535238D01*
X215758333Y-166630476D01*
X215805952Y-166678095D01*
X215901190Y-166725714D01*
X216186904Y-166725714D01*
X216282142Y-166678095D01*
X216329761Y-166630476D01*
X216377380Y-166535238D01*
X216377380Y-166392380D01*
X215377380Y-167059047D02*
X215377380Y-167678095D01*
X215758333Y-167344761D01*
X215758333Y-167487619D01*
X215805952Y-167582857D01*
X215853571Y-167630476D01*
X215948809Y-167678095D01*
X216186904Y-167678095D01*
X216282142Y-167630476D01*
X216329761Y-167582857D01*
X216377380Y-167487619D01*
X216377380Y-167201904D01*
X216329761Y-167106666D01*
X216282142Y-167059047D01*
X106282142Y-165820952D02*
X106329761Y-165773333D01*
X106377380Y-165630476D01*
X106377380Y-165535238D01*
X106329761Y-165392380D01*
X106234523Y-165297142D01*
X106139285Y-165249523D01*
X105948809Y-165201904D01*
X105805952Y-165201904D01*
X105615476Y-165249523D01*
X105520238Y-165297142D01*
X105425000Y-165392380D01*
X105377380Y-165535238D01*
X105377380Y-165630476D01*
X105425000Y-165773333D01*
X105472619Y-165820952D01*
X106377380Y-166392380D02*
X106329761Y-166297142D01*
X106282142Y-166249523D01*
X106186904Y-166201904D01*
X105901190Y-166201904D01*
X105805952Y-166249523D01*
X105758333Y-166297142D01*
X105710714Y-166392380D01*
X105710714Y-166535238D01*
X105758333Y-166630476D01*
X105805952Y-166678095D01*
X105901190Y-166725714D01*
X106186904Y-166725714D01*
X106282142Y-166678095D01*
X106329761Y-166630476D01*
X106377380Y-166535238D01*
X106377380Y-166392380D01*
X105377380Y-167059047D02*
X105377380Y-167678095D01*
X105758333Y-167344761D01*
X105758333Y-167487619D01*
X105805952Y-167582857D01*
X105853571Y-167630476D01*
X105948809Y-167678095D01*
X106186904Y-167678095D01*
X106282142Y-167630476D01*
X106329761Y-167582857D01*
X106377380Y-167487619D01*
X106377380Y-167201904D01*
X106329761Y-167106666D01*
X106282142Y-167059047D01*
X216282142Y-103820952D02*
X216329761Y-103773333D01*
X216377380Y-103630476D01*
X216377380Y-103535238D01*
X216329761Y-103392380D01*
X216234523Y-103297142D01*
X216139285Y-103249523D01*
X215948809Y-103201904D01*
X215805952Y-103201904D01*
X215615476Y-103249523D01*
X215520238Y-103297142D01*
X215425000Y-103392380D01*
X215377380Y-103535238D01*
X215377380Y-103630476D01*
X215425000Y-103773333D01*
X215472619Y-103820952D01*
X216377380Y-104392380D02*
X216329761Y-104297142D01*
X216282142Y-104249523D01*
X216186904Y-104201904D01*
X215901190Y-104201904D01*
X215805952Y-104249523D01*
X215758333Y-104297142D01*
X215710714Y-104392380D01*
X215710714Y-104535238D01*
X215758333Y-104630476D01*
X215805952Y-104678095D01*
X215901190Y-104725714D01*
X216186904Y-104725714D01*
X216282142Y-104678095D01*
X216329761Y-104630476D01*
X216377380Y-104535238D01*
X216377380Y-104392380D01*
X215377380Y-105059047D02*
X215377380Y-105678095D01*
X215758333Y-105344761D01*
X215758333Y-105487619D01*
X215805952Y-105582857D01*
X215853571Y-105630476D01*
X215948809Y-105678095D01*
X216186904Y-105678095D01*
X216282142Y-105630476D01*
X216329761Y-105582857D01*
X216377380Y-105487619D01*
X216377380Y-105201904D01*
X216329761Y-105106666D01*
X216282142Y-105059047D01*
X106282142Y-103820952D02*
X106329761Y-103773333D01*
X106377380Y-103630476D01*
X106377380Y-103535238D01*
X106329761Y-103392380D01*
X106234523Y-103297142D01*
X106139285Y-103249523D01*
X105948809Y-103201904D01*
X105805952Y-103201904D01*
X105615476Y-103249523D01*
X105520238Y-103297142D01*
X105425000Y-103392380D01*
X105377380Y-103535238D01*
X105377380Y-103630476D01*
X105425000Y-103773333D01*
X105472619Y-103820952D01*
X106377380Y-104392380D02*
X106329761Y-104297142D01*
X106282142Y-104249523D01*
X106186904Y-104201904D01*
X105901190Y-104201904D01*
X105805952Y-104249523D01*
X105758333Y-104297142D01*
X105710714Y-104392380D01*
X105710714Y-104535238D01*
X105758333Y-104630476D01*
X105805952Y-104678095D01*
X105901190Y-104725714D01*
X106186904Y-104725714D01*
X106282142Y-104678095D01*
X106329761Y-104630476D01*
X106377380Y-104535238D01*
X106377380Y-104392380D01*
X105377380Y-105059047D02*
X105377380Y-105678095D01*
X105758333Y-105344761D01*
X105758333Y-105487619D01*
X105805952Y-105582857D01*
X105853571Y-105630476D01*
X105948809Y-105678095D01*
X106186904Y-105678095D01*
X106282142Y-105630476D01*
X106329761Y-105582857D01*
X106377380Y-105487619D01*
X106377380Y-105201904D01*
X106329761Y-105106666D01*
X106282142Y-105059047D01*
X216282142Y-41820952D02*
X216329761Y-41773333D01*
X216377380Y-41630476D01*
X216377380Y-41535238D01*
X216329761Y-41392380D01*
X216234523Y-41297142D01*
X216139285Y-41249523D01*
X215948809Y-41201904D01*
X215805952Y-41201904D01*
X215615476Y-41249523D01*
X215520238Y-41297142D01*
X215425000Y-41392380D01*
X215377380Y-41535238D01*
X215377380Y-41630476D01*
X215425000Y-41773333D01*
X215472619Y-41820952D01*
X216377380Y-42392380D02*
X216329761Y-42297142D01*
X216282142Y-42249523D01*
X216186904Y-42201904D01*
X215901190Y-42201904D01*
X215805952Y-42249523D01*
X215758333Y-42297142D01*
X215710714Y-42392380D01*
X215710714Y-42535238D01*
X215758333Y-42630476D01*
X215805952Y-42678095D01*
X215901190Y-42725714D01*
X216186904Y-42725714D01*
X216282142Y-42678095D01*
X216329761Y-42630476D01*
X216377380Y-42535238D01*
X216377380Y-42392380D01*
X215377380Y-43059047D02*
X215377380Y-43678095D01*
X215758333Y-43344761D01*
X215758333Y-43487619D01*
X215805952Y-43582857D01*
X215853571Y-43630476D01*
X215948809Y-43678095D01*
X216186904Y-43678095D01*
X216282142Y-43630476D01*
X216329761Y-43582857D01*
X216377380Y-43487619D01*
X216377380Y-43201904D01*
X216329761Y-43106666D01*
X216282142Y-43059047D01*
X184707380Y-170768333D02*
X184231190Y-170435000D01*
X184707380Y-170196904D02*
X183707380Y-170196904D01*
X183707380Y-170577857D01*
X183755000Y-170673095D01*
X183802619Y-170720714D01*
X183897857Y-170768333D01*
X184040714Y-170768333D01*
X184135952Y-170720714D01*
X184183571Y-170673095D01*
X184231190Y-170577857D01*
X184231190Y-170196904D01*
X183707380Y-171625476D02*
X183707380Y-171435000D01*
X183755000Y-171339761D01*
X183802619Y-171292142D01*
X183945476Y-171196904D01*
X184135952Y-171149285D01*
X184516904Y-171149285D01*
X184612142Y-171196904D01*
X184659761Y-171244523D01*
X184707380Y-171339761D01*
X184707380Y-171530238D01*
X184659761Y-171625476D01*
X184612142Y-171673095D01*
X184516904Y-171720714D01*
X184278809Y-171720714D01*
X184183571Y-171673095D01*
X184135952Y-171625476D01*
X184088333Y-171530238D01*
X184088333Y-171339761D01*
X184135952Y-171244523D01*
X184183571Y-171196904D01*
X184278809Y-171149285D01*
X74707380Y-170768333D02*
X74231190Y-170435000D01*
X74707380Y-170196904D02*
X73707380Y-170196904D01*
X73707380Y-170577857D01*
X73755000Y-170673095D01*
X73802619Y-170720714D01*
X73897857Y-170768333D01*
X74040714Y-170768333D01*
X74135952Y-170720714D01*
X74183571Y-170673095D01*
X74231190Y-170577857D01*
X74231190Y-170196904D01*
X73707380Y-171625476D02*
X73707380Y-171435000D01*
X73755000Y-171339761D01*
X73802619Y-171292142D01*
X73945476Y-171196904D01*
X74135952Y-171149285D01*
X74516904Y-171149285D01*
X74612142Y-171196904D01*
X74659761Y-171244523D01*
X74707380Y-171339761D01*
X74707380Y-171530238D01*
X74659761Y-171625476D01*
X74612142Y-171673095D01*
X74516904Y-171720714D01*
X74278809Y-171720714D01*
X74183571Y-171673095D01*
X74135952Y-171625476D01*
X74088333Y-171530238D01*
X74088333Y-171339761D01*
X74135952Y-171244523D01*
X74183571Y-171196904D01*
X74278809Y-171149285D01*
X184707380Y-108768333D02*
X184231190Y-108435000D01*
X184707380Y-108196904D02*
X183707380Y-108196904D01*
X183707380Y-108577857D01*
X183755000Y-108673095D01*
X183802619Y-108720714D01*
X183897857Y-108768333D01*
X184040714Y-108768333D01*
X184135952Y-108720714D01*
X184183571Y-108673095D01*
X184231190Y-108577857D01*
X184231190Y-108196904D01*
X183707380Y-109625476D02*
X183707380Y-109435000D01*
X183755000Y-109339761D01*
X183802619Y-109292142D01*
X183945476Y-109196904D01*
X184135952Y-109149285D01*
X184516904Y-109149285D01*
X184612142Y-109196904D01*
X184659761Y-109244523D01*
X184707380Y-109339761D01*
X184707380Y-109530238D01*
X184659761Y-109625476D01*
X184612142Y-109673095D01*
X184516904Y-109720714D01*
X184278809Y-109720714D01*
X184183571Y-109673095D01*
X184135952Y-109625476D01*
X184088333Y-109530238D01*
X184088333Y-109339761D01*
X184135952Y-109244523D01*
X184183571Y-109196904D01*
X184278809Y-109149285D01*
X74707380Y-108768333D02*
X74231190Y-108435000D01*
X74707380Y-108196904D02*
X73707380Y-108196904D01*
X73707380Y-108577857D01*
X73755000Y-108673095D01*
X73802619Y-108720714D01*
X73897857Y-108768333D01*
X74040714Y-108768333D01*
X74135952Y-108720714D01*
X74183571Y-108673095D01*
X74231190Y-108577857D01*
X74231190Y-108196904D01*
X73707380Y-109625476D02*
X73707380Y-109435000D01*
X73755000Y-109339761D01*
X73802619Y-109292142D01*
X73945476Y-109196904D01*
X74135952Y-109149285D01*
X74516904Y-109149285D01*
X74612142Y-109196904D01*
X74659761Y-109244523D01*
X74707380Y-109339761D01*
X74707380Y-109530238D01*
X74659761Y-109625476D01*
X74612142Y-109673095D01*
X74516904Y-109720714D01*
X74278809Y-109720714D01*
X74183571Y-109673095D01*
X74135952Y-109625476D01*
X74088333Y-109530238D01*
X74088333Y-109339761D01*
X74135952Y-109244523D01*
X74183571Y-109196904D01*
X74278809Y-109149285D01*
X184707380Y-46768333D02*
X184231190Y-46435000D01*
X184707380Y-46196904D02*
X183707380Y-46196904D01*
X183707380Y-46577857D01*
X183755000Y-46673095D01*
X183802619Y-46720714D01*
X183897857Y-46768333D01*
X184040714Y-46768333D01*
X184135952Y-46720714D01*
X184183571Y-46673095D01*
X184231190Y-46577857D01*
X184231190Y-46196904D01*
X183707380Y-47625476D02*
X183707380Y-47435000D01*
X183755000Y-47339761D01*
X183802619Y-47292142D01*
X183945476Y-47196904D01*
X184135952Y-47149285D01*
X184516904Y-47149285D01*
X184612142Y-47196904D01*
X184659761Y-47244523D01*
X184707380Y-47339761D01*
X184707380Y-47530238D01*
X184659761Y-47625476D01*
X184612142Y-47673095D01*
X184516904Y-47720714D01*
X184278809Y-47720714D01*
X184183571Y-47673095D01*
X184135952Y-47625476D01*
X184088333Y-47530238D01*
X184088333Y-47339761D01*
X184135952Y-47244523D01*
X184183571Y-47196904D01*
X184278809Y-47149285D01*
X195282142Y-163846904D02*
X195329761Y-163799285D01*
X195377380Y-163656428D01*
X195377380Y-163561190D01*
X195329761Y-163418333D01*
X195234523Y-163323095D01*
X195139285Y-163275476D01*
X194948809Y-163227857D01*
X194805952Y-163227857D01*
X194615476Y-163275476D01*
X194520238Y-163323095D01*
X194425000Y-163418333D01*
X194377380Y-163561190D01*
X194377380Y-163656428D01*
X194425000Y-163799285D01*
X194472619Y-163846904D01*
X194710714Y-164132619D02*
X194710714Y-164513571D01*
X195377380Y-164275476D02*
X194520238Y-164275476D01*
X194425000Y-164323095D01*
X194377380Y-164418333D01*
X194377380Y-164513571D01*
X194710714Y-164704047D02*
X194710714Y-165085000D01*
X195377380Y-164846904D02*
X194520238Y-164846904D01*
X194425000Y-164894523D01*
X194377380Y-164989761D01*
X194377380Y-165085000D01*
X195377380Y-165942142D02*
X195377380Y-165370714D01*
X195377380Y-165656428D02*
X194377380Y-165656428D01*
X194520238Y-165561190D01*
X194615476Y-165465952D01*
X194663095Y-165370714D01*
X85282142Y-163846904D02*
X85329761Y-163799285D01*
X85377380Y-163656428D01*
X85377380Y-163561190D01*
X85329761Y-163418333D01*
X85234523Y-163323095D01*
X85139285Y-163275476D01*
X84948809Y-163227857D01*
X84805952Y-163227857D01*
X84615476Y-163275476D01*
X84520238Y-163323095D01*
X84425000Y-163418333D01*
X84377380Y-163561190D01*
X84377380Y-163656428D01*
X84425000Y-163799285D01*
X84472619Y-163846904D01*
X84710714Y-164132619D02*
X84710714Y-164513571D01*
X85377380Y-164275476D02*
X84520238Y-164275476D01*
X84425000Y-164323095D01*
X84377380Y-164418333D01*
X84377380Y-164513571D01*
X84710714Y-164704047D02*
X84710714Y-165085000D01*
X85377380Y-164846904D02*
X84520238Y-164846904D01*
X84425000Y-164894523D01*
X84377380Y-164989761D01*
X84377380Y-165085000D01*
X85377380Y-165942142D02*
X85377380Y-165370714D01*
X85377380Y-165656428D02*
X84377380Y-165656428D01*
X84520238Y-165561190D01*
X84615476Y-165465952D01*
X84663095Y-165370714D01*
X195282142Y-101846904D02*
X195329761Y-101799285D01*
X195377380Y-101656428D01*
X195377380Y-101561190D01*
X195329761Y-101418333D01*
X195234523Y-101323095D01*
X195139285Y-101275476D01*
X194948809Y-101227857D01*
X194805952Y-101227857D01*
X194615476Y-101275476D01*
X194520238Y-101323095D01*
X194425000Y-101418333D01*
X194377380Y-101561190D01*
X194377380Y-101656428D01*
X194425000Y-101799285D01*
X194472619Y-101846904D01*
X194710714Y-102132619D02*
X194710714Y-102513571D01*
X195377380Y-102275476D02*
X194520238Y-102275476D01*
X194425000Y-102323095D01*
X194377380Y-102418333D01*
X194377380Y-102513571D01*
X194710714Y-102704047D02*
X194710714Y-103085000D01*
X195377380Y-102846904D02*
X194520238Y-102846904D01*
X194425000Y-102894523D01*
X194377380Y-102989761D01*
X194377380Y-103085000D01*
X195377380Y-103942142D02*
X195377380Y-103370714D01*
X195377380Y-103656428D02*
X194377380Y-103656428D01*
X194520238Y-103561190D01*
X194615476Y-103465952D01*
X194663095Y-103370714D01*
X85282142Y-101846904D02*
X85329761Y-101799285D01*
X85377380Y-101656428D01*
X85377380Y-101561190D01*
X85329761Y-101418333D01*
X85234523Y-101323095D01*
X85139285Y-101275476D01*
X84948809Y-101227857D01*
X84805952Y-101227857D01*
X84615476Y-101275476D01*
X84520238Y-101323095D01*
X84425000Y-101418333D01*
X84377380Y-101561190D01*
X84377380Y-101656428D01*
X84425000Y-101799285D01*
X84472619Y-101846904D01*
X84710714Y-102132619D02*
X84710714Y-102513571D01*
X85377380Y-102275476D02*
X84520238Y-102275476D01*
X84425000Y-102323095D01*
X84377380Y-102418333D01*
X84377380Y-102513571D01*
X84710714Y-102704047D02*
X84710714Y-103085000D01*
X85377380Y-102846904D02*
X84520238Y-102846904D01*
X84425000Y-102894523D01*
X84377380Y-102989761D01*
X84377380Y-103085000D01*
X85377380Y-103942142D02*
X85377380Y-103370714D01*
X85377380Y-103656428D02*
X84377380Y-103656428D01*
X84520238Y-103561190D01*
X84615476Y-103465952D01*
X84663095Y-103370714D01*
X195282142Y-39846904D02*
X195329761Y-39799285D01*
X195377380Y-39656428D01*
X195377380Y-39561190D01*
X195329761Y-39418333D01*
X195234523Y-39323095D01*
X195139285Y-39275476D01*
X194948809Y-39227857D01*
X194805952Y-39227857D01*
X194615476Y-39275476D01*
X194520238Y-39323095D01*
X194425000Y-39418333D01*
X194377380Y-39561190D01*
X194377380Y-39656428D01*
X194425000Y-39799285D01*
X194472619Y-39846904D01*
X194710714Y-40132619D02*
X194710714Y-40513571D01*
X195377380Y-40275476D02*
X194520238Y-40275476D01*
X194425000Y-40323095D01*
X194377380Y-40418333D01*
X194377380Y-40513571D01*
X194710714Y-40704047D02*
X194710714Y-41085000D01*
X195377380Y-40846904D02*
X194520238Y-40846904D01*
X194425000Y-40894523D01*
X194377380Y-40989761D01*
X194377380Y-41085000D01*
X195377380Y-41942142D02*
X195377380Y-41370714D01*
X195377380Y-41656428D02*
X194377380Y-41656428D01*
X194520238Y-41561190D01*
X194615476Y-41465952D01*
X194663095Y-41370714D01*
X178137142Y-179602857D02*
X178184761Y-179555238D01*
X178232380Y-179412380D01*
X178232380Y-179317142D01*
X178184761Y-179174285D01*
X178089523Y-179079047D01*
X177994285Y-179031428D01*
X177803809Y-178983809D01*
X177660952Y-178983809D01*
X177470476Y-179031428D01*
X177375238Y-179079047D01*
X177280000Y-179174285D01*
X177232380Y-179317142D01*
X177232380Y-179412380D01*
X177280000Y-179555238D01*
X177327619Y-179602857D01*
X178232380Y-180031428D02*
X177565714Y-180031428D01*
X177232380Y-180031428D02*
X177280000Y-179983809D01*
X177327619Y-180031428D01*
X177280000Y-180079047D01*
X177232380Y-180031428D01*
X177327619Y-180031428D01*
X177565714Y-180507619D02*
X178232380Y-180507619D01*
X177660952Y-180507619D02*
X177613333Y-180555238D01*
X177565714Y-180650476D01*
X177565714Y-180793333D01*
X177613333Y-180888571D01*
X177708571Y-180936190D01*
X178232380Y-180936190D01*
X177327619Y-181364761D02*
X177280000Y-181412380D01*
X177232380Y-181507619D01*
X177232380Y-181745714D01*
X177280000Y-181840952D01*
X177327619Y-181888571D01*
X177422857Y-181936190D01*
X177518095Y-181936190D01*
X177660952Y-181888571D01*
X178232380Y-181317142D01*
X178232380Y-181936190D01*
X68137142Y-179602857D02*
X68184761Y-179555238D01*
X68232380Y-179412380D01*
X68232380Y-179317142D01*
X68184761Y-179174285D01*
X68089523Y-179079047D01*
X67994285Y-179031428D01*
X67803809Y-178983809D01*
X67660952Y-178983809D01*
X67470476Y-179031428D01*
X67375238Y-179079047D01*
X67280000Y-179174285D01*
X67232380Y-179317142D01*
X67232380Y-179412380D01*
X67280000Y-179555238D01*
X67327619Y-179602857D01*
X68232380Y-180031428D02*
X67565714Y-180031428D01*
X67232380Y-180031428D02*
X67280000Y-179983809D01*
X67327619Y-180031428D01*
X67280000Y-180079047D01*
X67232380Y-180031428D01*
X67327619Y-180031428D01*
X67565714Y-180507619D02*
X68232380Y-180507619D01*
X67660952Y-180507619D02*
X67613333Y-180555238D01*
X67565714Y-180650476D01*
X67565714Y-180793333D01*
X67613333Y-180888571D01*
X67708571Y-180936190D01*
X68232380Y-180936190D01*
X67327619Y-181364761D02*
X67280000Y-181412380D01*
X67232380Y-181507619D01*
X67232380Y-181745714D01*
X67280000Y-181840952D01*
X67327619Y-181888571D01*
X67422857Y-181936190D01*
X67518095Y-181936190D01*
X67660952Y-181888571D01*
X68232380Y-181317142D01*
X68232380Y-181936190D01*
X178137142Y-117602857D02*
X178184761Y-117555238D01*
X178232380Y-117412380D01*
X178232380Y-117317142D01*
X178184761Y-117174285D01*
X178089523Y-117079047D01*
X177994285Y-117031428D01*
X177803809Y-116983809D01*
X177660952Y-116983809D01*
X177470476Y-117031428D01*
X177375238Y-117079047D01*
X177280000Y-117174285D01*
X177232380Y-117317142D01*
X177232380Y-117412380D01*
X177280000Y-117555238D01*
X177327619Y-117602857D01*
X178232380Y-118031428D02*
X177565714Y-118031428D01*
X177232380Y-118031428D02*
X177280000Y-117983809D01*
X177327619Y-118031428D01*
X177280000Y-118079047D01*
X177232380Y-118031428D01*
X177327619Y-118031428D01*
X177565714Y-118507619D02*
X178232380Y-118507619D01*
X177660952Y-118507619D02*
X177613333Y-118555238D01*
X177565714Y-118650476D01*
X177565714Y-118793333D01*
X177613333Y-118888571D01*
X177708571Y-118936190D01*
X178232380Y-118936190D01*
X177327619Y-119364761D02*
X177280000Y-119412380D01*
X177232380Y-119507619D01*
X177232380Y-119745714D01*
X177280000Y-119840952D01*
X177327619Y-119888571D01*
X177422857Y-119936190D01*
X177518095Y-119936190D01*
X177660952Y-119888571D01*
X178232380Y-119317142D01*
X178232380Y-119936190D01*
X68137142Y-117602857D02*
X68184761Y-117555238D01*
X68232380Y-117412380D01*
X68232380Y-117317142D01*
X68184761Y-117174285D01*
X68089523Y-117079047D01*
X67994285Y-117031428D01*
X67803809Y-116983809D01*
X67660952Y-116983809D01*
X67470476Y-117031428D01*
X67375238Y-117079047D01*
X67280000Y-117174285D01*
X67232380Y-117317142D01*
X67232380Y-117412380D01*
X67280000Y-117555238D01*
X67327619Y-117602857D01*
X68232380Y-118031428D02*
X67565714Y-118031428D01*
X67232380Y-118031428D02*
X67280000Y-117983809D01*
X67327619Y-118031428D01*
X67280000Y-118079047D01*
X67232380Y-118031428D01*
X67327619Y-118031428D01*
X67565714Y-118507619D02*
X68232380Y-118507619D01*
X67660952Y-118507619D02*
X67613333Y-118555238D01*
X67565714Y-118650476D01*
X67565714Y-118793333D01*
X67613333Y-118888571D01*
X67708571Y-118936190D01*
X68232380Y-118936190D01*
X67327619Y-119364761D02*
X67280000Y-119412380D01*
X67232380Y-119507619D01*
X67232380Y-119745714D01*
X67280000Y-119840952D01*
X67327619Y-119888571D01*
X67422857Y-119936190D01*
X67518095Y-119936190D01*
X67660952Y-119888571D01*
X68232380Y-119317142D01*
X68232380Y-119936190D01*
X178137142Y-55602857D02*
X178184761Y-55555238D01*
X178232380Y-55412380D01*
X178232380Y-55317142D01*
X178184761Y-55174285D01*
X178089523Y-55079047D01*
X177994285Y-55031428D01*
X177803809Y-54983809D01*
X177660952Y-54983809D01*
X177470476Y-55031428D01*
X177375238Y-55079047D01*
X177280000Y-55174285D01*
X177232380Y-55317142D01*
X177232380Y-55412380D01*
X177280000Y-55555238D01*
X177327619Y-55602857D01*
X178232380Y-56031428D02*
X177565714Y-56031428D01*
X177232380Y-56031428D02*
X177280000Y-55983809D01*
X177327619Y-56031428D01*
X177280000Y-56079047D01*
X177232380Y-56031428D01*
X177327619Y-56031428D01*
X177565714Y-56507619D02*
X178232380Y-56507619D01*
X177660952Y-56507619D02*
X177613333Y-56555238D01*
X177565714Y-56650476D01*
X177565714Y-56793333D01*
X177613333Y-56888571D01*
X177708571Y-56936190D01*
X178232380Y-56936190D01*
X177327619Y-57364761D02*
X177280000Y-57412380D01*
X177232380Y-57507619D01*
X177232380Y-57745714D01*
X177280000Y-57840952D01*
X177327619Y-57888571D01*
X177422857Y-57936190D01*
X177518095Y-57936190D01*
X177660952Y-57888571D01*
X178232380Y-57317142D01*
X178232380Y-57936190D01*
X197407380Y-167672857D02*
X196931190Y-167339523D01*
X197407380Y-167101428D02*
X196407380Y-167101428D01*
X196407380Y-167482380D01*
X196455000Y-167577619D01*
X196502619Y-167625238D01*
X196597857Y-167672857D01*
X196740714Y-167672857D01*
X196835952Y-167625238D01*
X196883571Y-167577619D01*
X196931190Y-167482380D01*
X196931190Y-167101428D01*
X196740714Y-167958571D02*
X196740714Y-168339523D01*
X197407380Y-168101428D02*
X196550238Y-168101428D01*
X196455000Y-168149047D01*
X196407380Y-168244285D01*
X196407380Y-168339523D01*
X197407380Y-168672857D02*
X196407380Y-168672857D01*
X196788333Y-168672857D02*
X196740714Y-168768095D01*
X196740714Y-168958571D01*
X196788333Y-169053809D01*
X196835952Y-169101428D01*
X196931190Y-169149047D01*
X197216904Y-169149047D01*
X197312142Y-169101428D01*
X197359761Y-169053809D01*
X197407380Y-168958571D01*
X197407380Y-168768095D01*
X197359761Y-168672857D01*
X197407380Y-169577619D02*
X196407380Y-169577619D01*
X196788333Y-169577619D02*
X196740714Y-169672857D01*
X196740714Y-169863333D01*
X196788333Y-169958571D01*
X196835952Y-170006190D01*
X196931190Y-170053809D01*
X197216904Y-170053809D01*
X197312142Y-170006190D01*
X197359761Y-169958571D01*
X197407380Y-169863333D01*
X197407380Y-169672857D01*
X197359761Y-169577619D01*
X197407380Y-171006190D02*
X197407380Y-170434761D01*
X197407380Y-170720476D02*
X196407380Y-170720476D01*
X196550238Y-170625238D01*
X196645476Y-170530000D01*
X196693095Y-170434761D01*
X87407380Y-167672857D02*
X86931190Y-167339523D01*
X87407380Y-167101428D02*
X86407380Y-167101428D01*
X86407380Y-167482380D01*
X86455000Y-167577619D01*
X86502619Y-167625238D01*
X86597857Y-167672857D01*
X86740714Y-167672857D01*
X86835952Y-167625238D01*
X86883571Y-167577619D01*
X86931190Y-167482380D01*
X86931190Y-167101428D01*
X86740714Y-167958571D02*
X86740714Y-168339523D01*
X87407380Y-168101428D02*
X86550238Y-168101428D01*
X86455000Y-168149047D01*
X86407380Y-168244285D01*
X86407380Y-168339523D01*
X87407380Y-168672857D02*
X86407380Y-168672857D01*
X86788333Y-168672857D02*
X86740714Y-168768095D01*
X86740714Y-168958571D01*
X86788333Y-169053809D01*
X86835952Y-169101428D01*
X86931190Y-169149047D01*
X87216904Y-169149047D01*
X87312142Y-169101428D01*
X87359761Y-169053809D01*
X87407380Y-168958571D01*
X87407380Y-168768095D01*
X87359761Y-168672857D01*
X87407380Y-169577619D02*
X86407380Y-169577619D01*
X86788333Y-169577619D02*
X86740714Y-169672857D01*
X86740714Y-169863333D01*
X86788333Y-169958571D01*
X86835952Y-170006190D01*
X86931190Y-170053809D01*
X87216904Y-170053809D01*
X87312142Y-170006190D01*
X87359761Y-169958571D01*
X87407380Y-169863333D01*
X87407380Y-169672857D01*
X87359761Y-169577619D01*
X87407380Y-171006190D02*
X87407380Y-170434761D01*
X87407380Y-170720476D02*
X86407380Y-170720476D01*
X86550238Y-170625238D01*
X86645476Y-170530000D01*
X86693095Y-170434761D01*
X197407380Y-105672857D02*
X196931190Y-105339523D01*
X197407380Y-105101428D02*
X196407380Y-105101428D01*
X196407380Y-105482380D01*
X196455000Y-105577619D01*
X196502619Y-105625238D01*
X196597857Y-105672857D01*
X196740714Y-105672857D01*
X196835952Y-105625238D01*
X196883571Y-105577619D01*
X196931190Y-105482380D01*
X196931190Y-105101428D01*
X196740714Y-105958571D02*
X196740714Y-106339523D01*
X197407380Y-106101428D02*
X196550238Y-106101428D01*
X196455000Y-106149047D01*
X196407380Y-106244285D01*
X196407380Y-106339523D01*
X197407380Y-106672857D02*
X196407380Y-106672857D01*
X196788333Y-106672857D02*
X196740714Y-106768095D01*
X196740714Y-106958571D01*
X196788333Y-107053809D01*
X196835952Y-107101428D01*
X196931190Y-107149047D01*
X197216904Y-107149047D01*
X197312142Y-107101428D01*
X197359761Y-107053809D01*
X197407380Y-106958571D01*
X197407380Y-106768095D01*
X197359761Y-106672857D01*
X197407380Y-107577619D02*
X196407380Y-107577619D01*
X196788333Y-107577619D02*
X196740714Y-107672857D01*
X196740714Y-107863333D01*
X196788333Y-107958571D01*
X196835952Y-108006190D01*
X196931190Y-108053809D01*
X197216904Y-108053809D01*
X197312142Y-108006190D01*
X197359761Y-107958571D01*
X197407380Y-107863333D01*
X197407380Y-107672857D01*
X197359761Y-107577619D01*
X197407380Y-109006190D02*
X197407380Y-108434761D01*
X197407380Y-108720476D02*
X196407380Y-108720476D01*
X196550238Y-108625238D01*
X196645476Y-108530000D01*
X196693095Y-108434761D01*
X87407380Y-105672857D02*
X86931190Y-105339523D01*
X87407380Y-105101428D02*
X86407380Y-105101428D01*
X86407380Y-105482380D01*
X86455000Y-105577619D01*
X86502619Y-105625238D01*
X86597857Y-105672857D01*
X86740714Y-105672857D01*
X86835952Y-105625238D01*
X86883571Y-105577619D01*
X86931190Y-105482380D01*
X86931190Y-105101428D01*
X86740714Y-105958571D02*
X86740714Y-106339523D01*
X87407380Y-106101428D02*
X86550238Y-106101428D01*
X86455000Y-106149047D01*
X86407380Y-106244285D01*
X86407380Y-106339523D01*
X87407380Y-106672857D02*
X86407380Y-106672857D01*
X86788333Y-106672857D02*
X86740714Y-106768095D01*
X86740714Y-106958571D01*
X86788333Y-107053809D01*
X86835952Y-107101428D01*
X86931190Y-107149047D01*
X87216904Y-107149047D01*
X87312142Y-107101428D01*
X87359761Y-107053809D01*
X87407380Y-106958571D01*
X87407380Y-106768095D01*
X87359761Y-106672857D01*
X87407380Y-107577619D02*
X86407380Y-107577619D01*
X86788333Y-107577619D02*
X86740714Y-107672857D01*
X86740714Y-107863333D01*
X86788333Y-107958571D01*
X86835952Y-108006190D01*
X86931190Y-108053809D01*
X87216904Y-108053809D01*
X87312142Y-108006190D01*
X87359761Y-107958571D01*
X87407380Y-107863333D01*
X87407380Y-107672857D01*
X87359761Y-107577619D01*
X87407380Y-109006190D02*
X87407380Y-108434761D01*
X87407380Y-108720476D02*
X86407380Y-108720476D01*
X86550238Y-108625238D01*
X86645476Y-108530000D01*
X86693095Y-108434761D01*
X197407380Y-43672857D02*
X196931190Y-43339523D01*
X197407380Y-43101428D02*
X196407380Y-43101428D01*
X196407380Y-43482380D01*
X196455000Y-43577619D01*
X196502619Y-43625238D01*
X196597857Y-43672857D01*
X196740714Y-43672857D01*
X196835952Y-43625238D01*
X196883571Y-43577619D01*
X196931190Y-43482380D01*
X196931190Y-43101428D01*
X196740714Y-43958571D02*
X196740714Y-44339523D01*
X197407380Y-44101428D02*
X196550238Y-44101428D01*
X196455000Y-44149047D01*
X196407380Y-44244285D01*
X196407380Y-44339523D01*
X197407380Y-44672857D02*
X196407380Y-44672857D01*
X196788333Y-44672857D02*
X196740714Y-44768095D01*
X196740714Y-44958571D01*
X196788333Y-45053809D01*
X196835952Y-45101428D01*
X196931190Y-45149047D01*
X197216904Y-45149047D01*
X197312142Y-45101428D01*
X197359761Y-45053809D01*
X197407380Y-44958571D01*
X197407380Y-44768095D01*
X197359761Y-44672857D01*
X197407380Y-45577619D02*
X196407380Y-45577619D01*
X196788333Y-45577619D02*
X196740714Y-45672857D01*
X196740714Y-45863333D01*
X196788333Y-45958571D01*
X196835952Y-46006190D01*
X196931190Y-46053809D01*
X197216904Y-46053809D01*
X197312142Y-46006190D01*
X197359761Y-45958571D01*
X197407380Y-45863333D01*
X197407380Y-45672857D01*
X197359761Y-45577619D01*
X197407380Y-47006190D02*
X197407380Y-46434761D01*
X197407380Y-46720476D02*
X196407380Y-46720476D01*
X196550238Y-46625238D01*
X196645476Y-46530000D01*
X196693095Y-46434761D01*
X175597142Y-179602857D02*
X175644761Y-179555238D01*
X175692380Y-179412380D01*
X175692380Y-179317142D01*
X175644761Y-179174285D01*
X175549523Y-179079047D01*
X175454285Y-179031428D01*
X175263809Y-178983809D01*
X175120952Y-178983809D01*
X174930476Y-179031428D01*
X174835238Y-179079047D01*
X174740000Y-179174285D01*
X174692380Y-179317142D01*
X174692380Y-179412380D01*
X174740000Y-179555238D01*
X174787619Y-179602857D01*
X175692380Y-180031428D02*
X175025714Y-180031428D01*
X174692380Y-180031428D02*
X174740000Y-179983809D01*
X174787619Y-180031428D01*
X174740000Y-180079047D01*
X174692380Y-180031428D01*
X174787619Y-180031428D01*
X175025714Y-180507619D02*
X175692380Y-180507619D01*
X175120952Y-180507619D02*
X175073333Y-180555238D01*
X175025714Y-180650476D01*
X175025714Y-180793333D01*
X175073333Y-180888571D01*
X175168571Y-180936190D01*
X175692380Y-180936190D01*
X174692380Y-181317142D02*
X174692380Y-181936190D01*
X175073333Y-181602857D01*
X175073333Y-181745714D01*
X175120952Y-181840952D01*
X175168571Y-181888571D01*
X175263809Y-181936190D01*
X175501904Y-181936190D01*
X175597142Y-181888571D01*
X175644761Y-181840952D01*
X175692380Y-181745714D01*
X175692380Y-181460000D01*
X175644761Y-181364761D01*
X175597142Y-181317142D01*
X65597142Y-179602857D02*
X65644761Y-179555238D01*
X65692380Y-179412380D01*
X65692380Y-179317142D01*
X65644761Y-179174285D01*
X65549523Y-179079047D01*
X65454285Y-179031428D01*
X65263809Y-178983809D01*
X65120952Y-178983809D01*
X64930476Y-179031428D01*
X64835238Y-179079047D01*
X64740000Y-179174285D01*
X64692380Y-179317142D01*
X64692380Y-179412380D01*
X64740000Y-179555238D01*
X64787619Y-179602857D01*
X65692380Y-180031428D02*
X65025714Y-180031428D01*
X64692380Y-180031428D02*
X64740000Y-179983809D01*
X64787619Y-180031428D01*
X64740000Y-180079047D01*
X64692380Y-180031428D01*
X64787619Y-180031428D01*
X65025714Y-180507619D02*
X65692380Y-180507619D01*
X65120952Y-180507619D02*
X65073333Y-180555238D01*
X65025714Y-180650476D01*
X65025714Y-180793333D01*
X65073333Y-180888571D01*
X65168571Y-180936190D01*
X65692380Y-180936190D01*
X64692380Y-181317142D02*
X64692380Y-181936190D01*
X65073333Y-181602857D01*
X65073333Y-181745714D01*
X65120952Y-181840952D01*
X65168571Y-181888571D01*
X65263809Y-181936190D01*
X65501904Y-181936190D01*
X65597142Y-181888571D01*
X65644761Y-181840952D01*
X65692380Y-181745714D01*
X65692380Y-181460000D01*
X65644761Y-181364761D01*
X65597142Y-181317142D01*
X175597142Y-117602857D02*
X175644761Y-117555238D01*
X175692380Y-117412380D01*
X175692380Y-117317142D01*
X175644761Y-117174285D01*
X175549523Y-117079047D01*
X175454285Y-117031428D01*
X175263809Y-116983809D01*
X175120952Y-116983809D01*
X174930476Y-117031428D01*
X174835238Y-117079047D01*
X174740000Y-117174285D01*
X174692380Y-117317142D01*
X174692380Y-117412380D01*
X174740000Y-117555238D01*
X174787619Y-117602857D01*
X175692380Y-118031428D02*
X175025714Y-118031428D01*
X174692380Y-118031428D02*
X174740000Y-117983809D01*
X174787619Y-118031428D01*
X174740000Y-118079047D01*
X174692380Y-118031428D01*
X174787619Y-118031428D01*
X175025714Y-118507619D02*
X175692380Y-118507619D01*
X175120952Y-118507619D02*
X175073333Y-118555238D01*
X175025714Y-118650476D01*
X175025714Y-118793333D01*
X175073333Y-118888571D01*
X175168571Y-118936190D01*
X175692380Y-118936190D01*
X174692380Y-119317142D02*
X174692380Y-119936190D01*
X175073333Y-119602857D01*
X175073333Y-119745714D01*
X175120952Y-119840952D01*
X175168571Y-119888571D01*
X175263809Y-119936190D01*
X175501904Y-119936190D01*
X175597142Y-119888571D01*
X175644761Y-119840952D01*
X175692380Y-119745714D01*
X175692380Y-119460000D01*
X175644761Y-119364761D01*
X175597142Y-119317142D01*
X65597142Y-117602857D02*
X65644761Y-117555238D01*
X65692380Y-117412380D01*
X65692380Y-117317142D01*
X65644761Y-117174285D01*
X65549523Y-117079047D01*
X65454285Y-117031428D01*
X65263809Y-116983809D01*
X65120952Y-116983809D01*
X64930476Y-117031428D01*
X64835238Y-117079047D01*
X64740000Y-117174285D01*
X64692380Y-117317142D01*
X64692380Y-117412380D01*
X64740000Y-117555238D01*
X64787619Y-117602857D01*
X65692380Y-118031428D02*
X65025714Y-118031428D01*
X64692380Y-118031428D02*
X64740000Y-117983809D01*
X64787619Y-118031428D01*
X64740000Y-118079047D01*
X64692380Y-118031428D01*
X64787619Y-118031428D01*
X65025714Y-118507619D02*
X65692380Y-118507619D01*
X65120952Y-118507619D02*
X65073333Y-118555238D01*
X65025714Y-118650476D01*
X65025714Y-118793333D01*
X65073333Y-118888571D01*
X65168571Y-118936190D01*
X65692380Y-118936190D01*
X64692380Y-119317142D02*
X64692380Y-119936190D01*
X65073333Y-119602857D01*
X65073333Y-119745714D01*
X65120952Y-119840952D01*
X65168571Y-119888571D01*
X65263809Y-119936190D01*
X65501904Y-119936190D01*
X65597142Y-119888571D01*
X65644761Y-119840952D01*
X65692380Y-119745714D01*
X65692380Y-119460000D01*
X65644761Y-119364761D01*
X65597142Y-119317142D01*
X175597142Y-55602857D02*
X175644761Y-55555238D01*
X175692380Y-55412380D01*
X175692380Y-55317142D01*
X175644761Y-55174285D01*
X175549523Y-55079047D01*
X175454285Y-55031428D01*
X175263809Y-54983809D01*
X175120952Y-54983809D01*
X174930476Y-55031428D01*
X174835238Y-55079047D01*
X174740000Y-55174285D01*
X174692380Y-55317142D01*
X174692380Y-55412380D01*
X174740000Y-55555238D01*
X174787619Y-55602857D01*
X175692380Y-56031428D02*
X175025714Y-56031428D01*
X174692380Y-56031428D02*
X174740000Y-55983809D01*
X174787619Y-56031428D01*
X174740000Y-56079047D01*
X174692380Y-56031428D01*
X174787619Y-56031428D01*
X175025714Y-56507619D02*
X175692380Y-56507619D01*
X175120952Y-56507619D02*
X175073333Y-56555238D01*
X175025714Y-56650476D01*
X175025714Y-56793333D01*
X175073333Y-56888571D01*
X175168571Y-56936190D01*
X175692380Y-56936190D01*
X174692380Y-57317142D02*
X174692380Y-57936190D01*
X175073333Y-57602857D01*
X175073333Y-57745714D01*
X175120952Y-57840952D01*
X175168571Y-57888571D01*
X175263809Y-57936190D01*
X175501904Y-57936190D01*
X175597142Y-57888571D01*
X175644761Y-57840952D01*
X175692380Y-57745714D01*
X175692380Y-57460000D01*
X175644761Y-57364761D01*
X175597142Y-57317142D01*
X192837380Y-163394523D02*
X192361190Y-163061190D01*
X192837380Y-162823095D02*
X191837380Y-162823095D01*
X191837380Y-163204047D01*
X191885000Y-163299285D01*
X191932619Y-163346904D01*
X192027857Y-163394523D01*
X192170714Y-163394523D01*
X192265952Y-163346904D01*
X192313571Y-163299285D01*
X192361190Y-163204047D01*
X192361190Y-162823095D01*
X192170714Y-163680238D02*
X192170714Y-164061190D01*
X192837380Y-163823095D02*
X191980238Y-163823095D01*
X191885000Y-163870714D01*
X191837380Y-163965952D01*
X191837380Y-164061190D01*
X192837380Y-164394523D02*
X191837380Y-164394523D01*
X192218333Y-164394523D02*
X192170714Y-164489761D01*
X192170714Y-164680238D01*
X192218333Y-164775476D01*
X192265952Y-164823095D01*
X192361190Y-164870714D01*
X192646904Y-164870714D01*
X192742142Y-164823095D01*
X192789761Y-164775476D01*
X192837380Y-164680238D01*
X192837380Y-164489761D01*
X192789761Y-164394523D01*
X192170714Y-165156428D02*
X192170714Y-165537380D01*
X191837380Y-165299285D02*
X192694523Y-165299285D01*
X192789761Y-165346904D01*
X192837380Y-165442142D01*
X192837380Y-165537380D01*
X191932619Y-165823095D02*
X191885000Y-165870714D01*
X191837380Y-165965952D01*
X191837380Y-166204047D01*
X191885000Y-166299285D01*
X191932619Y-166346904D01*
X192027857Y-166394523D01*
X192123095Y-166394523D01*
X192265952Y-166346904D01*
X192837380Y-165775476D01*
X192837380Y-166394523D01*
X82837380Y-163394523D02*
X82361190Y-163061190D01*
X82837380Y-162823095D02*
X81837380Y-162823095D01*
X81837380Y-163204047D01*
X81885000Y-163299285D01*
X81932619Y-163346904D01*
X82027857Y-163394523D01*
X82170714Y-163394523D01*
X82265952Y-163346904D01*
X82313571Y-163299285D01*
X82361190Y-163204047D01*
X82361190Y-162823095D01*
X82170714Y-163680238D02*
X82170714Y-164061190D01*
X82837380Y-163823095D02*
X81980238Y-163823095D01*
X81885000Y-163870714D01*
X81837380Y-163965952D01*
X81837380Y-164061190D01*
X82837380Y-164394523D02*
X81837380Y-164394523D01*
X82218333Y-164394523D02*
X82170714Y-164489761D01*
X82170714Y-164680238D01*
X82218333Y-164775476D01*
X82265952Y-164823095D01*
X82361190Y-164870714D01*
X82646904Y-164870714D01*
X82742142Y-164823095D01*
X82789761Y-164775476D01*
X82837380Y-164680238D01*
X82837380Y-164489761D01*
X82789761Y-164394523D01*
X82170714Y-165156428D02*
X82170714Y-165537380D01*
X81837380Y-165299285D02*
X82694523Y-165299285D01*
X82789761Y-165346904D01*
X82837380Y-165442142D01*
X82837380Y-165537380D01*
X81932619Y-165823095D02*
X81885000Y-165870714D01*
X81837380Y-165965952D01*
X81837380Y-166204047D01*
X81885000Y-166299285D01*
X81932619Y-166346904D01*
X82027857Y-166394523D01*
X82123095Y-166394523D01*
X82265952Y-166346904D01*
X82837380Y-165775476D01*
X82837380Y-166394523D01*
X192837380Y-101394523D02*
X192361190Y-101061190D01*
X192837380Y-100823095D02*
X191837380Y-100823095D01*
X191837380Y-101204047D01*
X191885000Y-101299285D01*
X191932619Y-101346904D01*
X192027857Y-101394523D01*
X192170714Y-101394523D01*
X192265952Y-101346904D01*
X192313571Y-101299285D01*
X192361190Y-101204047D01*
X192361190Y-100823095D01*
X192170714Y-101680238D02*
X192170714Y-102061190D01*
X192837380Y-101823095D02*
X191980238Y-101823095D01*
X191885000Y-101870714D01*
X191837380Y-101965952D01*
X191837380Y-102061190D01*
X192837380Y-102394523D02*
X191837380Y-102394523D01*
X192218333Y-102394523D02*
X192170714Y-102489761D01*
X192170714Y-102680238D01*
X192218333Y-102775476D01*
X192265952Y-102823095D01*
X192361190Y-102870714D01*
X192646904Y-102870714D01*
X192742142Y-102823095D01*
X192789761Y-102775476D01*
X192837380Y-102680238D01*
X192837380Y-102489761D01*
X192789761Y-102394523D01*
X192170714Y-103156428D02*
X192170714Y-103537380D01*
X191837380Y-103299285D02*
X192694523Y-103299285D01*
X192789761Y-103346904D01*
X192837380Y-103442142D01*
X192837380Y-103537380D01*
X191932619Y-103823095D02*
X191885000Y-103870714D01*
X191837380Y-103965952D01*
X191837380Y-104204047D01*
X191885000Y-104299285D01*
X191932619Y-104346904D01*
X192027857Y-104394523D01*
X192123095Y-104394523D01*
X192265952Y-104346904D01*
X192837380Y-103775476D01*
X192837380Y-104394523D01*
X82837380Y-101394523D02*
X82361190Y-101061190D01*
X82837380Y-100823095D02*
X81837380Y-100823095D01*
X81837380Y-101204047D01*
X81885000Y-101299285D01*
X81932619Y-101346904D01*
X82027857Y-101394523D01*
X82170714Y-101394523D01*
X82265952Y-101346904D01*
X82313571Y-101299285D01*
X82361190Y-101204047D01*
X82361190Y-100823095D01*
X82170714Y-101680238D02*
X82170714Y-102061190D01*
X82837380Y-101823095D02*
X81980238Y-101823095D01*
X81885000Y-101870714D01*
X81837380Y-101965952D01*
X81837380Y-102061190D01*
X82837380Y-102394523D02*
X81837380Y-102394523D01*
X82218333Y-102394523D02*
X82170714Y-102489761D01*
X82170714Y-102680238D01*
X82218333Y-102775476D01*
X82265952Y-102823095D01*
X82361190Y-102870714D01*
X82646904Y-102870714D01*
X82742142Y-102823095D01*
X82789761Y-102775476D01*
X82837380Y-102680238D01*
X82837380Y-102489761D01*
X82789761Y-102394523D01*
X82170714Y-103156428D02*
X82170714Y-103537380D01*
X81837380Y-103299285D02*
X82694523Y-103299285D01*
X82789761Y-103346904D01*
X82837380Y-103442142D01*
X82837380Y-103537380D01*
X81932619Y-103823095D02*
X81885000Y-103870714D01*
X81837380Y-103965952D01*
X81837380Y-104204047D01*
X81885000Y-104299285D01*
X81932619Y-104346904D01*
X82027857Y-104394523D01*
X82123095Y-104394523D01*
X82265952Y-104346904D01*
X82837380Y-103775476D01*
X82837380Y-104394523D01*
X192837380Y-39394523D02*
X192361190Y-39061190D01*
X192837380Y-38823095D02*
X191837380Y-38823095D01*
X191837380Y-39204047D01*
X191885000Y-39299285D01*
X191932619Y-39346904D01*
X192027857Y-39394523D01*
X192170714Y-39394523D01*
X192265952Y-39346904D01*
X192313571Y-39299285D01*
X192361190Y-39204047D01*
X192361190Y-38823095D01*
X192170714Y-39680238D02*
X192170714Y-40061190D01*
X192837380Y-39823095D02*
X191980238Y-39823095D01*
X191885000Y-39870714D01*
X191837380Y-39965952D01*
X191837380Y-40061190D01*
X192837380Y-40394523D02*
X191837380Y-40394523D01*
X192218333Y-40394523D02*
X192170714Y-40489761D01*
X192170714Y-40680238D01*
X192218333Y-40775476D01*
X192265952Y-40823095D01*
X192361190Y-40870714D01*
X192646904Y-40870714D01*
X192742142Y-40823095D01*
X192789761Y-40775476D01*
X192837380Y-40680238D01*
X192837380Y-40489761D01*
X192789761Y-40394523D01*
X192170714Y-41156428D02*
X192170714Y-41537380D01*
X191837380Y-41299285D02*
X192694523Y-41299285D01*
X192789761Y-41346904D01*
X192837380Y-41442142D01*
X192837380Y-41537380D01*
X191932619Y-41823095D02*
X191885000Y-41870714D01*
X191837380Y-41965952D01*
X191837380Y-42204047D01*
X191885000Y-42299285D01*
X191932619Y-42346904D01*
X192027857Y-42394523D01*
X192123095Y-42394523D01*
X192265952Y-42346904D01*
X192837380Y-41775476D01*
X192837380Y-42394523D01*
X177597380Y-170768333D02*
X177121190Y-170435000D01*
X177597380Y-170196904D02*
X176597380Y-170196904D01*
X176597380Y-170577857D01*
X176645000Y-170673095D01*
X176692619Y-170720714D01*
X176787857Y-170768333D01*
X176930714Y-170768333D01*
X177025952Y-170720714D01*
X177073571Y-170673095D01*
X177121190Y-170577857D01*
X177121190Y-170196904D01*
X176692619Y-171149285D02*
X176645000Y-171196904D01*
X176597380Y-171292142D01*
X176597380Y-171530238D01*
X176645000Y-171625476D01*
X176692619Y-171673095D01*
X176787857Y-171720714D01*
X176883095Y-171720714D01*
X177025952Y-171673095D01*
X177597380Y-171101666D01*
X177597380Y-171720714D01*
X67597380Y-170768333D02*
X67121190Y-170435000D01*
X67597380Y-170196904D02*
X66597380Y-170196904D01*
X66597380Y-170577857D01*
X66645000Y-170673095D01*
X66692619Y-170720714D01*
X66787857Y-170768333D01*
X66930714Y-170768333D01*
X67025952Y-170720714D01*
X67073571Y-170673095D01*
X67121190Y-170577857D01*
X67121190Y-170196904D01*
X66692619Y-171149285D02*
X66645000Y-171196904D01*
X66597380Y-171292142D01*
X66597380Y-171530238D01*
X66645000Y-171625476D01*
X66692619Y-171673095D01*
X66787857Y-171720714D01*
X66883095Y-171720714D01*
X67025952Y-171673095D01*
X67597380Y-171101666D01*
X67597380Y-171720714D01*
X177597380Y-108768333D02*
X177121190Y-108435000D01*
X177597380Y-108196904D02*
X176597380Y-108196904D01*
X176597380Y-108577857D01*
X176645000Y-108673095D01*
X176692619Y-108720714D01*
X176787857Y-108768333D01*
X176930714Y-108768333D01*
X177025952Y-108720714D01*
X177073571Y-108673095D01*
X177121190Y-108577857D01*
X177121190Y-108196904D01*
X176692619Y-109149285D02*
X176645000Y-109196904D01*
X176597380Y-109292142D01*
X176597380Y-109530238D01*
X176645000Y-109625476D01*
X176692619Y-109673095D01*
X176787857Y-109720714D01*
X176883095Y-109720714D01*
X177025952Y-109673095D01*
X177597380Y-109101666D01*
X177597380Y-109720714D01*
X67597380Y-108768333D02*
X67121190Y-108435000D01*
X67597380Y-108196904D02*
X66597380Y-108196904D01*
X66597380Y-108577857D01*
X66645000Y-108673095D01*
X66692619Y-108720714D01*
X66787857Y-108768333D01*
X66930714Y-108768333D01*
X67025952Y-108720714D01*
X67073571Y-108673095D01*
X67121190Y-108577857D01*
X67121190Y-108196904D01*
X66692619Y-109149285D02*
X66645000Y-109196904D01*
X66597380Y-109292142D01*
X66597380Y-109530238D01*
X66645000Y-109625476D01*
X66692619Y-109673095D01*
X66787857Y-109720714D01*
X66883095Y-109720714D01*
X67025952Y-109673095D01*
X67597380Y-109101666D01*
X67597380Y-109720714D01*
X177597380Y-46768333D02*
X177121190Y-46435000D01*
X177597380Y-46196904D02*
X176597380Y-46196904D01*
X176597380Y-46577857D01*
X176645000Y-46673095D01*
X176692619Y-46720714D01*
X176787857Y-46768333D01*
X176930714Y-46768333D01*
X177025952Y-46720714D01*
X177073571Y-46673095D01*
X177121190Y-46577857D01*
X177121190Y-46196904D01*
X176692619Y-47149285D02*
X176645000Y-47196904D01*
X176597380Y-47292142D01*
X176597380Y-47530238D01*
X176645000Y-47625476D01*
X176692619Y-47673095D01*
X176787857Y-47720714D01*
X176883095Y-47720714D01*
X177025952Y-47673095D01*
X177597380Y-47101666D01*
X177597380Y-47720714D01*
X180302380Y-184783333D02*
X179826190Y-184450000D01*
X180302380Y-184211904D02*
X179302380Y-184211904D01*
X179302380Y-184592857D01*
X179350000Y-184688095D01*
X179397619Y-184735714D01*
X179492857Y-184783333D01*
X179635714Y-184783333D01*
X179730952Y-184735714D01*
X179778571Y-184688095D01*
X179826190Y-184592857D01*
X179826190Y-184211904D01*
X179635714Y-185640476D02*
X180302380Y-185640476D01*
X179254761Y-185402380D02*
X179969047Y-185164285D01*
X179969047Y-185783333D01*
X70302380Y-184783333D02*
X69826190Y-184450000D01*
X70302380Y-184211904D02*
X69302380Y-184211904D01*
X69302380Y-184592857D01*
X69350000Y-184688095D01*
X69397619Y-184735714D01*
X69492857Y-184783333D01*
X69635714Y-184783333D01*
X69730952Y-184735714D01*
X69778571Y-184688095D01*
X69826190Y-184592857D01*
X69826190Y-184211904D01*
X69635714Y-185640476D02*
X70302380Y-185640476D01*
X69254761Y-185402380D02*
X69969047Y-185164285D01*
X69969047Y-185783333D01*
X180302380Y-122783333D02*
X179826190Y-122450000D01*
X180302380Y-122211904D02*
X179302380Y-122211904D01*
X179302380Y-122592857D01*
X179350000Y-122688095D01*
X179397619Y-122735714D01*
X179492857Y-122783333D01*
X179635714Y-122783333D01*
X179730952Y-122735714D01*
X179778571Y-122688095D01*
X179826190Y-122592857D01*
X179826190Y-122211904D01*
X179635714Y-123640476D02*
X180302380Y-123640476D01*
X179254761Y-123402380D02*
X179969047Y-123164285D01*
X179969047Y-123783333D01*
X70302380Y-122783333D02*
X69826190Y-122450000D01*
X70302380Y-122211904D02*
X69302380Y-122211904D01*
X69302380Y-122592857D01*
X69350000Y-122688095D01*
X69397619Y-122735714D01*
X69492857Y-122783333D01*
X69635714Y-122783333D01*
X69730952Y-122735714D01*
X69778571Y-122688095D01*
X69826190Y-122592857D01*
X69826190Y-122211904D01*
X69635714Y-123640476D02*
X70302380Y-123640476D01*
X69254761Y-123402380D02*
X69969047Y-123164285D01*
X69969047Y-123783333D01*
X180302380Y-60783333D02*
X179826190Y-60450000D01*
X180302380Y-60211904D02*
X179302380Y-60211904D01*
X179302380Y-60592857D01*
X179350000Y-60688095D01*
X179397619Y-60735714D01*
X179492857Y-60783333D01*
X179635714Y-60783333D01*
X179730952Y-60735714D01*
X179778571Y-60688095D01*
X179826190Y-60592857D01*
X179826190Y-60211904D01*
X179635714Y-61640476D02*
X180302380Y-61640476D01*
X179254761Y-61402380D02*
X179969047Y-61164285D01*
X179969047Y-61783333D01*
X70302380Y-60783333D02*
X69826190Y-60450000D01*
X70302380Y-60211904D02*
X69302380Y-60211904D01*
X69302380Y-60592857D01*
X69350000Y-60688095D01*
X69397619Y-60735714D01*
X69492857Y-60783333D01*
X69635714Y-60783333D01*
X69730952Y-60735714D01*
X69778571Y-60688095D01*
X69826190Y-60592857D01*
X69826190Y-60211904D01*
X69635714Y-61640476D02*
X70302380Y-61640476D01*
X69254761Y-61402380D02*
X69969047Y-61164285D01*
X69969047Y-61783333D01*
X82837380Y-39394523D02*
X82361190Y-39061190D01*
X82837380Y-38823095D02*
X81837380Y-38823095D01*
X81837380Y-39204047D01*
X81885000Y-39299285D01*
X81932619Y-39346904D01*
X82027857Y-39394523D01*
X82170714Y-39394523D01*
X82265952Y-39346904D01*
X82313571Y-39299285D01*
X82361190Y-39204047D01*
X82361190Y-38823095D01*
X82170714Y-39680238D02*
X82170714Y-40061190D01*
X82837380Y-39823095D02*
X81980238Y-39823095D01*
X81885000Y-39870714D01*
X81837380Y-39965952D01*
X81837380Y-40061190D01*
X82837380Y-40394523D02*
X81837380Y-40394523D01*
X82218333Y-40394523D02*
X82170714Y-40489761D01*
X82170714Y-40680238D01*
X82218333Y-40775476D01*
X82265952Y-40823095D01*
X82361190Y-40870714D01*
X82646904Y-40870714D01*
X82742142Y-40823095D01*
X82789761Y-40775476D01*
X82837380Y-40680238D01*
X82837380Y-40489761D01*
X82789761Y-40394523D01*
X82170714Y-41156428D02*
X82170714Y-41537380D01*
X81837380Y-41299285D02*
X82694523Y-41299285D01*
X82789761Y-41346904D01*
X82837380Y-41442142D01*
X82837380Y-41537380D01*
X81932619Y-41823095D02*
X81885000Y-41870714D01*
X81837380Y-41965952D01*
X81837380Y-42204047D01*
X81885000Y-42299285D01*
X81932619Y-42346904D01*
X82027857Y-42394523D01*
X82123095Y-42394523D01*
X82265952Y-42346904D01*
X82837380Y-41775476D01*
X82837380Y-42394523D01*
X87407380Y-43672857D02*
X86931190Y-43339523D01*
X87407380Y-43101428D02*
X86407380Y-43101428D01*
X86407380Y-43482380D01*
X86455000Y-43577619D01*
X86502619Y-43625238D01*
X86597857Y-43672857D01*
X86740714Y-43672857D01*
X86835952Y-43625238D01*
X86883571Y-43577619D01*
X86931190Y-43482380D01*
X86931190Y-43101428D01*
X86740714Y-43958571D02*
X86740714Y-44339523D01*
X87407380Y-44101428D02*
X86550238Y-44101428D01*
X86455000Y-44149047D01*
X86407380Y-44244285D01*
X86407380Y-44339523D01*
X87407380Y-44672857D02*
X86407380Y-44672857D01*
X86788333Y-44672857D02*
X86740714Y-44768095D01*
X86740714Y-44958571D01*
X86788333Y-45053809D01*
X86835952Y-45101428D01*
X86931190Y-45149047D01*
X87216904Y-45149047D01*
X87312142Y-45101428D01*
X87359761Y-45053809D01*
X87407380Y-44958571D01*
X87407380Y-44768095D01*
X87359761Y-44672857D01*
X87407380Y-45577619D02*
X86407380Y-45577619D01*
X86788333Y-45577619D02*
X86740714Y-45672857D01*
X86740714Y-45863333D01*
X86788333Y-45958571D01*
X86835952Y-46006190D01*
X86931190Y-46053809D01*
X87216904Y-46053809D01*
X87312142Y-46006190D01*
X87359761Y-45958571D01*
X87407380Y-45863333D01*
X87407380Y-45672857D01*
X87359761Y-45577619D01*
X87407380Y-47006190D02*
X87407380Y-46434761D01*
X87407380Y-46720476D02*
X86407380Y-46720476D01*
X86550238Y-46625238D01*
X86645476Y-46530000D01*
X86693095Y-46434761D01*
X74707380Y-46768333D02*
X74231190Y-46435000D01*
X74707380Y-46196904D02*
X73707380Y-46196904D01*
X73707380Y-46577857D01*
X73755000Y-46673095D01*
X73802619Y-46720714D01*
X73897857Y-46768333D01*
X74040714Y-46768333D01*
X74135952Y-46720714D01*
X74183571Y-46673095D01*
X74231190Y-46577857D01*
X74231190Y-46196904D01*
X73707380Y-47625476D02*
X73707380Y-47435000D01*
X73755000Y-47339761D01*
X73802619Y-47292142D01*
X73945476Y-47196904D01*
X74135952Y-47149285D01*
X74516904Y-47149285D01*
X74612142Y-47196904D01*
X74659761Y-47244523D01*
X74707380Y-47339761D01*
X74707380Y-47530238D01*
X74659761Y-47625476D01*
X74612142Y-47673095D01*
X74516904Y-47720714D01*
X74278809Y-47720714D01*
X74183571Y-47673095D01*
X74135952Y-47625476D01*
X74088333Y-47530238D01*
X74088333Y-47339761D01*
X74135952Y-47244523D01*
X74183571Y-47196904D01*
X74278809Y-47149285D01*
X67597380Y-46768333D02*
X67121190Y-46435000D01*
X67597380Y-46196904D02*
X66597380Y-46196904D01*
X66597380Y-46577857D01*
X66645000Y-46673095D01*
X66692619Y-46720714D01*
X66787857Y-46768333D01*
X66930714Y-46768333D01*
X67025952Y-46720714D01*
X67073571Y-46673095D01*
X67121190Y-46577857D01*
X67121190Y-46196904D01*
X66692619Y-47149285D02*
X66645000Y-47196904D01*
X66597380Y-47292142D01*
X66597380Y-47530238D01*
X66645000Y-47625476D01*
X66692619Y-47673095D01*
X66787857Y-47720714D01*
X66883095Y-47720714D01*
X67025952Y-47673095D01*
X67597380Y-47101666D01*
X67597380Y-47720714D01*
X71995238Y-64097619D02*
X72090476Y-64050000D01*
X72185714Y-63954761D01*
X72328571Y-63811904D01*
X72423809Y-63764285D01*
X72519047Y-63764285D01*
X72471428Y-64002380D02*
X72566666Y-63954761D01*
X72661904Y-63859523D01*
X72709523Y-63669047D01*
X72709523Y-63335714D01*
X72661904Y-63145238D01*
X72566666Y-63050000D01*
X72471428Y-63002380D01*
X72280952Y-63002380D01*
X72185714Y-63050000D01*
X72090476Y-63145238D01*
X72042857Y-63335714D01*
X72042857Y-63669047D01*
X72090476Y-63859523D01*
X72185714Y-63954761D01*
X72280952Y-64002380D01*
X72471428Y-64002380D01*
X71090476Y-64002380D02*
X71661904Y-64002380D01*
X71376190Y-64002380D02*
X71376190Y-63002380D01*
X71471428Y-63145238D01*
X71566666Y-63240476D01*
X71661904Y-63288095D01*
X102472142Y-41820952D02*
X102519761Y-41773333D01*
X102567380Y-41630476D01*
X102567380Y-41535238D01*
X102519761Y-41392380D01*
X102424523Y-41297142D01*
X102329285Y-41249523D01*
X102138809Y-41201904D01*
X101995952Y-41201904D01*
X101805476Y-41249523D01*
X101710238Y-41297142D01*
X101615000Y-41392380D01*
X101567380Y-41535238D01*
X101567380Y-41630476D01*
X101615000Y-41773333D01*
X101662619Y-41820952D01*
X102567380Y-42392380D02*
X102519761Y-42297142D01*
X102472142Y-42249523D01*
X102376904Y-42201904D01*
X102091190Y-42201904D01*
X101995952Y-42249523D01*
X101948333Y-42297142D01*
X101900714Y-42392380D01*
X101900714Y-42535238D01*
X101948333Y-42630476D01*
X101995952Y-42678095D01*
X102091190Y-42725714D01*
X102376904Y-42725714D01*
X102472142Y-42678095D01*
X102519761Y-42630476D01*
X102567380Y-42535238D01*
X102567380Y-42392380D01*
X101900714Y-43582857D02*
X102567380Y-43582857D01*
X101519761Y-43344761D02*
X102234047Y-43106666D01*
X102234047Y-43725714D01*
X106282142Y-41820952D02*
X106329761Y-41773333D01*
X106377380Y-41630476D01*
X106377380Y-41535238D01*
X106329761Y-41392380D01*
X106234523Y-41297142D01*
X106139285Y-41249523D01*
X105948809Y-41201904D01*
X105805952Y-41201904D01*
X105615476Y-41249523D01*
X105520238Y-41297142D01*
X105425000Y-41392380D01*
X105377380Y-41535238D01*
X105377380Y-41630476D01*
X105425000Y-41773333D01*
X105472619Y-41820952D01*
X106377380Y-42392380D02*
X106329761Y-42297142D01*
X106282142Y-42249523D01*
X106186904Y-42201904D01*
X105901190Y-42201904D01*
X105805952Y-42249523D01*
X105758333Y-42297142D01*
X105710714Y-42392380D01*
X105710714Y-42535238D01*
X105758333Y-42630476D01*
X105805952Y-42678095D01*
X105901190Y-42725714D01*
X106186904Y-42725714D01*
X106282142Y-42678095D01*
X106329761Y-42630476D01*
X106377380Y-42535238D01*
X106377380Y-42392380D01*
X105377380Y-43059047D02*
X105377380Y-43678095D01*
X105758333Y-43344761D01*
X105758333Y-43487619D01*
X105805952Y-43582857D01*
X105853571Y-43630476D01*
X105948809Y-43678095D01*
X106186904Y-43678095D01*
X106282142Y-43630476D01*
X106329761Y-43582857D01*
X106377380Y-43487619D01*
X106377380Y-43201904D01*
X106329761Y-43106666D01*
X106282142Y-43059047D01*
X65597142Y-55602857D02*
X65644761Y-55555238D01*
X65692380Y-55412380D01*
X65692380Y-55317142D01*
X65644761Y-55174285D01*
X65549523Y-55079047D01*
X65454285Y-55031428D01*
X65263809Y-54983809D01*
X65120952Y-54983809D01*
X64930476Y-55031428D01*
X64835238Y-55079047D01*
X64740000Y-55174285D01*
X64692380Y-55317142D01*
X64692380Y-55412380D01*
X64740000Y-55555238D01*
X64787619Y-55602857D01*
X65692380Y-56031428D02*
X65025714Y-56031428D01*
X64692380Y-56031428D02*
X64740000Y-55983809D01*
X64787619Y-56031428D01*
X64740000Y-56079047D01*
X64692380Y-56031428D01*
X64787619Y-56031428D01*
X65025714Y-56507619D02*
X65692380Y-56507619D01*
X65120952Y-56507619D02*
X65073333Y-56555238D01*
X65025714Y-56650476D01*
X65025714Y-56793333D01*
X65073333Y-56888571D01*
X65168571Y-56936190D01*
X65692380Y-56936190D01*
X64692380Y-57317142D02*
X64692380Y-57936190D01*
X65073333Y-57602857D01*
X65073333Y-57745714D01*
X65120952Y-57840952D01*
X65168571Y-57888571D01*
X65263809Y-57936190D01*
X65501904Y-57936190D01*
X65597142Y-57888571D01*
X65644761Y-57840952D01*
X65692380Y-57745714D01*
X65692380Y-57460000D01*
X65644761Y-57364761D01*
X65597142Y-57317142D01*
X68137142Y-55602857D02*
X68184761Y-55555238D01*
X68232380Y-55412380D01*
X68232380Y-55317142D01*
X68184761Y-55174285D01*
X68089523Y-55079047D01*
X67994285Y-55031428D01*
X67803809Y-54983809D01*
X67660952Y-54983809D01*
X67470476Y-55031428D01*
X67375238Y-55079047D01*
X67280000Y-55174285D01*
X67232380Y-55317142D01*
X67232380Y-55412380D01*
X67280000Y-55555238D01*
X67327619Y-55602857D01*
X68232380Y-56031428D02*
X67565714Y-56031428D01*
X67232380Y-56031428D02*
X67280000Y-55983809D01*
X67327619Y-56031428D01*
X67280000Y-56079047D01*
X67232380Y-56031428D01*
X67327619Y-56031428D01*
X67565714Y-56507619D02*
X68232380Y-56507619D01*
X67660952Y-56507619D02*
X67613333Y-56555238D01*
X67565714Y-56650476D01*
X67565714Y-56793333D01*
X67613333Y-56888571D01*
X67708571Y-56936190D01*
X68232380Y-56936190D01*
X67327619Y-57364761D02*
X67280000Y-57412380D01*
X67232380Y-57507619D01*
X67232380Y-57745714D01*
X67280000Y-57840952D01*
X67327619Y-57888571D01*
X67422857Y-57936190D01*
X67518095Y-57936190D01*
X67660952Y-57888571D01*
X68232380Y-57317142D01*
X68232380Y-57936190D01*
X85282142Y-39846904D02*
X85329761Y-39799285D01*
X85377380Y-39656428D01*
X85377380Y-39561190D01*
X85329761Y-39418333D01*
X85234523Y-39323095D01*
X85139285Y-39275476D01*
X84948809Y-39227857D01*
X84805952Y-39227857D01*
X84615476Y-39275476D01*
X84520238Y-39323095D01*
X84425000Y-39418333D01*
X84377380Y-39561190D01*
X84377380Y-39656428D01*
X84425000Y-39799285D01*
X84472619Y-39846904D01*
X84710714Y-40132619D02*
X84710714Y-40513571D01*
X85377380Y-40275476D02*
X84520238Y-40275476D01*
X84425000Y-40323095D01*
X84377380Y-40418333D01*
X84377380Y-40513571D01*
X84710714Y-40704047D02*
X84710714Y-41085000D01*
X85377380Y-40846904D02*
X84520238Y-40846904D01*
X84425000Y-40894523D01*
X84377380Y-40989761D01*
X84377380Y-41085000D01*
X85377380Y-41942142D02*
X85377380Y-41370714D01*
X85377380Y-41656428D02*
X84377380Y-41656428D01*
X84520238Y-41561190D01*
X84615476Y-41465952D01*
X84663095Y-41370714D01*
M02*
