G04 #@! TF.GenerationSoftware,KiCad,Pcbnew,5.1.4-e60b266~84~ubuntu18.04.1*
G04 #@! TF.CreationDate,2019-10-29T18:36:45-03:00*
G04 #@! TF.ProjectId,fonte_18V_panel,666f6e74-655f-4313-9856-5f70616e656c,rev?*
G04 #@! TF.SameCoordinates,Original*
G04 #@! TF.FileFunction,Other,Fab,Bot*
%FSLAX46Y46*%
G04 Gerber Fmt 4.6, Leading zero omitted, Abs format (unit mm)*
G04 Created by KiCad (PCBNEW 5.1.4-e60b266~84~ubuntu18.04.1) date 2019-10-29 18:36:45*
%MOMM*%
%LPD*%
G04 APERTURE LIST*
%ADD10C,0.100000*%
%ADD11C,0.150000*%
%ADD12C,0.080000*%
%ADD13C,0.075000*%
G04 APERTURE END LIST*
D10*
X195767000Y-42728000D02*
X196967000Y-42728000D01*
X196967000Y-42728000D02*
X196967000Y-40728000D01*
X196967000Y-40728000D02*
X195767000Y-40728000D01*
X195767000Y-40728000D02*
X195767000Y-42728000D01*
X195767000Y-104728000D02*
X196967000Y-104728000D01*
X196967000Y-104728000D02*
X196967000Y-102728000D01*
X196967000Y-102728000D02*
X195767000Y-102728000D01*
X195767000Y-102728000D02*
X195767000Y-104728000D01*
X195767000Y-166728000D02*
X196967000Y-166728000D01*
X196967000Y-166728000D02*
X196967000Y-164728000D01*
X196967000Y-164728000D02*
X195767000Y-164728000D01*
X195767000Y-164728000D02*
X195767000Y-166728000D01*
X85767000Y-42728000D02*
X86967000Y-42728000D01*
X86967000Y-42728000D02*
X86967000Y-40728000D01*
X86967000Y-40728000D02*
X85767000Y-40728000D01*
X85767000Y-40728000D02*
X85767000Y-42728000D01*
X85767000Y-104728000D02*
X86967000Y-104728000D01*
X86967000Y-104728000D02*
X86967000Y-102728000D01*
X86967000Y-102728000D02*
X85767000Y-102728000D01*
X85767000Y-102728000D02*
X85767000Y-104728000D01*
X215427000Y-38138000D02*
X214227000Y-38138000D01*
X214227000Y-38138000D02*
X214227000Y-40138000D01*
X214227000Y-40138000D02*
X215427000Y-40138000D01*
X215427000Y-40138000D02*
X215427000Y-38138000D01*
X215427000Y-100138000D02*
X214227000Y-100138000D01*
X214227000Y-100138000D02*
X214227000Y-102138000D01*
X214227000Y-102138000D02*
X215427000Y-102138000D01*
X215427000Y-102138000D02*
X215427000Y-100138000D01*
X215427000Y-162138000D02*
X214227000Y-162138000D01*
X214227000Y-162138000D02*
X214227000Y-164138000D01*
X214227000Y-164138000D02*
X215427000Y-164138000D01*
X215427000Y-164138000D02*
X215427000Y-162138000D01*
X105427000Y-38138000D02*
X104227000Y-38138000D01*
X104227000Y-38138000D02*
X104227000Y-40138000D01*
X104227000Y-40138000D02*
X105427000Y-40138000D01*
X105427000Y-40138000D02*
X105427000Y-38138000D01*
X105427000Y-100138000D02*
X104227000Y-100138000D01*
X104227000Y-100138000D02*
X104227000Y-102138000D01*
X104227000Y-102138000D02*
X105427000Y-102138000D01*
X105427000Y-102138000D02*
X105427000Y-100138000D01*
X191957000Y-42728000D02*
X193157000Y-42728000D01*
X193157000Y-42728000D02*
X193157000Y-40728000D01*
X193157000Y-40728000D02*
X191957000Y-40728000D01*
X191957000Y-40728000D02*
X191957000Y-42728000D01*
X191957000Y-104728000D02*
X193157000Y-104728000D01*
X193157000Y-104728000D02*
X193157000Y-102728000D01*
X193157000Y-102728000D02*
X191957000Y-102728000D01*
X191957000Y-102728000D02*
X191957000Y-104728000D01*
X191957000Y-166728000D02*
X193157000Y-166728000D01*
X193157000Y-166728000D02*
X193157000Y-164728000D01*
X193157000Y-164728000D02*
X191957000Y-164728000D01*
X191957000Y-164728000D02*
X191957000Y-166728000D01*
X81957000Y-42728000D02*
X83157000Y-42728000D01*
X83157000Y-42728000D02*
X83157000Y-40728000D01*
X83157000Y-40728000D02*
X81957000Y-40728000D01*
X81957000Y-40728000D02*
X81957000Y-42728000D01*
X81957000Y-104728000D02*
X83157000Y-104728000D01*
X83157000Y-104728000D02*
X83157000Y-102728000D01*
X83157000Y-102728000D02*
X81957000Y-102728000D01*
X81957000Y-102728000D02*
X81957000Y-104728000D01*
X228127000Y-36233000D02*
X226927000Y-36233000D01*
X226927000Y-36233000D02*
X226927000Y-38233000D01*
X226927000Y-38233000D02*
X228127000Y-38233000D01*
X228127000Y-38233000D02*
X228127000Y-36233000D01*
X228127000Y-98233000D02*
X226927000Y-98233000D01*
X226927000Y-98233000D02*
X226927000Y-100233000D01*
X226927000Y-100233000D02*
X228127000Y-100233000D01*
X228127000Y-100233000D02*
X228127000Y-98233000D01*
X228127000Y-160233000D02*
X226927000Y-160233000D01*
X226927000Y-160233000D02*
X226927000Y-162233000D01*
X226927000Y-162233000D02*
X228127000Y-162233000D01*
X228127000Y-162233000D02*
X228127000Y-160233000D01*
X118127000Y-36233000D02*
X116927000Y-36233000D01*
X116927000Y-36233000D02*
X116927000Y-38233000D01*
X116927000Y-38233000D02*
X118127000Y-38233000D01*
X118127000Y-38233000D02*
X118127000Y-36233000D01*
X118127000Y-98233000D02*
X116927000Y-98233000D01*
X116927000Y-98233000D02*
X116927000Y-100233000D01*
X116927000Y-100233000D02*
X118127000Y-100233000D01*
X118127000Y-100233000D02*
X118127000Y-98233000D01*
X215497000Y-44583000D02*
X216697000Y-44583000D01*
X216697000Y-44583000D02*
X216697000Y-42583000D01*
X216697000Y-42583000D02*
X215497000Y-42583000D01*
X215497000Y-42583000D02*
X215497000Y-44583000D01*
X215497000Y-106583000D02*
X216697000Y-106583000D01*
X216697000Y-106583000D02*
X216697000Y-104583000D01*
X216697000Y-104583000D02*
X215497000Y-104583000D01*
X215497000Y-104583000D02*
X215497000Y-106583000D01*
X215497000Y-168583000D02*
X216697000Y-168583000D01*
X216697000Y-168583000D02*
X216697000Y-166583000D01*
X216697000Y-166583000D02*
X215497000Y-166583000D01*
X215497000Y-166583000D02*
X215497000Y-168583000D01*
X105497000Y-44583000D02*
X106697000Y-44583000D01*
X106697000Y-44583000D02*
X106697000Y-42583000D01*
X106697000Y-42583000D02*
X105497000Y-42583000D01*
X105497000Y-42583000D02*
X105497000Y-44583000D01*
X105497000Y-106583000D02*
X106697000Y-106583000D01*
X106697000Y-106583000D02*
X106697000Y-104583000D01*
X106697000Y-104583000D02*
X105497000Y-104583000D01*
X105497000Y-104583000D02*
X105497000Y-106583000D01*
X232642000Y-28708000D02*
X233842000Y-28708000D01*
X233842000Y-28708000D02*
X233842000Y-26708000D01*
X233842000Y-26708000D02*
X232642000Y-26708000D01*
X232642000Y-26708000D02*
X232642000Y-28708000D01*
X232642000Y-90708000D02*
X233842000Y-90708000D01*
X233842000Y-90708000D02*
X233842000Y-88708000D01*
X233842000Y-88708000D02*
X232642000Y-88708000D01*
X232642000Y-88708000D02*
X232642000Y-90708000D01*
X232642000Y-152708000D02*
X233842000Y-152708000D01*
X233842000Y-152708000D02*
X233842000Y-150708000D01*
X233842000Y-150708000D02*
X232642000Y-150708000D01*
X232642000Y-150708000D02*
X232642000Y-152708000D01*
X122642000Y-28708000D02*
X123842000Y-28708000D01*
X123842000Y-28708000D02*
X123842000Y-26708000D01*
X123842000Y-26708000D02*
X122642000Y-26708000D01*
X122642000Y-26708000D02*
X122642000Y-28708000D01*
X122642000Y-90708000D02*
X123842000Y-90708000D01*
X123842000Y-90708000D02*
X123842000Y-88708000D01*
X123842000Y-88708000D02*
X122642000Y-88708000D01*
X122642000Y-88708000D02*
X122642000Y-90708000D01*
X230102000Y-28708000D02*
X231302000Y-28708000D01*
X231302000Y-28708000D02*
X231302000Y-26708000D01*
X231302000Y-26708000D02*
X230102000Y-26708000D01*
X230102000Y-26708000D02*
X230102000Y-28708000D01*
X230102000Y-90708000D02*
X231302000Y-90708000D01*
X231302000Y-90708000D02*
X231302000Y-88708000D01*
X231302000Y-88708000D02*
X230102000Y-88708000D01*
X230102000Y-88708000D02*
X230102000Y-90708000D01*
X230102000Y-152708000D02*
X231302000Y-152708000D01*
X231302000Y-152708000D02*
X231302000Y-150708000D01*
X231302000Y-150708000D02*
X230102000Y-150708000D01*
X230102000Y-150708000D02*
X230102000Y-152708000D01*
X120102000Y-28708000D02*
X121302000Y-28708000D01*
X121302000Y-28708000D02*
X121302000Y-26708000D01*
X121302000Y-26708000D02*
X120102000Y-26708000D01*
X120102000Y-26708000D02*
X120102000Y-28708000D01*
X120102000Y-90708000D02*
X121302000Y-90708000D01*
X121302000Y-90708000D02*
X121302000Y-88708000D01*
X121302000Y-88708000D02*
X120102000Y-88708000D01*
X120102000Y-88708000D02*
X120102000Y-90708000D01*
X212957000Y-44583000D02*
X214157000Y-44583000D01*
X214157000Y-44583000D02*
X214157000Y-42583000D01*
X214157000Y-42583000D02*
X212957000Y-42583000D01*
X212957000Y-42583000D02*
X212957000Y-44583000D01*
X212957000Y-106583000D02*
X214157000Y-106583000D01*
X214157000Y-106583000D02*
X214157000Y-104583000D01*
X214157000Y-104583000D02*
X212957000Y-104583000D01*
X212957000Y-104583000D02*
X212957000Y-106583000D01*
X212957000Y-168583000D02*
X214157000Y-168583000D01*
X214157000Y-168583000D02*
X214157000Y-166583000D01*
X214157000Y-166583000D02*
X212957000Y-166583000D01*
X212957000Y-166583000D02*
X212957000Y-168583000D01*
X102957000Y-44583000D02*
X104157000Y-44583000D01*
X104157000Y-44583000D02*
X104157000Y-42583000D01*
X104157000Y-42583000D02*
X102957000Y-42583000D01*
X102957000Y-42583000D02*
X102957000Y-44583000D01*
X102957000Y-106583000D02*
X104157000Y-106583000D01*
X104157000Y-106583000D02*
X104157000Y-104583000D01*
X104157000Y-104583000D02*
X102957000Y-104583000D01*
X102957000Y-104583000D02*
X102957000Y-106583000D01*
X232532000Y-22218000D02*
X231332000Y-22218000D01*
X231332000Y-22218000D02*
X231332000Y-24218000D01*
X231332000Y-24218000D02*
X232532000Y-24218000D01*
X232532000Y-24218000D02*
X232532000Y-22218000D01*
X232532000Y-84218000D02*
X231332000Y-84218000D01*
X231332000Y-84218000D02*
X231332000Y-86218000D01*
X231332000Y-86218000D02*
X232532000Y-86218000D01*
X232532000Y-86218000D02*
X232532000Y-84218000D01*
X232532000Y-146218000D02*
X231332000Y-146218000D01*
X231332000Y-146218000D02*
X231332000Y-148218000D01*
X231332000Y-148218000D02*
X232532000Y-148218000D01*
X232532000Y-148218000D02*
X232532000Y-146218000D01*
X122532000Y-22218000D02*
X121332000Y-22218000D01*
X121332000Y-22218000D02*
X121332000Y-24218000D01*
X121332000Y-24218000D02*
X122532000Y-24218000D01*
X122532000Y-24218000D02*
X122532000Y-22218000D01*
X122532000Y-84218000D02*
X121332000Y-84218000D01*
X121332000Y-84218000D02*
X121332000Y-86218000D01*
X121332000Y-86218000D02*
X122532000Y-86218000D01*
X122532000Y-86218000D02*
X122532000Y-84218000D01*
X230737000Y-38233000D02*
X231937000Y-38233000D01*
X231937000Y-38233000D02*
X231937000Y-36233000D01*
X231937000Y-36233000D02*
X230737000Y-36233000D01*
X230737000Y-36233000D02*
X230737000Y-38233000D01*
X230737000Y-100233000D02*
X231937000Y-100233000D01*
X231937000Y-100233000D02*
X231937000Y-98233000D01*
X231937000Y-98233000D02*
X230737000Y-98233000D01*
X230737000Y-98233000D02*
X230737000Y-100233000D01*
X230737000Y-162233000D02*
X231937000Y-162233000D01*
X231937000Y-162233000D02*
X231937000Y-160233000D01*
X231937000Y-160233000D02*
X230737000Y-160233000D01*
X230737000Y-160233000D02*
X230737000Y-162233000D01*
X120737000Y-38233000D02*
X121937000Y-38233000D01*
X121937000Y-38233000D02*
X121937000Y-36233000D01*
X121937000Y-36233000D02*
X120737000Y-36233000D01*
X120737000Y-36233000D02*
X120737000Y-38233000D01*
X120737000Y-100233000D02*
X121937000Y-100233000D01*
X121937000Y-100233000D02*
X121937000Y-98233000D01*
X121937000Y-98233000D02*
X120737000Y-98233000D01*
X120737000Y-98233000D02*
X120737000Y-100233000D01*
X228932000Y-22168000D02*
X228932000Y-24618000D01*
X228382000Y-21598000D02*
X227532000Y-21598000D01*
X228932000Y-22168000D02*
X228382000Y-21598000D01*
X227532000Y-21598000D02*
X227532000Y-24638000D01*
X228932000Y-24638000D02*
X227532000Y-24638000D01*
X228932000Y-84168000D02*
X228932000Y-86618000D01*
X228382000Y-83598000D02*
X227532000Y-83598000D01*
X228932000Y-84168000D02*
X228382000Y-83598000D01*
X227532000Y-83598000D02*
X227532000Y-86638000D01*
X228932000Y-86638000D02*
X227532000Y-86638000D01*
X228932000Y-146168000D02*
X228932000Y-148618000D01*
X228382000Y-145598000D02*
X227532000Y-145598000D01*
X228932000Y-146168000D02*
X228382000Y-145598000D01*
X227532000Y-145598000D02*
X227532000Y-148638000D01*
X228932000Y-148638000D02*
X227532000Y-148638000D01*
X118932000Y-22168000D02*
X118932000Y-24618000D01*
X118382000Y-21598000D02*
X117532000Y-21598000D01*
X118932000Y-22168000D02*
X118382000Y-21598000D01*
X117532000Y-21598000D02*
X117532000Y-24638000D01*
X118932000Y-24638000D02*
X117532000Y-24638000D01*
X118932000Y-84168000D02*
X118932000Y-86618000D01*
X118382000Y-83598000D02*
X117532000Y-83598000D01*
X118932000Y-84168000D02*
X118382000Y-83598000D01*
X117532000Y-83598000D02*
X117532000Y-86638000D01*
X118932000Y-86638000D02*
X117532000Y-86638000D01*
X122532000Y-148218000D02*
X122532000Y-146218000D01*
X121332000Y-148218000D02*
X122532000Y-148218000D01*
X121332000Y-146218000D02*
X121332000Y-148218000D01*
X122532000Y-146218000D02*
X121332000Y-146218000D01*
X105497000Y-166583000D02*
X105497000Y-168583000D01*
X106697000Y-166583000D02*
X105497000Y-166583000D01*
X106697000Y-168583000D02*
X106697000Y-166583000D01*
X105497000Y-168583000D02*
X106697000Y-168583000D01*
X105427000Y-164138000D02*
X105427000Y-162138000D01*
X104227000Y-164138000D02*
X105427000Y-164138000D01*
X104227000Y-162138000D02*
X104227000Y-164138000D01*
X105427000Y-162138000D02*
X104227000Y-162138000D01*
X118127000Y-162233000D02*
X118127000Y-160233000D01*
X116927000Y-162233000D02*
X118127000Y-162233000D01*
X116927000Y-160233000D02*
X116927000Y-162233000D01*
X118127000Y-160233000D02*
X116927000Y-160233000D01*
X120737000Y-160233000D02*
X120737000Y-162233000D01*
X121937000Y-160233000D02*
X120737000Y-160233000D01*
X121937000Y-162233000D02*
X121937000Y-160233000D01*
X120737000Y-162233000D02*
X121937000Y-162233000D01*
X118932000Y-148638000D02*
X117532000Y-148638000D01*
X117532000Y-145598000D02*
X117532000Y-148638000D01*
X118932000Y-146168000D02*
X118382000Y-145598000D01*
X118382000Y-145598000D02*
X117532000Y-145598000D01*
X118932000Y-146168000D02*
X118932000Y-148618000D01*
X85767000Y-164728000D02*
X85767000Y-166728000D01*
X86967000Y-164728000D02*
X85767000Y-164728000D01*
X86967000Y-166728000D02*
X86967000Y-164728000D01*
X85767000Y-166728000D02*
X86967000Y-166728000D01*
X81957000Y-164728000D02*
X81957000Y-166728000D01*
X83157000Y-164728000D02*
X81957000Y-164728000D01*
X83157000Y-166728000D02*
X83157000Y-164728000D01*
X81957000Y-166728000D02*
X83157000Y-166728000D01*
X122642000Y-150708000D02*
X122642000Y-152708000D01*
X123842000Y-150708000D02*
X122642000Y-150708000D01*
X123842000Y-152708000D02*
X123842000Y-150708000D01*
X122642000Y-152708000D02*
X123842000Y-152708000D01*
X120102000Y-150708000D02*
X120102000Y-152708000D01*
X121302000Y-150708000D02*
X120102000Y-150708000D01*
X121302000Y-152708000D02*
X121302000Y-150708000D01*
X120102000Y-152708000D02*
X121302000Y-152708000D01*
X102957000Y-166583000D02*
X102957000Y-168583000D01*
X104157000Y-166583000D02*
X102957000Y-166583000D01*
X104157000Y-168583000D02*
X104157000Y-166583000D01*
X102957000Y-168583000D02*
X104157000Y-168583000D01*
D11*
X194169380Y-40513714D02*
X194169380Y-40608952D01*
X194217000Y-40704190D01*
X194264619Y-40751809D01*
X194359857Y-40799428D01*
X194550333Y-40847047D01*
X194788428Y-40847047D01*
X194978904Y-40799428D01*
X195074142Y-40751809D01*
X195121761Y-40704190D01*
X195169380Y-40608952D01*
X195169380Y-40513714D01*
X195121761Y-40418476D01*
X195074142Y-40370857D01*
X194978904Y-40323238D01*
X194788428Y-40275619D01*
X194550333Y-40275619D01*
X194359857Y-40323238D01*
X194264619Y-40370857D01*
X194217000Y-40418476D01*
X194169380Y-40513714D01*
X195074142Y-41275619D02*
X195121761Y-41323238D01*
X195169380Y-41275619D01*
X195121761Y-41228000D01*
X195074142Y-41275619D01*
X195169380Y-41275619D01*
X195169380Y-42275619D02*
X195169380Y-41704190D01*
X195169380Y-41989904D02*
X194169380Y-41989904D01*
X194312238Y-41894666D01*
X194407476Y-41799428D01*
X194455095Y-41704190D01*
X194502714Y-43132761D02*
X195169380Y-43132761D01*
X194502714Y-42704190D02*
X195026523Y-42704190D01*
X195121761Y-42751809D01*
X195169380Y-42847047D01*
X195169380Y-42989904D01*
X195121761Y-43085142D01*
X195074142Y-43132761D01*
D12*
X195935571Y-41418476D02*
X195959380Y-41394666D01*
X195983190Y-41323238D01*
X195983190Y-41275619D01*
X195959380Y-41204190D01*
X195911761Y-41156571D01*
X195864142Y-41132761D01*
X195768904Y-41108952D01*
X195697476Y-41108952D01*
X195602238Y-41132761D01*
X195554619Y-41156571D01*
X195507000Y-41204190D01*
X195483190Y-41275619D01*
X195483190Y-41323238D01*
X195507000Y-41394666D01*
X195530809Y-41418476D01*
X195983190Y-41704190D02*
X195959380Y-41656571D01*
X195935571Y-41632761D01*
X195887952Y-41608952D01*
X195745095Y-41608952D01*
X195697476Y-41632761D01*
X195673666Y-41656571D01*
X195649857Y-41704190D01*
X195649857Y-41775619D01*
X195673666Y-41823238D01*
X195697476Y-41847047D01*
X195745095Y-41870857D01*
X195887952Y-41870857D01*
X195935571Y-41847047D01*
X195959380Y-41823238D01*
X195983190Y-41775619D01*
X195983190Y-41704190D01*
X195649857Y-42299428D02*
X195983190Y-42299428D01*
X195459380Y-42180380D02*
X195816523Y-42061333D01*
X195816523Y-42370857D01*
D11*
X194169380Y-102513714D02*
X194169380Y-102608952D01*
X194217000Y-102704190D01*
X194264619Y-102751809D01*
X194359857Y-102799428D01*
X194550333Y-102847047D01*
X194788428Y-102847047D01*
X194978904Y-102799428D01*
X195074142Y-102751809D01*
X195121761Y-102704190D01*
X195169380Y-102608952D01*
X195169380Y-102513714D01*
X195121761Y-102418476D01*
X195074142Y-102370857D01*
X194978904Y-102323238D01*
X194788428Y-102275619D01*
X194550333Y-102275619D01*
X194359857Y-102323238D01*
X194264619Y-102370857D01*
X194217000Y-102418476D01*
X194169380Y-102513714D01*
X195074142Y-103275619D02*
X195121761Y-103323238D01*
X195169380Y-103275619D01*
X195121761Y-103228000D01*
X195074142Y-103275619D01*
X195169380Y-103275619D01*
X195169380Y-104275619D02*
X195169380Y-103704190D01*
X195169380Y-103989904D02*
X194169380Y-103989904D01*
X194312238Y-103894666D01*
X194407476Y-103799428D01*
X194455095Y-103704190D01*
X194502714Y-105132761D02*
X195169380Y-105132761D01*
X194502714Y-104704190D02*
X195026523Y-104704190D01*
X195121761Y-104751809D01*
X195169380Y-104847047D01*
X195169380Y-104989904D01*
X195121761Y-105085142D01*
X195074142Y-105132761D01*
D12*
X195935571Y-103418476D02*
X195959380Y-103394666D01*
X195983190Y-103323238D01*
X195983190Y-103275619D01*
X195959380Y-103204190D01*
X195911761Y-103156571D01*
X195864142Y-103132761D01*
X195768904Y-103108952D01*
X195697476Y-103108952D01*
X195602238Y-103132761D01*
X195554619Y-103156571D01*
X195507000Y-103204190D01*
X195483190Y-103275619D01*
X195483190Y-103323238D01*
X195507000Y-103394666D01*
X195530809Y-103418476D01*
X195983190Y-103704190D02*
X195959380Y-103656571D01*
X195935571Y-103632761D01*
X195887952Y-103608952D01*
X195745095Y-103608952D01*
X195697476Y-103632761D01*
X195673666Y-103656571D01*
X195649857Y-103704190D01*
X195649857Y-103775619D01*
X195673666Y-103823238D01*
X195697476Y-103847047D01*
X195745095Y-103870857D01*
X195887952Y-103870857D01*
X195935571Y-103847047D01*
X195959380Y-103823238D01*
X195983190Y-103775619D01*
X195983190Y-103704190D01*
X195649857Y-104299428D02*
X195983190Y-104299428D01*
X195459380Y-104180380D02*
X195816523Y-104061333D01*
X195816523Y-104370857D01*
D11*
X194169380Y-164513714D02*
X194169380Y-164608952D01*
X194217000Y-164704190D01*
X194264619Y-164751809D01*
X194359857Y-164799428D01*
X194550333Y-164847047D01*
X194788428Y-164847047D01*
X194978904Y-164799428D01*
X195074142Y-164751809D01*
X195121761Y-164704190D01*
X195169380Y-164608952D01*
X195169380Y-164513714D01*
X195121761Y-164418476D01*
X195074142Y-164370857D01*
X194978904Y-164323238D01*
X194788428Y-164275619D01*
X194550333Y-164275619D01*
X194359857Y-164323238D01*
X194264619Y-164370857D01*
X194217000Y-164418476D01*
X194169380Y-164513714D01*
X195074142Y-165275619D02*
X195121761Y-165323238D01*
X195169380Y-165275619D01*
X195121761Y-165228000D01*
X195074142Y-165275619D01*
X195169380Y-165275619D01*
X195169380Y-166275619D02*
X195169380Y-165704190D01*
X195169380Y-165989904D02*
X194169380Y-165989904D01*
X194312238Y-165894666D01*
X194407476Y-165799428D01*
X194455095Y-165704190D01*
X194502714Y-167132761D02*
X195169380Y-167132761D01*
X194502714Y-166704190D02*
X195026523Y-166704190D01*
X195121761Y-166751809D01*
X195169380Y-166847047D01*
X195169380Y-166989904D01*
X195121761Y-167085142D01*
X195074142Y-167132761D01*
D12*
X195935571Y-165418476D02*
X195959380Y-165394666D01*
X195983190Y-165323238D01*
X195983190Y-165275619D01*
X195959380Y-165204190D01*
X195911761Y-165156571D01*
X195864142Y-165132761D01*
X195768904Y-165108952D01*
X195697476Y-165108952D01*
X195602238Y-165132761D01*
X195554619Y-165156571D01*
X195507000Y-165204190D01*
X195483190Y-165275619D01*
X195483190Y-165323238D01*
X195507000Y-165394666D01*
X195530809Y-165418476D01*
X195983190Y-165704190D02*
X195959380Y-165656571D01*
X195935571Y-165632761D01*
X195887952Y-165608952D01*
X195745095Y-165608952D01*
X195697476Y-165632761D01*
X195673666Y-165656571D01*
X195649857Y-165704190D01*
X195649857Y-165775619D01*
X195673666Y-165823238D01*
X195697476Y-165847047D01*
X195745095Y-165870857D01*
X195887952Y-165870857D01*
X195935571Y-165847047D01*
X195959380Y-165823238D01*
X195983190Y-165775619D01*
X195983190Y-165704190D01*
X195649857Y-166299428D02*
X195983190Y-166299428D01*
X195459380Y-166180380D02*
X195816523Y-166061333D01*
X195816523Y-166370857D01*
D11*
X84169380Y-40513714D02*
X84169380Y-40608952D01*
X84217000Y-40704190D01*
X84264619Y-40751809D01*
X84359857Y-40799428D01*
X84550333Y-40847047D01*
X84788428Y-40847047D01*
X84978904Y-40799428D01*
X85074142Y-40751809D01*
X85121761Y-40704190D01*
X85169380Y-40608952D01*
X85169380Y-40513714D01*
X85121761Y-40418476D01*
X85074142Y-40370857D01*
X84978904Y-40323238D01*
X84788428Y-40275619D01*
X84550333Y-40275619D01*
X84359857Y-40323238D01*
X84264619Y-40370857D01*
X84217000Y-40418476D01*
X84169380Y-40513714D01*
X85074142Y-41275619D02*
X85121761Y-41323238D01*
X85169380Y-41275619D01*
X85121761Y-41228000D01*
X85074142Y-41275619D01*
X85169380Y-41275619D01*
X85169380Y-42275619D02*
X85169380Y-41704190D01*
X85169380Y-41989904D02*
X84169380Y-41989904D01*
X84312238Y-41894666D01*
X84407476Y-41799428D01*
X84455095Y-41704190D01*
X84502714Y-43132761D02*
X85169380Y-43132761D01*
X84502714Y-42704190D02*
X85026523Y-42704190D01*
X85121761Y-42751809D01*
X85169380Y-42847047D01*
X85169380Y-42989904D01*
X85121761Y-43085142D01*
X85074142Y-43132761D01*
D12*
X85935571Y-41418476D02*
X85959380Y-41394666D01*
X85983190Y-41323238D01*
X85983190Y-41275619D01*
X85959380Y-41204190D01*
X85911761Y-41156571D01*
X85864142Y-41132761D01*
X85768904Y-41108952D01*
X85697476Y-41108952D01*
X85602238Y-41132761D01*
X85554619Y-41156571D01*
X85507000Y-41204190D01*
X85483190Y-41275619D01*
X85483190Y-41323238D01*
X85507000Y-41394666D01*
X85530809Y-41418476D01*
X85983190Y-41704190D02*
X85959380Y-41656571D01*
X85935571Y-41632761D01*
X85887952Y-41608952D01*
X85745095Y-41608952D01*
X85697476Y-41632761D01*
X85673666Y-41656571D01*
X85649857Y-41704190D01*
X85649857Y-41775619D01*
X85673666Y-41823238D01*
X85697476Y-41847047D01*
X85745095Y-41870857D01*
X85887952Y-41870857D01*
X85935571Y-41847047D01*
X85959380Y-41823238D01*
X85983190Y-41775619D01*
X85983190Y-41704190D01*
X85649857Y-42299428D02*
X85983190Y-42299428D01*
X85459380Y-42180380D02*
X85816523Y-42061333D01*
X85816523Y-42370857D01*
D11*
X84169380Y-102513714D02*
X84169380Y-102608952D01*
X84217000Y-102704190D01*
X84264619Y-102751809D01*
X84359857Y-102799428D01*
X84550333Y-102847047D01*
X84788428Y-102847047D01*
X84978904Y-102799428D01*
X85074142Y-102751809D01*
X85121761Y-102704190D01*
X85169380Y-102608952D01*
X85169380Y-102513714D01*
X85121761Y-102418476D01*
X85074142Y-102370857D01*
X84978904Y-102323238D01*
X84788428Y-102275619D01*
X84550333Y-102275619D01*
X84359857Y-102323238D01*
X84264619Y-102370857D01*
X84217000Y-102418476D01*
X84169380Y-102513714D01*
X85074142Y-103275619D02*
X85121761Y-103323238D01*
X85169380Y-103275619D01*
X85121761Y-103228000D01*
X85074142Y-103275619D01*
X85169380Y-103275619D01*
X85169380Y-104275619D02*
X85169380Y-103704190D01*
X85169380Y-103989904D02*
X84169380Y-103989904D01*
X84312238Y-103894666D01*
X84407476Y-103799428D01*
X84455095Y-103704190D01*
X84502714Y-105132761D02*
X85169380Y-105132761D01*
X84502714Y-104704190D02*
X85026523Y-104704190D01*
X85121761Y-104751809D01*
X85169380Y-104847047D01*
X85169380Y-104989904D01*
X85121761Y-105085142D01*
X85074142Y-105132761D01*
D12*
X85935571Y-103418476D02*
X85959380Y-103394666D01*
X85983190Y-103323238D01*
X85983190Y-103275619D01*
X85959380Y-103204190D01*
X85911761Y-103156571D01*
X85864142Y-103132761D01*
X85768904Y-103108952D01*
X85697476Y-103108952D01*
X85602238Y-103132761D01*
X85554619Y-103156571D01*
X85507000Y-103204190D01*
X85483190Y-103275619D01*
X85483190Y-103323238D01*
X85507000Y-103394666D01*
X85530809Y-103418476D01*
X85983190Y-103704190D02*
X85959380Y-103656571D01*
X85935571Y-103632761D01*
X85887952Y-103608952D01*
X85745095Y-103608952D01*
X85697476Y-103632761D01*
X85673666Y-103656571D01*
X85649857Y-103704190D01*
X85649857Y-103775619D01*
X85673666Y-103823238D01*
X85697476Y-103847047D01*
X85745095Y-103870857D01*
X85887952Y-103870857D01*
X85935571Y-103847047D01*
X85959380Y-103823238D01*
X85983190Y-103775619D01*
X85983190Y-103704190D01*
X85649857Y-104299428D02*
X85983190Y-104299428D01*
X85459380Y-104180380D02*
X85816523Y-104061333D01*
X85816523Y-104370857D01*
D11*
X216357952Y-38161809D02*
X216310333Y-38066571D01*
X216262714Y-38018952D01*
X216167476Y-37971333D01*
X216119857Y-37971333D01*
X216024619Y-38018952D01*
X215977000Y-38066571D01*
X215929380Y-38161809D01*
X215929380Y-38352285D01*
X215977000Y-38447523D01*
X216024619Y-38495142D01*
X216119857Y-38542761D01*
X216167476Y-38542761D01*
X216262714Y-38495142D01*
X216310333Y-38447523D01*
X216357952Y-38352285D01*
X216357952Y-38161809D01*
X216405571Y-38066571D01*
X216453190Y-38018952D01*
X216548428Y-37971333D01*
X216738904Y-37971333D01*
X216834142Y-38018952D01*
X216881761Y-38066571D01*
X216929380Y-38161809D01*
X216929380Y-38352285D01*
X216881761Y-38447523D01*
X216834142Y-38495142D01*
X216738904Y-38542761D01*
X216548428Y-38542761D01*
X216453190Y-38495142D01*
X216405571Y-38447523D01*
X216357952Y-38352285D01*
X216929380Y-38971333D02*
X215929380Y-38971333D01*
X216548428Y-39066571D02*
X216929380Y-39352285D01*
X216262714Y-39352285D02*
X216643666Y-38971333D01*
X216024619Y-39733238D02*
X215977000Y-39780857D01*
X215929380Y-39876095D01*
X215929380Y-40114190D01*
X215977000Y-40209428D01*
X216024619Y-40257047D01*
X216119857Y-40304666D01*
X216215095Y-40304666D01*
X216357952Y-40257047D01*
X216929380Y-39685619D01*
X216929380Y-40304666D01*
D12*
X215053190Y-38459428D02*
X214815095Y-38292761D01*
X215053190Y-38173714D02*
X214553190Y-38173714D01*
X214553190Y-38364190D01*
X214577000Y-38411809D01*
X214600809Y-38435619D01*
X214648428Y-38459428D01*
X214719857Y-38459428D01*
X214767476Y-38435619D01*
X214791285Y-38411809D01*
X214815095Y-38364190D01*
X214815095Y-38173714D01*
X214719857Y-38602285D02*
X214719857Y-38792761D01*
X215053190Y-38673714D02*
X214624619Y-38673714D01*
X214577000Y-38697523D01*
X214553190Y-38745142D01*
X214553190Y-38792761D01*
X215053190Y-38959428D02*
X214553190Y-38959428D01*
X214743666Y-38959428D02*
X214719857Y-39007047D01*
X214719857Y-39102285D01*
X214743666Y-39149904D01*
X214767476Y-39173714D01*
X214815095Y-39197523D01*
X214957952Y-39197523D01*
X215005571Y-39173714D01*
X215029380Y-39149904D01*
X215053190Y-39102285D01*
X215053190Y-39007047D01*
X215029380Y-38959428D01*
X215053190Y-39411809D02*
X214553190Y-39411809D01*
X214743666Y-39411809D02*
X214719857Y-39459428D01*
X214719857Y-39554666D01*
X214743666Y-39602285D01*
X214767476Y-39626095D01*
X214815095Y-39649904D01*
X214957952Y-39649904D01*
X215005571Y-39626095D01*
X215029380Y-39602285D01*
X215053190Y-39554666D01*
X215053190Y-39459428D01*
X215029380Y-39411809D01*
X215053190Y-40126095D02*
X215053190Y-39840380D01*
X215053190Y-39983238D02*
X214553190Y-39983238D01*
X214624619Y-39935619D01*
X214672238Y-39888000D01*
X214696047Y-39840380D01*
D11*
X216357952Y-100161809D02*
X216310333Y-100066571D01*
X216262714Y-100018952D01*
X216167476Y-99971333D01*
X216119857Y-99971333D01*
X216024619Y-100018952D01*
X215977000Y-100066571D01*
X215929380Y-100161809D01*
X215929380Y-100352285D01*
X215977000Y-100447523D01*
X216024619Y-100495142D01*
X216119857Y-100542761D01*
X216167476Y-100542761D01*
X216262714Y-100495142D01*
X216310333Y-100447523D01*
X216357952Y-100352285D01*
X216357952Y-100161809D01*
X216405571Y-100066571D01*
X216453190Y-100018952D01*
X216548428Y-99971333D01*
X216738904Y-99971333D01*
X216834142Y-100018952D01*
X216881761Y-100066571D01*
X216929380Y-100161809D01*
X216929380Y-100352285D01*
X216881761Y-100447523D01*
X216834142Y-100495142D01*
X216738904Y-100542761D01*
X216548428Y-100542761D01*
X216453190Y-100495142D01*
X216405571Y-100447523D01*
X216357952Y-100352285D01*
X216929380Y-100971333D02*
X215929380Y-100971333D01*
X216548428Y-101066571D02*
X216929380Y-101352285D01*
X216262714Y-101352285D02*
X216643666Y-100971333D01*
X216024619Y-101733238D02*
X215977000Y-101780857D01*
X215929380Y-101876095D01*
X215929380Y-102114190D01*
X215977000Y-102209428D01*
X216024619Y-102257047D01*
X216119857Y-102304666D01*
X216215095Y-102304666D01*
X216357952Y-102257047D01*
X216929380Y-101685619D01*
X216929380Y-102304666D01*
D12*
X215053190Y-100459428D02*
X214815095Y-100292761D01*
X215053190Y-100173714D02*
X214553190Y-100173714D01*
X214553190Y-100364190D01*
X214577000Y-100411809D01*
X214600809Y-100435619D01*
X214648428Y-100459428D01*
X214719857Y-100459428D01*
X214767476Y-100435619D01*
X214791285Y-100411809D01*
X214815095Y-100364190D01*
X214815095Y-100173714D01*
X214719857Y-100602285D02*
X214719857Y-100792761D01*
X215053190Y-100673714D02*
X214624619Y-100673714D01*
X214577000Y-100697523D01*
X214553190Y-100745142D01*
X214553190Y-100792761D01*
X215053190Y-100959428D02*
X214553190Y-100959428D01*
X214743666Y-100959428D02*
X214719857Y-101007047D01*
X214719857Y-101102285D01*
X214743666Y-101149904D01*
X214767476Y-101173714D01*
X214815095Y-101197523D01*
X214957952Y-101197523D01*
X215005571Y-101173714D01*
X215029380Y-101149904D01*
X215053190Y-101102285D01*
X215053190Y-101007047D01*
X215029380Y-100959428D01*
X215053190Y-101411809D02*
X214553190Y-101411809D01*
X214743666Y-101411809D02*
X214719857Y-101459428D01*
X214719857Y-101554666D01*
X214743666Y-101602285D01*
X214767476Y-101626095D01*
X214815095Y-101649904D01*
X214957952Y-101649904D01*
X215005571Y-101626095D01*
X215029380Y-101602285D01*
X215053190Y-101554666D01*
X215053190Y-101459428D01*
X215029380Y-101411809D01*
X215053190Y-102126095D02*
X215053190Y-101840380D01*
X215053190Y-101983238D02*
X214553190Y-101983238D01*
X214624619Y-101935619D01*
X214672238Y-101888000D01*
X214696047Y-101840380D01*
D11*
X216357952Y-162161809D02*
X216310333Y-162066571D01*
X216262714Y-162018952D01*
X216167476Y-161971333D01*
X216119857Y-161971333D01*
X216024619Y-162018952D01*
X215977000Y-162066571D01*
X215929380Y-162161809D01*
X215929380Y-162352285D01*
X215977000Y-162447523D01*
X216024619Y-162495142D01*
X216119857Y-162542761D01*
X216167476Y-162542761D01*
X216262714Y-162495142D01*
X216310333Y-162447523D01*
X216357952Y-162352285D01*
X216357952Y-162161809D01*
X216405571Y-162066571D01*
X216453190Y-162018952D01*
X216548428Y-161971333D01*
X216738904Y-161971333D01*
X216834142Y-162018952D01*
X216881761Y-162066571D01*
X216929380Y-162161809D01*
X216929380Y-162352285D01*
X216881761Y-162447523D01*
X216834142Y-162495142D01*
X216738904Y-162542761D01*
X216548428Y-162542761D01*
X216453190Y-162495142D01*
X216405571Y-162447523D01*
X216357952Y-162352285D01*
X216929380Y-162971333D02*
X215929380Y-162971333D01*
X216548428Y-163066571D02*
X216929380Y-163352285D01*
X216262714Y-163352285D02*
X216643666Y-162971333D01*
X216024619Y-163733238D02*
X215977000Y-163780857D01*
X215929380Y-163876095D01*
X215929380Y-164114190D01*
X215977000Y-164209428D01*
X216024619Y-164257047D01*
X216119857Y-164304666D01*
X216215095Y-164304666D01*
X216357952Y-164257047D01*
X216929380Y-163685619D01*
X216929380Y-164304666D01*
D12*
X215053190Y-162459428D02*
X214815095Y-162292761D01*
X215053190Y-162173714D02*
X214553190Y-162173714D01*
X214553190Y-162364190D01*
X214577000Y-162411809D01*
X214600809Y-162435619D01*
X214648428Y-162459428D01*
X214719857Y-162459428D01*
X214767476Y-162435619D01*
X214791285Y-162411809D01*
X214815095Y-162364190D01*
X214815095Y-162173714D01*
X214719857Y-162602285D02*
X214719857Y-162792761D01*
X215053190Y-162673714D02*
X214624619Y-162673714D01*
X214577000Y-162697523D01*
X214553190Y-162745142D01*
X214553190Y-162792761D01*
X215053190Y-162959428D02*
X214553190Y-162959428D01*
X214743666Y-162959428D02*
X214719857Y-163007047D01*
X214719857Y-163102285D01*
X214743666Y-163149904D01*
X214767476Y-163173714D01*
X214815095Y-163197523D01*
X214957952Y-163197523D01*
X215005571Y-163173714D01*
X215029380Y-163149904D01*
X215053190Y-163102285D01*
X215053190Y-163007047D01*
X215029380Y-162959428D01*
X215053190Y-163411809D02*
X214553190Y-163411809D01*
X214743666Y-163411809D02*
X214719857Y-163459428D01*
X214719857Y-163554666D01*
X214743666Y-163602285D01*
X214767476Y-163626095D01*
X214815095Y-163649904D01*
X214957952Y-163649904D01*
X215005571Y-163626095D01*
X215029380Y-163602285D01*
X215053190Y-163554666D01*
X215053190Y-163459428D01*
X215029380Y-163411809D01*
X215053190Y-164126095D02*
X215053190Y-163840380D01*
X215053190Y-163983238D02*
X214553190Y-163983238D01*
X214624619Y-163935619D01*
X214672238Y-163888000D01*
X214696047Y-163840380D01*
D11*
X106357952Y-38161809D02*
X106310333Y-38066571D01*
X106262714Y-38018952D01*
X106167476Y-37971333D01*
X106119857Y-37971333D01*
X106024619Y-38018952D01*
X105977000Y-38066571D01*
X105929380Y-38161809D01*
X105929380Y-38352285D01*
X105977000Y-38447523D01*
X106024619Y-38495142D01*
X106119857Y-38542761D01*
X106167476Y-38542761D01*
X106262714Y-38495142D01*
X106310333Y-38447523D01*
X106357952Y-38352285D01*
X106357952Y-38161809D01*
X106405571Y-38066571D01*
X106453190Y-38018952D01*
X106548428Y-37971333D01*
X106738904Y-37971333D01*
X106834142Y-38018952D01*
X106881761Y-38066571D01*
X106929380Y-38161809D01*
X106929380Y-38352285D01*
X106881761Y-38447523D01*
X106834142Y-38495142D01*
X106738904Y-38542761D01*
X106548428Y-38542761D01*
X106453190Y-38495142D01*
X106405571Y-38447523D01*
X106357952Y-38352285D01*
X106929380Y-38971333D02*
X105929380Y-38971333D01*
X106548428Y-39066571D02*
X106929380Y-39352285D01*
X106262714Y-39352285D02*
X106643666Y-38971333D01*
X106024619Y-39733238D02*
X105977000Y-39780857D01*
X105929380Y-39876095D01*
X105929380Y-40114190D01*
X105977000Y-40209428D01*
X106024619Y-40257047D01*
X106119857Y-40304666D01*
X106215095Y-40304666D01*
X106357952Y-40257047D01*
X106929380Y-39685619D01*
X106929380Y-40304666D01*
D12*
X105053190Y-38459428D02*
X104815095Y-38292761D01*
X105053190Y-38173714D02*
X104553190Y-38173714D01*
X104553190Y-38364190D01*
X104577000Y-38411809D01*
X104600809Y-38435619D01*
X104648428Y-38459428D01*
X104719857Y-38459428D01*
X104767476Y-38435619D01*
X104791285Y-38411809D01*
X104815095Y-38364190D01*
X104815095Y-38173714D01*
X104719857Y-38602285D02*
X104719857Y-38792761D01*
X105053190Y-38673714D02*
X104624619Y-38673714D01*
X104577000Y-38697523D01*
X104553190Y-38745142D01*
X104553190Y-38792761D01*
X105053190Y-38959428D02*
X104553190Y-38959428D01*
X104743666Y-38959428D02*
X104719857Y-39007047D01*
X104719857Y-39102285D01*
X104743666Y-39149904D01*
X104767476Y-39173714D01*
X104815095Y-39197523D01*
X104957952Y-39197523D01*
X105005571Y-39173714D01*
X105029380Y-39149904D01*
X105053190Y-39102285D01*
X105053190Y-39007047D01*
X105029380Y-38959428D01*
X105053190Y-39411809D02*
X104553190Y-39411809D01*
X104743666Y-39411809D02*
X104719857Y-39459428D01*
X104719857Y-39554666D01*
X104743666Y-39602285D01*
X104767476Y-39626095D01*
X104815095Y-39649904D01*
X104957952Y-39649904D01*
X105005571Y-39626095D01*
X105029380Y-39602285D01*
X105053190Y-39554666D01*
X105053190Y-39459428D01*
X105029380Y-39411809D01*
X105053190Y-40126095D02*
X105053190Y-39840380D01*
X105053190Y-39983238D02*
X104553190Y-39983238D01*
X104624619Y-39935619D01*
X104672238Y-39888000D01*
X104696047Y-39840380D01*
D11*
X106357952Y-100161809D02*
X106310333Y-100066571D01*
X106262714Y-100018952D01*
X106167476Y-99971333D01*
X106119857Y-99971333D01*
X106024619Y-100018952D01*
X105977000Y-100066571D01*
X105929380Y-100161809D01*
X105929380Y-100352285D01*
X105977000Y-100447523D01*
X106024619Y-100495142D01*
X106119857Y-100542761D01*
X106167476Y-100542761D01*
X106262714Y-100495142D01*
X106310333Y-100447523D01*
X106357952Y-100352285D01*
X106357952Y-100161809D01*
X106405571Y-100066571D01*
X106453190Y-100018952D01*
X106548428Y-99971333D01*
X106738904Y-99971333D01*
X106834142Y-100018952D01*
X106881761Y-100066571D01*
X106929380Y-100161809D01*
X106929380Y-100352285D01*
X106881761Y-100447523D01*
X106834142Y-100495142D01*
X106738904Y-100542761D01*
X106548428Y-100542761D01*
X106453190Y-100495142D01*
X106405571Y-100447523D01*
X106357952Y-100352285D01*
X106929380Y-100971333D02*
X105929380Y-100971333D01*
X106548428Y-101066571D02*
X106929380Y-101352285D01*
X106262714Y-101352285D02*
X106643666Y-100971333D01*
X106024619Y-101733238D02*
X105977000Y-101780857D01*
X105929380Y-101876095D01*
X105929380Y-102114190D01*
X105977000Y-102209428D01*
X106024619Y-102257047D01*
X106119857Y-102304666D01*
X106215095Y-102304666D01*
X106357952Y-102257047D01*
X106929380Y-101685619D01*
X106929380Y-102304666D01*
D12*
X105053190Y-100459428D02*
X104815095Y-100292761D01*
X105053190Y-100173714D02*
X104553190Y-100173714D01*
X104553190Y-100364190D01*
X104577000Y-100411809D01*
X104600809Y-100435619D01*
X104648428Y-100459428D01*
X104719857Y-100459428D01*
X104767476Y-100435619D01*
X104791285Y-100411809D01*
X104815095Y-100364190D01*
X104815095Y-100173714D01*
X104719857Y-100602285D02*
X104719857Y-100792761D01*
X105053190Y-100673714D02*
X104624619Y-100673714D01*
X104577000Y-100697523D01*
X104553190Y-100745142D01*
X104553190Y-100792761D01*
X105053190Y-100959428D02*
X104553190Y-100959428D01*
X104743666Y-100959428D02*
X104719857Y-101007047D01*
X104719857Y-101102285D01*
X104743666Y-101149904D01*
X104767476Y-101173714D01*
X104815095Y-101197523D01*
X104957952Y-101197523D01*
X105005571Y-101173714D01*
X105029380Y-101149904D01*
X105053190Y-101102285D01*
X105053190Y-101007047D01*
X105029380Y-100959428D01*
X105053190Y-101411809D02*
X104553190Y-101411809D01*
X104743666Y-101411809D02*
X104719857Y-101459428D01*
X104719857Y-101554666D01*
X104743666Y-101602285D01*
X104767476Y-101626095D01*
X104815095Y-101649904D01*
X104957952Y-101649904D01*
X105005571Y-101626095D01*
X105029380Y-101602285D01*
X105053190Y-101554666D01*
X105053190Y-101459428D01*
X105029380Y-101411809D01*
X105053190Y-102126095D02*
X105053190Y-101840380D01*
X105053190Y-101983238D02*
X104553190Y-101983238D01*
X104624619Y-101935619D01*
X104672238Y-101888000D01*
X104696047Y-101840380D01*
D11*
X191359380Y-40489904D02*
X191311761Y-40394666D01*
X191264142Y-40347047D01*
X191168904Y-40299428D01*
X190883190Y-40299428D01*
X190787952Y-40347047D01*
X190740333Y-40394666D01*
X190692714Y-40489904D01*
X190692714Y-40632761D01*
X190740333Y-40728000D01*
X190787952Y-40775619D01*
X190883190Y-40823238D01*
X191168904Y-40823238D01*
X191264142Y-40775619D01*
X191311761Y-40728000D01*
X191359380Y-40632761D01*
X191359380Y-40489904D01*
X191264142Y-41251809D02*
X191311761Y-41299428D01*
X191359380Y-41251809D01*
X191311761Y-41204190D01*
X191264142Y-41251809D01*
X191359380Y-41251809D01*
X191359380Y-42251809D02*
X191359380Y-41680380D01*
X191359380Y-41966095D02*
X190359380Y-41966095D01*
X190502238Y-41870857D01*
X190597476Y-41775619D01*
X190645095Y-41680380D01*
X190692714Y-43108952D02*
X191359380Y-43108952D01*
X190692714Y-42680380D02*
X191216523Y-42680380D01*
X191311761Y-42728000D01*
X191359380Y-42823238D01*
X191359380Y-42966095D01*
X191311761Y-43061333D01*
X191264142Y-43108952D01*
D12*
X192735571Y-41418476D02*
X192759380Y-41394666D01*
X192783190Y-41323238D01*
X192783190Y-41275619D01*
X192759380Y-41204190D01*
X192711761Y-41156571D01*
X192664142Y-41132761D01*
X192568904Y-41108952D01*
X192497476Y-41108952D01*
X192402238Y-41132761D01*
X192354619Y-41156571D01*
X192307000Y-41204190D01*
X192283190Y-41275619D01*
X192283190Y-41323238D01*
X192307000Y-41394666D01*
X192330809Y-41418476D01*
X192783190Y-41704190D02*
X192759380Y-41656571D01*
X192735571Y-41632761D01*
X192687952Y-41608952D01*
X192545095Y-41608952D01*
X192497476Y-41632761D01*
X192473666Y-41656571D01*
X192449857Y-41704190D01*
X192449857Y-41775619D01*
X192473666Y-41823238D01*
X192497476Y-41847047D01*
X192545095Y-41870857D01*
X192687952Y-41870857D01*
X192735571Y-41847047D01*
X192759380Y-41823238D01*
X192783190Y-41775619D01*
X192783190Y-41704190D01*
X192283190Y-42037523D02*
X192283190Y-42347047D01*
X192473666Y-42180380D01*
X192473666Y-42251809D01*
X192497476Y-42299428D01*
X192521285Y-42323238D01*
X192568904Y-42347047D01*
X192687952Y-42347047D01*
X192735571Y-42323238D01*
X192759380Y-42299428D01*
X192783190Y-42251809D01*
X192783190Y-42108952D01*
X192759380Y-42061333D01*
X192735571Y-42037523D01*
D11*
X191359380Y-102489904D02*
X191311761Y-102394666D01*
X191264142Y-102347047D01*
X191168904Y-102299428D01*
X190883190Y-102299428D01*
X190787952Y-102347047D01*
X190740333Y-102394666D01*
X190692714Y-102489904D01*
X190692714Y-102632761D01*
X190740333Y-102728000D01*
X190787952Y-102775619D01*
X190883190Y-102823238D01*
X191168904Y-102823238D01*
X191264142Y-102775619D01*
X191311761Y-102728000D01*
X191359380Y-102632761D01*
X191359380Y-102489904D01*
X191264142Y-103251809D02*
X191311761Y-103299428D01*
X191359380Y-103251809D01*
X191311761Y-103204190D01*
X191264142Y-103251809D01*
X191359380Y-103251809D01*
X191359380Y-104251809D02*
X191359380Y-103680380D01*
X191359380Y-103966095D02*
X190359380Y-103966095D01*
X190502238Y-103870857D01*
X190597476Y-103775619D01*
X190645095Y-103680380D01*
X190692714Y-105108952D02*
X191359380Y-105108952D01*
X190692714Y-104680380D02*
X191216523Y-104680380D01*
X191311761Y-104728000D01*
X191359380Y-104823238D01*
X191359380Y-104966095D01*
X191311761Y-105061333D01*
X191264142Y-105108952D01*
D12*
X192735571Y-103418476D02*
X192759380Y-103394666D01*
X192783190Y-103323238D01*
X192783190Y-103275619D01*
X192759380Y-103204190D01*
X192711761Y-103156571D01*
X192664142Y-103132761D01*
X192568904Y-103108952D01*
X192497476Y-103108952D01*
X192402238Y-103132761D01*
X192354619Y-103156571D01*
X192307000Y-103204190D01*
X192283190Y-103275619D01*
X192283190Y-103323238D01*
X192307000Y-103394666D01*
X192330809Y-103418476D01*
X192783190Y-103704190D02*
X192759380Y-103656571D01*
X192735571Y-103632761D01*
X192687952Y-103608952D01*
X192545095Y-103608952D01*
X192497476Y-103632761D01*
X192473666Y-103656571D01*
X192449857Y-103704190D01*
X192449857Y-103775619D01*
X192473666Y-103823238D01*
X192497476Y-103847047D01*
X192545095Y-103870857D01*
X192687952Y-103870857D01*
X192735571Y-103847047D01*
X192759380Y-103823238D01*
X192783190Y-103775619D01*
X192783190Y-103704190D01*
X192283190Y-104037523D02*
X192283190Y-104347047D01*
X192473666Y-104180380D01*
X192473666Y-104251809D01*
X192497476Y-104299428D01*
X192521285Y-104323238D01*
X192568904Y-104347047D01*
X192687952Y-104347047D01*
X192735571Y-104323238D01*
X192759380Y-104299428D01*
X192783190Y-104251809D01*
X192783190Y-104108952D01*
X192759380Y-104061333D01*
X192735571Y-104037523D01*
D11*
X191359380Y-164489904D02*
X191311761Y-164394666D01*
X191264142Y-164347047D01*
X191168904Y-164299428D01*
X190883190Y-164299428D01*
X190787952Y-164347047D01*
X190740333Y-164394666D01*
X190692714Y-164489904D01*
X190692714Y-164632761D01*
X190740333Y-164728000D01*
X190787952Y-164775619D01*
X190883190Y-164823238D01*
X191168904Y-164823238D01*
X191264142Y-164775619D01*
X191311761Y-164728000D01*
X191359380Y-164632761D01*
X191359380Y-164489904D01*
X191264142Y-165251809D02*
X191311761Y-165299428D01*
X191359380Y-165251809D01*
X191311761Y-165204190D01*
X191264142Y-165251809D01*
X191359380Y-165251809D01*
X191359380Y-166251809D02*
X191359380Y-165680380D01*
X191359380Y-165966095D02*
X190359380Y-165966095D01*
X190502238Y-165870857D01*
X190597476Y-165775619D01*
X190645095Y-165680380D01*
X190692714Y-167108952D02*
X191359380Y-167108952D01*
X190692714Y-166680380D02*
X191216523Y-166680380D01*
X191311761Y-166728000D01*
X191359380Y-166823238D01*
X191359380Y-166966095D01*
X191311761Y-167061333D01*
X191264142Y-167108952D01*
D12*
X192735571Y-165418476D02*
X192759380Y-165394666D01*
X192783190Y-165323238D01*
X192783190Y-165275619D01*
X192759380Y-165204190D01*
X192711761Y-165156571D01*
X192664142Y-165132761D01*
X192568904Y-165108952D01*
X192497476Y-165108952D01*
X192402238Y-165132761D01*
X192354619Y-165156571D01*
X192307000Y-165204190D01*
X192283190Y-165275619D01*
X192283190Y-165323238D01*
X192307000Y-165394666D01*
X192330809Y-165418476D01*
X192783190Y-165704190D02*
X192759380Y-165656571D01*
X192735571Y-165632761D01*
X192687952Y-165608952D01*
X192545095Y-165608952D01*
X192497476Y-165632761D01*
X192473666Y-165656571D01*
X192449857Y-165704190D01*
X192449857Y-165775619D01*
X192473666Y-165823238D01*
X192497476Y-165847047D01*
X192545095Y-165870857D01*
X192687952Y-165870857D01*
X192735571Y-165847047D01*
X192759380Y-165823238D01*
X192783190Y-165775619D01*
X192783190Y-165704190D01*
X192283190Y-166037523D02*
X192283190Y-166347047D01*
X192473666Y-166180380D01*
X192473666Y-166251809D01*
X192497476Y-166299428D01*
X192521285Y-166323238D01*
X192568904Y-166347047D01*
X192687952Y-166347047D01*
X192735571Y-166323238D01*
X192759380Y-166299428D01*
X192783190Y-166251809D01*
X192783190Y-166108952D01*
X192759380Y-166061333D01*
X192735571Y-166037523D01*
D11*
X81359380Y-40489904D02*
X81311761Y-40394666D01*
X81264142Y-40347047D01*
X81168904Y-40299428D01*
X80883190Y-40299428D01*
X80787952Y-40347047D01*
X80740333Y-40394666D01*
X80692714Y-40489904D01*
X80692714Y-40632761D01*
X80740333Y-40728000D01*
X80787952Y-40775619D01*
X80883190Y-40823238D01*
X81168904Y-40823238D01*
X81264142Y-40775619D01*
X81311761Y-40728000D01*
X81359380Y-40632761D01*
X81359380Y-40489904D01*
X81264142Y-41251809D02*
X81311761Y-41299428D01*
X81359380Y-41251809D01*
X81311761Y-41204190D01*
X81264142Y-41251809D01*
X81359380Y-41251809D01*
X81359380Y-42251809D02*
X81359380Y-41680380D01*
X81359380Y-41966095D02*
X80359380Y-41966095D01*
X80502238Y-41870857D01*
X80597476Y-41775619D01*
X80645095Y-41680380D01*
X80692714Y-43108952D02*
X81359380Y-43108952D01*
X80692714Y-42680380D02*
X81216523Y-42680380D01*
X81311761Y-42728000D01*
X81359380Y-42823238D01*
X81359380Y-42966095D01*
X81311761Y-43061333D01*
X81264142Y-43108952D01*
D12*
X82735571Y-41418476D02*
X82759380Y-41394666D01*
X82783190Y-41323238D01*
X82783190Y-41275619D01*
X82759380Y-41204190D01*
X82711761Y-41156571D01*
X82664142Y-41132761D01*
X82568904Y-41108952D01*
X82497476Y-41108952D01*
X82402238Y-41132761D01*
X82354619Y-41156571D01*
X82307000Y-41204190D01*
X82283190Y-41275619D01*
X82283190Y-41323238D01*
X82307000Y-41394666D01*
X82330809Y-41418476D01*
X82783190Y-41704190D02*
X82759380Y-41656571D01*
X82735571Y-41632761D01*
X82687952Y-41608952D01*
X82545095Y-41608952D01*
X82497476Y-41632761D01*
X82473666Y-41656571D01*
X82449857Y-41704190D01*
X82449857Y-41775619D01*
X82473666Y-41823238D01*
X82497476Y-41847047D01*
X82545095Y-41870857D01*
X82687952Y-41870857D01*
X82735571Y-41847047D01*
X82759380Y-41823238D01*
X82783190Y-41775619D01*
X82783190Y-41704190D01*
X82283190Y-42037523D02*
X82283190Y-42347047D01*
X82473666Y-42180380D01*
X82473666Y-42251809D01*
X82497476Y-42299428D01*
X82521285Y-42323238D01*
X82568904Y-42347047D01*
X82687952Y-42347047D01*
X82735571Y-42323238D01*
X82759380Y-42299428D01*
X82783190Y-42251809D01*
X82783190Y-42108952D01*
X82759380Y-42061333D01*
X82735571Y-42037523D01*
D11*
X81359380Y-102489904D02*
X81311761Y-102394666D01*
X81264142Y-102347047D01*
X81168904Y-102299428D01*
X80883190Y-102299428D01*
X80787952Y-102347047D01*
X80740333Y-102394666D01*
X80692714Y-102489904D01*
X80692714Y-102632761D01*
X80740333Y-102728000D01*
X80787952Y-102775619D01*
X80883190Y-102823238D01*
X81168904Y-102823238D01*
X81264142Y-102775619D01*
X81311761Y-102728000D01*
X81359380Y-102632761D01*
X81359380Y-102489904D01*
X81264142Y-103251809D02*
X81311761Y-103299428D01*
X81359380Y-103251809D01*
X81311761Y-103204190D01*
X81264142Y-103251809D01*
X81359380Y-103251809D01*
X81359380Y-104251809D02*
X81359380Y-103680380D01*
X81359380Y-103966095D02*
X80359380Y-103966095D01*
X80502238Y-103870857D01*
X80597476Y-103775619D01*
X80645095Y-103680380D01*
X80692714Y-105108952D02*
X81359380Y-105108952D01*
X80692714Y-104680380D02*
X81216523Y-104680380D01*
X81311761Y-104728000D01*
X81359380Y-104823238D01*
X81359380Y-104966095D01*
X81311761Y-105061333D01*
X81264142Y-105108952D01*
D12*
X82735571Y-103418476D02*
X82759380Y-103394666D01*
X82783190Y-103323238D01*
X82783190Y-103275619D01*
X82759380Y-103204190D01*
X82711761Y-103156571D01*
X82664142Y-103132761D01*
X82568904Y-103108952D01*
X82497476Y-103108952D01*
X82402238Y-103132761D01*
X82354619Y-103156571D01*
X82307000Y-103204190D01*
X82283190Y-103275619D01*
X82283190Y-103323238D01*
X82307000Y-103394666D01*
X82330809Y-103418476D01*
X82783190Y-103704190D02*
X82759380Y-103656571D01*
X82735571Y-103632761D01*
X82687952Y-103608952D01*
X82545095Y-103608952D01*
X82497476Y-103632761D01*
X82473666Y-103656571D01*
X82449857Y-103704190D01*
X82449857Y-103775619D01*
X82473666Y-103823238D01*
X82497476Y-103847047D01*
X82545095Y-103870857D01*
X82687952Y-103870857D01*
X82735571Y-103847047D01*
X82759380Y-103823238D01*
X82783190Y-103775619D01*
X82783190Y-103704190D01*
X82283190Y-104037523D02*
X82283190Y-104347047D01*
X82473666Y-104180380D01*
X82473666Y-104251809D01*
X82497476Y-104299428D01*
X82521285Y-104323238D01*
X82568904Y-104347047D01*
X82687952Y-104347047D01*
X82735571Y-104323238D01*
X82759380Y-104299428D01*
X82783190Y-104251809D01*
X82783190Y-104108952D01*
X82759380Y-104061333D01*
X82735571Y-104037523D01*
D11*
X229629380Y-36518714D02*
X228629380Y-36518714D01*
X229629380Y-37090142D01*
X228629380Y-37090142D01*
X229343666Y-37518714D02*
X229343666Y-37994904D01*
X229629380Y-37423476D02*
X228629380Y-37756809D01*
X229629380Y-38090142D01*
D12*
X227003190Y-37149666D02*
X226765095Y-36983000D01*
X227003190Y-36863952D02*
X226503190Y-36863952D01*
X226503190Y-37054428D01*
X226527000Y-37102047D01*
X226550809Y-37125857D01*
X226598428Y-37149666D01*
X226669857Y-37149666D01*
X226717476Y-37125857D01*
X226741285Y-37102047D01*
X226765095Y-37054428D01*
X226765095Y-36863952D01*
X226503190Y-37578238D02*
X226503190Y-37483000D01*
X226527000Y-37435380D01*
X226550809Y-37411571D01*
X226622238Y-37363952D01*
X226717476Y-37340142D01*
X226907952Y-37340142D01*
X226955571Y-37363952D01*
X226979380Y-37387761D01*
X227003190Y-37435380D01*
X227003190Y-37530619D01*
X226979380Y-37578238D01*
X226955571Y-37602047D01*
X226907952Y-37625857D01*
X226788904Y-37625857D01*
X226741285Y-37602047D01*
X226717476Y-37578238D01*
X226693666Y-37530619D01*
X226693666Y-37435380D01*
X226717476Y-37387761D01*
X226741285Y-37363952D01*
X226788904Y-37340142D01*
D11*
X229629380Y-98518714D02*
X228629380Y-98518714D01*
X229629380Y-99090142D01*
X228629380Y-99090142D01*
X229343666Y-99518714D02*
X229343666Y-99994904D01*
X229629380Y-99423476D02*
X228629380Y-99756809D01*
X229629380Y-100090142D01*
D12*
X227003190Y-99149666D02*
X226765095Y-98983000D01*
X227003190Y-98863952D02*
X226503190Y-98863952D01*
X226503190Y-99054428D01*
X226527000Y-99102047D01*
X226550809Y-99125857D01*
X226598428Y-99149666D01*
X226669857Y-99149666D01*
X226717476Y-99125857D01*
X226741285Y-99102047D01*
X226765095Y-99054428D01*
X226765095Y-98863952D01*
X226503190Y-99578238D02*
X226503190Y-99483000D01*
X226527000Y-99435380D01*
X226550809Y-99411571D01*
X226622238Y-99363952D01*
X226717476Y-99340142D01*
X226907952Y-99340142D01*
X226955571Y-99363952D01*
X226979380Y-99387761D01*
X227003190Y-99435380D01*
X227003190Y-99530619D01*
X226979380Y-99578238D01*
X226955571Y-99602047D01*
X226907952Y-99625857D01*
X226788904Y-99625857D01*
X226741285Y-99602047D01*
X226717476Y-99578238D01*
X226693666Y-99530619D01*
X226693666Y-99435380D01*
X226717476Y-99387761D01*
X226741285Y-99363952D01*
X226788904Y-99340142D01*
D11*
X229629380Y-160518714D02*
X228629380Y-160518714D01*
X229629380Y-161090142D01*
X228629380Y-161090142D01*
X229343666Y-161518714D02*
X229343666Y-161994904D01*
X229629380Y-161423476D02*
X228629380Y-161756809D01*
X229629380Y-162090142D01*
D12*
X227003190Y-161149666D02*
X226765095Y-160983000D01*
X227003190Y-160863952D02*
X226503190Y-160863952D01*
X226503190Y-161054428D01*
X226527000Y-161102047D01*
X226550809Y-161125857D01*
X226598428Y-161149666D01*
X226669857Y-161149666D01*
X226717476Y-161125857D01*
X226741285Y-161102047D01*
X226765095Y-161054428D01*
X226765095Y-160863952D01*
X226503190Y-161578238D02*
X226503190Y-161483000D01*
X226527000Y-161435380D01*
X226550809Y-161411571D01*
X226622238Y-161363952D01*
X226717476Y-161340142D01*
X226907952Y-161340142D01*
X226955571Y-161363952D01*
X226979380Y-161387761D01*
X227003190Y-161435380D01*
X227003190Y-161530619D01*
X226979380Y-161578238D01*
X226955571Y-161602047D01*
X226907952Y-161625857D01*
X226788904Y-161625857D01*
X226741285Y-161602047D01*
X226717476Y-161578238D01*
X226693666Y-161530619D01*
X226693666Y-161435380D01*
X226717476Y-161387761D01*
X226741285Y-161363952D01*
X226788904Y-161340142D01*
D11*
X119629380Y-36518714D02*
X118629380Y-36518714D01*
X119629380Y-37090142D01*
X118629380Y-37090142D01*
X119343666Y-37518714D02*
X119343666Y-37994904D01*
X119629380Y-37423476D02*
X118629380Y-37756809D01*
X119629380Y-38090142D01*
D12*
X117003190Y-37149666D02*
X116765095Y-36983000D01*
X117003190Y-36863952D02*
X116503190Y-36863952D01*
X116503190Y-37054428D01*
X116527000Y-37102047D01*
X116550809Y-37125857D01*
X116598428Y-37149666D01*
X116669857Y-37149666D01*
X116717476Y-37125857D01*
X116741285Y-37102047D01*
X116765095Y-37054428D01*
X116765095Y-36863952D01*
X116503190Y-37578238D02*
X116503190Y-37483000D01*
X116527000Y-37435380D01*
X116550809Y-37411571D01*
X116622238Y-37363952D01*
X116717476Y-37340142D01*
X116907952Y-37340142D01*
X116955571Y-37363952D01*
X116979380Y-37387761D01*
X117003190Y-37435380D01*
X117003190Y-37530619D01*
X116979380Y-37578238D01*
X116955571Y-37602047D01*
X116907952Y-37625857D01*
X116788904Y-37625857D01*
X116741285Y-37602047D01*
X116717476Y-37578238D01*
X116693666Y-37530619D01*
X116693666Y-37435380D01*
X116717476Y-37387761D01*
X116741285Y-37363952D01*
X116788904Y-37340142D01*
D11*
X119629380Y-98518714D02*
X118629380Y-98518714D01*
X119629380Y-99090142D01*
X118629380Y-99090142D01*
X119343666Y-99518714D02*
X119343666Y-99994904D01*
X119629380Y-99423476D02*
X118629380Y-99756809D01*
X119629380Y-100090142D01*
D12*
X117003190Y-99149666D02*
X116765095Y-98983000D01*
X117003190Y-98863952D02*
X116503190Y-98863952D01*
X116503190Y-99054428D01*
X116527000Y-99102047D01*
X116550809Y-99125857D01*
X116598428Y-99149666D01*
X116669857Y-99149666D01*
X116717476Y-99125857D01*
X116741285Y-99102047D01*
X116765095Y-99054428D01*
X116765095Y-98863952D01*
X116503190Y-99578238D02*
X116503190Y-99483000D01*
X116527000Y-99435380D01*
X116550809Y-99411571D01*
X116622238Y-99363952D01*
X116717476Y-99340142D01*
X116907952Y-99340142D01*
X116955571Y-99363952D01*
X116979380Y-99387761D01*
X117003190Y-99435380D01*
X117003190Y-99530619D01*
X116979380Y-99578238D01*
X116955571Y-99602047D01*
X116907952Y-99625857D01*
X116788904Y-99625857D01*
X116741285Y-99602047D01*
X116717476Y-99578238D01*
X116693666Y-99530619D01*
X116693666Y-99435380D01*
X116717476Y-99387761D01*
X116741285Y-99363952D01*
X116788904Y-99340142D01*
D11*
X213994619Y-41940142D02*
X213947000Y-41987761D01*
X213899380Y-42083000D01*
X213899380Y-42321095D01*
X213947000Y-42416333D01*
X213994619Y-42463952D01*
X214089857Y-42511571D01*
X214185095Y-42511571D01*
X214327952Y-42463952D01*
X214899380Y-41892523D01*
X214899380Y-42511571D01*
X213899380Y-42844904D02*
X213899380Y-43463952D01*
X214280333Y-43130619D01*
X214280333Y-43273476D01*
X214327952Y-43368714D01*
X214375571Y-43416333D01*
X214470809Y-43463952D01*
X214708904Y-43463952D01*
X214804142Y-43416333D01*
X214851761Y-43368714D01*
X214899380Y-43273476D01*
X214899380Y-42987761D01*
X214851761Y-42892523D01*
X214804142Y-42844904D01*
X213899380Y-44083000D02*
X213899380Y-44178238D01*
X213947000Y-44273476D01*
X213994619Y-44321095D01*
X214089857Y-44368714D01*
X214280333Y-44416333D01*
X214518428Y-44416333D01*
X214708904Y-44368714D01*
X214804142Y-44321095D01*
X214851761Y-44273476D01*
X214899380Y-44178238D01*
X214899380Y-44083000D01*
X214851761Y-43987761D01*
X214804142Y-43940142D01*
X214708904Y-43892523D01*
X214518428Y-43844904D01*
X214280333Y-43844904D01*
X214089857Y-43892523D01*
X213994619Y-43940142D01*
X213947000Y-43987761D01*
X213899380Y-44083000D01*
X214899380Y-44844904D02*
X213899380Y-44844904D01*
X214518428Y-44940142D02*
X214899380Y-45225857D01*
X214232714Y-45225857D02*
X214613666Y-44844904D01*
D12*
X216323190Y-42987761D02*
X216085095Y-42821095D01*
X216323190Y-42702047D02*
X215823190Y-42702047D01*
X215823190Y-42892523D01*
X215847000Y-42940142D01*
X215870809Y-42963952D01*
X215918428Y-42987761D01*
X215989857Y-42987761D01*
X216037476Y-42963952D01*
X216061285Y-42940142D01*
X216085095Y-42892523D01*
X216085095Y-42702047D01*
X215989857Y-43130619D02*
X215989857Y-43321095D01*
X216323190Y-43202047D02*
X215894619Y-43202047D01*
X215847000Y-43225857D01*
X215823190Y-43273476D01*
X215823190Y-43321095D01*
X216323190Y-43487761D02*
X215823190Y-43487761D01*
X216013666Y-43487761D02*
X215989857Y-43535380D01*
X215989857Y-43630619D01*
X216013666Y-43678238D01*
X216037476Y-43702047D01*
X216085095Y-43725857D01*
X216227952Y-43725857D01*
X216275571Y-43702047D01*
X216299380Y-43678238D01*
X216323190Y-43630619D01*
X216323190Y-43535380D01*
X216299380Y-43487761D01*
X215989857Y-43868714D02*
X215989857Y-44059190D01*
X215823190Y-43940142D02*
X216251761Y-43940142D01*
X216299380Y-43963952D01*
X216323190Y-44011571D01*
X216323190Y-44059190D01*
X215870809Y-44202047D02*
X215847000Y-44225857D01*
X215823190Y-44273476D01*
X215823190Y-44392523D01*
X215847000Y-44440142D01*
X215870809Y-44463952D01*
X215918428Y-44487761D01*
X215966047Y-44487761D01*
X216037476Y-44463952D01*
X216323190Y-44178238D01*
X216323190Y-44487761D01*
D11*
X213994619Y-103940142D02*
X213947000Y-103987761D01*
X213899380Y-104083000D01*
X213899380Y-104321095D01*
X213947000Y-104416333D01*
X213994619Y-104463952D01*
X214089857Y-104511571D01*
X214185095Y-104511571D01*
X214327952Y-104463952D01*
X214899380Y-103892523D01*
X214899380Y-104511571D01*
X213899380Y-104844904D02*
X213899380Y-105463952D01*
X214280333Y-105130619D01*
X214280333Y-105273476D01*
X214327952Y-105368714D01*
X214375571Y-105416333D01*
X214470809Y-105463952D01*
X214708904Y-105463952D01*
X214804142Y-105416333D01*
X214851761Y-105368714D01*
X214899380Y-105273476D01*
X214899380Y-104987761D01*
X214851761Y-104892523D01*
X214804142Y-104844904D01*
X213899380Y-106083000D02*
X213899380Y-106178238D01*
X213947000Y-106273476D01*
X213994619Y-106321095D01*
X214089857Y-106368714D01*
X214280333Y-106416333D01*
X214518428Y-106416333D01*
X214708904Y-106368714D01*
X214804142Y-106321095D01*
X214851761Y-106273476D01*
X214899380Y-106178238D01*
X214899380Y-106083000D01*
X214851761Y-105987761D01*
X214804142Y-105940142D01*
X214708904Y-105892523D01*
X214518428Y-105844904D01*
X214280333Y-105844904D01*
X214089857Y-105892523D01*
X213994619Y-105940142D01*
X213947000Y-105987761D01*
X213899380Y-106083000D01*
X214899380Y-106844904D02*
X213899380Y-106844904D01*
X214518428Y-106940142D02*
X214899380Y-107225857D01*
X214232714Y-107225857D02*
X214613666Y-106844904D01*
D12*
X216323190Y-104987761D02*
X216085095Y-104821095D01*
X216323190Y-104702047D02*
X215823190Y-104702047D01*
X215823190Y-104892523D01*
X215847000Y-104940142D01*
X215870809Y-104963952D01*
X215918428Y-104987761D01*
X215989857Y-104987761D01*
X216037476Y-104963952D01*
X216061285Y-104940142D01*
X216085095Y-104892523D01*
X216085095Y-104702047D01*
X215989857Y-105130619D02*
X215989857Y-105321095D01*
X216323190Y-105202047D02*
X215894619Y-105202047D01*
X215847000Y-105225857D01*
X215823190Y-105273476D01*
X215823190Y-105321095D01*
X216323190Y-105487761D02*
X215823190Y-105487761D01*
X216013666Y-105487761D02*
X215989857Y-105535380D01*
X215989857Y-105630619D01*
X216013666Y-105678238D01*
X216037476Y-105702047D01*
X216085095Y-105725857D01*
X216227952Y-105725857D01*
X216275571Y-105702047D01*
X216299380Y-105678238D01*
X216323190Y-105630619D01*
X216323190Y-105535380D01*
X216299380Y-105487761D01*
X215989857Y-105868714D02*
X215989857Y-106059190D01*
X215823190Y-105940142D02*
X216251761Y-105940142D01*
X216299380Y-105963952D01*
X216323190Y-106011571D01*
X216323190Y-106059190D01*
X215870809Y-106202047D02*
X215847000Y-106225857D01*
X215823190Y-106273476D01*
X215823190Y-106392523D01*
X215847000Y-106440142D01*
X215870809Y-106463952D01*
X215918428Y-106487761D01*
X215966047Y-106487761D01*
X216037476Y-106463952D01*
X216323190Y-106178238D01*
X216323190Y-106487761D01*
D11*
X213994619Y-165940142D02*
X213947000Y-165987761D01*
X213899380Y-166083000D01*
X213899380Y-166321095D01*
X213947000Y-166416333D01*
X213994619Y-166463952D01*
X214089857Y-166511571D01*
X214185095Y-166511571D01*
X214327952Y-166463952D01*
X214899380Y-165892523D01*
X214899380Y-166511571D01*
X213899380Y-166844904D02*
X213899380Y-167463952D01*
X214280333Y-167130619D01*
X214280333Y-167273476D01*
X214327952Y-167368714D01*
X214375571Y-167416333D01*
X214470809Y-167463952D01*
X214708904Y-167463952D01*
X214804142Y-167416333D01*
X214851761Y-167368714D01*
X214899380Y-167273476D01*
X214899380Y-166987761D01*
X214851761Y-166892523D01*
X214804142Y-166844904D01*
X213899380Y-168083000D02*
X213899380Y-168178238D01*
X213947000Y-168273476D01*
X213994619Y-168321095D01*
X214089857Y-168368714D01*
X214280333Y-168416333D01*
X214518428Y-168416333D01*
X214708904Y-168368714D01*
X214804142Y-168321095D01*
X214851761Y-168273476D01*
X214899380Y-168178238D01*
X214899380Y-168083000D01*
X214851761Y-167987761D01*
X214804142Y-167940142D01*
X214708904Y-167892523D01*
X214518428Y-167844904D01*
X214280333Y-167844904D01*
X214089857Y-167892523D01*
X213994619Y-167940142D01*
X213947000Y-167987761D01*
X213899380Y-168083000D01*
X214899380Y-168844904D02*
X213899380Y-168844904D01*
X214518428Y-168940142D02*
X214899380Y-169225857D01*
X214232714Y-169225857D02*
X214613666Y-168844904D01*
D12*
X216323190Y-166987761D02*
X216085095Y-166821095D01*
X216323190Y-166702047D02*
X215823190Y-166702047D01*
X215823190Y-166892523D01*
X215847000Y-166940142D01*
X215870809Y-166963952D01*
X215918428Y-166987761D01*
X215989857Y-166987761D01*
X216037476Y-166963952D01*
X216061285Y-166940142D01*
X216085095Y-166892523D01*
X216085095Y-166702047D01*
X215989857Y-167130619D02*
X215989857Y-167321095D01*
X216323190Y-167202047D02*
X215894619Y-167202047D01*
X215847000Y-167225857D01*
X215823190Y-167273476D01*
X215823190Y-167321095D01*
X216323190Y-167487761D02*
X215823190Y-167487761D01*
X216013666Y-167487761D02*
X215989857Y-167535380D01*
X215989857Y-167630619D01*
X216013666Y-167678238D01*
X216037476Y-167702047D01*
X216085095Y-167725857D01*
X216227952Y-167725857D01*
X216275571Y-167702047D01*
X216299380Y-167678238D01*
X216323190Y-167630619D01*
X216323190Y-167535380D01*
X216299380Y-167487761D01*
X215989857Y-167868714D02*
X215989857Y-168059190D01*
X215823190Y-167940142D02*
X216251761Y-167940142D01*
X216299380Y-167963952D01*
X216323190Y-168011571D01*
X216323190Y-168059190D01*
X215870809Y-168202047D02*
X215847000Y-168225857D01*
X215823190Y-168273476D01*
X215823190Y-168392523D01*
X215847000Y-168440142D01*
X215870809Y-168463952D01*
X215918428Y-168487761D01*
X215966047Y-168487761D01*
X216037476Y-168463952D01*
X216323190Y-168178238D01*
X216323190Y-168487761D01*
D11*
X103994619Y-41940142D02*
X103947000Y-41987761D01*
X103899380Y-42083000D01*
X103899380Y-42321095D01*
X103947000Y-42416333D01*
X103994619Y-42463952D01*
X104089857Y-42511571D01*
X104185095Y-42511571D01*
X104327952Y-42463952D01*
X104899380Y-41892523D01*
X104899380Y-42511571D01*
X103899380Y-42844904D02*
X103899380Y-43463952D01*
X104280333Y-43130619D01*
X104280333Y-43273476D01*
X104327952Y-43368714D01*
X104375571Y-43416333D01*
X104470809Y-43463952D01*
X104708904Y-43463952D01*
X104804142Y-43416333D01*
X104851761Y-43368714D01*
X104899380Y-43273476D01*
X104899380Y-42987761D01*
X104851761Y-42892523D01*
X104804142Y-42844904D01*
X103899380Y-44083000D02*
X103899380Y-44178238D01*
X103947000Y-44273476D01*
X103994619Y-44321095D01*
X104089857Y-44368714D01*
X104280333Y-44416333D01*
X104518428Y-44416333D01*
X104708904Y-44368714D01*
X104804142Y-44321095D01*
X104851761Y-44273476D01*
X104899380Y-44178238D01*
X104899380Y-44083000D01*
X104851761Y-43987761D01*
X104804142Y-43940142D01*
X104708904Y-43892523D01*
X104518428Y-43844904D01*
X104280333Y-43844904D01*
X104089857Y-43892523D01*
X103994619Y-43940142D01*
X103947000Y-43987761D01*
X103899380Y-44083000D01*
X104899380Y-44844904D02*
X103899380Y-44844904D01*
X104518428Y-44940142D02*
X104899380Y-45225857D01*
X104232714Y-45225857D02*
X104613666Y-44844904D01*
D12*
X106323190Y-42987761D02*
X106085095Y-42821095D01*
X106323190Y-42702047D02*
X105823190Y-42702047D01*
X105823190Y-42892523D01*
X105847000Y-42940142D01*
X105870809Y-42963952D01*
X105918428Y-42987761D01*
X105989857Y-42987761D01*
X106037476Y-42963952D01*
X106061285Y-42940142D01*
X106085095Y-42892523D01*
X106085095Y-42702047D01*
X105989857Y-43130619D02*
X105989857Y-43321095D01*
X106323190Y-43202047D02*
X105894619Y-43202047D01*
X105847000Y-43225857D01*
X105823190Y-43273476D01*
X105823190Y-43321095D01*
X106323190Y-43487761D02*
X105823190Y-43487761D01*
X106013666Y-43487761D02*
X105989857Y-43535380D01*
X105989857Y-43630619D01*
X106013666Y-43678238D01*
X106037476Y-43702047D01*
X106085095Y-43725857D01*
X106227952Y-43725857D01*
X106275571Y-43702047D01*
X106299380Y-43678238D01*
X106323190Y-43630619D01*
X106323190Y-43535380D01*
X106299380Y-43487761D01*
X105989857Y-43868714D02*
X105989857Y-44059190D01*
X105823190Y-43940142D02*
X106251761Y-43940142D01*
X106299380Y-43963952D01*
X106323190Y-44011571D01*
X106323190Y-44059190D01*
X105870809Y-44202047D02*
X105847000Y-44225857D01*
X105823190Y-44273476D01*
X105823190Y-44392523D01*
X105847000Y-44440142D01*
X105870809Y-44463952D01*
X105918428Y-44487761D01*
X105966047Y-44487761D01*
X106037476Y-44463952D01*
X106323190Y-44178238D01*
X106323190Y-44487761D01*
D11*
X103994619Y-103940142D02*
X103947000Y-103987761D01*
X103899380Y-104083000D01*
X103899380Y-104321095D01*
X103947000Y-104416333D01*
X103994619Y-104463952D01*
X104089857Y-104511571D01*
X104185095Y-104511571D01*
X104327952Y-104463952D01*
X104899380Y-103892523D01*
X104899380Y-104511571D01*
X103899380Y-104844904D02*
X103899380Y-105463952D01*
X104280333Y-105130619D01*
X104280333Y-105273476D01*
X104327952Y-105368714D01*
X104375571Y-105416333D01*
X104470809Y-105463952D01*
X104708904Y-105463952D01*
X104804142Y-105416333D01*
X104851761Y-105368714D01*
X104899380Y-105273476D01*
X104899380Y-104987761D01*
X104851761Y-104892523D01*
X104804142Y-104844904D01*
X103899380Y-106083000D02*
X103899380Y-106178238D01*
X103947000Y-106273476D01*
X103994619Y-106321095D01*
X104089857Y-106368714D01*
X104280333Y-106416333D01*
X104518428Y-106416333D01*
X104708904Y-106368714D01*
X104804142Y-106321095D01*
X104851761Y-106273476D01*
X104899380Y-106178238D01*
X104899380Y-106083000D01*
X104851761Y-105987761D01*
X104804142Y-105940142D01*
X104708904Y-105892523D01*
X104518428Y-105844904D01*
X104280333Y-105844904D01*
X104089857Y-105892523D01*
X103994619Y-105940142D01*
X103947000Y-105987761D01*
X103899380Y-106083000D01*
X104899380Y-106844904D02*
X103899380Y-106844904D01*
X104518428Y-106940142D02*
X104899380Y-107225857D01*
X104232714Y-107225857D02*
X104613666Y-106844904D01*
D12*
X106323190Y-104987761D02*
X106085095Y-104821095D01*
X106323190Y-104702047D02*
X105823190Y-104702047D01*
X105823190Y-104892523D01*
X105847000Y-104940142D01*
X105870809Y-104963952D01*
X105918428Y-104987761D01*
X105989857Y-104987761D01*
X106037476Y-104963952D01*
X106061285Y-104940142D01*
X106085095Y-104892523D01*
X106085095Y-104702047D01*
X105989857Y-105130619D02*
X105989857Y-105321095D01*
X106323190Y-105202047D02*
X105894619Y-105202047D01*
X105847000Y-105225857D01*
X105823190Y-105273476D01*
X105823190Y-105321095D01*
X106323190Y-105487761D02*
X105823190Y-105487761D01*
X106013666Y-105487761D02*
X105989857Y-105535380D01*
X105989857Y-105630619D01*
X106013666Y-105678238D01*
X106037476Y-105702047D01*
X106085095Y-105725857D01*
X106227952Y-105725857D01*
X106275571Y-105702047D01*
X106299380Y-105678238D01*
X106323190Y-105630619D01*
X106323190Y-105535380D01*
X106299380Y-105487761D01*
X105989857Y-105868714D02*
X105989857Y-106059190D01*
X105823190Y-105940142D02*
X106251761Y-105940142D01*
X106299380Y-105963952D01*
X106323190Y-106011571D01*
X106323190Y-106059190D01*
X105870809Y-106202047D02*
X105847000Y-106225857D01*
X105823190Y-106273476D01*
X105823190Y-106392523D01*
X105847000Y-106440142D01*
X105870809Y-106463952D01*
X105918428Y-106487761D01*
X105966047Y-106487761D01*
X106037476Y-106463952D01*
X106323190Y-106178238D01*
X106323190Y-106487761D01*
D11*
X232044380Y-26160380D02*
X232044380Y-25588952D01*
X232044380Y-25874666D02*
X231044380Y-25874666D01*
X231187238Y-25779428D01*
X231282476Y-25684190D01*
X231330095Y-25588952D01*
X231044380Y-26779428D02*
X231044380Y-26874666D01*
X231092000Y-26969904D01*
X231139619Y-27017523D01*
X231234857Y-27065142D01*
X231425333Y-27112761D01*
X231663428Y-27112761D01*
X231853904Y-27065142D01*
X231949142Y-27017523D01*
X231996761Y-26969904D01*
X232044380Y-26874666D01*
X232044380Y-26779428D01*
X231996761Y-26684190D01*
X231949142Y-26636571D01*
X231853904Y-26588952D01*
X231663428Y-26541333D01*
X231425333Y-26541333D01*
X231234857Y-26588952D01*
X231139619Y-26636571D01*
X231092000Y-26684190D01*
X231044380Y-26779428D01*
X231044380Y-27731809D02*
X231044380Y-27827047D01*
X231092000Y-27922285D01*
X231139619Y-27969904D01*
X231234857Y-28017523D01*
X231425333Y-28065142D01*
X231663428Y-28065142D01*
X231853904Y-28017523D01*
X231949142Y-27969904D01*
X231996761Y-27922285D01*
X232044380Y-27827047D01*
X232044380Y-27731809D01*
X231996761Y-27636571D01*
X231949142Y-27588952D01*
X231853904Y-27541333D01*
X231663428Y-27493714D01*
X231425333Y-27493714D01*
X231234857Y-27541333D01*
X231139619Y-27588952D01*
X231092000Y-27636571D01*
X231044380Y-27731809D01*
X231377714Y-28493714D02*
X232044380Y-28493714D01*
X231472952Y-28493714D02*
X231425333Y-28541333D01*
X231377714Y-28636571D01*
X231377714Y-28779428D01*
X231425333Y-28874666D01*
X231520571Y-28922285D01*
X232044380Y-28922285D01*
X231520571Y-29731809D02*
X231520571Y-29398476D01*
X232044380Y-29398476D02*
X231044380Y-29398476D01*
X231044380Y-29874666D01*
D12*
X233420571Y-27279428D02*
X233444380Y-27255619D01*
X233468190Y-27184190D01*
X233468190Y-27136571D01*
X233444380Y-27065142D01*
X233396761Y-27017523D01*
X233349142Y-26993714D01*
X233253904Y-26969904D01*
X233182476Y-26969904D01*
X233087238Y-26993714D01*
X233039619Y-27017523D01*
X232992000Y-27065142D01*
X232968190Y-27136571D01*
X232968190Y-27184190D01*
X232992000Y-27255619D01*
X233015809Y-27279428D01*
X233468190Y-27493714D02*
X233134857Y-27493714D01*
X232968190Y-27493714D02*
X232992000Y-27469904D01*
X233015809Y-27493714D01*
X232992000Y-27517523D01*
X232968190Y-27493714D01*
X233015809Y-27493714D01*
X233134857Y-27731809D02*
X233468190Y-27731809D01*
X233182476Y-27731809D02*
X233158666Y-27755619D01*
X233134857Y-27803238D01*
X233134857Y-27874666D01*
X233158666Y-27922285D01*
X233206285Y-27946095D01*
X233468190Y-27946095D01*
X232968190Y-28136571D02*
X232968190Y-28446095D01*
X233158666Y-28279428D01*
X233158666Y-28350857D01*
X233182476Y-28398476D01*
X233206285Y-28422285D01*
X233253904Y-28446095D01*
X233372952Y-28446095D01*
X233420571Y-28422285D01*
X233444380Y-28398476D01*
X233468190Y-28350857D01*
X233468190Y-28208000D01*
X233444380Y-28160380D01*
X233420571Y-28136571D01*
D11*
X232044380Y-88160380D02*
X232044380Y-87588952D01*
X232044380Y-87874666D02*
X231044380Y-87874666D01*
X231187238Y-87779428D01*
X231282476Y-87684190D01*
X231330095Y-87588952D01*
X231044380Y-88779428D02*
X231044380Y-88874666D01*
X231092000Y-88969904D01*
X231139619Y-89017523D01*
X231234857Y-89065142D01*
X231425333Y-89112761D01*
X231663428Y-89112761D01*
X231853904Y-89065142D01*
X231949142Y-89017523D01*
X231996761Y-88969904D01*
X232044380Y-88874666D01*
X232044380Y-88779428D01*
X231996761Y-88684190D01*
X231949142Y-88636571D01*
X231853904Y-88588952D01*
X231663428Y-88541333D01*
X231425333Y-88541333D01*
X231234857Y-88588952D01*
X231139619Y-88636571D01*
X231092000Y-88684190D01*
X231044380Y-88779428D01*
X231044380Y-89731809D02*
X231044380Y-89827047D01*
X231092000Y-89922285D01*
X231139619Y-89969904D01*
X231234857Y-90017523D01*
X231425333Y-90065142D01*
X231663428Y-90065142D01*
X231853904Y-90017523D01*
X231949142Y-89969904D01*
X231996761Y-89922285D01*
X232044380Y-89827047D01*
X232044380Y-89731809D01*
X231996761Y-89636571D01*
X231949142Y-89588952D01*
X231853904Y-89541333D01*
X231663428Y-89493714D01*
X231425333Y-89493714D01*
X231234857Y-89541333D01*
X231139619Y-89588952D01*
X231092000Y-89636571D01*
X231044380Y-89731809D01*
X231377714Y-90493714D02*
X232044380Y-90493714D01*
X231472952Y-90493714D02*
X231425333Y-90541333D01*
X231377714Y-90636571D01*
X231377714Y-90779428D01*
X231425333Y-90874666D01*
X231520571Y-90922285D01*
X232044380Y-90922285D01*
X231520571Y-91731809D02*
X231520571Y-91398476D01*
X232044380Y-91398476D02*
X231044380Y-91398476D01*
X231044380Y-91874666D01*
D12*
X233420571Y-89279428D02*
X233444380Y-89255619D01*
X233468190Y-89184190D01*
X233468190Y-89136571D01*
X233444380Y-89065142D01*
X233396761Y-89017523D01*
X233349142Y-88993714D01*
X233253904Y-88969904D01*
X233182476Y-88969904D01*
X233087238Y-88993714D01*
X233039619Y-89017523D01*
X232992000Y-89065142D01*
X232968190Y-89136571D01*
X232968190Y-89184190D01*
X232992000Y-89255619D01*
X233015809Y-89279428D01*
X233468190Y-89493714D02*
X233134857Y-89493714D01*
X232968190Y-89493714D02*
X232992000Y-89469904D01*
X233015809Y-89493714D01*
X232992000Y-89517523D01*
X232968190Y-89493714D01*
X233015809Y-89493714D01*
X233134857Y-89731809D02*
X233468190Y-89731809D01*
X233182476Y-89731809D02*
X233158666Y-89755619D01*
X233134857Y-89803238D01*
X233134857Y-89874666D01*
X233158666Y-89922285D01*
X233206285Y-89946095D01*
X233468190Y-89946095D01*
X232968190Y-90136571D02*
X232968190Y-90446095D01*
X233158666Y-90279428D01*
X233158666Y-90350857D01*
X233182476Y-90398476D01*
X233206285Y-90422285D01*
X233253904Y-90446095D01*
X233372952Y-90446095D01*
X233420571Y-90422285D01*
X233444380Y-90398476D01*
X233468190Y-90350857D01*
X233468190Y-90208000D01*
X233444380Y-90160380D01*
X233420571Y-90136571D01*
D11*
X232044380Y-150160380D02*
X232044380Y-149588952D01*
X232044380Y-149874666D02*
X231044380Y-149874666D01*
X231187238Y-149779428D01*
X231282476Y-149684190D01*
X231330095Y-149588952D01*
X231044380Y-150779428D02*
X231044380Y-150874666D01*
X231092000Y-150969904D01*
X231139619Y-151017523D01*
X231234857Y-151065142D01*
X231425333Y-151112761D01*
X231663428Y-151112761D01*
X231853904Y-151065142D01*
X231949142Y-151017523D01*
X231996761Y-150969904D01*
X232044380Y-150874666D01*
X232044380Y-150779428D01*
X231996761Y-150684190D01*
X231949142Y-150636571D01*
X231853904Y-150588952D01*
X231663428Y-150541333D01*
X231425333Y-150541333D01*
X231234857Y-150588952D01*
X231139619Y-150636571D01*
X231092000Y-150684190D01*
X231044380Y-150779428D01*
X231044380Y-151731809D02*
X231044380Y-151827047D01*
X231092000Y-151922285D01*
X231139619Y-151969904D01*
X231234857Y-152017523D01*
X231425333Y-152065142D01*
X231663428Y-152065142D01*
X231853904Y-152017523D01*
X231949142Y-151969904D01*
X231996761Y-151922285D01*
X232044380Y-151827047D01*
X232044380Y-151731809D01*
X231996761Y-151636571D01*
X231949142Y-151588952D01*
X231853904Y-151541333D01*
X231663428Y-151493714D01*
X231425333Y-151493714D01*
X231234857Y-151541333D01*
X231139619Y-151588952D01*
X231092000Y-151636571D01*
X231044380Y-151731809D01*
X231377714Y-152493714D02*
X232044380Y-152493714D01*
X231472952Y-152493714D02*
X231425333Y-152541333D01*
X231377714Y-152636571D01*
X231377714Y-152779428D01*
X231425333Y-152874666D01*
X231520571Y-152922285D01*
X232044380Y-152922285D01*
X231520571Y-153731809D02*
X231520571Y-153398476D01*
X232044380Y-153398476D02*
X231044380Y-153398476D01*
X231044380Y-153874666D01*
D12*
X233420571Y-151279428D02*
X233444380Y-151255619D01*
X233468190Y-151184190D01*
X233468190Y-151136571D01*
X233444380Y-151065142D01*
X233396761Y-151017523D01*
X233349142Y-150993714D01*
X233253904Y-150969904D01*
X233182476Y-150969904D01*
X233087238Y-150993714D01*
X233039619Y-151017523D01*
X232992000Y-151065142D01*
X232968190Y-151136571D01*
X232968190Y-151184190D01*
X232992000Y-151255619D01*
X233015809Y-151279428D01*
X233468190Y-151493714D02*
X233134857Y-151493714D01*
X232968190Y-151493714D02*
X232992000Y-151469904D01*
X233015809Y-151493714D01*
X232992000Y-151517523D01*
X232968190Y-151493714D01*
X233015809Y-151493714D01*
X233134857Y-151731809D02*
X233468190Y-151731809D01*
X233182476Y-151731809D02*
X233158666Y-151755619D01*
X233134857Y-151803238D01*
X233134857Y-151874666D01*
X233158666Y-151922285D01*
X233206285Y-151946095D01*
X233468190Y-151946095D01*
X232968190Y-152136571D02*
X232968190Y-152446095D01*
X233158666Y-152279428D01*
X233158666Y-152350857D01*
X233182476Y-152398476D01*
X233206285Y-152422285D01*
X233253904Y-152446095D01*
X233372952Y-152446095D01*
X233420571Y-152422285D01*
X233444380Y-152398476D01*
X233468190Y-152350857D01*
X233468190Y-152208000D01*
X233444380Y-152160380D01*
X233420571Y-152136571D01*
D11*
X122044380Y-26160380D02*
X122044380Y-25588952D01*
X122044380Y-25874666D02*
X121044380Y-25874666D01*
X121187238Y-25779428D01*
X121282476Y-25684190D01*
X121330095Y-25588952D01*
X121044380Y-26779428D02*
X121044380Y-26874666D01*
X121092000Y-26969904D01*
X121139619Y-27017523D01*
X121234857Y-27065142D01*
X121425333Y-27112761D01*
X121663428Y-27112761D01*
X121853904Y-27065142D01*
X121949142Y-27017523D01*
X121996761Y-26969904D01*
X122044380Y-26874666D01*
X122044380Y-26779428D01*
X121996761Y-26684190D01*
X121949142Y-26636571D01*
X121853904Y-26588952D01*
X121663428Y-26541333D01*
X121425333Y-26541333D01*
X121234857Y-26588952D01*
X121139619Y-26636571D01*
X121092000Y-26684190D01*
X121044380Y-26779428D01*
X121044380Y-27731809D02*
X121044380Y-27827047D01*
X121092000Y-27922285D01*
X121139619Y-27969904D01*
X121234857Y-28017523D01*
X121425333Y-28065142D01*
X121663428Y-28065142D01*
X121853904Y-28017523D01*
X121949142Y-27969904D01*
X121996761Y-27922285D01*
X122044380Y-27827047D01*
X122044380Y-27731809D01*
X121996761Y-27636571D01*
X121949142Y-27588952D01*
X121853904Y-27541333D01*
X121663428Y-27493714D01*
X121425333Y-27493714D01*
X121234857Y-27541333D01*
X121139619Y-27588952D01*
X121092000Y-27636571D01*
X121044380Y-27731809D01*
X121377714Y-28493714D02*
X122044380Y-28493714D01*
X121472952Y-28493714D02*
X121425333Y-28541333D01*
X121377714Y-28636571D01*
X121377714Y-28779428D01*
X121425333Y-28874666D01*
X121520571Y-28922285D01*
X122044380Y-28922285D01*
X121520571Y-29731809D02*
X121520571Y-29398476D01*
X122044380Y-29398476D02*
X121044380Y-29398476D01*
X121044380Y-29874666D01*
D12*
X123420571Y-27279428D02*
X123444380Y-27255619D01*
X123468190Y-27184190D01*
X123468190Y-27136571D01*
X123444380Y-27065142D01*
X123396761Y-27017523D01*
X123349142Y-26993714D01*
X123253904Y-26969904D01*
X123182476Y-26969904D01*
X123087238Y-26993714D01*
X123039619Y-27017523D01*
X122992000Y-27065142D01*
X122968190Y-27136571D01*
X122968190Y-27184190D01*
X122992000Y-27255619D01*
X123015809Y-27279428D01*
X123468190Y-27493714D02*
X123134857Y-27493714D01*
X122968190Y-27493714D02*
X122992000Y-27469904D01*
X123015809Y-27493714D01*
X122992000Y-27517523D01*
X122968190Y-27493714D01*
X123015809Y-27493714D01*
X123134857Y-27731809D02*
X123468190Y-27731809D01*
X123182476Y-27731809D02*
X123158666Y-27755619D01*
X123134857Y-27803238D01*
X123134857Y-27874666D01*
X123158666Y-27922285D01*
X123206285Y-27946095D01*
X123468190Y-27946095D01*
X122968190Y-28136571D02*
X122968190Y-28446095D01*
X123158666Y-28279428D01*
X123158666Y-28350857D01*
X123182476Y-28398476D01*
X123206285Y-28422285D01*
X123253904Y-28446095D01*
X123372952Y-28446095D01*
X123420571Y-28422285D01*
X123444380Y-28398476D01*
X123468190Y-28350857D01*
X123468190Y-28208000D01*
X123444380Y-28160380D01*
X123420571Y-28136571D01*
D11*
X122044380Y-88160380D02*
X122044380Y-87588952D01*
X122044380Y-87874666D02*
X121044380Y-87874666D01*
X121187238Y-87779428D01*
X121282476Y-87684190D01*
X121330095Y-87588952D01*
X121044380Y-88779428D02*
X121044380Y-88874666D01*
X121092000Y-88969904D01*
X121139619Y-89017523D01*
X121234857Y-89065142D01*
X121425333Y-89112761D01*
X121663428Y-89112761D01*
X121853904Y-89065142D01*
X121949142Y-89017523D01*
X121996761Y-88969904D01*
X122044380Y-88874666D01*
X122044380Y-88779428D01*
X121996761Y-88684190D01*
X121949142Y-88636571D01*
X121853904Y-88588952D01*
X121663428Y-88541333D01*
X121425333Y-88541333D01*
X121234857Y-88588952D01*
X121139619Y-88636571D01*
X121092000Y-88684190D01*
X121044380Y-88779428D01*
X121044380Y-89731809D02*
X121044380Y-89827047D01*
X121092000Y-89922285D01*
X121139619Y-89969904D01*
X121234857Y-90017523D01*
X121425333Y-90065142D01*
X121663428Y-90065142D01*
X121853904Y-90017523D01*
X121949142Y-89969904D01*
X121996761Y-89922285D01*
X122044380Y-89827047D01*
X122044380Y-89731809D01*
X121996761Y-89636571D01*
X121949142Y-89588952D01*
X121853904Y-89541333D01*
X121663428Y-89493714D01*
X121425333Y-89493714D01*
X121234857Y-89541333D01*
X121139619Y-89588952D01*
X121092000Y-89636571D01*
X121044380Y-89731809D01*
X121377714Y-90493714D02*
X122044380Y-90493714D01*
X121472952Y-90493714D02*
X121425333Y-90541333D01*
X121377714Y-90636571D01*
X121377714Y-90779428D01*
X121425333Y-90874666D01*
X121520571Y-90922285D01*
X122044380Y-90922285D01*
X121520571Y-91731809D02*
X121520571Y-91398476D01*
X122044380Y-91398476D02*
X121044380Y-91398476D01*
X121044380Y-91874666D01*
D12*
X123420571Y-89279428D02*
X123444380Y-89255619D01*
X123468190Y-89184190D01*
X123468190Y-89136571D01*
X123444380Y-89065142D01*
X123396761Y-89017523D01*
X123349142Y-88993714D01*
X123253904Y-88969904D01*
X123182476Y-88969904D01*
X123087238Y-88993714D01*
X123039619Y-89017523D01*
X122992000Y-89065142D01*
X122968190Y-89136571D01*
X122968190Y-89184190D01*
X122992000Y-89255619D01*
X123015809Y-89279428D01*
X123468190Y-89493714D02*
X123134857Y-89493714D01*
X122968190Y-89493714D02*
X122992000Y-89469904D01*
X123015809Y-89493714D01*
X122992000Y-89517523D01*
X122968190Y-89493714D01*
X123015809Y-89493714D01*
X123134857Y-89731809D02*
X123468190Y-89731809D01*
X123182476Y-89731809D02*
X123158666Y-89755619D01*
X123134857Y-89803238D01*
X123134857Y-89874666D01*
X123158666Y-89922285D01*
X123206285Y-89946095D01*
X123468190Y-89946095D01*
X122968190Y-90136571D02*
X122968190Y-90446095D01*
X123158666Y-90279428D01*
X123158666Y-90350857D01*
X123182476Y-90398476D01*
X123206285Y-90422285D01*
X123253904Y-90446095D01*
X123372952Y-90446095D01*
X123420571Y-90422285D01*
X123444380Y-90398476D01*
X123468190Y-90350857D01*
X123468190Y-90208000D01*
X123444380Y-90160380D01*
X123420571Y-90136571D01*
D11*
X231154380Y-26160380D02*
X231154380Y-25588952D01*
X231154380Y-25874666D02*
X230154380Y-25874666D01*
X230297238Y-25779428D01*
X230392476Y-25684190D01*
X230440095Y-25588952D01*
X230154380Y-26779428D02*
X230154380Y-26874666D01*
X230202000Y-26969904D01*
X230249619Y-27017523D01*
X230344857Y-27065142D01*
X230535333Y-27112761D01*
X230773428Y-27112761D01*
X230963904Y-27065142D01*
X231059142Y-27017523D01*
X231106761Y-26969904D01*
X231154380Y-26874666D01*
X231154380Y-26779428D01*
X231106761Y-26684190D01*
X231059142Y-26636571D01*
X230963904Y-26588952D01*
X230773428Y-26541333D01*
X230535333Y-26541333D01*
X230344857Y-26588952D01*
X230249619Y-26636571D01*
X230202000Y-26684190D01*
X230154380Y-26779428D01*
X230154380Y-27731809D02*
X230154380Y-27827047D01*
X230202000Y-27922285D01*
X230249619Y-27969904D01*
X230344857Y-28017523D01*
X230535333Y-28065142D01*
X230773428Y-28065142D01*
X230963904Y-28017523D01*
X231059142Y-27969904D01*
X231106761Y-27922285D01*
X231154380Y-27827047D01*
X231154380Y-27731809D01*
X231106761Y-27636571D01*
X231059142Y-27588952D01*
X230963904Y-27541333D01*
X230773428Y-27493714D01*
X230535333Y-27493714D01*
X230344857Y-27541333D01*
X230249619Y-27588952D01*
X230202000Y-27636571D01*
X230154380Y-27731809D01*
X230487714Y-28493714D02*
X231154380Y-28493714D01*
X230582952Y-28493714D02*
X230535333Y-28541333D01*
X230487714Y-28636571D01*
X230487714Y-28779428D01*
X230535333Y-28874666D01*
X230630571Y-28922285D01*
X231154380Y-28922285D01*
X230630571Y-29731809D02*
X230630571Y-29398476D01*
X231154380Y-29398476D02*
X230154380Y-29398476D01*
X230154380Y-29874666D01*
D12*
X230880571Y-27279428D02*
X230904380Y-27255619D01*
X230928190Y-27184190D01*
X230928190Y-27136571D01*
X230904380Y-27065142D01*
X230856761Y-27017523D01*
X230809142Y-26993714D01*
X230713904Y-26969904D01*
X230642476Y-26969904D01*
X230547238Y-26993714D01*
X230499619Y-27017523D01*
X230452000Y-27065142D01*
X230428190Y-27136571D01*
X230428190Y-27184190D01*
X230452000Y-27255619D01*
X230475809Y-27279428D01*
X230928190Y-27493714D02*
X230594857Y-27493714D01*
X230428190Y-27493714D02*
X230452000Y-27469904D01*
X230475809Y-27493714D01*
X230452000Y-27517523D01*
X230428190Y-27493714D01*
X230475809Y-27493714D01*
X230594857Y-27731809D02*
X230928190Y-27731809D01*
X230642476Y-27731809D02*
X230618666Y-27755619D01*
X230594857Y-27803238D01*
X230594857Y-27874666D01*
X230618666Y-27922285D01*
X230666285Y-27946095D01*
X230928190Y-27946095D01*
X230475809Y-28160380D02*
X230452000Y-28184190D01*
X230428190Y-28231809D01*
X230428190Y-28350857D01*
X230452000Y-28398476D01*
X230475809Y-28422285D01*
X230523428Y-28446095D01*
X230571047Y-28446095D01*
X230642476Y-28422285D01*
X230928190Y-28136571D01*
X230928190Y-28446095D01*
D11*
X231154380Y-88160380D02*
X231154380Y-87588952D01*
X231154380Y-87874666D02*
X230154380Y-87874666D01*
X230297238Y-87779428D01*
X230392476Y-87684190D01*
X230440095Y-87588952D01*
X230154380Y-88779428D02*
X230154380Y-88874666D01*
X230202000Y-88969904D01*
X230249619Y-89017523D01*
X230344857Y-89065142D01*
X230535333Y-89112761D01*
X230773428Y-89112761D01*
X230963904Y-89065142D01*
X231059142Y-89017523D01*
X231106761Y-88969904D01*
X231154380Y-88874666D01*
X231154380Y-88779428D01*
X231106761Y-88684190D01*
X231059142Y-88636571D01*
X230963904Y-88588952D01*
X230773428Y-88541333D01*
X230535333Y-88541333D01*
X230344857Y-88588952D01*
X230249619Y-88636571D01*
X230202000Y-88684190D01*
X230154380Y-88779428D01*
X230154380Y-89731809D02*
X230154380Y-89827047D01*
X230202000Y-89922285D01*
X230249619Y-89969904D01*
X230344857Y-90017523D01*
X230535333Y-90065142D01*
X230773428Y-90065142D01*
X230963904Y-90017523D01*
X231059142Y-89969904D01*
X231106761Y-89922285D01*
X231154380Y-89827047D01*
X231154380Y-89731809D01*
X231106761Y-89636571D01*
X231059142Y-89588952D01*
X230963904Y-89541333D01*
X230773428Y-89493714D01*
X230535333Y-89493714D01*
X230344857Y-89541333D01*
X230249619Y-89588952D01*
X230202000Y-89636571D01*
X230154380Y-89731809D01*
X230487714Y-90493714D02*
X231154380Y-90493714D01*
X230582952Y-90493714D02*
X230535333Y-90541333D01*
X230487714Y-90636571D01*
X230487714Y-90779428D01*
X230535333Y-90874666D01*
X230630571Y-90922285D01*
X231154380Y-90922285D01*
X230630571Y-91731809D02*
X230630571Y-91398476D01*
X231154380Y-91398476D02*
X230154380Y-91398476D01*
X230154380Y-91874666D01*
D12*
X230880571Y-89279428D02*
X230904380Y-89255619D01*
X230928190Y-89184190D01*
X230928190Y-89136571D01*
X230904380Y-89065142D01*
X230856761Y-89017523D01*
X230809142Y-88993714D01*
X230713904Y-88969904D01*
X230642476Y-88969904D01*
X230547238Y-88993714D01*
X230499619Y-89017523D01*
X230452000Y-89065142D01*
X230428190Y-89136571D01*
X230428190Y-89184190D01*
X230452000Y-89255619D01*
X230475809Y-89279428D01*
X230928190Y-89493714D02*
X230594857Y-89493714D01*
X230428190Y-89493714D02*
X230452000Y-89469904D01*
X230475809Y-89493714D01*
X230452000Y-89517523D01*
X230428190Y-89493714D01*
X230475809Y-89493714D01*
X230594857Y-89731809D02*
X230928190Y-89731809D01*
X230642476Y-89731809D02*
X230618666Y-89755619D01*
X230594857Y-89803238D01*
X230594857Y-89874666D01*
X230618666Y-89922285D01*
X230666285Y-89946095D01*
X230928190Y-89946095D01*
X230475809Y-90160380D02*
X230452000Y-90184190D01*
X230428190Y-90231809D01*
X230428190Y-90350857D01*
X230452000Y-90398476D01*
X230475809Y-90422285D01*
X230523428Y-90446095D01*
X230571047Y-90446095D01*
X230642476Y-90422285D01*
X230928190Y-90136571D01*
X230928190Y-90446095D01*
D11*
X231154380Y-150160380D02*
X231154380Y-149588952D01*
X231154380Y-149874666D02*
X230154380Y-149874666D01*
X230297238Y-149779428D01*
X230392476Y-149684190D01*
X230440095Y-149588952D01*
X230154380Y-150779428D02*
X230154380Y-150874666D01*
X230202000Y-150969904D01*
X230249619Y-151017523D01*
X230344857Y-151065142D01*
X230535333Y-151112761D01*
X230773428Y-151112761D01*
X230963904Y-151065142D01*
X231059142Y-151017523D01*
X231106761Y-150969904D01*
X231154380Y-150874666D01*
X231154380Y-150779428D01*
X231106761Y-150684190D01*
X231059142Y-150636571D01*
X230963904Y-150588952D01*
X230773428Y-150541333D01*
X230535333Y-150541333D01*
X230344857Y-150588952D01*
X230249619Y-150636571D01*
X230202000Y-150684190D01*
X230154380Y-150779428D01*
X230154380Y-151731809D02*
X230154380Y-151827047D01*
X230202000Y-151922285D01*
X230249619Y-151969904D01*
X230344857Y-152017523D01*
X230535333Y-152065142D01*
X230773428Y-152065142D01*
X230963904Y-152017523D01*
X231059142Y-151969904D01*
X231106761Y-151922285D01*
X231154380Y-151827047D01*
X231154380Y-151731809D01*
X231106761Y-151636571D01*
X231059142Y-151588952D01*
X230963904Y-151541333D01*
X230773428Y-151493714D01*
X230535333Y-151493714D01*
X230344857Y-151541333D01*
X230249619Y-151588952D01*
X230202000Y-151636571D01*
X230154380Y-151731809D01*
X230487714Y-152493714D02*
X231154380Y-152493714D01*
X230582952Y-152493714D02*
X230535333Y-152541333D01*
X230487714Y-152636571D01*
X230487714Y-152779428D01*
X230535333Y-152874666D01*
X230630571Y-152922285D01*
X231154380Y-152922285D01*
X230630571Y-153731809D02*
X230630571Y-153398476D01*
X231154380Y-153398476D02*
X230154380Y-153398476D01*
X230154380Y-153874666D01*
D12*
X230880571Y-151279428D02*
X230904380Y-151255619D01*
X230928190Y-151184190D01*
X230928190Y-151136571D01*
X230904380Y-151065142D01*
X230856761Y-151017523D01*
X230809142Y-150993714D01*
X230713904Y-150969904D01*
X230642476Y-150969904D01*
X230547238Y-150993714D01*
X230499619Y-151017523D01*
X230452000Y-151065142D01*
X230428190Y-151136571D01*
X230428190Y-151184190D01*
X230452000Y-151255619D01*
X230475809Y-151279428D01*
X230928190Y-151493714D02*
X230594857Y-151493714D01*
X230428190Y-151493714D02*
X230452000Y-151469904D01*
X230475809Y-151493714D01*
X230452000Y-151517523D01*
X230428190Y-151493714D01*
X230475809Y-151493714D01*
X230594857Y-151731809D02*
X230928190Y-151731809D01*
X230642476Y-151731809D02*
X230618666Y-151755619D01*
X230594857Y-151803238D01*
X230594857Y-151874666D01*
X230618666Y-151922285D01*
X230666285Y-151946095D01*
X230928190Y-151946095D01*
X230475809Y-152160380D02*
X230452000Y-152184190D01*
X230428190Y-152231809D01*
X230428190Y-152350857D01*
X230452000Y-152398476D01*
X230475809Y-152422285D01*
X230523428Y-152446095D01*
X230571047Y-152446095D01*
X230642476Y-152422285D01*
X230928190Y-152136571D01*
X230928190Y-152446095D01*
D11*
X121154380Y-26160380D02*
X121154380Y-25588952D01*
X121154380Y-25874666D02*
X120154380Y-25874666D01*
X120297238Y-25779428D01*
X120392476Y-25684190D01*
X120440095Y-25588952D01*
X120154380Y-26779428D02*
X120154380Y-26874666D01*
X120202000Y-26969904D01*
X120249619Y-27017523D01*
X120344857Y-27065142D01*
X120535333Y-27112761D01*
X120773428Y-27112761D01*
X120963904Y-27065142D01*
X121059142Y-27017523D01*
X121106761Y-26969904D01*
X121154380Y-26874666D01*
X121154380Y-26779428D01*
X121106761Y-26684190D01*
X121059142Y-26636571D01*
X120963904Y-26588952D01*
X120773428Y-26541333D01*
X120535333Y-26541333D01*
X120344857Y-26588952D01*
X120249619Y-26636571D01*
X120202000Y-26684190D01*
X120154380Y-26779428D01*
X120154380Y-27731809D02*
X120154380Y-27827047D01*
X120202000Y-27922285D01*
X120249619Y-27969904D01*
X120344857Y-28017523D01*
X120535333Y-28065142D01*
X120773428Y-28065142D01*
X120963904Y-28017523D01*
X121059142Y-27969904D01*
X121106761Y-27922285D01*
X121154380Y-27827047D01*
X121154380Y-27731809D01*
X121106761Y-27636571D01*
X121059142Y-27588952D01*
X120963904Y-27541333D01*
X120773428Y-27493714D01*
X120535333Y-27493714D01*
X120344857Y-27541333D01*
X120249619Y-27588952D01*
X120202000Y-27636571D01*
X120154380Y-27731809D01*
X120487714Y-28493714D02*
X121154380Y-28493714D01*
X120582952Y-28493714D02*
X120535333Y-28541333D01*
X120487714Y-28636571D01*
X120487714Y-28779428D01*
X120535333Y-28874666D01*
X120630571Y-28922285D01*
X121154380Y-28922285D01*
X120630571Y-29731809D02*
X120630571Y-29398476D01*
X121154380Y-29398476D02*
X120154380Y-29398476D01*
X120154380Y-29874666D01*
D12*
X120880571Y-27279428D02*
X120904380Y-27255619D01*
X120928190Y-27184190D01*
X120928190Y-27136571D01*
X120904380Y-27065142D01*
X120856761Y-27017523D01*
X120809142Y-26993714D01*
X120713904Y-26969904D01*
X120642476Y-26969904D01*
X120547238Y-26993714D01*
X120499619Y-27017523D01*
X120452000Y-27065142D01*
X120428190Y-27136571D01*
X120428190Y-27184190D01*
X120452000Y-27255619D01*
X120475809Y-27279428D01*
X120928190Y-27493714D02*
X120594857Y-27493714D01*
X120428190Y-27493714D02*
X120452000Y-27469904D01*
X120475809Y-27493714D01*
X120452000Y-27517523D01*
X120428190Y-27493714D01*
X120475809Y-27493714D01*
X120594857Y-27731809D02*
X120928190Y-27731809D01*
X120642476Y-27731809D02*
X120618666Y-27755619D01*
X120594857Y-27803238D01*
X120594857Y-27874666D01*
X120618666Y-27922285D01*
X120666285Y-27946095D01*
X120928190Y-27946095D01*
X120475809Y-28160380D02*
X120452000Y-28184190D01*
X120428190Y-28231809D01*
X120428190Y-28350857D01*
X120452000Y-28398476D01*
X120475809Y-28422285D01*
X120523428Y-28446095D01*
X120571047Y-28446095D01*
X120642476Y-28422285D01*
X120928190Y-28136571D01*
X120928190Y-28446095D01*
D11*
X121154380Y-88160380D02*
X121154380Y-87588952D01*
X121154380Y-87874666D02*
X120154380Y-87874666D01*
X120297238Y-87779428D01*
X120392476Y-87684190D01*
X120440095Y-87588952D01*
X120154380Y-88779428D02*
X120154380Y-88874666D01*
X120202000Y-88969904D01*
X120249619Y-89017523D01*
X120344857Y-89065142D01*
X120535333Y-89112761D01*
X120773428Y-89112761D01*
X120963904Y-89065142D01*
X121059142Y-89017523D01*
X121106761Y-88969904D01*
X121154380Y-88874666D01*
X121154380Y-88779428D01*
X121106761Y-88684190D01*
X121059142Y-88636571D01*
X120963904Y-88588952D01*
X120773428Y-88541333D01*
X120535333Y-88541333D01*
X120344857Y-88588952D01*
X120249619Y-88636571D01*
X120202000Y-88684190D01*
X120154380Y-88779428D01*
X120154380Y-89731809D02*
X120154380Y-89827047D01*
X120202000Y-89922285D01*
X120249619Y-89969904D01*
X120344857Y-90017523D01*
X120535333Y-90065142D01*
X120773428Y-90065142D01*
X120963904Y-90017523D01*
X121059142Y-89969904D01*
X121106761Y-89922285D01*
X121154380Y-89827047D01*
X121154380Y-89731809D01*
X121106761Y-89636571D01*
X121059142Y-89588952D01*
X120963904Y-89541333D01*
X120773428Y-89493714D01*
X120535333Y-89493714D01*
X120344857Y-89541333D01*
X120249619Y-89588952D01*
X120202000Y-89636571D01*
X120154380Y-89731809D01*
X120487714Y-90493714D02*
X121154380Y-90493714D01*
X120582952Y-90493714D02*
X120535333Y-90541333D01*
X120487714Y-90636571D01*
X120487714Y-90779428D01*
X120535333Y-90874666D01*
X120630571Y-90922285D01*
X121154380Y-90922285D01*
X120630571Y-91731809D02*
X120630571Y-91398476D01*
X121154380Y-91398476D02*
X120154380Y-91398476D01*
X120154380Y-91874666D01*
D12*
X120880571Y-89279428D02*
X120904380Y-89255619D01*
X120928190Y-89184190D01*
X120928190Y-89136571D01*
X120904380Y-89065142D01*
X120856761Y-89017523D01*
X120809142Y-88993714D01*
X120713904Y-88969904D01*
X120642476Y-88969904D01*
X120547238Y-88993714D01*
X120499619Y-89017523D01*
X120452000Y-89065142D01*
X120428190Y-89136571D01*
X120428190Y-89184190D01*
X120452000Y-89255619D01*
X120475809Y-89279428D01*
X120928190Y-89493714D02*
X120594857Y-89493714D01*
X120428190Y-89493714D02*
X120452000Y-89469904D01*
X120475809Y-89493714D01*
X120452000Y-89517523D01*
X120428190Y-89493714D01*
X120475809Y-89493714D01*
X120594857Y-89731809D02*
X120928190Y-89731809D01*
X120642476Y-89731809D02*
X120618666Y-89755619D01*
X120594857Y-89803238D01*
X120594857Y-89874666D01*
X120618666Y-89922285D01*
X120666285Y-89946095D01*
X120928190Y-89946095D01*
X120475809Y-90160380D02*
X120452000Y-90184190D01*
X120428190Y-90231809D01*
X120428190Y-90350857D01*
X120452000Y-90398476D01*
X120475809Y-90422285D01*
X120523428Y-90446095D01*
X120571047Y-90446095D01*
X120642476Y-90422285D01*
X120928190Y-90136571D01*
X120928190Y-90446095D01*
D11*
X211692714Y-42916333D02*
X212359380Y-42916333D01*
X211787952Y-42916333D02*
X211740333Y-42963952D01*
X211692714Y-43059190D01*
X211692714Y-43202047D01*
X211740333Y-43297285D01*
X211835571Y-43344904D01*
X212359380Y-43344904D01*
X212359380Y-44249666D02*
X211835571Y-44249666D01*
X211740333Y-44202047D01*
X211692714Y-44106809D01*
X211692714Y-43916333D01*
X211740333Y-43821095D01*
X212311761Y-44249666D02*
X212359380Y-44154428D01*
X212359380Y-43916333D01*
X212311761Y-43821095D01*
X212216523Y-43773476D01*
X212121285Y-43773476D01*
X212026047Y-43821095D01*
X211978428Y-43916333D01*
X211978428Y-44154428D01*
X211930809Y-44249666D01*
D12*
X213735571Y-43213952D02*
X213759380Y-43190142D01*
X213783190Y-43118714D01*
X213783190Y-43071095D01*
X213759380Y-42999666D01*
X213711761Y-42952047D01*
X213664142Y-42928238D01*
X213568904Y-42904428D01*
X213497476Y-42904428D01*
X213402238Y-42928238D01*
X213354619Y-42952047D01*
X213307000Y-42999666D01*
X213283190Y-43071095D01*
X213283190Y-43118714D01*
X213307000Y-43190142D01*
X213330809Y-43213952D01*
X213449857Y-43356809D02*
X213449857Y-43547285D01*
X213783190Y-43428238D02*
X213354619Y-43428238D01*
X213307000Y-43452047D01*
X213283190Y-43499666D01*
X213283190Y-43547285D01*
X213449857Y-43642523D02*
X213449857Y-43833000D01*
X213783190Y-43713952D02*
X213354619Y-43713952D01*
X213307000Y-43737761D01*
X213283190Y-43785380D01*
X213283190Y-43833000D01*
X213783190Y-44261571D02*
X213783190Y-43975857D01*
X213783190Y-44118714D02*
X213283190Y-44118714D01*
X213354619Y-44071095D01*
X213402238Y-44023476D01*
X213426047Y-43975857D01*
D11*
X211692714Y-104916333D02*
X212359380Y-104916333D01*
X211787952Y-104916333D02*
X211740333Y-104963952D01*
X211692714Y-105059190D01*
X211692714Y-105202047D01*
X211740333Y-105297285D01*
X211835571Y-105344904D01*
X212359380Y-105344904D01*
X212359380Y-106249666D02*
X211835571Y-106249666D01*
X211740333Y-106202047D01*
X211692714Y-106106809D01*
X211692714Y-105916333D01*
X211740333Y-105821095D01*
X212311761Y-106249666D02*
X212359380Y-106154428D01*
X212359380Y-105916333D01*
X212311761Y-105821095D01*
X212216523Y-105773476D01*
X212121285Y-105773476D01*
X212026047Y-105821095D01*
X211978428Y-105916333D01*
X211978428Y-106154428D01*
X211930809Y-106249666D01*
D12*
X213735571Y-105213952D02*
X213759380Y-105190142D01*
X213783190Y-105118714D01*
X213783190Y-105071095D01*
X213759380Y-104999666D01*
X213711761Y-104952047D01*
X213664142Y-104928238D01*
X213568904Y-104904428D01*
X213497476Y-104904428D01*
X213402238Y-104928238D01*
X213354619Y-104952047D01*
X213307000Y-104999666D01*
X213283190Y-105071095D01*
X213283190Y-105118714D01*
X213307000Y-105190142D01*
X213330809Y-105213952D01*
X213449857Y-105356809D02*
X213449857Y-105547285D01*
X213783190Y-105428238D02*
X213354619Y-105428238D01*
X213307000Y-105452047D01*
X213283190Y-105499666D01*
X213283190Y-105547285D01*
X213449857Y-105642523D02*
X213449857Y-105833000D01*
X213783190Y-105713952D02*
X213354619Y-105713952D01*
X213307000Y-105737761D01*
X213283190Y-105785380D01*
X213283190Y-105833000D01*
X213783190Y-106261571D02*
X213783190Y-105975857D01*
X213783190Y-106118714D02*
X213283190Y-106118714D01*
X213354619Y-106071095D01*
X213402238Y-106023476D01*
X213426047Y-105975857D01*
D11*
X211692714Y-166916333D02*
X212359380Y-166916333D01*
X211787952Y-166916333D02*
X211740333Y-166963952D01*
X211692714Y-167059190D01*
X211692714Y-167202047D01*
X211740333Y-167297285D01*
X211835571Y-167344904D01*
X212359380Y-167344904D01*
X212359380Y-168249666D02*
X211835571Y-168249666D01*
X211740333Y-168202047D01*
X211692714Y-168106809D01*
X211692714Y-167916333D01*
X211740333Y-167821095D01*
X212311761Y-168249666D02*
X212359380Y-168154428D01*
X212359380Y-167916333D01*
X212311761Y-167821095D01*
X212216523Y-167773476D01*
X212121285Y-167773476D01*
X212026047Y-167821095D01*
X211978428Y-167916333D01*
X211978428Y-168154428D01*
X211930809Y-168249666D01*
D12*
X213735571Y-167213952D02*
X213759380Y-167190142D01*
X213783190Y-167118714D01*
X213783190Y-167071095D01*
X213759380Y-166999666D01*
X213711761Y-166952047D01*
X213664142Y-166928238D01*
X213568904Y-166904428D01*
X213497476Y-166904428D01*
X213402238Y-166928238D01*
X213354619Y-166952047D01*
X213307000Y-166999666D01*
X213283190Y-167071095D01*
X213283190Y-167118714D01*
X213307000Y-167190142D01*
X213330809Y-167213952D01*
X213449857Y-167356809D02*
X213449857Y-167547285D01*
X213783190Y-167428238D02*
X213354619Y-167428238D01*
X213307000Y-167452047D01*
X213283190Y-167499666D01*
X213283190Y-167547285D01*
X213449857Y-167642523D02*
X213449857Y-167833000D01*
X213783190Y-167713952D02*
X213354619Y-167713952D01*
X213307000Y-167737761D01*
X213283190Y-167785380D01*
X213283190Y-167833000D01*
X213783190Y-168261571D02*
X213783190Y-167975857D01*
X213783190Y-168118714D02*
X213283190Y-168118714D01*
X213354619Y-168071095D01*
X213402238Y-168023476D01*
X213426047Y-167975857D01*
D11*
X101692714Y-42916333D02*
X102359380Y-42916333D01*
X101787952Y-42916333D02*
X101740333Y-42963952D01*
X101692714Y-43059190D01*
X101692714Y-43202047D01*
X101740333Y-43297285D01*
X101835571Y-43344904D01*
X102359380Y-43344904D01*
X102359380Y-44249666D02*
X101835571Y-44249666D01*
X101740333Y-44202047D01*
X101692714Y-44106809D01*
X101692714Y-43916333D01*
X101740333Y-43821095D01*
X102311761Y-44249666D02*
X102359380Y-44154428D01*
X102359380Y-43916333D01*
X102311761Y-43821095D01*
X102216523Y-43773476D01*
X102121285Y-43773476D01*
X102026047Y-43821095D01*
X101978428Y-43916333D01*
X101978428Y-44154428D01*
X101930809Y-44249666D01*
D12*
X103735571Y-43213952D02*
X103759380Y-43190142D01*
X103783190Y-43118714D01*
X103783190Y-43071095D01*
X103759380Y-42999666D01*
X103711761Y-42952047D01*
X103664142Y-42928238D01*
X103568904Y-42904428D01*
X103497476Y-42904428D01*
X103402238Y-42928238D01*
X103354619Y-42952047D01*
X103307000Y-42999666D01*
X103283190Y-43071095D01*
X103283190Y-43118714D01*
X103307000Y-43190142D01*
X103330809Y-43213952D01*
X103449857Y-43356809D02*
X103449857Y-43547285D01*
X103783190Y-43428238D02*
X103354619Y-43428238D01*
X103307000Y-43452047D01*
X103283190Y-43499666D01*
X103283190Y-43547285D01*
X103449857Y-43642523D02*
X103449857Y-43833000D01*
X103783190Y-43713952D02*
X103354619Y-43713952D01*
X103307000Y-43737761D01*
X103283190Y-43785380D01*
X103283190Y-43833000D01*
X103783190Y-44261571D02*
X103783190Y-43975857D01*
X103783190Y-44118714D02*
X103283190Y-44118714D01*
X103354619Y-44071095D01*
X103402238Y-44023476D01*
X103426047Y-43975857D01*
D11*
X101692714Y-104916333D02*
X102359380Y-104916333D01*
X101787952Y-104916333D02*
X101740333Y-104963952D01*
X101692714Y-105059190D01*
X101692714Y-105202047D01*
X101740333Y-105297285D01*
X101835571Y-105344904D01*
X102359380Y-105344904D01*
X102359380Y-106249666D02*
X101835571Y-106249666D01*
X101740333Y-106202047D01*
X101692714Y-106106809D01*
X101692714Y-105916333D01*
X101740333Y-105821095D01*
X102311761Y-106249666D02*
X102359380Y-106154428D01*
X102359380Y-105916333D01*
X102311761Y-105821095D01*
X102216523Y-105773476D01*
X102121285Y-105773476D01*
X102026047Y-105821095D01*
X101978428Y-105916333D01*
X101978428Y-106154428D01*
X101930809Y-106249666D01*
D12*
X103735571Y-105213952D02*
X103759380Y-105190142D01*
X103783190Y-105118714D01*
X103783190Y-105071095D01*
X103759380Y-104999666D01*
X103711761Y-104952047D01*
X103664142Y-104928238D01*
X103568904Y-104904428D01*
X103497476Y-104904428D01*
X103402238Y-104928238D01*
X103354619Y-104952047D01*
X103307000Y-104999666D01*
X103283190Y-105071095D01*
X103283190Y-105118714D01*
X103307000Y-105190142D01*
X103330809Y-105213952D01*
X103449857Y-105356809D02*
X103449857Y-105547285D01*
X103783190Y-105428238D02*
X103354619Y-105428238D01*
X103307000Y-105452047D01*
X103283190Y-105499666D01*
X103283190Y-105547285D01*
X103449857Y-105642523D02*
X103449857Y-105833000D01*
X103783190Y-105713952D02*
X103354619Y-105713952D01*
X103307000Y-105737761D01*
X103283190Y-105785380D01*
X103283190Y-105833000D01*
X103783190Y-106261571D02*
X103783190Y-105975857D01*
X103783190Y-106118714D02*
X103283190Y-106118714D01*
X103354619Y-106071095D01*
X103402238Y-106023476D01*
X103426047Y-105975857D01*
D11*
X234034380Y-22051333D02*
X234034380Y-21479904D01*
X234034380Y-21765619D02*
X233034380Y-21765619D01*
X233177238Y-21670380D01*
X233272476Y-21575142D01*
X233320095Y-21479904D01*
X233034380Y-22670380D02*
X233034380Y-22765619D01*
X233082000Y-22860857D01*
X233129619Y-22908476D01*
X233224857Y-22956095D01*
X233415333Y-23003714D01*
X233653428Y-23003714D01*
X233843904Y-22956095D01*
X233939142Y-22908476D01*
X233986761Y-22860857D01*
X234034380Y-22765619D01*
X234034380Y-22670380D01*
X233986761Y-22575142D01*
X233939142Y-22527523D01*
X233843904Y-22479904D01*
X233653428Y-22432285D01*
X233415333Y-22432285D01*
X233224857Y-22479904D01*
X233129619Y-22527523D01*
X233082000Y-22575142D01*
X233034380Y-22670380D01*
X233034380Y-23622761D02*
X233034380Y-23718000D01*
X233082000Y-23813238D01*
X233129619Y-23860857D01*
X233224857Y-23908476D01*
X233415333Y-23956095D01*
X233653428Y-23956095D01*
X233843904Y-23908476D01*
X233939142Y-23860857D01*
X233986761Y-23813238D01*
X234034380Y-23718000D01*
X234034380Y-23622761D01*
X233986761Y-23527523D01*
X233939142Y-23479904D01*
X233843904Y-23432285D01*
X233653428Y-23384666D01*
X233415333Y-23384666D01*
X233224857Y-23432285D01*
X233129619Y-23479904D01*
X233082000Y-23527523D01*
X233034380Y-23622761D01*
X234034380Y-24384666D02*
X233034380Y-24384666D01*
X234034380Y-24956095D02*
X233462952Y-24527523D01*
X233034380Y-24956095D02*
X233605809Y-24384666D01*
D12*
X232158190Y-23134666D02*
X231920095Y-22968000D01*
X232158190Y-22848952D02*
X231658190Y-22848952D01*
X231658190Y-23039428D01*
X231682000Y-23087047D01*
X231705809Y-23110857D01*
X231753428Y-23134666D01*
X231824857Y-23134666D01*
X231872476Y-23110857D01*
X231896285Y-23087047D01*
X231920095Y-23039428D01*
X231920095Y-22848952D01*
X231824857Y-23563238D02*
X232158190Y-23563238D01*
X231634380Y-23444190D02*
X231991523Y-23325142D01*
X231991523Y-23634666D01*
D11*
X234034380Y-84051333D02*
X234034380Y-83479904D01*
X234034380Y-83765619D02*
X233034380Y-83765619D01*
X233177238Y-83670380D01*
X233272476Y-83575142D01*
X233320095Y-83479904D01*
X233034380Y-84670380D02*
X233034380Y-84765619D01*
X233082000Y-84860857D01*
X233129619Y-84908476D01*
X233224857Y-84956095D01*
X233415333Y-85003714D01*
X233653428Y-85003714D01*
X233843904Y-84956095D01*
X233939142Y-84908476D01*
X233986761Y-84860857D01*
X234034380Y-84765619D01*
X234034380Y-84670380D01*
X233986761Y-84575142D01*
X233939142Y-84527523D01*
X233843904Y-84479904D01*
X233653428Y-84432285D01*
X233415333Y-84432285D01*
X233224857Y-84479904D01*
X233129619Y-84527523D01*
X233082000Y-84575142D01*
X233034380Y-84670380D01*
X233034380Y-85622761D02*
X233034380Y-85718000D01*
X233082000Y-85813238D01*
X233129619Y-85860857D01*
X233224857Y-85908476D01*
X233415333Y-85956095D01*
X233653428Y-85956095D01*
X233843904Y-85908476D01*
X233939142Y-85860857D01*
X233986761Y-85813238D01*
X234034380Y-85718000D01*
X234034380Y-85622761D01*
X233986761Y-85527523D01*
X233939142Y-85479904D01*
X233843904Y-85432285D01*
X233653428Y-85384666D01*
X233415333Y-85384666D01*
X233224857Y-85432285D01*
X233129619Y-85479904D01*
X233082000Y-85527523D01*
X233034380Y-85622761D01*
X234034380Y-86384666D02*
X233034380Y-86384666D01*
X234034380Y-86956095D02*
X233462952Y-86527523D01*
X233034380Y-86956095D02*
X233605809Y-86384666D01*
D12*
X232158190Y-85134666D02*
X231920095Y-84968000D01*
X232158190Y-84848952D02*
X231658190Y-84848952D01*
X231658190Y-85039428D01*
X231682000Y-85087047D01*
X231705809Y-85110857D01*
X231753428Y-85134666D01*
X231824857Y-85134666D01*
X231872476Y-85110857D01*
X231896285Y-85087047D01*
X231920095Y-85039428D01*
X231920095Y-84848952D01*
X231824857Y-85563238D02*
X232158190Y-85563238D01*
X231634380Y-85444190D02*
X231991523Y-85325142D01*
X231991523Y-85634666D01*
D11*
X234034380Y-146051333D02*
X234034380Y-145479904D01*
X234034380Y-145765619D02*
X233034380Y-145765619D01*
X233177238Y-145670380D01*
X233272476Y-145575142D01*
X233320095Y-145479904D01*
X233034380Y-146670380D02*
X233034380Y-146765619D01*
X233082000Y-146860857D01*
X233129619Y-146908476D01*
X233224857Y-146956095D01*
X233415333Y-147003714D01*
X233653428Y-147003714D01*
X233843904Y-146956095D01*
X233939142Y-146908476D01*
X233986761Y-146860857D01*
X234034380Y-146765619D01*
X234034380Y-146670380D01*
X233986761Y-146575142D01*
X233939142Y-146527523D01*
X233843904Y-146479904D01*
X233653428Y-146432285D01*
X233415333Y-146432285D01*
X233224857Y-146479904D01*
X233129619Y-146527523D01*
X233082000Y-146575142D01*
X233034380Y-146670380D01*
X233034380Y-147622761D02*
X233034380Y-147718000D01*
X233082000Y-147813238D01*
X233129619Y-147860857D01*
X233224857Y-147908476D01*
X233415333Y-147956095D01*
X233653428Y-147956095D01*
X233843904Y-147908476D01*
X233939142Y-147860857D01*
X233986761Y-147813238D01*
X234034380Y-147718000D01*
X234034380Y-147622761D01*
X233986761Y-147527523D01*
X233939142Y-147479904D01*
X233843904Y-147432285D01*
X233653428Y-147384666D01*
X233415333Y-147384666D01*
X233224857Y-147432285D01*
X233129619Y-147479904D01*
X233082000Y-147527523D01*
X233034380Y-147622761D01*
X234034380Y-148384666D02*
X233034380Y-148384666D01*
X234034380Y-148956095D02*
X233462952Y-148527523D01*
X233034380Y-148956095D02*
X233605809Y-148384666D01*
D12*
X232158190Y-147134666D02*
X231920095Y-146968000D01*
X232158190Y-146848952D02*
X231658190Y-146848952D01*
X231658190Y-147039428D01*
X231682000Y-147087047D01*
X231705809Y-147110857D01*
X231753428Y-147134666D01*
X231824857Y-147134666D01*
X231872476Y-147110857D01*
X231896285Y-147087047D01*
X231920095Y-147039428D01*
X231920095Y-146848952D01*
X231824857Y-147563238D02*
X232158190Y-147563238D01*
X231634380Y-147444190D02*
X231991523Y-147325142D01*
X231991523Y-147634666D01*
D11*
X124034380Y-22051333D02*
X124034380Y-21479904D01*
X124034380Y-21765619D02*
X123034380Y-21765619D01*
X123177238Y-21670380D01*
X123272476Y-21575142D01*
X123320095Y-21479904D01*
X123034380Y-22670380D02*
X123034380Y-22765619D01*
X123082000Y-22860857D01*
X123129619Y-22908476D01*
X123224857Y-22956095D01*
X123415333Y-23003714D01*
X123653428Y-23003714D01*
X123843904Y-22956095D01*
X123939142Y-22908476D01*
X123986761Y-22860857D01*
X124034380Y-22765619D01*
X124034380Y-22670380D01*
X123986761Y-22575142D01*
X123939142Y-22527523D01*
X123843904Y-22479904D01*
X123653428Y-22432285D01*
X123415333Y-22432285D01*
X123224857Y-22479904D01*
X123129619Y-22527523D01*
X123082000Y-22575142D01*
X123034380Y-22670380D01*
X123034380Y-23622761D02*
X123034380Y-23718000D01*
X123082000Y-23813238D01*
X123129619Y-23860857D01*
X123224857Y-23908476D01*
X123415333Y-23956095D01*
X123653428Y-23956095D01*
X123843904Y-23908476D01*
X123939142Y-23860857D01*
X123986761Y-23813238D01*
X124034380Y-23718000D01*
X124034380Y-23622761D01*
X123986761Y-23527523D01*
X123939142Y-23479904D01*
X123843904Y-23432285D01*
X123653428Y-23384666D01*
X123415333Y-23384666D01*
X123224857Y-23432285D01*
X123129619Y-23479904D01*
X123082000Y-23527523D01*
X123034380Y-23622761D01*
X124034380Y-24384666D02*
X123034380Y-24384666D01*
X124034380Y-24956095D02*
X123462952Y-24527523D01*
X123034380Y-24956095D02*
X123605809Y-24384666D01*
D12*
X122158190Y-23134666D02*
X121920095Y-22968000D01*
X122158190Y-22848952D02*
X121658190Y-22848952D01*
X121658190Y-23039428D01*
X121682000Y-23087047D01*
X121705809Y-23110857D01*
X121753428Y-23134666D01*
X121824857Y-23134666D01*
X121872476Y-23110857D01*
X121896285Y-23087047D01*
X121920095Y-23039428D01*
X121920095Y-22848952D01*
X121824857Y-23563238D02*
X122158190Y-23563238D01*
X121634380Y-23444190D02*
X121991523Y-23325142D01*
X121991523Y-23634666D01*
D11*
X124034380Y-84051333D02*
X124034380Y-83479904D01*
X124034380Y-83765619D02*
X123034380Y-83765619D01*
X123177238Y-83670380D01*
X123272476Y-83575142D01*
X123320095Y-83479904D01*
X123034380Y-84670380D02*
X123034380Y-84765619D01*
X123082000Y-84860857D01*
X123129619Y-84908476D01*
X123224857Y-84956095D01*
X123415333Y-85003714D01*
X123653428Y-85003714D01*
X123843904Y-84956095D01*
X123939142Y-84908476D01*
X123986761Y-84860857D01*
X124034380Y-84765619D01*
X124034380Y-84670380D01*
X123986761Y-84575142D01*
X123939142Y-84527523D01*
X123843904Y-84479904D01*
X123653428Y-84432285D01*
X123415333Y-84432285D01*
X123224857Y-84479904D01*
X123129619Y-84527523D01*
X123082000Y-84575142D01*
X123034380Y-84670380D01*
X123034380Y-85622761D02*
X123034380Y-85718000D01*
X123082000Y-85813238D01*
X123129619Y-85860857D01*
X123224857Y-85908476D01*
X123415333Y-85956095D01*
X123653428Y-85956095D01*
X123843904Y-85908476D01*
X123939142Y-85860857D01*
X123986761Y-85813238D01*
X124034380Y-85718000D01*
X124034380Y-85622761D01*
X123986761Y-85527523D01*
X123939142Y-85479904D01*
X123843904Y-85432285D01*
X123653428Y-85384666D01*
X123415333Y-85384666D01*
X123224857Y-85432285D01*
X123129619Y-85479904D01*
X123082000Y-85527523D01*
X123034380Y-85622761D01*
X124034380Y-86384666D02*
X123034380Y-86384666D01*
X124034380Y-86956095D02*
X123462952Y-86527523D01*
X123034380Y-86956095D02*
X123605809Y-86384666D01*
D12*
X122158190Y-85134666D02*
X121920095Y-84968000D01*
X122158190Y-84848952D02*
X121658190Y-84848952D01*
X121658190Y-85039428D01*
X121682000Y-85087047D01*
X121705809Y-85110857D01*
X121753428Y-85134666D01*
X121824857Y-85134666D01*
X121872476Y-85110857D01*
X121896285Y-85087047D01*
X121920095Y-85039428D01*
X121920095Y-84848952D01*
X121824857Y-85563238D02*
X122158190Y-85563238D01*
X121634380Y-85444190D02*
X121991523Y-85325142D01*
X121991523Y-85634666D01*
D11*
X230139380Y-36566333D02*
X230139380Y-35994904D01*
X230139380Y-36280619D02*
X229139380Y-36280619D01*
X229282238Y-36185380D01*
X229377476Y-36090142D01*
X229425095Y-35994904D01*
X229139380Y-37185380D02*
X229139380Y-37280619D01*
X229187000Y-37375857D01*
X229234619Y-37423476D01*
X229329857Y-37471095D01*
X229520333Y-37518714D01*
X229758428Y-37518714D01*
X229948904Y-37471095D01*
X230044142Y-37423476D01*
X230091761Y-37375857D01*
X230139380Y-37280619D01*
X230139380Y-37185380D01*
X230091761Y-37090142D01*
X230044142Y-37042523D01*
X229948904Y-36994904D01*
X229758428Y-36947285D01*
X229520333Y-36947285D01*
X229329857Y-36994904D01*
X229234619Y-37042523D01*
X229187000Y-37090142D01*
X229139380Y-37185380D01*
X229139380Y-38137761D02*
X229139380Y-38233000D01*
X229187000Y-38328238D01*
X229234619Y-38375857D01*
X229329857Y-38423476D01*
X229520333Y-38471095D01*
X229758428Y-38471095D01*
X229948904Y-38423476D01*
X230044142Y-38375857D01*
X230091761Y-38328238D01*
X230139380Y-38233000D01*
X230139380Y-38137761D01*
X230091761Y-38042523D01*
X230044142Y-37994904D01*
X229948904Y-37947285D01*
X229758428Y-37899666D01*
X229520333Y-37899666D01*
X229329857Y-37947285D01*
X229234619Y-37994904D01*
X229187000Y-38042523D01*
X229139380Y-38137761D01*
D12*
X231563190Y-37149666D02*
X231325095Y-36983000D01*
X231563190Y-36863952D02*
X231063190Y-36863952D01*
X231063190Y-37054428D01*
X231087000Y-37102047D01*
X231110809Y-37125857D01*
X231158428Y-37149666D01*
X231229857Y-37149666D01*
X231277476Y-37125857D01*
X231301285Y-37102047D01*
X231325095Y-37054428D01*
X231325095Y-36863952D01*
X231110809Y-37340142D02*
X231087000Y-37363952D01*
X231063190Y-37411571D01*
X231063190Y-37530619D01*
X231087000Y-37578238D01*
X231110809Y-37602047D01*
X231158428Y-37625857D01*
X231206047Y-37625857D01*
X231277476Y-37602047D01*
X231563190Y-37316333D01*
X231563190Y-37625857D01*
D11*
X230139380Y-98566333D02*
X230139380Y-97994904D01*
X230139380Y-98280619D02*
X229139380Y-98280619D01*
X229282238Y-98185380D01*
X229377476Y-98090142D01*
X229425095Y-97994904D01*
X229139380Y-99185380D02*
X229139380Y-99280619D01*
X229187000Y-99375857D01*
X229234619Y-99423476D01*
X229329857Y-99471095D01*
X229520333Y-99518714D01*
X229758428Y-99518714D01*
X229948904Y-99471095D01*
X230044142Y-99423476D01*
X230091761Y-99375857D01*
X230139380Y-99280619D01*
X230139380Y-99185380D01*
X230091761Y-99090142D01*
X230044142Y-99042523D01*
X229948904Y-98994904D01*
X229758428Y-98947285D01*
X229520333Y-98947285D01*
X229329857Y-98994904D01*
X229234619Y-99042523D01*
X229187000Y-99090142D01*
X229139380Y-99185380D01*
X229139380Y-100137761D02*
X229139380Y-100233000D01*
X229187000Y-100328238D01*
X229234619Y-100375857D01*
X229329857Y-100423476D01*
X229520333Y-100471095D01*
X229758428Y-100471095D01*
X229948904Y-100423476D01*
X230044142Y-100375857D01*
X230091761Y-100328238D01*
X230139380Y-100233000D01*
X230139380Y-100137761D01*
X230091761Y-100042523D01*
X230044142Y-99994904D01*
X229948904Y-99947285D01*
X229758428Y-99899666D01*
X229520333Y-99899666D01*
X229329857Y-99947285D01*
X229234619Y-99994904D01*
X229187000Y-100042523D01*
X229139380Y-100137761D01*
D12*
X231563190Y-99149666D02*
X231325095Y-98983000D01*
X231563190Y-98863952D02*
X231063190Y-98863952D01*
X231063190Y-99054428D01*
X231087000Y-99102047D01*
X231110809Y-99125857D01*
X231158428Y-99149666D01*
X231229857Y-99149666D01*
X231277476Y-99125857D01*
X231301285Y-99102047D01*
X231325095Y-99054428D01*
X231325095Y-98863952D01*
X231110809Y-99340142D02*
X231087000Y-99363952D01*
X231063190Y-99411571D01*
X231063190Y-99530619D01*
X231087000Y-99578238D01*
X231110809Y-99602047D01*
X231158428Y-99625857D01*
X231206047Y-99625857D01*
X231277476Y-99602047D01*
X231563190Y-99316333D01*
X231563190Y-99625857D01*
D11*
X230139380Y-160566333D02*
X230139380Y-159994904D01*
X230139380Y-160280619D02*
X229139380Y-160280619D01*
X229282238Y-160185380D01*
X229377476Y-160090142D01*
X229425095Y-159994904D01*
X229139380Y-161185380D02*
X229139380Y-161280619D01*
X229187000Y-161375857D01*
X229234619Y-161423476D01*
X229329857Y-161471095D01*
X229520333Y-161518714D01*
X229758428Y-161518714D01*
X229948904Y-161471095D01*
X230044142Y-161423476D01*
X230091761Y-161375857D01*
X230139380Y-161280619D01*
X230139380Y-161185380D01*
X230091761Y-161090142D01*
X230044142Y-161042523D01*
X229948904Y-160994904D01*
X229758428Y-160947285D01*
X229520333Y-160947285D01*
X229329857Y-160994904D01*
X229234619Y-161042523D01*
X229187000Y-161090142D01*
X229139380Y-161185380D01*
X229139380Y-162137761D02*
X229139380Y-162233000D01*
X229187000Y-162328238D01*
X229234619Y-162375857D01*
X229329857Y-162423476D01*
X229520333Y-162471095D01*
X229758428Y-162471095D01*
X229948904Y-162423476D01*
X230044142Y-162375857D01*
X230091761Y-162328238D01*
X230139380Y-162233000D01*
X230139380Y-162137761D01*
X230091761Y-162042523D01*
X230044142Y-161994904D01*
X229948904Y-161947285D01*
X229758428Y-161899666D01*
X229520333Y-161899666D01*
X229329857Y-161947285D01*
X229234619Y-161994904D01*
X229187000Y-162042523D01*
X229139380Y-162137761D01*
D12*
X231563190Y-161149666D02*
X231325095Y-160983000D01*
X231563190Y-160863952D02*
X231063190Y-160863952D01*
X231063190Y-161054428D01*
X231087000Y-161102047D01*
X231110809Y-161125857D01*
X231158428Y-161149666D01*
X231229857Y-161149666D01*
X231277476Y-161125857D01*
X231301285Y-161102047D01*
X231325095Y-161054428D01*
X231325095Y-160863952D01*
X231110809Y-161340142D02*
X231087000Y-161363952D01*
X231063190Y-161411571D01*
X231063190Y-161530619D01*
X231087000Y-161578238D01*
X231110809Y-161602047D01*
X231158428Y-161625857D01*
X231206047Y-161625857D01*
X231277476Y-161602047D01*
X231563190Y-161316333D01*
X231563190Y-161625857D01*
D11*
X120139380Y-36566333D02*
X120139380Y-35994904D01*
X120139380Y-36280619D02*
X119139380Y-36280619D01*
X119282238Y-36185380D01*
X119377476Y-36090142D01*
X119425095Y-35994904D01*
X119139380Y-37185380D02*
X119139380Y-37280619D01*
X119187000Y-37375857D01*
X119234619Y-37423476D01*
X119329857Y-37471095D01*
X119520333Y-37518714D01*
X119758428Y-37518714D01*
X119948904Y-37471095D01*
X120044142Y-37423476D01*
X120091761Y-37375857D01*
X120139380Y-37280619D01*
X120139380Y-37185380D01*
X120091761Y-37090142D01*
X120044142Y-37042523D01*
X119948904Y-36994904D01*
X119758428Y-36947285D01*
X119520333Y-36947285D01*
X119329857Y-36994904D01*
X119234619Y-37042523D01*
X119187000Y-37090142D01*
X119139380Y-37185380D01*
X119139380Y-38137761D02*
X119139380Y-38233000D01*
X119187000Y-38328238D01*
X119234619Y-38375857D01*
X119329857Y-38423476D01*
X119520333Y-38471095D01*
X119758428Y-38471095D01*
X119948904Y-38423476D01*
X120044142Y-38375857D01*
X120091761Y-38328238D01*
X120139380Y-38233000D01*
X120139380Y-38137761D01*
X120091761Y-38042523D01*
X120044142Y-37994904D01*
X119948904Y-37947285D01*
X119758428Y-37899666D01*
X119520333Y-37899666D01*
X119329857Y-37947285D01*
X119234619Y-37994904D01*
X119187000Y-38042523D01*
X119139380Y-38137761D01*
D12*
X121563190Y-37149666D02*
X121325095Y-36983000D01*
X121563190Y-36863952D02*
X121063190Y-36863952D01*
X121063190Y-37054428D01*
X121087000Y-37102047D01*
X121110809Y-37125857D01*
X121158428Y-37149666D01*
X121229857Y-37149666D01*
X121277476Y-37125857D01*
X121301285Y-37102047D01*
X121325095Y-37054428D01*
X121325095Y-36863952D01*
X121110809Y-37340142D02*
X121087000Y-37363952D01*
X121063190Y-37411571D01*
X121063190Y-37530619D01*
X121087000Y-37578238D01*
X121110809Y-37602047D01*
X121158428Y-37625857D01*
X121206047Y-37625857D01*
X121277476Y-37602047D01*
X121563190Y-37316333D01*
X121563190Y-37625857D01*
D11*
X120139380Y-98566333D02*
X120139380Y-97994904D01*
X120139380Y-98280619D02*
X119139380Y-98280619D01*
X119282238Y-98185380D01*
X119377476Y-98090142D01*
X119425095Y-97994904D01*
X119139380Y-99185380D02*
X119139380Y-99280619D01*
X119187000Y-99375857D01*
X119234619Y-99423476D01*
X119329857Y-99471095D01*
X119520333Y-99518714D01*
X119758428Y-99518714D01*
X119948904Y-99471095D01*
X120044142Y-99423476D01*
X120091761Y-99375857D01*
X120139380Y-99280619D01*
X120139380Y-99185380D01*
X120091761Y-99090142D01*
X120044142Y-99042523D01*
X119948904Y-98994904D01*
X119758428Y-98947285D01*
X119520333Y-98947285D01*
X119329857Y-98994904D01*
X119234619Y-99042523D01*
X119187000Y-99090142D01*
X119139380Y-99185380D01*
X119139380Y-100137761D02*
X119139380Y-100233000D01*
X119187000Y-100328238D01*
X119234619Y-100375857D01*
X119329857Y-100423476D01*
X119520333Y-100471095D01*
X119758428Y-100471095D01*
X119948904Y-100423476D01*
X120044142Y-100375857D01*
X120091761Y-100328238D01*
X120139380Y-100233000D01*
X120139380Y-100137761D01*
X120091761Y-100042523D01*
X120044142Y-99994904D01*
X119948904Y-99947285D01*
X119758428Y-99899666D01*
X119520333Y-99899666D01*
X119329857Y-99947285D01*
X119234619Y-99994904D01*
X119187000Y-100042523D01*
X119139380Y-100137761D01*
D12*
X121563190Y-99149666D02*
X121325095Y-98983000D01*
X121563190Y-98863952D02*
X121063190Y-98863952D01*
X121063190Y-99054428D01*
X121087000Y-99102047D01*
X121110809Y-99125857D01*
X121158428Y-99149666D01*
X121229857Y-99149666D01*
X121277476Y-99125857D01*
X121301285Y-99102047D01*
X121325095Y-99054428D01*
X121325095Y-98863952D01*
X121110809Y-99340142D02*
X121087000Y-99363952D01*
X121063190Y-99411571D01*
X121063190Y-99530619D01*
X121087000Y-99578238D01*
X121110809Y-99602047D01*
X121158428Y-99625857D01*
X121206047Y-99625857D01*
X121277476Y-99602047D01*
X121563190Y-99316333D01*
X121563190Y-99625857D01*
D11*
X232136761Y-26022761D02*
X231993904Y-26070380D01*
X231755809Y-26070380D01*
X231660571Y-26022761D01*
X231612952Y-25975142D01*
X231565333Y-25879904D01*
X231565333Y-25784666D01*
X231612952Y-25689428D01*
X231660571Y-25641809D01*
X231755809Y-25594190D01*
X231946285Y-25546571D01*
X232041523Y-25498952D01*
X232089142Y-25451333D01*
X232136761Y-25356095D01*
X232136761Y-25260857D01*
X232089142Y-25165619D01*
X232041523Y-25118000D01*
X231946285Y-25070380D01*
X231708190Y-25070380D01*
X231565333Y-25118000D01*
X231136761Y-26070380D02*
X231136761Y-25403714D01*
X231136761Y-25070380D02*
X231184380Y-25118000D01*
X231136761Y-25165619D01*
X231089142Y-25118000D01*
X231136761Y-25070380D01*
X231136761Y-25165619D01*
X230708190Y-25165619D02*
X230660571Y-25118000D01*
X230565333Y-25070380D01*
X230327238Y-25070380D01*
X230232000Y-25118000D01*
X230184380Y-25165619D01*
X230136761Y-25260857D01*
X230136761Y-25356095D01*
X230184380Y-25498952D01*
X230755809Y-26070380D01*
X230136761Y-26070380D01*
X229803428Y-25070380D02*
X229184380Y-25070380D01*
X229517714Y-25451333D01*
X229374857Y-25451333D01*
X229279619Y-25498952D01*
X229232000Y-25546571D01*
X229184380Y-25641809D01*
X229184380Y-25879904D01*
X229232000Y-25975142D01*
X229279619Y-26022761D01*
X229374857Y-26070380D01*
X229660571Y-26070380D01*
X229755809Y-26022761D01*
X229803428Y-25975142D01*
X228565333Y-25070380D02*
X228470095Y-25070380D01*
X228374857Y-25118000D01*
X228327238Y-25165619D01*
X228279619Y-25260857D01*
X228232000Y-25451333D01*
X228232000Y-25689428D01*
X228279619Y-25879904D01*
X228327238Y-25975142D01*
X228374857Y-26022761D01*
X228470095Y-26070380D01*
X228565333Y-26070380D01*
X228660571Y-26022761D01*
X228708190Y-25975142D01*
X228755809Y-25879904D01*
X228803428Y-25689428D01*
X228803428Y-25451333D01*
X228755809Y-25260857D01*
X228708190Y-25165619D01*
X228660571Y-25118000D01*
X228565333Y-25070380D01*
X227660571Y-25498952D02*
X227755809Y-25451333D01*
X227803428Y-25403714D01*
X227851047Y-25308476D01*
X227851047Y-25260857D01*
X227803428Y-25165619D01*
X227755809Y-25118000D01*
X227660571Y-25070380D01*
X227470095Y-25070380D01*
X227374857Y-25118000D01*
X227327238Y-25165619D01*
X227279619Y-25260857D01*
X227279619Y-25308476D01*
X227327238Y-25403714D01*
X227374857Y-25451333D01*
X227470095Y-25498952D01*
X227660571Y-25498952D01*
X227755809Y-25546571D01*
X227803428Y-25594190D01*
X227851047Y-25689428D01*
X227851047Y-25879904D01*
X227803428Y-25975142D01*
X227755809Y-26022761D01*
X227660571Y-26070380D01*
X227470095Y-26070380D01*
X227374857Y-26022761D01*
X227327238Y-25975142D01*
X227279619Y-25879904D01*
X227279619Y-25689428D01*
X227327238Y-25594190D01*
X227374857Y-25546571D01*
X227470095Y-25498952D01*
X226279619Y-25975142D02*
X226327238Y-26022761D01*
X226470095Y-26070380D01*
X226565333Y-26070380D01*
X226708190Y-26022761D01*
X226803428Y-25927523D01*
X226851047Y-25832285D01*
X226898666Y-25641809D01*
X226898666Y-25498952D01*
X226851047Y-25308476D01*
X226803428Y-25213238D01*
X226708190Y-25118000D01*
X226565333Y-25070380D01*
X226470095Y-25070380D01*
X226327238Y-25118000D01*
X226279619Y-25165619D01*
X225851047Y-26070380D02*
X225851047Y-25070380D01*
X225612952Y-25070380D01*
X225470095Y-25118000D01*
X225374857Y-25213238D01*
X225327238Y-25308476D01*
X225279619Y-25498952D01*
X225279619Y-25641809D01*
X225327238Y-25832285D01*
X225374857Y-25927523D01*
X225470095Y-26022761D01*
X225612952Y-26070380D01*
X225851047Y-26070380D01*
X224898666Y-26022761D02*
X224755809Y-26070380D01*
X224517714Y-26070380D01*
X224422476Y-26022761D01*
X224374857Y-25975142D01*
X224327238Y-25879904D01*
X224327238Y-25784666D01*
X224374857Y-25689428D01*
X224422476Y-25641809D01*
X224517714Y-25594190D01*
X224708190Y-25546571D01*
X224803428Y-25498952D01*
X224851047Y-25451333D01*
X224898666Y-25356095D01*
X224898666Y-25260857D01*
X224851047Y-25165619D01*
X224803428Y-25118000D01*
X224708190Y-25070380D01*
X224470095Y-25070380D01*
X224327238Y-25118000D01*
D13*
X228505809Y-23070380D02*
X228482000Y-23022761D01*
X228434380Y-22975142D01*
X228362952Y-22903714D01*
X228339142Y-22856095D01*
X228339142Y-22808476D01*
X228458190Y-22832285D02*
X228434380Y-22784666D01*
X228386761Y-22737047D01*
X228291523Y-22713238D01*
X228124857Y-22713238D01*
X228029619Y-22737047D01*
X227982000Y-22784666D01*
X227958190Y-22832285D01*
X227958190Y-22927523D01*
X227982000Y-22975142D01*
X228029619Y-23022761D01*
X228124857Y-23046571D01*
X228291523Y-23046571D01*
X228386761Y-23022761D01*
X228434380Y-22975142D01*
X228458190Y-22927523D01*
X228458190Y-22832285D01*
X228458190Y-23522761D02*
X228458190Y-23237047D01*
X228458190Y-23379904D02*
X227958190Y-23379904D01*
X228029619Y-23332285D01*
X228077238Y-23284666D01*
X228101047Y-23237047D01*
D11*
X232136761Y-88022761D02*
X231993904Y-88070380D01*
X231755809Y-88070380D01*
X231660571Y-88022761D01*
X231612952Y-87975142D01*
X231565333Y-87879904D01*
X231565333Y-87784666D01*
X231612952Y-87689428D01*
X231660571Y-87641809D01*
X231755809Y-87594190D01*
X231946285Y-87546571D01*
X232041523Y-87498952D01*
X232089142Y-87451333D01*
X232136761Y-87356095D01*
X232136761Y-87260857D01*
X232089142Y-87165619D01*
X232041523Y-87118000D01*
X231946285Y-87070380D01*
X231708190Y-87070380D01*
X231565333Y-87118000D01*
X231136761Y-88070380D02*
X231136761Y-87403714D01*
X231136761Y-87070380D02*
X231184380Y-87118000D01*
X231136761Y-87165619D01*
X231089142Y-87118000D01*
X231136761Y-87070380D01*
X231136761Y-87165619D01*
X230708190Y-87165619D02*
X230660571Y-87118000D01*
X230565333Y-87070380D01*
X230327238Y-87070380D01*
X230232000Y-87118000D01*
X230184380Y-87165619D01*
X230136761Y-87260857D01*
X230136761Y-87356095D01*
X230184380Y-87498952D01*
X230755809Y-88070380D01*
X230136761Y-88070380D01*
X229803428Y-87070380D02*
X229184380Y-87070380D01*
X229517714Y-87451333D01*
X229374857Y-87451333D01*
X229279619Y-87498952D01*
X229232000Y-87546571D01*
X229184380Y-87641809D01*
X229184380Y-87879904D01*
X229232000Y-87975142D01*
X229279619Y-88022761D01*
X229374857Y-88070380D01*
X229660571Y-88070380D01*
X229755809Y-88022761D01*
X229803428Y-87975142D01*
X228565333Y-87070380D02*
X228470095Y-87070380D01*
X228374857Y-87118000D01*
X228327238Y-87165619D01*
X228279619Y-87260857D01*
X228232000Y-87451333D01*
X228232000Y-87689428D01*
X228279619Y-87879904D01*
X228327238Y-87975142D01*
X228374857Y-88022761D01*
X228470095Y-88070380D01*
X228565333Y-88070380D01*
X228660571Y-88022761D01*
X228708190Y-87975142D01*
X228755809Y-87879904D01*
X228803428Y-87689428D01*
X228803428Y-87451333D01*
X228755809Y-87260857D01*
X228708190Y-87165619D01*
X228660571Y-87118000D01*
X228565333Y-87070380D01*
X227660571Y-87498952D02*
X227755809Y-87451333D01*
X227803428Y-87403714D01*
X227851047Y-87308476D01*
X227851047Y-87260857D01*
X227803428Y-87165619D01*
X227755809Y-87118000D01*
X227660571Y-87070380D01*
X227470095Y-87070380D01*
X227374857Y-87118000D01*
X227327238Y-87165619D01*
X227279619Y-87260857D01*
X227279619Y-87308476D01*
X227327238Y-87403714D01*
X227374857Y-87451333D01*
X227470095Y-87498952D01*
X227660571Y-87498952D01*
X227755809Y-87546571D01*
X227803428Y-87594190D01*
X227851047Y-87689428D01*
X227851047Y-87879904D01*
X227803428Y-87975142D01*
X227755809Y-88022761D01*
X227660571Y-88070380D01*
X227470095Y-88070380D01*
X227374857Y-88022761D01*
X227327238Y-87975142D01*
X227279619Y-87879904D01*
X227279619Y-87689428D01*
X227327238Y-87594190D01*
X227374857Y-87546571D01*
X227470095Y-87498952D01*
X226279619Y-87975142D02*
X226327238Y-88022761D01*
X226470095Y-88070380D01*
X226565333Y-88070380D01*
X226708190Y-88022761D01*
X226803428Y-87927523D01*
X226851047Y-87832285D01*
X226898666Y-87641809D01*
X226898666Y-87498952D01*
X226851047Y-87308476D01*
X226803428Y-87213238D01*
X226708190Y-87118000D01*
X226565333Y-87070380D01*
X226470095Y-87070380D01*
X226327238Y-87118000D01*
X226279619Y-87165619D01*
X225851047Y-88070380D02*
X225851047Y-87070380D01*
X225612952Y-87070380D01*
X225470095Y-87118000D01*
X225374857Y-87213238D01*
X225327238Y-87308476D01*
X225279619Y-87498952D01*
X225279619Y-87641809D01*
X225327238Y-87832285D01*
X225374857Y-87927523D01*
X225470095Y-88022761D01*
X225612952Y-88070380D01*
X225851047Y-88070380D01*
X224898666Y-88022761D02*
X224755809Y-88070380D01*
X224517714Y-88070380D01*
X224422476Y-88022761D01*
X224374857Y-87975142D01*
X224327238Y-87879904D01*
X224327238Y-87784666D01*
X224374857Y-87689428D01*
X224422476Y-87641809D01*
X224517714Y-87594190D01*
X224708190Y-87546571D01*
X224803428Y-87498952D01*
X224851047Y-87451333D01*
X224898666Y-87356095D01*
X224898666Y-87260857D01*
X224851047Y-87165619D01*
X224803428Y-87118000D01*
X224708190Y-87070380D01*
X224470095Y-87070380D01*
X224327238Y-87118000D01*
D13*
X228505809Y-85070380D02*
X228482000Y-85022761D01*
X228434380Y-84975142D01*
X228362952Y-84903714D01*
X228339142Y-84856095D01*
X228339142Y-84808476D01*
X228458190Y-84832285D02*
X228434380Y-84784666D01*
X228386761Y-84737047D01*
X228291523Y-84713238D01*
X228124857Y-84713238D01*
X228029619Y-84737047D01*
X227982000Y-84784666D01*
X227958190Y-84832285D01*
X227958190Y-84927523D01*
X227982000Y-84975142D01*
X228029619Y-85022761D01*
X228124857Y-85046571D01*
X228291523Y-85046571D01*
X228386761Y-85022761D01*
X228434380Y-84975142D01*
X228458190Y-84927523D01*
X228458190Y-84832285D01*
X228458190Y-85522761D02*
X228458190Y-85237047D01*
X228458190Y-85379904D02*
X227958190Y-85379904D01*
X228029619Y-85332285D01*
X228077238Y-85284666D01*
X228101047Y-85237047D01*
D11*
X232136761Y-150022761D02*
X231993904Y-150070380D01*
X231755809Y-150070380D01*
X231660571Y-150022761D01*
X231612952Y-149975142D01*
X231565333Y-149879904D01*
X231565333Y-149784666D01*
X231612952Y-149689428D01*
X231660571Y-149641809D01*
X231755809Y-149594190D01*
X231946285Y-149546571D01*
X232041523Y-149498952D01*
X232089142Y-149451333D01*
X232136761Y-149356095D01*
X232136761Y-149260857D01*
X232089142Y-149165619D01*
X232041523Y-149118000D01*
X231946285Y-149070380D01*
X231708190Y-149070380D01*
X231565333Y-149118000D01*
X231136761Y-150070380D02*
X231136761Y-149403714D01*
X231136761Y-149070380D02*
X231184380Y-149118000D01*
X231136761Y-149165619D01*
X231089142Y-149118000D01*
X231136761Y-149070380D01*
X231136761Y-149165619D01*
X230708190Y-149165619D02*
X230660571Y-149118000D01*
X230565333Y-149070380D01*
X230327238Y-149070380D01*
X230232000Y-149118000D01*
X230184380Y-149165619D01*
X230136761Y-149260857D01*
X230136761Y-149356095D01*
X230184380Y-149498952D01*
X230755809Y-150070380D01*
X230136761Y-150070380D01*
X229803428Y-149070380D02*
X229184380Y-149070380D01*
X229517714Y-149451333D01*
X229374857Y-149451333D01*
X229279619Y-149498952D01*
X229232000Y-149546571D01*
X229184380Y-149641809D01*
X229184380Y-149879904D01*
X229232000Y-149975142D01*
X229279619Y-150022761D01*
X229374857Y-150070380D01*
X229660571Y-150070380D01*
X229755809Y-150022761D01*
X229803428Y-149975142D01*
X228565333Y-149070380D02*
X228470095Y-149070380D01*
X228374857Y-149118000D01*
X228327238Y-149165619D01*
X228279619Y-149260857D01*
X228232000Y-149451333D01*
X228232000Y-149689428D01*
X228279619Y-149879904D01*
X228327238Y-149975142D01*
X228374857Y-150022761D01*
X228470095Y-150070380D01*
X228565333Y-150070380D01*
X228660571Y-150022761D01*
X228708190Y-149975142D01*
X228755809Y-149879904D01*
X228803428Y-149689428D01*
X228803428Y-149451333D01*
X228755809Y-149260857D01*
X228708190Y-149165619D01*
X228660571Y-149118000D01*
X228565333Y-149070380D01*
X227660571Y-149498952D02*
X227755809Y-149451333D01*
X227803428Y-149403714D01*
X227851047Y-149308476D01*
X227851047Y-149260857D01*
X227803428Y-149165619D01*
X227755809Y-149118000D01*
X227660571Y-149070380D01*
X227470095Y-149070380D01*
X227374857Y-149118000D01*
X227327238Y-149165619D01*
X227279619Y-149260857D01*
X227279619Y-149308476D01*
X227327238Y-149403714D01*
X227374857Y-149451333D01*
X227470095Y-149498952D01*
X227660571Y-149498952D01*
X227755809Y-149546571D01*
X227803428Y-149594190D01*
X227851047Y-149689428D01*
X227851047Y-149879904D01*
X227803428Y-149975142D01*
X227755809Y-150022761D01*
X227660571Y-150070380D01*
X227470095Y-150070380D01*
X227374857Y-150022761D01*
X227327238Y-149975142D01*
X227279619Y-149879904D01*
X227279619Y-149689428D01*
X227327238Y-149594190D01*
X227374857Y-149546571D01*
X227470095Y-149498952D01*
X226279619Y-149975142D02*
X226327238Y-150022761D01*
X226470095Y-150070380D01*
X226565333Y-150070380D01*
X226708190Y-150022761D01*
X226803428Y-149927523D01*
X226851047Y-149832285D01*
X226898666Y-149641809D01*
X226898666Y-149498952D01*
X226851047Y-149308476D01*
X226803428Y-149213238D01*
X226708190Y-149118000D01*
X226565333Y-149070380D01*
X226470095Y-149070380D01*
X226327238Y-149118000D01*
X226279619Y-149165619D01*
X225851047Y-150070380D02*
X225851047Y-149070380D01*
X225612952Y-149070380D01*
X225470095Y-149118000D01*
X225374857Y-149213238D01*
X225327238Y-149308476D01*
X225279619Y-149498952D01*
X225279619Y-149641809D01*
X225327238Y-149832285D01*
X225374857Y-149927523D01*
X225470095Y-150022761D01*
X225612952Y-150070380D01*
X225851047Y-150070380D01*
X224898666Y-150022761D02*
X224755809Y-150070380D01*
X224517714Y-150070380D01*
X224422476Y-150022761D01*
X224374857Y-149975142D01*
X224327238Y-149879904D01*
X224327238Y-149784666D01*
X224374857Y-149689428D01*
X224422476Y-149641809D01*
X224517714Y-149594190D01*
X224708190Y-149546571D01*
X224803428Y-149498952D01*
X224851047Y-149451333D01*
X224898666Y-149356095D01*
X224898666Y-149260857D01*
X224851047Y-149165619D01*
X224803428Y-149118000D01*
X224708190Y-149070380D01*
X224470095Y-149070380D01*
X224327238Y-149118000D01*
D13*
X228505809Y-147070380D02*
X228482000Y-147022761D01*
X228434380Y-146975142D01*
X228362952Y-146903714D01*
X228339142Y-146856095D01*
X228339142Y-146808476D01*
X228458190Y-146832285D02*
X228434380Y-146784666D01*
X228386761Y-146737047D01*
X228291523Y-146713238D01*
X228124857Y-146713238D01*
X228029619Y-146737047D01*
X227982000Y-146784666D01*
X227958190Y-146832285D01*
X227958190Y-146927523D01*
X227982000Y-146975142D01*
X228029619Y-147022761D01*
X228124857Y-147046571D01*
X228291523Y-147046571D01*
X228386761Y-147022761D01*
X228434380Y-146975142D01*
X228458190Y-146927523D01*
X228458190Y-146832285D01*
X228458190Y-147522761D02*
X228458190Y-147237047D01*
X228458190Y-147379904D02*
X227958190Y-147379904D01*
X228029619Y-147332285D01*
X228077238Y-147284666D01*
X228101047Y-147237047D01*
D11*
X122136761Y-26022761D02*
X121993904Y-26070380D01*
X121755809Y-26070380D01*
X121660571Y-26022761D01*
X121612952Y-25975142D01*
X121565333Y-25879904D01*
X121565333Y-25784666D01*
X121612952Y-25689428D01*
X121660571Y-25641809D01*
X121755809Y-25594190D01*
X121946285Y-25546571D01*
X122041523Y-25498952D01*
X122089142Y-25451333D01*
X122136761Y-25356095D01*
X122136761Y-25260857D01*
X122089142Y-25165619D01*
X122041523Y-25118000D01*
X121946285Y-25070380D01*
X121708190Y-25070380D01*
X121565333Y-25118000D01*
X121136761Y-26070380D02*
X121136761Y-25403714D01*
X121136761Y-25070380D02*
X121184380Y-25118000D01*
X121136761Y-25165619D01*
X121089142Y-25118000D01*
X121136761Y-25070380D01*
X121136761Y-25165619D01*
X120708190Y-25165619D02*
X120660571Y-25118000D01*
X120565333Y-25070380D01*
X120327238Y-25070380D01*
X120232000Y-25118000D01*
X120184380Y-25165619D01*
X120136761Y-25260857D01*
X120136761Y-25356095D01*
X120184380Y-25498952D01*
X120755809Y-26070380D01*
X120136761Y-26070380D01*
X119803428Y-25070380D02*
X119184380Y-25070380D01*
X119517714Y-25451333D01*
X119374857Y-25451333D01*
X119279619Y-25498952D01*
X119232000Y-25546571D01*
X119184380Y-25641809D01*
X119184380Y-25879904D01*
X119232000Y-25975142D01*
X119279619Y-26022761D01*
X119374857Y-26070380D01*
X119660571Y-26070380D01*
X119755809Y-26022761D01*
X119803428Y-25975142D01*
X118565333Y-25070380D02*
X118470095Y-25070380D01*
X118374857Y-25118000D01*
X118327238Y-25165619D01*
X118279619Y-25260857D01*
X118232000Y-25451333D01*
X118232000Y-25689428D01*
X118279619Y-25879904D01*
X118327238Y-25975142D01*
X118374857Y-26022761D01*
X118470095Y-26070380D01*
X118565333Y-26070380D01*
X118660571Y-26022761D01*
X118708190Y-25975142D01*
X118755809Y-25879904D01*
X118803428Y-25689428D01*
X118803428Y-25451333D01*
X118755809Y-25260857D01*
X118708190Y-25165619D01*
X118660571Y-25118000D01*
X118565333Y-25070380D01*
X117660571Y-25498952D02*
X117755809Y-25451333D01*
X117803428Y-25403714D01*
X117851047Y-25308476D01*
X117851047Y-25260857D01*
X117803428Y-25165619D01*
X117755809Y-25118000D01*
X117660571Y-25070380D01*
X117470095Y-25070380D01*
X117374857Y-25118000D01*
X117327238Y-25165619D01*
X117279619Y-25260857D01*
X117279619Y-25308476D01*
X117327238Y-25403714D01*
X117374857Y-25451333D01*
X117470095Y-25498952D01*
X117660571Y-25498952D01*
X117755809Y-25546571D01*
X117803428Y-25594190D01*
X117851047Y-25689428D01*
X117851047Y-25879904D01*
X117803428Y-25975142D01*
X117755809Y-26022761D01*
X117660571Y-26070380D01*
X117470095Y-26070380D01*
X117374857Y-26022761D01*
X117327238Y-25975142D01*
X117279619Y-25879904D01*
X117279619Y-25689428D01*
X117327238Y-25594190D01*
X117374857Y-25546571D01*
X117470095Y-25498952D01*
X116279619Y-25975142D02*
X116327238Y-26022761D01*
X116470095Y-26070380D01*
X116565333Y-26070380D01*
X116708190Y-26022761D01*
X116803428Y-25927523D01*
X116851047Y-25832285D01*
X116898666Y-25641809D01*
X116898666Y-25498952D01*
X116851047Y-25308476D01*
X116803428Y-25213238D01*
X116708190Y-25118000D01*
X116565333Y-25070380D01*
X116470095Y-25070380D01*
X116327238Y-25118000D01*
X116279619Y-25165619D01*
X115851047Y-26070380D02*
X115851047Y-25070380D01*
X115612952Y-25070380D01*
X115470095Y-25118000D01*
X115374857Y-25213238D01*
X115327238Y-25308476D01*
X115279619Y-25498952D01*
X115279619Y-25641809D01*
X115327238Y-25832285D01*
X115374857Y-25927523D01*
X115470095Y-26022761D01*
X115612952Y-26070380D01*
X115851047Y-26070380D01*
X114898666Y-26022761D02*
X114755809Y-26070380D01*
X114517714Y-26070380D01*
X114422476Y-26022761D01*
X114374857Y-25975142D01*
X114327238Y-25879904D01*
X114327238Y-25784666D01*
X114374857Y-25689428D01*
X114422476Y-25641809D01*
X114517714Y-25594190D01*
X114708190Y-25546571D01*
X114803428Y-25498952D01*
X114851047Y-25451333D01*
X114898666Y-25356095D01*
X114898666Y-25260857D01*
X114851047Y-25165619D01*
X114803428Y-25118000D01*
X114708190Y-25070380D01*
X114470095Y-25070380D01*
X114327238Y-25118000D01*
D13*
X118505809Y-23070380D02*
X118482000Y-23022761D01*
X118434380Y-22975142D01*
X118362952Y-22903714D01*
X118339142Y-22856095D01*
X118339142Y-22808476D01*
X118458190Y-22832285D02*
X118434380Y-22784666D01*
X118386761Y-22737047D01*
X118291523Y-22713238D01*
X118124857Y-22713238D01*
X118029619Y-22737047D01*
X117982000Y-22784666D01*
X117958190Y-22832285D01*
X117958190Y-22927523D01*
X117982000Y-22975142D01*
X118029619Y-23022761D01*
X118124857Y-23046571D01*
X118291523Y-23046571D01*
X118386761Y-23022761D01*
X118434380Y-22975142D01*
X118458190Y-22927523D01*
X118458190Y-22832285D01*
X118458190Y-23522761D02*
X118458190Y-23237047D01*
X118458190Y-23379904D02*
X117958190Y-23379904D01*
X118029619Y-23332285D01*
X118077238Y-23284666D01*
X118101047Y-23237047D01*
D11*
X122136761Y-88022761D02*
X121993904Y-88070380D01*
X121755809Y-88070380D01*
X121660571Y-88022761D01*
X121612952Y-87975142D01*
X121565333Y-87879904D01*
X121565333Y-87784666D01*
X121612952Y-87689428D01*
X121660571Y-87641809D01*
X121755809Y-87594190D01*
X121946285Y-87546571D01*
X122041523Y-87498952D01*
X122089142Y-87451333D01*
X122136761Y-87356095D01*
X122136761Y-87260857D01*
X122089142Y-87165619D01*
X122041523Y-87118000D01*
X121946285Y-87070380D01*
X121708190Y-87070380D01*
X121565333Y-87118000D01*
X121136761Y-88070380D02*
X121136761Y-87403714D01*
X121136761Y-87070380D02*
X121184380Y-87118000D01*
X121136761Y-87165619D01*
X121089142Y-87118000D01*
X121136761Y-87070380D01*
X121136761Y-87165619D01*
X120708190Y-87165619D02*
X120660571Y-87118000D01*
X120565333Y-87070380D01*
X120327238Y-87070380D01*
X120232000Y-87118000D01*
X120184380Y-87165619D01*
X120136761Y-87260857D01*
X120136761Y-87356095D01*
X120184380Y-87498952D01*
X120755809Y-88070380D01*
X120136761Y-88070380D01*
X119803428Y-87070380D02*
X119184380Y-87070380D01*
X119517714Y-87451333D01*
X119374857Y-87451333D01*
X119279619Y-87498952D01*
X119232000Y-87546571D01*
X119184380Y-87641809D01*
X119184380Y-87879904D01*
X119232000Y-87975142D01*
X119279619Y-88022761D01*
X119374857Y-88070380D01*
X119660571Y-88070380D01*
X119755809Y-88022761D01*
X119803428Y-87975142D01*
X118565333Y-87070380D02*
X118470095Y-87070380D01*
X118374857Y-87118000D01*
X118327238Y-87165619D01*
X118279619Y-87260857D01*
X118232000Y-87451333D01*
X118232000Y-87689428D01*
X118279619Y-87879904D01*
X118327238Y-87975142D01*
X118374857Y-88022761D01*
X118470095Y-88070380D01*
X118565333Y-88070380D01*
X118660571Y-88022761D01*
X118708190Y-87975142D01*
X118755809Y-87879904D01*
X118803428Y-87689428D01*
X118803428Y-87451333D01*
X118755809Y-87260857D01*
X118708190Y-87165619D01*
X118660571Y-87118000D01*
X118565333Y-87070380D01*
X117660571Y-87498952D02*
X117755809Y-87451333D01*
X117803428Y-87403714D01*
X117851047Y-87308476D01*
X117851047Y-87260857D01*
X117803428Y-87165619D01*
X117755809Y-87118000D01*
X117660571Y-87070380D01*
X117470095Y-87070380D01*
X117374857Y-87118000D01*
X117327238Y-87165619D01*
X117279619Y-87260857D01*
X117279619Y-87308476D01*
X117327238Y-87403714D01*
X117374857Y-87451333D01*
X117470095Y-87498952D01*
X117660571Y-87498952D01*
X117755809Y-87546571D01*
X117803428Y-87594190D01*
X117851047Y-87689428D01*
X117851047Y-87879904D01*
X117803428Y-87975142D01*
X117755809Y-88022761D01*
X117660571Y-88070380D01*
X117470095Y-88070380D01*
X117374857Y-88022761D01*
X117327238Y-87975142D01*
X117279619Y-87879904D01*
X117279619Y-87689428D01*
X117327238Y-87594190D01*
X117374857Y-87546571D01*
X117470095Y-87498952D01*
X116279619Y-87975142D02*
X116327238Y-88022761D01*
X116470095Y-88070380D01*
X116565333Y-88070380D01*
X116708190Y-88022761D01*
X116803428Y-87927523D01*
X116851047Y-87832285D01*
X116898666Y-87641809D01*
X116898666Y-87498952D01*
X116851047Y-87308476D01*
X116803428Y-87213238D01*
X116708190Y-87118000D01*
X116565333Y-87070380D01*
X116470095Y-87070380D01*
X116327238Y-87118000D01*
X116279619Y-87165619D01*
X115851047Y-88070380D02*
X115851047Y-87070380D01*
X115612952Y-87070380D01*
X115470095Y-87118000D01*
X115374857Y-87213238D01*
X115327238Y-87308476D01*
X115279619Y-87498952D01*
X115279619Y-87641809D01*
X115327238Y-87832285D01*
X115374857Y-87927523D01*
X115470095Y-88022761D01*
X115612952Y-88070380D01*
X115851047Y-88070380D01*
X114898666Y-88022761D02*
X114755809Y-88070380D01*
X114517714Y-88070380D01*
X114422476Y-88022761D01*
X114374857Y-87975142D01*
X114327238Y-87879904D01*
X114327238Y-87784666D01*
X114374857Y-87689428D01*
X114422476Y-87641809D01*
X114517714Y-87594190D01*
X114708190Y-87546571D01*
X114803428Y-87498952D01*
X114851047Y-87451333D01*
X114898666Y-87356095D01*
X114898666Y-87260857D01*
X114851047Y-87165619D01*
X114803428Y-87118000D01*
X114708190Y-87070380D01*
X114470095Y-87070380D01*
X114327238Y-87118000D01*
D13*
X118505809Y-85070380D02*
X118482000Y-85022761D01*
X118434380Y-84975142D01*
X118362952Y-84903714D01*
X118339142Y-84856095D01*
X118339142Y-84808476D01*
X118458190Y-84832285D02*
X118434380Y-84784666D01*
X118386761Y-84737047D01*
X118291523Y-84713238D01*
X118124857Y-84713238D01*
X118029619Y-84737047D01*
X117982000Y-84784666D01*
X117958190Y-84832285D01*
X117958190Y-84927523D01*
X117982000Y-84975142D01*
X118029619Y-85022761D01*
X118124857Y-85046571D01*
X118291523Y-85046571D01*
X118386761Y-85022761D01*
X118434380Y-84975142D01*
X118458190Y-84927523D01*
X118458190Y-84832285D01*
X118458190Y-85522761D02*
X118458190Y-85237047D01*
X118458190Y-85379904D02*
X117958190Y-85379904D01*
X118029619Y-85332285D01*
X118077238Y-85284666D01*
X118101047Y-85237047D01*
D11*
X124034380Y-146051333D02*
X124034380Y-145479904D01*
X124034380Y-145765619D02*
X123034380Y-145765619D01*
X123177238Y-145670380D01*
X123272476Y-145575142D01*
X123320095Y-145479904D01*
X123034380Y-146670380D02*
X123034380Y-146765619D01*
X123082000Y-146860857D01*
X123129619Y-146908476D01*
X123224857Y-146956095D01*
X123415333Y-147003714D01*
X123653428Y-147003714D01*
X123843904Y-146956095D01*
X123939142Y-146908476D01*
X123986761Y-146860857D01*
X124034380Y-146765619D01*
X124034380Y-146670380D01*
X123986761Y-146575142D01*
X123939142Y-146527523D01*
X123843904Y-146479904D01*
X123653428Y-146432285D01*
X123415333Y-146432285D01*
X123224857Y-146479904D01*
X123129619Y-146527523D01*
X123082000Y-146575142D01*
X123034380Y-146670380D01*
X123034380Y-147622761D02*
X123034380Y-147718000D01*
X123082000Y-147813238D01*
X123129619Y-147860857D01*
X123224857Y-147908476D01*
X123415333Y-147956095D01*
X123653428Y-147956095D01*
X123843904Y-147908476D01*
X123939142Y-147860857D01*
X123986761Y-147813238D01*
X124034380Y-147718000D01*
X124034380Y-147622761D01*
X123986761Y-147527523D01*
X123939142Y-147479904D01*
X123843904Y-147432285D01*
X123653428Y-147384666D01*
X123415333Y-147384666D01*
X123224857Y-147432285D01*
X123129619Y-147479904D01*
X123082000Y-147527523D01*
X123034380Y-147622761D01*
X124034380Y-148384666D02*
X123034380Y-148384666D01*
X124034380Y-148956095D02*
X123462952Y-148527523D01*
X123034380Y-148956095D02*
X123605809Y-148384666D01*
D12*
X122158190Y-147134666D02*
X121920095Y-146968000D01*
X122158190Y-146848952D02*
X121658190Y-146848952D01*
X121658190Y-147039428D01*
X121682000Y-147087047D01*
X121705809Y-147110857D01*
X121753428Y-147134666D01*
X121824857Y-147134666D01*
X121872476Y-147110857D01*
X121896285Y-147087047D01*
X121920095Y-147039428D01*
X121920095Y-146848952D01*
X121824857Y-147563238D02*
X122158190Y-147563238D01*
X121634380Y-147444190D02*
X121991523Y-147325142D01*
X121991523Y-147634666D01*
D11*
X103994619Y-165940142D02*
X103947000Y-165987761D01*
X103899380Y-166083000D01*
X103899380Y-166321095D01*
X103947000Y-166416333D01*
X103994619Y-166463952D01*
X104089857Y-166511571D01*
X104185095Y-166511571D01*
X104327952Y-166463952D01*
X104899380Y-165892523D01*
X104899380Y-166511571D01*
X103899380Y-166844904D02*
X103899380Y-167463952D01*
X104280333Y-167130619D01*
X104280333Y-167273476D01*
X104327952Y-167368714D01*
X104375571Y-167416333D01*
X104470809Y-167463952D01*
X104708904Y-167463952D01*
X104804142Y-167416333D01*
X104851761Y-167368714D01*
X104899380Y-167273476D01*
X104899380Y-166987761D01*
X104851761Y-166892523D01*
X104804142Y-166844904D01*
X103899380Y-168083000D02*
X103899380Y-168178238D01*
X103947000Y-168273476D01*
X103994619Y-168321095D01*
X104089857Y-168368714D01*
X104280333Y-168416333D01*
X104518428Y-168416333D01*
X104708904Y-168368714D01*
X104804142Y-168321095D01*
X104851761Y-168273476D01*
X104899380Y-168178238D01*
X104899380Y-168083000D01*
X104851761Y-167987761D01*
X104804142Y-167940142D01*
X104708904Y-167892523D01*
X104518428Y-167844904D01*
X104280333Y-167844904D01*
X104089857Y-167892523D01*
X103994619Y-167940142D01*
X103947000Y-167987761D01*
X103899380Y-168083000D01*
X104899380Y-168844904D02*
X103899380Y-168844904D01*
X104518428Y-168940142D02*
X104899380Y-169225857D01*
X104232714Y-169225857D02*
X104613666Y-168844904D01*
D12*
X106323190Y-166987761D02*
X106085095Y-166821095D01*
X106323190Y-166702047D02*
X105823190Y-166702047D01*
X105823190Y-166892523D01*
X105847000Y-166940142D01*
X105870809Y-166963952D01*
X105918428Y-166987761D01*
X105989857Y-166987761D01*
X106037476Y-166963952D01*
X106061285Y-166940142D01*
X106085095Y-166892523D01*
X106085095Y-166702047D01*
X105989857Y-167130619D02*
X105989857Y-167321095D01*
X106323190Y-167202047D02*
X105894619Y-167202047D01*
X105847000Y-167225857D01*
X105823190Y-167273476D01*
X105823190Y-167321095D01*
X106323190Y-167487761D02*
X105823190Y-167487761D01*
X106013666Y-167487761D02*
X105989857Y-167535380D01*
X105989857Y-167630619D01*
X106013666Y-167678238D01*
X106037476Y-167702047D01*
X106085095Y-167725857D01*
X106227952Y-167725857D01*
X106275571Y-167702047D01*
X106299380Y-167678238D01*
X106323190Y-167630619D01*
X106323190Y-167535380D01*
X106299380Y-167487761D01*
X105989857Y-167868714D02*
X105989857Y-168059190D01*
X105823190Y-167940142D02*
X106251761Y-167940142D01*
X106299380Y-167963952D01*
X106323190Y-168011571D01*
X106323190Y-168059190D01*
X105870809Y-168202047D02*
X105847000Y-168225857D01*
X105823190Y-168273476D01*
X105823190Y-168392523D01*
X105847000Y-168440142D01*
X105870809Y-168463952D01*
X105918428Y-168487761D01*
X105966047Y-168487761D01*
X106037476Y-168463952D01*
X106323190Y-168178238D01*
X106323190Y-168487761D01*
D11*
X106357952Y-162161809D02*
X106310333Y-162066571D01*
X106262714Y-162018952D01*
X106167476Y-161971333D01*
X106119857Y-161971333D01*
X106024619Y-162018952D01*
X105977000Y-162066571D01*
X105929380Y-162161809D01*
X105929380Y-162352285D01*
X105977000Y-162447523D01*
X106024619Y-162495142D01*
X106119857Y-162542761D01*
X106167476Y-162542761D01*
X106262714Y-162495142D01*
X106310333Y-162447523D01*
X106357952Y-162352285D01*
X106357952Y-162161809D01*
X106405571Y-162066571D01*
X106453190Y-162018952D01*
X106548428Y-161971333D01*
X106738904Y-161971333D01*
X106834142Y-162018952D01*
X106881761Y-162066571D01*
X106929380Y-162161809D01*
X106929380Y-162352285D01*
X106881761Y-162447523D01*
X106834142Y-162495142D01*
X106738904Y-162542761D01*
X106548428Y-162542761D01*
X106453190Y-162495142D01*
X106405571Y-162447523D01*
X106357952Y-162352285D01*
X106929380Y-162971333D02*
X105929380Y-162971333D01*
X106548428Y-163066571D02*
X106929380Y-163352285D01*
X106262714Y-163352285D02*
X106643666Y-162971333D01*
X106024619Y-163733238D02*
X105977000Y-163780857D01*
X105929380Y-163876095D01*
X105929380Y-164114190D01*
X105977000Y-164209428D01*
X106024619Y-164257047D01*
X106119857Y-164304666D01*
X106215095Y-164304666D01*
X106357952Y-164257047D01*
X106929380Y-163685619D01*
X106929380Y-164304666D01*
D12*
X105053190Y-162459428D02*
X104815095Y-162292761D01*
X105053190Y-162173714D02*
X104553190Y-162173714D01*
X104553190Y-162364190D01*
X104577000Y-162411809D01*
X104600809Y-162435619D01*
X104648428Y-162459428D01*
X104719857Y-162459428D01*
X104767476Y-162435619D01*
X104791285Y-162411809D01*
X104815095Y-162364190D01*
X104815095Y-162173714D01*
X104719857Y-162602285D02*
X104719857Y-162792761D01*
X105053190Y-162673714D02*
X104624619Y-162673714D01*
X104577000Y-162697523D01*
X104553190Y-162745142D01*
X104553190Y-162792761D01*
X105053190Y-162959428D02*
X104553190Y-162959428D01*
X104743666Y-162959428D02*
X104719857Y-163007047D01*
X104719857Y-163102285D01*
X104743666Y-163149904D01*
X104767476Y-163173714D01*
X104815095Y-163197523D01*
X104957952Y-163197523D01*
X105005571Y-163173714D01*
X105029380Y-163149904D01*
X105053190Y-163102285D01*
X105053190Y-163007047D01*
X105029380Y-162959428D01*
X105053190Y-163411809D02*
X104553190Y-163411809D01*
X104743666Y-163411809D02*
X104719857Y-163459428D01*
X104719857Y-163554666D01*
X104743666Y-163602285D01*
X104767476Y-163626095D01*
X104815095Y-163649904D01*
X104957952Y-163649904D01*
X105005571Y-163626095D01*
X105029380Y-163602285D01*
X105053190Y-163554666D01*
X105053190Y-163459428D01*
X105029380Y-163411809D01*
X105053190Y-164126095D02*
X105053190Y-163840380D01*
X105053190Y-163983238D02*
X104553190Y-163983238D01*
X104624619Y-163935619D01*
X104672238Y-163888000D01*
X104696047Y-163840380D01*
D11*
X119629380Y-160518714D02*
X118629380Y-160518714D01*
X119629380Y-161090142D01*
X118629380Y-161090142D01*
X119343666Y-161518714D02*
X119343666Y-161994904D01*
X119629380Y-161423476D02*
X118629380Y-161756809D01*
X119629380Y-162090142D01*
D12*
X117003190Y-161149666D02*
X116765095Y-160983000D01*
X117003190Y-160863952D02*
X116503190Y-160863952D01*
X116503190Y-161054428D01*
X116527000Y-161102047D01*
X116550809Y-161125857D01*
X116598428Y-161149666D01*
X116669857Y-161149666D01*
X116717476Y-161125857D01*
X116741285Y-161102047D01*
X116765095Y-161054428D01*
X116765095Y-160863952D01*
X116503190Y-161578238D02*
X116503190Y-161483000D01*
X116527000Y-161435380D01*
X116550809Y-161411571D01*
X116622238Y-161363952D01*
X116717476Y-161340142D01*
X116907952Y-161340142D01*
X116955571Y-161363952D01*
X116979380Y-161387761D01*
X117003190Y-161435380D01*
X117003190Y-161530619D01*
X116979380Y-161578238D01*
X116955571Y-161602047D01*
X116907952Y-161625857D01*
X116788904Y-161625857D01*
X116741285Y-161602047D01*
X116717476Y-161578238D01*
X116693666Y-161530619D01*
X116693666Y-161435380D01*
X116717476Y-161387761D01*
X116741285Y-161363952D01*
X116788904Y-161340142D01*
D11*
X120139380Y-160566333D02*
X120139380Y-159994904D01*
X120139380Y-160280619D02*
X119139380Y-160280619D01*
X119282238Y-160185380D01*
X119377476Y-160090142D01*
X119425095Y-159994904D01*
X119139380Y-161185380D02*
X119139380Y-161280619D01*
X119187000Y-161375857D01*
X119234619Y-161423476D01*
X119329857Y-161471095D01*
X119520333Y-161518714D01*
X119758428Y-161518714D01*
X119948904Y-161471095D01*
X120044142Y-161423476D01*
X120091761Y-161375857D01*
X120139380Y-161280619D01*
X120139380Y-161185380D01*
X120091761Y-161090142D01*
X120044142Y-161042523D01*
X119948904Y-160994904D01*
X119758428Y-160947285D01*
X119520333Y-160947285D01*
X119329857Y-160994904D01*
X119234619Y-161042523D01*
X119187000Y-161090142D01*
X119139380Y-161185380D01*
X119139380Y-162137761D02*
X119139380Y-162233000D01*
X119187000Y-162328238D01*
X119234619Y-162375857D01*
X119329857Y-162423476D01*
X119520333Y-162471095D01*
X119758428Y-162471095D01*
X119948904Y-162423476D01*
X120044142Y-162375857D01*
X120091761Y-162328238D01*
X120139380Y-162233000D01*
X120139380Y-162137761D01*
X120091761Y-162042523D01*
X120044142Y-161994904D01*
X119948904Y-161947285D01*
X119758428Y-161899666D01*
X119520333Y-161899666D01*
X119329857Y-161947285D01*
X119234619Y-161994904D01*
X119187000Y-162042523D01*
X119139380Y-162137761D01*
D12*
X121563190Y-161149666D02*
X121325095Y-160983000D01*
X121563190Y-160863952D02*
X121063190Y-160863952D01*
X121063190Y-161054428D01*
X121087000Y-161102047D01*
X121110809Y-161125857D01*
X121158428Y-161149666D01*
X121229857Y-161149666D01*
X121277476Y-161125857D01*
X121301285Y-161102047D01*
X121325095Y-161054428D01*
X121325095Y-160863952D01*
X121110809Y-161340142D02*
X121087000Y-161363952D01*
X121063190Y-161411571D01*
X121063190Y-161530619D01*
X121087000Y-161578238D01*
X121110809Y-161602047D01*
X121158428Y-161625857D01*
X121206047Y-161625857D01*
X121277476Y-161602047D01*
X121563190Y-161316333D01*
X121563190Y-161625857D01*
D11*
X122136761Y-150022761D02*
X121993904Y-150070380D01*
X121755809Y-150070380D01*
X121660571Y-150022761D01*
X121612952Y-149975142D01*
X121565333Y-149879904D01*
X121565333Y-149784666D01*
X121612952Y-149689428D01*
X121660571Y-149641809D01*
X121755809Y-149594190D01*
X121946285Y-149546571D01*
X122041523Y-149498952D01*
X122089142Y-149451333D01*
X122136761Y-149356095D01*
X122136761Y-149260857D01*
X122089142Y-149165619D01*
X122041523Y-149118000D01*
X121946285Y-149070380D01*
X121708190Y-149070380D01*
X121565333Y-149118000D01*
X121136761Y-150070380D02*
X121136761Y-149403714D01*
X121136761Y-149070380D02*
X121184380Y-149118000D01*
X121136761Y-149165619D01*
X121089142Y-149118000D01*
X121136761Y-149070380D01*
X121136761Y-149165619D01*
X120708190Y-149165619D02*
X120660571Y-149118000D01*
X120565333Y-149070380D01*
X120327238Y-149070380D01*
X120232000Y-149118000D01*
X120184380Y-149165619D01*
X120136761Y-149260857D01*
X120136761Y-149356095D01*
X120184380Y-149498952D01*
X120755809Y-150070380D01*
X120136761Y-150070380D01*
X119803428Y-149070380D02*
X119184380Y-149070380D01*
X119517714Y-149451333D01*
X119374857Y-149451333D01*
X119279619Y-149498952D01*
X119232000Y-149546571D01*
X119184380Y-149641809D01*
X119184380Y-149879904D01*
X119232000Y-149975142D01*
X119279619Y-150022761D01*
X119374857Y-150070380D01*
X119660571Y-150070380D01*
X119755809Y-150022761D01*
X119803428Y-149975142D01*
X118565333Y-149070380D02*
X118470095Y-149070380D01*
X118374857Y-149118000D01*
X118327238Y-149165619D01*
X118279619Y-149260857D01*
X118232000Y-149451333D01*
X118232000Y-149689428D01*
X118279619Y-149879904D01*
X118327238Y-149975142D01*
X118374857Y-150022761D01*
X118470095Y-150070380D01*
X118565333Y-150070380D01*
X118660571Y-150022761D01*
X118708190Y-149975142D01*
X118755809Y-149879904D01*
X118803428Y-149689428D01*
X118803428Y-149451333D01*
X118755809Y-149260857D01*
X118708190Y-149165619D01*
X118660571Y-149118000D01*
X118565333Y-149070380D01*
X117660571Y-149498952D02*
X117755809Y-149451333D01*
X117803428Y-149403714D01*
X117851047Y-149308476D01*
X117851047Y-149260857D01*
X117803428Y-149165619D01*
X117755809Y-149118000D01*
X117660571Y-149070380D01*
X117470095Y-149070380D01*
X117374857Y-149118000D01*
X117327238Y-149165619D01*
X117279619Y-149260857D01*
X117279619Y-149308476D01*
X117327238Y-149403714D01*
X117374857Y-149451333D01*
X117470095Y-149498952D01*
X117660571Y-149498952D01*
X117755809Y-149546571D01*
X117803428Y-149594190D01*
X117851047Y-149689428D01*
X117851047Y-149879904D01*
X117803428Y-149975142D01*
X117755809Y-150022761D01*
X117660571Y-150070380D01*
X117470095Y-150070380D01*
X117374857Y-150022761D01*
X117327238Y-149975142D01*
X117279619Y-149879904D01*
X117279619Y-149689428D01*
X117327238Y-149594190D01*
X117374857Y-149546571D01*
X117470095Y-149498952D01*
X116279619Y-149975142D02*
X116327238Y-150022761D01*
X116470095Y-150070380D01*
X116565333Y-150070380D01*
X116708190Y-150022761D01*
X116803428Y-149927523D01*
X116851047Y-149832285D01*
X116898666Y-149641809D01*
X116898666Y-149498952D01*
X116851047Y-149308476D01*
X116803428Y-149213238D01*
X116708190Y-149118000D01*
X116565333Y-149070380D01*
X116470095Y-149070380D01*
X116327238Y-149118000D01*
X116279619Y-149165619D01*
X115851047Y-150070380D02*
X115851047Y-149070380D01*
X115612952Y-149070380D01*
X115470095Y-149118000D01*
X115374857Y-149213238D01*
X115327238Y-149308476D01*
X115279619Y-149498952D01*
X115279619Y-149641809D01*
X115327238Y-149832285D01*
X115374857Y-149927523D01*
X115470095Y-150022761D01*
X115612952Y-150070380D01*
X115851047Y-150070380D01*
X114898666Y-150022761D02*
X114755809Y-150070380D01*
X114517714Y-150070380D01*
X114422476Y-150022761D01*
X114374857Y-149975142D01*
X114327238Y-149879904D01*
X114327238Y-149784666D01*
X114374857Y-149689428D01*
X114422476Y-149641809D01*
X114517714Y-149594190D01*
X114708190Y-149546571D01*
X114803428Y-149498952D01*
X114851047Y-149451333D01*
X114898666Y-149356095D01*
X114898666Y-149260857D01*
X114851047Y-149165619D01*
X114803428Y-149118000D01*
X114708190Y-149070380D01*
X114470095Y-149070380D01*
X114327238Y-149118000D01*
D13*
X118505809Y-147070380D02*
X118482000Y-147022761D01*
X118434380Y-146975142D01*
X118362952Y-146903714D01*
X118339142Y-146856095D01*
X118339142Y-146808476D01*
X118458190Y-146832285D02*
X118434380Y-146784666D01*
X118386761Y-146737047D01*
X118291523Y-146713238D01*
X118124857Y-146713238D01*
X118029619Y-146737047D01*
X117982000Y-146784666D01*
X117958190Y-146832285D01*
X117958190Y-146927523D01*
X117982000Y-146975142D01*
X118029619Y-147022761D01*
X118124857Y-147046571D01*
X118291523Y-147046571D01*
X118386761Y-147022761D01*
X118434380Y-146975142D01*
X118458190Y-146927523D01*
X118458190Y-146832285D01*
X118458190Y-147522761D02*
X118458190Y-147237047D01*
X118458190Y-147379904D02*
X117958190Y-147379904D01*
X118029619Y-147332285D01*
X118077238Y-147284666D01*
X118101047Y-147237047D01*
D11*
X84169380Y-164513714D02*
X84169380Y-164608952D01*
X84217000Y-164704190D01*
X84264619Y-164751809D01*
X84359857Y-164799428D01*
X84550333Y-164847047D01*
X84788428Y-164847047D01*
X84978904Y-164799428D01*
X85074142Y-164751809D01*
X85121761Y-164704190D01*
X85169380Y-164608952D01*
X85169380Y-164513714D01*
X85121761Y-164418476D01*
X85074142Y-164370857D01*
X84978904Y-164323238D01*
X84788428Y-164275619D01*
X84550333Y-164275619D01*
X84359857Y-164323238D01*
X84264619Y-164370857D01*
X84217000Y-164418476D01*
X84169380Y-164513714D01*
X85074142Y-165275619D02*
X85121761Y-165323238D01*
X85169380Y-165275619D01*
X85121761Y-165228000D01*
X85074142Y-165275619D01*
X85169380Y-165275619D01*
X85169380Y-166275619D02*
X85169380Y-165704190D01*
X85169380Y-165989904D02*
X84169380Y-165989904D01*
X84312238Y-165894666D01*
X84407476Y-165799428D01*
X84455095Y-165704190D01*
X84502714Y-167132761D02*
X85169380Y-167132761D01*
X84502714Y-166704190D02*
X85026523Y-166704190D01*
X85121761Y-166751809D01*
X85169380Y-166847047D01*
X85169380Y-166989904D01*
X85121761Y-167085142D01*
X85074142Y-167132761D01*
D12*
X85935571Y-165418476D02*
X85959380Y-165394666D01*
X85983190Y-165323238D01*
X85983190Y-165275619D01*
X85959380Y-165204190D01*
X85911761Y-165156571D01*
X85864142Y-165132761D01*
X85768904Y-165108952D01*
X85697476Y-165108952D01*
X85602238Y-165132761D01*
X85554619Y-165156571D01*
X85507000Y-165204190D01*
X85483190Y-165275619D01*
X85483190Y-165323238D01*
X85507000Y-165394666D01*
X85530809Y-165418476D01*
X85983190Y-165704190D02*
X85959380Y-165656571D01*
X85935571Y-165632761D01*
X85887952Y-165608952D01*
X85745095Y-165608952D01*
X85697476Y-165632761D01*
X85673666Y-165656571D01*
X85649857Y-165704190D01*
X85649857Y-165775619D01*
X85673666Y-165823238D01*
X85697476Y-165847047D01*
X85745095Y-165870857D01*
X85887952Y-165870857D01*
X85935571Y-165847047D01*
X85959380Y-165823238D01*
X85983190Y-165775619D01*
X85983190Y-165704190D01*
X85649857Y-166299428D02*
X85983190Y-166299428D01*
X85459380Y-166180380D02*
X85816523Y-166061333D01*
X85816523Y-166370857D01*
D11*
X81359380Y-164489904D02*
X81311761Y-164394666D01*
X81264142Y-164347047D01*
X81168904Y-164299428D01*
X80883190Y-164299428D01*
X80787952Y-164347047D01*
X80740333Y-164394666D01*
X80692714Y-164489904D01*
X80692714Y-164632761D01*
X80740333Y-164728000D01*
X80787952Y-164775619D01*
X80883190Y-164823238D01*
X81168904Y-164823238D01*
X81264142Y-164775619D01*
X81311761Y-164728000D01*
X81359380Y-164632761D01*
X81359380Y-164489904D01*
X81264142Y-165251809D02*
X81311761Y-165299428D01*
X81359380Y-165251809D01*
X81311761Y-165204190D01*
X81264142Y-165251809D01*
X81359380Y-165251809D01*
X81359380Y-166251809D02*
X81359380Y-165680380D01*
X81359380Y-165966095D02*
X80359380Y-165966095D01*
X80502238Y-165870857D01*
X80597476Y-165775619D01*
X80645095Y-165680380D01*
X80692714Y-167108952D02*
X81359380Y-167108952D01*
X80692714Y-166680380D02*
X81216523Y-166680380D01*
X81311761Y-166728000D01*
X81359380Y-166823238D01*
X81359380Y-166966095D01*
X81311761Y-167061333D01*
X81264142Y-167108952D01*
D12*
X82735571Y-165418476D02*
X82759380Y-165394666D01*
X82783190Y-165323238D01*
X82783190Y-165275619D01*
X82759380Y-165204190D01*
X82711761Y-165156571D01*
X82664142Y-165132761D01*
X82568904Y-165108952D01*
X82497476Y-165108952D01*
X82402238Y-165132761D01*
X82354619Y-165156571D01*
X82307000Y-165204190D01*
X82283190Y-165275619D01*
X82283190Y-165323238D01*
X82307000Y-165394666D01*
X82330809Y-165418476D01*
X82783190Y-165704190D02*
X82759380Y-165656571D01*
X82735571Y-165632761D01*
X82687952Y-165608952D01*
X82545095Y-165608952D01*
X82497476Y-165632761D01*
X82473666Y-165656571D01*
X82449857Y-165704190D01*
X82449857Y-165775619D01*
X82473666Y-165823238D01*
X82497476Y-165847047D01*
X82545095Y-165870857D01*
X82687952Y-165870857D01*
X82735571Y-165847047D01*
X82759380Y-165823238D01*
X82783190Y-165775619D01*
X82783190Y-165704190D01*
X82283190Y-166037523D02*
X82283190Y-166347047D01*
X82473666Y-166180380D01*
X82473666Y-166251809D01*
X82497476Y-166299428D01*
X82521285Y-166323238D01*
X82568904Y-166347047D01*
X82687952Y-166347047D01*
X82735571Y-166323238D01*
X82759380Y-166299428D01*
X82783190Y-166251809D01*
X82783190Y-166108952D01*
X82759380Y-166061333D01*
X82735571Y-166037523D01*
D11*
X122044380Y-150160380D02*
X122044380Y-149588952D01*
X122044380Y-149874666D02*
X121044380Y-149874666D01*
X121187238Y-149779428D01*
X121282476Y-149684190D01*
X121330095Y-149588952D01*
X121044380Y-150779428D02*
X121044380Y-150874666D01*
X121092000Y-150969904D01*
X121139619Y-151017523D01*
X121234857Y-151065142D01*
X121425333Y-151112761D01*
X121663428Y-151112761D01*
X121853904Y-151065142D01*
X121949142Y-151017523D01*
X121996761Y-150969904D01*
X122044380Y-150874666D01*
X122044380Y-150779428D01*
X121996761Y-150684190D01*
X121949142Y-150636571D01*
X121853904Y-150588952D01*
X121663428Y-150541333D01*
X121425333Y-150541333D01*
X121234857Y-150588952D01*
X121139619Y-150636571D01*
X121092000Y-150684190D01*
X121044380Y-150779428D01*
X121044380Y-151731809D02*
X121044380Y-151827047D01*
X121092000Y-151922285D01*
X121139619Y-151969904D01*
X121234857Y-152017523D01*
X121425333Y-152065142D01*
X121663428Y-152065142D01*
X121853904Y-152017523D01*
X121949142Y-151969904D01*
X121996761Y-151922285D01*
X122044380Y-151827047D01*
X122044380Y-151731809D01*
X121996761Y-151636571D01*
X121949142Y-151588952D01*
X121853904Y-151541333D01*
X121663428Y-151493714D01*
X121425333Y-151493714D01*
X121234857Y-151541333D01*
X121139619Y-151588952D01*
X121092000Y-151636571D01*
X121044380Y-151731809D01*
X121377714Y-152493714D02*
X122044380Y-152493714D01*
X121472952Y-152493714D02*
X121425333Y-152541333D01*
X121377714Y-152636571D01*
X121377714Y-152779428D01*
X121425333Y-152874666D01*
X121520571Y-152922285D01*
X122044380Y-152922285D01*
X121520571Y-153731809D02*
X121520571Y-153398476D01*
X122044380Y-153398476D02*
X121044380Y-153398476D01*
X121044380Y-153874666D01*
D12*
X123420571Y-151279428D02*
X123444380Y-151255619D01*
X123468190Y-151184190D01*
X123468190Y-151136571D01*
X123444380Y-151065142D01*
X123396761Y-151017523D01*
X123349142Y-150993714D01*
X123253904Y-150969904D01*
X123182476Y-150969904D01*
X123087238Y-150993714D01*
X123039619Y-151017523D01*
X122992000Y-151065142D01*
X122968190Y-151136571D01*
X122968190Y-151184190D01*
X122992000Y-151255619D01*
X123015809Y-151279428D01*
X123468190Y-151493714D02*
X123134857Y-151493714D01*
X122968190Y-151493714D02*
X122992000Y-151469904D01*
X123015809Y-151493714D01*
X122992000Y-151517523D01*
X122968190Y-151493714D01*
X123015809Y-151493714D01*
X123134857Y-151731809D02*
X123468190Y-151731809D01*
X123182476Y-151731809D02*
X123158666Y-151755619D01*
X123134857Y-151803238D01*
X123134857Y-151874666D01*
X123158666Y-151922285D01*
X123206285Y-151946095D01*
X123468190Y-151946095D01*
X122968190Y-152136571D02*
X122968190Y-152446095D01*
X123158666Y-152279428D01*
X123158666Y-152350857D01*
X123182476Y-152398476D01*
X123206285Y-152422285D01*
X123253904Y-152446095D01*
X123372952Y-152446095D01*
X123420571Y-152422285D01*
X123444380Y-152398476D01*
X123468190Y-152350857D01*
X123468190Y-152208000D01*
X123444380Y-152160380D01*
X123420571Y-152136571D01*
D11*
X121154380Y-150160380D02*
X121154380Y-149588952D01*
X121154380Y-149874666D02*
X120154380Y-149874666D01*
X120297238Y-149779428D01*
X120392476Y-149684190D01*
X120440095Y-149588952D01*
X120154380Y-150779428D02*
X120154380Y-150874666D01*
X120202000Y-150969904D01*
X120249619Y-151017523D01*
X120344857Y-151065142D01*
X120535333Y-151112761D01*
X120773428Y-151112761D01*
X120963904Y-151065142D01*
X121059142Y-151017523D01*
X121106761Y-150969904D01*
X121154380Y-150874666D01*
X121154380Y-150779428D01*
X121106761Y-150684190D01*
X121059142Y-150636571D01*
X120963904Y-150588952D01*
X120773428Y-150541333D01*
X120535333Y-150541333D01*
X120344857Y-150588952D01*
X120249619Y-150636571D01*
X120202000Y-150684190D01*
X120154380Y-150779428D01*
X120154380Y-151731809D02*
X120154380Y-151827047D01*
X120202000Y-151922285D01*
X120249619Y-151969904D01*
X120344857Y-152017523D01*
X120535333Y-152065142D01*
X120773428Y-152065142D01*
X120963904Y-152017523D01*
X121059142Y-151969904D01*
X121106761Y-151922285D01*
X121154380Y-151827047D01*
X121154380Y-151731809D01*
X121106761Y-151636571D01*
X121059142Y-151588952D01*
X120963904Y-151541333D01*
X120773428Y-151493714D01*
X120535333Y-151493714D01*
X120344857Y-151541333D01*
X120249619Y-151588952D01*
X120202000Y-151636571D01*
X120154380Y-151731809D01*
X120487714Y-152493714D02*
X121154380Y-152493714D01*
X120582952Y-152493714D02*
X120535333Y-152541333D01*
X120487714Y-152636571D01*
X120487714Y-152779428D01*
X120535333Y-152874666D01*
X120630571Y-152922285D01*
X121154380Y-152922285D01*
X120630571Y-153731809D02*
X120630571Y-153398476D01*
X121154380Y-153398476D02*
X120154380Y-153398476D01*
X120154380Y-153874666D01*
D12*
X120880571Y-151279428D02*
X120904380Y-151255619D01*
X120928190Y-151184190D01*
X120928190Y-151136571D01*
X120904380Y-151065142D01*
X120856761Y-151017523D01*
X120809142Y-150993714D01*
X120713904Y-150969904D01*
X120642476Y-150969904D01*
X120547238Y-150993714D01*
X120499619Y-151017523D01*
X120452000Y-151065142D01*
X120428190Y-151136571D01*
X120428190Y-151184190D01*
X120452000Y-151255619D01*
X120475809Y-151279428D01*
X120928190Y-151493714D02*
X120594857Y-151493714D01*
X120428190Y-151493714D02*
X120452000Y-151469904D01*
X120475809Y-151493714D01*
X120452000Y-151517523D01*
X120428190Y-151493714D01*
X120475809Y-151493714D01*
X120594857Y-151731809D02*
X120928190Y-151731809D01*
X120642476Y-151731809D02*
X120618666Y-151755619D01*
X120594857Y-151803238D01*
X120594857Y-151874666D01*
X120618666Y-151922285D01*
X120666285Y-151946095D01*
X120928190Y-151946095D01*
X120475809Y-152160380D02*
X120452000Y-152184190D01*
X120428190Y-152231809D01*
X120428190Y-152350857D01*
X120452000Y-152398476D01*
X120475809Y-152422285D01*
X120523428Y-152446095D01*
X120571047Y-152446095D01*
X120642476Y-152422285D01*
X120928190Y-152136571D01*
X120928190Y-152446095D01*
D11*
X101692714Y-166916333D02*
X102359380Y-166916333D01*
X101787952Y-166916333D02*
X101740333Y-166963952D01*
X101692714Y-167059190D01*
X101692714Y-167202047D01*
X101740333Y-167297285D01*
X101835571Y-167344904D01*
X102359380Y-167344904D01*
X102359380Y-168249666D02*
X101835571Y-168249666D01*
X101740333Y-168202047D01*
X101692714Y-168106809D01*
X101692714Y-167916333D01*
X101740333Y-167821095D01*
X102311761Y-168249666D02*
X102359380Y-168154428D01*
X102359380Y-167916333D01*
X102311761Y-167821095D01*
X102216523Y-167773476D01*
X102121285Y-167773476D01*
X102026047Y-167821095D01*
X101978428Y-167916333D01*
X101978428Y-168154428D01*
X101930809Y-168249666D01*
D12*
X103735571Y-167213952D02*
X103759380Y-167190142D01*
X103783190Y-167118714D01*
X103783190Y-167071095D01*
X103759380Y-166999666D01*
X103711761Y-166952047D01*
X103664142Y-166928238D01*
X103568904Y-166904428D01*
X103497476Y-166904428D01*
X103402238Y-166928238D01*
X103354619Y-166952047D01*
X103307000Y-166999666D01*
X103283190Y-167071095D01*
X103283190Y-167118714D01*
X103307000Y-167190142D01*
X103330809Y-167213952D01*
X103449857Y-167356809D02*
X103449857Y-167547285D01*
X103783190Y-167428238D02*
X103354619Y-167428238D01*
X103307000Y-167452047D01*
X103283190Y-167499666D01*
X103283190Y-167547285D01*
X103449857Y-167642523D02*
X103449857Y-167833000D01*
X103783190Y-167713952D02*
X103354619Y-167713952D01*
X103307000Y-167737761D01*
X103283190Y-167785380D01*
X103283190Y-167833000D01*
X103783190Y-168261571D02*
X103783190Y-167975857D01*
X103783190Y-168118714D02*
X103283190Y-168118714D01*
X103354619Y-168071095D01*
X103402238Y-168023476D01*
X103426047Y-167975857D01*
M02*
