M48
; DRILL file {KiCad 5.1.4} date Fri 01 Nov 2019 11:16:55 PM -03
; FORMAT={-:-/ absolute / inch / decimal}
; #@! TF.CreationDate,2019-11-01T23:16:55-03:00
; #@! TF.GenerationSoftware,Kicad,Pcbnew,5.1.4
FMAT,2
INCH
T1C0.0079
T2C0.0315
T3C0.0354
T4C0.0394
T5C0.0551
T6C0.0591
T7C0.0630
T8C0.1260
%
G90
G05
T1
X3.0579Y-6.5035
X3.0579Y-6.5547
X3.0579Y-6.6059
X3.1091Y-6.5035
X3.1091Y-6.5547
X3.1091Y-6.6059
X7.3886Y-6.5035
X7.3886Y-6.5547
X7.3886Y-6.6059
X7.4398Y-6.5035
X7.4398Y-6.5547
X7.4398Y-6.6059
X3.0579Y-4.0626
X3.0579Y-4.1138
X3.0579Y-4.165
X3.1091Y-4.0626
X3.1091Y-4.1138
X3.1091Y-4.165
X3.0579Y-1.6217
X3.0579Y-1.6728
X3.0579Y-1.724
X3.1091Y-1.6217
X3.1091Y-1.6728
X3.1091Y-1.724
X7.3886Y-1.6217
X7.3886Y-1.6728
X7.3886Y-1.724
X7.4398Y-1.6217
X7.4398Y-1.6728
X7.4398Y-1.724
X7.3886Y-4.0626
X7.3886Y-4.1138
X7.3886Y-4.165
X7.4398Y-4.0626
X7.4398Y-4.1138
X7.4398Y-4.165
T2
X2.5945Y-2.4409
X2.5945Y-4.8819
X2.5945Y-7.3228
X2.811Y-1.0906
X2.811Y-3.5315
X2.811Y-5.9724
X2.8851Y-2.1644
X2.8851Y-4.6054
X2.8851Y-7.0463
X2.9335Y-1.9632
X2.9335Y-4.4041
X2.9335Y-6.8451
X2.9845Y-1.8964
X2.9845Y-4.3374
X2.9845Y-6.7783
X3.1435Y-2.1428
X3.1435Y-4.5838
X3.1435Y-7.0247
X3.1844Y-1.8175
X3.1844Y-4.2584
X3.1844Y-6.6993
X3.2678Y-1.7802
X3.2678Y-4.2212
X3.2678Y-6.6621
X4.2585Y-1.1228
X4.2585Y-3.5638
X4.2585Y-6.0047
X4.3386Y-1.7165
X4.3386Y-4.1575
X4.3386Y-6.5984
X4.3429Y-1.6303
X4.3429Y-4.0713
X4.3429Y-6.5122
X6.9252Y-2.4409
X6.9252Y-4.8819
X6.9252Y-7.3228
X7.1417Y-1.0906
X7.1417Y-3.5315
X7.1417Y-5.9724
X7.2158Y-2.1644
X7.2158Y-4.6054
X7.2158Y-7.0463
X7.2642Y-1.9632
X7.2642Y-4.4041
X7.2642Y-6.8451
X7.3152Y-1.8964
X7.3152Y-4.3374
X7.3152Y-6.7783
X7.4742Y-2.1428
X7.4742Y-4.5838
X7.4742Y-7.0247
X7.5151Y-1.8175
X7.5151Y-4.2584
X7.5151Y-6.6993
X7.5985Y-1.7802
X7.5985Y-4.2212
X7.5985Y-6.6621
X8.5892Y-1.1228
X8.5892Y-3.5638
X8.5892Y-6.0047
X8.6693Y-1.7165
X8.6693Y-4.1575
X8.6693Y-6.5984
X8.6736Y-1.6303
X8.6736Y-4.0713
X8.6736Y-6.5122
X8.0278Y-1.6248
X8.0278Y-1.7232
X3.0535Y-4.6738
X3.0535Y-4.7722
X3.2795Y-2.2328
X3.2795Y-2.3313
X3.697Y-1.6248
X3.697Y-1.7232
X3.0535Y-7.1147
X3.0535Y-7.2131
X8.0278Y-6.5067
X8.0278Y-6.6051
X3.2795Y-4.6738
X3.2795Y-4.7722
X7.6102Y-7.1147
X7.6102Y-7.2131
X8.2528Y-6.5067
X8.2528Y-6.6051
X8.2528Y-4.0657
X8.2528Y-4.1642
X3.0535Y-2.2328
X3.0535Y-2.3313
X3.697Y-4.0657
X3.697Y-4.1642
X3.697Y-6.5067
X3.697Y-6.6051
X8.2528Y-1.6248
X8.2528Y-1.7232
X3.2795Y-7.1147
X3.2795Y-7.2131
X3.922Y-1.6248
X3.922Y-1.7232
X3.922Y-6.5067
X3.922Y-6.6051
X7.6102Y-2.2328
X7.6102Y-2.3313
X7.3842Y-2.2328
X7.3842Y-2.3313
X7.3842Y-4.6738
X7.3842Y-4.7722
X3.922Y-4.0657
X3.922Y-4.1642
X8.0278Y-4.0657
X8.0278Y-4.1642
X7.6102Y-4.6738
X7.6102Y-4.7722
X7.3842Y-7.1147
X7.3842Y-7.2131
T3
X4.9509Y-3.5219
X4.9509Y-3.6219
X4.9509Y-3.7219
X4.9509Y-3.8219
X5.0509Y-3.5719
X5.0509Y-3.6719
X5.0509Y-3.7719
X5.0509Y-3.8719
X9.2816Y-4.3415
X9.2816Y-4.4415
X9.2816Y-4.5415
X9.2816Y-4.6415
X9.3816Y-4.3915
X9.3816Y-4.4915
X9.3816Y-4.5915
X9.3816Y-4.6915
X4.9509Y-6.7824
X4.9509Y-6.8824
X4.9509Y-6.9824
X4.9509Y-7.0824
X5.0509Y-6.8324
X5.0509Y-6.9324
X5.0509Y-7.0324
X5.0509Y-7.1324
X4.9509Y-1.0809
X4.9509Y-1.1809
X4.9509Y-1.2809
X4.9509Y-1.3809
X5.0509Y-1.1309
X5.0509Y-1.2309
X5.0509Y-1.3309
X5.0509Y-1.4309
X9.2816Y-1.0809
X9.2816Y-1.1809
X9.2816Y-1.2809
X9.2816Y-1.3809
X9.3816Y-1.1309
X9.3816Y-1.2309
X9.3816Y-1.3309
X9.3816Y-1.4309
X4.9509Y-5.9628
X4.9509Y-6.0628
X4.9509Y-6.1628
X4.9509Y-6.2628
X5.0509Y-6.0128
X5.0509Y-6.1128
X5.0509Y-6.2128
X5.0509Y-6.3128
X9.2816Y-3.5219
X9.2816Y-3.6219
X9.2816Y-3.7219
X9.2816Y-3.8219
X9.3816Y-3.5719
X9.3816Y-3.6719
X9.3816Y-3.7719
X9.3816Y-3.8719
X9.2816Y-6.7824
X9.2816Y-6.8824
X9.2816Y-6.9824
X9.2816Y-7.0824
X9.3816Y-6.8324
X9.3816Y-6.9324
X9.3816Y-7.0324
X9.3816Y-7.1324
X4.9509Y-1.9005
X4.9509Y-2.0005
X4.9509Y-2.1005
X4.9509Y-2.2005
X5.0509Y-1.9505
X5.0509Y-2.0505
X5.0509Y-2.1505
X5.0509Y-2.2505
X9.2816Y-1.9005
X9.2816Y-2.0005
X9.2816Y-2.1005
X9.2816Y-2.2005
X9.3816Y-1.9505
X9.3816Y-2.0505
X9.3816Y-2.1505
X9.3816Y-2.2505
X4.9509Y-4.3415
X4.9509Y-4.4415
X4.9509Y-4.5415
X4.9509Y-4.6415
X5.0509Y-4.3915
X5.0509Y-4.4915
X5.0509Y-4.5915
X5.0509Y-4.6915
X9.2816Y-5.9628
X9.2816Y-6.0628
X9.2816Y-6.1628
X9.2816Y-6.2628
X9.3816Y-6.0128
X9.3816Y-6.1128
X9.3816Y-6.2128
X9.3816Y-6.3128
T4
X7.7161Y-3.5638
X8.4642Y-3.5638
X3.3854Y-1.1228
X4.1335Y-1.1228
X7.7161Y-1.1228
X8.4642Y-1.1228
X7.7161Y-6.0047
X8.4642Y-6.0047
X3.3854Y-3.5638
X4.1335Y-3.5638
X3.3854Y-6.0047
X4.1335Y-6.0047
T5
X6.5337Y-6.1811
X6.5337Y-6.3811
X6.5337Y-1.2992
X6.5337Y-1.4992
X6.5315Y-4.2913
X6.5315Y-4.4913
X2.203Y-1.2992
X2.203Y-1.4992
X6.5315Y-1.8504
X6.5315Y-2.0504
X2.2008Y-6.7323
X2.2008Y-6.9323
X2.203Y-6.1811
X2.203Y-6.3811
X2.2008Y-4.2913
X2.2008Y-4.4913
X2.203Y-3.7402
X2.203Y-3.9402
X2.2008Y-1.8504
X2.2008Y-2.0504
X6.5337Y-3.7402
X6.5337Y-3.9402
X6.5315Y-6.7323
X6.5315Y-6.9323
T6
X2.5385Y-5.9607
X2.5385Y-6.8447
X2.5385Y-3.5198
X2.5385Y-4.4038
X6.8692Y-1.0788
X6.8692Y-1.9628
X6.8692Y-3.5198
X6.8692Y-4.4038
X6.8692Y-5.9607
X6.8692Y-6.8447
X2.5385Y-1.0788
X2.5385Y-1.9628
T7
X5.1808Y-5.8327
X5.1808Y-6.4429
X9.5115Y-3.3917
X9.5115Y-4.002
X9.5115Y-6.6523
X9.5115Y-7.2625
X5.1808Y-1.7704
X5.1808Y-2.3806
X9.5115Y-1.7704
X9.5115Y-2.3806
X5.1808Y-4.2113
X5.1808Y-4.8216
X9.5115Y-5.8327
X9.5115Y-6.4429
X5.1808Y-3.3917
X5.1808Y-4.002
X9.5115Y-4.2113
X9.5115Y-4.8216
X5.1808Y-6.6523
X5.1808Y-7.2625
X5.1808Y-0.9508
X5.1808Y-1.561
X9.5115Y-0.9508
X9.5115Y-1.561
T8
X8.874Y-0.8346
X1.9843Y-5.7165
X5.3009Y-5.9128
X5.3009Y-6.3628
X4.5433Y-5.7165
X6.315Y-4.9291
X9.6316Y-3.4719
X9.6316Y-3.9219
X4.5433Y-2.4882
X9.6316Y-6.7324
X9.6316Y-7.1824
X6.315Y-2.4882
X6.315Y-0.8346
X4.5433Y-0.8346
X4.5433Y-7.3701
X6.315Y-3.2756
X8.874Y-3.2756
X1.9843Y-0.8346
X8.874Y-2.4882
X6.315Y-7.3701
X5.3009Y-1.8505
X5.3009Y-2.3005
X9.6316Y-1.8505
X9.6316Y-2.3005
X1.9843Y-4.9291
X8.874Y-4.9291
X4.5433Y-3.2756
X1.9843Y-3.2756
X5.3009Y-4.2915
X5.3009Y-4.7415
X9.6316Y-5.9128
X9.6316Y-6.3628
X1.9843Y-7.3701
X4.5433Y-4.9291
X5.3009Y-3.4719
X5.3009Y-3.9219
X9.6316Y-4.2915
X9.6316Y-4.7415
X8.874Y-7.3701
X5.3009Y-6.7324
X5.3009Y-7.1824
X8.874Y-5.7165
X6.315Y-5.7165
X1.9843Y-2.4882
X5.3009Y-1.0309
X5.3009Y-1.4809
X9.6316Y-1.0309
X9.6316Y-1.4809
T0
M30
