G04 #@! TF.GenerationSoftware,KiCad,Pcbnew,5.1.4-e60b266~84~ubuntu18.04.1*
G04 #@! TF.CreationDate,2019-10-29T18:19:43-03:00*
G04 #@! TF.ProjectId,fonte_18V,666f6e74-655f-4313-9856-2e6b69636164,rev?*
G04 #@! TF.SameCoordinates,Original*
G04 #@! TF.FileFunction,Legend,Top*
G04 #@! TF.FilePolarity,Positive*
%FSLAX46Y46*%
G04 Gerber Fmt 4.6, Leading zero omitted, Abs format (unit mm)*
G04 Created by KiCad (PCBNEW 5.1.4-e60b266~84~ubuntu18.04.1) date 2019-10-29 18:19:43*
%MOMM*%
%LPD*%
G04 APERTURE LIST*
%ADD10C,0.120000*%
%ADD11C,0.150000*%
%ADD12C,0.100000*%
G04 APERTURE END LIST*
D10*
X189032000Y-158450000D02*
X189032000Y-142950000D01*
X168082000Y-142950000D02*
X177072000Y-142950000D01*
X168082000Y-142950000D02*
X168082000Y-158450000D01*
X168082000Y-158450000D02*
X177082000Y-158450000D01*
X179412000Y-142950000D02*
X189041000Y-142950000D01*
X179402000Y-158450000D02*
X189041000Y-158452000D01*
X189032000Y-179268000D02*
X189032000Y-163768000D01*
X168082000Y-163768000D02*
X177072000Y-163768000D01*
X168082000Y-163768000D02*
X168082000Y-179268000D01*
X168082000Y-179268000D02*
X177082000Y-179268000D01*
X179412000Y-163768000D02*
X189041000Y-163768000D01*
X179402000Y-179268000D02*
X189041000Y-179270000D01*
D11*
X113030000Y-144932400D02*
X103124000Y-144932400D01*
X113030000Y-144932400D02*
X113030000Y-169951400D01*
X103124000Y-144932400D02*
X103124000Y-169951400D01*
X113030000Y-169951400D02*
X103124000Y-169951400D01*
D10*
X120333752Y-158730000D02*
X118470000Y-158730000D01*
X123506248Y-158730000D02*
X123870000Y-158730000D01*
X120333752Y-163850000D02*
X119970000Y-163850000D01*
X123506248Y-163850000D02*
X123870000Y-163850000D01*
X132640000Y-179826252D02*
X132640000Y-179303748D01*
X131220000Y-179826252D02*
X131220000Y-179303748D01*
X154620000Y-167471252D02*
X154620000Y-166948748D01*
X153200000Y-167471252D02*
X153200000Y-166948748D01*
X116915000Y-162186252D02*
X116915000Y-161663748D01*
X115495000Y-162186252D02*
X115495000Y-161663748D01*
X114225000Y-174363748D02*
X114225000Y-174886252D01*
X115645000Y-174363748D02*
X115645000Y-174886252D01*
X121210000Y-167378748D02*
X121210000Y-167901252D01*
X122630000Y-167378748D02*
X122630000Y-167901252D01*
X157700000Y-169190000D02*
X157700000Y-166330000D01*
X155780000Y-169190000D02*
X157700000Y-169190000D01*
X155780000Y-166330000D02*
X155780000Y-169190000D01*
X128545011Y-146060000D02*
G75*
G02X149634989Y-146060000I10544989J-1260000D01*
G01*
X128545011Y-148580000D02*
G75*
G03X149634989Y-148580000I10544989J1260000D01*
G01*
X102310000Y-150150000D02*
X102310000Y-150750000D01*
X101710000Y-150450000D02*
X102310000Y-150150000D01*
X102310000Y-150750000D02*
X101710000Y-150450000D01*
X90790000Y-154780000D02*
X89290000Y-154530000D01*
X90790000Y-156280000D02*
X90790000Y-154780000D01*
X89290000Y-156530000D02*
X90790000Y-156280000D01*
X89290000Y-154530000D02*
X89290000Y-156530000D01*
X90790000Y-149700000D02*
X89290000Y-149450000D01*
X90790000Y-151200000D02*
X90790000Y-149700000D01*
X89290000Y-151450000D02*
X90790000Y-151200000D01*
X89290000Y-149450000D02*
X89290000Y-151450000D01*
X90790000Y-159180000D02*
X90790000Y-146800000D01*
X92590000Y-159180000D02*
X90790000Y-159180000D01*
X92590000Y-146800000D02*
X92590000Y-159180000D01*
X90790000Y-146800000D02*
X92590000Y-146800000D01*
X101510000Y-159180000D02*
X101510000Y-146800000D01*
X89290000Y-159180000D02*
X101510000Y-159180000D01*
X89290000Y-146800000D02*
X89290000Y-159180000D01*
X101510000Y-146800000D02*
X89290000Y-146800000D01*
X102265000Y-163055000D02*
X102265000Y-163655000D01*
X101665000Y-163355000D02*
X102265000Y-163055000D01*
X102265000Y-163655000D02*
X101665000Y-163355000D01*
X90745000Y-167685000D02*
X89245000Y-167435000D01*
X90745000Y-169185000D02*
X90745000Y-167685000D01*
X89245000Y-169435000D02*
X90745000Y-169185000D01*
X89245000Y-167435000D02*
X89245000Y-169435000D01*
X90745000Y-162605000D02*
X89245000Y-162355000D01*
X90745000Y-164105000D02*
X90745000Y-162605000D01*
X89245000Y-164355000D02*
X90745000Y-164105000D01*
X89245000Y-162355000D02*
X89245000Y-164355000D01*
X90745000Y-172085000D02*
X90745000Y-159705000D01*
X92545000Y-172085000D02*
X90745000Y-172085000D01*
X92545000Y-159705000D02*
X92545000Y-172085000D01*
X90745000Y-159705000D02*
X92545000Y-159705000D01*
X101465000Y-172085000D02*
X101465000Y-159705000D01*
X89245000Y-172085000D02*
X101465000Y-172085000D01*
X89245000Y-159705000D02*
X89245000Y-172085000D01*
X101465000Y-159705000D02*
X89245000Y-159705000D01*
X134395000Y-179303748D02*
X134395000Y-179826252D01*
X135815000Y-179303748D02*
X135815000Y-179826252D01*
X144945000Y-158765225D02*
X144445000Y-158765225D01*
X144695000Y-158515225D02*
X144695000Y-159015225D01*
X143504000Y-163921000D02*
X142936000Y-163921000D01*
X143738000Y-163881000D02*
X142702000Y-163881000D01*
X143897000Y-163841000D02*
X142543000Y-163841000D01*
X144025000Y-163801000D02*
X142415000Y-163801000D01*
X144135000Y-163761000D02*
X142305000Y-163761000D01*
X144231000Y-163721000D02*
X142209000Y-163721000D01*
X144318000Y-163681000D02*
X142122000Y-163681000D01*
X144398000Y-163641000D02*
X142042000Y-163641000D01*
X142180000Y-163601000D02*
X141969000Y-163601000D01*
X144471000Y-163601000D02*
X144260000Y-163601000D01*
X142180000Y-163561000D02*
X141901000Y-163561000D01*
X144539000Y-163561000D02*
X144260000Y-163561000D01*
X142180000Y-163521000D02*
X141837000Y-163521000D01*
X144603000Y-163521000D02*
X144260000Y-163521000D01*
X142180000Y-163481000D02*
X141777000Y-163481000D01*
X144663000Y-163481000D02*
X144260000Y-163481000D01*
X142180000Y-163441000D02*
X141720000Y-163441000D01*
X144720000Y-163441000D02*
X144260000Y-163441000D01*
X142180000Y-163401000D02*
X141666000Y-163401000D01*
X144774000Y-163401000D02*
X144260000Y-163401000D01*
X142180000Y-163361000D02*
X141615000Y-163361000D01*
X144825000Y-163361000D02*
X144260000Y-163361000D01*
X142180000Y-163321000D02*
X141567000Y-163321000D01*
X144873000Y-163321000D02*
X144260000Y-163321000D01*
X142180000Y-163281000D02*
X141521000Y-163281000D01*
X144919000Y-163281000D02*
X144260000Y-163281000D01*
X142180000Y-163241000D02*
X141477000Y-163241000D01*
X144963000Y-163241000D02*
X144260000Y-163241000D01*
X142180000Y-163201000D02*
X141435000Y-163201000D01*
X145005000Y-163201000D02*
X144260000Y-163201000D01*
X142180000Y-163161000D02*
X141394000Y-163161000D01*
X145046000Y-163161000D02*
X144260000Y-163161000D01*
X142180000Y-163121000D02*
X141356000Y-163121000D01*
X145084000Y-163121000D02*
X144260000Y-163121000D01*
X142180000Y-163081000D02*
X141319000Y-163081000D01*
X145121000Y-163081000D02*
X144260000Y-163081000D01*
X142180000Y-163041000D02*
X141283000Y-163041000D01*
X145157000Y-163041000D02*
X144260000Y-163041000D01*
X142180000Y-163001000D02*
X141249000Y-163001000D01*
X145191000Y-163001000D02*
X144260000Y-163001000D01*
X142180000Y-162961000D02*
X141216000Y-162961000D01*
X145224000Y-162961000D02*
X144260000Y-162961000D01*
X142180000Y-162921000D02*
X141185000Y-162921000D01*
X145255000Y-162921000D02*
X144260000Y-162921000D01*
X142180000Y-162881000D02*
X141155000Y-162881000D01*
X145285000Y-162881000D02*
X144260000Y-162881000D01*
X142180000Y-162841000D02*
X141125000Y-162841000D01*
X145315000Y-162841000D02*
X144260000Y-162841000D01*
X142180000Y-162801000D02*
X141098000Y-162801000D01*
X145342000Y-162801000D02*
X144260000Y-162801000D01*
X142180000Y-162761000D02*
X141071000Y-162761000D01*
X145369000Y-162761000D02*
X144260000Y-162761000D01*
X142180000Y-162721000D02*
X141045000Y-162721000D01*
X145395000Y-162721000D02*
X144260000Y-162721000D01*
X142180000Y-162681000D02*
X141020000Y-162681000D01*
X145420000Y-162681000D02*
X144260000Y-162681000D01*
X142180000Y-162641000D02*
X140996000Y-162641000D01*
X145444000Y-162641000D02*
X144260000Y-162641000D01*
X142180000Y-162601000D02*
X140973000Y-162601000D01*
X145467000Y-162601000D02*
X144260000Y-162601000D01*
X142180000Y-162561000D02*
X140952000Y-162561000D01*
X145488000Y-162561000D02*
X144260000Y-162561000D01*
X142180000Y-162521000D02*
X140930000Y-162521000D01*
X145510000Y-162521000D02*
X144260000Y-162521000D01*
X142180000Y-162481000D02*
X140910000Y-162481000D01*
X145530000Y-162481000D02*
X144260000Y-162481000D01*
X142180000Y-162441000D02*
X140891000Y-162441000D01*
X145549000Y-162441000D02*
X144260000Y-162441000D01*
X142180000Y-162401000D02*
X140872000Y-162401000D01*
X145568000Y-162401000D02*
X144260000Y-162401000D01*
X142180000Y-162361000D02*
X140855000Y-162361000D01*
X145585000Y-162361000D02*
X144260000Y-162361000D01*
X142180000Y-162321000D02*
X140838000Y-162321000D01*
X145602000Y-162321000D02*
X144260000Y-162321000D01*
X142180000Y-162281000D02*
X140822000Y-162281000D01*
X145618000Y-162281000D02*
X144260000Y-162281000D01*
X142180000Y-162241000D02*
X140806000Y-162241000D01*
X145634000Y-162241000D02*
X144260000Y-162241000D01*
X142180000Y-162201000D02*
X140792000Y-162201000D01*
X145648000Y-162201000D02*
X144260000Y-162201000D01*
X142180000Y-162161000D02*
X140778000Y-162161000D01*
X145662000Y-162161000D02*
X144260000Y-162161000D01*
X142180000Y-162121000D02*
X140765000Y-162121000D01*
X145675000Y-162121000D02*
X144260000Y-162121000D01*
X142180000Y-162081000D02*
X140752000Y-162081000D01*
X145688000Y-162081000D02*
X144260000Y-162081000D01*
X142180000Y-162041000D02*
X140740000Y-162041000D01*
X145700000Y-162041000D02*
X144260000Y-162041000D01*
X142180000Y-162000000D02*
X140729000Y-162000000D01*
X145711000Y-162000000D02*
X144260000Y-162000000D01*
X142180000Y-161960000D02*
X140719000Y-161960000D01*
X145721000Y-161960000D02*
X144260000Y-161960000D01*
X142180000Y-161920000D02*
X140709000Y-161920000D01*
X145731000Y-161920000D02*
X144260000Y-161920000D01*
X142180000Y-161880000D02*
X140700000Y-161880000D01*
X145740000Y-161880000D02*
X144260000Y-161880000D01*
X142180000Y-161840000D02*
X140692000Y-161840000D01*
X145748000Y-161840000D02*
X144260000Y-161840000D01*
X142180000Y-161800000D02*
X140684000Y-161800000D01*
X145756000Y-161800000D02*
X144260000Y-161800000D01*
X142180000Y-161760000D02*
X140677000Y-161760000D01*
X145763000Y-161760000D02*
X144260000Y-161760000D01*
X142180000Y-161720000D02*
X140670000Y-161720000D01*
X145770000Y-161720000D02*
X144260000Y-161720000D01*
X142180000Y-161680000D02*
X140664000Y-161680000D01*
X145776000Y-161680000D02*
X144260000Y-161680000D01*
X142180000Y-161640000D02*
X140659000Y-161640000D01*
X145781000Y-161640000D02*
X144260000Y-161640000D01*
X142180000Y-161600000D02*
X140655000Y-161600000D01*
X145785000Y-161600000D02*
X144260000Y-161600000D01*
X142180000Y-161560000D02*
X140651000Y-161560000D01*
X145789000Y-161560000D02*
X144260000Y-161560000D01*
X145793000Y-161520000D02*
X140647000Y-161520000D01*
X145796000Y-161480000D02*
X140644000Y-161480000D01*
X145798000Y-161440000D02*
X140642000Y-161440000D01*
X145799000Y-161400000D02*
X140641000Y-161400000D01*
X145800000Y-161360000D02*
X140640000Y-161360000D01*
X145800000Y-161320000D02*
X140640000Y-161320000D01*
X145840000Y-161320000D02*
G75*
G03X145840000Y-161320000I-2620000J0D01*
G01*
X139230000Y-158765225D02*
X138730000Y-158765225D01*
X138980000Y-158515225D02*
X138980000Y-159015225D01*
X137789000Y-163921000D02*
X137221000Y-163921000D01*
X138023000Y-163881000D02*
X136987000Y-163881000D01*
X138182000Y-163841000D02*
X136828000Y-163841000D01*
X138310000Y-163801000D02*
X136700000Y-163801000D01*
X138420000Y-163761000D02*
X136590000Y-163761000D01*
X138516000Y-163721000D02*
X136494000Y-163721000D01*
X138603000Y-163681000D02*
X136407000Y-163681000D01*
X138683000Y-163641000D02*
X136327000Y-163641000D01*
X136465000Y-163601000D02*
X136254000Y-163601000D01*
X138756000Y-163601000D02*
X138545000Y-163601000D01*
X136465000Y-163561000D02*
X136186000Y-163561000D01*
X138824000Y-163561000D02*
X138545000Y-163561000D01*
X136465000Y-163521000D02*
X136122000Y-163521000D01*
X138888000Y-163521000D02*
X138545000Y-163521000D01*
X136465000Y-163481000D02*
X136062000Y-163481000D01*
X138948000Y-163481000D02*
X138545000Y-163481000D01*
X136465000Y-163441000D02*
X136005000Y-163441000D01*
X139005000Y-163441000D02*
X138545000Y-163441000D01*
X136465000Y-163401000D02*
X135951000Y-163401000D01*
X139059000Y-163401000D02*
X138545000Y-163401000D01*
X136465000Y-163361000D02*
X135900000Y-163361000D01*
X139110000Y-163361000D02*
X138545000Y-163361000D01*
X136465000Y-163321000D02*
X135852000Y-163321000D01*
X139158000Y-163321000D02*
X138545000Y-163321000D01*
X136465000Y-163281000D02*
X135806000Y-163281000D01*
X139204000Y-163281000D02*
X138545000Y-163281000D01*
X136465000Y-163241000D02*
X135762000Y-163241000D01*
X139248000Y-163241000D02*
X138545000Y-163241000D01*
X136465000Y-163201000D02*
X135720000Y-163201000D01*
X139290000Y-163201000D02*
X138545000Y-163201000D01*
X136465000Y-163161000D02*
X135679000Y-163161000D01*
X139331000Y-163161000D02*
X138545000Y-163161000D01*
X136465000Y-163121000D02*
X135641000Y-163121000D01*
X139369000Y-163121000D02*
X138545000Y-163121000D01*
X136465000Y-163081000D02*
X135604000Y-163081000D01*
X139406000Y-163081000D02*
X138545000Y-163081000D01*
X136465000Y-163041000D02*
X135568000Y-163041000D01*
X139442000Y-163041000D02*
X138545000Y-163041000D01*
X136465000Y-163001000D02*
X135534000Y-163001000D01*
X139476000Y-163001000D02*
X138545000Y-163001000D01*
X136465000Y-162961000D02*
X135501000Y-162961000D01*
X139509000Y-162961000D02*
X138545000Y-162961000D01*
X136465000Y-162921000D02*
X135470000Y-162921000D01*
X139540000Y-162921000D02*
X138545000Y-162921000D01*
X136465000Y-162881000D02*
X135440000Y-162881000D01*
X139570000Y-162881000D02*
X138545000Y-162881000D01*
X136465000Y-162841000D02*
X135410000Y-162841000D01*
X139600000Y-162841000D02*
X138545000Y-162841000D01*
X136465000Y-162801000D02*
X135383000Y-162801000D01*
X139627000Y-162801000D02*
X138545000Y-162801000D01*
X136465000Y-162761000D02*
X135356000Y-162761000D01*
X139654000Y-162761000D02*
X138545000Y-162761000D01*
X136465000Y-162721000D02*
X135330000Y-162721000D01*
X139680000Y-162721000D02*
X138545000Y-162721000D01*
X136465000Y-162681000D02*
X135305000Y-162681000D01*
X139705000Y-162681000D02*
X138545000Y-162681000D01*
X136465000Y-162641000D02*
X135281000Y-162641000D01*
X139729000Y-162641000D02*
X138545000Y-162641000D01*
X136465000Y-162601000D02*
X135258000Y-162601000D01*
X139752000Y-162601000D02*
X138545000Y-162601000D01*
X136465000Y-162561000D02*
X135237000Y-162561000D01*
X139773000Y-162561000D02*
X138545000Y-162561000D01*
X136465000Y-162521000D02*
X135215000Y-162521000D01*
X139795000Y-162521000D02*
X138545000Y-162521000D01*
X136465000Y-162481000D02*
X135195000Y-162481000D01*
X139815000Y-162481000D02*
X138545000Y-162481000D01*
X136465000Y-162441000D02*
X135176000Y-162441000D01*
X139834000Y-162441000D02*
X138545000Y-162441000D01*
X136465000Y-162401000D02*
X135157000Y-162401000D01*
X139853000Y-162401000D02*
X138545000Y-162401000D01*
X136465000Y-162361000D02*
X135140000Y-162361000D01*
X139870000Y-162361000D02*
X138545000Y-162361000D01*
X136465000Y-162321000D02*
X135123000Y-162321000D01*
X139887000Y-162321000D02*
X138545000Y-162321000D01*
X136465000Y-162281000D02*
X135107000Y-162281000D01*
X139903000Y-162281000D02*
X138545000Y-162281000D01*
X136465000Y-162241000D02*
X135091000Y-162241000D01*
X139919000Y-162241000D02*
X138545000Y-162241000D01*
X136465000Y-162201000D02*
X135077000Y-162201000D01*
X139933000Y-162201000D02*
X138545000Y-162201000D01*
X136465000Y-162161000D02*
X135063000Y-162161000D01*
X139947000Y-162161000D02*
X138545000Y-162161000D01*
X136465000Y-162121000D02*
X135050000Y-162121000D01*
X139960000Y-162121000D02*
X138545000Y-162121000D01*
X136465000Y-162081000D02*
X135037000Y-162081000D01*
X139973000Y-162081000D02*
X138545000Y-162081000D01*
X136465000Y-162041000D02*
X135025000Y-162041000D01*
X139985000Y-162041000D02*
X138545000Y-162041000D01*
X136465000Y-162000000D02*
X135014000Y-162000000D01*
X139996000Y-162000000D02*
X138545000Y-162000000D01*
X136465000Y-161960000D02*
X135004000Y-161960000D01*
X140006000Y-161960000D02*
X138545000Y-161960000D01*
X136465000Y-161920000D02*
X134994000Y-161920000D01*
X140016000Y-161920000D02*
X138545000Y-161920000D01*
X136465000Y-161880000D02*
X134985000Y-161880000D01*
X140025000Y-161880000D02*
X138545000Y-161880000D01*
X136465000Y-161840000D02*
X134977000Y-161840000D01*
X140033000Y-161840000D02*
X138545000Y-161840000D01*
X136465000Y-161800000D02*
X134969000Y-161800000D01*
X140041000Y-161800000D02*
X138545000Y-161800000D01*
X136465000Y-161760000D02*
X134962000Y-161760000D01*
X140048000Y-161760000D02*
X138545000Y-161760000D01*
X136465000Y-161720000D02*
X134955000Y-161720000D01*
X140055000Y-161720000D02*
X138545000Y-161720000D01*
X136465000Y-161680000D02*
X134949000Y-161680000D01*
X140061000Y-161680000D02*
X138545000Y-161680000D01*
X136465000Y-161640000D02*
X134944000Y-161640000D01*
X140066000Y-161640000D02*
X138545000Y-161640000D01*
X136465000Y-161600000D02*
X134940000Y-161600000D01*
X140070000Y-161600000D02*
X138545000Y-161600000D01*
X136465000Y-161560000D02*
X134936000Y-161560000D01*
X140074000Y-161560000D02*
X138545000Y-161560000D01*
X140078000Y-161520000D02*
X134932000Y-161520000D01*
X140081000Y-161480000D02*
X134929000Y-161480000D01*
X140083000Y-161440000D02*
X134927000Y-161440000D01*
X140084000Y-161400000D02*
X134926000Y-161400000D01*
X140085000Y-161360000D02*
X134925000Y-161360000D01*
X140085000Y-161320000D02*
X134925000Y-161320000D01*
X140125000Y-161320000D02*
G75*
G03X140125000Y-161320000I-2620000J0D01*
G01*
X128625000Y-174209225D02*
X128125000Y-174209225D01*
X128375000Y-173959225D02*
X128375000Y-174459225D01*
X127184000Y-179365000D02*
X126616000Y-179365000D01*
X127418000Y-179325000D02*
X126382000Y-179325000D01*
X127577000Y-179285000D02*
X126223000Y-179285000D01*
X127705000Y-179245000D02*
X126095000Y-179245000D01*
X127815000Y-179205000D02*
X125985000Y-179205000D01*
X127911000Y-179165000D02*
X125889000Y-179165000D01*
X127998000Y-179125000D02*
X125802000Y-179125000D01*
X128078000Y-179085000D02*
X125722000Y-179085000D01*
X125860000Y-179045000D02*
X125649000Y-179045000D01*
X128151000Y-179045000D02*
X127940000Y-179045000D01*
X125860000Y-179005000D02*
X125581000Y-179005000D01*
X128219000Y-179005000D02*
X127940000Y-179005000D01*
X125860000Y-178965000D02*
X125517000Y-178965000D01*
X128283000Y-178965000D02*
X127940000Y-178965000D01*
X125860000Y-178925000D02*
X125457000Y-178925000D01*
X128343000Y-178925000D02*
X127940000Y-178925000D01*
X125860000Y-178885000D02*
X125400000Y-178885000D01*
X128400000Y-178885000D02*
X127940000Y-178885000D01*
X125860000Y-178845000D02*
X125346000Y-178845000D01*
X128454000Y-178845000D02*
X127940000Y-178845000D01*
X125860000Y-178805000D02*
X125295000Y-178805000D01*
X128505000Y-178805000D02*
X127940000Y-178805000D01*
X125860000Y-178765000D02*
X125247000Y-178765000D01*
X128553000Y-178765000D02*
X127940000Y-178765000D01*
X125860000Y-178725000D02*
X125201000Y-178725000D01*
X128599000Y-178725000D02*
X127940000Y-178725000D01*
X125860000Y-178685000D02*
X125157000Y-178685000D01*
X128643000Y-178685000D02*
X127940000Y-178685000D01*
X125860000Y-178645000D02*
X125115000Y-178645000D01*
X128685000Y-178645000D02*
X127940000Y-178645000D01*
X125860000Y-178605000D02*
X125074000Y-178605000D01*
X128726000Y-178605000D02*
X127940000Y-178605000D01*
X125860000Y-178565000D02*
X125036000Y-178565000D01*
X128764000Y-178565000D02*
X127940000Y-178565000D01*
X125860000Y-178525000D02*
X124999000Y-178525000D01*
X128801000Y-178525000D02*
X127940000Y-178525000D01*
X125860000Y-178485000D02*
X124963000Y-178485000D01*
X128837000Y-178485000D02*
X127940000Y-178485000D01*
X125860000Y-178445000D02*
X124929000Y-178445000D01*
X128871000Y-178445000D02*
X127940000Y-178445000D01*
X125860000Y-178405000D02*
X124896000Y-178405000D01*
X128904000Y-178405000D02*
X127940000Y-178405000D01*
X125860000Y-178365000D02*
X124865000Y-178365000D01*
X128935000Y-178365000D02*
X127940000Y-178365000D01*
X125860000Y-178325000D02*
X124835000Y-178325000D01*
X128965000Y-178325000D02*
X127940000Y-178325000D01*
X125860000Y-178285000D02*
X124805000Y-178285000D01*
X128995000Y-178285000D02*
X127940000Y-178285000D01*
X125860000Y-178245000D02*
X124778000Y-178245000D01*
X129022000Y-178245000D02*
X127940000Y-178245000D01*
X125860000Y-178205000D02*
X124751000Y-178205000D01*
X129049000Y-178205000D02*
X127940000Y-178205000D01*
X125860000Y-178165000D02*
X124725000Y-178165000D01*
X129075000Y-178165000D02*
X127940000Y-178165000D01*
X125860000Y-178125000D02*
X124700000Y-178125000D01*
X129100000Y-178125000D02*
X127940000Y-178125000D01*
X125860000Y-178085000D02*
X124676000Y-178085000D01*
X129124000Y-178085000D02*
X127940000Y-178085000D01*
X125860000Y-178045000D02*
X124653000Y-178045000D01*
X129147000Y-178045000D02*
X127940000Y-178045000D01*
X125860000Y-178005000D02*
X124632000Y-178005000D01*
X129168000Y-178005000D02*
X127940000Y-178005000D01*
X125860000Y-177965000D02*
X124610000Y-177965000D01*
X129190000Y-177965000D02*
X127940000Y-177965000D01*
X125860000Y-177925000D02*
X124590000Y-177925000D01*
X129210000Y-177925000D02*
X127940000Y-177925000D01*
X125860000Y-177885000D02*
X124571000Y-177885000D01*
X129229000Y-177885000D02*
X127940000Y-177885000D01*
X125860000Y-177845000D02*
X124552000Y-177845000D01*
X129248000Y-177845000D02*
X127940000Y-177845000D01*
X125860000Y-177805000D02*
X124535000Y-177805000D01*
X129265000Y-177805000D02*
X127940000Y-177805000D01*
X125860000Y-177765000D02*
X124518000Y-177765000D01*
X129282000Y-177765000D02*
X127940000Y-177765000D01*
X125860000Y-177725000D02*
X124502000Y-177725000D01*
X129298000Y-177725000D02*
X127940000Y-177725000D01*
X125860000Y-177685000D02*
X124486000Y-177685000D01*
X129314000Y-177685000D02*
X127940000Y-177685000D01*
X125860000Y-177645000D02*
X124472000Y-177645000D01*
X129328000Y-177645000D02*
X127940000Y-177645000D01*
X125860000Y-177605000D02*
X124458000Y-177605000D01*
X129342000Y-177605000D02*
X127940000Y-177605000D01*
X125860000Y-177565000D02*
X124445000Y-177565000D01*
X129355000Y-177565000D02*
X127940000Y-177565000D01*
X125860000Y-177525000D02*
X124432000Y-177525000D01*
X129368000Y-177525000D02*
X127940000Y-177525000D01*
X125860000Y-177485000D02*
X124420000Y-177485000D01*
X129380000Y-177485000D02*
X127940000Y-177485000D01*
X125860000Y-177444000D02*
X124409000Y-177444000D01*
X129391000Y-177444000D02*
X127940000Y-177444000D01*
X125860000Y-177404000D02*
X124399000Y-177404000D01*
X129401000Y-177404000D02*
X127940000Y-177404000D01*
X125860000Y-177364000D02*
X124389000Y-177364000D01*
X129411000Y-177364000D02*
X127940000Y-177364000D01*
X125860000Y-177324000D02*
X124380000Y-177324000D01*
X129420000Y-177324000D02*
X127940000Y-177324000D01*
X125860000Y-177284000D02*
X124372000Y-177284000D01*
X129428000Y-177284000D02*
X127940000Y-177284000D01*
X125860000Y-177244000D02*
X124364000Y-177244000D01*
X129436000Y-177244000D02*
X127940000Y-177244000D01*
X125860000Y-177204000D02*
X124357000Y-177204000D01*
X129443000Y-177204000D02*
X127940000Y-177204000D01*
X125860000Y-177164000D02*
X124350000Y-177164000D01*
X129450000Y-177164000D02*
X127940000Y-177164000D01*
X125860000Y-177124000D02*
X124344000Y-177124000D01*
X129456000Y-177124000D02*
X127940000Y-177124000D01*
X125860000Y-177084000D02*
X124339000Y-177084000D01*
X129461000Y-177084000D02*
X127940000Y-177084000D01*
X125860000Y-177044000D02*
X124335000Y-177044000D01*
X129465000Y-177044000D02*
X127940000Y-177044000D01*
X125860000Y-177004000D02*
X124331000Y-177004000D01*
X129469000Y-177004000D02*
X127940000Y-177004000D01*
X129473000Y-176964000D02*
X124327000Y-176964000D01*
X129476000Y-176924000D02*
X124324000Y-176924000D01*
X129478000Y-176884000D02*
X124322000Y-176884000D01*
X129479000Y-176844000D02*
X124321000Y-176844000D01*
X129480000Y-176804000D02*
X124320000Y-176804000D01*
X129480000Y-176764000D02*
X124320000Y-176764000D01*
X129520000Y-176764000D02*
G75*
G03X129520000Y-176764000I-2620000J0D01*
G01*
X122883000Y-174209225D02*
X122383000Y-174209225D01*
X122633000Y-173959225D02*
X122633000Y-174459225D01*
X121442000Y-179365000D02*
X120874000Y-179365000D01*
X121676000Y-179325000D02*
X120640000Y-179325000D01*
X121835000Y-179285000D02*
X120481000Y-179285000D01*
X121963000Y-179245000D02*
X120353000Y-179245000D01*
X122073000Y-179205000D02*
X120243000Y-179205000D01*
X122169000Y-179165000D02*
X120147000Y-179165000D01*
X122256000Y-179125000D02*
X120060000Y-179125000D01*
X122336000Y-179085000D02*
X119980000Y-179085000D01*
X120118000Y-179045000D02*
X119907000Y-179045000D01*
X122409000Y-179045000D02*
X122198000Y-179045000D01*
X120118000Y-179005000D02*
X119839000Y-179005000D01*
X122477000Y-179005000D02*
X122198000Y-179005000D01*
X120118000Y-178965000D02*
X119775000Y-178965000D01*
X122541000Y-178965000D02*
X122198000Y-178965000D01*
X120118000Y-178925000D02*
X119715000Y-178925000D01*
X122601000Y-178925000D02*
X122198000Y-178925000D01*
X120118000Y-178885000D02*
X119658000Y-178885000D01*
X122658000Y-178885000D02*
X122198000Y-178885000D01*
X120118000Y-178845000D02*
X119604000Y-178845000D01*
X122712000Y-178845000D02*
X122198000Y-178845000D01*
X120118000Y-178805000D02*
X119553000Y-178805000D01*
X122763000Y-178805000D02*
X122198000Y-178805000D01*
X120118000Y-178765000D02*
X119505000Y-178765000D01*
X122811000Y-178765000D02*
X122198000Y-178765000D01*
X120118000Y-178725000D02*
X119459000Y-178725000D01*
X122857000Y-178725000D02*
X122198000Y-178725000D01*
X120118000Y-178685000D02*
X119415000Y-178685000D01*
X122901000Y-178685000D02*
X122198000Y-178685000D01*
X120118000Y-178645000D02*
X119373000Y-178645000D01*
X122943000Y-178645000D02*
X122198000Y-178645000D01*
X120118000Y-178605000D02*
X119332000Y-178605000D01*
X122984000Y-178605000D02*
X122198000Y-178605000D01*
X120118000Y-178565000D02*
X119294000Y-178565000D01*
X123022000Y-178565000D02*
X122198000Y-178565000D01*
X120118000Y-178525000D02*
X119257000Y-178525000D01*
X123059000Y-178525000D02*
X122198000Y-178525000D01*
X120118000Y-178485000D02*
X119221000Y-178485000D01*
X123095000Y-178485000D02*
X122198000Y-178485000D01*
X120118000Y-178445000D02*
X119187000Y-178445000D01*
X123129000Y-178445000D02*
X122198000Y-178445000D01*
X120118000Y-178405000D02*
X119154000Y-178405000D01*
X123162000Y-178405000D02*
X122198000Y-178405000D01*
X120118000Y-178365000D02*
X119123000Y-178365000D01*
X123193000Y-178365000D02*
X122198000Y-178365000D01*
X120118000Y-178325000D02*
X119093000Y-178325000D01*
X123223000Y-178325000D02*
X122198000Y-178325000D01*
X120118000Y-178285000D02*
X119063000Y-178285000D01*
X123253000Y-178285000D02*
X122198000Y-178285000D01*
X120118000Y-178245000D02*
X119036000Y-178245000D01*
X123280000Y-178245000D02*
X122198000Y-178245000D01*
X120118000Y-178205000D02*
X119009000Y-178205000D01*
X123307000Y-178205000D02*
X122198000Y-178205000D01*
X120118000Y-178165000D02*
X118983000Y-178165000D01*
X123333000Y-178165000D02*
X122198000Y-178165000D01*
X120118000Y-178125000D02*
X118958000Y-178125000D01*
X123358000Y-178125000D02*
X122198000Y-178125000D01*
X120118000Y-178085000D02*
X118934000Y-178085000D01*
X123382000Y-178085000D02*
X122198000Y-178085000D01*
X120118000Y-178045000D02*
X118911000Y-178045000D01*
X123405000Y-178045000D02*
X122198000Y-178045000D01*
X120118000Y-178005000D02*
X118890000Y-178005000D01*
X123426000Y-178005000D02*
X122198000Y-178005000D01*
X120118000Y-177965000D02*
X118868000Y-177965000D01*
X123448000Y-177965000D02*
X122198000Y-177965000D01*
X120118000Y-177925000D02*
X118848000Y-177925000D01*
X123468000Y-177925000D02*
X122198000Y-177925000D01*
X120118000Y-177885000D02*
X118829000Y-177885000D01*
X123487000Y-177885000D02*
X122198000Y-177885000D01*
X120118000Y-177845000D02*
X118810000Y-177845000D01*
X123506000Y-177845000D02*
X122198000Y-177845000D01*
X120118000Y-177805000D02*
X118793000Y-177805000D01*
X123523000Y-177805000D02*
X122198000Y-177805000D01*
X120118000Y-177765000D02*
X118776000Y-177765000D01*
X123540000Y-177765000D02*
X122198000Y-177765000D01*
X120118000Y-177725000D02*
X118760000Y-177725000D01*
X123556000Y-177725000D02*
X122198000Y-177725000D01*
X120118000Y-177685000D02*
X118744000Y-177685000D01*
X123572000Y-177685000D02*
X122198000Y-177685000D01*
X120118000Y-177645000D02*
X118730000Y-177645000D01*
X123586000Y-177645000D02*
X122198000Y-177645000D01*
X120118000Y-177605000D02*
X118716000Y-177605000D01*
X123600000Y-177605000D02*
X122198000Y-177605000D01*
X120118000Y-177565000D02*
X118703000Y-177565000D01*
X123613000Y-177565000D02*
X122198000Y-177565000D01*
X120118000Y-177525000D02*
X118690000Y-177525000D01*
X123626000Y-177525000D02*
X122198000Y-177525000D01*
X120118000Y-177485000D02*
X118678000Y-177485000D01*
X123638000Y-177485000D02*
X122198000Y-177485000D01*
X120118000Y-177444000D02*
X118667000Y-177444000D01*
X123649000Y-177444000D02*
X122198000Y-177444000D01*
X120118000Y-177404000D02*
X118657000Y-177404000D01*
X123659000Y-177404000D02*
X122198000Y-177404000D01*
X120118000Y-177364000D02*
X118647000Y-177364000D01*
X123669000Y-177364000D02*
X122198000Y-177364000D01*
X120118000Y-177324000D02*
X118638000Y-177324000D01*
X123678000Y-177324000D02*
X122198000Y-177324000D01*
X120118000Y-177284000D02*
X118630000Y-177284000D01*
X123686000Y-177284000D02*
X122198000Y-177284000D01*
X120118000Y-177244000D02*
X118622000Y-177244000D01*
X123694000Y-177244000D02*
X122198000Y-177244000D01*
X120118000Y-177204000D02*
X118615000Y-177204000D01*
X123701000Y-177204000D02*
X122198000Y-177204000D01*
X120118000Y-177164000D02*
X118608000Y-177164000D01*
X123708000Y-177164000D02*
X122198000Y-177164000D01*
X120118000Y-177124000D02*
X118602000Y-177124000D01*
X123714000Y-177124000D02*
X122198000Y-177124000D01*
X120118000Y-177084000D02*
X118597000Y-177084000D01*
X123719000Y-177084000D02*
X122198000Y-177084000D01*
X120118000Y-177044000D02*
X118593000Y-177044000D01*
X123723000Y-177044000D02*
X122198000Y-177044000D01*
X120118000Y-177004000D02*
X118589000Y-177004000D01*
X123727000Y-177004000D02*
X122198000Y-177004000D01*
X123731000Y-176964000D02*
X118585000Y-176964000D01*
X123734000Y-176924000D02*
X118582000Y-176924000D01*
X123736000Y-176884000D02*
X118580000Y-176884000D01*
X123737000Y-176844000D02*
X118579000Y-176844000D01*
X123738000Y-176804000D02*
X118578000Y-176804000D01*
X123738000Y-176764000D02*
X118578000Y-176764000D01*
X123778000Y-176764000D02*
G75*
G03X123778000Y-176764000I-2620000J0D01*
G01*
X122181252Y-155500000D02*
X121658748Y-155500000D01*
X122181252Y-156920000D02*
X121658748Y-156920000D01*
X134310000Y-173090000D02*
X131770000Y-173090000D01*
X134310000Y-170550000D02*
X131770000Y-170550000D01*
X134310000Y-168010000D02*
X131770000Y-168010000D01*
X150200000Y-175670000D02*
X134310000Y-175670000D01*
X150200000Y-165430000D02*
X134310000Y-165430000D01*
X150200000Y-165430000D02*
X150200000Y-175670000D01*
X134310000Y-165430000D02*
X134310000Y-175670000D01*
D12*
X168819637Y-159240486D02*
X168819637Y-159597629D01*
X168795827Y-159669057D01*
X168748208Y-159716676D01*
X168676780Y-159740486D01*
X168629161Y-159740486D01*
X169272018Y-159407153D02*
X169272018Y-159740486D01*
X169152970Y-159216676D02*
X169033923Y-159573819D01*
X169343446Y-159573819D01*
X168819637Y-180058486D02*
X168819637Y-180415629D01*
X168795827Y-180487057D01*
X168748208Y-180534676D01*
X168676780Y-180558486D01*
X168629161Y-180558486D01*
X169010113Y-180058486D02*
X169319637Y-180058486D01*
X169152970Y-180248962D01*
X169224399Y-180248962D01*
X169272018Y-180272772D01*
X169295827Y-180296581D01*
X169319637Y-180344200D01*
X169319637Y-180463248D01*
X169295827Y-180510867D01*
X169272018Y-180534676D01*
X169224399Y-180558486D01*
X169081542Y-180558486D01*
X169033923Y-180534676D01*
X169010113Y-180510867D01*
D11*
X112458571Y-145265733D02*
X112458571Y-145599066D01*
X112982380Y-145599066D02*
X111982380Y-145599066D01*
X111982380Y-145122876D01*
X112982380Y-144218114D02*
X112982380Y-144789542D01*
X112982380Y-144503828D02*
X111982380Y-144503828D01*
X112125238Y-144599066D01*
X112220476Y-144694304D01*
X112268095Y-144789542D01*
X158238095Y-136252380D02*
X158238095Y-135252380D01*
X158238095Y-135728571D02*
X158809523Y-135728571D01*
X158809523Y-136252380D02*
X158809523Y-135252380D01*
X159714285Y-135585714D02*
X159714285Y-136252380D01*
X159476190Y-135204761D02*
X159238095Y-135919047D01*
X159857142Y-135919047D01*
X158238095Y-178252380D02*
X158238095Y-177252380D01*
X158238095Y-177728571D02*
X158809523Y-177728571D01*
X158809523Y-178252380D02*
X158809523Y-177252380D01*
X159190476Y-177252380D02*
X159809523Y-177252380D01*
X159476190Y-177633333D01*
X159619047Y-177633333D01*
X159714285Y-177680952D01*
X159761904Y-177728571D01*
X159809523Y-177823809D01*
X159809523Y-178061904D01*
X159761904Y-178157142D01*
X159714285Y-178204761D01*
X159619047Y-178252380D01*
X159333333Y-178252380D01*
X159238095Y-178204761D01*
X159190476Y-178157142D01*
X93238095Y-178252380D02*
X93238095Y-177252380D01*
X93238095Y-177728571D02*
X93809523Y-177728571D01*
X93809523Y-178252380D02*
X93809523Y-177252380D01*
X94238095Y-177347619D02*
X94285714Y-177300000D01*
X94380952Y-177252380D01*
X94619047Y-177252380D01*
X94714285Y-177300000D01*
X94761904Y-177347619D01*
X94809523Y-177442857D01*
X94809523Y-177538095D01*
X94761904Y-177680952D01*
X94190476Y-178252380D01*
X94809523Y-178252380D01*
X93238095Y-136252380D02*
X93238095Y-135252380D01*
X93238095Y-135728571D02*
X93809523Y-135728571D01*
X93809523Y-136252380D02*
X93809523Y-135252380D01*
X94809523Y-136252380D02*
X94238095Y-136252380D01*
X94523809Y-136252380D02*
X94523809Y-135252380D01*
X94428571Y-135395238D01*
X94333333Y-135490476D01*
X94238095Y-135538095D01*
X121158095Y-157342380D02*
X121158095Y-158151904D01*
X121205714Y-158247142D01*
X121253333Y-158294761D01*
X121348571Y-158342380D01*
X121539047Y-158342380D01*
X121634285Y-158294761D01*
X121681904Y-158247142D01*
X121729523Y-158151904D01*
X121729523Y-157342380D01*
X122729523Y-158342380D02*
X122158095Y-158342380D01*
X122443809Y-158342380D02*
X122443809Y-157342380D01*
X122348571Y-157485238D01*
X122253333Y-157580476D01*
X122158095Y-157628095D01*
X130732380Y-180136428D02*
X130256190Y-180469761D01*
X130732380Y-180707857D02*
X129732380Y-180707857D01*
X129732380Y-180326904D01*
X129780000Y-180231666D01*
X129827619Y-180184047D01*
X129922857Y-180136428D01*
X130065714Y-180136428D01*
X130160952Y-180184047D01*
X130208571Y-180231666D01*
X130256190Y-180326904D01*
X130256190Y-180707857D01*
X130684761Y-179755476D02*
X130732380Y-179660238D01*
X130732380Y-179469761D01*
X130684761Y-179374523D01*
X130589523Y-179326904D01*
X130541904Y-179326904D01*
X130446666Y-179374523D01*
X130399047Y-179469761D01*
X130399047Y-179612619D01*
X130351428Y-179707857D01*
X130256190Y-179755476D01*
X130208571Y-179755476D01*
X130113333Y-179707857D01*
X130065714Y-179612619D01*
X130065714Y-179469761D01*
X130113333Y-179374523D01*
X130732380Y-178374523D02*
X130732380Y-178945952D01*
X130732380Y-178660238D02*
X129732380Y-178660238D01*
X129875238Y-178755476D01*
X129970476Y-178850714D01*
X130018095Y-178945952D01*
X152712380Y-168662380D02*
X152236190Y-168995714D01*
X152712380Y-169233809D02*
X151712380Y-169233809D01*
X151712380Y-168852857D01*
X151760000Y-168757619D01*
X151807619Y-168710000D01*
X151902857Y-168662380D01*
X152045714Y-168662380D01*
X152140952Y-168710000D01*
X152188571Y-168757619D01*
X152236190Y-168852857D01*
X152236190Y-169233809D01*
X152712380Y-167757619D02*
X152712380Y-168233809D01*
X151712380Y-168233809D01*
X152664761Y-167043333D02*
X152712380Y-167138571D01*
X152712380Y-167329047D01*
X152664761Y-167424285D01*
X152569523Y-167471904D01*
X152188571Y-167471904D01*
X152093333Y-167424285D01*
X152045714Y-167329047D01*
X152045714Y-167138571D01*
X152093333Y-167043333D01*
X152188571Y-166995714D01*
X152283809Y-166995714D01*
X152379047Y-167471904D01*
X152712380Y-166138571D02*
X151712380Y-166138571D01*
X152664761Y-166138571D02*
X152712380Y-166233809D01*
X152712380Y-166424285D01*
X152664761Y-166519523D01*
X152617142Y-166567142D01*
X152521904Y-166614761D01*
X152236190Y-166614761D01*
X152140952Y-166567142D01*
X152093333Y-166519523D01*
X152045714Y-166424285D01*
X152045714Y-166233809D01*
X152093333Y-166138571D01*
X152712380Y-165138571D02*
X152712380Y-165710000D01*
X152712380Y-165424285D02*
X151712380Y-165424285D01*
X151855238Y-165519523D01*
X151950476Y-165614761D01*
X151998095Y-165710000D01*
X115007380Y-162091666D02*
X114531190Y-162425000D01*
X115007380Y-162663095D02*
X114007380Y-162663095D01*
X114007380Y-162282142D01*
X114055000Y-162186904D01*
X114102619Y-162139285D01*
X114197857Y-162091666D01*
X114340714Y-162091666D01*
X114435952Y-162139285D01*
X114483571Y-162186904D01*
X114531190Y-162282142D01*
X114531190Y-162663095D01*
X114007380Y-161186904D02*
X114007380Y-161663095D01*
X114483571Y-161710714D01*
X114435952Y-161663095D01*
X114388333Y-161567857D01*
X114388333Y-161329761D01*
X114435952Y-161234523D01*
X114483571Y-161186904D01*
X114578809Y-161139285D01*
X114816904Y-161139285D01*
X114912142Y-161186904D01*
X114959761Y-161234523D01*
X115007380Y-161329761D01*
X115007380Y-161567857D01*
X114959761Y-161663095D01*
X114912142Y-161710714D01*
X117037380Y-174791666D02*
X116561190Y-175125000D01*
X117037380Y-175363095D02*
X116037380Y-175363095D01*
X116037380Y-174982142D01*
X116085000Y-174886904D01*
X116132619Y-174839285D01*
X116227857Y-174791666D01*
X116370714Y-174791666D01*
X116465952Y-174839285D01*
X116513571Y-174886904D01*
X116561190Y-174982142D01*
X116561190Y-175363095D01*
X116037380Y-174458333D02*
X116037380Y-173839285D01*
X116418333Y-174172619D01*
X116418333Y-174029761D01*
X116465952Y-173934523D01*
X116513571Y-173886904D01*
X116608809Y-173839285D01*
X116846904Y-173839285D01*
X116942142Y-173886904D01*
X116989761Y-173934523D01*
X117037380Y-174029761D01*
X117037380Y-174315476D01*
X116989761Y-174410714D01*
X116942142Y-174458333D01*
X124022380Y-167806666D02*
X123546190Y-168140000D01*
X124022380Y-168378095D02*
X123022380Y-168378095D01*
X123022380Y-167997142D01*
X123070000Y-167901904D01*
X123117619Y-167854285D01*
X123212857Y-167806666D01*
X123355714Y-167806666D01*
X123450952Y-167854285D01*
X123498571Y-167901904D01*
X123546190Y-167997142D01*
X123546190Y-168378095D01*
X124022380Y-166854285D02*
X124022380Y-167425714D01*
X124022380Y-167140000D02*
X123022380Y-167140000D01*
X123165238Y-167235238D01*
X123260476Y-167330476D01*
X123308095Y-167425714D01*
X155542380Y-168377619D02*
X155542380Y-168853809D01*
X154542380Y-168853809D01*
X155494761Y-167663333D02*
X155542380Y-167758571D01*
X155542380Y-167949047D01*
X155494761Y-168044285D01*
X155399523Y-168091904D01*
X155018571Y-168091904D01*
X154923333Y-168044285D01*
X154875714Y-167949047D01*
X154875714Y-167758571D01*
X154923333Y-167663333D01*
X155018571Y-167615714D01*
X155113809Y-167615714D01*
X155209047Y-168091904D01*
X155542380Y-166758571D02*
X154542380Y-166758571D01*
X155494761Y-166758571D02*
X155542380Y-166853809D01*
X155542380Y-167044285D01*
X155494761Y-167139523D01*
X155447142Y-167187142D01*
X155351904Y-167234761D01*
X155066190Y-167234761D01*
X154970952Y-167187142D01*
X154923333Y-167139523D01*
X154875714Y-167044285D01*
X154875714Y-166853809D01*
X154923333Y-166758571D01*
X155542380Y-165758571D02*
X155542380Y-166330000D01*
X155542380Y-166044285D02*
X154542380Y-166044285D01*
X154685238Y-166139523D01*
X154780476Y-166234761D01*
X154828095Y-166330000D01*
X138923333Y-159522380D02*
X138447142Y-159522380D01*
X138447142Y-158522380D01*
X139780476Y-159522380D02*
X139209047Y-159522380D01*
X139494761Y-159522380D02*
X139494761Y-158522380D01*
X139399523Y-158665238D01*
X139304285Y-158760476D01*
X139209047Y-158808095D01*
X102052380Y-153323333D02*
X102766666Y-153323333D01*
X102909523Y-153370952D01*
X103004761Y-153466190D01*
X103052380Y-153609047D01*
X103052380Y-153704285D01*
X102147619Y-152894761D02*
X102100000Y-152847142D01*
X102052380Y-152751904D01*
X102052380Y-152513809D01*
X102100000Y-152418571D01*
X102147619Y-152370952D01*
X102242857Y-152323333D01*
X102338095Y-152323333D01*
X102480952Y-152370952D01*
X103052380Y-152942380D01*
X103052380Y-152323333D01*
X102007380Y-166228333D02*
X102721666Y-166228333D01*
X102864523Y-166275952D01*
X102959761Y-166371190D01*
X103007380Y-166514047D01*
X103007380Y-166609285D01*
X103007380Y-165228333D02*
X103007380Y-165799761D01*
X103007380Y-165514047D02*
X102007380Y-165514047D01*
X102150238Y-165609285D01*
X102245476Y-165704523D01*
X102293095Y-165799761D01*
X137112142Y-180136428D02*
X137159761Y-180184047D01*
X137207380Y-180326904D01*
X137207380Y-180422142D01*
X137159761Y-180565000D01*
X137064523Y-180660238D01*
X136969285Y-180707857D01*
X136778809Y-180755476D01*
X136635952Y-180755476D01*
X136445476Y-180707857D01*
X136350238Y-180660238D01*
X136255000Y-180565000D01*
X136207380Y-180422142D01*
X136207380Y-180326904D01*
X136255000Y-180184047D01*
X136302619Y-180136428D01*
X137159761Y-179755476D02*
X137207380Y-179660238D01*
X137207380Y-179469761D01*
X137159761Y-179374523D01*
X137064523Y-179326904D01*
X137016904Y-179326904D01*
X136921666Y-179374523D01*
X136874047Y-179469761D01*
X136874047Y-179612619D01*
X136826428Y-179707857D01*
X136731190Y-179755476D01*
X136683571Y-179755476D01*
X136588333Y-179707857D01*
X136540714Y-179612619D01*
X136540714Y-179469761D01*
X136588333Y-179374523D01*
X137207380Y-178374523D02*
X137207380Y-178945952D01*
X137207380Y-178660238D02*
X136207380Y-178660238D01*
X136350238Y-178755476D01*
X136445476Y-178850714D01*
X136493095Y-178945952D01*
X147327142Y-161939047D02*
X147374761Y-161986666D01*
X147422380Y-162129523D01*
X147422380Y-162224761D01*
X147374761Y-162367619D01*
X147279523Y-162462857D01*
X147184285Y-162510476D01*
X146993809Y-162558095D01*
X146850952Y-162558095D01*
X146660476Y-162510476D01*
X146565238Y-162462857D01*
X146470000Y-162367619D01*
X146422380Y-162224761D01*
X146422380Y-162129523D01*
X146470000Y-161986666D01*
X146517619Y-161939047D01*
X147422380Y-161367619D02*
X147374761Y-161462857D01*
X147327142Y-161510476D01*
X147231904Y-161558095D01*
X146946190Y-161558095D01*
X146850952Y-161510476D01*
X146803333Y-161462857D01*
X146755714Y-161367619D01*
X146755714Y-161224761D01*
X146803333Y-161129523D01*
X146850952Y-161081904D01*
X146946190Y-161034285D01*
X147231904Y-161034285D01*
X147327142Y-161081904D01*
X147374761Y-161129523D01*
X147422380Y-161224761D01*
X147422380Y-161367619D01*
X146517619Y-160653333D02*
X146470000Y-160605714D01*
X146422380Y-160510476D01*
X146422380Y-160272380D01*
X146470000Y-160177142D01*
X146517619Y-160129523D01*
X146612857Y-160081904D01*
X146708095Y-160081904D01*
X146850952Y-160129523D01*
X147422380Y-160700952D01*
X147422380Y-160081904D01*
X141612142Y-161939047D02*
X141659761Y-161986666D01*
X141707380Y-162129523D01*
X141707380Y-162224761D01*
X141659761Y-162367619D01*
X141564523Y-162462857D01*
X141469285Y-162510476D01*
X141278809Y-162558095D01*
X141135952Y-162558095D01*
X140945476Y-162510476D01*
X140850238Y-162462857D01*
X140755000Y-162367619D01*
X140707380Y-162224761D01*
X140707380Y-162129523D01*
X140755000Y-161986666D01*
X140802619Y-161939047D01*
X141707380Y-161367619D02*
X141659761Y-161462857D01*
X141612142Y-161510476D01*
X141516904Y-161558095D01*
X141231190Y-161558095D01*
X141135952Y-161510476D01*
X141088333Y-161462857D01*
X141040714Y-161367619D01*
X141040714Y-161224761D01*
X141088333Y-161129523D01*
X141135952Y-161081904D01*
X141231190Y-161034285D01*
X141516904Y-161034285D01*
X141612142Y-161081904D01*
X141659761Y-161129523D01*
X141707380Y-161224761D01*
X141707380Y-161367619D01*
X141707380Y-160081904D02*
X141707380Y-160653333D01*
X141707380Y-160367619D02*
X140707380Y-160367619D01*
X140850238Y-160462857D01*
X140945476Y-160558095D01*
X140993095Y-160653333D01*
X131007142Y-177168761D02*
X131054761Y-177216380D01*
X131102380Y-177359238D01*
X131102380Y-177454476D01*
X131054761Y-177597333D01*
X130959523Y-177692571D01*
X130864285Y-177740190D01*
X130673809Y-177787809D01*
X130530952Y-177787809D01*
X130340476Y-177740190D01*
X130245238Y-177692571D01*
X130150000Y-177597333D01*
X130102380Y-177454476D01*
X130102380Y-177359238D01*
X130150000Y-177216380D01*
X130197619Y-177168761D01*
X131102380Y-176740190D02*
X130435714Y-176740190D01*
X130102380Y-176740190D02*
X130150000Y-176787809D01*
X130197619Y-176740190D01*
X130150000Y-176692571D01*
X130102380Y-176740190D01*
X130197619Y-176740190D01*
X130197619Y-176311619D02*
X130150000Y-176264000D01*
X130102380Y-176168761D01*
X130102380Y-175930666D01*
X130150000Y-175835428D01*
X130197619Y-175787809D01*
X130292857Y-175740190D01*
X130388095Y-175740190D01*
X130530952Y-175787809D01*
X131102380Y-176359238D01*
X131102380Y-175740190D01*
X125265142Y-177168761D02*
X125312761Y-177216380D01*
X125360380Y-177359238D01*
X125360380Y-177454476D01*
X125312761Y-177597333D01*
X125217523Y-177692571D01*
X125122285Y-177740190D01*
X124931809Y-177787809D01*
X124788952Y-177787809D01*
X124598476Y-177740190D01*
X124503238Y-177692571D01*
X124408000Y-177597333D01*
X124360380Y-177454476D01*
X124360380Y-177359238D01*
X124408000Y-177216380D01*
X124455619Y-177168761D01*
X125360380Y-176740190D02*
X124693714Y-176740190D01*
X124360380Y-176740190D02*
X124408000Y-176787809D01*
X124455619Y-176740190D01*
X124408000Y-176692571D01*
X124360380Y-176740190D01*
X124455619Y-176740190D01*
X125360380Y-175740190D02*
X125360380Y-176311619D01*
X125360380Y-176025904D02*
X124360380Y-176025904D01*
X124503238Y-176121142D01*
X124598476Y-176216380D01*
X124646095Y-176311619D01*
X120062857Y-158217142D02*
X120015238Y-158264761D01*
X119872380Y-158312380D01*
X119777142Y-158312380D01*
X119634285Y-158264761D01*
X119539047Y-158169523D01*
X119491428Y-158074285D01*
X119443809Y-157883809D01*
X119443809Y-157740952D01*
X119491428Y-157550476D01*
X119539047Y-157455238D01*
X119634285Y-157360000D01*
X119777142Y-157312380D01*
X119872380Y-157312380D01*
X120015238Y-157360000D01*
X120062857Y-157407619D01*
X120824761Y-157788571D02*
X120967619Y-157836190D01*
X121015238Y-157883809D01*
X121062857Y-157979047D01*
X121062857Y-158121904D01*
X121015238Y-158217142D01*
X120967619Y-158264761D01*
X120872380Y-158312380D01*
X120491428Y-158312380D01*
X120491428Y-157312380D01*
X120824761Y-157312380D01*
X120920000Y-157360000D01*
X120967619Y-157407619D01*
X121015238Y-157502857D01*
X121015238Y-157598095D01*
X120967619Y-157693333D01*
X120920000Y-157740952D01*
X120824761Y-157788571D01*
X120491428Y-157788571D01*
X121634285Y-158312380D02*
X121539047Y-158264761D01*
X121491428Y-158217142D01*
X121443809Y-158121904D01*
X121443809Y-157836190D01*
X121491428Y-157740952D01*
X121539047Y-157693333D01*
X121634285Y-157645714D01*
X121777142Y-157645714D01*
X121872380Y-157693333D01*
X121920000Y-157740952D01*
X121967619Y-157836190D01*
X121967619Y-158121904D01*
X121920000Y-158217142D01*
X121872380Y-158264761D01*
X121777142Y-158312380D01*
X121634285Y-158312380D01*
X122539047Y-158312380D02*
X122443809Y-158264761D01*
X122396190Y-158217142D01*
X122348571Y-158121904D01*
X122348571Y-157836190D01*
X122396190Y-157740952D01*
X122443809Y-157693333D01*
X122539047Y-157645714D01*
X122681904Y-157645714D01*
X122777142Y-157693333D01*
X122824761Y-157740952D01*
X122872380Y-157836190D01*
X122872380Y-158121904D01*
X122824761Y-158217142D01*
X122777142Y-158264761D01*
X122681904Y-158312380D01*
X122539047Y-158312380D01*
X123158095Y-157645714D02*
X123539047Y-157645714D01*
X123300952Y-157312380D02*
X123300952Y-158169523D01*
X123348571Y-158264761D01*
X123443809Y-158312380D01*
X123539047Y-158312380D01*
X124396190Y-158312380D02*
X123824761Y-158312380D01*
X124110476Y-158312380D02*
X124110476Y-157312380D01*
X124015238Y-157455238D01*
X123920000Y-157550476D01*
X123824761Y-157598095D01*
X151652380Y-171288095D02*
X150652380Y-171288095D01*
X150652380Y-171050000D01*
X150700000Y-170907142D01*
X150795238Y-170811904D01*
X150890476Y-170764285D01*
X151080952Y-170716666D01*
X151223809Y-170716666D01*
X151414285Y-170764285D01*
X151509523Y-170811904D01*
X151604761Y-170907142D01*
X151652380Y-171050000D01*
X151652380Y-171288095D01*
X151652380Y-169764285D02*
X151652380Y-170335714D01*
X151652380Y-170050000D02*
X150652380Y-170050000D01*
X150795238Y-170145238D01*
X150890476Y-170240476D01*
X150938095Y-170335714D01*
M02*
