G04 #@! TF.GenerationSoftware,KiCad,Pcbnew,5.1.4-e60b266~84~ubuntu18.04.1*
G04 #@! TF.CreationDate,2019-10-29T18:19:43-03:00*
G04 #@! TF.ProjectId,fonte_18V,666f6e74-655f-4313-9856-2e6b69636164,rev?*
G04 #@! TF.SameCoordinates,Original*
G04 #@! TF.FileFunction,Other,Fab,Bot*
%FSLAX46Y46*%
G04 Gerber Fmt 4.6, Leading zero omitted, Abs format (unit mm)*
G04 Created by KiCad (PCBNEW 5.1.4-e60b266~84~ubuntu18.04.1) date 2019-10-29 18:19:43*
%MOMM*%
%LPD*%
G04 APERTURE LIST*
%ADD10C,0.100000*%
%ADD11C,0.150000*%
%ADD12C,0.080000*%
%ADD13C,0.075000*%
G04 APERTURE END LIST*
D10*
X111200000Y-178750000D02*
X111200000Y-180750000D01*
X112400000Y-178750000D02*
X111200000Y-178750000D01*
X112400000Y-180750000D02*
X112400000Y-178750000D01*
X111200000Y-180750000D02*
X112400000Y-180750000D01*
X128235000Y-160385000D02*
X128235000Y-158385000D01*
X127035000Y-160385000D02*
X128235000Y-160385000D01*
X127035000Y-158385000D02*
X127035000Y-160385000D01*
X128235000Y-158385000D02*
X127035000Y-158385000D01*
X128305000Y-162830000D02*
X128305000Y-164830000D01*
X129505000Y-162830000D02*
X128305000Y-162830000D01*
X129505000Y-164830000D02*
X129505000Y-162830000D01*
X128305000Y-164830000D02*
X129505000Y-164830000D01*
X115605000Y-164735000D02*
X115605000Y-166735000D01*
X116805000Y-164735000D02*
X115605000Y-164735000D01*
X116805000Y-166735000D02*
X116805000Y-164735000D01*
X115605000Y-166735000D02*
X116805000Y-166735000D01*
X112995000Y-166735000D02*
X112995000Y-164735000D01*
X111795000Y-166735000D02*
X112995000Y-166735000D01*
X111795000Y-164735000D02*
X111795000Y-166735000D01*
X112995000Y-164735000D02*
X111795000Y-164735000D01*
X114800000Y-178330000D02*
X116200000Y-178330000D01*
X116200000Y-181370000D02*
X116200000Y-178330000D01*
X114800000Y-180800000D02*
X115350000Y-181370000D01*
X115350000Y-181370000D02*
X116200000Y-181370000D01*
X114800000Y-180800000D02*
X114800000Y-178350000D01*
X147965000Y-162240000D02*
X147965000Y-160240000D01*
X146765000Y-162240000D02*
X147965000Y-162240000D01*
X146765000Y-160240000D02*
X146765000Y-162240000D01*
X147965000Y-160240000D02*
X146765000Y-160240000D01*
X151775000Y-162240000D02*
X151775000Y-160240000D01*
X150575000Y-162240000D02*
X151775000Y-162240000D01*
X150575000Y-160240000D02*
X150575000Y-162240000D01*
X151775000Y-160240000D02*
X150575000Y-160240000D01*
X111090000Y-176260000D02*
X111090000Y-174260000D01*
X109890000Y-176260000D02*
X111090000Y-176260000D01*
X109890000Y-174260000D02*
X109890000Y-176260000D01*
X111090000Y-174260000D02*
X109890000Y-174260000D01*
X113630000Y-176260000D02*
X113630000Y-174260000D01*
X112430000Y-176260000D02*
X113630000Y-176260000D01*
X112430000Y-174260000D02*
X112430000Y-176260000D01*
X113630000Y-174260000D02*
X112430000Y-174260000D01*
X130775000Y-160385000D02*
X130775000Y-158385000D01*
X129575000Y-160385000D02*
X130775000Y-160385000D01*
X129575000Y-158385000D02*
X129575000Y-160385000D01*
X130775000Y-158385000D02*
X129575000Y-158385000D01*
D11*
X110602380Y-178583333D02*
X110602380Y-178011904D01*
X110602380Y-178297619D02*
X109602380Y-178297619D01*
X109745238Y-178202380D01*
X109840476Y-178107142D01*
X109888095Y-178011904D01*
X109602380Y-179202380D02*
X109602380Y-179297619D01*
X109650000Y-179392857D01*
X109697619Y-179440476D01*
X109792857Y-179488095D01*
X109983333Y-179535714D01*
X110221428Y-179535714D01*
X110411904Y-179488095D01*
X110507142Y-179440476D01*
X110554761Y-179392857D01*
X110602380Y-179297619D01*
X110602380Y-179202380D01*
X110554761Y-179107142D01*
X110507142Y-179059523D01*
X110411904Y-179011904D01*
X110221428Y-178964285D01*
X109983333Y-178964285D01*
X109792857Y-179011904D01*
X109697619Y-179059523D01*
X109650000Y-179107142D01*
X109602380Y-179202380D01*
X109602380Y-180154761D02*
X109602380Y-180250000D01*
X109650000Y-180345238D01*
X109697619Y-180392857D01*
X109792857Y-180440476D01*
X109983333Y-180488095D01*
X110221428Y-180488095D01*
X110411904Y-180440476D01*
X110507142Y-180392857D01*
X110554761Y-180345238D01*
X110602380Y-180250000D01*
X110602380Y-180154761D01*
X110554761Y-180059523D01*
X110507142Y-180011904D01*
X110411904Y-179964285D01*
X110221428Y-179916666D01*
X109983333Y-179916666D01*
X109792857Y-179964285D01*
X109697619Y-180011904D01*
X109650000Y-180059523D01*
X109602380Y-180154761D01*
X110602380Y-180916666D02*
X109602380Y-180916666D01*
X110602380Y-181488095D02*
X110030952Y-181059523D01*
X109602380Y-181488095D02*
X110173809Y-180916666D01*
D12*
X112026190Y-179666666D02*
X111788095Y-179500000D01*
X112026190Y-179380952D02*
X111526190Y-179380952D01*
X111526190Y-179571428D01*
X111550000Y-179619047D01*
X111573809Y-179642857D01*
X111621428Y-179666666D01*
X111692857Y-179666666D01*
X111740476Y-179642857D01*
X111764285Y-179619047D01*
X111788095Y-179571428D01*
X111788095Y-179380952D01*
X111692857Y-180095238D02*
X112026190Y-180095238D01*
X111502380Y-179976190D02*
X111859523Y-179857142D01*
X111859523Y-180166666D01*
D11*
X128832619Y-157742142D02*
X128785000Y-157789761D01*
X128737380Y-157885000D01*
X128737380Y-158123095D01*
X128785000Y-158218333D01*
X128832619Y-158265952D01*
X128927857Y-158313571D01*
X129023095Y-158313571D01*
X129165952Y-158265952D01*
X129737380Y-157694523D01*
X129737380Y-158313571D01*
X128737380Y-158646904D02*
X128737380Y-159265952D01*
X129118333Y-158932619D01*
X129118333Y-159075476D01*
X129165952Y-159170714D01*
X129213571Y-159218333D01*
X129308809Y-159265952D01*
X129546904Y-159265952D01*
X129642142Y-159218333D01*
X129689761Y-159170714D01*
X129737380Y-159075476D01*
X129737380Y-158789761D01*
X129689761Y-158694523D01*
X129642142Y-158646904D01*
X128737380Y-159885000D02*
X128737380Y-159980238D01*
X128785000Y-160075476D01*
X128832619Y-160123095D01*
X128927857Y-160170714D01*
X129118333Y-160218333D01*
X129356428Y-160218333D01*
X129546904Y-160170714D01*
X129642142Y-160123095D01*
X129689761Y-160075476D01*
X129737380Y-159980238D01*
X129737380Y-159885000D01*
X129689761Y-159789761D01*
X129642142Y-159742142D01*
X129546904Y-159694523D01*
X129356428Y-159646904D01*
X129118333Y-159646904D01*
X128927857Y-159694523D01*
X128832619Y-159742142D01*
X128785000Y-159789761D01*
X128737380Y-159885000D01*
X129737380Y-160646904D02*
X128737380Y-160646904D01*
X129356428Y-160742142D02*
X129737380Y-161027857D01*
X129070714Y-161027857D02*
X129451666Y-160646904D01*
D12*
X127861190Y-158789761D02*
X127623095Y-158623095D01*
X127861190Y-158504047D02*
X127361190Y-158504047D01*
X127361190Y-158694523D01*
X127385000Y-158742142D01*
X127408809Y-158765952D01*
X127456428Y-158789761D01*
X127527857Y-158789761D01*
X127575476Y-158765952D01*
X127599285Y-158742142D01*
X127623095Y-158694523D01*
X127623095Y-158504047D01*
X127527857Y-158932619D02*
X127527857Y-159123095D01*
X127861190Y-159004047D02*
X127432619Y-159004047D01*
X127385000Y-159027857D01*
X127361190Y-159075476D01*
X127361190Y-159123095D01*
X127861190Y-159289761D02*
X127361190Y-159289761D01*
X127551666Y-159289761D02*
X127527857Y-159337380D01*
X127527857Y-159432619D01*
X127551666Y-159480238D01*
X127575476Y-159504047D01*
X127623095Y-159527857D01*
X127765952Y-159527857D01*
X127813571Y-159504047D01*
X127837380Y-159480238D01*
X127861190Y-159432619D01*
X127861190Y-159337380D01*
X127837380Y-159289761D01*
X127527857Y-159670714D02*
X127527857Y-159861190D01*
X127361190Y-159742142D02*
X127789761Y-159742142D01*
X127837380Y-159765952D01*
X127861190Y-159813571D01*
X127861190Y-159861190D01*
X127408809Y-160004047D02*
X127385000Y-160027857D01*
X127361190Y-160075476D01*
X127361190Y-160194523D01*
X127385000Y-160242142D01*
X127408809Y-160265952D01*
X127456428Y-160289761D01*
X127504047Y-160289761D01*
X127575476Y-160265952D01*
X127861190Y-159980238D01*
X127861190Y-160289761D01*
D11*
X127135952Y-162853809D02*
X127088333Y-162758571D01*
X127040714Y-162710952D01*
X126945476Y-162663333D01*
X126897857Y-162663333D01*
X126802619Y-162710952D01*
X126755000Y-162758571D01*
X126707380Y-162853809D01*
X126707380Y-163044285D01*
X126755000Y-163139523D01*
X126802619Y-163187142D01*
X126897857Y-163234761D01*
X126945476Y-163234761D01*
X127040714Y-163187142D01*
X127088333Y-163139523D01*
X127135952Y-163044285D01*
X127135952Y-162853809D01*
X127183571Y-162758571D01*
X127231190Y-162710952D01*
X127326428Y-162663333D01*
X127516904Y-162663333D01*
X127612142Y-162710952D01*
X127659761Y-162758571D01*
X127707380Y-162853809D01*
X127707380Y-163044285D01*
X127659761Y-163139523D01*
X127612142Y-163187142D01*
X127516904Y-163234761D01*
X127326428Y-163234761D01*
X127231190Y-163187142D01*
X127183571Y-163139523D01*
X127135952Y-163044285D01*
X127707380Y-163663333D02*
X126707380Y-163663333D01*
X127326428Y-163758571D02*
X127707380Y-164044285D01*
X127040714Y-164044285D02*
X127421666Y-163663333D01*
X126802619Y-164425238D02*
X126755000Y-164472857D01*
X126707380Y-164568095D01*
X126707380Y-164806190D01*
X126755000Y-164901428D01*
X126802619Y-164949047D01*
X126897857Y-164996666D01*
X126993095Y-164996666D01*
X127135952Y-164949047D01*
X127707380Y-164377619D01*
X127707380Y-164996666D01*
D12*
X129131190Y-163151428D02*
X128893095Y-162984761D01*
X129131190Y-162865714D02*
X128631190Y-162865714D01*
X128631190Y-163056190D01*
X128655000Y-163103809D01*
X128678809Y-163127619D01*
X128726428Y-163151428D01*
X128797857Y-163151428D01*
X128845476Y-163127619D01*
X128869285Y-163103809D01*
X128893095Y-163056190D01*
X128893095Y-162865714D01*
X128797857Y-163294285D02*
X128797857Y-163484761D01*
X129131190Y-163365714D02*
X128702619Y-163365714D01*
X128655000Y-163389523D01*
X128631190Y-163437142D01*
X128631190Y-163484761D01*
X129131190Y-163651428D02*
X128631190Y-163651428D01*
X128821666Y-163651428D02*
X128797857Y-163699047D01*
X128797857Y-163794285D01*
X128821666Y-163841904D01*
X128845476Y-163865714D01*
X128893095Y-163889523D01*
X129035952Y-163889523D01*
X129083571Y-163865714D01*
X129107380Y-163841904D01*
X129131190Y-163794285D01*
X129131190Y-163699047D01*
X129107380Y-163651428D01*
X129131190Y-164103809D02*
X128631190Y-164103809D01*
X128821666Y-164103809D02*
X128797857Y-164151428D01*
X128797857Y-164246666D01*
X128821666Y-164294285D01*
X128845476Y-164318095D01*
X128893095Y-164341904D01*
X129035952Y-164341904D01*
X129083571Y-164318095D01*
X129107380Y-164294285D01*
X129131190Y-164246666D01*
X129131190Y-164151428D01*
X129107380Y-164103809D01*
X129131190Y-164818095D02*
X129131190Y-164532380D01*
X129131190Y-164675238D02*
X128631190Y-164675238D01*
X128702619Y-164627619D01*
X128750238Y-164580000D01*
X128774047Y-164532380D01*
D11*
X115007380Y-165020714D02*
X114007380Y-165020714D01*
X115007380Y-165592142D01*
X114007380Y-165592142D01*
X114721666Y-166020714D02*
X114721666Y-166496904D01*
X115007380Y-165925476D02*
X114007380Y-166258809D01*
X115007380Y-166592142D01*
D12*
X117181190Y-165651666D02*
X116943095Y-165485000D01*
X117181190Y-165365952D02*
X116681190Y-165365952D01*
X116681190Y-165556428D01*
X116705000Y-165604047D01*
X116728809Y-165627857D01*
X116776428Y-165651666D01*
X116847857Y-165651666D01*
X116895476Y-165627857D01*
X116919285Y-165604047D01*
X116943095Y-165556428D01*
X116943095Y-165365952D01*
X116681190Y-166080238D02*
X116681190Y-165985000D01*
X116705000Y-165937380D01*
X116728809Y-165913571D01*
X116800238Y-165865952D01*
X116895476Y-165842142D01*
X117085952Y-165842142D01*
X117133571Y-165865952D01*
X117157380Y-165889761D01*
X117181190Y-165937380D01*
X117181190Y-166032619D01*
X117157380Y-166080238D01*
X117133571Y-166104047D01*
X117085952Y-166127857D01*
X116966904Y-166127857D01*
X116919285Y-166104047D01*
X116895476Y-166080238D01*
X116871666Y-166032619D01*
X116871666Y-165937380D01*
X116895476Y-165889761D01*
X116919285Y-165865952D01*
X116966904Y-165842142D01*
D11*
X114497380Y-165068333D02*
X114497380Y-164496904D01*
X114497380Y-164782619D02*
X113497380Y-164782619D01*
X113640238Y-164687380D01*
X113735476Y-164592142D01*
X113783095Y-164496904D01*
X113497380Y-165687380D02*
X113497380Y-165782619D01*
X113545000Y-165877857D01*
X113592619Y-165925476D01*
X113687857Y-165973095D01*
X113878333Y-166020714D01*
X114116428Y-166020714D01*
X114306904Y-165973095D01*
X114402142Y-165925476D01*
X114449761Y-165877857D01*
X114497380Y-165782619D01*
X114497380Y-165687380D01*
X114449761Y-165592142D01*
X114402142Y-165544523D01*
X114306904Y-165496904D01*
X114116428Y-165449285D01*
X113878333Y-165449285D01*
X113687857Y-165496904D01*
X113592619Y-165544523D01*
X113545000Y-165592142D01*
X113497380Y-165687380D01*
X113497380Y-166639761D02*
X113497380Y-166735000D01*
X113545000Y-166830238D01*
X113592619Y-166877857D01*
X113687857Y-166925476D01*
X113878333Y-166973095D01*
X114116428Y-166973095D01*
X114306904Y-166925476D01*
X114402142Y-166877857D01*
X114449761Y-166830238D01*
X114497380Y-166735000D01*
X114497380Y-166639761D01*
X114449761Y-166544523D01*
X114402142Y-166496904D01*
X114306904Y-166449285D01*
X114116428Y-166401666D01*
X113878333Y-166401666D01*
X113687857Y-166449285D01*
X113592619Y-166496904D01*
X113545000Y-166544523D01*
X113497380Y-166639761D01*
D12*
X112621190Y-165651666D02*
X112383095Y-165485000D01*
X112621190Y-165365952D02*
X112121190Y-165365952D01*
X112121190Y-165556428D01*
X112145000Y-165604047D01*
X112168809Y-165627857D01*
X112216428Y-165651666D01*
X112287857Y-165651666D01*
X112335476Y-165627857D01*
X112359285Y-165604047D01*
X112383095Y-165556428D01*
X112383095Y-165365952D01*
X112168809Y-165842142D02*
X112145000Y-165865952D01*
X112121190Y-165913571D01*
X112121190Y-166032619D01*
X112145000Y-166080238D01*
X112168809Y-166104047D01*
X112216428Y-166127857D01*
X112264047Y-166127857D01*
X112335476Y-166104047D01*
X112621190Y-165818333D01*
X112621190Y-166127857D01*
D11*
X119404761Y-177754761D02*
X119261904Y-177802380D01*
X119023809Y-177802380D01*
X118928571Y-177754761D01*
X118880952Y-177707142D01*
X118833333Y-177611904D01*
X118833333Y-177516666D01*
X118880952Y-177421428D01*
X118928571Y-177373809D01*
X119023809Y-177326190D01*
X119214285Y-177278571D01*
X119309523Y-177230952D01*
X119357142Y-177183333D01*
X119404761Y-177088095D01*
X119404761Y-176992857D01*
X119357142Y-176897619D01*
X119309523Y-176850000D01*
X119214285Y-176802380D01*
X118976190Y-176802380D01*
X118833333Y-176850000D01*
X118404761Y-177802380D02*
X118404761Y-177135714D01*
X118404761Y-176802380D02*
X118452380Y-176850000D01*
X118404761Y-176897619D01*
X118357142Y-176850000D01*
X118404761Y-176802380D01*
X118404761Y-176897619D01*
X117976190Y-176897619D02*
X117928571Y-176850000D01*
X117833333Y-176802380D01*
X117595238Y-176802380D01*
X117500000Y-176850000D01*
X117452380Y-176897619D01*
X117404761Y-176992857D01*
X117404761Y-177088095D01*
X117452380Y-177230952D01*
X118023809Y-177802380D01*
X117404761Y-177802380D01*
X117071428Y-176802380D02*
X116452380Y-176802380D01*
X116785714Y-177183333D01*
X116642857Y-177183333D01*
X116547619Y-177230952D01*
X116500000Y-177278571D01*
X116452380Y-177373809D01*
X116452380Y-177611904D01*
X116500000Y-177707142D01*
X116547619Y-177754761D01*
X116642857Y-177802380D01*
X116928571Y-177802380D01*
X117023809Y-177754761D01*
X117071428Y-177707142D01*
X115833333Y-176802380D02*
X115738095Y-176802380D01*
X115642857Y-176850000D01*
X115595238Y-176897619D01*
X115547619Y-176992857D01*
X115500000Y-177183333D01*
X115500000Y-177421428D01*
X115547619Y-177611904D01*
X115595238Y-177707142D01*
X115642857Y-177754761D01*
X115738095Y-177802380D01*
X115833333Y-177802380D01*
X115928571Y-177754761D01*
X115976190Y-177707142D01*
X116023809Y-177611904D01*
X116071428Y-177421428D01*
X116071428Y-177183333D01*
X116023809Y-176992857D01*
X115976190Y-176897619D01*
X115928571Y-176850000D01*
X115833333Y-176802380D01*
X114928571Y-177230952D02*
X115023809Y-177183333D01*
X115071428Y-177135714D01*
X115119047Y-177040476D01*
X115119047Y-176992857D01*
X115071428Y-176897619D01*
X115023809Y-176850000D01*
X114928571Y-176802380D01*
X114738095Y-176802380D01*
X114642857Y-176850000D01*
X114595238Y-176897619D01*
X114547619Y-176992857D01*
X114547619Y-177040476D01*
X114595238Y-177135714D01*
X114642857Y-177183333D01*
X114738095Y-177230952D01*
X114928571Y-177230952D01*
X115023809Y-177278571D01*
X115071428Y-177326190D01*
X115119047Y-177421428D01*
X115119047Y-177611904D01*
X115071428Y-177707142D01*
X115023809Y-177754761D01*
X114928571Y-177802380D01*
X114738095Y-177802380D01*
X114642857Y-177754761D01*
X114595238Y-177707142D01*
X114547619Y-177611904D01*
X114547619Y-177421428D01*
X114595238Y-177326190D01*
X114642857Y-177278571D01*
X114738095Y-177230952D01*
X113547619Y-177707142D02*
X113595238Y-177754761D01*
X113738095Y-177802380D01*
X113833333Y-177802380D01*
X113976190Y-177754761D01*
X114071428Y-177659523D01*
X114119047Y-177564285D01*
X114166666Y-177373809D01*
X114166666Y-177230952D01*
X114119047Y-177040476D01*
X114071428Y-176945238D01*
X113976190Y-176850000D01*
X113833333Y-176802380D01*
X113738095Y-176802380D01*
X113595238Y-176850000D01*
X113547619Y-176897619D01*
X113119047Y-177802380D02*
X113119047Y-176802380D01*
X112880952Y-176802380D01*
X112738095Y-176850000D01*
X112642857Y-176945238D01*
X112595238Y-177040476D01*
X112547619Y-177230952D01*
X112547619Y-177373809D01*
X112595238Y-177564285D01*
X112642857Y-177659523D01*
X112738095Y-177754761D01*
X112880952Y-177802380D01*
X113119047Y-177802380D01*
X112166666Y-177754761D02*
X112023809Y-177802380D01*
X111785714Y-177802380D01*
X111690476Y-177754761D01*
X111642857Y-177707142D01*
X111595238Y-177611904D01*
X111595238Y-177516666D01*
X111642857Y-177421428D01*
X111690476Y-177373809D01*
X111785714Y-177326190D01*
X111976190Y-177278571D01*
X112071428Y-177230952D01*
X112119047Y-177183333D01*
X112166666Y-177088095D01*
X112166666Y-176992857D01*
X112119047Y-176897619D01*
X112071428Y-176850000D01*
X111976190Y-176802380D01*
X111738095Y-176802380D01*
X111595238Y-176850000D01*
D13*
X115773809Y-179802380D02*
X115750000Y-179754761D01*
X115702380Y-179707142D01*
X115630952Y-179635714D01*
X115607142Y-179588095D01*
X115607142Y-179540476D01*
X115726190Y-179564285D02*
X115702380Y-179516666D01*
X115654761Y-179469047D01*
X115559523Y-179445238D01*
X115392857Y-179445238D01*
X115297619Y-179469047D01*
X115250000Y-179516666D01*
X115226190Y-179564285D01*
X115226190Y-179659523D01*
X115250000Y-179707142D01*
X115297619Y-179754761D01*
X115392857Y-179778571D01*
X115559523Y-179778571D01*
X115654761Y-179754761D01*
X115702380Y-179707142D01*
X115726190Y-179659523D01*
X115726190Y-179564285D01*
X115726190Y-180254761D02*
X115726190Y-179969047D01*
X115726190Y-180111904D02*
X115226190Y-180111904D01*
X115297619Y-180064285D01*
X115345238Y-180016666D01*
X115369047Y-179969047D01*
D11*
X148467380Y-160025714D02*
X148467380Y-160120952D01*
X148515000Y-160216190D01*
X148562619Y-160263809D01*
X148657857Y-160311428D01*
X148848333Y-160359047D01*
X149086428Y-160359047D01*
X149276904Y-160311428D01*
X149372142Y-160263809D01*
X149419761Y-160216190D01*
X149467380Y-160120952D01*
X149467380Y-160025714D01*
X149419761Y-159930476D01*
X149372142Y-159882857D01*
X149276904Y-159835238D01*
X149086428Y-159787619D01*
X148848333Y-159787619D01*
X148657857Y-159835238D01*
X148562619Y-159882857D01*
X148515000Y-159930476D01*
X148467380Y-160025714D01*
X149372142Y-160787619D02*
X149419761Y-160835238D01*
X149467380Y-160787619D01*
X149419761Y-160740000D01*
X149372142Y-160787619D01*
X149467380Y-160787619D01*
X149467380Y-161787619D02*
X149467380Y-161216190D01*
X149467380Y-161501904D02*
X148467380Y-161501904D01*
X148610238Y-161406666D01*
X148705476Y-161311428D01*
X148753095Y-161216190D01*
X148800714Y-162644761D02*
X149467380Y-162644761D01*
X148800714Y-162216190D02*
X149324523Y-162216190D01*
X149419761Y-162263809D01*
X149467380Y-162359047D01*
X149467380Y-162501904D01*
X149419761Y-162597142D01*
X149372142Y-162644761D01*
D12*
X148153571Y-160930476D02*
X148177380Y-160906666D01*
X148201190Y-160835238D01*
X148201190Y-160787619D01*
X148177380Y-160716190D01*
X148129761Y-160668571D01*
X148082142Y-160644761D01*
X147986904Y-160620952D01*
X147915476Y-160620952D01*
X147820238Y-160644761D01*
X147772619Y-160668571D01*
X147725000Y-160716190D01*
X147701190Y-160787619D01*
X147701190Y-160835238D01*
X147725000Y-160906666D01*
X147748809Y-160930476D01*
X148201190Y-161216190D02*
X148177380Y-161168571D01*
X148153571Y-161144761D01*
X148105952Y-161120952D01*
X147963095Y-161120952D01*
X147915476Y-161144761D01*
X147891666Y-161168571D01*
X147867857Y-161216190D01*
X147867857Y-161287619D01*
X147891666Y-161335238D01*
X147915476Y-161359047D01*
X147963095Y-161382857D01*
X148105952Y-161382857D01*
X148153571Y-161359047D01*
X148177380Y-161335238D01*
X148201190Y-161287619D01*
X148201190Y-161216190D01*
X147867857Y-161811428D02*
X148201190Y-161811428D01*
X147677380Y-161692380D02*
X148034523Y-161573333D01*
X148034523Y-161882857D01*
D11*
X153277380Y-160001904D02*
X153229761Y-159906666D01*
X153182142Y-159859047D01*
X153086904Y-159811428D01*
X152801190Y-159811428D01*
X152705952Y-159859047D01*
X152658333Y-159906666D01*
X152610714Y-160001904D01*
X152610714Y-160144761D01*
X152658333Y-160240000D01*
X152705952Y-160287619D01*
X152801190Y-160335238D01*
X153086904Y-160335238D01*
X153182142Y-160287619D01*
X153229761Y-160240000D01*
X153277380Y-160144761D01*
X153277380Y-160001904D01*
X153182142Y-160763809D02*
X153229761Y-160811428D01*
X153277380Y-160763809D01*
X153229761Y-160716190D01*
X153182142Y-160763809D01*
X153277380Y-160763809D01*
X153277380Y-161763809D02*
X153277380Y-161192380D01*
X153277380Y-161478095D02*
X152277380Y-161478095D01*
X152420238Y-161382857D01*
X152515476Y-161287619D01*
X152563095Y-161192380D01*
X152610714Y-162620952D02*
X153277380Y-162620952D01*
X152610714Y-162192380D02*
X153134523Y-162192380D01*
X153229761Y-162240000D01*
X153277380Y-162335238D01*
X153277380Y-162478095D01*
X153229761Y-162573333D01*
X153182142Y-162620952D01*
D12*
X151353571Y-160930476D02*
X151377380Y-160906666D01*
X151401190Y-160835238D01*
X151401190Y-160787619D01*
X151377380Y-160716190D01*
X151329761Y-160668571D01*
X151282142Y-160644761D01*
X151186904Y-160620952D01*
X151115476Y-160620952D01*
X151020238Y-160644761D01*
X150972619Y-160668571D01*
X150925000Y-160716190D01*
X150901190Y-160787619D01*
X150901190Y-160835238D01*
X150925000Y-160906666D01*
X150948809Y-160930476D01*
X151401190Y-161216190D02*
X151377380Y-161168571D01*
X151353571Y-161144761D01*
X151305952Y-161120952D01*
X151163095Y-161120952D01*
X151115476Y-161144761D01*
X151091666Y-161168571D01*
X151067857Y-161216190D01*
X151067857Y-161287619D01*
X151091666Y-161335238D01*
X151115476Y-161359047D01*
X151163095Y-161382857D01*
X151305952Y-161382857D01*
X151353571Y-161359047D01*
X151377380Y-161335238D01*
X151401190Y-161287619D01*
X151401190Y-161216190D01*
X150901190Y-161549523D02*
X150901190Y-161859047D01*
X151091666Y-161692380D01*
X151091666Y-161763809D01*
X151115476Y-161811428D01*
X151139285Y-161835238D01*
X151186904Y-161859047D01*
X151305952Y-161859047D01*
X151353571Y-161835238D01*
X151377380Y-161811428D01*
X151401190Y-161763809D01*
X151401190Y-161620952D01*
X151377380Y-161573333D01*
X151353571Y-161549523D01*
D11*
X112592380Y-173712380D02*
X112592380Y-173140952D01*
X112592380Y-173426666D02*
X111592380Y-173426666D01*
X111735238Y-173331428D01*
X111830476Y-173236190D01*
X111878095Y-173140952D01*
X111592380Y-174331428D02*
X111592380Y-174426666D01*
X111640000Y-174521904D01*
X111687619Y-174569523D01*
X111782857Y-174617142D01*
X111973333Y-174664761D01*
X112211428Y-174664761D01*
X112401904Y-174617142D01*
X112497142Y-174569523D01*
X112544761Y-174521904D01*
X112592380Y-174426666D01*
X112592380Y-174331428D01*
X112544761Y-174236190D01*
X112497142Y-174188571D01*
X112401904Y-174140952D01*
X112211428Y-174093333D01*
X111973333Y-174093333D01*
X111782857Y-174140952D01*
X111687619Y-174188571D01*
X111640000Y-174236190D01*
X111592380Y-174331428D01*
X111592380Y-175283809D02*
X111592380Y-175379047D01*
X111640000Y-175474285D01*
X111687619Y-175521904D01*
X111782857Y-175569523D01*
X111973333Y-175617142D01*
X112211428Y-175617142D01*
X112401904Y-175569523D01*
X112497142Y-175521904D01*
X112544761Y-175474285D01*
X112592380Y-175379047D01*
X112592380Y-175283809D01*
X112544761Y-175188571D01*
X112497142Y-175140952D01*
X112401904Y-175093333D01*
X112211428Y-175045714D01*
X111973333Y-175045714D01*
X111782857Y-175093333D01*
X111687619Y-175140952D01*
X111640000Y-175188571D01*
X111592380Y-175283809D01*
X111925714Y-176045714D02*
X112592380Y-176045714D01*
X112020952Y-176045714D02*
X111973333Y-176093333D01*
X111925714Y-176188571D01*
X111925714Y-176331428D01*
X111973333Y-176426666D01*
X112068571Y-176474285D01*
X112592380Y-176474285D01*
X112068571Y-177283809D02*
X112068571Y-176950476D01*
X112592380Y-176950476D02*
X111592380Y-176950476D01*
X111592380Y-177426666D01*
D12*
X110668571Y-174831428D02*
X110692380Y-174807619D01*
X110716190Y-174736190D01*
X110716190Y-174688571D01*
X110692380Y-174617142D01*
X110644761Y-174569523D01*
X110597142Y-174545714D01*
X110501904Y-174521904D01*
X110430476Y-174521904D01*
X110335238Y-174545714D01*
X110287619Y-174569523D01*
X110240000Y-174617142D01*
X110216190Y-174688571D01*
X110216190Y-174736190D01*
X110240000Y-174807619D01*
X110263809Y-174831428D01*
X110716190Y-175045714D02*
X110382857Y-175045714D01*
X110216190Y-175045714D02*
X110240000Y-175021904D01*
X110263809Y-175045714D01*
X110240000Y-175069523D01*
X110216190Y-175045714D01*
X110263809Y-175045714D01*
X110382857Y-175283809D02*
X110716190Y-175283809D01*
X110430476Y-175283809D02*
X110406666Y-175307619D01*
X110382857Y-175355238D01*
X110382857Y-175426666D01*
X110406666Y-175474285D01*
X110454285Y-175498095D01*
X110716190Y-175498095D01*
X110216190Y-175688571D02*
X110216190Y-175998095D01*
X110406666Y-175831428D01*
X110406666Y-175902857D01*
X110430476Y-175950476D01*
X110454285Y-175974285D01*
X110501904Y-175998095D01*
X110620952Y-175998095D01*
X110668571Y-175974285D01*
X110692380Y-175950476D01*
X110716190Y-175902857D01*
X110716190Y-175760000D01*
X110692380Y-175712380D01*
X110668571Y-175688571D01*
D11*
X113482380Y-173712380D02*
X113482380Y-173140952D01*
X113482380Y-173426666D02*
X112482380Y-173426666D01*
X112625238Y-173331428D01*
X112720476Y-173236190D01*
X112768095Y-173140952D01*
X112482380Y-174331428D02*
X112482380Y-174426666D01*
X112530000Y-174521904D01*
X112577619Y-174569523D01*
X112672857Y-174617142D01*
X112863333Y-174664761D01*
X113101428Y-174664761D01*
X113291904Y-174617142D01*
X113387142Y-174569523D01*
X113434761Y-174521904D01*
X113482380Y-174426666D01*
X113482380Y-174331428D01*
X113434761Y-174236190D01*
X113387142Y-174188571D01*
X113291904Y-174140952D01*
X113101428Y-174093333D01*
X112863333Y-174093333D01*
X112672857Y-174140952D01*
X112577619Y-174188571D01*
X112530000Y-174236190D01*
X112482380Y-174331428D01*
X112482380Y-175283809D02*
X112482380Y-175379047D01*
X112530000Y-175474285D01*
X112577619Y-175521904D01*
X112672857Y-175569523D01*
X112863333Y-175617142D01*
X113101428Y-175617142D01*
X113291904Y-175569523D01*
X113387142Y-175521904D01*
X113434761Y-175474285D01*
X113482380Y-175379047D01*
X113482380Y-175283809D01*
X113434761Y-175188571D01*
X113387142Y-175140952D01*
X113291904Y-175093333D01*
X113101428Y-175045714D01*
X112863333Y-175045714D01*
X112672857Y-175093333D01*
X112577619Y-175140952D01*
X112530000Y-175188571D01*
X112482380Y-175283809D01*
X112815714Y-176045714D02*
X113482380Y-176045714D01*
X112910952Y-176045714D02*
X112863333Y-176093333D01*
X112815714Y-176188571D01*
X112815714Y-176331428D01*
X112863333Y-176426666D01*
X112958571Y-176474285D01*
X113482380Y-176474285D01*
X112958571Y-177283809D02*
X112958571Y-176950476D01*
X113482380Y-176950476D02*
X112482380Y-176950476D01*
X112482380Y-177426666D01*
D12*
X113208571Y-174831428D02*
X113232380Y-174807619D01*
X113256190Y-174736190D01*
X113256190Y-174688571D01*
X113232380Y-174617142D01*
X113184761Y-174569523D01*
X113137142Y-174545714D01*
X113041904Y-174521904D01*
X112970476Y-174521904D01*
X112875238Y-174545714D01*
X112827619Y-174569523D01*
X112780000Y-174617142D01*
X112756190Y-174688571D01*
X112756190Y-174736190D01*
X112780000Y-174807619D01*
X112803809Y-174831428D01*
X113256190Y-175045714D02*
X112922857Y-175045714D01*
X112756190Y-175045714D02*
X112780000Y-175021904D01*
X112803809Y-175045714D01*
X112780000Y-175069523D01*
X112756190Y-175045714D01*
X112803809Y-175045714D01*
X112922857Y-175283809D02*
X113256190Y-175283809D01*
X112970476Y-175283809D02*
X112946666Y-175307619D01*
X112922857Y-175355238D01*
X112922857Y-175426666D01*
X112946666Y-175474285D01*
X112994285Y-175498095D01*
X113256190Y-175498095D01*
X112803809Y-175712380D02*
X112780000Y-175736190D01*
X112756190Y-175783809D01*
X112756190Y-175902857D01*
X112780000Y-175950476D01*
X112803809Y-175974285D01*
X112851428Y-175998095D01*
X112899047Y-175998095D01*
X112970476Y-175974285D01*
X113256190Y-175688571D01*
X113256190Y-175998095D01*
D11*
X131610714Y-158718333D02*
X132277380Y-158718333D01*
X131705952Y-158718333D02*
X131658333Y-158765952D01*
X131610714Y-158861190D01*
X131610714Y-159004047D01*
X131658333Y-159099285D01*
X131753571Y-159146904D01*
X132277380Y-159146904D01*
X132277380Y-160051666D02*
X131753571Y-160051666D01*
X131658333Y-160004047D01*
X131610714Y-159908809D01*
X131610714Y-159718333D01*
X131658333Y-159623095D01*
X132229761Y-160051666D02*
X132277380Y-159956428D01*
X132277380Y-159718333D01*
X132229761Y-159623095D01*
X132134523Y-159575476D01*
X132039285Y-159575476D01*
X131944047Y-159623095D01*
X131896428Y-159718333D01*
X131896428Y-159956428D01*
X131848809Y-160051666D01*
D12*
X130353571Y-159015952D02*
X130377380Y-158992142D01*
X130401190Y-158920714D01*
X130401190Y-158873095D01*
X130377380Y-158801666D01*
X130329761Y-158754047D01*
X130282142Y-158730238D01*
X130186904Y-158706428D01*
X130115476Y-158706428D01*
X130020238Y-158730238D01*
X129972619Y-158754047D01*
X129925000Y-158801666D01*
X129901190Y-158873095D01*
X129901190Y-158920714D01*
X129925000Y-158992142D01*
X129948809Y-159015952D01*
X130067857Y-159158809D02*
X130067857Y-159349285D01*
X130401190Y-159230238D02*
X129972619Y-159230238D01*
X129925000Y-159254047D01*
X129901190Y-159301666D01*
X129901190Y-159349285D01*
X130067857Y-159444523D02*
X130067857Y-159635000D01*
X130401190Y-159515952D02*
X129972619Y-159515952D01*
X129925000Y-159539761D01*
X129901190Y-159587380D01*
X129901190Y-159635000D01*
X130401190Y-160063571D02*
X130401190Y-159777857D01*
X130401190Y-159920714D02*
X129901190Y-159920714D01*
X129972619Y-159873095D01*
X130020238Y-159825476D01*
X130044047Y-159777857D01*
M02*
