M48
; DRILL file {KiCad 5.1.4-e60b266~84~ubuntu18.04.1} date ter 29 out 2019 18:36:47 -03
; FORMAT={-:-/ absolute / inch / decimal}
; #@! TF.CreationDate,2019-10-29T18:36:47-03:00
; #@! TF.GenerationSoftware,Kicad,Pcbnew,5.1.4-e60b266~84~ubuntu18.04.1
; #@! TF.FileFunction,Plated,1,2,PTH
FMAT,2
INCH
T1C0.0079
T2C0.0276
T3C0.0315
T4C0.0354
T5C0.0394
T6C0.0551
T7C0.0591
T8C0.0630
%
G90
G05
T1
X8.7072Y-6.4716
X8.7072Y-6.5228
X8.7072Y-6.5739
X8.7583Y-6.4716
X8.7583Y-6.5228
X8.7583Y-6.5739
X4.3765Y-4.0306
X4.3765Y-4.0818
X4.3765Y-4.133
X4.4276Y-4.0306
X4.4276Y-4.0818
X4.4276Y-4.133
X8.7072Y-1.5897
X8.7072Y-1.6409
X8.7072Y-1.692
X8.7583Y-1.5897
X8.7583Y-1.6409
X8.7583Y-1.692
X4.3765Y-6.4716
X4.3765Y-6.5228
X4.3765Y-6.5739
X4.4276Y-6.4716
X4.4276Y-6.5228
X4.4276Y-6.5739
X8.7072Y-4.0306
X8.7072Y-4.0818
X8.7072Y-4.133
X8.7583Y-4.0306
X8.7583Y-4.0818
X8.7583Y-4.133
X4.3765Y-1.5897
X4.3765Y-1.6409
X4.3765Y-1.692
X4.4276Y-1.5897
X4.4276Y-1.6409
X4.4276Y-1.692
T2
X3.1426Y-1.6834
X3.1426Y-4.1243
X3.1426Y-6.5653
X3.1469Y-1.5972
X3.1469Y-4.0381
X3.1469Y-6.4791
X7.4733Y-1.6834
X7.4733Y-4.1243
X7.4733Y-6.5653
X7.4776Y-1.5972
X7.4776Y-4.0381
X7.4776Y-6.4791
T3
X3.227Y-2.1909
X3.227Y-4.6318
X3.227Y-7.0728
X4.2107Y-1.5159
X4.2107Y-3.9568
X4.2107Y-6.3978
X4.2176Y-1.5901
X4.2176Y-4.031
X4.2176Y-6.4719
X4.342Y-1.1709
X4.342Y-3.6118
X4.342Y-6.0528
X4.501Y-1.4173
X4.501Y-3.8582
X4.501Y-6.2992
X4.552Y-1.3505
X4.552Y-3.7915
X4.552Y-6.2324
X4.6004Y-1.1493
X4.6004Y-3.5902
X4.6004Y-6.0312
X4.6745Y-2.2231
X4.6745Y-4.6641
X4.6745Y-7.105
X4.891Y-0.8728
X4.891Y-3.3137
X4.891Y-5.7546
X7.5578Y-2.1909
X7.5578Y-4.6318
X7.5578Y-7.0728
X8.5414Y-1.5159
X8.5414Y-3.9568
X8.5414Y-6.3978
X8.5483Y-1.5901
X8.5483Y-4.031
X8.5483Y-6.4719
X8.6728Y-1.1709
X8.6728Y-3.6118
X8.6728Y-6.0528
X8.8317Y-1.4173
X8.8317Y-3.8582
X8.8317Y-6.2992
X8.8828Y-1.3505
X8.8828Y-3.7915
X8.8828Y-6.2324
X8.9311Y-1.1493
X8.9311Y-3.5902
X8.9311Y-6.0312
X9.0052Y-2.2231
X9.0052Y-4.6641
X9.0052Y-7.105
X9.2217Y-0.8728
X9.2217Y-3.3137
X9.2217Y-5.7546
X8.7628Y-0.9824
X8.7628Y-1.0809
X8.1192Y-1.5905
X8.1192Y-1.6889
X3.5635Y-6.4724
X3.5635Y-6.5708
X3.7885Y-6.4724
X3.7885Y-6.5708
X7.8942Y-6.4724
X7.8942Y-6.5708
X4.432Y-3.4234
X4.432Y-3.5218
X7.8942Y-4.0314
X7.8942Y-4.1298
X8.5367Y-0.9824
X8.5367Y-1.0809
X8.1192Y-4.0314
X8.1192Y-4.1298
X3.5635Y-1.5905
X3.5635Y-1.6889
X8.1192Y-6.4724
X8.1192Y-6.5708
X4.206Y-5.8643
X4.206Y-5.9628
X8.5367Y-3.4234
X8.5367Y-3.5218
X4.432Y-5.8643
X4.432Y-5.9628
X8.5367Y-5.8643
X8.5367Y-5.9628
X3.5635Y-4.0314
X3.5635Y-4.1298
X3.7885Y-1.5905
X3.7885Y-1.6889
X4.206Y-0.9824
X4.206Y-1.0809
X7.8942Y-1.5905
X7.8942Y-1.6889
X3.7885Y-4.0314
X3.7885Y-4.1298
X8.7628Y-3.4234
X8.7628Y-3.5218
X8.7628Y-5.8643
X8.7628Y-5.9628
X4.206Y-3.4234
X4.206Y-3.5218
X4.432Y-0.9824
X4.432Y-1.0809
T4
X2.4346Y-6.7647
X2.4346Y-6.8647
X2.4346Y-6.9647
X2.4346Y-7.0647
X2.5346Y-6.8147
X2.5346Y-6.9147
X2.5346Y-7.0147
X2.5346Y-7.1147
X2.4346Y-1.8828
X2.4346Y-1.9828
X2.4346Y-2.0828
X2.4346Y-2.1828
X2.5346Y-1.9328
X2.5346Y-2.0328
X2.5346Y-2.1328
X2.5346Y-2.2328
X6.7654Y-4.3237
X6.7654Y-4.4237
X6.7654Y-4.5237
X6.7654Y-4.6237
X6.8654Y-4.3737
X6.8654Y-4.4737
X6.8654Y-4.5737
X6.8654Y-4.6737
X2.4346Y-4.3237
X2.4346Y-4.4237
X2.4346Y-4.5237
X2.4346Y-4.6237
X2.5346Y-4.3737
X2.5346Y-4.4737
X2.5346Y-4.5737
X2.5346Y-4.6737
X6.7654Y-6.7647
X6.7654Y-6.8647
X6.7654Y-6.9647
X6.7654Y-7.0647
X6.8654Y-6.8147
X6.8654Y-6.9147
X6.8654Y-7.0147
X6.8654Y-7.1147
X6.7654Y-5.9451
X6.7654Y-6.0451
X6.7654Y-6.1451
X6.7654Y-6.2451
X6.8654Y-5.9951
X6.8654Y-6.0951
X6.8654Y-6.1951
X6.8654Y-6.2951
X2.4346Y-3.5041
X2.4346Y-3.6041
X2.4346Y-3.7041
X2.4346Y-3.8041
X2.5346Y-3.5541
X2.5346Y-3.6541
X2.5346Y-3.7541
X2.5346Y-3.8541
X6.7654Y-1.8828
X6.7654Y-1.9828
X6.7654Y-2.0828
X6.7654Y-2.1828
X6.8654Y-1.9328
X6.8654Y-2.0328
X6.8654Y-2.1328
X6.8654Y-2.2328
X2.4346Y-1.0632
X2.4346Y-1.1632
X2.4346Y-1.2632
X2.4346Y-1.3632
X2.5346Y-1.1132
X2.5346Y-1.2132
X2.5346Y-1.3132
X2.5346Y-1.4132
X6.7654Y-3.5041
X6.7654Y-3.6041
X6.7654Y-3.7041
X6.7654Y-3.8041
X6.8654Y-3.5541
X6.8654Y-3.6541
X6.8654Y-3.7541
X6.8654Y-3.8541
X6.7654Y-1.0632
X6.7654Y-1.1632
X6.7654Y-1.2632
X6.7654Y-1.3632
X6.8654Y-1.1132
X6.8654Y-1.2132
X6.8654Y-1.3132
X6.8654Y-1.4132
X2.4346Y-5.9451
X2.4346Y-6.0451
X2.4346Y-6.1451
X2.4346Y-6.2451
X2.5346Y-5.9951
X2.5346Y-6.0951
X2.5346Y-6.1951
X2.5346Y-6.2951
T5
X3.352Y-7.0728
X4.1001Y-7.0728
X7.6828Y-7.0728
X8.4308Y-7.0728
X3.352Y-2.1909
X4.1001Y-2.1909
X7.6828Y-2.1909
X8.4308Y-2.1909
X3.352Y-4.6318
X4.1001Y-4.6318
X7.6828Y-4.6318
X8.4308Y-4.6318
T6
X5.2887Y-6.7495
X5.2887Y-6.9495
X5.2887Y-4.3086
X5.2887Y-4.5086
X9.6211Y-6.2415
X9.6211Y-6.4415
X9.6194Y-6.7495
X9.6194Y-6.9495
X9.6211Y-3.8005
X9.6211Y-4.0005
X9.6211Y-1.3596
X9.6211Y-1.5596
X9.6194Y-1.8676
X9.6194Y-2.0676
X5.2904Y-3.8005
X5.2904Y-4.0005
X9.6194Y-4.3086
X9.6194Y-4.5086
X5.2887Y-1.8676
X5.2887Y-2.0676
X5.2904Y-6.2415
X5.2904Y-6.4415
X5.2904Y-1.3596
X5.2904Y-1.5596
T7
X4.947Y-1.3509
X4.947Y-2.2349
X9.2778Y-6.2328
X9.2778Y-7.1168
X4.947Y-3.7918
X4.947Y-4.6758
X9.2778Y-1.3509
X9.2778Y-2.2349
X4.947Y-6.2328
X4.947Y-7.1168
X9.2778Y-3.7918
X9.2778Y-4.6758
T8
X2.3047Y-6.6346
X2.3047Y-7.2448
X2.3047Y-1.7527
X2.3047Y-2.3629
X6.6354Y-4.1936
X6.6354Y-4.8039
X2.3047Y-4.1936
X2.3047Y-4.8039
X6.6354Y-6.6346
X6.6354Y-7.2448
X6.6354Y-5.815
X6.6354Y-6.4252
X2.3047Y-3.374
X2.3047Y-3.9843
X6.6354Y-1.7527
X6.6354Y-2.3629
X2.3047Y-0.9331
X2.3047Y-1.5433
X6.6354Y-3.374
X6.6354Y-3.9843
X6.6354Y-0.9331
X6.6354Y-1.5433
X2.3047Y-5.815
X2.3047Y-6.4252
T0
M30
