G04 #@! TF.GenerationSoftware,KiCad,Pcbnew,5.1.4-e60b266~84~ubuntu18.04.1*
G04 #@! TF.CreationDate,2019-10-29T18:19:43-03:00*
G04 #@! TF.ProjectId,fonte_18V,666f6e74-655f-4313-9856-2e6b69636164,rev?*
G04 #@! TF.SameCoordinates,Original*
G04 #@! TF.FileFunction,Other,User*
%FSLAX46Y46*%
G04 Gerber Fmt 4.6, Leading zero omitted, Abs format (unit mm)*
G04 Created by KiCad (PCBNEW 5.1.4-e60b266~84~ubuntu18.04.1) date 2019-10-29 18:19:43*
%MOMM*%
%LPD*%
G04 APERTURE LIST*
%ADD10C,0.050000*%
G04 APERTURE END LIST*
D10*
X167832000Y-158705000D02*
X167832000Y-142685000D01*
X167832000Y-158705000D02*
X189168000Y-158706000D01*
X189168000Y-142685000D02*
X167832000Y-142685000D01*
X189168000Y-142686000D02*
X189168000Y-158706000D01*
X167832000Y-179523000D02*
X167832000Y-163503000D01*
X167832000Y-179523000D02*
X189168000Y-179524000D01*
X189168000Y-163503000D02*
X167832000Y-163503000D01*
X189168000Y-163504000D02*
X189168000Y-179524000D01*
X162450000Y-140000000D02*
G75*
G03X162450000Y-140000000I-3450000J0D01*
G01*
X162450000Y-182000000D02*
G75*
G03X162450000Y-182000000I-3450000J0D01*
G01*
X97450000Y-182000000D02*
G75*
G03X97450000Y-182000000I-3450000J0D01*
G01*
X97450000Y-140000000D02*
G75*
G03X97450000Y-140000000I-3450000J0D01*
G01*
X125620000Y-158590000D02*
X118220000Y-158590000D01*
X125620000Y-163990000D02*
X125620000Y-158590000D01*
X118220000Y-163990000D02*
X125620000Y-163990000D01*
X118220000Y-158590000D02*
X118220000Y-163990000D01*
X132880000Y-177715000D02*
X132880000Y-181415000D01*
X130980000Y-177715000D02*
X132880000Y-177715000D01*
X130980000Y-181415000D02*
X130980000Y-177715000D01*
X132880000Y-181415000D02*
X130980000Y-181415000D01*
X154860000Y-165360000D02*
X154860000Y-169060000D01*
X152960000Y-165360000D02*
X154860000Y-165360000D01*
X152960000Y-169060000D02*
X152960000Y-165360000D01*
X154860000Y-169060000D02*
X152960000Y-169060000D01*
X117155000Y-160075000D02*
X117155000Y-163775000D01*
X115255000Y-160075000D02*
X117155000Y-160075000D01*
X115255000Y-163775000D02*
X115255000Y-160075000D01*
X117155000Y-163775000D02*
X115255000Y-163775000D01*
X113985000Y-176475000D02*
X113985000Y-172775000D01*
X115885000Y-176475000D02*
X113985000Y-176475000D01*
X115885000Y-172775000D02*
X115885000Y-176475000D01*
X113985000Y-172775000D02*
X115885000Y-172775000D01*
X120970000Y-169490000D02*
X120970000Y-165790000D01*
X122870000Y-169490000D02*
X120970000Y-169490000D01*
X122870000Y-165790000D02*
X122870000Y-169490000D01*
X120970000Y-165790000D02*
X122870000Y-165790000D01*
X157690000Y-165480000D02*
X157690000Y-169180000D01*
X155790000Y-165480000D02*
X157690000Y-165480000D01*
X155790000Y-169180000D02*
X155790000Y-165480000D01*
X157690000Y-169180000D02*
X155790000Y-169180000D01*
X149960000Y-147320000D02*
G75*
G03X149960000Y-147320000I-10870000J0D01*
G01*
X101900000Y-159570000D02*
X101900000Y-146410000D01*
X88900000Y-159570000D02*
X101900000Y-159570000D01*
X88900000Y-146410000D02*
X88900000Y-159570000D01*
X101900000Y-146410000D02*
X88900000Y-146410000D01*
X101855000Y-172475000D02*
X101855000Y-159315000D01*
X88855000Y-172475000D02*
X101855000Y-172475000D01*
X88855000Y-159315000D02*
X88855000Y-172475000D01*
X101855000Y-159315000D02*
X88855000Y-159315000D01*
X134155000Y-181415000D02*
X134155000Y-177715000D01*
X136055000Y-181415000D02*
X134155000Y-181415000D01*
X136055000Y-177715000D02*
X136055000Y-181415000D01*
X134155000Y-177715000D02*
X136055000Y-177715000D01*
X145970000Y-161320000D02*
G75*
G03X145970000Y-161320000I-2750000J0D01*
G01*
X140255000Y-161320000D02*
G75*
G03X140255000Y-161320000I-2750000J0D01*
G01*
X129650000Y-176764000D02*
G75*
G03X129650000Y-176764000I-2750000J0D01*
G01*
X123908000Y-176764000D02*
G75*
G03X123908000Y-176764000I-2750000J0D01*
G01*
X120070000Y-155260000D02*
X123770000Y-155260000D01*
X120070000Y-157160000D02*
X120070000Y-155260000D01*
X123770000Y-157160000D02*
X120070000Y-157160000D01*
X123770000Y-155260000D02*
X123770000Y-157160000D01*
X150330000Y-175800000D02*
X150330000Y-165300000D01*
X129370000Y-175800000D02*
X150330000Y-175800000D01*
X129370000Y-165300000D02*
X129370000Y-175800000D01*
X150330000Y-165300000D02*
X129370000Y-165300000D01*
M02*
