G04 #@! TF.GenerationSoftware,KiCad,Pcbnew,5.1.4-e60b266~84~ubuntu18.04.1*
G04 #@! TF.CreationDate,2019-10-29T18:36:45-03:00*
G04 #@! TF.ProjectId,fonte_18V_panel,666f6e74-655f-4313-9856-5f70616e656c,rev?*
G04 #@! TF.SameCoordinates,Original*
G04 #@! TF.FileFunction,Other,User*
%FSLAX46Y46*%
G04 Gerber Fmt 4.6, Leading zero omitted, Abs format (unit mm)*
G04 Created by KiCad (PCBNEW 5.1.4-e60b266~84~ubuntu18.04.1) date 2019-10-29 18:36:45*
%MOMM*%
%LPD*%
G04 APERTURE LIST*
%ADD10C,0.050000*%
G04 APERTURE END LIST*
D10*
X203262000Y-41648000D02*
G75*
G03X203262000Y-41648000I-2750000J0D01*
G01*
X203262000Y-103648000D02*
G75*
G03X203262000Y-103648000I-2750000J0D01*
G01*
X203262000Y-165648000D02*
G75*
G03X203262000Y-165648000I-2750000J0D01*
G01*
X93262000Y-41648000D02*
G75*
G03X93262000Y-41648000I-2750000J0D01*
G01*
X93262000Y-103648000D02*
G75*
G03X93262000Y-103648000I-2750000J0D01*
G01*
X241877000Y-43653000D02*
X254877000Y-43653000D01*
X254877000Y-43653000D02*
X254877000Y-30493000D01*
X254877000Y-30493000D02*
X241877000Y-30493000D01*
X241877000Y-30493000D02*
X241877000Y-43653000D01*
X241877000Y-105653000D02*
X254877000Y-105653000D01*
X254877000Y-105653000D02*
X254877000Y-92493000D01*
X254877000Y-92493000D02*
X241877000Y-92493000D01*
X241877000Y-92493000D02*
X241877000Y-105653000D01*
X241877000Y-167653000D02*
X254877000Y-167653000D01*
X254877000Y-167653000D02*
X254877000Y-154493000D01*
X254877000Y-154493000D02*
X241877000Y-154493000D01*
X241877000Y-154493000D02*
X241877000Y-167653000D01*
X131877000Y-43653000D02*
X144877000Y-43653000D01*
X144877000Y-43653000D02*
X144877000Y-30493000D01*
X144877000Y-30493000D02*
X131877000Y-30493000D01*
X131877000Y-30493000D02*
X131877000Y-43653000D01*
X131877000Y-105653000D02*
X144877000Y-105653000D01*
X144877000Y-105653000D02*
X144877000Y-92493000D01*
X144877000Y-92493000D02*
X131877000Y-92493000D01*
X131877000Y-92493000D02*
X131877000Y-105653000D01*
X225512000Y-44378000D02*
X225512000Y-38978000D01*
X225512000Y-38978000D02*
X218112000Y-38978000D01*
X218112000Y-38978000D02*
X218112000Y-44378000D01*
X218112000Y-44378000D02*
X225512000Y-44378000D01*
X225512000Y-106378000D02*
X225512000Y-100978000D01*
X225512000Y-100978000D02*
X218112000Y-100978000D01*
X218112000Y-100978000D02*
X218112000Y-106378000D01*
X218112000Y-106378000D02*
X225512000Y-106378000D01*
X225512000Y-168378000D02*
X225512000Y-162978000D01*
X225512000Y-162978000D02*
X218112000Y-162978000D01*
X218112000Y-162978000D02*
X218112000Y-168378000D01*
X218112000Y-168378000D02*
X225512000Y-168378000D01*
X115512000Y-44378000D02*
X115512000Y-38978000D01*
X115512000Y-38978000D02*
X108112000Y-38978000D01*
X108112000Y-38978000D02*
X108112000Y-44378000D01*
X108112000Y-44378000D02*
X115512000Y-44378000D01*
X115512000Y-106378000D02*
X115512000Y-100978000D01*
X115512000Y-100978000D02*
X108112000Y-100978000D01*
X108112000Y-100978000D02*
X108112000Y-106378000D01*
X108112000Y-106378000D02*
X115512000Y-106378000D01*
X210852000Y-21553000D02*
X212752000Y-21553000D01*
X212752000Y-21553000D02*
X212752000Y-25253000D01*
X212752000Y-25253000D02*
X210852000Y-25253000D01*
X210852000Y-25253000D02*
X210852000Y-21553000D01*
X210852000Y-83553000D02*
X212752000Y-83553000D01*
X212752000Y-83553000D02*
X212752000Y-87253000D01*
X212752000Y-87253000D02*
X210852000Y-87253000D01*
X210852000Y-87253000D02*
X210852000Y-83553000D01*
X210852000Y-145553000D02*
X212752000Y-145553000D01*
X212752000Y-145553000D02*
X212752000Y-149253000D01*
X212752000Y-149253000D02*
X210852000Y-149253000D01*
X210852000Y-149253000D02*
X210852000Y-145553000D01*
X100852000Y-21553000D02*
X102752000Y-21553000D01*
X102752000Y-21553000D02*
X102752000Y-25253000D01*
X102752000Y-25253000D02*
X100852000Y-25253000D01*
X100852000Y-25253000D02*
X100852000Y-21553000D01*
X100852000Y-83553000D02*
X102752000Y-83553000D01*
X102752000Y-83553000D02*
X102752000Y-87253000D01*
X102752000Y-87253000D02*
X100852000Y-87253000D01*
X100852000Y-87253000D02*
X100852000Y-83553000D01*
X209577000Y-25253000D02*
X207677000Y-25253000D01*
X207677000Y-25253000D02*
X207677000Y-21553000D01*
X207677000Y-21553000D02*
X209577000Y-21553000D01*
X209577000Y-21553000D02*
X209577000Y-25253000D01*
X209577000Y-87253000D02*
X207677000Y-87253000D01*
X207677000Y-87253000D02*
X207677000Y-83553000D01*
X207677000Y-83553000D02*
X209577000Y-83553000D01*
X209577000Y-83553000D02*
X209577000Y-87253000D01*
X209577000Y-149253000D02*
X207677000Y-149253000D01*
X207677000Y-149253000D02*
X207677000Y-145553000D01*
X207677000Y-145553000D02*
X209577000Y-145553000D01*
X209577000Y-145553000D02*
X209577000Y-149253000D01*
X99577000Y-25253000D02*
X97677000Y-25253000D01*
X97677000Y-25253000D02*
X97677000Y-21553000D01*
X97677000Y-21553000D02*
X99577000Y-21553000D01*
X99577000Y-21553000D02*
X99577000Y-25253000D01*
X99577000Y-87253000D02*
X97677000Y-87253000D01*
X97677000Y-87253000D02*
X97677000Y-83553000D01*
X97677000Y-83553000D02*
X99577000Y-83553000D01*
X99577000Y-83553000D02*
X99577000Y-87253000D01*
X215512000Y-55648000D02*
G75*
G03X215512000Y-55648000I-10870000J0D01*
G01*
X215512000Y-117648000D02*
G75*
G03X215512000Y-117648000I-10870000J0D01*
G01*
X215512000Y-179648000D02*
G75*
G03X215512000Y-179648000I-10870000J0D01*
G01*
X105512000Y-55648000D02*
G75*
G03X105512000Y-55648000I-10870000J0D01*
G01*
X105512000Y-117648000D02*
G75*
G03X105512000Y-117648000I-10870000J0D01*
G01*
X188872000Y-33908000D02*
X190772000Y-33908000D01*
X190772000Y-33908000D02*
X190772000Y-37608000D01*
X190772000Y-37608000D02*
X188872000Y-37608000D01*
X188872000Y-37608000D02*
X188872000Y-33908000D01*
X188872000Y-95908000D02*
X190772000Y-95908000D01*
X190772000Y-95908000D02*
X190772000Y-99608000D01*
X190772000Y-99608000D02*
X188872000Y-99608000D01*
X188872000Y-99608000D02*
X188872000Y-95908000D01*
X188872000Y-157908000D02*
X190772000Y-157908000D01*
X190772000Y-157908000D02*
X190772000Y-161608000D01*
X190772000Y-161608000D02*
X188872000Y-161608000D01*
X188872000Y-161608000D02*
X188872000Y-157908000D01*
X78872000Y-33908000D02*
X80772000Y-33908000D01*
X80772000Y-33908000D02*
X80772000Y-37608000D01*
X80772000Y-37608000D02*
X78872000Y-37608000D01*
X78872000Y-37608000D02*
X78872000Y-33908000D01*
X78872000Y-95908000D02*
X80772000Y-95908000D01*
X80772000Y-95908000D02*
X80772000Y-99608000D01*
X80772000Y-99608000D02*
X78872000Y-99608000D01*
X78872000Y-99608000D02*
X78872000Y-95908000D01*
X222762000Y-37178000D02*
X220862000Y-37178000D01*
X220862000Y-37178000D02*
X220862000Y-33478000D01*
X220862000Y-33478000D02*
X222762000Y-33478000D01*
X222762000Y-33478000D02*
X222762000Y-37178000D01*
X222762000Y-99178000D02*
X220862000Y-99178000D01*
X220862000Y-99178000D02*
X220862000Y-95478000D01*
X220862000Y-95478000D02*
X222762000Y-95478000D01*
X222762000Y-95478000D02*
X222762000Y-99178000D01*
X222762000Y-161178000D02*
X220862000Y-161178000D01*
X220862000Y-161178000D02*
X220862000Y-157478000D01*
X220862000Y-157478000D02*
X222762000Y-157478000D01*
X222762000Y-157478000D02*
X222762000Y-161178000D01*
X112762000Y-37178000D02*
X110862000Y-37178000D01*
X110862000Y-37178000D02*
X110862000Y-33478000D01*
X110862000Y-33478000D02*
X112762000Y-33478000D01*
X112762000Y-33478000D02*
X112762000Y-37178000D01*
X112762000Y-99178000D02*
X110862000Y-99178000D01*
X110862000Y-99178000D02*
X110862000Y-95478000D01*
X110862000Y-95478000D02*
X112762000Y-95478000D01*
X112762000Y-95478000D02*
X112762000Y-99178000D01*
X154564000Y-60282000D02*
X154564000Y-44262000D01*
X154564000Y-60283000D02*
X175900000Y-60283000D01*
X175900000Y-44263000D02*
X154564000Y-44262000D01*
X175900000Y-44263000D02*
X175900000Y-60283000D01*
X154564000Y-122282000D02*
X154564000Y-106262000D01*
X154564000Y-122283000D02*
X175900000Y-122283000D01*
X175900000Y-106263000D02*
X154564000Y-106262000D01*
X175900000Y-106263000D02*
X175900000Y-122283000D01*
X154564000Y-184282000D02*
X154564000Y-168262000D01*
X154564000Y-184283000D02*
X175900000Y-184283000D01*
X175900000Y-168263000D02*
X154564000Y-168262000D01*
X175900000Y-168263000D02*
X175900000Y-184283000D01*
X44564000Y-60282000D02*
X44564000Y-44262000D01*
X44564000Y-60283000D02*
X65900000Y-60283000D01*
X65900000Y-44263000D02*
X44564000Y-44262000D01*
X65900000Y-44263000D02*
X65900000Y-60283000D01*
X44564000Y-122282000D02*
X44564000Y-106262000D01*
X44564000Y-122283000D02*
X65900000Y-122283000D01*
X65900000Y-106263000D02*
X44564000Y-106262000D01*
X65900000Y-106263000D02*
X65900000Y-122283000D01*
X193402000Y-37668000D02*
X214362000Y-37668000D01*
X214362000Y-37668000D02*
X214362000Y-27168000D01*
X214362000Y-27168000D02*
X193402000Y-27168000D01*
X193402000Y-27168000D02*
X193402000Y-37668000D01*
X193402000Y-99668000D02*
X214362000Y-99668000D01*
X214362000Y-99668000D02*
X214362000Y-89168000D01*
X214362000Y-89168000D02*
X193402000Y-89168000D01*
X193402000Y-89168000D02*
X193402000Y-99668000D01*
X193402000Y-161668000D02*
X214362000Y-161668000D01*
X214362000Y-161668000D02*
X214362000Y-151168000D01*
X214362000Y-151168000D02*
X193402000Y-151168000D01*
X193402000Y-151168000D02*
X193402000Y-161668000D01*
X83402000Y-37668000D02*
X104362000Y-37668000D01*
X104362000Y-37668000D02*
X104362000Y-27168000D01*
X104362000Y-27168000D02*
X83402000Y-27168000D01*
X83402000Y-27168000D02*
X83402000Y-37668000D01*
X83402000Y-99668000D02*
X104362000Y-99668000D01*
X104362000Y-99668000D02*
X104362000Y-89168000D01*
X104362000Y-89168000D02*
X83402000Y-89168000D01*
X83402000Y-89168000D02*
X83402000Y-99668000D01*
X186042000Y-33788000D02*
X187942000Y-33788000D01*
X187942000Y-33788000D02*
X187942000Y-37488000D01*
X187942000Y-37488000D02*
X186042000Y-37488000D01*
X186042000Y-37488000D02*
X186042000Y-33788000D01*
X186042000Y-95788000D02*
X187942000Y-95788000D01*
X187942000Y-95788000D02*
X187942000Y-99488000D01*
X187942000Y-99488000D02*
X186042000Y-99488000D01*
X186042000Y-99488000D02*
X186042000Y-95788000D01*
X186042000Y-157788000D02*
X187942000Y-157788000D01*
X187942000Y-157788000D02*
X187942000Y-161488000D01*
X187942000Y-161488000D02*
X186042000Y-161488000D01*
X186042000Y-161488000D02*
X186042000Y-157788000D01*
X76042000Y-33788000D02*
X77942000Y-33788000D01*
X77942000Y-33788000D02*
X77942000Y-37488000D01*
X77942000Y-37488000D02*
X76042000Y-37488000D01*
X76042000Y-37488000D02*
X76042000Y-33788000D01*
X76042000Y-95788000D02*
X77942000Y-95788000D01*
X77942000Y-95788000D02*
X77942000Y-99488000D01*
X77942000Y-99488000D02*
X76042000Y-99488000D01*
X76042000Y-99488000D02*
X76042000Y-95788000D01*
X219962000Y-47708000D02*
X219962000Y-45808000D01*
X219962000Y-45808000D02*
X223662000Y-45808000D01*
X223662000Y-45808000D02*
X223662000Y-47708000D01*
X223662000Y-47708000D02*
X219962000Y-47708000D01*
X219962000Y-109708000D02*
X219962000Y-107808000D01*
X219962000Y-107808000D02*
X223662000Y-107808000D01*
X223662000Y-107808000D02*
X223662000Y-109708000D01*
X223662000Y-109708000D02*
X219962000Y-109708000D01*
X219962000Y-171708000D02*
X219962000Y-169808000D01*
X219962000Y-169808000D02*
X223662000Y-169808000D01*
X223662000Y-169808000D02*
X223662000Y-171708000D01*
X223662000Y-171708000D02*
X219962000Y-171708000D01*
X109962000Y-47708000D02*
X109962000Y-45808000D01*
X109962000Y-45808000D02*
X113662000Y-45808000D01*
X113662000Y-45808000D02*
X113662000Y-47708000D01*
X113662000Y-47708000D02*
X109962000Y-47708000D01*
X109962000Y-109708000D02*
X109962000Y-107808000D01*
X109962000Y-107808000D02*
X113662000Y-107808000D01*
X113662000Y-107808000D02*
X113662000Y-109708000D01*
X113662000Y-109708000D02*
X109962000Y-109708000D01*
X229747000Y-30193000D02*
X227847000Y-30193000D01*
X227847000Y-30193000D02*
X227847000Y-26493000D01*
X227847000Y-26493000D02*
X229747000Y-26493000D01*
X229747000Y-26493000D02*
X229747000Y-30193000D01*
X229747000Y-92193000D02*
X227847000Y-92193000D01*
X227847000Y-92193000D02*
X227847000Y-88493000D01*
X227847000Y-88493000D02*
X229747000Y-88493000D01*
X229747000Y-88493000D02*
X229747000Y-92193000D01*
X229747000Y-154193000D02*
X227847000Y-154193000D01*
X227847000Y-154193000D02*
X227847000Y-150493000D01*
X227847000Y-150493000D02*
X229747000Y-150493000D01*
X229747000Y-150493000D02*
X229747000Y-154193000D01*
X119747000Y-30193000D02*
X117847000Y-30193000D01*
X117847000Y-30193000D02*
X117847000Y-26493000D01*
X117847000Y-26493000D02*
X119747000Y-26493000D01*
X119747000Y-26493000D02*
X119747000Y-30193000D01*
X119747000Y-92193000D02*
X117847000Y-92193000D01*
X117847000Y-92193000D02*
X117847000Y-88493000D01*
X117847000Y-88493000D02*
X119747000Y-88493000D01*
X119747000Y-88493000D02*
X119747000Y-92193000D01*
X208977000Y-41648000D02*
G75*
G03X208977000Y-41648000I-2750000J0D01*
G01*
X208977000Y-103648000D02*
G75*
G03X208977000Y-103648000I-2750000J0D01*
G01*
X208977000Y-165648000D02*
G75*
G03X208977000Y-165648000I-2750000J0D01*
G01*
X98977000Y-41648000D02*
G75*
G03X98977000Y-41648000I-2750000J0D01*
G01*
X98977000Y-103648000D02*
G75*
G03X98977000Y-103648000I-2750000J0D01*
G01*
X226577000Y-39193000D02*
X228477000Y-39193000D01*
X228477000Y-39193000D02*
X228477000Y-42893000D01*
X228477000Y-42893000D02*
X226577000Y-42893000D01*
X226577000Y-42893000D02*
X226577000Y-39193000D01*
X226577000Y-101193000D02*
X228477000Y-101193000D01*
X228477000Y-101193000D02*
X228477000Y-104893000D01*
X228477000Y-104893000D02*
X226577000Y-104893000D01*
X226577000Y-104893000D02*
X226577000Y-101193000D01*
X226577000Y-163193000D02*
X228477000Y-163193000D01*
X228477000Y-163193000D02*
X228477000Y-166893000D01*
X228477000Y-166893000D02*
X226577000Y-166893000D01*
X226577000Y-166893000D02*
X226577000Y-163193000D01*
X116577000Y-39193000D02*
X118477000Y-39193000D01*
X118477000Y-39193000D02*
X118477000Y-42893000D01*
X118477000Y-42893000D02*
X116577000Y-42893000D01*
X116577000Y-42893000D02*
X116577000Y-39193000D01*
X116577000Y-101193000D02*
X118477000Y-101193000D01*
X118477000Y-101193000D02*
X118477000Y-104893000D01*
X118477000Y-104893000D02*
X116577000Y-104893000D01*
X116577000Y-104893000D02*
X116577000Y-101193000D01*
X241832000Y-56558000D02*
X254832000Y-56558000D01*
X254832000Y-56558000D02*
X254832000Y-43398000D01*
X254832000Y-43398000D02*
X241832000Y-43398000D01*
X241832000Y-43398000D02*
X241832000Y-56558000D01*
X241832000Y-118558000D02*
X254832000Y-118558000D01*
X254832000Y-118558000D02*
X254832000Y-105398000D01*
X254832000Y-105398000D02*
X241832000Y-105398000D01*
X241832000Y-105398000D02*
X241832000Y-118558000D01*
X241832000Y-180558000D02*
X254832000Y-180558000D01*
X254832000Y-180558000D02*
X254832000Y-167398000D01*
X254832000Y-167398000D02*
X241832000Y-167398000D01*
X241832000Y-167398000D02*
X241832000Y-180558000D01*
X131832000Y-56558000D02*
X144832000Y-56558000D01*
X144832000Y-56558000D02*
X144832000Y-43398000D01*
X144832000Y-43398000D02*
X131832000Y-43398000D01*
X131832000Y-43398000D02*
X131832000Y-56558000D01*
X131832000Y-118558000D02*
X144832000Y-118558000D01*
X144832000Y-118558000D02*
X144832000Y-105398000D01*
X144832000Y-105398000D02*
X131832000Y-105398000D01*
X131832000Y-105398000D02*
X131832000Y-118558000D01*
X225324000Y-26204000D02*
G75*
G03X225324000Y-26204000I-2750000J0D01*
G01*
X225324000Y-88204000D02*
G75*
G03X225324000Y-88204000I-2750000J0D01*
G01*
X225324000Y-150204000D02*
G75*
G03X225324000Y-150204000I-2750000J0D01*
G01*
X115324000Y-26204000D02*
G75*
G03X115324000Y-26204000I-2750000J0D01*
G01*
X115324000Y-88204000D02*
G75*
G03X115324000Y-88204000I-2750000J0D01*
G01*
X219582000Y-26204000D02*
G75*
G03X219582000Y-26204000I-2750000J0D01*
G01*
X219582000Y-88204000D02*
G75*
G03X219582000Y-88204000I-2750000J0D01*
G01*
X219582000Y-150204000D02*
G75*
G03X219582000Y-150204000I-2750000J0D01*
G01*
X109582000Y-26204000D02*
G75*
G03X109582000Y-26204000I-2750000J0D01*
G01*
X109582000Y-88204000D02*
G75*
G03X109582000Y-88204000I-2750000J0D01*
G01*
X154564000Y-39464000D02*
X154564000Y-23444000D01*
X154564000Y-39465000D02*
X175900000Y-39465000D01*
X175900000Y-23445000D02*
X154564000Y-23444000D01*
X175900000Y-23445000D02*
X175900000Y-39465000D01*
X154564000Y-101464000D02*
X154564000Y-85444000D01*
X154564000Y-101465000D02*
X175900000Y-101465000D01*
X175900000Y-85445000D02*
X154564000Y-85444000D01*
X175900000Y-85445000D02*
X175900000Y-101465000D01*
X154564000Y-163464000D02*
X154564000Y-147444000D01*
X154564000Y-163465000D02*
X175900000Y-163465000D01*
X175900000Y-147445000D02*
X154564000Y-147444000D01*
X175900000Y-147445000D02*
X175900000Y-163465000D01*
X44564000Y-39464000D02*
X44564000Y-23444000D01*
X44564000Y-39465000D02*
X65900000Y-39465000D01*
X65900000Y-23445000D02*
X44564000Y-23444000D01*
X65900000Y-23445000D02*
X65900000Y-39465000D01*
X44564000Y-101464000D02*
X44564000Y-85444000D01*
X44564000Y-101465000D02*
X65900000Y-101465000D01*
X65900000Y-85445000D02*
X44564000Y-85444000D01*
X65900000Y-85445000D02*
X65900000Y-101465000D01*
X188182000Y-20968000D02*
G75*
G03X188182000Y-20968000I-3450000J0D01*
G01*
X188182000Y-82968000D02*
G75*
G03X188182000Y-82968000I-3450000J0D01*
G01*
X188182000Y-144968000D02*
G75*
G03X188182000Y-144968000I-3450000J0D01*
G01*
X78182000Y-20968000D02*
G75*
G03X78182000Y-20968000I-3450000J0D01*
G01*
X78182000Y-82968000D02*
G75*
G03X78182000Y-82968000I-3450000J0D01*
G01*
X188182000Y-62968000D02*
G75*
G03X188182000Y-62968000I-3450000J0D01*
G01*
X188182000Y-124968000D02*
G75*
G03X188182000Y-124968000I-3450000J0D01*
G01*
X188182000Y-186968000D02*
G75*
G03X188182000Y-186968000I-3450000J0D01*
G01*
X78182000Y-62968000D02*
G75*
G03X78182000Y-62968000I-3450000J0D01*
G01*
X78182000Y-124968000D02*
G75*
G03X78182000Y-124968000I-3450000J0D01*
G01*
X253182000Y-20968000D02*
G75*
G03X253182000Y-20968000I-3450000J0D01*
G01*
X253182000Y-82968000D02*
G75*
G03X253182000Y-82968000I-3450000J0D01*
G01*
X253182000Y-144968000D02*
G75*
G03X253182000Y-144968000I-3450000J0D01*
G01*
X143182000Y-20968000D02*
G75*
G03X143182000Y-20968000I-3450000J0D01*
G01*
X143182000Y-82968000D02*
G75*
G03X143182000Y-82968000I-3450000J0D01*
G01*
X253182000Y-62968000D02*
G75*
G03X253182000Y-62968000I-3450000J0D01*
G01*
X253182000Y-124968000D02*
G75*
G03X253182000Y-124968000I-3450000J0D01*
G01*
X253182000Y-186968000D02*
G75*
G03X253182000Y-186968000I-3450000J0D01*
G01*
X143182000Y-62968000D02*
G75*
G03X143182000Y-62968000I-3450000J0D01*
G01*
X143182000Y-124968000D02*
G75*
G03X143182000Y-124968000I-3450000J0D01*
G01*
X65900000Y-168263000D02*
X65900000Y-184283000D01*
X65900000Y-168263000D02*
X44564000Y-168262000D01*
X44564000Y-184283000D02*
X65900000Y-184283000D01*
X44564000Y-184282000D02*
X44564000Y-168262000D01*
X65900000Y-147445000D02*
X65900000Y-163465000D01*
X65900000Y-147445000D02*
X44564000Y-147444000D01*
X44564000Y-163465000D02*
X65900000Y-163465000D01*
X44564000Y-163464000D02*
X44564000Y-147444000D01*
X78182000Y-186968000D02*
G75*
G03X78182000Y-186968000I-3450000J0D01*
G01*
X78182000Y-144968000D02*
G75*
G03X78182000Y-144968000I-3450000J0D01*
G01*
X143182000Y-144968000D02*
G75*
G03X143182000Y-144968000I-3450000J0D01*
G01*
X143182000Y-186968000D02*
G75*
G03X143182000Y-186968000I-3450000J0D01*
G01*
X108112000Y-168378000D02*
X115512000Y-168378000D01*
X108112000Y-162978000D02*
X108112000Y-168378000D01*
X115512000Y-162978000D02*
X108112000Y-162978000D01*
X115512000Y-168378000D02*
X115512000Y-162978000D01*
X100852000Y-149253000D02*
X100852000Y-145553000D01*
X102752000Y-149253000D02*
X100852000Y-149253000D01*
X102752000Y-145553000D02*
X102752000Y-149253000D01*
X100852000Y-145553000D02*
X102752000Y-145553000D01*
X78872000Y-161608000D02*
X78872000Y-157908000D01*
X80772000Y-161608000D02*
X78872000Y-161608000D01*
X80772000Y-157908000D02*
X80772000Y-161608000D01*
X78872000Y-157908000D02*
X80772000Y-157908000D01*
X116577000Y-166893000D02*
X116577000Y-163193000D01*
X118477000Y-166893000D02*
X116577000Y-166893000D01*
X118477000Y-163193000D02*
X118477000Y-166893000D01*
X116577000Y-163193000D02*
X118477000Y-163193000D01*
X119747000Y-150493000D02*
X119747000Y-154193000D01*
X117847000Y-150493000D02*
X119747000Y-150493000D01*
X117847000Y-154193000D02*
X117847000Y-150493000D01*
X119747000Y-154193000D02*
X117847000Y-154193000D01*
X112762000Y-157478000D02*
X112762000Y-161178000D01*
X110862000Y-157478000D02*
X112762000Y-157478000D01*
X110862000Y-161178000D02*
X110862000Y-157478000D01*
X112762000Y-161178000D02*
X110862000Y-161178000D01*
X76042000Y-161488000D02*
X76042000Y-157788000D01*
X77942000Y-161488000D02*
X76042000Y-161488000D01*
X77942000Y-157788000D02*
X77942000Y-161488000D01*
X76042000Y-157788000D02*
X77942000Y-157788000D01*
X105512000Y-179648000D02*
G75*
G03X105512000Y-179648000I-10870000J0D01*
G01*
X131832000Y-167398000D02*
X131832000Y-180558000D01*
X144832000Y-167398000D02*
X131832000Y-167398000D01*
X144832000Y-180558000D02*
X144832000Y-167398000D01*
X131832000Y-180558000D02*
X144832000Y-180558000D01*
X131877000Y-154493000D02*
X131877000Y-167653000D01*
X144877000Y-154493000D02*
X131877000Y-154493000D01*
X144877000Y-167653000D02*
X144877000Y-154493000D01*
X131877000Y-167653000D02*
X144877000Y-167653000D01*
X99577000Y-145553000D02*
X99577000Y-149253000D01*
X97677000Y-145553000D02*
X99577000Y-145553000D01*
X97677000Y-149253000D02*
X97677000Y-145553000D01*
X99577000Y-149253000D02*
X97677000Y-149253000D01*
X93262000Y-165648000D02*
G75*
G03X93262000Y-165648000I-2750000J0D01*
G01*
X98977000Y-165648000D02*
G75*
G03X98977000Y-165648000I-2750000J0D01*
G01*
X109582000Y-150204000D02*
G75*
G03X109582000Y-150204000I-2750000J0D01*
G01*
X115324000Y-150204000D02*
G75*
G03X115324000Y-150204000I-2750000J0D01*
G01*
X113662000Y-171708000D02*
X109962000Y-171708000D01*
X113662000Y-169808000D02*
X113662000Y-171708000D01*
X109962000Y-169808000D02*
X113662000Y-169808000D01*
X109962000Y-171708000D02*
X109962000Y-169808000D01*
X83402000Y-151168000D02*
X83402000Y-161668000D01*
X104362000Y-151168000D02*
X83402000Y-151168000D01*
X104362000Y-161668000D02*
X104362000Y-151168000D01*
X83402000Y-161668000D02*
X104362000Y-161668000D01*
M02*
