G04 #@! TF.GenerationSoftware,KiCad,Pcbnew,5.1.4*
G04 #@! TF.CreationDate,2019-11-01T23:16:51-03:00*
G04 #@! TF.ProjectId,fonte_18V_panel,666f6e74-655f-4313-9856-5f70616e656c,rev?*
G04 #@! TF.SameCoordinates,Original*
G04 #@! TF.FileFunction,Other,Comment*
%FSLAX46Y46*%
G04 Gerber Fmt 4.6, Leading zero omitted, Abs format (unit mm)*
G04 Created by KiCad (PCBNEW 5.1.4) date 2019-11-01 23:16:51*
%MOMM*%
%LPD*%
G04 APERTURE LIST*
%ADD10C,0.150000*%
G04 APERTURE END LIST*
D10*
X163600000Y-187200000D02*
G75*
G03X163600000Y-187200000I-3200000J0D01*
G01*
X53600000Y-187200000D02*
G75*
G03X53600000Y-187200000I-3200000J0D01*
G01*
X163600000Y-125200000D02*
G75*
G03X163600000Y-125200000I-3200000J0D01*
G01*
X53600000Y-125200000D02*
G75*
G03X53600000Y-125200000I-3200000J0D01*
G01*
X163600000Y-63200000D02*
G75*
G03X163600000Y-63200000I-3200000J0D01*
G01*
X228600000Y-187200000D02*
G75*
G03X228600000Y-187200000I-3200000J0D01*
G01*
X118600000Y-187200000D02*
G75*
G03X118600000Y-187200000I-3200000J0D01*
G01*
X228600000Y-125200000D02*
G75*
G03X228600000Y-125200000I-3200000J0D01*
G01*
X118600000Y-125200000D02*
G75*
G03X118600000Y-125200000I-3200000J0D01*
G01*
X228600000Y-63200000D02*
G75*
G03X228600000Y-63200000I-3200000J0D01*
G01*
X228600000Y-145200000D02*
G75*
G03X228600000Y-145200000I-3200000J0D01*
G01*
X118600000Y-145200000D02*
G75*
G03X118600000Y-145200000I-3200000J0D01*
G01*
X228600000Y-83200000D02*
G75*
G03X228600000Y-83200000I-3200000J0D01*
G01*
X118600000Y-83200000D02*
G75*
G03X118600000Y-83200000I-3200000J0D01*
G01*
X228600000Y-21200000D02*
G75*
G03X228600000Y-21200000I-3200000J0D01*
G01*
X163600000Y-145200000D02*
G75*
G03X163600000Y-145200000I-3200000J0D01*
G01*
X53600000Y-145200000D02*
G75*
G03X53600000Y-145200000I-3200000J0D01*
G01*
X163600000Y-83200000D02*
G75*
G03X163600000Y-83200000I-3200000J0D01*
G01*
X53600000Y-83200000D02*
G75*
G03X53600000Y-83200000I-3200000J0D01*
G01*
X163600000Y-21200000D02*
G75*
G03X163600000Y-21200000I-3200000J0D01*
G01*
X118600000Y-21200000D02*
G75*
G03X118600000Y-21200000I-3200000J0D01*
G01*
X118600000Y-63200000D02*
G75*
G03X118600000Y-63200000I-3200000J0D01*
G01*
X53600000Y-63200000D02*
G75*
G03X53600000Y-63200000I-3200000J0D01*
G01*
X53600000Y-21200000D02*
G75*
G03X53600000Y-21200000I-3200000J0D01*
G01*
M02*
