M48
; DRILL file {KiCad 5.1.4-e60b266~84~ubuntu18.04.1} date ter 29 out 2019 18:19:47 -03
; FORMAT={-:-/ absolute / inch / decimal}
; #@! TF.CreationDate,2019-10-29T18:19:47-03:00
; #@! TF.GenerationSoftware,Kicad,Pcbnew,5.1.4-e60b266~84~ubuntu18.04.1
; #@! TF.FileFunction,Plated,1,2,PTH
FMAT,2
INCH
T1C0.0079
T2C0.0276
T3C0.0315
T4C0.0354
T5C0.0394
T6C0.0551
T7C0.0591
T8C0.0630
%
G90
G05
T1
X4.7744Y-6.2988
X4.7744Y-6.35
X4.7744Y-6.4012
X4.8256Y-6.2988
X4.8256Y-6.35
X4.8256Y-6.4012
T2
X6.0551Y-6.3937
X6.0594Y-6.3075
T3
X4.311Y-7.1181
X4.5276Y-5.7677
X4.6016Y-6.8416
X4.65Y-6.6404
X4.7011Y-6.5736
X4.86Y-6.82
X4.9844Y-6.4008
X4.9914Y-6.475
X5.975Y-5.8
X4.77Y-6.91
X4.77Y-7.0084
X5.4136Y-6.302
X5.4136Y-6.4004
X4.9961Y-6.91
X4.9961Y-7.0084
X5.6386Y-6.302
X5.6386Y-6.4004
T4
X6.6674Y-6.5777
X6.6674Y-6.6777
X6.6674Y-6.7777
X6.6674Y-6.8777
X6.7674Y-6.6277
X6.7674Y-6.7277
X6.7674Y-6.8277
X6.7674Y-6.9277
X6.6674Y-5.7581
X6.6674Y-5.8581
X6.6674Y-5.9581
X6.6674Y-6.0581
X6.7674Y-5.8081
X6.7674Y-5.9081
X6.7674Y-6.0081
X6.7674Y-6.1081
T5
X5.102Y-5.8
X5.85Y-5.8
T6
X3.9116Y-6.4313
X3.9116Y-6.6313
X3.9134Y-5.9232
X3.9134Y-6.1232
T7
X4.255Y-5.756
X4.255Y-6.64
T8
X6.8973Y-6.4476
X6.8973Y-7.0578
X6.8973Y-5.628
X6.8973Y-6.2382
T0
M30
