M48
; DRILL file {KiCad 5.1.4-e60b266~84~ubuntu18.04.1} date ter 29 out 2019 18:36:47 -03
; FORMAT={-:-/ absolute / inch / decimal}
; #@! TF.CreationDate,2019-10-29T18:36:47-03:00
; #@! TF.GenerationSoftware,Kicad,Pcbnew,5.1.4-e60b266~84~ubuntu18.04.1
; #@! TF.FileFunction,NonPlated,1,2,NPTH
FMAT,2
INCH
T1C0.1260
%
G90
G05
T1
X6.5154Y-5.8951
X6.5154Y-6.3451
X2.1846Y-3.4541
X2.1846Y-3.9041
X6.5154Y-1.8328
X6.5154Y-2.2828
X2.1846Y-1.0132
X2.1846Y-1.4632
X2.9422Y-0.8255
X9.832Y-4.92
X6.5154Y-3.4541
X6.5154Y-3.9041
X6.5154Y-1.0132
X6.5154Y-1.4632
X2.1846Y-5.8951
X2.1846Y-6.3451
X5.5013Y-3.2665
X9.832Y-5.7074
X9.832Y-0.8255
X2.9422Y-2.4791
X7.2729Y-3.2665
X5.5013Y-4.92
X9.832Y-7.3609
X5.5013Y-5.7074
X7.2729Y-4.92
X2.9422Y-3.2665
X2.1846Y-6.7147
X2.1846Y-7.1647
X2.1846Y-1.8328
X2.1846Y-2.2828
X6.5154Y-4.2737
X6.5154Y-4.7237
X7.2729Y-5.7074
X2.9422Y-7.3609
X2.1846Y-4.2737
X2.1846Y-4.7237
X9.832Y-2.4791
X5.5013Y-0.8255
X9.832Y-3.2665
X2.9422Y-4.92
X7.2729Y-7.3609
X5.5013Y-2.4791
X7.2729Y-0.8255
X5.5013Y-7.3609
X2.9422Y-5.7074
X6.5154Y-6.7147
X6.5154Y-7.1647
X7.2729Y-2.4791
T0
M30
