G04 #@! TF.GenerationSoftware,KiCad,Pcbnew,5.1.4-e60b266~84~ubuntu18.04.1*
G04 #@! TF.CreationDate,2019-10-29T18:19:43-03:00*
G04 #@! TF.ProjectId,fonte_18V,666f6e74-655f-4313-9856-2e6b69636164,rev?*
G04 #@! TF.SameCoordinates,Original*
G04 #@! TF.FileFunction,Other,User*
%FSLAX46Y46*%
G04 Gerber Fmt 4.6, Leading zero omitted, Abs format (unit mm)*
G04 Created by KiCad (PCBNEW 5.1.4-e60b266~84~ubuntu18.04.1) date 2019-10-29 18:19:43*
%MOMM*%
%LPD*%
G04 APERTURE LIST*
%ADD10C,0.050000*%
G04 APERTURE END LIST*
D10*
X110850000Y-177900000D02*
X110850000Y-181600000D01*
X112750000Y-177900000D02*
X110850000Y-177900000D01*
X112750000Y-181600000D02*
X112750000Y-177900000D01*
X110850000Y-181600000D02*
X112750000Y-181600000D01*
X128585000Y-161235000D02*
X128585000Y-157535000D01*
X126685000Y-161235000D02*
X128585000Y-161235000D01*
X126685000Y-157535000D02*
X126685000Y-161235000D01*
X128585000Y-157535000D02*
X126685000Y-157535000D01*
X127955000Y-161980000D02*
X127955000Y-165680000D01*
X129855000Y-161980000D02*
X127955000Y-161980000D01*
X129855000Y-165680000D02*
X129855000Y-161980000D01*
X127955000Y-165680000D02*
X129855000Y-165680000D01*
X115255000Y-163885000D02*
X115255000Y-167585000D01*
X117155000Y-163885000D02*
X115255000Y-163885000D01*
X117155000Y-167585000D02*
X117155000Y-163885000D01*
X115255000Y-167585000D02*
X117155000Y-167585000D01*
X113345000Y-167585000D02*
X113345000Y-163885000D01*
X111445000Y-167585000D02*
X113345000Y-167585000D01*
X111445000Y-163885000D02*
X111445000Y-167585000D01*
X113345000Y-163885000D02*
X111445000Y-163885000D01*
X113800000Y-178100000D02*
X113800000Y-181600000D01*
X117200000Y-178100000D02*
X113800000Y-178100000D01*
X117200000Y-181600000D02*
X117200000Y-178100000D01*
X113800000Y-181600000D02*
X117200000Y-181600000D01*
X148315000Y-163090000D02*
X148315000Y-159390000D01*
X146415000Y-163090000D02*
X148315000Y-163090000D01*
X146415000Y-159390000D02*
X146415000Y-163090000D01*
X148315000Y-159390000D02*
X146415000Y-159390000D01*
X152125000Y-163090000D02*
X152125000Y-159390000D01*
X150225000Y-163090000D02*
X152125000Y-163090000D01*
X150225000Y-159390000D02*
X150225000Y-163090000D01*
X152125000Y-159390000D02*
X150225000Y-159390000D01*
X111440000Y-177110000D02*
X111440000Y-173410000D01*
X109540000Y-177110000D02*
X111440000Y-177110000D01*
X109540000Y-173410000D02*
X109540000Y-177110000D01*
X111440000Y-173410000D02*
X109540000Y-173410000D01*
X113980000Y-177110000D02*
X113980000Y-173410000D01*
X112080000Y-177110000D02*
X113980000Y-177110000D01*
X112080000Y-173410000D02*
X112080000Y-177110000D01*
X113980000Y-173410000D02*
X112080000Y-173410000D01*
X131125000Y-161235000D02*
X131125000Y-157535000D01*
X129225000Y-161235000D02*
X131125000Y-161235000D01*
X129225000Y-157535000D02*
X129225000Y-161235000D01*
X131125000Y-157535000D02*
X129225000Y-157535000D01*
M02*
