G04 #@! TF.GenerationSoftware,KiCad,Pcbnew,5.1.4-e60b266~84~ubuntu18.04.1*
G04 #@! TF.CreationDate,2019-10-29T18:19:43-03:00*
G04 #@! TF.ProjectId,fonte_18V,666f6e74-655f-4313-9856-2e6b69636164,rev?*
G04 #@! TF.SameCoordinates,Original*
G04 #@! TF.FileFunction,Copper,L2,Bot*
G04 #@! TF.FilePolarity,Positive*
%FSLAX46Y46*%
G04 Gerber Fmt 4.6, Leading zero omitted, Abs format (unit mm)*
G04 Created by KiCad (PCBNEW 5.1.4-e60b266~84~ubuntu18.04.1) date 2019-10-29 18:19:43*
%MOMM*%
%LPD*%
G04 APERTURE LIST*
%ADD10C,3.650000*%
%ADD11R,1.500000X1.500000*%
%ADD12C,1.500000*%
%ADD13C,2.500000*%
%ADD14C,3.500000*%
%ADD15C,0.100000*%
%ADD16C,1.150000*%
%ADD17C,1.800000*%
%ADD18C,0.500000*%
%ADD19R,0.900000X0.800000*%
%ADD20C,2.000000*%
%ADD21O,3.600000X2.080000*%
%ADD22C,2.080000*%
%ADD23C,1.600000*%
%ADD24R,1.600000X1.600000*%
%ADD25C,1.200000*%
%ADD26C,1.350000*%
%ADD27C,0.508000*%
%ADD28C,0.762000*%
%ADD29C,1.016000*%
%ADD30C,0.254000*%
G04 APERTURE END LIST*
D10*
X178242000Y-144985000D03*
X178242000Y-156415000D03*
D11*
X171892000Y-155145000D03*
D12*
X169352000Y-153875000D03*
X171892000Y-152605000D03*
X169352000Y-151335000D03*
X171892000Y-150065000D03*
X169352000Y-148795000D03*
X171892000Y-147525000D03*
X169352000Y-146255000D03*
D13*
X175192000Y-158450000D03*
X175192000Y-142950000D03*
D10*
X178242000Y-165803000D03*
X178242000Y-177233000D03*
D11*
X171892000Y-175963000D03*
D12*
X169352000Y-174693000D03*
X171892000Y-173423000D03*
X169352000Y-172153000D03*
X171892000Y-170883000D03*
X169352000Y-169613000D03*
X171892000Y-168343000D03*
X169352000Y-167073000D03*
D13*
X175192000Y-179268000D03*
X175192000Y-163768000D03*
D14*
X108077000Y-146202400D03*
X108077000Y-168656000D03*
D15*
G36*
X112274505Y-178151204D02*
G01*
X112298773Y-178154804D01*
X112322572Y-178160765D01*
X112345671Y-178169030D01*
X112367850Y-178179520D01*
X112388893Y-178192132D01*
X112408599Y-178206747D01*
X112426777Y-178223223D01*
X112443253Y-178241401D01*
X112457868Y-178261107D01*
X112470480Y-178282150D01*
X112480970Y-178304329D01*
X112489235Y-178327428D01*
X112495196Y-178351227D01*
X112498796Y-178375495D01*
X112500000Y-178399999D01*
X112500000Y-179050001D01*
X112498796Y-179074505D01*
X112495196Y-179098773D01*
X112489235Y-179122572D01*
X112480970Y-179145671D01*
X112470480Y-179167850D01*
X112457868Y-179188893D01*
X112443253Y-179208599D01*
X112426777Y-179226777D01*
X112408599Y-179243253D01*
X112388893Y-179257868D01*
X112367850Y-179270480D01*
X112345671Y-179280970D01*
X112322572Y-179289235D01*
X112298773Y-179295196D01*
X112274505Y-179298796D01*
X112250001Y-179300000D01*
X111349999Y-179300000D01*
X111325495Y-179298796D01*
X111301227Y-179295196D01*
X111277428Y-179289235D01*
X111254329Y-179280970D01*
X111232150Y-179270480D01*
X111211107Y-179257868D01*
X111191401Y-179243253D01*
X111173223Y-179226777D01*
X111156747Y-179208599D01*
X111142132Y-179188893D01*
X111129520Y-179167850D01*
X111119030Y-179145671D01*
X111110765Y-179122572D01*
X111104804Y-179098773D01*
X111101204Y-179074505D01*
X111100000Y-179050001D01*
X111100000Y-178399999D01*
X111101204Y-178375495D01*
X111104804Y-178351227D01*
X111110765Y-178327428D01*
X111119030Y-178304329D01*
X111129520Y-178282150D01*
X111142132Y-178261107D01*
X111156747Y-178241401D01*
X111173223Y-178223223D01*
X111191401Y-178206747D01*
X111211107Y-178192132D01*
X111232150Y-178179520D01*
X111254329Y-178169030D01*
X111277428Y-178160765D01*
X111301227Y-178154804D01*
X111325495Y-178151204D01*
X111349999Y-178150000D01*
X112250001Y-178150000D01*
X112274505Y-178151204D01*
X112274505Y-178151204D01*
G37*
D16*
X111800000Y-178725000D03*
D15*
G36*
X112274505Y-180201204D02*
G01*
X112298773Y-180204804D01*
X112322572Y-180210765D01*
X112345671Y-180219030D01*
X112367850Y-180229520D01*
X112388893Y-180242132D01*
X112408599Y-180256747D01*
X112426777Y-180273223D01*
X112443253Y-180291401D01*
X112457868Y-180311107D01*
X112470480Y-180332150D01*
X112480970Y-180354329D01*
X112489235Y-180377428D01*
X112495196Y-180401227D01*
X112498796Y-180425495D01*
X112500000Y-180449999D01*
X112500000Y-181100001D01*
X112498796Y-181124505D01*
X112495196Y-181148773D01*
X112489235Y-181172572D01*
X112480970Y-181195671D01*
X112470480Y-181217850D01*
X112457868Y-181238893D01*
X112443253Y-181258599D01*
X112426777Y-181276777D01*
X112408599Y-181293253D01*
X112388893Y-181307868D01*
X112367850Y-181320480D01*
X112345671Y-181330970D01*
X112322572Y-181339235D01*
X112298773Y-181345196D01*
X112274505Y-181348796D01*
X112250001Y-181350000D01*
X111349999Y-181350000D01*
X111325495Y-181348796D01*
X111301227Y-181345196D01*
X111277428Y-181339235D01*
X111254329Y-181330970D01*
X111232150Y-181320480D01*
X111211107Y-181307868D01*
X111191401Y-181293253D01*
X111173223Y-181276777D01*
X111156747Y-181258599D01*
X111142132Y-181238893D01*
X111129520Y-181217850D01*
X111119030Y-181195671D01*
X111110765Y-181172572D01*
X111104804Y-181148773D01*
X111101204Y-181124505D01*
X111100000Y-181100001D01*
X111100000Y-180449999D01*
X111101204Y-180425495D01*
X111104804Y-180401227D01*
X111110765Y-180377428D01*
X111119030Y-180354329D01*
X111129520Y-180332150D01*
X111142132Y-180311107D01*
X111156747Y-180291401D01*
X111173223Y-180273223D01*
X111191401Y-180256747D01*
X111211107Y-180242132D01*
X111232150Y-180229520D01*
X111254329Y-180219030D01*
X111277428Y-180210765D01*
X111301227Y-180204804D01*
X111325495Y-180201204D01*
X111349999Y-180200000D01*
X112250001Y-180200000D01*
X112274505Y-180201204D01*
X112274505Y-180201204D01*
G37*
D16*
X111800000Y-180775000D03*
D15*
G36*
X122594504Y-159741204D02*
G01*
X122618773Y-159744804D01*
X122642571Y-159750765D01*
X122665671Y-159759030D01*
X122687849Y-159769520D01*
X122708893Y-159782133D01*
X122728598Y-159796747D01*
X122746777Y-159813223D01*
X122763253Y-159831402D01*
X122777867Y-159851107D01*
X122790480Y-159872151D01*
X122800970Y-159894329D01*
X122809235Y-159917429D01*
X122815196Y-159941227D01*
X122818796Y-159965496D01*
X122820000Y-159990000D01*
X122820000Y-162590000D01*
X122818796Y-162614504D01*
X122815196Y-162638773D01*
X122809235Y-162662571D01*
X122800970Y-162685671D01*
X122790480Y-162707849D01*
X122777867Y-162728893D01*
X122763253Y-162748598D01*
X122746777Y-162766777D01*
X122728598Y-162783253D01*
X122708893Y-162797867D01*
X122687849Y-162810480D01*
X122665671Y-162820970D01*
X122642571Y-162829235D01*
X122618773Y-162835196D01*
X122594504Y-162838796D01*
X122570000Y-162840000D01*
X121270000Y-162840000D01*
X121245496Y-162838796D01*
X121221227Y-162835196D01*
X121197429Y-162829235D01*
X121174329Y-162820970D01*
X121152151Y-162810480D01*
X121131107Y-162797867D01*
X121111402Y-162783253D01*
X121093223Y-162766777D01*
X121076747Y-162748598D01*
X121062133Y-162728893D01*
X121049520Y-162707849D01*
X121039030Y-162685671D01*
X121030765Y-162662571D01*
X121024804Y-162638773D01*
X121021204Y-162614504D01*
X121020000Y-162590000D01*
X121020000Y-159990000D01*
X121021204Y-159965496D01*
X121024804Y-159941227D01*
X121030765Y-159917429D01*
X121039030Y-159894329D01*
X121049520Y-159872151D01*
X121062133Y-159851107D01*
X121076747Y-159831402D01*
X121093223Y-159813223D01*
X121111402Y-159796747D01*
X121131107Y-159782133D01*
X121152151Y-159769520D01*
X121174329Y-159759030D01*
X121197429Y-159750765D01*
X121221227Y-159744804D01*
X121245496Y-159741204D01*
X121270000Y-159740000D01*
X122570000Y-159740000D01*
X122594504Y-159741204D01*
X122594504Y-159741204D01*
G37*
D17*
X121920000Y-161290000D03*
D18*
X122570000Y-162590000D03*
X121270000Y-162590000D03*
X122570000Y-161290000D03*
X121270000Y-161290000D03*
X122570000Y-159990000D03*
X121270000Y-159990000D03*
D15*
G36*
X128109505Y-159836204D02*
G01*
X128133773Y-159839804D01*
X128157572Y-159845765D01*
X128180671Y-159854030D01*
X128202850Y-159864520D01*
X128223893Y-159877132D01*
X128243599Y-159891747D01*
X128261777Y-159908223D01*
X128278253Y-159926401D01*
X128292868Y-159946107D01*
X128305480Y-159967150D01*
X128315970Y-159989329D01*
X128324235Y-160012428D01*
X128330196Y-160036227D01*
X128333796Y-160060495D01*
X128335000Y-160084999D01*
X128335000Y-160735001D01*
X128333796Y-160759505D01*
X128330196Y-160783773D01*
X128324235Y-160807572D01*
X128315970Y-160830671D01*
X128305480Y-160852850D01*
X128292868Y-160873893D01*
X128278253Y-160893599D01*
X128261777Y-160911777D01*
X128243599Y-160928253D01*
X128223893Y-160942868D01*
X128202850Y-160955480D01*
X128180671Y-160965970D01*
X128157572Y-160974235D01*
X128133773Y-160980196D01*
X128109505Y-160983796D01*
X128085001Y-160985000D01*
X127184999Y-160985000D01*
X127160495Y-160983796D01*
X127136227Y-160980196D01*
X127112428Y-160974235D01*
X127089329Y-160965970D01*
X127067150Y-160955480D01*
X127046107Y-160942868D01*
X127026401Y-160928253D01*
X127008223Y-160911777D01*
X126991747Y-160893599D01*
X126977132Y-160873893D01*
X126964520Y-160852850D01*
X126954030Y-160830671D01*
X126945765Y-160807572D01*
X126939804Y-160783773D01*
X126936204Y-160759505D01*
X126935000Y-160735001D01*
X126935000Y-160084999D01*
X126936204Y-160060495D01*
X126939804Y-160036227D01*
X126945765Y-160012428D01*
X126954030Y-159989329D01*
X126964520Y-159967150D01*
X126977132Y-159946107D01*
X126991747Y-159926401D01*
X127008223Y-159908223D01*
X127026401Y-159891747D01*
X127046107Y-159877132D01*
X127067150Y-159864520D01*
X127089329Y-159854030D01*
X127112428Y-159845765D01*
X127136227Y-159839804D01*
X127160495Y-159836204D01*
X127184999Y-159835000D01*
X128085001Y-159835000D01*
X128109505Y-159836204D01*
X128109505Y-159836204D01*
G37*
D16*
X127635000Y-160410000D03*
D15*
G36*
X128109505Y-157786204D02*
G01*
X128133773Y-157789804D01*
X128157572Y-157795765D01*
X128180671Y-157804030D01*
X128202850Y-157814520D01*
X128223893Y-157827132D01*
X128243599Y-157841747D01*
X128261777Y-157858223D01*
X128278253Y-157876401D01*
X128292868Y-157896107D01*
X128305480Y-157917150D01*
X128315970Y-157939329D01*
X128324235Y-157962428D01*
X128330196Y-157986227D01*
X128333796Y-158010495D01*
X128335000Y-158034999D01*
X128335000Y-158685001D01*
X128333796Y-158709505D01*
X128330196Y-158733773D01*
X128324235Y-158757572D01*
X128315970Y-158780671D01*
X128305480Y-158802850D01*
X128292868Y-158823893D01*
X128278253Y-158843599D01*
X128261777Y-158861777D01*
X128243599Y-158878253D01*
X128223893Y-158892868D01*
X128202850Y-158905480D01*
X128180671Y-158915970D01*
X128157572Y-158924235D01*
X128133773Y-158930196D01*
X128109505Y-158933796D01*
X128085001Y-158935000D01*
X127184999Y-158935000D01*
X127160495Y-158933796D01*
X127136227Y-158930196D01*
X127112428Y-158924235D01*
X127089329Y-158915970D01*
X127067150Y-158905480D01*
X127046107Y-158892868D01*
X127026401Y-158878253D01*
X127008223Y-158861777D01*
X126991747Y-158843599D01*
X126977132Y-158823893D01*
X126964520Y-158802850D01*
X126954030Y-158780671D01*
X126945765Y-158757572D01*
X126939804Y-158733773D01*
X126936204Y-158709505D01*
X126935000Y-158685001D01*
X126935000Y-158034999D01*
X126936204Y-158010495D01*
X126939804Y-157986227D01*
X126945765Y-157962428D01*
X126954030Y-157939329D01*
X126964520Y-157917150D01*
X126977132Y-157896107D01*
X126991747Y-157876401D01*
X127008223Y-157858223D01*
X127026401Y-157841747D01*
X127046107Y-157827132D01*
X127067150Y-157814520D01*
X127089329Y-157804030D01*
X127112428Y-157795765D01*
X127136227Y-157789804D01*
X127160495Y-157786204D01*
X127184999Y-157785000D01*
X128085001Y-157785000D01*
X128109505Y-157786204D01*
X128109505Y-157786204D01*
G37*
D16*
X127635000Y-158360000D03*
D15*
G36*
X129379505Y-162231204D02*
G01*
X129403773Y-162234804D01*
X129427572Y-162240765D01*
X129450671Y-162249030D01*
X129472850Y-162259520D01*
X129493893Y-162272132D01*
X129513599Y-162286747D01*
X129531777Y-162303223D01*
X129548253Y-162321401D01*
X129562868Y-162341107D01*
X129575480Y-162362150D01*
X129585970Y-162384329D01*
X129594235Y-162407428D01*
X129600196Y-162431227D01*
X129603796Y-162455495D01*
X129605000Y-162479999D01*
X129605000Y-163130001D01*
X129603796Y-163154505D01*
X129600196Y-163178773D01*
X129594235Y-163202572D01*
X129585970Y-163225671D01*
X129575480Y-163247850D01*
X129562868Y-163268893D01*
X129548253Y-163288599D01*
X129531777Y-163306777D01*
X129513599Y-163323253D01*
X129493893Y-163337868D01*
X129472850Y-163350480D01*
X129450671Y-163360970D01*
X129427572Y-163369235D01*
X129403773Y-163375196D01*
X129379505Y-163378796D01*
X129355001Y-163380000D01*
X128454999Y-163380000D01*
X128430495Y-163378796D01*
X128406227Y-163375196D01*
X128382428Y-163369235D01*
X128359329Y-163360970D01*
X128337150Y-163350480D01*
X128316107Y-163337868D01*
X128296401Y-163323253D01*
X128278223Y-163306777D01*
X128261747Y-163288599D01*
X128247132Y-163268893D01*
X128234520Y-163247850D01*
X128224030Y-163225671D01*
X128215765Y-163202572D01*
X128209804Y-163178773D01*
X128206204Y-163154505D01*
X128205000Y-163130001D01*
X128205000Y-162479999D01*
X128206204Y-162455495D01*
X128209804Y-162431227D01*
X128215765Y-162407428D01*
X128224030Y-162384329D01*
X128234520Y-162362150D01*
X128247132Y-162341107D01*
X128261747Y-162321401D01*
X128278223Y-162303223D01*
X128296401Y-162286747D01*
X128316107Y-162272132D01*
X128337150Y-162259520D01*
X128359329Y-162249030D01*
X128382428Y-162240765D01*
X128406227Y-162234804D01*
X128430495Y-162231204D01*
X128454999Y-162230000D01*
X129355001Y-162230000D01*
X129379505Y-162231204D01*
X129379505Y-162231204D01*
G37*
D16*
X128905000Y-162805000D03*
D15*
G36*
X129379505Y-164281204D02*
G01*
X129403773Y-164284804D01*
X129427572Y-164290765D01*
X129450671Y-164299030D01*
X129472850Y-164309520D01*
X129493893Y-164322132D01*
X129513599Y-164336747D01*
X129531777Y-164353223D01*
X129548253Y-164371401D01*
X129562868Y-164391107D01*
X129575480Y-164412150D01*
X129585970Y-164434329D01*
X129594235Y-164457428D01*
X129600196Y-164481227D01*
X129603796Y-164505495D01*
X129605000Y-164529999D01*
X129605000Y-165180001D01*
X129603796Y-165204505D01*
X129600196Y-165228773D01*
X129594235Y-165252572D01*
X129585970Y-165275671D01*
X129575480Y-165297850D01*
X129562868Y-165318893D01*
X129548253Y-165338599D01*
X129531777Y-165356777D01*
X129513599Y-165373253D01*
X129493893Y-165387868D01*
X129472850Y-165400480D01*
X129450671Y-165410970D01*
X129427572Y-165419235D01*
X129403773Y-165425196D01*
X129379505Y-165428796D01*
X129355001Y-165430000D01*
X128454999Y-165430000D01*
X128430495Y-165428796D01*
X128406227Y-165425196D01*
X128382428Y-165419235D01*
X128359329Y-165410970D01*
X128337150Y-165400480D01*
X128316107Y-165387868D01*
X128296401Y-165373253D01*
X128278223Y-165356777D01*
X128261747Y-165338599D01*
X128247132Y-165318893D01*
X128234520Y-165297850D01*
X128224030Y-165275671D01*
X128215765Y-165252572D01*
X128209804Y-165228773D01*
X128206204Y-165204505D01*
X128205000Y-165180001D01*
X128205000Y-164529999D01*
X128206204Y-164505495D01*
X128209804Y-164481227D01*
X128215765Y-164457428D01*
X128224030Y-164434329D01*
X128234520Y-164412150D01*
X128247132Y-164391107D01*
X128261747Y-164371401D01*
X128278223Y-164353223D01*
X128296401Y-164336747D01*
X128316107Y-164322132D01*
X128337150Y-164309520D01*
X128359329Y-164299030D01*
X128382428Y-164290765D01*
X128406227Y-164284804D01*
X128430495Y-164281204D01*
X128454999Y-164280000D01*
X129355001Y-164280000D01*
X129379505Y-164281204D01*
X129379505Y-164281204D01*
G37*
D16*
X128905000Y-164855000D03*
D15*
G36*
X116679505Y-164136204D02*
G01*
X116703773Y-164139804D01*
X116727572Y-164145765D01*
X116750671Y-164154030D01*
X116772850Y-164164520D01*
X116793893Y-164177132D01*
X116813599Y-164191747D01*
X116831777Y-164208223D01*
X116848253Y-164226401D01*
X116862868Y-164246107D01*
X116875480Y-164267150D01*
X116885970Y-164289329D01*
X116894235Y-164312428D01*
X116900196Y-164336227D01*
X116903796Y-164360495D01*
X116905000Y-164384999D01*
X116905000Y-165035001D01*
X116903796Y-165059505D01*
X116900196Y-165083773D01*
X116894235Y-165107572D01*
X116885970Y-165130671D01*
X116875480Y-165152850D01*
X116862868Y-165173893D01*
X116848253Y-165193599D01*
X116831777Y-165211777D01*
X116813599Y-165228253D01*
X116793893Y-165242868D01*
X116772850Y-165255480D01*
X116750671Y-165265970D01*
X116727572Y-165274235D01*
X116703773Y-165280196D01*
X116679505Y-165283796D01*
X116655001Y-165285000D01*
X115754999Y-165285000D01*
X115730495Y-165283796D01*
X115706227Y-165280196D01*
X115682428Y-165274235D01*
X115659329Y-165265970D01*
X115637150Y-165255480D01*
X115616107Y-165242868D01*
X115596401Y-165228253D01*
X115578223Y-165211777D01*
X115561747Y-165193599D01*
X115547132Y-165173893D01*
X115534520Y-165152850D01*
X115524030Y-165130671D01*
X115515765Y-165107572D01*
X115509804Y-165083773D01*
X115506204Y-165059505D01*
X115505000Y-165035001D01*
X115505000Y-164384999D01*
X115506204Y-164360495D01*
X115509804Y-164336227D01*
X115515765Y-164312428D01*
X115524030Y-164289329D01*
X115534520Y-164267150D01*
X115547132Y-164246107D01*
X115561747Y-164226401D01*
X115578223Y-164208223D01*
X115596401Y-164191747D01*
X115616107Y-164177132D01*
X115637150Y-164164520D01*
X115659329Y-164154030D01*
X115682428Y-164145765D01*
X115706227Y-164139804D01*
X115730495Y-164136204D01*
X115754999Y-164135000D01*
X116655001Y-164135000D01*
X116679505Y-164136204D01*
X116679505Y-164136204D01*
G37*
D16*
X116205000Y-164710000D03*
D15*
G36*
X116679505Y-166186204D02*
G01*
X116703773Y-166189804D01*
X116727572Y-166195765D01*
X116750671Y-166204030D01*
X116772850Y-166214520D01*
X116793893Y-166227132D01*
X116813599Y-166241747D01*
X116831777Y-166258223D01*
X116848253Y-166276401D01*
X116862868Y-166296107D01*
X116875480Y-166317150D01*
X116885970Y-166339329D01*
X116894235Y-166362428D01*
X116900196Y-166386227D01*
X116903796Y-166410495D01*
X116905000Y-166434999D01*
X116905000Y-167085001D01*
X116903796Y-167109505D01*
X116900196Y-167133773D01*
X116894235Y-167157572D01*
X116885970Y-167180671D01*
X116875480Y-167202850D01*
X116862868Y-167223893D01*
X116848253Y-167243599D01*
X116831777Y-167261777D01*
X116813599Y-167278253D01*
X116793893Y-167292868D01*
X116772850Y-167305480D01*
X116750671Y-167315970D01*
X116727572Y-167324235D01*
X116703773Y-167330196D01*
X116679505Y-167333796D01*
X116655001Y-167335000D01*
X115754999Y-167335000D01*
X115730495Y-167333796D01*
X115706227Y-167330196D01*
X115682428Y-167324235D01*
X115659329Y-167315970D01*
X115637150Y-167305480D01*
X115616107Y-167292868D01*
X115596401Y-167278253D01*
X115578223Y-167261777D01*
X115561747Y-167243599D01*
X115547132Y-167223893D01*
X115534520Y-167202850D01*
X115524030Y-167180671D01*
X115515765Y-167157572D01*
X115509804Y-167133773D01*
X115506204Y-167109505D01*
X115505000Y-167085001D01*
X115505000Y-166434999D01*
X115506204Y-166410495D01*
X115509804Y-166386227D01*
X115515765Y-166362428D01*
X115524030Y-166339329D01*
X115534520Y-166317150D01*
X115547132Y-166296107D01*
X115561747Y-166276401D01*
X115578223Y-166258223D01*
X115596401Y-166241747D01*
X115616107Y-166227132D01*
X115637150Y-166214520D01*
X115659329Y-166204030D01*
X115682428Y-166195765D01*
X115706227Y-166189804D01*
X115730495Y-166186204D01*
X115754999Y-166185000D01*
X116655001Y-166185000D01*
X116679505Y-166186204D01*
X116679505Y-166186204D01*
G37*
D16*
X116205000Y-166760000D03*
D15*
G36*
X112869505Y-166186204D02*
G01*
X112893773Y-166189804D01*
X112917572Y-166195765D01*
X112940671Y-166204030D01*
X112962850Y-166214520D01*
X112983893Y-166227132D01*
X113003599Y-166241747D01*
X113021777Y-166258223D01*
X113038253Y-166276401D01*
X113052868Y-166296107D01*
X113065480Y-166317150D01*
X113075970Y-166339329D01*
X113084235Y-166362428D01*
X113090196Y-166386227D01*
X113093796Y-166410495D01*
X113095000Y-166434999D01*
X113095000Y-167085001D01*
X113093796Y-167109505D01*
X113090196Y-167133773D01*
X113084235Y-167157572D01*
X113075970Y-167180671D01*
X113065480Y-167202850D01*
X113052868Y-167223893D01*
X113038253Y-167243599D01*
X113021777Y-167261777D01*
X113003599Y-167278253D01*
X112983893Y-167292868D01*
X112962850Y-167305480D01*
X112940671Y-167315970D01*
X112917572Y-167324235D01*
X112893773Y-167330196D01*
X112869505Y-167333796D01*
X112845001Y-167335000D01*
X111944999Y-167335000D01*
X111920495Y-167333796D01*
X111896227Y-167330196D01*
X111872428Y-167324235D01*
X111849329Y-167315970D01*
X111827150Y-167305480D01*
X111806107Y-167292868D01*
X111786401Y-167278253D01*
X111768223Y-167261777D01*
X111751747Y-167243599D01*
X111737132Y-167223893D01*
X111724520Y-167202850D01*
X111714030Y-167180671D01*
X111705765Y-167157572D01*
X111699804Y-167133773D01*
X111696204Y-167109505D01*
X111695000Y-167085001D01*
X111695000Y-166434999D01*
X111696204Y-166410495D01*
X111699804Y-166386227D01*
X111705765Y-166362428D01*
X111714030Y-166339329D01*
X111724520Y-166317150D01*
X111737132Y-166296107D01*
X111751747Y-166276401D01*
X111768223Y-166258223D01*
X111786401Y-166241747D01*
X111806107Y-166227132D01*
X111827150Y-166214520D01*
X111849329Y-166204030D01*
X111872428Y-166195765D01*
X111896227Y-166189804D01*
X111920495Y-166186204D01*
X111944999Y-166185000D01*
X112845001Y-166185000D01*
X112869505Y-166186204D01*
X112869505Y-166186204D01*
G37*
D16*
X112395000Y-166760000D03*
D15*
G36*
X112869505Y-164136204D02*
G01*
X112893773Y-164139804D01*
X112917572Y-164145765D01*
X112940671Y-164154030D01*
X112962850Y-164164520D01*
X112983893Y-164177132D01*
X113003599Y-164191747D01*
X113021777Y-164208223D01*
X113038253Y-164226401D01*
X113052868Y-164246107D01*
X113065480Y-164267150D01*
X113075970Y-164289329D01*
X113084235Y-164312428D01*
X113090196Y-164336227D01*
X113093796Y-164360495D01*
X113095000Y-164384999D01*
X113095000Y-165035001D01*
X113093796Y-165059505D01*
X113090196Y-165083773D01*
X113084235Y-165107572D01*
X113075970Y-165130671D01*
X113065480Y-165152850D01*
X113052868Y-165173893D01*
X113038253Y-165193599D01*
X113021777Y-165211777D01*
X113003599Y-165228253D01*
X112983893Y-165242868D01*
X112962850Y-165255480D01*
X112940671Y-165265970D01*
X112917572Y-165274235D01*
X112893773Y-165280196D01*
X112869505Y-165283796D01*
X112845001Y-165285000D01*
X111944999Y-165285000D01*
X111920495Y-165283796D01*
X111896227Y-165280196D01*
X111872428Y-165274235D01*
X111849329Y-165265970D01*
X111827150Y-165255480D01*
X111806107Y-165242868D01*
X111786401Y-165228253D01*
X111768223Y-165211777D01*
X111751747Y-165193599D01*
X111737132Y-165173893D01*
X111724520Y-165152850D01*
X111714030Y-165130671D01*
X111705765Y-165107572D01*
X111699804Y-165083773D01*
X111696204Y-165059505D01*
X111695000Y-165035001D01*
X111695000Y-164384999D01*
X111696204Y-164360495D01*
X111699804Y-164336227D01*
X111705765Y-164312428D01*
X111714030Y-164289329D01*
X111724520Y-164267150D01*
X111737132Y-164246107D01*
X111751747Y-164226401D01*
X111768223Y-164208223D01*
X111786401Y-164191747D01*
X111806107Y-164177132D01*
X111827150Y-164164520D01*
X111849329Y-164154030D01*
X111872428Y-164145765D01*
X111896227Y-164139804D01*
X111920495Y-164136204D01*
X111944999Y-164135000D01*
X112845001Y-164135000D01*
X112869505Y-164136204D01*
X112869505Y-164136204D01*
G37*
D16*
X112395000Y-164710000D03*
D19*
X116500000Y-179850000D03*
X114500000Y-178900000D03*
X114500000Y-180800000D03*
D20*
X129590000Y-147320000D03*
X148590000Y-147320000D03*
D21*
X99400000Y-155530000D03*
D15*
G36*
X100974505Y-149411204D02*
G01*
X100998773Y-149414804D01*
X101022572Y-149420765D01*
X101045671Y-149429030D01*
X101067850Y-149439520D01*
X101088893Y-149452132D01*
X101108599Y-149466747D01*
X101126777Y-149483223D01*
X101143253Y-149501401D01*
X101157868Y-149521107D01*
X101170480Y-149542150D01*
X101180970Y-149564329D01*
X101189235Y-149587428D01*
X101195196Y-149611227D01*
X101198796Y-149635495D01*
X101200000Y-149659999D01*
X101200000Y-151240001D01*
X101198796Y-151264505D01*
X101195196Y-151288773D01*
X101189235Y-151312572D01*
X101180970Y-151335671D01*
X101170480Y-151357850D01*
X101157868Y-151378893D01*
X101143253Y-151398599D01*
X101126777Y-151416777D01*
X101108599Y-151433253D01*
X101088893Y-151447868D01*
X101067850Y-151460480D01*
X101045671Y-151470970D01*
X101022572Y-151479235D01*
X100998773Y-151485196D01*
X100974505Y-151488796D01*
X100950001Y-151490000D01*
X97849999Y-151490000D01*
X97825495Y-151488796D01*
X97801227Y-151485196D01*
X97777428Y-151479235D01*
X97754329Y-151470970D01*
X97732150Y-151460480D01*
X97711107Y-151447868D01*
X97691401Y-151433253D01*
X97673223Y-151416777D01*
X97656747Y-151398599D01*
X97642132Y-151378893D01*
X97629520Y-151357850D01*
X97619030Y-151335671D01*
X97610765Y-151312572D01*
X97604804Y-151288773D01*
X97601204Y-151264505D01*
X97600000Y-151240001D01*
X97600000Y-149659999D01*
X97601204Y-149635495D01*
X97604804Y-149611227D01*
X97610765Y-149587428D01*
X97619030Y-149564329D01*
X97629520Y-149542150D01*
X97642132Y-149521107D01*
X97656747Y-149501401D01*
X97673223Y-149483223D01*
X97691401Y-149466747D01*
X97711107Y-149452132D01*
X97732150Y-149439520D01*
X97754329Y-149429030D01*
X97777428Y-149420765D01*
X97801227Y-149414804D01*
X97825495Y-149411204D01*
X97849999Y-149410000D01*
X100950001Y-149410000D01*
X100974505Y-149411204D01*
X100974505Y-149411204D01*
G37*
D22*
X99400000Y-150450000D03*
D21*
X99355000Y-168435000D03*
D15*
G36*
X100929505Y-162316204D02*
G01*
X100953773Y-162319804D01*
X100977572Y-162325765D01*
X101000671Y-162334030D01*
X101022850Y-162344520D01*
X101043893Y-162357132D01*
X101063599Y-162371747D01*
X101081777Y-162388223D01*
X101098253Y-162406401D01*
X101112868Y-162426107D01*
X101125480Y-162447150D01*
X101135970Y-162469329D01*
X101144235Y-162492428D01*
X101150196Y-162516227D01*
X101153796Y-162540495D01*
X101155000Y-162564999D01*
X101155000Y-164145001D01*
X101153796Y-164169505D01*
X101150196Y-164193773D01*
X101144235Y-164217572D01*
X101135970Y-164240671D01*
X101125480Y-164262850D01*
X101112868Y-164283893D01*
X101098253Y-164303599D01*
X101081777Y-164321777D01*
X101063599Y-164338253D01*
X101043893Y-164352868D01*
X101022850Y-164365480D01*
X101000671Y-164375970D01*
X100977572Y-164384235D01*
X100953773Y-164390196D01*
X100929505Y-164393796D01*
X100905001Y-164395000D01*
X97804999Y-164395000D01*
X97780495Y-164393796D01*
X97756227Y-164390196D01*
X97732428Y-164384235D01*
X97709329Y-164375970D01*
X97687150Y-164365480D01*
X97666107Y-164352868D01*
X97646401Y-164338253D01*
X97628223Y-164321777D01*
X97611747Y-164303599D01*
X97597132Y-164283893D01*
X97584520Y-164262850D01*
X97574030Y-164240671D01*
X97565765Y-164217572D01*
X97559804Y-164193773D01*
X97556204Y-164169505D01*
X97555000Y-164145001D01*
X97555000Y-162564999D01*
X97556204Y-162540495D01*
X97559804Y-162516227D01*
X97565765Y-162492428D01*
X97574030Y-162469329D01*
X97584520Y-162447150D01*
X97597132Y-162426107D01*
X97611747Y-162406401D01*
X97628223Y-162388223D01*
X97646401Y-162371747D01*
X97666107Y-162357132D01*
X97687150Y-162344520D01*
X97709329Y-162334030D01*
X97732428Y-162325765D01*
X97756227Y-162319804D01*
X97780495Y-162316204D01*
X97804999Y-162315000D01*
X100905001Y-162315000D01*
X100929505Y-162316204D01*
X100929505Y-162316204D01*
G37*
D22*
X99355000Y-163355000D03*
D15*
G36*
X147839505Y-161691204D02*
G01*
X147863773Y-161694804D01*
X147887572Y-161700765D01*
X147910671Y-161709030D01*
X147932850Y-161719520D01*
X147953893Y-161732132D01*
X147973599Y-161746747D01*
X147991777Y-161763223D01*
X148008253Y-161781401D01*
X148022868Y-161801107D01*
X148035480Y-161822150D01*
X148045970Y-161844329D01*
X148054235Y-161867428D01*
X148060196Y-161891227D01*
X148063796Y-161915495D01*
X148065000Y-161939999D01*
X148065000Y-162590001D01*
X148063796Y-162614505D01*
X148060196Y-162638773D01*
X148054235Y-162662572D01*
X148045970Y-162685671D01*
X148035480Y-162707850D01*
X148022868Y-162728893D01*
X148008253Y-162748599D01*
X147991777Y-162766777D01*
X147973599Y-162783253D01*
X147953893Y-162797868D01*
X147932850Y-162810480D01*
X147910671Y-162820970D01*
X147887572Y-162829235D01*
X147863773Y-162835196D01*
X147839505Y-162838796D01*
X147815001Y-162840000D01*
X146914999Y-162840000D01*
X146890495Y-162838796D01*
X146866227Y-162835196D01*
X146842428Y-162829235D01*
X146819329Y-162820970D01*
X146797150Y-162810480D01*
X146776107Y-162797868D01*
X146756401Y-162783253D01*
X146738223Y-162766777D01*
X146721747Y-162748599D01*
X146707132Y-162728893D01*
X146694520Y-162707850D01*
X146684030Y-162685671D01*
X146675765Y-162662572D01*
X146669804Y-162638773D01*
X146666204Y-162614505D01*
X146665000Y-162590001D01*
X146665000Y-161939999D01*
X146666204Y-161915495D01*
X146669804Y-161891227D01*
X146675765Y-161867428D01*
X146684030Y-161844329D01*
X146694520Y-161822150D01*
X146707132Y-161801107D01*
X146721747Y-161781401D01*
X146738223Y-161763223D01*
X146756401Y-161746747D01*
X146776107Y-161732132D01*
X146797150Y-161719520D01*
X146819329Y-161709030D01*
X146842428Y-161700765D01*
X146866227Y-161694804D01*
X146890495Y-161691204D01*
X146914999Y-161690000D01*
X147815001Y-161690000D01*
X147839505Y-161691204D01*
X147839505Y-161691204D01*
G37*
D16*
X147365000Y-162265000D03*
D15*
G36*
X147839505Y-159641204D02*
G01*
X147863773Y-159644804D01*
X147887572Y-159650765D01*
X147910671Y-159659030D01*
X147932850Y-159669520D01*
X147953893Y-159682132D01*
X147973599Y-159696747D01*
X147991777Y-159713223D01*
X148008253Y-159731401D01*
X148022868Y-159751107D01*
X148035480Y-159772150D01*
X148045970Y-159794329D01*
X148054235Y-159817428D01*
X148060196Y-159841227D01*
X148063796Y-159865495D01*
X148065000Y-159889999D01*
X148065000Y-160540001D01*
X148063796Y-160564505D01*
X148060196Y-160588773D01*
X148054235Y-160612572D01*
X148045970Y-160635671D01*
X148035480Y-160657850D01*
X148022868Y-160678893D01*
X148008253Y-160698599D01*
X147991777Y-160716777D01*
X147973599Y-160733253D01*
X147953893Y-160747868D01*
X147932850Y-160760480D01*
X147910671Y-160770970D01*
X147887572Y-160779235D01*
X147863773Y-160785196D01*
X147839505Y-160788796D01*
X147815001Y-160790000D01*
X146914999Y-160790000D01*
X146890495Y-160788796D01*
X146866227Y-160785196D01*
X146842428Y-160779235D01*
X146819329Y-160770970D01*
X146797150Y-160760480D01*
X146776107Y-160747868D01*
X146756401Y-160733253D01*
X146738223Y-160716777D01*
X146721747Y-160698599D01*
X146707132Y-160678893D01*
X146694520Y-160657850D01*
X146684030Y-160635671D01*
X146675765Y-160612572D01*
X146669804Y-160588773D01*
X146666204Y-160564505D01*
X146665000Y-160540001D01*
X146665000Y-159889999D01*
X146666204Y-159865495D01*
X146669804Y-159841227D01*
X146675765Y-159817428D01*
X146684030Y-159794329D01*
X146694520Y-159772150D01*
X146707132Y-159751107D01*
X146721747Y-159731401D01*
X146738223Y-159713223D01*
X146756401Y-159696747D01*
X146776107Y-159682132D01*
X146797150Y-159669520D01*
X146819329Y-159659030D01*
X146842428Y-159650765D01*
X146866227Y-159644804D01*
X146890495Y-159641204D01*
X146914999Y-159640000D01*
X147815001Y-159640000D01*
X147839505Y-159641204D01*
X147839505Y-159641204D01*
G37*
D16*
X147365000Y-160215000D03*
D15*
G36*
X151649505Y-161691204D02*
G01*
X151673773Y-161694804D01*
X151697572Y-161700765D01*
X151720671Y-161709030D01*
X151742850Y-161719520D01*
X151763893Y-161732132D01*
X151783599Y-161746747D01*
X151801777Y-161763223D01*
X151818253Y-161781401D01*
X151832868Y-161801107D01*
X151845480Y-161822150D01*
X151855970Y-161844329D01*
X151864235Y-161867428D01*
X151870196Y-161891227D01*
X151873796Y-161915495D01*
X151875000Y-161939999D01*
X151875000Y-162590001D01*
X151873796Y-162614505D01*
X151870196Y-162638773D01*
X151864235Y-162662572D01*
X151855970Y-162685671D01*
X151845480Y-162707850D01*
X151832868Y-162728893D01*
X151818253Y-162748599D01*
X151801777Y-162766777D01*
X151783599Y-162783253D01*
X151763893Y-162797868D01*
X151742850Y-162810480D01*
X151720671Y-162820970D01*
X151697572Y-162829235D01*
X151673773Y-162835196D01*
X151649505Y-162838796D01*
X151625001Y-162840000D01*
X150724999Y-162840000D01*
X150700495Y-162838796D01*
X150676227Y-162835196D01*
X150652428Y-162829235D01*
X150629329Y-162820970D01*
X150607150Y-162810480D01*
X150586107Y-162797868D01*
X150566401Y-162783253D01*
X150548223Y-162766777D01*
X150531747Y-162748599D01*
X150517132Y-162728893D01*
X150504520Y-162707850D01*
X150494030Y-162685671D01*
X150485765Y-162662572D01*
X150479804Y-162638773D01*
X150476204Y-162614505D01*
X150475000Y-162590001D01*
X150475000Y-161939999D01*
X150476204Y-161915495D01*
X150479804Y-161891227D01*
X150485765Y-161867428D01*
X150494030Y-161844329D01*
X150504520Y-161822150D01*
X150517132Y-161801107D01*
X150531747Y-161781401D01*
X150548223Y-161763223D01*
X150566401Y-161746747D01*
X150586107Y-161732132D01*
X150607150Y-161719520D01*
X150629329Y-161709030D01*
X150652428Y-161700765D01*
X150676227Y-161694804D01*
X150700495Y-161691204D01*
X150724999Y-161690000D01*
X151625001Y-161690000D01*
X151649505Y-161691204D01*
X151649505Y-161691204D01*
G37*
D16*
X151175000Y-162265000D03*
D15*
G36*
X151649505Y-159641204D02*
G01*
X151673773Y-159644804D01*
X151697572Y-159650765D01*
X151720671Y-159659030D01*
X151742850Y-159669520D01*
X151763893Y-159682132D01*
X151783599Y-159696747D01*
X151801777Y-159713223D01*
X151818253Y-159731401D01*
X151832868Y-159751107D01*
X151845480Y-159772150D01*
X151855970Y-159794329D01*
X151864235Y-159817428D01*
X151870196Y-159841227D01*
X151873796Y-159865495D01*
X151875000Y-159889999D01*
X151875000Y-160540001D01*
X151873796Y-160564505D01*
X151870196Y-160588773D01*
X151864235Y-160612572D01*
X151855970Y-160635671D01*
X151845480Y-160657850D01*
X151832868Y-160678893D01*
X151818253Y-160698599D01*
X151801777Y-160716777D01*
X151783599Y-160733253D01*
X151763893Y-160747868D01*
X151742850Y-160760480D01*
X151720671Y-160770970D01*
X151697572Y-160779235D01*
X151673773Y-160785196D01*
X151649505Y-160788796D01*
X151625001Y-160790000D01*
X150724999Y-160790000D01*
X150700495Y-160788796D01*
X150676227Y-160785196D01*
X150652428Y-160779235D01*
X150629329Y-160770970D01*
X150607150Y-160760480D01*
X150586107Y-160747868D01*
X150566401Y-160733253D01*
X150548223Y-160716777D01*
X150531747Y-160698599D01*
X150517132Y-160678893D01*
X150504520Y-160657850D01*
X150494030Y-160635671D01*
X150485765Y-160612572D01*
X150479804Y-160588773D01*
X150476204Y-160564505D01*
X150475000Y-160540001D01*
X150475000Y-159889999D01*
X150476204Y-159865495D01*
X150479804Y-159841227D01*
X150485765Y-159817428D01*
X150494030Y-159794329D01*
X150504520Y-159772150D01*
X150517132Y-159751107D01*
X150531747Y-159731401D01*
X150548223Y-159713223D01*
X150566401Y-159696747D01*
X150586107Y-159682132D01*
X150607150Y-159669520D01*
X150629329Y-159659030D01*
X150652428Y-159650765D01*
X150676227Y-159644804D01*
X150700495Y-159641204D01*
X150724999Y-159640000D01*
X151625001Y-159640000D01*
X151649505Y-159641204D01*
X151649505Y-159641204D01*
G37*
D16*
X151175000Y-160215000D03*
D23*
X143220000Y-162570000D03*
D24*
X143220000Y-160070000D03*
D23*
X137505000Y-162570000D03*
D24*
X137505000Y-160070000D03*
D15*
G36*
X110964505Y-175711204D02*
G01*
X110988773Y-175714804D01*
X111012572Y-175720765D01*
X111035671Y-175729030D01*
X111057850Y-175739520D01*
X111078893Y-175752132D01*
X111098599Y-175766747D01*
X111116777Y-175783223D01*
X111133253Y-175801401D01*
X111147868Y-175821107D01*
X111160480Y-175842150D01*
X111170970Y-175864329D01*
X111179235Y-175887428D01*
X111185196Y-175911227D01*
X111188796Y-175935495D01*
X111190000Y-175959999D01*
X111190000Y-176610001D01*
X111188796Y-176634505D01*
X111185196Y-176658773D01*
X111179235Y-176682572D01*
X111170970Y-176705671D01*
X111160480Y-176727850D01*
X111147868Y-176748893D01*
X111133253Y-176768599D01*
X111116777Y-176786777D01*
X111098599Y-176803253D01*
X111078893Y-176817868D01*
X111057850Y-176830480D01*
X111035671Y-176840970D01*
X111012572Y-176849235D01*
X110988773Y-176855196D01*
X110964505Y-176858796D01*
X110940001Y-176860000D01*
X110039999Y-176860000D01*
X110015495Y-176858796D01*
X109991227Y-176855196D01*
X109967428Y-176849235D01*
X109944329Y-176840970D01*
X109922150Y-176830480D01*
X109901107Y-176817868D01*
X109881401Y-176803253D01*
X109863223Y-176786777D01*
X109846747Y-176768599D01*
X109832132Y-176748893D01*
X109819520Y-176727850D01*
X109809030Y-176705671D01*
X109800765Y-176682572D01*
X109794804Y-176658773D01*
X109791204Y-176634505D01*
X109790000Y-176610001D01*
X109790000Y-175959999D01*
X109791204Y-175935495D01*
X109794804Y-175911227D01*
X109800765Y-175887428D01*
X109809030Y-175864329D01*
X109819520Y-175842150D01*
X109832132Y-175821107D01*
X109846747Y-175801401D01*
X109863223Y-175783223D01*
X109881401Y-175766747D01*
X109901107Y-175752132D01*
X109922150Y-175739520D01*
X109944329Y-175729030D01*
X109967428Y-175720765D01*
X109991227Y-175714804D01*
X110015495Y-175711204D01*
X110039999Y-175710000D01*
X110940001Y-175710000D01*
X110964505Y-175711204D01*
X110964505Y-175711204D01*
G37*
D16*
X110490000Y-176285000D03*
D15*
G36*
X110964505Y-173661204D02*
G01*
X110988773Y-173664804D01*
X111012572Y-173670765D01*
X111035671Y-173679030D01*
X111057850Y-173689520D01*
X111078893Y-173702132D01*
X111098599Y-173716747D01*
X111116777Y-173733223D01*
X111133253Y-173751401D01*
X111147868Y-173771107D01*
X111160480Y-173792150D01*
X111170970Y-173814329D01*
X111179235Y-173837428D01*
X111185196Y-173861227D01*
X111188796Y-173885495D01*
X111190000Y-173909999D01*
X111190000Y-174560001D01*
X111188796Y-174584505D01*
X111185196Y-174608773D01*
X111179235Y-174632572D01*
X111170970Y-174655671D01*
X111160480Y-174677850D01*
X111147868Y-174698893D01*
X111133253Y-174718599D01*
X111116777Y-174736777D01*
X111098599Y-174753253D01*
X111078893Y-174767868D01*
X111057850Y-174780480D01*
X111035671Y-174790970D01*
X111012572Y-174799235D01*
X110988773Y-174805196D01*
X110964505Y-174808796D01*
X110940001Y-174810000D01*
X110039999Y-174810000D01*
X110015495Y-174808796D01*
X109991227Y-174805196D01*
X109967428Y-174799235D01*
X109944329Y-174790970D01*
X109922150Y-174780480D01*
X109901107Y-174767868D01*
X109881401Y-174753253D01*
X109863223Y-174736777D01*
X109846747Y-174718599D01*
X109832132Y-174698893D01*
X109819520Y-174677850D01*
X109809030Y-174655671D01*
X109800765Y-174632572D01*
X109794804Y-174608773D01*
X109791204Y-174584505D01*
X109790000Y-174560001D01*
X109790000Y-173909999D01*
X109791204Y-173885495D01*
X109794804Y-173861227D01*
X109800765Y-173837428D01*
X109809030Y-173814329D01*
X109819520Y-173792150D01*
X109832132Y-173771107D01*
X109846747Y-173751401D01*
X109863223Y-173733223D01*
X109881401Y-173716747D01*
X109901107Y-173702132D01*
X109922150Y-173689520D01*
X109944329Y-173679030D01*
X109967428Y-173670765D01*
X109991227Y-173664804D01*
X110015495Y-173661204D01*
X110039999Y-173660000D01*
X110940001Y-173660000D01*
X110964505Y-173661204D01*
X110964505Y-173661204D01*
G37*
D16*
X110490000Y-174235000D03*
D15*
G36*
X113504505Y-175711204D02*
G01*
X113528773Y-175714804D01*
X113552572Y-175720765D01*
X113575671Y-175729030D01*
X113597850Y-175739520D01*
X113618893Y-175752132D01*
X113638599Y-175766747D01*
X113656777Y-175783223D01*
X113673253Y-175801401D01*
X113687868Y-175821107D01*
X113700480Y-175842150D01*
X113710970Y-175864329D01*
X113719235Y-175887428D01*
X113725196Y-175911227D01*
X113728796Y-175935495D01*
X113730000Y-175959999D01*
X113730000Y-176610001D01*
X113728796Y-176634505D01*
X113725196Y-176658773D01*
X113719235Y-176682572D01*
X113710970Y-176705671D01*
X113700480Y-176727850D01*
X113687868Y-176748893D01*
X113673253Y-176768599D01*
X113656777Y-176786777D01*
X113638599Y-176803253D01*
X113618893Y-176817868D01*
X113597850Y-176830480D01*
X113575671Y-176840970D01*
X113552572Y-176849235D01*
X113528773Y-176855196D01*
X113504505Y-176858796D01*
X113480001Y-176860000D01*
X112579999Y-176860000D01*
X112555495Y-176858796D01*
X112531227Y-176855196D01*
X112507428Y-176849235D01*
X112484329Y-176840970D01*
X112462150Y-176830480D01*
X112441107Y-176817868D01*
X112421401Y-176803253D01*
X112403223Y-176786777D01*
X112386747Y-176768599D01*
X112372132Y-176748893D01*
X112359520Y-176727850D01*
X112349030Y-176705671D01*
X112340765Y-176682572D01*
X112334804Y-176658773D01*
X112331204Y-176634505D01*
X112330000Y-176610001D01*
X112330000Y-175959999D01*
X112331204Y-175935495D01*
X112334804Y-175911227D01*
X112340765Y-175887428D01*
X112349030Y-175864329D01*
X112359520Y-175842150D01*
X112372132Y-175821107D01*
X112386747Y-175801401D01*
X112403223Y-175783223D01*
X112421401Y-175766747D01*
X112441107Y-175752132D01*
X112462150Y-175739520D01*
X112484329Y-175729030D01*
X112507428Y-175720765D01*
X112531227Y-175714804D01*
X112555495Y-175711204D01*
X112579999Y-175710000D01*
X113480001Y-175710000D01*
X113504505Y-175711204D01*
X113504505Y-175711204D01*
G37*
D16*
X113030000Y-176285000D03*
D15*
G36*
X113504505Y-173661204D02*
G01*
X113528773Y-173664804D01*
X113552572Y-173670765D01*
X113575671Y-173679030D01*
X113597850Y-173689520D01*
X113618893Y-173702132D01*
X113638599Y-173716747D01*
X113656777Y-173733223D01*
X113673253Y-173751401D01*
X113687868Y-173771107D01*
X113700480Y-173792150D01*
X113710970Y-173814329D01*
X113719235Y-173837428D01*
X113725196Y-173861227D01*
X113728796Y-173885495D01*
X113730000Y-173909999D01*
X113730000Y-174560001D01*
X113728796Y-174584505D01*
X113725196Y-174608773D01*
X113719235Y-174632572D01*
X113710970Y-174655671D01*
X113700480Y-174677850D01*
X113687868Y-174698893D01*
X113673253Y-174718599D01*
X113656777Y-174736777D01*
X113638599Y-174753253D01*
X113618893Y-174767868D01*
X113597850Y-174780480D01*
X113575671Y-174790970D01*
X113552572Y-174799235D01*
X113528773Y-174805196D01*
X113504505Y-174808796D01*
X113480001Y-174810000D01*
X112579999Y-174810000D01*
X112555495Y-174808796D01*
X112531227Y-174805196D01*
X112507428Y-174799235D01*
X112484329Y-174790970D01*
X112462150Y-174780480D01*
X112441107Y-174767868D01*
X112421401Y-174753253D01*
X112403223Y-174736777D01*
X112386747Y-174718599D01*
X112372132Y-174698893D01*
X112359520Y-174677850D01*
X112349030Y-174655671D01*
X112340765Y-174632572D01*
X112334804Y-174608773D01*
X112331204Y-174584505D01*
X112330000Y-174560001D01*
X112330000Y-173909999D01*
X112331204Y-173885495D01*
X112334804Y-173861227D01*
X112340765Y-173837428D01*
X112349030Y-173814329D01*
X112359520Y-173792150D01*
X112372132Y-173771107D01*
X112386747Y-173751401D01*
X112403223Y-173733223D01*
X112421401Y-173716747D01*
X112441107Y-173702132D01*
X112462150Y-173689520D01*
X112484329Y-173679030D01*
X112507428Y-173670765D01*
X112531227Y-173664804D01*
X112555495Y-173661204D01*
X112579999Y-173660000D01*
X113480001Y-173660000D01*
X113504505Y-173661204D01*
X113504505Y-173661204D01*
G37*
D16*
X113030000Y-174235000D03*
D23*
X126900000Y-178014000D03*
D24*
X126900000Y-175514000D03*
D23*
X121158000Y-178014000D03*
D24*
X121158000Y-175514000D03*
D15*
G36*
X130649505Y-159836204D02*
G01*
X130673773Y-159839804D01*
X130697572Y-159845765D01*
X130720671Y-159854030D01*
X130742850Y-159864520D01*
X130763893Y-159877132D01*
X130783599Y-159891747D01*
X130801777Y-159908223D01*
X130818253Y-159926401D01*
X130832868Y-159946107D01*
X130845480Y-159967150D01*
X130855970Y-159989329D01*
X130864235Y-160012428D01*
X130870196Y-160036227D01*
X130873796Y-160060495D01*
X130875000Y-160084999D01*
X130875000Y-160735001D01*
X130873796Y-160759505D01*
X130870196Y-160783773D01*
X130864235Y-160807572D01*
X130855970Y-160830671D01*
X130845480Y-160852850D01*
X130832868Y-160873893D01*
X130818253Y-160893599D01*
X130801777Y-160911777D01*
X130783599Y-160928253D01*
X130763893Y-160942868D01*
X130742850Y-160955480D01*
X130720671Y-160965970D01*
X130697572Y-160974235D01*
X130673773Y-160980196D01*
X130649505Y-160983796D01*
X130625001Y-160985000D01*
X129724999Y-160985000D01*
X129700495Y-160983796D01*
X129676227Y-160980196D01*
X129652428Y-160974235D01*
X129629329Y-160965970D01*
X129607150Y-160955480D01*
X129586107Y-160942868D01*
X129566401Y-160928253D01*
X129548223Y-160911777D01*
X129531747Y-160893599D01*
X129517132Y-160873893D01*
X129504520Y-160852850D01*
X129494030Y-160830671D01*
X129485765Y-160807572D01*
X129479804Y-160783773D01*
X129476204Y-160759505D01*
X129475000Y-160735001D01*
X129475000Y-160084999D01*
X129476204Y-160060495D01*
X129479804Y-160036227D01*
X129485765Y-160012428D01*
X129494030Y-159989329D01*
X129504520Y-159967150D01*
X129517132Y-159946107D01*
X129531747Y-159926401D01*
X129548223Y-159908223D01*
X129566401Y-159891747D01*
X129586107Y-159877132D01*
X129607150Y-159864520D01*
X129629329Y-159854030D01*
X129652428Y-159845765D01*
X129676227Y-159839804D01*
X129700495Y-159836204D01*
X129724999Y-159835000D01*
X130625001Y-159835000D01*
X130649505Y-159836204D01*
X130649505Y-159836204D01*
G37*
D16*
X130175000Y-160410000D03*
D15*
G36*
X130649505Y-157786204D02*
G01*
X130673773Y-157789804D01*
X130697572Y-157795765D01*
X130720671Y-157804030D01*
X130742850Y-157814520D01*
X130763893Y-157827132D01*
X130783599Y-157841747D01*
X130801777Y-157858223D01*
X130818253Y-157876401D01*
X130832868Y-157896107D01*
X130845480Y-157917150D01*
X130855970Y-157939329D01*
X130864235Y-157962428D01*
X130870196Y-157986227D01*
X130873796Y-158010495D01*
X130875000Y-158034999D01*
X130875000Y-158685001D01*
X130873796Y-158709505D01*
X130870196Y-158733773D01*
X130864235Y-158757572D01*
X130855970Y-158780671D01*
X130845480Y-158802850D01*
X130832868Y-158823893D01*
X130818253Y-158843599D01*
X130801777Y-158861777D01*
X130783599Y-158878253D01*
X130763893Y-158892868D01*
X130742850Y-158905480D01*
X130720671Y-158915970D01*
X130697572Y-158924235D01*
X130673773Y-158930196D01*
X130649505Y-158933796D01*
X130625001Y-158935000D01*
X129724999Y-158935000D01*
X129700495Y-158933796D01*
X129676227Y-158930196D01*
X129652428Y-158924235D01*
X129629329Y-158915970D01*
X129607150Y-158905480D01*
X129586107Y-158892868D01*
X129566401Y-158878253D01*
X129548223Y-158861777D01*
X129531747Y-158843599D01*
X129517132Y-158823893D01*
X129504520Y-158802850D01*
X129494030Y-158780671D01*
X129485765Y-158757572D01*
X129479804Y-158733773D01*
X129476204Y-158709505D01*
X129475000Y-158685001D01*
X129475000Y-158034999D01*
X129476204Y-158010495D01*
X129479804Y-157986227D01*
X129485765Y-157962428D01*
X129494030Y-157939329D01*
X129504520Y-157917150D01*
X129517132Y-157896107D01*
X129531747Y-157876401D01*
X129548223Y-157858223D01*
X129566401Y-157841747D01*
X129586107Y-157827132D01*
X129607150Y-157814520D01*
X129629329Y-157804030D01*
X129652428Y-157795765D01*
X129676227Y-157789804D01*
X129700495Y-157786204D01*
X129724999Y-157785000D01*
X130625001Y-157785000D01*
X130649505Y-157786204D01*
X130649505Y-157786204D01*
G37*
D16*
X130175000Y-158360000D03*
D12*
X151765000Y-147320000D03*
X126605000Y-162580623D03*
X123444000Y-173227992D03*
X118110000Y-168664990D03*
D25*
X153800000Y-162400000D03*
D12*
X126781000Y-164465000D03*
X116881442Y-173776011D03*
X115000000Y-146500000D03*
X109500000Y-180799998D03*
X119407293Y-166969326D03*
D25*
X153910000Y-160210000D03*
D26*
X107856000Y-168435000D02*
X108077000Y-168656000D01*
X99355000Y-168435000D02*
X107856000Y-168435000D01*
X148590000Y-147320000D02*
X151765000Y-147320000D01*
D27*
X113185000Y-176440000D02*
X113030000Y-176285000D01*
X126829377Y-162805000D02*
X126605000Y-162580623D01*
X128905000Y-162805000D02*
X126829377Y-162805000D01*
D28*
X133625806Y-162520000D02*
X135255000Y-162520000D01*
X135255000Y-162520000D02*
X135305000Y-162570000D01*
X135305000Y-162570000D02*
X137505000Y-162570000D01*
X129775806Y-166370000D02*
X133625806Y-162520000D01*
X126482278Y-166370000D02*
X129775806Y-166370000D01*
X125095000Y-164982722D02*
X126482278Y-166370000D01*
X125095000Y-163947278D02*
X125095000Y-164982722D01*
X126605000Y-162580623D02*
X126461655Y-162580623D01*
X126461655Y-162580623D02*
X125095000Y-163947278D01*
D27*
X124420000Y-173355000D02*
X123276528Y-173355000D01*
X124038542Y-173355000D02*
X123276528Y-173355000D01*
X123276528Y-173355000D02*
X123403536Y-173227992D01*
X123403536Y-173227992D02*
X123444000Y-173227992D01*
X112776000Y-176539000D02*
X113030000Y-176285000D01*
D26*
X147060000Y-162570000D02*
X147365000Y-162265000D01*
X143220000Y-162570000D02*
X147060000Y-162570000D01*
X147365000Y-162265000D02*
X151175000Y-162265000D01*
X113030000Y-177545000D02*
X111775000Y-178800000D01*
X113030000Y-176285000D02*
X113030000Y-177545000D01*
X114325000Y-178725000D02*
X111800000Y-178725000D01*
X114500000Y-178900000D02*
X114325000Y-178725000D01*
X114385000Y-178900000D02*
X113030000Y-177545000D01*
X114500000Y-178900000D02*
X114385000Y-178900000D01*
X128272008Y-173227992D02*
X123444000Y-173227992D01*
X137500000Y-164000000D02*
X128272008Y-173227992D01*
X137505000Y-162570000D02*
X137500000Y-162575000D01*
X137500000Y-162575000D02*
X137500000Y-164000000D01*
X113030000Y-176285000D02*
X110490000Y-176285000D01*
X110125010Y-176120010D02*
X110290000Y-176285000D01*
X121616008Y-171600000D02*
X110000000Y-171600000D01*
X123244000Y-173227992D02*
X121616008Y-171600000D01*
X108479990Y-175206180D02*
X109393820Y-176120010D01*
X110000000Y-171600000D02*
X108479990Y-173120010D01*
X108479990Y-173120010D02*
X108479990Y-175206180D01*
X109393820Y-176120010D02*
X110125010Y-176120010D01*
X137500000Y-164000000D02*
X137500000Y-163900000D01*
X137505000Y-162570000D02*
X138830000Y-162570000D01*
X138830000Y-162570000D02*
X143220000Y-162570000D01*
D29*
X137300000Y-163900000D02*
X136400000Y-163000000D01*
X137500000Y-163900000D02*
X137300000Y-163900000D01*
D26*
X137500000Y-163900000D02*
X138830000Y-162570000D01*
D29*
X116205010Y-166760000D02*
X118110000Y-168664990D01*
X116205000Y-166760000D02*
X116205010Y-166760000D01*
D26*
X153665000Y-162265000D02*
X153800000Y-162400000D01*
X151175000Y-162265000D02*
X153665000Y-162265000D01*
D27*
X127171000Y-164075000D02*
X126781000Y-164465000D01*
D28*
X127635000Y-160410000D02*
X130175000Y-160410000D01*
X131445000Y-161680000D02*
X130175000Y-160410000D01*
X131445000Y-162830410D02*
X131445000Y-161680000D01*
X128905000Y-164855000D02*
X129420410Y-164855000D01*
X129420410Y-164855000D02*
X131445000Y-162830410D01*
X128515000Y-164465000D02*
X128905000Y-164855000D01*
X126781000Y-164465000D02*
X128515000Y-164465000D01*
D26*
X121158000Y-178014000D02*
X126900000Y-178014000D01*
D27*
X110245000Y-173990000D02*
X110490000Y-174235000D01*
D26*
X117942102Y-173776011D02*
X116881442Y-173776011D01*
X119680091Y-175514000D02*
X117942102Y-173776011D01*
X121158000Y-175514000D02*
X119680091Y-175514000D01*
X108374600Y-146500000D02*
X108077000Y-146202400D01*
X115000000Y-146500000D02*
X108374600Y-146500000D01*
D29*
X110490000Y-174235000D02*
X113030000Y-174235000D01*
X116422453Y-174235000D02*
X116881442Y-173776011D01*
X113030000Y-174235000D02*
X116422453Y-174235000D01*
D26*
X116500000Y-179850000D02*
X116500000Y-181600000D01*
X128186000Y-175514000D02*
X126900000Y-175514000D01*
X128200000Y-175500000D02*
X128186000Y-175514000D01*
X129010001Y-176310001D02*
X128200000Y-175500000D01*
X116500000Y-179850000D02*
X116550000Y-179850000D01*
X127912801Y-180124001D02*
X129010001Y-179026801D01*
X127875999Y-180124001D02*
X127912801Y-180124001D01*
X129010001Y-179026801D02*
X129010001Y-176310001D01*
X116550000Y-179850000D02*
X116900000Y-180200000D01*
X127800000Y-180200000D02*
X127875999Y-180124001D01*
X116500000Y-181500000D02*
X117800000Y-180200000D01*
X116500000Y-181600000D02*
X116500000Y-181500000D01*
X116900000Y-180200000D02*
X117800000Y-180200000D01*
X117800000Y-180200000D02*
X127800000Y-180200000D01*
X99355000Y-163355000D02*
X95500000Y-167210000D01*
X95500000Y-169948802D02*
X108551198Y-183000000D01*
X108551198Y-183000000D02*
X115100000Y-183000000D01*
X115100000Y-183000000D02*
X116500000Y-181600000D01*
X95500000Y-167210000D02*
X95500000Y-169948802D01*
X99479802Y-155530000D02*
X110709802Y-166760000D01*
X111595000Y-166760000D02*
X112395000Y-166760000D01*
X110709802Y-166760000D02*
X111595000Y-166760000D01*
X99400000Y-155530000D02*
X99479802Y-155530000D01*
D29*
X111775002Y-180799998D02*
X111800000Y-180775000D01*
X109500000Y-180799998D02*
X111775002Y-180799998D01*
X114475000Y-180775000D02*
X114500000Y-180800000D01*
X111800000Y-180775000D02*
X114475000Y-180775000D01*
X112395000Y-164710000D02*
X116205000Y-164710000D01*
X117147967Y-164710000D02*
X119407293Y-166969326D01*
X116205000Y-164710000D02*
X117147967Y-164710000D01*
D26*
X147220000Y-160070000D02*
X147365000Y-160215000D01*
X143220000Y-160070000D02*
X147220000Y-160070000D01*
X137505000Y-155235000D02*
X129590000Y-147320000D01*
X151175000Y-160215000D02*
X151175000Y-160125000D01*
X147480000Y-160100000D02*
X151060000Y-160100000D01*
X147365000Y-160215000D02*
X147480000Y-160100000D01*
X151060000Y-160100000D02*
X151175000Y-160215000D01*
X153910000Y-160210000D02*
X157690000Y-160210000D01*
X166565000Y-151335000D02*
X169352000Y-151335000D01*
X153905000Y-160215000D02*
X153910000Y-160210000D01*
X151175000Y-160215000D02*
X153905000Y-160215000D01*
X171383198Y-170883000D02*
X171892000Y-170883000D01*
X170113198Y-172153000D02*
X171383198Y-170883000D01*
X169352000Y-172153000D02*
X170113198Y-172153000D01*
X171383198Y-150065000D02*
X171892000Y-150065000D01*
X170113198Y-151335000D02*
X171383198Y-150065000D01*
X169352000Y-151335000D02*
X170113198Y-151335000D01*
X164200000Y-169000000D02*
X167353000Y-172153000D01*
X164200000Y-167200000D02*
X164200000Y-169000000D01*
X167353000Y-172153000D02*
X169153000Y-172153000D01*
X153910000Y-160210000D02*
X157210000Y-160210000D01*
X169153000Y-172153000D02*
X169352000Y-172153000D01*
X159000000Y-158900000D02*
X159050000Y-158850000D01*
X159050000Y-158850000D02*
X166565000Y-151335000D01*
X157690000Y-160210000D02*
X159050000Y-158850000D01*
X159000000Y-162000000D02*
X159000000Y-158900000D01*
X159000000Y-162000000D02*
X164200000Y-167200000D01*
X157210000Y-160210000D02*
X159000000Y-162000000D01*
X139070000Y-160070000D02*
X139070000Y-159670000D01*
X139070000Y-159670000D02*
X137505000Y-158105000D01*
X137505000Y-158105000D02*
X137505000Y-155235000D01*
X139070000Y-160070000D02*
X143220000Y-160070000D01*
X137505000Y-160070000D02*
X139070000Y-160070000D01*
D28*
X132325000Y-158360000D02*
X130175000Y-158360000D01*
X134035000Y-160070000D02*
X132325000Y-158360000D01*
X130175000Y-158360000D02*
X127635000Y-158360000D01*
X137505000Y-160070000D02*
X134035000Y-160070000D01*
D26*
X137505000Y-158105000D02*
X137495000Y-158105000D01*
X137495000Y-160060000D02*
X137505000Y-160070000D01*
X137495000Y-158105000D02*
X137495000Y-160060000D01*
D29*
X137495000Y-158105000D02*
X136000000Y-159600000D01*
X136070000Y-159670000D02*
X139070000Y-159670000D01*
X136000000Y-159600000D02*
X136070000Y-159670000D01*
D30*
G36*
X188340001Y-186340000D02*
G01*
X89660000Y-186340000D01*
X89660000Y-181767363D01*
X91638000Y-181767363D01*
X91638000Y-182232637D01*
X91728770Y-182688970D01*
X91906822Y-183118827D01*
X92165315Y-183505687D01*
X92494313Y-183834685D01*
X92881173Y-184093178D01*
X93311030Y-184271230D01*
X93767363Y-184362000D01*
X94232637Y-184362000D01*
X94688970Y-184271230D01*
X95118827Y-184093178D01*
X95505687Y-183834685D01*
X95834685Y-183505687D01*
X96093178Y-183118827D01*
X96271230Y-182688970D01*
X96362000Y-182232637D01*
X96362000Y-181767363D01*
X96271230Y-181311030D01*
X96093178Y-180881173D01*
X95834685Y-180494313D01*
X95505687Y-180165315D01*
X95118827Y-179906822D01*
X94688970Y-179728770D01*
X94232637Y-179638000D01*
X93767363Y-179638000D01*
X93311030Y-179728770D01*
X92881173Y-179906822D01*
X92494313Y-180165315D01*
X92165315Y-180494313D01*
X91906822Y-180881173D01*
X91728770Y-181311030D01*
X91638000Y-181767363D01*
X89660000Y-181767363D01*
X89660000Y-167210000D01*
X94056047Y-167210000D01*
X94063000Y-167280593D01*
X94063001Y-169878200D01*
X94056047Y-169948802D01*
X94083793Y-170230503D01*
X94165962Y-170501379D01*
X94299398Y-170751019D01*
X94407713Y-170883001D01*
X94478972Y-170969831D01*
X94533806Y-171014832D01*
X107485168Y-183966195D01*
X107530169Y-184021029D01*
X107748981Y-184200603D01*
X107998621Y-184334039D01*
X108269497Y-184416208D01*
X108480603Y-184437000D01*
X108480612Y-184437000D01*
X108551197Y-184443952D01*
X108621782Y-184437000D01*
X115029407Y-184437000D01*
X115100000Y-184443953D01*
X115170593Y-184437000D01*
X115170595Y-184437000D01*
X115381701Y-184416208D01*
X115652577Y-184334039D01*
X115902217Y-184200603D01*
X116121029Y-184021029D01*
X116166034Y-183966190D01*
X117466195Y-182666030D01*
X117521029Y-182621029D01*
X117700603Y-182402217D01*
X117781668Y-182250556D01*
X118264861Y-181767363D01*
X156638000Y-181767363D01*
X156638000Y-182232637D01*
X156728770Y-182688970D01*
X156906822Y-183118827D01*
X157165315Y-183505687D01*
X157494313Y-183834685D01*
X157881173Y-184093178D01*
X158311030Y-184271230D01*
X158767363Y-184362000D01*
X159232637Y-184362000D01*
X159688970Y-184271230D01*
X160118827Y-184093178D01*
X160505687Y-183834685D01*
X160834685Y-183505687D01*
X161093178Y-183118827D01*
X161271230Y-182688970D01*
X161362000Y-182232637D01*
X161362000Y-181767363D01*
X161271230Y-181311030D01*
X161093178Y-180881173D01*
X160893012Y-180581605D01*
X174058000Y-180581605D01*
X174183914Y-180871577D01*
X174516126Y-181037433D01*
X174874312Y-181135290D01*
X175244706Y-181161389D01*
X175613075Y-181114725D01*
X175965262Y-180997094D01*
X176200086Y-180871577D01*
X176326000Y-180581605D01*
X175192000Y-179447605D01*
X174058000Y-180581605D01*
X160893012Y-180581605D01*
X160834685Y-180494313D01*
X160505687Y-180165315D01*
X160118827Y-179906822D01*
X159688970Y-179728770D01*
X159232637Y-179638000D01*
X158767363Y-179638000D01*
X158311030Y-179728770D01*
X157881173Y-179906822D01*
X157494313Y-180165315D01*
X157165315Y-180494313D01*
X156906822Y-180881173D01*
X156728770Y-181311030D01*
X156638000Y-181767363D01*
X118264861Y-181767363D01*
X118395224Y-181637000D01*
X127729407Y-181637000D01*
X127800000Y-181643953D01*
X127870593Y-181637000D01*
X127870595Y-181637000D01*
X128081701Y-181616208D01*
X128352577Y-181534039D01*
X128602217Y-181400603D01*
X128657099Y-181355562D01*
X128715018Y-181324604D01*
X128933830Y-181145030D01*
X128978835Y-181090191D01*
X129976200Y-180092827D01*
X130031029Y-180047830D01*
X130076027Y-179993000D01*
X130076031Y-179992996D01*
X130199704Y-179842300D01*
X130210604Y-179829018D01*
X130344040Y-179579378D01*
X130422506Y-179320706D01*
X173298611Y-179320706D01*
X173345275Y-179689075D01*
X173462906Y-180041262D01*
X173588423Y-180276086D01*
X173878395Y-180402000D01*
X175012395Y-179268000D01*
X173878395Y-178134000D01*
X173588423Y-178259914D01*
X173422567Y-178592126D01*
X173324710Y-178950312D01*
X173298611Y-179320706D01*
X130422506Y-179320706D01*
X130426209Y-179308502D01*
X130447001Y-179097396D01*
X130447001Y-179097387D01*
X130453953Y-179026802D01*
X130447001Y-178956217D01*
X130447001Y-177954395D01*
X174058000Y-177954395D01*
X175192000Y-179088395D01*
X175206143Y-179074253D01*
X175385748Y-179253858D01*
X175371605Y-179268000D01*
X176505605Y-180402000D01*
X176795577Y-180276086D01*
X176961433Y-179943874D01*
X177059290Y-179585688D01*
X177062195Y-179544457D01*
X177487400Y-179720583D01*
X177987203Y-179820000D01*
X178496797Y-179820000D01*
X178996600Y-179720583D01*
X179467404Y-179525569D01*
X179891116Y-179242454D01*
X180251454Y-178882116D01*
X180534569Y-178458404D01*
X180729583Y-177987600D01*
X180829000Y-177487797D01*
X180829000Y-176978203D01*
X180729583Y-176478400D01*
X180534569Y-176007596D01*
X180251454Y-175583884D01*
X179891116Y-175223546D01*
X179467404Y-174940431D01*
X178996600Y-174745417D01*
X178496797Y-174646000D01*
X177987203Y-174646000D01*
X177487400Y-174745417D01*
X177016596Y-174940431D01*
X176592884Y-175223546D01*
X176232546Y-175583884D01*
X175949431Y-176007596D01*
X175754417Y-176478400D01*
X175655000Y-176978203D01*
X175655000Y-177440409D01*
X175509688Y-177400710D01*
X175139294Y-177374611D01*
X174770925Y-177421275D01*
X174418738Y-177538906D01*
X174183914Y-177664423D01*
X174058000Y-177954395D01*
X130447001Y-177954395D01*
X130447001Y-176380585D01*
X130453953Y-176310000D01*
X130447001Y-176239415D01*
X130447001Y-176239406D01*
X130426209Y-176028300D01*
X130344040Y-175757424D01*
X130210604Y-175507784D01*
X130031030Y-175288972D01*
X129976190Y-175243966D01*
X129266026Y-174533802D01*
X129221028Y-174478972D01*
X129166198Y-174433974D01*
X129166194Y-174433970D01*
X129002217Y-174299398D01*
X128752577Y-174165962D01*
X128481701Y-174083793D01*
X128200000Y-174056047D01*
X128103339Y-174065568D01*
X127993015Y-174006598D01*
X127849378Y-173963026D01*
X127700000Y-173948314D01*
X126100000Y-173948314D01*
X125950622Y-173963026D01*
X125806985Y-174006598D01*
X125674608Y-174077355D01*
X125558578Y-174172578D01*
X125463355Y-174288608D01*
X125392598Y-174420985D01*
X125349026Y-174564622D01*
X125334314Y-174714000D01*
X125334314Y-176314000D01*
X125349026Y-176463378D01*
X125383493Y-176577000D01*
X122674507Y-176577000D01*
X122708974Y-176463378D01*
X122723686Y-176314000D01*
X122723686Y-174714000D01*
X122708974Y-174564622D01*
X122665402Y-174420985D01*
X122594645Y-174288608D01*
X122499422Y-174172578D01*
X122383392Y-174077355D01*
X122251015Y-174006598D01*
X122107378Y-173963026D01*
X121958000Y-173948314D01*
X120358000Y-173948314D01*
X120208622Y-173963026D01*
X120172345Y-173974030D01*
X119008137Y-172809822D01*
X118963131Y-172754982D01*
X118744319Y-172575408D01*
X118494679Y-172441972D01*
X118223803Y-172359803D01*
X118012697Y-172339011D01*
X118012695Y-172339011D01*
X117942102Y-172332058D01*
X117871509Y-172339011D01*
X117363264Y-172339011D01*
X117322476Y-172322116D01*
X117030361Y-172264011D01*
X116732523Y-172264011D01*
X116440408Y-172322116D01*
X116165241Y-172436094D01*
X115917598Y-172601564D01*
X115706995Y-172812167D01*
X115604875Y-172965000D01*
X113846837Y-172965000D01*
X113678151Y-172913830D01*
X113480001Y-172894314D01*
X112579999Y-172894314D01*
X112381849Y-172913830D01*
X112213163Y-172965000D01*
X111306837Y-172965000D01*
X111138151Y-172913830D01*
X110940001Y-172894314D01*
X110039999Y-172894314D01*
X109841849Y-172913830D01*
X109651313Y-172971628D01*
X109475715Y-173065488D01*
X109321801Y-173191801D01*
X109195488Y-173345715D01*
X109101628Y-173521313D01*
X109043830Y-173711849D01*
X109024314Y-173909999D01*
X109024314Y-174560001D01*
X109043830Y-174758151D01*
X109101628Y-174948687D01*
X109195488Y-175124285D01*
X109321801Y-175278199D01*
X109322462Y-175278741D01*
X109259463Y-175355506D01*
X109200498Y-175465820D01*
X109164188Y-175585518D01*
X109151928Y-175710000D01*
X109155000Y-175999250D01*
X109313750Y-176158000D01*
X110363000Y-176158000D01*
X110363000Y-176138000D01*
X110617000Y-176138000D01*
X110617000Y-176158000D01*
X111666250Y-176158000D01*
X111760000Y-176064250D01*
X111853750Y-176158000D01*
X112903000Y-176158000D01*
X112903000Y-176138000D01*
X113157000Y-176138000D01*
X113157000Y-176158000D01*
X114206250Y-176158000D01*
X114365000Y-175999250D01*
X114368072Y-175710000D01*
X114355812Y-175585518D01*
X114331387Y-175505000D01*
X116360080Y-175505000D01*
X116422453Y-175511143D01*
X116484826Y-175505000D01*
X116484833Y-175505000D01*
X116671416Y-175486623D01*
X116910812Y-175414003D01*
X117131441Y-175296075D01*
X117176747Y-175258893D01*
X117322476Y-175229906D01*
X117351677Y-175217810D01*
X118614056Y-176480189D01*
X118659062Y-176535029D01*
X118774508Y-176629773D01*
X118877873Y-176714603D01*
X119127512Y-176848038D01*
X119127514Y-176848039D01*
X119398390Y-176930208D01*
X119609496Y-176951000D01*
X119609498Y-176951000D01*
X119680091Y-176957953D01*
X119750684Y-176951000D01*
X119933272Y-176951000D01*
X119984576Y-176978422D01*
X119944715Y-177018283D01*
X119773773Y-177274115D01*
X119656027Y-177558381D01*
X119596000Y-177860156D01*
X119596000Y-178167844D01*
X119656027Y-178469619D01*
X119773773Y-178753885D01*
X119779863Y-178763000D01*
X117870593Y-178763000D01*
X117800000Y-178756047D01*
X117729407Y-178763000D01*
X117490643Y-178763000D01*
X117352217Y-178649397D01*
X117102577Y-178515961D01*
X116831701Y-178433792D01*
X116620595Y-178413000D01*
X116620593Y-178413000D01*
X116550000Y-178406047D01*
X116525000Y-178408509D01*
X116500000Y-178406047D01*
X116429405Y-178413000D01*
X116218299Y-178433792D01*
X115947423Y-178515961D01*
X115697783Y-178649397D01*
X115547174Y-178772998D01*
X115426252Y-178772998D01*
X115585000Y-178614250D01*
X115588072Y-178500000D01*
X115575812Y-178375518D01*
X115539502Y-178255820D01*
X115480537Y-178145506D01*
X115401185Y-178048815D01*
X115304494Y-177969463D01*
X115194180Y-177910498D01*
X115074482Y-177874188D01*
X114950000Y-177861928D01*
X114785750Y-177865000D01*
X114627000Y-178023750D01*
X114627000Y-178773000D01*
X114647000Y-178773000D01*
X114647000Y-179027000D01*
X114627000Y-179027000D01*
X114627000Y-179047000D01*
X114373000Y-179047000D01*
X114373000Y-179027000D01*
X113573750Y-179027000D01*
X113415000Y-179185750D01*
X113411928Y-179300000D01*
X113424188Y-179424482D01*
X113448613Y-179505000D01*
X113101387Y-179505000D01*
X113125812Y-179424482D01*
X113138072Y-179300000D01*
X113135000Y-179010750D01*
X112976250Y-178852000D01*
X111927000Y-178852000D01*
X111927000Y-178872000D01*
X111673000Y-178872000D01*
X111673000Y-178852000D01*
X110623750Y-178852000D01*
X110465000Y-179010750D01*
X110461928Y-179300000D01*
X110474188Y-179424482D01*
X110506196Y-179529998D01*
X110320839Y-179529998D01*
X110216201Y-179460081D01*
X109941034Y-179346103D01*
X109648919Y-179287998D01*
X109351081Y-179287998D01*
X109058966Y-179346103D01*
X108783799Y-179460081D01*
X108536156Y-179625551D01*
X108325553Y-179836154D01*
X108160083Y-180083797D01*
X108046105Y-180358964D01*
X108028897Y-180445474D01*
X105733423Y-178150000D01*
X110461928Y-178150000D01*
X110465000Y-178439250D01*
X110623750Y-178598000D01*
X111673000Y-178598000D01*
X111673000Y-177673750D01*
X111927000Y-177673750D01*
X111927000Y-178598000D01*
X112976250Y-178598000D01*
X113074250Y-178500000D01*
X113411928Y-178500000D01*
X113415000Y-178614250D01*
X113573750Y-178773000D01*
X114373000Y-178773000D01*
X114373000Y-178023750D01*
X114214250Y-177865000D01*
X114050000Y-177861928D01*
X113925518Y-177874188D01*
X113805820Y-177910498D01*
X113695506Y-177969463D01*
X113598815Y-178048815D01*
X113519463Y-178145506D01*
X113460498Y-178255820D01*
X113424188Y-178375518D01*
X113411928Y-178500000D01*
X113074250Y-178500000D01*
X113135000Y-178439250D01*
X113138072Y-178150000D01*
X113125812Y-178025518D01*
X113089502Y-177905820D01*
X113030537Y-177795506D01*
X112951185Y-177698815D01*
X112854494Y-177619463D01*
X112744180Y-177560498D01*
X112624482Y-177524188D01*
X112500000Y-177511928D01*
X112085750Y-177515000D01*
X111927000Y-177673750D01*
X111673000Y-177673750D01*
X111514250Y-177515000D01*
X111100000Y-177511928D01*
X110975518Y-177524188D01*
X110855820Y-177560498D01*
X110745506Y-177619463D01*
X110648815Y-177698815D01*
X110569463Y-177795506D01*
X110510498Y-177905820D01*
X110474188Y-178025518D01*
X110461928Y-178150000D01*
X105733423Y-178150000D01*
X104443423Y-176860000D01*
X109151928Y-176860000D01*
X109164188Y-176984482D01*
X109200498Y-177104180D01*
X109259463Y-177214494D01*
X109338815Y-177311185D01*
X109435506Y-177390537D01*
X109545820Y-177449502D01*
X109665518Y-177485812D01*
X109790000Y-177498072D01*
X110204250Y-177495000D01*
X110363000Y-177336250D01*
X110363000Y-176412000D01*
X110617000Y-176412000D01*
X110617000Y-177336250D01*
X110775750Y-177495000D01*
X111190000Y-177498072D01*
X111314482Y-177485812D01*
X111434180Y-177449502D01*
X111544494Y-177390537D01*
X111641185Y-177311185D01*
X111720537Y-177214494D01*
X111760000Y-177140665D01*
X111799463Y-177214494D01*
X111878815Y-177311185D01*
X111975506Y-177390537D01*
X112085820Y-177449502D01*
X112205518Y-177485812D01*
X112330000Y-177498072D01*
X112744250Y-177495000D01*
X112903000Y-177336250D01*
X112903000Y-176412000D01*
X113157000Y-176412000D01*
X113157000Y-177336250D01*
X113315750Y-177495000D01*
X113730000Y-177498072D01*
X113854482Y-177485812D01*
X113974180Y-177449502D01*
X114084494Y-177390537D01*
X114181185Y-177311185D01*
X114260537Y-177214494D01*
X114319502Y-177104180D01*
X114355812Y-176984482D01*
X114368072Y-176860000D01*
X114365000Y-176570750D01*
X114206250Y-176412000D01*
X113157000Y-176412000D01*
X112903000Y-176412000D01*
X111853750Y-176412000D01*
X111760000Y-176505750D01*
X111666250Y-176412000D01*
X110617000Y-176412000D01*
X110363000Y-176412000D01*
X109313750Y-176412000D01*
X109155000Y-176570750D01*
X109151928Y-176860000D01*
X104443423Y-176860000D01*
X96937000Y-169353578D01*
X96937000Y-169155782D01*
X97089442Y-169440982D01*
X97314628Y-169715372D01*
X97589018Y-169940558D01*
X97902068Y-170107886D01*
X98241746Y-170210927D01*
X98506473Y-170237000D01*
X100203527Y-170237000D01*
X100468254Y-170210927D01*
X100807932Y-170107886D01*
X101120982Y-169940558D01*
X101204520Y-169872000D01*
X105868349Y-169872000D01*
X106125803Y-170257306D01*
X106475694Y-170607197D01*
X106887122Y-170882105D01*
X107344277Y-171071465D01*
X107829590Y-171168000D01*
X108324410Y-171168000D01*
X108809723Y-171071465D01*
X109266878Y-170882105D01*
X109678306Y-170607197D01*
X110028197Y-170257306D01*
X110303105Y-169845878D01*
X110492465Y-169388723D01*
X110589000Y-168903410D01*
X110589000Y-168408590D01*
X110545068Y-168187728D01*
X110639207Y-168197000D01*
X110639216Y-168197000D01*
X110709801Y-168203952D01*
X110780386Y-168197000D01*
X112465595Y-168197000D01*
X112676701Y-168176208D01*
X112947577Y-168094039D01*
X112955503Y-168089803D01*
X113043151Y-168081170D01*
X113233687Y-168023372D01*
X113409285Y-167929512D01*
X113563199Y-167803199D01*
X113689512Y-167649285D01*
X113783372Y-167473687D01*
X113825441Y-167335000D01*
X114866928Y-167335000D01*
X114879188Y-167459482D01*
X114915498Y-167579180D01*
X114974463Y-167689494D01*
X115053815Y-167786185D01*
X115150506Y-167865537D01*
X115260820Y-167924502D01*
X115380518Y-167960812D01*
X115505000Y-167973072D01*
X115919250Y-167970000D01*
X116078000Y-167811250D01*
X116078000Y-166887000D01*
X115028750Y-166887000D01*
X114870000Y-167045750D01*
X114866928Y-167335000D01*
X113825441Y-167335000D01*
X113841170Y-167283151D01*
X113860686Y-167085001D01*
X113860686Y-166434999D01*
X113841170Y-166236849D01*
X113783372Y-166046313D01*
X113747927Y-165980000D01*
X114903613Y-165980000D01*
X114879188Y-166060518D01*
X114866928Y-166185000D01*
X114870000Y-166474250D01*
X115028750Y-166633000D01*
X116078000Y-166633000D01*
X116078000Y-166613000D01*
X116332000Y-166613000D01*
X116332000Y-166633000D01*
X116352000Y-166633000D01*
X116352000Y-166887000D01*
X116332000Y-166887000D01*
X116332000Y-167811250D01*
X116490750Y-167970000D01*
X116905000Y-167973072D01*
X117029482Y-167960812D01*
X117149180Y-167924502D01*
X117259494Y-167865537D01*
X117356185Y-167786185D01*
X117435537Y-167689494D01*
X117494502Y-167579180D01*
X117530812Y-167459482D01*
X117543072Y-167335000D01*
X117540000Y-167045750D01*
X117381252Y-166887002D01*
X117528919Y-166887002D01*
X117928846Y-167286930D01*
X117953398Y-167410360D01*
X118067376Y-167685527D01*
X118232846Y-167933170D01*
X118443449Y-168143773D01*
X118691092Y-168309243D01*
X118966259Y-168423221D01*
X119258374Y-168481326D01*
X119556212Y-168481326D01*
X119848327Y-168423221D01*
X120123494Y-168309243D01*
X120371137Y-168143773D01*
X120581740Y-167933170D01*
X120747210Y-167685527D01*
X120861188Y-167410360D01*
X120919293Y-167118245D01*
X120919293Y-166820407D01*
X120861188Y-166528292D01*
X120747210Y-166253125D01*
X120581740Y-166005482D01*
X120371137Y-165794879D01*
X120123494Y-165629409D01*
X119848327Y-165515431D01*
X119724897Y-165490879D01*
X118550099Y-164316081D01*
X125269000Y-164316081D01*
X125269000Y-164613919D01*
X125327105Y-164906034D01*
X125441083Y-165181201D01*
X125606553Y-165428844D01*
X125817156Y-165639447D01*
X126064799Y-165804917D01*
X126339966Y-165918895D01*
X126632081Y-165977000D01*
X126929919Y-165977000D01*
X127222034Y-165918895D01*
X127497201Y-165804917D01*
X127604555Y-165733185D01*
X127610488Y-165744285D01*
X127736801Y-165898199D01*
X127890715Y-166024512D01*
X128066313Y-166118372D01*
X128256849Y-166176170D01*
X128454999Y-166195686D01*
X129355001Y-166195686D01*
X129553151Y-166176170D01*
X129743687Y-166118372D01*
X129919285Y-166024512D01*
X130073199Y-165898199D01*
X130199512Y-165744285D01*
X130256082Y-165638450D01*
X130268337Y-165623518D01*
X132213524Y-163678332D01*
X132257133Y-163642543D01*
X132322657Y-163562702D01*
X136691903Y-163562702D01*
X136763486Y-163806671D01*
X137018996Y-163927571D01*
X137293184Y-163996300D01*
X137575512Y-164010217D01*
X137855130Y-163968787D01*
X138121292Y-163873603D01*
X138246514Y-163806671D01*
X138318097Y-163562702D01*
X142406903Y-163562702D01*
X142478486Y-163806671D01*
X142733996Y-163927571D01*
X143008184Y-163996300D01*
X143290512Y-164010217D01*
X143570130Y-163968787D01*
X143836292Y-163873603D01*
X143961514Y-163806671D01*
X144033097Y-163562702D01*
X143220000Y-162749605D01*
X142406903Y-163562702D01*
X138318097Y-163562702D01*
X137505000Y-162749605D01*
X136691903Y-163562702D01*
X132322657Y-163562702D01*
X132399968Y-163468499D01*
X132481346Y-163316250D01*
X132506103Y-163269934D01*
X132571461Y-163054478D01*
X132580325Y-162964482D01*
X132588000Y-162886556D01*
X132588000Y-162886549D01*
X132593529Y-162830410D01*
X132588000Y-162774271D01*
X132588000Y-161736138D01*
X132593529Y-161679999D01*
X132588000Y-161623860D01*
X132588000Y-161623854D01*
X132571461Y-161455933D01*
X132568394Y-161445820D01*
X132522761Y-161295392D01*
X132506103Y-161240477D01*
X132399968Y-161041911D01*
X132311383Y-160933970D01*
X132292924Y-160911478D01*
X132292923Y-160911477D01*
X132257133Y-160867867D01*
X132213523Y-160832077D01*
X131640686Y-160259240D01*
X131640686Y-160084999D01*
X131621170Y-159886849D01*
X131563372Y-159696313D01*
X131469512Y-159520715D01*
X131454974Y-159503000D01*
X131851555Y-159503000D01*
X133187077Y-160838523D01*
X133222867Y-160882133D01*
X133396911Y-161024968D01*
X133595477Y-161131103D01*
X133700677Y-161163015D01*
X133810932Y-161196461D01*
X133824345Y-161197782D01*
X133978854Y-161213000D01*
X133978860Y-161213000D01*
X134034999Y-161218529D01*
X134091138Y-161213000D01*
X136024316Y-161213000D01*
X136068355Y-161295392D01*
X136163578Y-161411422D01*
X136279608Y-161506645D01*
X136411985Y-161577402D01*
X136448250Y-161588403D01*
X136396023Y-161640630D01*
X136512296Y-161756903D01*
X136268329Y-161828486D01*
X136147429Y-162083996D01*
X136078700Y-162358184D01*
X136064783Y-162640512D01*
X136106213Y-162920130D01*
X136201397Y-163186292D01*
X136268329Y-163311514D01*
X136512298Y-163383097D01*
X137325395Y-162570000D01*
X137311253Y-162555858D01*
X137490858Y-162376253D01*
X137505000Y-162390395D01*
X137519143Y-162376253D01*
X137698748Y-162555858D01*
X137684605Y-162570000D01*
X138497702Y-163383097D01*
X138741671Y-163311514D01*
X138862571Y-163056004D01*
X138931300Y-162781816D01*
X138945217Y-162499488D01*
X138903787Y-162219870D01*
X138808603Y-161953708D01*
X138741671Y-161828486D01*
X138497704Y-161756903D01*
X138613977Y-161640630D01*
X138561750Y-161588403D01*
X138598015Y-161577402D01*
X138729728Y-161507000D01*
X138999405Y-161507000D01*
X139070000Y-161513953D01*
X139140595Y-161507000D01*
X141995272Y-161507000D01*
X142126985Y-161577402D01*
X142163250Y-161588403D01*
X142111023Y-161640630D01*
X142227296Y-161756903D01*
X141983329Y-161828486D01*
X141862429Y-162083996D01*
X141793700Y-162358184D01*
X141779783Y-162640512D01*
X141821213Y-162920130D01*
X141916397Y-163186292D01*
X141983329Y-163311514D01*
X142227298Y-163383097D01*
X143040395Y-162570000D01*
X143026253Y-162555858D01*
X143205858Y-162376253D01*
X143220000Y-162390395D01*
X143234143Y-162376253D01*
X143413748Y-162555858D01*
X143399605Y-162570000D01*
X144212702Y-163383097D01*
X144456671Y-163311514D01*
X144577571Y-163056004D01*
X144631715Y-162840000D01*
X146026928Y-162840000D01*
X146039188Y-162964482D01*
X146075498Y-163084180D01*
X146134463Y-163194494D01*
X146213815Y-163291185D01*
X146310506Y-163370537D01*
X146420820Y-163429502D01*
X146540518Y-163465812D01*
X146665000Y-163478072D01*
X147079250Y-163475000D01*
X147238000Y-163316250D01*
X147238000Y-162392000D01*
X147492000Y-162392000D01*
X147492000Y-163316250D01*
X147650750Y-163475000D01*
X148065000Y-163478072D01*
X148189482Y-163465812D01*
X148309180Y-163429502D01*
X148419494Y-163370537D01*
X148516185Y-163291185D01*
X148595537Y-163194494D01*
X148654502Y-163084180D01*
X148690812Y-162964482D01*
X148703072Y-162840000D01*
X149836928Y-162840000D01*
X149849188Y-162964482D01*
X149885498Y-163084180D01*
X149944463Y-163194494D01*
X150023815Y-163291185D01*
X150120506Y-163370537D01*
X150230820Y-163429502D01*
X150350518Y-163465812D01*
X150475000Y-163478072D01*
X150889250Y-163475000D01*
X151048000Y-163316250D01*
X151048000Y-162392000D01*
X151302000Y-162392000D01*
X151302000Y-163316250D01*
X151460750Y-163475000D01*
X151875000Y-163478072D01*
X151999482Y-163465812D01*
X152119180Y-163429502D01*
X152229494Y-163370537D01*
X152326185Y-163291185D01*
X152405537Y-163194494D01*
X152464502Y-163084180D01*
X152500812Y-162964482D01*
X152513072Y-162840000D01*
X152510000Y-162550750D01*
X152351250Y-162392000D01*
X151302000Y-162392000D01*
X151048000Y-162392000D01*
X149998750Y-162392000D01*
X149840000Y-162550750D01*
X149836928Y-162840000D01*
X148703072Y-162840000D01*
X148700000Y-162550750D01*
X148541250Y-162392000D01*
X147492000Y-162392000D01*
X147238000Y-162392000D01*
X146188750Y-162392000D01*
X146030000Y-162550750D01*
X146026928Y-162840000D01*
X144631715Y-162840000D01*
X144646300Y-162781816D01*
X144660217Y-162499488D01*
X144618787Y-162219870D01*
X144523603Y-161953708D01*
X144456671Y-161828486D01*
X144212704Y-161756903D01*
X144328977Y-161640630D01*
X144276750Y-161588403D01*
X144313015Y-161577402D01*
X144444728Y-161507000D01*
X146056939Y-161507000D01*
X146039188Y-161565518D01*
X146026928Y-161690000D01*
X146030000Y-161979250D01*
X146188750Y-162138000D01*
X147238000Y-162138000D01*
X147238000Y-162118000D01*
X147492000Y-162118000D01*
X147492000Y-162138000D01*
X148541250Y-162138000D01*
X148700000Y-161979250D01*
X148703072Y-161690000D01*
X148690812Y-161565518D01*
X148682161Y-161537000D01*
X149857839Y-161537000D01*
X149849188Y-161565518D01*
X149836928Y-161690000D01*
X149840000Y-161979250D01*
X149998750Y-162138000D01*
X151048000Y-162138000D01*
X151048000Y-162118000D01*
X151302000Y-162118000D01*
X151302000Y-162138000D01*
X152351250Y-162138000D01*
X152510000Y-161979250D01*
X152513072Y-161690000D01*
X152509329Y-161652000D01*
X153834407Y-161652000D01*
X153905000Y-161658953D01*
X153975593Y-161652000D01*
X153975595Y-161652000D01*
X154026361Y-161647000D01*
X156614776Y-161647000D01*
X157933974Y-162966199D01*
X157978971Y-163021028D01*
X158033801Y-163066026D01*
X158033805Y-163066030D01*
X158033811Y-163066035D01*
X162763000Y-167795224D01*
X162763000Y-168929407D01*
X162756047Y-169000000D01*
X162763000Y-169070593D01*
X162763000Y-169070595D01*
X162776591Y-169208576D01*
X162783793Y-169281701D01*
X162865962Y-169552577D01*
X162999398Y-169802217D01*
X163048438Y-169861972D01*
X163178972Y-170021029D01*
X163233806Y-170066030D01*
X166286970Y-173119195D01*
X166331971Y-173174029D01*
X166550783Y-173353603D01*
X166800423Y-173487039D01*
X167071299Y-173569208D01*
X167282405Y-173590000D01*
X167282414Y-173590000D01*
X167352999Y-173596952D01*
X167423584Y-173590000D01*
X168316709Y-173590000D01*
X168177553Y-173729156D01*
X168012083Y-173976799D01*
X167898105Y-174251966D01*
X167840000Y-174544081D01*
X167840000Y-174841919D01*
X167898105Y-175134034D01*
X168012083Y-175409201D01*
X168177553Y-175656844D01*
X168388156Y-175867447D01*
X168635799Y-176032917D01*
X168910966Y-176146895D01*
X169203081Y-176205000D01*
X169500919Y-176205000D01*
X169793034Y-176146895D01*
X170068201Y-176032917D01*
X170315844Y-175867447D01*
X170376314Y-175806977D01*
X170376314Y-176713000D01*
X170391026Y-176862378D01*
X170434598Y-177006015D01*
X170505355Y-177138392D01*
X170600578Y-177254422D01*
X170716608Y-177349645D01*
X170848985Y-177420402D01*
X170992622Y-177463974D01*
X171142000Y-177478686D01*
X172642000Y-177478686D01*
X172791378Y-177463974D01*
X172935015Y-177420402D01*
X173067392Y-177349645D01*
X173183422Y-177254422D01*
X173278645Y-177138392D01*
X173349402Y-177006015D01*
X173392974Y-176862378D01*
X173407686Y-176713000D01*
X173407686Y-175213000D01*
X173392974Y-175063622D01*
X173349402Y-174919985D01*
X173278645Y-174787608D01*
X173183422Y-174671578D01*
X173067392Y-174576355D01*
X172935015Y-174505598D01*
X172791378Y-174462026D01*
X172650686Y-174448169D01*
X172669388Y-174379993D01*
X171892000Y-173602605D01*
X171114612Y-174379993D01*
X171133314Y-174448169D01*
X170992622Y-174462026D01*
X170855926Y-174503492D01*
X170805895Y-174251966D01*
X170765241Y-174153818D01*
X170935007Y-174200388D01*
X171712395Y-173423000D01*
X172071605Y-173423000D01*
X172848993Y-174200388D01*
X173087860Y-174134863D01*
X173203760Y-173887884D01*
X173269250Y-173623040D01*
X173281812Y-173350508D01*
X173240965Y-173080762D01*
X173148277Y-172824168D01*
X173087860Y-172711137D01*
X172848993Y-172645612D01*
X172071605Y-173423000D01*
X171712395Y-173423000D01*
X171698253Y-173408858D01*
X171877858Y-173229253D01*
X171892000Y-173243395D01*
X172669388Y-172466007D01*
X172603863Y-172227140D01*
X172601117Y-172225851D01*
X172608201Y-172222917D01*
X172855844Y-172057447D01*
X173066447Y-171846844D01*
X173231917Y-171599201D01*
X173345895Y-171324034D01*
X173404000Y-171031919D01*
X173404000Y-170734081D01*
X173345895Y-170441966D01*
X173231917Y-170166799D01*
X173066447Y-169919156D01*
X172855844Y-169708553D01*
X172608201Y-169543083D01*
X172601306Y-169540227D01*
X172603863Y-169538860D01*
X172669388Y-169299993D01*
X171892000Y-168522605D01*
X171114612Y-169299993D01*
X171158819Y-169461146D01*
X171101497Y-169466792D01*
X170830621Y-169548961D01*
X170739169Y-169597843D01*
X170741812Y-169540508D01*
X170700965Y-169270762D01*
X170608277Y-169014168D01*
X170547860Y-168901137D01*
X170308993Y-168835612D01*
X169531605Y-169613000D01*
X169545748Y-169627143D01*
X169366143Y-169806748D01*
X169352000Y-169792605D01*
X168574612Y-170569993D01*
X168614664Y-170716000D01*
X167948225Y-170716000D01*
X166917717Y-169685492D01*
X167962188Y-169685492D01*
X168003035Y-169955238D01*
X168095723Y-170211832D01*
X168156140Y-170324863D01*
X168395007Y-170390388D01*
X169172395Y-169613000D01*
X168395007Y-168835612D01*
X168156140Y-168901137D01*
X168040240Y-169148116D01*
X167974750Y-169412960D01*
X167962188Y-169685492D01*
X166917717Y-169685492D01*
X165637000Y-168404776D01*
X165637000Y-168029993D01*
X168574612Y-168029993D01*
X168640137Y-168268860D01*
X168795096Y-168341578D01*
X168753168Y-168356723D01*
X168640137Y-168417140D01*
X168574612Y-168656007D01*
X169352000Y-169433395D01*
X170129388Y-168656007D01*
X170063863Y-168417140D01*
X170060352Y-168415492D01*
X170502188Y-168415492D01*
X170543035Y-168685238D01*
X170635723Y-168941832D01*
X170696140Y-169054863D01*
X170935007Y-169120388D01*
X171712395Y-168343000D01*
X172071605Y-168343000D01*
X172848993Y-169120388D01*
X173087860Y-169054863D01*
X173203760Y-168807884D01*
X173269250Y-168543040D01*
X173281812Y-168270508D01*
X173240965Y-168000762D01*
X173148277Y-167744168D01*
X173087860Y-167631137D01*
X172848993Y-167565612D01*
X172071605Y-168343000D01*
X171712395Y-168343000D01*
X170935007Y-167565612D01*
X170696140Y-167631137D01*
X170580240Y-167878116D01*
X170514750Y-168142960D01*
X170502188Y-168415492D01*
X170060352Y-168415492D01*
X169908904Y-168344422D01*
X169950832Y-168329277D01*
X170063863Y-168268860D01*
X170129388Y-168029993D01*
X169352000Y-167252605D01*
X168574612Y-168029993D01*
X165637000Y-168029993D01*
X165637000Y-167270593D01*
X165643953Y-167200000D01*
X165638585Y-167145492D01*
X167962188Y-167145492D01*
X168003035Y-167415238D01*
X168095723Y-167671832D01*
X168156140Y-167784863D01*
X168395007Y-167850388D01*
X169172395Y-167073000D01*
X169531605Y-167073000D01*
X170308993Y-167850388D01*
X170547860Y-167784863D01*
X170663760Y-167537884D01*
X170701315Y-167386007D01*
X171114612Y-167386007D01*
X171892000Y-168163395D01*
X172669388Y-167386007D01*
X172603863Y-167147140D01*
X172356884Y-167031240D01*
X172092040Y-166965750D01*
X171819508Y-166953188D01*
X171549762Y-166994035D01*
X171293168Y-167086723D01*
X171180137Y-167147140D01*
X171114612Y-167386007D01*
X170701315Y-167386007D01*
X170729250Y-167273040D01*
X170741812Y-167000508D01*
X170700965Y-166730762D01*
X170608277Y-166474168D01*
X170547860Y-166361137D01*
X170308993Y-166295612D01*
X169531605Y-167073000D01*
X169172395Y-167073000D01*
X168395007Y-166295612D01*
X168156140Y-166361137D01*
X168040240Y-166608116D01*
X167974750Y-166872960D01*
X167962188Y-167145492D01*
X165638585Y-167145492D01*
X165635901Y-167118245D01*
X165616208Y-166918299D01*
X165534039Y-166647423D01*
X165513029Y-166608116D01*
X165400603Y-166397782D01*
X165266030Y-166233806D01*
X165221028Y-166178971D01*
X165166194Y-166133970D01*
X165148231Y-166116007D01*
X168574612Y-166116007D01*
X169352000Y-166893395D01*
X170129388Y-166116007D01*
X170063863Y-165877140D01*
X169816884Y-165761240D01*
X169552040Y-165695750D01*
X169279508Y-165683188D01*
X169009762Y-165724035D01*
X168753168Y-165816723D01*
X168640137Y-165877140D01*
X168574612Y-166116007D01*
X165148231Y-166116007D01*
X164113829Y-165081605D01*
X174058000Y-165081605D01*
X174183914Y-165371577D01*
X174516126Y-165537433D01*
X174874312Y-165635290D01*
X175244706Y-165661389D01*
X175613075Y-165614725D01*
X175655000Y-165600722D01*
X175655000Y-166057797D01*
X175754417Y-166557600D01*
X175949431Y-167028404D01*
X176232546Y-167452116D01*
X176592884Y-167812454D01*
X177016596Y-168095569D01*
X177487400Y-168290583D01*
X177987203Y-168390000D01*
X178496797Y-168390000D01*
X178996600Y-168290583D01*
X179467404Y-168095569D01*
X179891116Y-167812454D01*
X180251454Y-167452116D01*
X180534569Y-167028404D01*
X180729583Y-166557600D01*
X180829000Y-166057797D01*
X180829000Y-165548203D01*
X180729583Y-165048400D01*
X180534569Y-164577596D01*
X180251454Y-164153884D01*
X179891116Y-163793546D01*
X179467404Y-163510431D01*
X178996600Y-163315417D01*
X178496797Y-163216000D01*
X177987203Y-163216000D01*
X177487400Y-163315417D01*
X177057302Y-163493570D01*
X177038725Y-163346925D01*
X176921094Y-162994738D01*
X176795577Y-162759914D01*
X176505605Y-162634000D01*
X175371605Y-163768000D01*
X175385748Y-163782143D01*
X175206143Y-163961748D01*
X175192000Y-163947605D01*
X174058000Y-165081605D01*
X164113829Y-165081605D01*
X162852930Y-163820706D01*
X173298611Y-163820706D01*
X173345275Y-164189075D01*
X173462906Y-164541262D01*
X173588423Y-164776086D01*
X173878395Y-164902000D01*
X175012395Y-163768000D01*
X173878395Y-162634000D01*
X173588423Y-162759914D01*
X173422567Y-163092126D01*
X173324710Y-163450312D01*
X173298611Y-163820706D01*
X162852930Y-163820706D01*
X161486619Y-162454395D01*
X174058000Y-162454395D01*
X175192000Y-163588395D01*
X176326000Y-162454395D01*
X176200086Y-162164423D01*
X175867874Y-161998567D01*
X175509688Y-161900710D01*
X175139294Y-161874611D01*
X174770925Y-161921275D01*
X174418738Y-162038906D01*
X174183914Y-162164423D01*
X174058000Y-162454395D01*
X161486619Y-162454395D01*
X160437000Y-161404776D01*
X160437000Y-159763605D01*
X174058000Y-159763605D01*
X174183914Y-160053577D01*
X174516126Y-160219433D01*
X174874312Y-160317290D01*
X175244706Y-160343389D01*
X175613075Y-160296725D01*
X175965262Y-160179094D01*
X176200086Y-160053577D01*
X176326000Y-159763605D01*
X175192000Y-158629605D01*
X174058000Y-159763605D01*
X160437000Y-159763605D01*
X160437000Y-159495224D01*
X161429518Y-158502706D01*
X173298611Y-158502706D01*
X173345275Y-158871075D01*
X173462906Y-159223262D01*
X173588423Y-159458086D01*
X173878395Y-159584000D01*
X175012395Y-158450000D01*
X173878395Y-157316000D01*
X173588423Y-157441914D01*
X173422567Y-157774126D01*
X173324710Y-158132312D01*
X173298611Y-158502706D01*
X161429518Y-158502706D01*
X162795829Y-157136395D01*
X174058000Y-157136395D01*
X175192000Y-158270395D01*
X175206143Y-158256253D01*
X175385748Y-158435858D01*
X175371605Y-158450000D01*
X176505605Y-159584000D01*
X176795577Y-159458086D01*
X176961433Y-159125874D01*
X177059290Y-158767688D01*
X177062195Y-158726457D01*
X177487400Y-158902583D01*
X177987203Y-159002000D01*
X178496797Y-159002000D01*
X178996600Y-158902583D01*
X179467404Y-158707569D01*
X179891116Y-158424454D01*
X180251454Y-158064116D01*
X180534569Y-157640404D01*
X180729583Y-157169600D01*
X180829000Y-156669797D01*
X180829000Y-156160203D01*
X180729583Y-155660400D01*
X180534569Y-155189596D01*
X180251454Y-154765884D01*
X179891116Y-154405546D01*
X179467404Y-154122431D01*
X178996600Y-153927417D01*
X178496797Y-153828000D01*
X177987203Y-153828000D01*
X177487400Y-153927417D01*
X177016596Y-154122431D01*
X176592884Y-154405546D01*
X176232546Y-154765884D01*
X175949431Y-155189596D01*
X175754417Y-155660400D01*
X175655000Y-156160203D01*
X175655000Y-156622409D01*
X175509688Y-156582710D01*
X175139294Y-156556611D01*
X174770925Y-156603275D01*
X174418738Y-156720906D01*
X174183914Y-156846423D01*
X174058000Y-157136395D01*
X162795829Y-157136395D01*
X167160225Y-152772000D01*
X168316709Y-152772000D01*
X168177553Y-152911156D01*
X168012083Y-153158799D01*
X167898105Y-153433966D01*
X167840000Y-153726081D01*
X167840000Y-154023919D01*
X167898105Y-154316034D01*
X168012083Y-154591201D01*
X168177553Y-154838844D01*
X168388156Y-155049447D01*
X168635799Y-155214917D01*
X168910966Y-155328895D01*
X169203081Y-155387000D01*
X169500919Y-155387000D01*
X169793034Y-155328895D01*
X170068201Y-155214917D01*
X170315844Y-155049447D01*
X170376314Y-154988977D01*
X170376314Y-155895000D01*
X170391026Y-156044378D01*
X170434598Y-156188015D01*
X170505355Y-156320392D01*
X170600578Y-156436422D01*
X170716608Y-156531645D01*
X170848985Y-156602402D01*
X170992622Y-156645974D01*
X171142000Y-156660686D01*
X172642000Y-156660686D01*
X172791378Y-156645974D01*
X172935015Y-156602402D01*
X173067392Y-156531645D01*
X173183422Y-156436422D01*
X173278645Y-156320392D01*
X173349402Y-156188015D01*
X173392974Y-156044378D01*
X173407686Y-155895000D01*
X173407686Y-154395000D01*
X173392974Y-154245622D01*
X173349402Y-154101985D01*
X173278645Y-153969608D01*
X173183422Y-153853578D01*
X173067392Y-153758355D01*
X172935015Y-153687598D01*
X172791378Y-153644026D01*
X172650686Y-153630169D01*
X172669388Y-153561993D01*
X171892000Y-152784605D01*
X171114612Y-153561993D01*
X171133314Y-153630169D01*
X170992622Y-153644026D01*
X170855926Y-153685492D01*
X170805895Y-153433966D01*
X170765241Y-153335818D01*
X170935007Y-153382388D01*
X171712395Y-152605000D01*
X172071605Y-152605000D01*
X172848993Y-153382388D01*
X173087860Y-153316863D01*
X173203760Y-153069884D01*
X173269250Y-152805040D01*
X173281812Y-152532508D01*
X173240965Y-152262762D01*
X173148277Y-152006168D01*
X173087860Y-151893137D01*
X172848993Y-151827612D01*
X172071605Y-152605000D01*
X171712395Y-152605000D01*
X171698253Y-152590858D01*
X171877858Y-152411253D01*
X171892000Y-152425395D01*
X172669388Y-151648007D01*
X172603863Y-151409140D01*
X172601117Y-151407851D01*
X172608201Y-151404917D01*
X172855844Y-151239447D01*
X173066447Y-151028844D01*
X173231917Y-150781201D01*
X173345895Y-150506034D01*
X173404000Y-150213919D01*
X173404000Y-149916081D01*
X173345895Y-149623966D01*
X173231917Y-149348799D01*
X173066447Y-149101156D01*
X172855844Y-148890553D01*
X172608201Y-148725083D01*
X172601306Y-148722227D01*
X172603863Y-148720860D01*
X172669388Y-148481993D01*
X171892000Y-147704605D01*
X171114612Y-148481993D01*
X171158819Y-148643146D01*
X171101497Y-148648792D01*
X170830621Y-148730961D01*
X170739169Y-148779843D01*
X170741812Y-148722508D01*
X170700965Y-148452762D01*
X170608277Y-148196168D01*
X170547860Y-148083137D01*
X170308993Y-148017612D01*
X169531605Y-148795000D01*
X169545748Y-148809143D01*
X169366143Y-148988748D01*
X169352000Y-148974605D01*
X168574612Y-149751993D01*
X168614664Y-149898000D01*
X166635593Y-149898000D01*
X166565000Y-149891047D01*
X166494407Y-149898000D01*
X166494405Y-149898000D01*
X166283299Y-149918792D01*
X166094591Y-149976036D01*
X166012422Y-150000961D01*
X165762782Y-150134397D01*
X165665885Y-150213919D01*
X165543971Y-150313971D01*
X165498970Y-150368805D01*
X158083811Y-157783965D01*
X158083805Y-157783970D01*
X158033801Y-157833974D01*
X157978972Y-157878971D01*
X157933975Y-157933800D01*
X157094776Y-158773000D01*
X153980592Y-158773000D01*
X153909999Y-158766047D01*
X153839406Y-158773000D01*
X153839405Y-158773000D01*
X153788639Y-158778000D01*
X151684850Y-158778000D01*
X151456701Y-158708792D01*
X151408449Y-158704040D01*
X151341701Y-158683792D01*
X151130595Y-158663000D01*
X151130593Y-158663000D01*
X151060000Y-158656047D01*
X150989407Y-158663000D01*
X147550593Y-158663000D01*
X147523143Y-158660296D01*
X147501701Y-158653792D01*
X147290595Y-158633000D01*
X147290593Y-158633000D01*
X147220000Y-158626047D01*
X147149407Y-158633000D01*
X144444728Y-158633000D01*
X144313015Y-158562598D01*
X144169378Y-158519026D01*
X144020000Y-158504314D01*
X142420000Y-158504314D01*
X142270622Y-158519026D01*
X142126985Y-158562598D01*
X141995272Y-158633000D01*
X140071568Y-158633000D01*
X140036195Y-158603970D01*
X138942000Y-157509776D01*
X138942000Y-155305584D01*
X138948952Y-155234999D01*
X138942000Y-155164414D01*
X138942000Y-155164405D01*
X138921208Y-154953299D01*
X138839039Y-154682423D01*
X138705603Y-154432783D01*
X138526029Y-154213971D01*
X138471195Y-154168970D01*
X131448683Y-147146458D01*
X146828000Y-147146458D01*
X146828000Y-147493542D01*
X146895712Y-147833957D01*
X147028535Y-148154620D01*
X147221365Y-148443210D01*
X147466790Y-148688635D01*
X147755380Y-148881465D01*
X148076043Y-149014288D01*
X148416458Y-149082000D01*
X148763542Y-149082000D01*
X149103957Y-149014288D01*
X149424620Y-148881465D01*
X149445532Y-148867492D01*
X167962188Y-148867492D01*
X168003035Y-149137238D01*
X168095723Y-149393832D01*
X168156140Y-149506863D01*
X168395007Y-149572388D01*
X169172395Y-148795000D01*
X168395007Y-148017612D01*
X168156140Y-148083137D01*
X168040240Y-148330116D01*
X167974750Y-148594960D01*
X167962188Y-148867492D01*
X149445532Y-148867492D01*
X149610895Y-148757000D01*
X151283178Y-148757000D01*
X151323966Y-148773895D01*
X151616081Y-148832000D01*
X151913919Y-148832000D01*
X152206034Y-148773895D01*
X152481201Y-148659917D01*
X152728844Y-148494447D01*
X152939447Y-148283844D01*
X153104917Y-148036201D01*
X153218895Y-147761034D01*
X153277000Y-147468919D01*
X153277000Y-147211993D01*
X168574612Y-147211993D01*
X168640137Y-147450860D01*
X168795096Y-147523578D01*
X168753168Y-147538723D01*
X168640137Y-147599140D01*
X168574612Y-147838007D01*
X169352000Y-148615395D01*
X170129388Y-147838007D01*
X170063863Y-147599140D01*
X170060352Y-147597492D01*
X170502188Y-147597492D01*
X170543035Y-147867238D01*
X170635723Y-148123832D01*
X170696140Y-148236863D01*
X170935007Y-148302388D01*
X171712395Y-147525000D01*
X172071605Y-147525000D01*
X172848993Y-148302388D01*
X173087860Y-148236863D01*
X173203760Y-147989884D01*
X173269250Y-147725040D01*
X173281812Y-147452508D01*
X173240965Y-147182762D01*
X173148277Y-146926168D01*
X173087860Y-146813137D01*
X172848993Y-146747612D01*
X172071605Y-147525000D01*
X171712395Y-147525000D01*
X170935007Y-146747612D01*
X170696140Y-146813137D01*
X170580240Y-147060116D01*
X170514750Y-147324960D01*
X170502188Y-147597492D01*
X170060352Y-147597492D01*
X169908904Y-147526422D01*
X169950832Y-147511277D01*
X170063863Y-147450860D01*
X170129388Y-147211993D01*
X169352000Y-146434605D01*
X168574612Y-147211993D01*
X153277000Y-147211993D01*
X153277000Y-147171081D01*
X153218895Y-146878966D01*
X153104917Y-146603799D01*
X152939447Y-146356156D01*
X152910783Y-146327492D01*
X167962188Y-146327492D01*
X168003035Y-146597238D01*
X168095723Y-146853832D01*
X168156140Y-146966863D01*
X168395007Y-147032388D01*
X169172395Y-146255000D01*
X169531605Y-146255000D01*
X170308993Y-147032388D01*
X170547860Y-146966863D01*
X170663760Y-146719884D01*
X170701315Y-146568007D01*
X171114612Y-146568007D01*
X171892000Y-147345395D01*
X172669388Y-146568007D01*
X172603863Y-146329140D01*
X172356884Y-146213240D01*
X172092040Y-146147750D01*
X171819508Y-146135188D01*
X171549762Y-146176035D01*
X171293168Y-146268723D01*
X171180137Y-146329140D01*
X171114612Y-146568007D01*
X170701315Y-146568007D01*
X170729250Y-146455040D01*
X170741812Y-146182508D01*
X170700965Y-145912762D01*
X170608277Y-145656168D01*
X170547860Y-145543137D01*
X170308993Y-145477612D01*
X169531605Y-146255000D01*
X169172395Y-146255000D01*
X168395007Y-145477612D01*
X168156140Y-145543137D01*
X168040240Y-145790116D01*
X167974750Y-146054960D01*
X167962188Y-146327492D01*
X152910783Y-146327492D01*
X152728844Y-146145553D01*
X152481201Y-145980083D01*
X152206034Y-145866105D01*
X151913919Y-145808000D01*
X151616081Y-145808000D01*
X151323966Y-145866105D01*
X151283178Y-145883000D01*
X149610895Y-145883000D01*
X149424620Y-145758535D01*
X149103957Y-145625712D01*
X148763542Y-145558000D01*
X148416458Y-145558000D01*
X148076043Y-145625712D01*
X147755380Y-145758535D01*
X147466790Y-145951365D01*
X147221365Y-146196790D01*
X147028535Y-146485380D01*
X146895712Y-146806043D01*
X146828000Y-147146458D01*
X131448683Y-147146458D01*
X131327994Y-147025770D01*
X131284288Y-146806043D01*
X131151465Y-146485380D01*
X130958635Y-146196790D01*
X130713210Y-145951365D01*
X130424620Y-145758535D01*
X130103957Y-145625712D01*
X129763542Y-145558000D01*
X129416458Y-145558000D01*
X129076043Y-145625712D01*
X128755380Y-145758535D01*
X128466790Y-145951365D01*
X128221365Y-146196790D01*
X128028535Y-146485380D01*
X127895712Y-146806043D01*
X127828000Y-147146458D01*
X127828000Y-147493542D01*
X127895712Y-147833957D01*
X128028535Y-148154620D01*
X128221365Y-148443210D01*
X128466790Y-148688635D01*
X128755380Y-148881465D01*
X129076043Y-149014288D01*
X129295770Y-149057994D01*
X136068001Y-155830226D01*
X136068000Y-157735949D01*
X135146088Y-158657862D01*
X135097630Y-158697630D01*
X134964872Y-158859398D01*
X134938926Y-158891013D01*
X134919691Y-158927000D01*
X134508446Y-158927000D01*
X133172927Y-157591482D01*
X133137133Y-157547867D01*
X132963089Y-157405032D01*
X132764523Y-157298897D01*
X132549067Y-157233539D01*
X132381146Y-157217000D01*
X132381139Y-157217000D01*
X132325000Y-157211471D01*
X132268861Y-157217000D01*
X131221590Y-157217000D01*
X131189285Y-157190488D01*
X131013687Y-157096628D01*
X130823151Y-157038830D01*
X130625001Y-157019314D01*
X129724999Y-157019314D01*
X129526849Y-157038830D01*
X129336313Y-157096628D01*
X129160715Y-157190488D01*
X129128410Y-157217000D01*
X128681590Y-157217000D01*
X128649285Y-157190488D01*
X128473687Y-157096628D01*
X128283151Y-157038830D01*
X128085001Y-157019314D01*
X127184999Y-157019314D01*
X126986849Y-157038830D01*
X126796313Y-157096628D01*
X126620715Y-157190488D01*
X126466801Y-157316801D01*
X126340488Y-157470715D01*
X126246628Y-157646313D01*
X126188830Y-157836849D01*
X126169314Y-158034999D01*
X126169314Y-158685001D01*
X126188830Y-158883151D01*
X126246628Y-159073687D01*
X126340488Y-159249285D01*
X126451866Y-159385000D01*
X126340488Y-159520715D01*
X126246628Y-159696313D01*
X126188830Y-159886849D01*
X126169314Y-160084999D01*
X126169314Y-160735001D01*
X126188830Y-160933151D01*
X126246628Y-161123687D01*
X126340488Y-161299285D01*
X126466801Y-161453199D01*
X126620715Y-161579512D01*
X126796313Y-161673372D01*
X126986849Y-161731170D01*
X127184999Y-161750686D01*
X127788090Y-161750686D01*
X127753815Y-161778815D01*
X127674463Y-161875506D01*
X127615498Y-161985820D01*
X127579188Y-162105518D01*
X127566928Y-162230000D01*
X127570000Y-162519250D01*
X127728750Y-162678000D01*
X128778000Y-162678000D01*
X128778000Y-161753750D01*
X128619619Y-161595369D01*
X128649285Y-161579512D01*
X128681590Y-161553000D01*
X129128410Y-161553000D01*
X129160715Y-161579512D01*
X129190381Y-161595369D01*
X129032000Y-161753750D01*
X129032000Y-162678000D01*
X129052000Y-162678000D01*
X129052000Y-162932000D01*
X129032000Y-162932000D01*
X129032000Y-162952000D01*
X128778000Y-162952000D01*
X128778000Y-162932000D01*
X127728750Y-162932000D01*
X127570000Y-163090750D01*
X127569520Y-163135986D01*
X127561686Y-163131799D01*
X127381328Y-163077087D01*
X127222034Y-163011105D01*
X126929919Y-162953000D01*
X126632081Y-162953000D01*
X126339966Y-163011105D01*
X126064799Y-163125083D01*
X125817156Y-163290553D01*
X125606553Y-163501156D01*
X125441083Y-163748799D01*
X125327105Y-164023966D01*
X125269000Y-164316081D01*
X118550099Y-164316081D01*
X118090108Y-163856091D01*
X118050337Y-163807630D01*
X117856955Y-163648925D01*
X117636326Y-163530997D01*
X117396930Y-163458377D01*
X117210347Y-163440000D01*
X117210340Y-163440000D01*
X117147967Y-163433857D01*
X117085594Y-163440000D01*
X117021837Y-163440000D01*
X116853151Y-163388830D01*
X116655001Y-163369314D01*
X115754999Y-163369314D01*
X115556849Y-163388830D01*
X115388163Y-163440000D01*
X113211837Y-163440000D01*
X113043151Y-163388830D01*
X112845001Y-163369314D01*
X111944999Y-163369314D01*
X111746849Y-163388830D01*
X111556313Y-163446628D01*
X111380715Y-163540488D01*
X111226801Y-163666801D01*
X111100488Y-163820715D01*
X111006628Y-163996313D01*
X110948830Y-164186849D01*
X110929314Y-164384999D01*
X110929314Y-164947287D01*
X101919484Y-155937458D01*
X101935927Y-155883254D01*
X101970719Y-155530000D01*
X101935927Y-155176746D01*
X101832886Y-154837068D01*
X101665558Y-154524018D01*
X101440372Y-154249628D01*
X101165982Y-154024442D01*
X100852932Y-153857114D01*
X100513254Y-153754073D01*
X100248527Y-153728000D01*
X98551473Y-153728000D01*
X98286746Y-153754073D01*
X97947068Y-153857114D01*
X97634018Y-154024442D01*
X97359628Y-154249628D01*
X97134442Y-154524018D01*
X96967114Y-154837068D01*
X96864073Y-155176746D01*
X96829281Y-155530000D01*
X96864073Y-155883254D01*
X96967114Y-156222932D01*
X97134442Y-156535982D01*
X97359628Y-156810372D01*
X97634018Y-157035558D01*
X97947068Y-157202886D01*
X98286746Y-157305927D01*
X98551473Y-157332000D01*
X99249578Y-157332000D01*
X108061577Y-166144000D01*
X107829590Y-166144000D01*
X107344277Y-166240535D01*
X106887122Y-166429895D01*
X106475694Y-166704803D01*
X106182497Y-166998000D01*
X101204520Y-166998000D01*
X101120982Y-166929442D01*
X100807932Y-166762114D01*
X100468254Y-166659073D01*
X100203527Y-166633000D01*
X98506473Y-166633000D01*
X98241746Y-166659073D01*
X98014093Y-166728131D01*
X99581539Y-165160686D01*
X100905001Y-165160686D01*
X101103151Y-165141170D01*
X101293687Y-165083372D01*
X101469285Y-164989512D01*
X101623199Y-164863199D01*
X101749512Y-164709285D01*
X101843372Y-164533687D01*
X101901170Y-164343151D01*
X101920686Y-164145001D01*
X101920686Y-162564999D01*
X101901170Y-162366849D01*
X101843372Y-162176313D01*
X101749512Y-162000715D01*
X101623199Y-161846801D01*
X101469285Y-161720488D01*
X101293687Y-161626628D01*
X101103151Y-161568830D01*
X100905001Y-161549314D01*
X97804999Y-161549314D01*
X97606849Y-161568830D01*
X97416313Y-161626628D01*
X97240715Y-161720488D01*
X97086801Y-161846801D01*
X96960488Y-162000715D01*
X96866628Y-162176313D01*
X96808830Y-162366849D01*
X96789314Y-162564999D01*
X96789314Y-163888461D01*
X94533806Y-166143970D01*
X94478971Y-166188972D01*
X94299397Y-166407784D01*
X94165961Y-166657424D01*
X94083792Y-166928300D01*
X94065084Y-167118245D01*
X94056047Y-167210000D01*
X89660000Y-167210000D01*
X89660000Y-151490000D01*
X96961928Y-151490000D01*
X96974188Y-151614482D01*
X97010498Y-151734180D01*
X97069463Y-151844494D01*
X97148815Y-151941185D01*
X97245506Y-152020537D01*
X97355820Y-152079502D01*
X97475518Y-152115812D01*
X97600000Y-152128072D01*
X99114250Y-152125000D01*
X99273000Y-151966250D01*
X99273000Y-150577000D01*
X99527000Y-150577000D01*
X99527000Y-151966250D01*
X99685750Y-152125000D01*
X101200000Y-152128072D01*
X101324482Y-152115812D01*
X101444180Y-152079502D01*
X101554494Y-152020537D01*
X101651185Y-151941185D01*
X101730537Y-151844494D01*
X101789502Y-151734180D01*
X101825812Y-151614482D01*
X101838072Y-151490000D01*
X101835000Y-150735750D01*
X101676250Y-150577000D01*
X99527000Y-150577000D01*
X99273000Y-150577000D01*
X97123750Y-150577000D01*
X96965000Y-150735750D01*
X96961928Y-151490000D01*
X89660000Y-151490000D01*
X89660000Y-149410000D01*
X96961928Y-149410000D01*
X96965000Y-150164250D01*
X97123750Y-150323000D01*
X99273000Y-150323000D01*
X99273000Y-148933750D01*
X99527000Y-148933750D01*
X99527000Y-150323000D01*
X101676250Y-150323000D01*
X101835000Y-150164250D01*
X101838072Y-149410000D01*
X101825812Y-149285518D01*
X101789502Y-149165820D01*
X101730537Y-149055506D01*
X101651185Y-148958815D01*
X101554494Y-148879463D01*
X101444180Y-148820498D01*
X101324482Y-148784188D01*
X101200000Y-148771928D01*
X99685750Y-148775000D01*
X99527000Y-148933750D01*
X99273000Y-148933750D01*
X99114250Y-148775000D01*
X97600000Y-148771928D01*
X97475518Y-148784188D01*
X97355820Y-148820498D01*
X97245506Y-148879463D01*
X97148815Y-148958815D01*
X97069463Y-149055506D01*
X97010498Y-149165820D01*
X96974188Y-149285518D01*
X96961928Y-149410000D01*
X89660000Y-149410000D01*
X89660000Y-145954990D01*
X105565000Y-145954990D01*
X105565000Y-146449810D01*
X105661535Y-146935123D01*
X105850895Y-147392278D01*
X106125803Y-147803706D01*
X106475694Y-148153597D01*
X106887122Y-148428505D01*
X107344277Y-148617865D01*
X107829590Y-148714400D01*
X108324410Y-148714400D01*
X108809723Y-148617865D01*
X109266878Y-148428505D01*
X109678306Y-148153597D01*
X109894903Y-147937000D01*
X114518178Y-147937000D01*
X114558966Y-147953895D01*
X114851081Y-148012000D01*
X115148919Y-148012000D01*
X115441034Y-147953895D01*
X115716201Y-147839917D01*
X115963844Y-147674447D01*
X116174447Y-147463844D01*
X116339917Y-147216201D01*
X116453895Y-146941034D01*
X116512000Y-146648919D01*
X116512000Y-146351081D01*
X116453895Y-146058966D01*
X116339917Y-145783799D01*
X116174447Y-145536156D01*
X115963844Y-145325553D01*
X115922619Y-145298007D01*
X168574612Y-145298007D01*
X169352000Y-146075395D01*
X170129388Y-145298007D01*
X170063863Y-145059140D01*
X169816884Y-144943240D01*
X169552040Y-144877750D01*
X169279508Y-144865188D01*
X169009762Y-144906035D01*
X168753168Y-144998723D01*
X168640137Y-145059140D01*
X168574612Y-145298007D01*
X115922619Y-145298007D01*
X115716201Y-145160083D01*
X115441034Y-145046105D01*
X115148919Y-144988000D01*
X114851081Y-144988000D01*
X114558966Y-145046105D01*
X114518178Y-145063000D01*
X110324014Y-145063000D01*
X110303105Y-145012522D01*
X110028197Y-144601094D01*
X109690708Y-144263605D01*
X174058000Y-144263605D01*
X174183914Y-144553577D01*
X174516126Y-144719433D01*
X174874312Y-144817290D01*
X175244706Y-144843389D01*
X175613075Y-144796725D01*
X175655000Y-144782722D01*
X175655000Y-145239797D01*
X175754417Y-145739600D01*
X175949431Y-146210404D01*
X176232546Y-146634116D01*
X176592884Y-146994454D01*
X177016596Y-147277569D01*
X177487400Y-147472583D01*
X177987203Y-147572000D01*
X178496797Y-147572000D01*
X178996600Y-147472583D01*
X179467404Y-147277569D01*
X179891116Y-146994454D01*
X180251454Y-146634116D01*
X180534569Y-146210404D01*
X180729583Y-145739600D01*
X180829000Y-145239797D01*
X180829000Y-144730203D01*
X180729583Y-144230400D01*
X180534569Y-143759596D01*
X180251454Y-143335884D01*
X179891116Y-142975546D01*
X179467404Y-142692431D01*
X178996600Y-142497417D01*
X178496797Y-142398000D01*
X177987203Y-142398000D01*
X177487400Y-142497417D01*
X177057302Y-142675570D01*
X177038725Y-142528925D01*
X176921094Y-142176738D01*
X176795577Y-141941914D01*
X176505605Y-141816000D01*
X175371605Y-142950000D01*
X175385748Y-142964143D01*
X175206143Y-143143748D01*
X175192000Y-143129605D01*
X174058000Y-144263605D01*
X109690708Y-144263605D01*
X109678306Y-144251203D01*
X109266878Y-143976295D01*
X108809723Y-143786935D01*
X108324410Y-143690400D01*
X107829590Y-143690400D01*
X107344277Y-143786935D01*
X106887122Y-143976295D01*
X106475694Y-144251203D01*
X106125803Y-144601094D01*
X105850895Y-145012522D01*
X105661535Y-145469677D01*
X105565000Y-145954990D01*
X89660000Y-145954990D01*
X89660000Y-143002706D01*
X173298611Y-143002706D01*
X173345275Y-143371075D01*
X173462906Y-143723262D01*
X173588423Y-143958086D01*
X173878395Y-144084000D01*
X175012395Y-142950000D01*
X173878395Y-141816000D01*
X173588423Y-141941914D01*
X173422567Y-142274126D01*
X173324710Y-142632312D01*
X173298611Y-143002706D01*
X89660000Y-143002706D01*
X89660000Y-139767363D01*
X91638000Y-139767363D01*
X91638000Y-140232637D01*
X91728770Y-140688970D01*
X91906822Y-141118827D01*
X92165315Y-141505687D01*
X92494313Y-141834685D01*
X92881173Y-142093178D01*
X93311030Y-142271230D01*
X93767363Y-142362000D01*
X94232637Y-142362000D01*
X94688970Y-142271230D01*
X95118827Y-142093178D01*
X95505687Y-141834685D01*
X95834685Y-141505687D01*
X96093178Y-141118827D01*
X96271230Y-140688970D01*
X96362000Y-140232637D01*
X96362000Y-139767363D01*
X156638000Y-139767363D01*
X156638000Y-140232637D01*
X156728770Y-140688970D01*
X156906822Y-141118827D01*
X157165315Y-141505687D01*
X157494313Y-141834685D01*
X157881173Y-142093178D01*
X158311030Y-142271230D01*
X158767363Y-142362000D01*
X159232637Y-142362000D01*
X159688970Y-142271230D01*
X160118827Y-142093178D01*
X160505687Y-141834685D01*
X160703977Y-141636395D01*
X174058000Y-141636395D01*
X175192000Y-142770395D01*
X176326000Y-141636395D01*
X176200086Y-141346423D01*
X175867874Y-141180567D01*
X175509688Y-141082710D01*
X175139294Y-141056611D01*
X174770925Y-141103275D01*
X174418738Y-141220906D01*
X174183914Y-141346423D01*
X174058000Y-141636395D01*
X160703977Y-141636395D01*
X160834685Y-141505687D01*
X161093178Y-141118827D01*
X161271230Y-140688970D01*
X161362000Y-140232637D01*
X161362000Y-139767363D01*
X161271230Y-139311030D01*
X161093178Y-138881173D01*
X160834685Y-138494313D01*
X160505687Y-138165315D01*
X160118827Y-137906822D01*
X159688970Y-137728770D01*
X159232637Y-137638000D01*
X158767363Y-137638000D01*
X158311030Y-137728770D01*
X157881173Y-137906822D01*
X157494313Y-138165315D01*
X157165315Y-138494313D01*
X156906822Y-138881173D01*
X156728770Y-139311030D01*
X156638000Y-139767363D01*
X96362000Y-139767363D01*
X96271230Y-139311030D01*
X96093178Y-138881173D01*
X95834685Y-138494313D01*
X95505687Y-138165315D01*
X95118827Y-137906822D01*
X94688970Y-137728770D01*
X94232637Y-137638000D01*
X93767363Y-137638000D01*
X93311030Y-137728770D01*
X92881173Y-137906822D01*
X92494313Y-138165315D01*
X92165315Y-138494313D01*
X91906822Y-138881173D01*
X91728770Y-139311030D01*
X91638000Y-139767363D01*
X89660000Y-139767363D01*
X89660000Y-135660000D01*
X188340000Y-135660000D01*
X188340001Y-186340000D01*
X188340001Y-186340000D01*
G37*
X188340001Y-186340000D02*
X89660000Y-186340000D01*
X89660000Y-181767363D01*
X91638000Y-181767363D01*
X91638000Y-182232637D01*
X91728770Y-182688970D01*
X91906822Y-183118827D01*
X92165315Y-183505687D01*
X92494313Y-183834685D01*
X92881173Y-184093178D01*
X93311030Y-184271230D01*
X93767363Y-184362000D01*
X94232637Y-184362000D01*
X94688970Y-184271230D01*
X95118827Y-184093178D01*
X95505687Y-183834685D01*
X95834685Y-183505687D01*
X96093178Y-183118827D01*
X96271230Y-182688970D01*
X96362000Y-182232637D01*
X96362000Y-181767363D01*
X96271230Y-181311030D01*
X96093178Y-180881173D01*
X95834685Y-180494313D01*
X95505687Y-180165315D01*
X95118827Y-179906822D01*
X94688970Y-179728770D01*
X94232637Y-179638000D01*
X93767363Y-179638000D01*
X93311030Y-179728770D01*
X92881173Y-179906822D01*
X92494313Y-180165315D01*
X92165315Y-180494313D01*
X91906822Y-180881173D01*
X91728770Y-181311030D01*
X91638000Y-181767363D01*
X89660000Y-181767363D01*
X89660000Y-167210000D01*
X94056047Y-167210000D01*
X94063000Y-167280593D01*
X94063001Y-169878200D01*
X94056047Y-169948802D01*
X94083793Y-170230503D01*
X94165962Y-170501379D01*
X94299398Y-170751019D01*
X94407713Y-170883001D01*
X94478972Y-170969831D01*
X94533806Y-171014832D01*
X107485168Y-183966195D01*
X107530169Y-184021029D01*
X107748981Y-184200603D01*
X107998621Y-184334039D01*
X108269497Y-184416208D01*
X108480603Y-184437000D01*
X108480612Y-184437000D01*
X108551197Y-184443952D01*
X108621782Y-184437000D01*
X115029407Y-184437000D01*
X115100000Y-184443953D01*
X115170593Y-184437000D01*
X115170595Y-184437000D01*
X115381701Y-184416208D01*
X115652577Y-184334039D01*
X115902217Y-184200603D01*
X116121029Y-184021029D01*
X116166034Y-183966190D01*
X117466195Y-182666030D01*
X117521029Y-182621029D01*
X117700603Y-182402217D01*
X117781668Y-182250556D01*
X118264861Y-181767363D01*
X156638000Y-181767363D01*
X156638000Y-182232637D01*
X156728770Y-182688970D01*
X156906822Y-183118827D01*
X157165315Y-183505687D01*
X157494313Y-183834685D01*
X157881173Y-184093178D01*
X158311030Y-184271230D01*
X158767363Y-184362000D01*
X159232637Y-184362000D01*
X159688970Y-184271230D01*
X160118827Y-184093178D01*
X160505687Y-183834685D01*
X160834685Y-183505687D01*
X161093178Y-183118827D01*
X161271230Y-182688970D01*
X161362000Y-182232637D01*
X161362000Y-181767363D01*
X161271230Y-181311030D01*
X161093178Y-180881173D01*
X160893012Y-180581605D01*
X174058000Y-180581605D01*
X174183914Y-180871577D01*
X174516126Y-181037433D01*
X174874312Y-181135290D01*
X175244706Y-181161389D01*
X175613075Y-181114725D01*
X175965262Y-180997094D01*
X176200086Y-180871577D01*
X176326000Y-180581605D01*
X175192000Y-179447605D01*
X174058000Y-180581605D01*
X160893012Y-180581605D01*
X160834685Y-180494313D01*
X160505687Y-180165315D01*
X160118827Y-179906822D01*
X159688970Y-179728770D01*
X159232637Y-179638000D01*
X158767363Y-179638000D01*
X158311030Y-179728770D01*
X157881173Y-179906822D01*
X157494313Y-180165315D01*
X157165315Y-180494313D01*
X156906822Y-180881173D01*
X156728770Y-181311030D01*
X156638000Y-181767363D01*
X118264861Y-181767363D01*
X118395224Y-181637000D01*
X127729407Y-181637000D01*
X127800000Y-181643953D01*
X127870593Y-181637000D01*
X127870595Y-181637000D01*
X128081701Y-181616208D01*
X128352577Y-181534039D01*
X128602217Y-181400603D01*
X128657099Y-181355562D01*
X128715018Y-181324604D01*
X128933830Y-181145030D01*
X128978835Y-181090191D01*
X129976200Y-180092827D01*
X130031029Y-180047830D01*
X130076027Y-179993000D01*
X130076031Y-179992996D01*
X130199704Y-179842300D01*
X130210604Y-179829018D01*
X130344040Y-179579378D01*
X130422506Y-179320706D01*
X173298611Y-179320706D01*
X173345275Y-179689075D01*
X173462906Y-180041262D01*
X173588423Y-180276086D01*
X173878395Y-180402000D01*
X175012395Y-179268000D01*
X173878395Y-178134000D01*
X173588423Y-178259914D01*
X173422567Y-178592126D01*
X173324710Y-178950312D01*
X173298611Y-179320706D01*
X130422506Y-179320706D01*
X130426209Y-179308502D01*
X130447001Y-179097396D01*
X130447001Y-179097387D01*
X130453953Y-179026802D01*
X130447001Y-178956217D01*
X130447001Y-177954395D01*
X174058000Y-177954395D01*
X175192000Y-179088395D01*
X175206143Y-179074253D01*
X175385748Y-179253858D01*
X175371605Y-179268000D01*
X176505605Y-180402000D01*
X176795577Y-180276086D01*
X176961433Y-179943874D01*
X177059290Y-179585688D01*
X177062195Y-179544457D01*
X177487400Y-179720583D01*
X177987203Y-179820000D01*
X178496797Y-179820000D01*
X178996600Y-179720583D01*
X179467404Y-179525569D01*
X179891116Y-179242454D01*
X180251454Y-178882116D01*
X180534569Y-178458404D01*
X180729583Y-177987600D01*
X180829000Y-177487797D01*
X180829000Y-176978203D01*
X180729583Y-176478400D01*
X180534569Y-176007596D01*
X180251454Y-175583884D01*
X179891116Y-175223546D01*
X179467404Y-174940431D01*
X178996600Y-174745417D01*
X178496797Y-174646000D01*
X177987203Y-174646000D01*
X177487400Y-174745417D01*
X177016596Y-174940431D01*
X176592884Y-175223546D01*
X176232546Y-175583884D01*
X175949431Y-176007596D01*
X175754417Y-176478400D01*
X175655000Y-176978203D01*
X175655000Y-177440409D01*
X175509688Y-177400710D01*
X175139294Y-177374611D01*
X174770925Y-177421275D01*
X174418738Y-177538906D01*
X174183914Y-177664423D01*
X174058000Y-177954395D01*
X130447001Y-177954395D01*
X130447001Y-176380585D01*
X130453953Y-176310000D01*
X130447001Y-176239415D01*
X130447001Y-176239406D01*
X130426209Y-176028300D01*
X130344040Y-175757424D01*
X130210604Y-175507784D01*
X130031030Y-175288972D01*
X129976190Y-175243966D01*
X129266026Y-174533802D01*
X129221028Y-174478972D01*
X129166198Y-174433974D01*
X129166194Y-174433970D01*
X129002217Y-174299398D01*
X128752577Y-174165962D01*
X128481701Y-174083793D01*
X128200000Y-174056047D01*
X128103339Y-174065568D01*
X127993015Y-174006598D01*
X127849378Y-173963026D01*
X127700000Y-173948314D01*
X126100000Y-173948314D01*
X125950622Y-173963026D01*
X125806985Y-174006598D01*
X125674608Y-174077355D01*
X125558578Y-174172578D01*
X125463355Y-174288608D01*
X125392598Y-174420985D01*
X125349026Y-174564622D01*
X125334314Y-174714000D01*
X125334314Y-176314000D01*
X125349026Y-176463378D01*
X125383493Y-176577000D01*
X122674507Y-176577000D01*
X122708974Y-176463378D01*
X122723686Y-176314000D01*
X122723686Y-174714000D01*
X122708974Y-174564622D01*
X122665402Y-174420985D01*
X122594645Y-174288608D01*
X122499422Y-174172578D01*
X122383392Y-174077355D01*
X122251015Y-174006598D01*
X122107378Y-173963026D01*
X121958000Y-173948314D01*
X120358000Y-173948314D01*
X120208622Y-173963026D01*
X120172345Y-173974030D01*
X119008137Y-172809822D01*
X118963131Y-172754982D01*
X118744319Y-172575408D01*
X118494679Y-172441972D01*
X118223803Y-172359803D01*
X118012697Y-172339011D01*
X118012695Y-172339011D01*
X117942102Y-172332058D01*
X117871509Y-172339011D01*
X117363264Y-172339011D01*
X117322476Y-172322116D01*
X117030361Y-172264011D01*
X116732523Y-172264011D01*
X116440408Y-172322116D01*
X116165241Y-172436094D01*
X115917598Y-172601564D01*
X115706995Y-172812167D01*
X115604875Y-172965000D01*
X113846837Y-172965000D01*
X113678151Y-172913830D01*
X113480001Y-172894314D01*
X112579999Y-172894314D01*
X112381849Y-172913830D01*
X112213163Y-172965000D01*
X111306837Y-172965000D01*
X111138151Y-172913830D01*
X110940001Y-172894314D01*
X110039999Y-172894314D01*
X109841849Y-172913830D01*
X109651313Y-172971628D01*
X109475715Y-173065488D01*
X109321801Y-173191801D01*
X109195488Y-173345715D01*
X109101628Y-173521313D01*
X109043830Y-173711849D01*
X109024314Y-173909999D01*
X109024314Y-174560001D01*
X109043830Y-174758151D01*
X109101628Y-174948687D01*
X109195488Y-175124285D01*
X109321801Y-175278199D01*
X109322462Y-175278741D01*
X109259463Y-175355506D01*
X109200498Y-175465820D01*
X109164188Y-175585518D01*
X109151928Y-175710000D01*
X109155000Y-175999250D01*
X109313750Y-176158000D01*
X110363000Y-176158000D01*
X110363000Y-176138000D01*
X110617000Y-176138000D01*
X110617000Y-176158000D01*
X111666250Y-176158000D01*
X111760000Y-176064250D01*
X111853750Y-176158000D01*
X112903000Y-176158000D01*
X112903000Y-176138000D01*
X113157000Y-176138000D01*
X113157000Y-176158000D01*
X114206250Y-176158000D01*
X114365000Y-175999250D01*
X114368072Y-175710000D01*
X114355812Y-175585518D01*
X114331387Y-175505000D01*
X116360080Y-175505000D01*
X116422453Y-175511143D01*
X116484826Y-175505000D01*
X116484833Y-175505000D01*
X116671416Y-175486623D01*
X116910812Y-175414003D01*
X117131441Y-175296075D01*
X117176747Y-175258893D01*
X117322476Y-175229906D01*
X117351677Y-175217810D01*
X118614056Y-176480189D01*
X118659062Y-176535029D01*
X118774508Y-176629773D01*
X118877873Y-176714603D01*
X119127512Y-176848038D01*
X119127514Y-176848039D01*
X119398390Y-176930208D01*
X119609496Y-176951000D01*
X119609498Y-176951000D01*
X119680091Y-176957953D01*
X119750684Y-176951000D01*
X119933272Y-176951000D01*
X119984576Y-176978422D01*
X119944715Y-177018283D01*
X119773773Y-177274115D01*
X119656027Y-177558381D01*
X119596000Y-177860156D01*
X119596000Y-178167844D01*
X119656027Y-178469619D01*
X119773773Y-178753885D01*
X119779863Y-178763000D01*
X117870593Y-178763000D01*
X117800000Y-178756047D01*
X117729407Y-178763000D01*
X117490643Y-178763000D01*
X117352217Y-178649397D01*
X117102577Y-178515961D01*
X116831701Y-178433792D01*
X116620595Y-178413000D01*
X116620593Y-178413000D01*
X116550000Y-178406047D01*
X116525000Y-178408509D01*
X116500000Y-178406047D01*
X116429405Y-178413000D01*
X116218299Y-178433792D01*
X115947423Y-178515961D01*
X115697783Y-178649397D01*
X115547174Y-178772998D01*
X115426252Y-178772998D01*
X115585000Y-178614250D01*
X115588072Y-178500000D01*
X115575812Y-178375518D01*
X115539502Y-178255820D01*
X115480537Y-178145506D01*
X115401185Y-178048815D01*
X115304494Y-177969463D01*
X115194180Y-177910498D01*
X115074482Y-177874188D01*
X114950000Y-177861928D01*
X114785750Y-177865000D01*
X114627000Y-178023750D01*
X114627000Y-178773000D01*
X114647000Y-178773000D01*
X114647000Y-179027000D01*
X114627000Y-179027000D01*
X114627000Y-179047000D01*
X114373000Y-179047000D01*
X114373000Y-179027000D01*
X113573750Y-179027000D01*
X113415000Y-179185750D01*
X113411928Y-179300000D01*
X113424188Y-179424482D01*
X113448613Y-179505000D01*
X113101387Y-179505000D01*
X113125812Y-179424482D01*
X113138072Y-179300000D01*
X113135000Y-179010750D01*
X112976250Y-178852000D01*
X111927000Y-178852000D01*
X111927000Y-178872000D01*
X111673000Y-178872000D01*
X111673000Y-178852000D01*
X110623750Y-178852000D01*
X110465000Y-179010750D01*
X110461928Y-179300000D01*
X110474188Y-179424482D01*
X110506196Y-179529998D01*
X110320839Y-179529998D01*
X110216201Y-179460081D01*
X109941034Y-179346103D01*
X109648919Y-179287998D01*
X109351081Y-179287998D01*
X109058966Y-179346103D01*
X108783799Y-179460081D01*
X108536156Y-179625551D01*
X108325553Y-179836154D01*
X108160083Y-180083797D01*
X108046105Y-180358964D01*
X108028897Y-180445474D01*
X105733423Y-178150000D01*
X110461928Y-178150000D01*
X110465000Y-178439250D01*
X110623750Y-178598000D01*
X111673000Y-178598000D01*
X111673000Y-177673750D01*
X111927000Y-177673750D01*
X111927000Y-178598000D01*
X112976250Y-178598000D01*
X113074250Y-178500000D01*
X113411928Y-178500000D01*
X113415000Y-178614250D01*
X113573750Y-178773000D01*
X114373000Y-178773000D01*
X114373000Y-178023750D01*
X114214250Y-177865000D01*
X114050000Y-177861928D01*
X113925518Y-177874188D01*
X113805820Y-177910498D01*
X113695506Y-177969463D01*
X113598815Y-178048815D01*
X113519463Y-178145506D01*
X113460498Y-178255820D01*
X113424188Y-178375518D01*
X113411928Y-178500000D01*
X113074250Y-178500000D01*
X113135000Y-178439250D01*
X113138072Y-178150000D01*
X113125812Y-178025518D01*
X113089502Y-177905820D01*
X113030537Y-177795506D01*
X112951185Y-177698815D01*
X112854494Y-177619463D01*
X112744180Y-177560498D01*
X112624482Y-177524188D01*
X112500000Y-177511928D01*
X112085750Y-177515000D01*
X111927000Y-177673750D01*
X111673000Y-177673750D01*
X111514250Y-177515000D01*
X111100000Y-177511928D01*
X110975518Y-177524188D01*
X110855820Y-177560498D01*
X110745506Y-177619463D01*
X110648815Y-177698815D01*
X110569463Y-177795506D01*
X110510498Y-177905820D01*
X110474188Y-178025518D01*
X110461928Y-178150000D01*
X105733423Y-178150000D01*
X104443423Y-176860000D01*
X109151928Y-176860000D01*
X109164188Y-176984482D01*
X109200498Y-177104180D01*
X109259463Y-177214494D01*
X109338815Y-177311185D01*
X109435506Y-177390537D01*
X109545820Y-177449502D01*
X109665518Y-177485812D01*
X109790000Y-177498072D01*
X110204250Y-177495000D01*
X110363000Y-177336250D01*
X110363000Y-176412000D01*
X110617000Y-176412000D01*
X110617000Y-177336250D01*
X110775750Y-177495000D01*
X111190000Y-177498072D01*
X111314482Y-177485812D01*
X111434180Y-177449502D01*
X111544494Y-177390537D01*
X111641185Y-177311185D01*
X111720537Y-177214494D01*
X111760000Y-177140665D01*
X111799463Y-177214494D01*
X111878815Y-177311185D01*
X111975506Y-177390537D01*
X112085820Y-177449502D01*
X112205518Y-177485812D01*
X112330000Y-177498072D01*
X112744250Y-177495000D01*
X112903000Y-177336250D01*
X112903000Y-176412000D01*
X113157000Y-176412000D01*
X113157000Y-177336250D01*
X113315750Y-177495000D01*
X113730000Y-177498072D01*
X113854482Y-177485812D01*
X113974180Y-177449502D01*
X114084494Y-177390537D01*
X114181185Y-177311185D01*
X114260537Y-177214494D01*
X114319502Y-177104180D01*
X114355812Y-176984482D01*
X114368072Y-176860000D01*
X114365000Y-176570750D01*
X114206250Y-176412000D01*
X113157000Y-176412000D01*
X112903000Y-176412000D01*
X111853750Y-176412000D01*
X111760000Y-176505750D01*
X111666250Y-176412000D01*
X110617000Y-176412000D01*
X110363000Y-176412000D01*
X109313750Y-176412000D01*
X109155000Y-176570750D01*
X109151928Y-176860000D01*
X104443423Y-176860000D01*
X96937000Y-169353578D01*
X96937000Y-169155782D01*
X97089442Y-169440982D01*
X97314628Y-169715372D01*
X97589018Y-169940558D01*
X97902068Y-170107886D01*
X98241746Y-170210927D01*
X98506473Y-170237000D01*
X100203527Y-170237000D01*
X100468254Y-170210927D01*
X100807932Y-170107886D01*
X101120982Y-169940558D01*
X101204520Y-169872000D01*
X105868349Y-169872000D01*
X106125803Y-170257306D01*
X106475694Y-170607197D01*
X106887122Y-170882105D01*
X107344277Y-171071465D01*
X107829590Y-171168000D01*
X108324410Y-171168000D01*
X108809723Y-171071465D01*
X109266878Y-170882105D01*
X109678306Y-170607197D01*
X110028197Y-170257306D01*
X110303105Y-169845878D01*
X110492465Y-169388723D01*
X110589000Y-168903410D01*
X110589000Y-168408590D01*
X110545068Y-168187728D01*
X110639207Y-168197000D01*
X110639216Y-168197000D01*
X110709801Y-168203952D01*
X110780386Y-168197000D01*
X112465595Y-168197000D01*
X112676701Y-168176208D01*
X112947577Y-168094039D01*
X112955503Y-168089803D01*
X113043151Y-168081170D01*
X113233687Y-168023372D01*
X113409285Y-167929512D01*
X113563199Y-167803199D01*
X113689512Y-167649285D01*
X113783372Y-167473687D01*
X113825441Y-167335000D01*
X114866928Y-167335000D01*
X114879188Y-167459482D01*
X114915498Y-167579180D01*
X114974463Y-167689494D01*
X115053815Y-167786185D01*
X115150506Y-167865537D01*
X115260820Y-167924502D01*
X115380518Y-167960812D01*
X115505000Y-167973072D01*
X115919250Y-167970000D01*
X116078000Y-167811250D01*
X116078000Y-166887000D01*
X115028750Y-166887000D01*
X114870000Y-167045750D01*
X114866928Y-167335000D01*
X113825441Y-167335000D01*
X113841170Y-167283151D01*
X113860686Y-167085001D01*
X113860686Y-166434999D01*
X113841170Y-166236849D01*
X113783372Y-166046313D01*
X113747927Y-165980000D01*
X114903613Y-165980000D01*
X114879188Y-166060518D01*
X114866928Y-166185000D01*
X114870000Y-166474250D01*
X115028750Y-166633000D01*
X116078000Y-166633000D01*
X116078000Y-166613000D01*
X116332000Y-166613000D01*
X116332000Y-166633000D01*
X116352000Y-166633000D01*
X116352000Y-166887000D01*
X116332000Y-166887000D01*
X116332000Y-167811250D01*
X116490750Y-167970000D01*
X116905000Y-167973072D01*
X117029482Y-167960812D01*
X117149180Y-167924502D01*
X117259494Y-167865537D01*
X117356185Y-167786185D01*
X117435537Y-167689494D01*
X117494502Y-167579180D01*
X117530812Y-167459482D01*
X117543072Y-167335000D01*
X117540000Y-167045750D01*
X117381252Y-166887002D01*
X117528919Y-166887002D01*
X117928846Y-167286930D01*
X117953398Y-167410360D01*
X118067376Y-167685527D01*
X118232846Y-167933170D01*
X118443449Y-168143773D01*
X118691092Y-168309243D01*
X118966259Y-168423221D01*
X119258374Y-168481326D01*
X119556212Y-168481326D01*
X119848327Y-168423221D01*
X120123494Y-168309243D01*
X120371137Y-168143773D01*
X120581740Y-167933170D01*
X120747210Y-167685527D01*
X120861188Y-167410360D01*
X120919293Y-167118245D01*
X120919293Y-166820407D01*
X120861188Y-166528292D01*
X120747210Y-166253125D01*
X120581740Y-166005482D01*
X120371137Y-165794879D01*
X120123494Y-165629409D01*
X119848327Y-165515431D01*
X119724897Y-165490879D01*
X118550099Y-164316081D01*
X125269000Y-164316081D01*
X125269000Y-164613919D01*
X125327105Y-164906034D01*
X125441083Y-165181201D01*
X125606553Y-165428844D01*
X125817156Y-165639447D01*
X126064799Y-165804917D01*
X126339966Y-165918895D01*
X126632081Y-165977000D01*
X126929919Y-165977000D01*
X127222034Y-165918895D01*
X127497201Y-165804917D01*
X127604555Y-165733185D01*
X127610488Y-165744285D01*
X127736801Y-165898199D01*
X127890715Y-166024512D01*
X128066313Y-166118372D01*
X128256849Y-166176170D01*
X128454999Y-166195686D01*
X129355001Y-166195686D01*
X129553151Y-166176170D01*
X129743687Y-166118372D01*
X129919285Y-166024512D01*
X130073199Y-165898199D01*
X130199512Y-165744285D01*
X130256082Y-165638450D01*
X130268337Y-165623518D01*
X132213524Y-163678332D01*
X132257133Y-163642543D01*
X132322657Y-163562702D01*
X136691903Y-163562702D01*
X136763486Y-163806671D01*
X137018996Y-163927571D01*
X137293184Y-163996300D01*
X137575512Y-164010217D01*
X137855130Y-163968787D01*
X138121292Y-163873603D01*
X138246514Y-163806671D01*
X138318097Y-163562702D01*
X142406903Y-163562702D01*
X142478486Y-163806671D01*
X142733996Y-163927571D01*
X143008184Y-163996300D01*
X143290512Y-164010217D01*
X143570130Y-163968787D01*
X143836292Y-163873603D01*
X143961514Y-163806671D01*
X144033097Y-163562702D01*
X143220000Y-162749605D01*
X142406903Y-163562702D01*
X138318097Y-163562702D01*
X137505000Y-162749605D01*
X136691903Y-163562702D01*
X132322657Y-163562702D01*
X132399968Y-163468499D01*
X132481346Y-163316250D01*
X132506103Y-163269934D01*
X132571461Y-163054478D01*
X132580325Y-162964482D01*
X132588000Y-162886556D01*
X132588000Y-162886549D01*
X132593529Y-162830410D01*
X132588000Y-162774271D01*
X132588000Y-161736138D01*
X132593529Y-161679999D01*
X132588000Y-161623860D01*
X132588000Y-161623854D01*
X132571461Y-161455933D01*
X132568394Y-161445820D01*
X132522761Y-161295392D01*
X132506103Y-161240477D01*
X132399968Y-161041911D01*
X132311383Y-160933970D01*
X132292924Y-160911478D01*
X132292923Y-160911477D01*
X132257133Y-160867867D01*
X132213523Y-160832077D01*
X131640686Y-160259240D01*
X131640686Y-160084999D01*
X131621170Y-159886849D01*
X131563372Y-159696313D01*
X131469512Y-159520715D01*
X131454974Y-159503000D01*
X131851555Y-159503000D01*
X133187077Y-160838523D01*
X133222867Y-160882133D01*
X133396911Y-161024968D01*
X133595477Y-161131103D01*
X133700677Y-161163015D01*
X133810932Y-161196461D01*
X133824345Y-161197782D01*
X133978854Y-161213000D01*
X133978860Y-161213000D01*
X134034999Y-161218529D01*
X134091138Y-161213000D01*
X136024316Y-161213000D01*
X136068355Y-161295392D01*
X136163578Y-161411422D01*
X136279608Y-161506645D01*
X136411985Y-161577402D01*
X136448250Y-161588403D01*
X136396023Y-161640630D01*
X136512296Y-161756903D01*
X136268329Y-161828486D01*
X136147429Y-162083996D01*
X136078700Y-162358184D01*
X136064783Y-162640512D01*
X136106213Y-162920130D01*
X136201397Y-163186292D01*
X136268329Y-163311514D01*
X136512298Y-163383097D01*
X137325395Y-162570000D01*
X137311253Y-162555858D01*
X137490858Y-162376253D01*
X137505000Y-162390395D01*
X137519143Y-162376253D01*
X137698748Y-162555858D01*
X137684605Y-162570000D01*
X138497702Y-163383097D01*
X138741671Y-163311514D01*
X138862571Y-163056004D01*
X138931300Y-162781816D01*
X138945217Y-162499488D01*
X138903787Y-162219870D01*
X138808603Y-161953708D01*
X138741671Y-161828486D01*
X138497704Y-161756903D01*
X138613977Y-161640630D01*
X138561750Y-161588403D01*
X138598015Y-161577402D01*
X138729728Y-161507000D01*
X138999405Y-161507000D01*
X139070000Y-161513953D01*
X139140595Y-161507000D01*
X141995272Y-161507000D01*
X142126985Y-161577402D01*
X142163250Y-161588403D01*
X142111023Y-161640630D01*
X142227296Y-161756903D01*
X141983329Y-161828486D01*
X141862429Y-162083996D01*
X141793700Y-162358184D01*
X141779783Y-162640512D01*
X141821213Y-162920130D01*
X141916397Y-163186292D01*
X141983329Y-163311514D01*
X142227298Y-163383097D01*
X143040395Y-162570000D01*
X143026253Y-162555858D01*
X143205858Y-162376253D01*
X143220000Y-162390395D01*
X143234143Y-162376253D01*
X143413748Y-162555858D01*
X143399605Y-162570000D01*
X144212702Y-163383097D01*
X144456671Y-163311514D01*
X144577571Y-163056004D01*
X144631715Y-162840000D01*
X146026928Y-162840000D01*
X146039188Y-162964482D01*
X146075498Y-163084180D01*
X146134463Y-163194494D01*
X146213815Y-163291185D01*
X146310506Y-163370537D01*
X146420820Y-163429502D01*
X146540518Y-163465812D01*
X146665000Y-163478072D01*
X147079250Y-163475000D01*
X147238000Y-163316250D01*
X147238000Y-162392000D01*
X147492000Y-162392000D01*
X147492000Y-163316250D01*
X147650750Y-163475000D01*
X148065000Y-163478072D01*
X148189482Y-163465812D01*
X148309180Y-163429502D01*
X148419494Y-163370537D01*
X148516185Y-163291185D01*
X148595537Y-163194494D01*
X148654502Y-163084180D01*
X148690812Y-162964482D01*
X148703072Y-162840000D01*
X149836928Y-162840000D01*
X149849188Y-162964482D01*
X149885498Y-163084180D01*
X149944463Y-163194494D01*
X150023815Y-163291185D01*
X150120506Y-163370537D01*
X150230820Y-163429502D01*
X150350518Y-163465812D01*
X150475000Y-163478072D01*
X150889250Y-163475000D01*
X151048000Y-163316250D01*
X151048000Y-162392000D01*
X151302000Y-162392000D01*
X151302000Y-163316250D01*
X151460750Y-163475000D01*
X151875000Y-163478072D01*
X151999482Y-163465812D01*
X152119180Y-163429502D01*
X152229494Y-163370537D01*
X152326185Y-163291185D01*
X152405537Y-163194494D01*
X152464502Y-163084180D01*
X152500812Y-162964482D01*
X152513072Y-162840000D01*
X152510000Y-162550750D01*
X152351250Y-162392000D01*
X151302000Y-162392000D01*
X151048000Y-162392000D01*
X149998750Y-162392000D01*
X149840000Y-162550750D01*
X149836928Y-162840000D01*
X148703072Y-162840000D01*
X148700000Y-162550750D01*
X148541250Y-162392000D01*
X147492000Y-162392000D01*
X147238000Y-162392000D01*
X146188750Y-162392000D01*
X146030000Y-162550750D01*
X146026928Y-162840000D01*
X144631715Y-162840000D01*
X144646300Y-162781816D01*
X144660217Y-162499488D01*
X144618787Y-162219870D01*
X144523603Y-161953708D01*
X144456671Y-161828486D01*
X144212704Y-161756903D01*
X144328977Y-161640630D01*
X144276750Y-161588403D01*
X144313015Y-161577402D01*
X144444728Y-161507000D01*
X146056939Y-161507000D01*
X146039188Y-161565518D01*
X146026928Y-161690000D01*
X146030000Y-161979250D01*
X146188750Y-162138000D01*
X147238000Y-162138000D01*
X147238000Y-162118000D01*
X147492000Y-162118000D01*
X147492000Y-162138000D01*
X148541250Y-162138000D01*
X148700000Y-161979250D01*
X148703072Y-161690000D01*
X148690812Y-161565518D01*
X148682161Y-161537000D01*
X149857839Y-161537000D01*
X149849188Y-161565518D01*
X149836928Y-161690000D01*
X149840000Y-161979250D01*
X149998750Y-162138000D01*
X151048000Y-162138000D01*
X151048000Y-162118000D01*
X151302000Y-162118000D01*
X151302000Y-162138000D01*
X152351250Y-162138000D01*
X152510000Y-161979250D01*
X152513072Y-161690000D01*
X152509329Y-161652000D01*
X153834407Y-161652000D01*
X153905000Y-161658953D01*
X153975593Y-161652000D01*
X153975595Y-161652000D01*
X154026361Y-161647000D01*
X156614776Y-161647000D01*
X157933974Y-162966199D01*
X157978971Y-163021028D01*
X158033801Y-163066026D01*
X158033805Y-163066030D01*
X158033811Y-163066035D01*
X162763000Y-167795224D01*
X162763000Y-168929407D01*
X162756047Y-169000000D01*
X162763000Y-169070593D01*
X162763000Y-169070595D01*
X162776591Y-169208576D01*
X162783793Y-169281701D01*
X162865962Y-169552577D01*
X162999398Y-169802217D01*
X163048438Y-169861972D01*
X163178972Y-170021029D01*
X163233806Y-170066030D01*
X166286970Y-173119195D01*
X166331971Y-173174029D01*
X166550783Y-173353603D01*
X166800423Y-173487039D01*
X167071299Y-173569208D01*
X167282405Y-173590000D01*
X167282414Y-173590000D01*
X167352999Y-173596952D01*
X167423584Y-173590000D01*
X168316709Y-173590000D01*
X168177553Y-173729156D01*
X168012083Y-173976799D01*
X167898105Y-174251966D01*
X167840000Y-174544081D01*
X167840000Y-174841919D01*
X167898105Y-175134034D01*
X168012083Y-175409201D01*
X168177553Y-175656844D01*
X168388156Y-175867447D01*
X168635799Y-176032917D01*
X168910966Y-176146895D01*
X169203081Y-176205000D01*
X169500919Y-176205000D01*
X169793034Y-176146895D01*
X170068201Y-176032917D01*
X170315844Y-175867447D01*
X170376314Y-175806977D01*
X170376314Y-176713000D01*
X170391026Y-176862378D01*
X170434598Y-177006015D01*
X170505355Y-177138392D01*
X170600578Y-177254422D01*
X170716608Y-177349645D01*
X170848985Y-177420402D01*
X170992622Y-177463974D01*
X171142000Y-177478686D01*
X172642000Y-177478686D01*
X172791378Y-177463974D01*
X172935015Y-177420402D01*
X173067392Y-177349645D01*
X173183422Y-177254422D01*
X173278645Y-177138392D01*
X173349402Y-177006015D01*
X173392974Y-176862378D01*
X173407686Y-176713000D01*
X173407686Y-175213000D01*
X173392974Y-175063622D01*
X173349402Y-174919985D01*
X173278645Y-174787608D01*
X173183422Y-174671578D01*
X173067392Y-174576355D01*
X172935015Y-174505598D01*
X172791378Y-174462026D01*
X172650686Y-174448169D01*
X172669388Y-174379993D01*
X171892000Y-173602605D01*
X171114612Y-174379993D01*
X171133314Y-174448169D01*
X170992622Y-174462026D01*
X170855926Y-174503492D01*
X170805895Y-174251966D01*
X170765241Y-174153818D01*
X170935007Y-174200388D01*
X171712395Y-173423000D01*
X172071605Y-173423000D01*
X172848993Y-174200388D01*
X173087860Y-174134863D01*
X173203760Y-173887884D01*
X173269250Y-173623040D01*
X173281812Y-173350508D01*
X173240965Y-173080762D01*
X173148277Y-172824168D01*
X173087860Y-172711137D01*
X172848993Y-172645612D01*
X172071605Y-173423000D01*
X171712395Y-173423000D01*
X171698253Y-173408858D01*
X171877858Y-173229253D01*
X171892000Y-173243395D01*
X172669388Y-172466007D01*
X172603863Y-172227140D01*
X172601117Y-172225851D01*
X172608201Y-172222917D01*
X172855844Y-172057447D01*
X173066447Y-171846844D01*
X173231917Y-171599201D01*
X173345895Y-171324034D01*
X173404000Y-171031919D01*
X173404000Y-170734081D01*
X173345895Y-170441966D01*
X173231917Y-170166799D01*
X173066447Y-169919156D01*
X172855844Y-169708553D01*
X172608201Y-169543083D01*
X172601306Y-169540227D01*
X172603863Y-169538860D01*
X172669388Y-169299993D01*
X171892000Y-168522605D01*
X171114612Y-169299993D01*
X171158819Y-169461146D01*
X171101497Y-169466792D01*
X170830621Y-169548961D01*
X170739169Y-169597843D01*
X170741812Y-169540508D01*
X170700965Y-169270762D01*
X170608277Y-169014168D01*
X170547860Y-168901137D01*
X170308993Y-168835612D01*
X169531605Y-169613000D01*
X169545748Y-169627143D01*
X169366143Y-169806748D01*
X169352000Y-169792605D01*
X168574612Y-170569993D01*
X168614664Y-170716000D01*
X167948225Y-170716000D01*
X166917717Y-169685492D01*
X167962188Y-169685492D01*
X168003035Y-169955238D01*
X168095723Y-170211832D01*
X168156140Y-170324863D01*
X168395007Y-170390388D01*
X169172395Y-169613000D01*
X168395007Y-168835612D01*
X168156140Y-168901137D01*
X168040240Y-169148116D01*
X167974750Y-169412960D01*
X167962188Y-169685492D01*
X166917717Y-169685492D01*
X165637000Y-168404776D01*
X165637000Y-168029993D01*
X168574612Y-168029993D01*
X168640137Y-168268860D01*
X168795096Y-168341578D01*
X168753168Y-168356723D01*
X168640137Y-168417140D01*
X168574612Y-168656007D01*
X169352000Y-169433395D01*
X170129388Y-168656007D01*
X170063863Y-168417140D01*
X170060352Y-168415492D01*
X170502188Y-168415492D01*
X170543035Y-168685238D01*
X170635723Y-168941832D01*
X170696140Y-169054863D01*
X170935007Y-169120388D01*
X171712395Y-168343000D01*
X172071605Y-168343000D01*
X172848993Y-169120388D01*
X173087860Y-169054863D01*
X173203760Y-168807884D01*
X173269250Y-168543040D01*
X173281812Y-168270508D01*
X173240965Y-168000762D01*
X173148277Y-167744168D01*
X173087860Y-167631137D01*
X172848993Y-167565612D01*
X172071605Y-168343000D01*
X171712395Y-168343000D01*
X170935007Y-167565612D01*
X170696140Y-167631137D01*
X170580240Y-167878116D01*
X170514750Y-168142960D01*
X170502188Y-168415492D01*
X170060352Y-168415492D01*
X169908904Y-168344422D01*
X169950832Y-168329277D01*
X170063863Y-168268860D01*
X170129388Y-168029993D01*
X169352000Y-167252605D01*
X168574612Y-168029993D01*
X165637000Y-168029993D01*
X165637000Y-167270593D01*
X165643953Y-167200000D01*
X165638585Y-167145492D01*
X167962188Y-167145492D01*
X168003035Y-167415238D01*
X168095723Y-167671832D01*
X168156140Y-167784863D01*
X168395007Y-167850388D01*
X169172395Y-167073000D01*
X169531605Y-167073000D01*
X170308993Y-167850388D01*
X170547860Y-167784863D01*
X170663760Y-167537884D01*
X170701315Y-167386007D01*
X171114612Y-167386007D01*
X171892000Y-168163395D01*
X172669388Y-167386007D01*
X172603863Y-167147140D01*
X172356884Y-167031240D01*
X172092040Y-166965750D01*
X171819508Y-166953188D01*
X171549762Y-166994035D01*
X171293168Y-167086723D01*
X171180137Y-167147140D01*
X171114612Y-167386007D01*
X170701315Y-167386007D01*
X170729250Y-167273040D01*
X170741812Y-167000508D01*
X170700965Y-166730762D01*
X170608277Y-166474168D01*
X170547860Y-166361137D01*
X170308993Y-166295612D01*
X169531605Y-167073000D01*
X169172395Y-167073000D01*
X168395007Y-166295612D01*
X168156140Y-166361137D01*
X168040240Y-166608116D01*
X167974750Y-166872960D01*
X167962188Y-167145492D01*
X165638585Y-167145492D01*
X165635901Y-167118245D01*
X165616208Y-166918299D01*
X165534039Y-166647423D01*
X165513029Y-166608116D01*
X165400603Y-166397782D01*
X165266030Y-166233806D01*
X165221028Y-166178971D01*
X165166194Y-166133970D01*
X165148231Y-166116007D01*
X168574612Y-166116007D01*
X169352000Y-166893395D01*
X170129388Y-166116007D01*
X170063863Y-165877140D01*
X169816884Y-165761240D01*
X169552040Y-165695750D01*
X169279508Y-165683188D01*
X169009762Y-165724035D01*
X168753168Y-165816723D01*
X168640137Y-165877140D01*
X168574612Y-166116007D01*
X165148231Y-166116007D01*
X164113829Y-165081605D01*
X174058000Y-165081605D01*
X174183914Y-165371577D01*
X174516126Y-165537433D01*
X174874312Y-165635290D01*
X175244706Y-165661389D01*
X175613075Y-165614725D01*
X175655000Y-165600722D01*
X175655000Y-166057797D01*
X175754417Y-166557600D01*
X175949431Y-167028404D01*
X176232546Y-167452116D01*
X176592884Y-167812454D01*
X177016596Y-168095569D01*
X177487400Y-168290583D01*
X177987203Y-168390000D01*
X178496797Y-168390000D01*
X178996600Y-168290583D01*
X179467404Y-168095569D01*
X179891116Y-167812454D01*
X180251454Y-167452116D01*
X180534569Y-167028404D01*
X180729583Y-166557600D01*
X180829000Y-166057797D01*
X180829000Y-165548203D01*
X180729583Y-165048400D01*
X180534569Y-164577596D01*
X180251454Y-164153884D01*
X179891116Y-163793546D01*
X179467404Y-163510431D01*
X178996600Y-163315417D01*
X178496797Y-163216000D01*
X177987203Y-163216000D01*
X177487400Y-163315417D01*
X177057302Y-163493570D01*
X177038725Y-163346925D01*
X176921094Y-162994738D01*
X176795577Y-162759914D01*
X176505605Y-162634000D01*
X175371605Y-163768000D01*
X175385748Y-163782143D01*
X175206143Y-163961748D01*
X175192000Y-163947605D01*
X174058000Y-165081605D01*
X164113829Y-165081605D01*
X162852930Y-163820706D01*
X173298611Y-163820706D01*
X173345275Y-164189075D01*
X173462906Y-164541262D01*
X173588423Y-164776086D01*
X173878395Y-164902000D01*
X175012395Y-163768000D01*
X173878395Y-162634000D01*
X173588423Y-162759914D01*
X173422567Y-163092126D01*
X173324710Y-163450312D01*
X173298611Y-163820706D01*
X162852930Y-163820706D01*
X161486619Y-162454395D01*
X174058000Y-162454395D01*
X175192000Y-163588395D01*
X176326000Y-162454395D01*
X176200086Y-162164423D01*
X175867874Y-161998567D01*
X175509688Y-161900710D01*
X175139294Y-161874611D01*
X174770925Y-161921275D01*
X174418738Y-162038906D01*
X174183914Y-162164423D01*
X174058000Y-162454395D01*
X161486619Y-162454395D01*
X160437000Y-161404776D01*
X160437000Y-159763605D01*
X174058000Y-159763605D01*
X174183914Y-160053577D01*
X174516126Y-160219433D01*
X174874312Y-160317290D01*
X175244706Y-160343389D01*
X175613075Y-160296725D01*
X175965262Y-160179094D01*
X176200086Y-160053577D01*
X176326000Y-159763605D01*
X175192000Y-158629605D01*
X174058000Y-159763605D01*
X160437000Y-159763605D01*
X160437000Y-159495224D01*
X161429518Y-158502706D01*
X173298611Y-158502706D01*
X173345275Y-158871075D01*
X173462906Y-159223262D01*
X173588423Y-159458086D01*
X173878395Y-159584000D01*
X175012395Y-158450000D01*
X173878395Y-157316000D01*
X173588423Y-157441914D01*
X173422567Y-157774126D01*
X173324710Y-158132312D01*
X173298611Y-158502706D01*
X161429518Y-158502706D01*
X162795829Y-157136395D01*
X174058000Y-157136395D01*
X175192000Y-158270395D01*
X175206143Y-158256253D01*
X175385748Y-158435858D01*
X175371605Y-158450000D01*
X176505605Y-159584000D01*
X176795577Y-159458086D01*
X176961433Y-159125874D01*
X177059290Y-158767688D01*
X177062195Y-158726457D01*
X177487400Y-158902583D01*
X177987203Y-159002000D01*
X178496797Y-159002000D01*
X178996600Y-158902583D01*
X179467404Y-158707569D01*
X179891116Y-158424454D01*
X180251454Y-158064116D01*
X180534569Y-157640404D01*
X180729583Y-157169600D01*
X180829000Y-156669797D01*
X180829000Y-156160203D01*
X180729583Y-155660400D01*
X180534569Y-155189596D01*
X180251454Y-154765884D01*
X179891116Y-154405546D01*
X179467404Y-154122431D01*
X178996600Y-153927417D01*
X178496797Y-153828000D01*
X177987203Y-153828000D01*
X177487400Y-153927417D01*
X177016596Y-154122431D01*
X176592884Y-154405546D01*
X176232546Y-154765884D01*
X175949431Y-155189596D01*
X175754417Y-155660400D01*
X175655000Y-156160203D01*
X175655000Y-156622409D01*
X175509688Y-156582710D01*
X175139294Y-156556611D01*
X174770925Y-156603275D01*
X174418738Y-156720906D01*
X174183914Y-156846423D01*
X174058000Y-157136395D01*
X162795829Y-157136395D01*
X167160225Y-152772000D01*
X168316709Y-152772000D01*
X168177553Y-152911156D01*
X168012083Y-153158799D01*
X167898105Y-153433966D01*
X167840000Y-153726081D01*
X167840000Y-154023919D01*
X167898105Y-154316034D01*
X168012083Y-154591201D01*
X168177553Y-154838844D01*
X168388156Y-155049447D01*
X168635799Y-155214917D01*
X168910966Y-155328895D01*
X169203081Y-155387000D01*
X169500919Y-155387000D01*
X169793034Y-155328895D01*
X170068201Y-155214917D01*
X170315844Y-155049447D01*
X170376314Y-154988977D01*
X170376314Y-155895000D01*
X170391026Y-156044378D01*
X170434598Y-156188015D01*
X170505355Y-156320392D01*
X170600578Y-156436422D01*
X170716608Y-156531645D01*
X170848985Y-156602402D01*
X170992622Y-156645974D01*
X171142000Y-156660686D01*
X172642000Y-156660686D01*
X172791378Y-156645974D01*
X172935015Y-156602402D01*
X173067392Y-156531645D01*
X173183422Y-156436422D01*
X173278645Y-156320392D01*
X173349402Y-156188015D01*
X173392974Y-156044378D01*
X173407686Y-155895000D01*
X173407686Y-154395000D01*
X173392974Y-154245622D01*
X173349402Y-154101985D01*
X173278645Y-153969608D01*
X173183422Y-153853578D01*
X173067392Y-153758355D01*
X172935015Y-153687598D01*
X172791378Y-153644026D01*
X172650686Y-153630169D01*
X172669388Y-153561993D01*
X171892000Y-152784605D01*
X171114612Y-153561993D01*
X171133314Y-153630169D01*
X170992622Y-153644026D01*
X170855926Y-153685492D01*
X170805895Y-153433966D01*
X170765241Y-153335818D01*
X170935007Y-153382388D01*
X171712395Y-152605000D01*
X172071605Y-152605000D01*
X172848993Y-153382388D01*
X173087860Y-153316863D01*
X173203760Y-153069884D01*
X173269250Y-152805040D01*
X173281812Y-152532508D01*
X173240965Y-152262762D01*
X173148277Y-152006168D01*
X173087860Y-151893137D01*
X172848993Y-151827612D01*
X172071605Y-152605000D01*
X171712395Y-152605000D01*
X171698253Y-152590858D01*
X171877858Y-152411253D01*
X171892000Y-152425395D01*
X172669388Y-151648007D01*
X172603863Y-151409140D01*
X172601117Y-151407851D01*
X172608201Y-151404917D01*
X172855844Y-151239447D01*
X173066447Y-151028844D01*
X173231917Y-150781201D01*
X173345895Y-150506034D01*
X173404000Y-150213919D01*
X173404000Y-149916081D01*
X173345895Y-149623966D01*
X173231917Y-149348799D01*
X173066447Y-149101156D01*
X172855844Y-148890553D01*
X172608201Y-148725083D01*
X172601306Y-148722227D01*
X172603863Y-148720860D01*
X172669388Y-148481993D01*
X171892000Y-147704605D01*
X171114612Y-148481993D01*
X171158819Y-148643146D01*
X171101497Y-148648792D01*
X170830621Y-148730961D01*
X170739169Y-148779843D01*
X170741812Y-148722508D01*
X170700965Y-148452762D01*
X170608277Y-148196168D01*
X170547860Y-148083137D01*
X170308993Y-148017612D01*
X169531605Y-148795000D01*
X169545748Y-148809143D01*
X169366143Y-148988748D01*
X169352000Y-148974605D01*
X168574612Y-149751993D01*
X168614664Y-149898000D01*
X166635593Y-149898000D01*
X166565000Y-149891047D01*
X166494407Y-149898000D01*
X166494405Y-149898000D01*
X166283299Y-149918792D01*
X166094591Y-149976036D01*
X166012422Y-150000961D01*
X165762782Y-150134397D01*
X165665885Y-150213919D01*
X165543971Y-150313971D01*
X165498970Y-150368805D01*
X158083811Y-157783965D01*
X158083805Y-157783970D01*
X158033801Y-157833974D01*
X157978972Y-157878971D01*
X157933975Y-157933800D01*
X157094776Y-158773000D01*
X153980592Y-158773000D01*
X153909999Y-158766047D01*
X153839406Y-158773000D01*
X153839405Y-158773000D01*
X153788639Y-158778000D01*
X151684850Y-158778000D01*
X151456701Y-158708792D01*
X151408449Y-158704040D01*
X151341701Y-158683792D01*
X151130595Y-158663000D01*
X151130593Y-158663000D01*
X151060000Y-158656047D01*
X150989407Y-158663000D01*
X147550593Y-158663000D01*
X147523143Y-158660296D01*
X147501701Y-158653792D01*
X147290595Y-158633000D01*
X147290593Y-158633000D01*
X147220000Y-158626047D01*
X147149407Y-158633000D01*
X144444728Y-158633000D01*
X144313015Y-158562598D01*
X144169378Y-158519026D01*
X144020000Y-158504314D01*
X142420000Y-158504314D01*
X142270622Y-158519026D01*
X142126985Y-158562598D01*
X141995272Y-158633000D01*
X140071568Y-158633000D01*
X140036195Y-158603970D01*
X138942000Y-157509776D01*
X138942000Y-155305584D01*
X138948952Y-155234999D01*
X138942000Y-155164414D01*
X138942000Y-155164405D01*
X138921208Y-154953299D01*
X138839039Y-154682423D01*
X138705603Y-154432783D01*
X138526029Y-154213971D01*
X138471195Y-154168970D01*
X131448683Y-147146458D01*
X146828000Y-147146458D01*
X146828000Y-147493542D01*
X146895712Y-147833957D01*
X147028535Y-148154620D01*
X147221365Y-148443210D01*
X147466790Y-148688635D01*
X147755380Y-148881465D01*
X148076043Y-149014288D01*
X148416458Y-149082000D01*
X148763542Y-149082000D01*
X149103957Y-149014288D01*
X149424620Y-148881465D01*
X149445532Y-148867492D01*
X167962188Y-148867492D01*
X168003035Y-149137238D01*
X168095723Y-149393832D01*
X168156140Y-149506863D01*
X168395007Y-149572388D01*
X169172395Y-148795000D01*
X168395007Y-148017612D01*
X168156140Y-148083137D01*
X168040240Y-148330116D01*
X167974750Y-148594960D01*
X167962188Y-148867492D01*
X149445532Y-148867492D01*
X149610895Y-148757000D01*
X151283178Y-148757000D01*
X151323966Y-148773895D01*
X151616081Y-148832000D01*
X151913919Y-148832000D01*
X152206034Y-148773895D01*
X152481201Y-148659917D01*
X152728844Y-148494447D01*
X152939447Y-148283844D01*
X153104917Y-148036201D01*
X153218895Y-147761034D01*
X153277000Y-147468919D01*
X153277000Y-147211993D01*
X168574612Y-147211993D01*
X168640137Y-147450860D01*
X168795096Y-147523578D01*
X168753168Y-147538723D01*
X168640137Y-147599140D01*
X168574612Y-147838007D01*
X169352000Y-148615395D01*
X170129388Y-147838007D01*
X170063863Y-147599140D01*
X170060352Y-147597492D01*
X170502188Y-147597492D01*
X170543035Y-147867238D01*
X170635723Y-148123832D01*
X170696140Y-148236863D01*
X170935007Y-148302388D01*
X171712395Y-147525000D01*
X172071605Y-147525000D01*
X172848993Y-148302388D01*
X173087860Y-148236863D01*
X173203760Y-147989884D01*
X173269250Y-147725040D01*
X173281812Y-147452508D01*
X173240965Y-147182762D01*
X173148277Y-146926168D01*
X173087860Y-146813137D01*
X172848993Y-146747612D01*
X172071605Y-147525000D01*
X171712395Y-147525000D01*
X170935007Y-146747612D01*
X170696140Y-146813137D01*
X170580240Y-147060116D01*
X170514750Y-147324960D01*
X170502188Y-147597492D01*
X170060352Y-147597492D01*
X169908904Y-147526422D01*
X169950832Y-147511277D01*
X170063863Y-147450860D01*
X170129388Y-147211993D01*
X169352000Y-146434605D01*
X168574612Y-147211993D01*
X153277000Y-147211993D01*
X153277000Y-147171081D01*
X153218895Y-146878966D01*
X153104917Y-146603799D01*
X152939447Y-146356156D01*
X152910783Y-146327492D01*
X167962188Y-146327492D01*
X168003035Y-146597238D01*
X168095723Y-146853832D01*
X168156140Y-146966863D01*
X168395007Y-147032388D01*
X169172395Y-146255000D01*
X169531605Y-146255000D01*
X170308993Y-147032388D01*
X170547860Y-146966863D01*
X170663760Y-146719884D01*
X170701315Y-146568007D01*
X171114612Y-146568007D01*
X171892000Y-147345395D01*
X172669388Y-146568007D01*
X172603863Y-146329140D01*
X172356884Y-146213240D01*
X172092040Y-146147750D01*
X171819508Y-146135188D01*
X171549762Y-146176035D01*
X171293168Y-146268723D01*
X171180137Y-146329140D01*
X171114612Y-146568007D01*
X170701315Y-146568007D01*
X170729250Y-146455040D01*
X170741812Y-146182508D01*
X170700965Y-145912762D01*
X170608277Y-145656168D01*
X170547860Y-145543137D01*
X170308993Y-145477612D01*
X169531605Y-146255000D01*
X169172395Y-146255000D01*
X168395007Y-145477612D01*
X168156140Y-145543137D01*
X168040240Y-145790116D01*
X167974750Y-146054960D01*
X167962188Y-146327492D01*
X152910783Y-146327492D01*
X152728844Y-146145553D01*
X152481201Y-145980083D01*
X152206034Y-145866105D01*
X151913919Y-145808000D01*
X151616081Y-145808000D01*
X151323966Y-145866105D01*
X151283178Y-145883000D01*
X149610895Y-145883000D01*
X149424620Y-145758535D01*
X149103957Y-145625712D01*
X148763542Y-145558000D01*
X148416458Y-145558000D01*
X148076043Y-145625712D01*
X147755380Y-145758535D01*
X147466790Y-145951365D01*
X147221365Y-146196790D01*
X147028535Y-146485380D01*
X146895712Y-146806043D01*
X146828000Y-147146458D01*
X131448683Y-147146458D01*
X131327994Y-147025770D01*
X131284288Y-146806043D01*
X131151465Y-146485380D01*
X130958635Y-146196790D01*
X130713210Y-145951365D01*
X130424620Y-145758535D01*
X130103957Y-145625712D01*
X129763542Y-145558000D01*
X129416458Y-145558000D01*
X129076043Y-145625712D01*
X128755380Y-145758535D01*
X128466790Y-145951365D01*
X128221365Y-146196790D01*
X128028535Y-146485380D01*
X127895712Y-146806043D01*
X127828000Y-147146458D01*
X127828000Y-147493542D01*
X127895712Y-147833957D01*
X128028535Y-148154620D01*
X128221365Y-148443210D01*
X128466790Y-148688635D01*
X128755380Y-148881465D01*
X129076043Y-149014288D01*
X129295770Y-149057994D01*
X136068001Y-155830226D01*
X136068000Y-157735949D01*
X135146088Y-158657862D01*
X135097630Y-158697630D01*
X134964872Y-158859398D01*
X134938926Y-158891013D01*
X134919691Y-158927000D01*
X134508446Y-158927000D01*
X133172927Y-157591482D01*
X133137133Y-157547867D01*
X132963089Y-157405032D01*
X132764523Y-157298897D01*
X132549067Y-157233539D01*
X132381146Y-157217000D01*
X132381139Y-157217000D01*
X132325000Y-157211471D01*
X132268861Y-157217000D01*
X131221590Y-157217000D01*
X131189285Y-157190488D01*
X131013687Y-157096628D01*
X130823151Y-157038830D01*
X130625001Y-157019314D01*
X129724999Y-157019314D01*
X129526849Y-157038830D01*
X129336313Y-157096628D01*
X129160715Y-157190488D01*
X129128410Y-157217000D01*
X128681590Y-157217000D01*
X128649285Y-157190488D01*
X128473687Y-157096628D01*
X128283151Y-157038830D01*
X128085001Y-157019314D01*
X127184999Y-157019314D01*
X126986849Y-157038830D01*
X126796313Y-157096628D01*
X126620715Y-157190488D01*
X126466801Y-157316801D01*
X126340488Y-157470715D01*
X126246628Y-157646313D01*
X126188830Y-157836849D01*
X126169314Y-158034999D01*
X126169314Y-158685001D01*
X126188830Y-158883151D01*
X126246628Y-159073687D01*
X126340488Y-159249285D01*
X126451866Y-159385000D01*
X126340488Y-159520715D01*
X126246628Y-159696313D01*
X126188830Y-159886849D01*
X126169314Y-160084999D01*
X126169314Y-160735001D01*
X126188830Y-160933151D01*
X126246628Y-161123687D01*
X126340488Y-161299285D01*
X126466801Y-161453199D01*
X126620715Y-161579512D01*
X126796313Y-161673372D01*
X126986849Y-161731170D01*
X127184999Y-161750686D01*
X127788090Y-161750686D01*
X127753815Y-161778815D01*
X127674463Y-161875506D01*
X127615498Y-161985820D01*
X127579188Y-162105518D01*
X127566928Y-162230000D01*
X127570000Y-162519250D01*
X127728750Y-162678000D01*
X128778000Y-162678000D01*
X128778000Y-161753750D01*
X128619619Y-161595369D01*
X128649285Y-161579512D01*
X128681590Y-161553000D01*
X129128410Y-161553000D01*
X129160715Y-161579512D01*
X129190381Y-161595369D01*
X129032000Y-161753750D01*
X129032000Y-162678000D01*
X129052000Y-162678000D01*
X129052000Y-162932000D01*
X129032000Y-162932000D01*
X129032000Y-162952000D01*
X128778000Y-162952000D01*
X128778000Y-162932000D01*
X127728750Y-162932000D01*
X127570000Y-163090750D01*
X127569520Y-163135986D01*
X127561686Y-163131799D01*
X127381328Y-163077087D01*
X127222034Y-163011105D01*
X126929919Y-162953000D01*
X126632081Y-162953000D01*
X126339966Y-163011105D01*
X126064799Y-163125083D01*
X125817156Y-163290553D01*
X125606553Y-163501156D01*
X125441083Y-163748799D01*
X125327105Y-164023966D01*
X125269000Y-164316081D01*
X118550099Y-164316081D01*
X118090108Y-163856091D01*
X118050337Y-163807630D01*
X117856955Y-163648925D01*
X117636326Y-163530997D01*
X117396930Y-163458377D01*
X117210347Y-163440000D01*
X117210340Y-163440000D01*
X117147967Y-163433857D01*
X117085594Y-163440000D01*
X117021837Y-163440000D01*
X116853151Y-163388830D01*
X116655001Y-163369314D01*
X115754999Y-163369314D01*
X115556849Y-163388830D01*
X115388163Y-163440000D01*
X113211837Y-163440000D01*
X113043151Y-163388830D01*
X112845001Y-163369314D01*
X111944999Y-163369314D01*
X111746849Y-163388830D01*
X111556313Y-163446628D01*
X111380715Y-163540488D01*
X111226801Y-163666801D01*
X111100488Y-163820715D01*
X111006628Y-163996313D01*
X110948830Y-164186849D01*
X110929314Y-164384999D01*
X110929314Y-164947287D01*
X101919484Y-155937458D01*
X101935927Y-155883254D01*
X101970719Y-155530000D01*
X101935927Y-155176746D01*
X101832886Y-154837068D01*
X101665558Y-154524018D01*
X101440372Y-154249628D01*
X101165982Y-154024442D01*
X100852932Y-153857114D01*
X100513254Y-153754073D01*
X100248527Y-153728000D01*
X98551473Y-153728000D01*
X98286746Y-153754073D01*
X97947068Y-153857114D01*
X97634018Y-154024442D01*
X97359628Y-154249628D01*
X97134442Y-154524018D01*
X96967114Y-154837068D01*
X96864073Y-155176746D01*
X96829281Y-155530000D01*
X96864073Y-155883254D01*
X96967114Y-156222932D01*
X97134442Y-156535982D01*
X97359628Y-156810372D01*
X97634018Y-157035558D01*
X97947068Y-157202886D01*
X98286746Y-157305927D01*
X98551473Y-157332000D01*
X99249578Y-157332000D01*
X108061577Y-166144000D01*
X107829590Y-166144000D01*
X107344277Y-166240535D01*
X106887122Y-166429895D01*
X106475694Y-166704803D01*
X106182497Y-166998000D01*
X101204520Y-166998000D01*
X101120982Y-166929442D01*
X100807932Y-166762114D01*
X100468254Y-166659073D01*
X100203527Y-166633000D01*
X98506473Y-166633000D01*
X98241746Y-166659073D01*
X98014093Y-166728131D01*
X99581539Y-165160686D01*
X100905001Y-165160686D01*
X101103151Y-165141170D01*
X101293687Y-165083372D01*
X101469285Y-164989512D01*
X101623199Y-164863199D01*
X101749512Y-164709285D01*
X101843372Y-164533687D01*
X101901170Y-164343151D01*
X101920686Y-164145001D01*
X101920686Y-162564999D01*
X101901170Y-162366849D01*
X101843372Y-162176313D01*
X101749512Y-162000715D01*
X101623199Y-161846801D01*
X101469285Y-161720488D01*
X101293687Y-161626628D01*
X101103151Y-161568830D01*
X100905001Y-161549314D01*
X97804999Y-161549314D01*
X97606849Y-161568830D01*
X97416313Y-161626628D01*
X97240715Y-161720488D01*
X97086801Y-161846801D01*
X96960488Y-162000715D01*
X96866628Y-162176313D01*
X96808830Y-162366849D01*
X96789314Y-162564999D01*
X96789314Y-163888461D01*
X94533806Y-166143970D01*
X94478971Y-166188972D01*
X94299397Y-166407784D01*
X94165961Y-166657424D01*
X94083792Y-166928300D01*
X94065084Y-167118245D01*
X94056047Y-167210000D01*
X89660000Y-167210000D01*
X89660000Y-151490000D01*
X96961928Y-151490000D01*
X96974188Y-151614482D01*
X97010498Y-151734180D01*
X97069463Y-151844494D01*
X97148815Y-151941185D01*
X97245506Y-152020537D01*
X97355820Y-152079502D01*
X97475518Y-152115812D01*
X97600000Y-152128072D01*
X99114250Y-152125000D01*
X99273000Y-151966250D01*
X99273000Y-150577000D01*
X99527000Y-150577000D01*
X99527000Y-151966250D01*
X99685750Y-152125000D01*
X101200000Y-152128072D01*
X101324482Y-152115812D01*
X101444180Y-152079502D01*
X101554494Y-152020537D01*
X101651185Y-151941185D01*
X101730537Y-151844494D01*
X101789502Y-151734180D01*
X101825812Y-151614482D01*
X101838072Y-151490000D01*
X101835000Y-150735750D01*
X101676250Y-150577000D01*
X99527000Y-150577000D01*
X99273000Y-150577000D01*
X97123750Y-150577000D01*
X96965000Y-150735750D01*
X96961928Y-151490000D01*
X89660000Y-151490000D01*
X89660000Y-149410000D01*
X96961928Y-149410000D01*
X96965000Y-150164250D01*
X97123750Y-150323000D01*
X99273000Y-150323000D01*
X99273000Y-148933750D01*
X99527000Y-148933750D01*
X99527000Y-150323000D01*
X101676250Y-150323000D01*
X101835000Y-150164250D01*
X101838072Y-149410000D01*
X101825812Y-149285518D01*
X101789502Y-149165820D01*
X101730537Y-149055506D01*
X101651185Y-148958815D01*
X101554494Y-148879463D01*
X101444180Y-148820498D01*
X101324482Y-148784188D01*
X101200000Y-148771928D01*
X99685750Y-148775000D01*
X99527000Y-148933750D01*
X99273000Y-148933750D01*
X99114250Y-148775000D01*
X97600000Y-148771928D01*
X97475518Y-148784188D01*
X97355820Y-148820498D01*
X97245506Y-148879463D01*
X97148815Y-148958815D01*
X97069463Y-149055506D01*
X97010498Y-149165820D01*
X96974188Y-149285518D01*
X96961928Y-149410000D01*
X89660000Y-149410000D01*
X89660000Y-145954990D01*
X105565000Y-145954990D01*
X105565000Y-146449810D01*
X105661535Y-146935123D01*
X105850895Y-147392278D01*
X106125803Y-147803706D01*
X106475694Y-148153597D01*
X106887122Y-148428505D01*
X107344277Y-148617865D01*
X107829590Y-148714400D01*
X108324410Y-148714400D01*
X108809723Y-148617865D01*
X109266878Y-148428505D01*
X109678306Y-148153597D01*
X109894903Y-147937000D01*
X114518178Y-147937000D01*
X114558966Y-147953895D01*
X114851081Y-148012000D01*
X115148919Y-148012000D01*
X115441034Y-147953895D01*
X115716201Y-147839917D01*
X115963844Y-147674447D01*
X116174447Y-147463844D01*
X116339917Y-147216201D01*
X116453895Y-146941034D01*
X116512000Y-146648919D01*
X116512000Y-146351081D01*
X116453895Y-146058966D01*
X116339917Y-145783799D01*
X116174447Y-145536156D01*
X115963844Y-145325553D01*
X115922619Y-145298007D01*
X168574612Y-145298007D01*
X169352000Y-146075395D01*
X170129388Y-145298007D01*
X170063863Y-145059140D01*
X169816884Y-144943240D01*
X169552040Y-144877750D01*
X169279508Y-144865188D01*
X169009762Y-144906035D01*
X168753168Y-144998723D01*
X168640137Y-145059140D01*
X168574612Y-145298007D01*
X115922619Y-145298007D01*
X115716201Y-145160083D01*
X115441034Y-145046105D01*
X115148919Y-144988000D01*
X114851081Y-144988000D01*
X114558966Y-145046105D01*
X114518178Y-145063000D01*
X110324014Y-145063000D01*
X110303105Y-145012522D01*
X110028197Y-144601094D01*
X109690708Y-144263605D01*
X174058000Y-144263605D01*
X174183914Y-144553577D01*
X174516126Y-144719433D01*
X174874312Y-144817290D01*
X175244706Y-144843389D01*
X175613075Y-144796725D01*
X175655000Y-144782722D01*
X175655000Y-145239797D01*
X175754417Y-145739600D01*
X175949431Y-146210404D01*
X176232546Y-146634116D01*
X176592884Y-146994454D01*
X177016596Y-147277569D01*
X177487400Y-147472583D01*
X177987203Y-147572000D01*
X178496797Y-147572000D01*
X178996600Y-147472583D01*
X179467404Y-147277569D01*
X179891116Y-146994454D01*
X180251454Y-146634116D01*
X180534569Y-146210404D01*
X180729583Y-145739600D01*
X180829000Y-145239797D01*
X180829000Y-144730203D01*
X180729583Y-144230400D01*
X180534569Y-143759596D01*
X180251454Y-143335884D01*
X179891116Y-142975546D01*
X179467404Y-142692431D01*
X178996600Y-142497417D01*
X178496797Y-142398000D01*
X177987203Y-142398000D01*
X177487400Y-142497417D01*
X177057302Y-142675570D01*
X177038725Y-142528925D01*
X176921094Y-142176738D01*
X176795577Y-141941914D01*
X176505605Y-141816000D01*
X175371605Y-142950000D01*
X175385748Y-142964143D01*
X175206143Y-143143748D01*
X175192000Y-143129605D01*
X174058000Y-144263605D01*
X109690708Y-144263605D01*
X109678306Y-144251203D01*
X109266878Y-143976295D01*
X108809723Y-143786935D01*
X108324410Y-143690400D01*
X107829590Y-143690400D01*
X107344277Y-143786935D01*
X106887122Y-143976295D01*
X106475694Y-144251203D01*
X106125803Y-144601094D01*
X105850895Y-145012522D01*
X105661535Y-145469677D01*
X105565000Y-145954990D01*
X89660000Y-145954990D01*
X89660000Y-143002706D01*
X173298611Y-143002706D01*
X173345275Y-143371075D01*
X173462906Y-143723262D01*
X173588423Y-143958086D01*
X173878395Y-144084000D01*
X175012395Y-142950000D01*
X173878395Y-141816000D01*
X173588423Y-141941914D01*
X173422567Y-142274126D01*
X173324710Y-142632312D01*
X173298611Y-143002706D01*
X89660000Y-143002706D01*
X89660000Y-139767363D01*
X91638000Y-139767363D01*
X91638000Y-140232637D01*
X91728770Y-140688970D01*
X91906822Y-141118827D01*
X92165315Y-141505687D01*
X92494313Y-141834685D01*
X92881173Y-142093178D01*
X93311030Y-142271230D01*
X93767363Y-142362000D01*
X94232637Y-142362000D01*
X94688970Y-142271230D01*
X95118827Y-142093178D01*
X95505687Y-141834685D01*
X95834685Y-141505687D01*
X96093178Y-141118827D01*
X96271230Y-140688970D01*
X96362000Y-140232637D01*
X96362000Y-139767363D01*
X156638000Y-139767363D01*
X156638000Y-140232637D01*
X156728770Y-140688970D01*
X156906822Y-141118827D01*
X157165315Y-141505687D01*
X157494313Y-141834685D01*
X157881173Y-142093178D01*
X158311030Y-142271230D01*
X158767363Y-142362000D01*
X159232637Y-142362000D01*
X159688970Y-142271230D01*
X160118827Y-142093178D01*
X160505687Y-141834685D01*
X160703977Y-141636395D01*
X174058000Y-141636395D01*
X175192000Y-142770395D01*
X176326000Y-141636395D01*
X176200086Y-141346423D01*
X175867874Y-141180567D01*
X175509688Y-141082710D01*
X175139294Y-141056611D01*
X174770925Y-141103275D01*
X174418738Y-141220906D01*
X174183914Y-141346423D01*
X174058000Y-141636395D01*
X160703977Y-141636395D01*
X160834685Y-141505687D01*
X161093178Y-141118827D01*
X161271230Y-140688970D01*
X161362000Y-140232637D01*
X161362000Y-139767363D01*
X161271230Y-139311030D01*
X161093178Y-138881173D01*
X160834685Y-138494313D01*
X160505687Y-138165315D01*
X160118827Y-137906822D01*
X159688970Y-137728770D01*
X159232637Y-137638000D01*
X158767363Y-137638000D01*
X158311030Y-137728770D01*
X157881173Y-137906822D01*
X157494313Y-138165315D01*
X157165315Y-138494313D01*
X156906822Y-138881173D01*
X156728770Y-139311030D01*
X156638000Y-139767363D01*
X96362000Y-139767363D01*
X96271230Y-139311030D01*
X96093178Y-138881173D01*
X95834685Y-138494313D01*
X95505687Y-138165315D01*
X95118827Y-137906822D01*
X94688970Y-137728770D01*
X94232637Y-137638000D01*
X93767363Y-137638000D01*
X93311030Y-137728770D01*
X92881173Y-137906822D01*
X92494313Y-138165315D01*
X92165315Y-138494313D01*
X91906822Y-138881173D01*
X91728770Y-139311030D01*
X91638000Y-139767363D01*
X89660000Y-139767363D01*
X89660000Y-135660000D01*
X188340000Y-135660000D01*
X188340001Y-186340000D01*
M02*
