G04 #@! TF.GenerationSoftware,KiCad,Pcbnew,5.1.4-e60b266~84~ubuntu18.04.1*
G04 #@! TF.CreationDate,2019-10-29T18:36:45-03:00*
G04 #@! TF.ProjectId,fonte_18V_panel,666f6e74-655f-4313-9856-5f70616e656c,rev?*
G04 #@! TF.SameCoordinates,Original*
G04 #@! TF.FileFunction,Profile,NP*
%FSLAX46Y46*%
G04 Gerber Fmt 4.6, Leading zero omitted, Abs format (unit mm)*
G04 Created by KiCad (PCBNEW 5.1.4-e60b266~84~ubuntu18.04.1) date 2019-10-29 18:36:45*
%MOMM*%
%LPD*%
G04 APERTURE LIST*
%ADD10C,0.050000*%
G04 APERTURE END LIST*
D10*
X254732000Y-67968000D02*
X154732000Y-67968000D01*
X254732000Y-129968000D02*
X154732000Y-129968000D01*
X254732000Y-191968000D02*
X154732000Y-191968000D01*
X144732000Y-67968000D02*
X44732000Y-67968000D01*
X144732000Y-129968000D02*
X44732000Y-129968000D01*
X154732000Y-67968000D02*
X154732000Y-15968000D01*
X154732000Y-129968000D02*
X154732000Y-77968000D01*
X154732000Y-191968000D02*
X154732000Y-139968000D01*
X44732000Y-67968000D02*
X44732000Y-15968000D01*
X44732000Y-129968000D02*
X44732000Y-77968000D01*
X254732000Y-15968000D02*
X254732000Y-67968000D01*
X254732000Y-77968000D02*
X254732000Y-129968000D01*
X254732000Y-139968000D02*
X254732000Y-191968000D01*
X144732000Y-15968000D02*
X144732000Y-67968000D01*
X144732000Y-77968000D02*
X144732000Y-129968000D01*
X154732000Y-15968000D02*
X254732000Y-15968000D01*
X154732000Y-77968000D02*
X254732000Y-77968000D01*
X154732000Y-139968000D02*
X254732000Y-139968000D01*
X44732000Y-15968000D02*
X144732000Y-15968000D01*
X44732000Y-77968000D02*
X144732000Y-77968000D01*
X144732000Y-139968000D02*
X144732000Y-191968000D01*
X44732000Y-139968000D02*
X144732000Y-139968000D01*
X44732000Y-191968000D02*
X44732000Y-139968000D01*
X144732000Y-191968000D02*
X44732000Y-191968000D01*
M02*
